<svg xmlns="http://www.w3.org/2000/svg" width="24" height="24" viewBox="0 0 24 24" fill="none">
  <path fill-rule="evenodd" clip-rule="evenodd" d="M5.90705 7.25587C6.31807 7.20449 6.69291 7.49604 6.74429 7.90705L7.97055 17.7171C8.08002 18.5929 8.82447 19.2501 9.70703 19.2501H14.2931C15.1757 19.2501 15.9201 18.5929 16.0296 17.7171L17.2559 7.90705C17.3072 7.49604 17.6821 7.20449 18.0931 7.25587C18.5041 7.30725 18.7957 7.68209 18.7443 8.09311L17.518 17.9032C17.3147 19.5296 15.9322 20.7501 14.2931 20.7501H9.70703C8.06798 20.7501 6.68543 19.5296 6.48213 17.9032L5.25587 8.09311C5.20449 7.68209 5.49604 7.30725 5.90705 7.25587Z" fill="#26473C"/>
  <path fill-rule="evenodd" clip-rule="evenodd" d="M4.25 6C4.25 5.58579 4.58579 5.25 5 5.25H19C19.4142 5.25 19.75 5.58579 19.75 6C19.75 6.41421 19.4142 6.75 19 6.75H5C4.58579 6.75 4.25 6.41421 4.25 6Z" fill="#26473C"/>
  <path fill-rule="evenodd" clip-rule="evenodd" d="M8.37368 3.70588C8.85161 2.80976 9.78454 2.25 10.8001 2.25H13.2001C14.2158 2.25 15.1487 2.80976 15.6266 3.70588L16.6619 5.64706C16.8568 6.01254 16.7186 6.46684 16.3531 6.66177C15.9876 6.85669 15.5333 6.71842 15.3384 6.35294L14.3031 4.41176C14.0858 4.00444 13.6618 3.75 13.2001 3.75H10.8001C10.3385 3.75 9.91445 4.00443 9.69721 4.41176L8.66191 6.35294C8.46699 6.71842 8.01269 6.85669 7.64721 6.66176C7.28172 6.46684 7.14346 6.01254 7.33838 5.64706L8.37368 3.70588Z" fill="#26473C"/>
  <path fill-rule="evenodd" clip-rule="evenodd" d="M13.5 11.25C13.9142 11.25 14.25 11.5858 14.25 12V14C14.25 14.4142 13.9142 14.75 13.5 14.75C13.0858 14.75 12.75 14.4142 12.75 14V12C12.75 11.5858 13.0858 11.25 13.5 11.25Z" fill="#26473C"/>
  <path fill-rule="evenodd" clip-rule="evenodd" d="M10.5 11.25C10.9142 11.25 11.25 11.5858 11.25 12V14C11.25 14.4142 10.9142 14.75 10.5 14.75C10.0858 14.75 9.75 14.4142 9.75 14V12C9.75 11.5858 10.0858 11.25 10.5 11.25Z" fill="#26473C"/>
</svg>
