<svg xmlns="http://www.w3.org/2000/svg" width="24" height="24" viewBox="0 0 24 24" fill="none">
  <path d="M12.5195 6.54004C14.1275 4.99547 16.0325 4.89463 17.5469 5.65625C19.0852 6.42991 20.25 8.11223 20.25 10.2129C20.2499 12.6747 18.7457 14.5572 16.5186 16.4248C15.7487 17.0703 14.9096 17.6806 14.0352 18.3408C13.3539 18.8552 12.6589 19.3946 12 19.9795C11.33 19.3832 10.6306 18.8382 9.94727 18.3223C9.07374 17.6627 8.24269 17.0607 7.48047 16.4238C5.24361 14.5548 3.75012 12.6922 3.75 10.2129C3.75 8.11223 4.91481 6.42991 6.45312 5.65625C7.96754 4.89463 9.87248 4.99548 11.4805 6.54004L12 7.03906L12.5195 6.54004Z" stroke="#243731" stroke-width="1.5" stroke-linecap="round" fill="none"/>
</svg>
