<svg preserveAspectRatio="none" width="100%" height="100%" overflow="visible" style="display: block;" viewBox="0 0 52.7979 54.206" fill="none" xmlns="http://www.w3.org/2000/svg">
<g id="vectorly-UNI-hand-gesture">
<path id="path2130" fill-rule="evenodd" clip-rule="evenodd" d="M49.4943 6.8048C49.5064 6.61277 49.5213 6.41684 49.539 6.21838C49.5465 6.0392 49.6974 5.90004 49.8754 5.90646C50.0542 5.91205 50.1949 6.05986 50.1921 6.23903C50.1968 6.41177 50.1987 6.57923 50.1987 6.74293C50.2322 8.06292 50.3869 9.16375 50.7195 9.95395C51.0074 10.6384 51.4565 11.0301 52.1637 10.9863C52.4451 10.9798 52.6957 11.1642 52.774 11.4349C52.8513 11.7057 52.7367 11.9944 52.4954 12.1387C51.6018 12.7072 51.0214 13.246 50.6804 14.0683C50.4428 14.6432 50.3189 15.3484 50.2788 16.279C50.276 16.4633 50.2713 16.6528 50.2639 16.8488C50.2639 16.8581 50.263 16.8667 50.263 16.8757C50.2406 17.2805 49.8977 17.5924 49.4933 17.5782C49.088 17.5628 48.7703 17.225 48.7778 16.8203C48.7871 16.5032 48.8029 16.2068 48.8262 15.9271C48.8495 15.1434 48.8039 14.4808 48.6389 13.8582C48.4172 13.0178 47.9877 12.2509 47.2209 11.3564C47.0587 11.181 47.0224 10.9232 47.1286 10.7093C47.2348 10.4952 47.4622 10.3689 47.6998 10.3921C48.2336 10.4643 48.6175 10.1447 48.9073 9.49245C49.1896 8.85832 49.3862 7.96751 49.4943 6.8048ZM49.7244 12.8786C50.0002 12.4688 50.3394 12.1168 50.754 11.792C50.481 11.5961 50.2527 11.3357 50.0673 11.0109C49.9173 10.7505 49.798 10.445 49.7048 10.0995C49.6508 10.2297 49.5921 10.3496 49.5297 10.4605C49.3089 10.8485 49.0396 11.1242 48.7265 11.3009C49.1654 11.8345 49.4887 12.3488 49.7244 12.8786Z" fill="var(--fill-0, #283E37)"/>
<path id="path2144" fill-rule="evenodd" clip-rule="evenodd" d="M28.268 5.17502C28.2791 5.03852 28.2923 4.89946 28.3081 4.75756C28.316 4.57923 28.4659 4.44006 28.6447 4.44546C28.8229 4.45106 28.9643 4.59924 28.961 4.77758C28.9663 4.89395 28.9695 5.00773 28.9721 5.1187C29.0129 6.03739 29.1365 6.79956 29.3785 7.34621C29.558 7.75105 29.8308 7.9784 30.2523 7.94383C30.5337 7.93731 30.7842 8.12221 30.8618 8.39232C30.94 8.66345 30.8256 8.95263 30.5837 9.0964C29.9985 9.47934 29.6224 9.83955 29.4015 10.3853C29.2404 10.7819 29.1628 11.2695 29.1411 11.9153C29.1398 12.0262 29.1379 12.1409 29.1345 12.2582C29.1345 12.261 29.1345 12.2647 29.1345 12.2682H29.1336C29.1336 12.2775 29.1336 12.2864 29.1326 12.2955C29.1103 12.7002 28.7677 13.0123 28.3627 12.9968C27.9577 12.9814 27.6395 12.6448 27.6473 12.24C27.6483 12.2307 27.6483 12.2218 27.6486 12.2127C27.6572 11.9781 27.6703 11.7579 27.6888 11.5515C27.7052 11.0484 27.6782 10.6173 27.575 10.2097C27.431 9.63943 27.1529 9.1155 26.642 8.50242C26.4809 8.32678 26.4441 8.0695 26.5506 7.85566C26.6571 7.64192 26.884 7.51547 27.122 7.5382C27.431 7.58553 27.6506 7.39623 27.8255 7.02056C28.0287 6.58581 28.1773 5.97547 28.2674 5.17502H28.268ZM28.5645 9.0873C28.6874 8.94083 28.8242 8.80532 28.9761 8.67703C28.8479 8.55152 28.7368 8.40237 28.6421 8.22954C28.5855 8.12677 28.5349 8.01482 28.4908 7.89379C28.3732 8.09392 28.2371 8.25225 28.0832 8.37412C28.2739 8.61339 28.433 8.84896 28.5645 9.0873Z" fill="var(--fill-0, #283E37)"/>
<path id="path2146" fill-rule="evenodd" clip-rule="evenodd" d="M1.77712 16.1985C1.7883 16.062 1.80144 15.9229 1.81722 15.781C1.82511 15.6027 1.97502 15.4634 2.15387 15.4689C2.33205 15.4745 2.47341 15.6227 2.47012 15.8009C2.47539 15.9174 2.47867 16.0311 2.4813 16.142C2.52207 17.0608 2.64568 17.823 2.88764 18.3697C3.06714 18.7744 3.34 19.0018 3.76146 18.9673C4.04287 18.9608 4.29338 19.1457 4.37097 19.4158C4.44921 19.6868 4.3348 19.9761 4.09284 20.1197C3.50766 20.5027 3.13157 20.8629 2.91065 21.4087C2.74957 21.8053 2.67198 22.2928 2.65028 22.9387C2.64897 23.0497 2.64699 23.1643 2.6437 23.2816C2.6437 23.2844 2.6437 23.2881 2.6437 23.2916H2.64305C2.64305 23.301 2.64305 23.3098 2.6424 23.3189C2.62004 23.7237 2.27748 24.0358 1.87246 24.0203C1.46744 24.0048 1.14921 23.6682 1.1571 23.2634C1.15775 23.2541 1.15775 23.2453 1.15841 23.2361C1.16696 23.0014 1.18011 22.7814 1.19852 22.5749C1.21496 22.0719 1.188 21.6406 1.08477 21.2332C0.940779 20.6629 0.662651 20.1388 0.151771 19.5258C-0.00931725 19.3502 -0.0461324 19.0928 0.0603834 18.8791C0.166899 18.6654 0.393736 18.5389 0.631752 18.5616C0.940778 18.609 1.16038 18.4197 1.33528 18.044C1.53845 17.6092 1.68704 16.9989 1.77712 16.1985ZM2.07365 20.1107C2.19661 19.9643 2.33337 19.8287 2.48525 19.7005C2.35704 19.575 2.24592 19.4257 2.15124 19.253C2.09469 19.1501 2.04406 19.0383 2.00001 18.9172C1.88231 19.1174 1.74621 19.2757 1.59236 19.3976C1.78303 19.6367 1.94215 19.8724 2.07365 20.1107Z" fill="var(--fill-0, #283E37)"/>
<path id="path2148" fill-rule="evenodd" clip-rule="evenodd" d="M20.1039 0.729707C20.1151 0.593301 20.1282 0.454149 20.144 0.312246C20.1519 0.133913 20.3018 -0.00525185 20.4806 0.0001522C20.6588 0.0057426 20.8002 0.15393 20.7969 0.332264C20.8021 0.448638 20.8055 0.562415 20.8081 0.673384C20.8488 1.59207 20.9725 2.35434 21.2144 2.90099C21.3939 3.30583 21.6668 3.53318 22.0882 3.49861C22.3696 3.49209 22.6202 3.6769 22.6977 3.94701C22.776 4.21814 22.6616 4.50732 22.4196 4.65108C21.8344 5.03403 21.4583 5.39423 21.2374 5.93995C21.0763 6.33659 20.9988 6.82416 20.9771 7.46994C20.9758 7.58091 20.9738 7.69557 20.9704 7.81297C20.9704 7.81577 20.9704 7.81944 20.9704 7.82289H20.9695C20.9695 7.83221 20.9695 7.84105 20.9686 7.85019C20.9462 8.25493 20.6037 8.567 20.1986 8.55153C19.7936 8.53607 19.4754 8.19952 19.4833 7.79468C19.4842 7.78536 19.4842 7.77652 19.4846 7.76738C19.4932 7.53277 19.5063 7.31264 19.5247 7.10616C19.5411 6.60312 19.5142 6.17197 19.4109 5.76443C19.2669 5.19412 18.9888 4.67018 18.478 4.0571C18.3169 3.88147 18.28 3.62418 18.3866 3.41035C18.4931 3.19661 18.7199 3.07015 18.9579 3.09289C19.2669 3.14022 19.4866 2.95101 19.6615 2.57534C19.8646 2.14059 20.0132 1.53016 20.1033 0.729707H20.1039ZM20.4004 4.64198C20.5234 4.49552 20.6601 4.36001 20.812 4.23171C20.6838 4.10621 20.5727 3.95706 20.478 3.78423C20.4215 3.68146 20.3708 3.5696 20.3268 3.44857C20.2091 3.6487 20.073 3.80694 19.9191 3.92881C20.1098 4.16808 20.2689 4.40365 20.4004 4.64198Z" fill="var(--fill-0, #283E37)"/>
<path id="path3096" fill-rule="evenodd" clip-rule="evenodd" d="M6.84009 41.5078C6.75214 41.6662 6.55293 41.7221 6.39566 41.6382C6.23838 41.5451 6.18211 41.3493 6.27006 41.1909C6.27006 41.1909 7.29897 39.2995 8.15709 37.5572C8.64719 36.5602 9.08231 35.6192 9.22393 35.1161C9.30313 34.8366 9.2612 34.4546 9.17548 34.026C8.99845 33.1408 8.60526 32.0693 8.31735 31.1003C8.06765 30.2431 7.90646 29.4511 7.97261 28.8921C8.48413 24.5595 9.14287 20.3109 9.2258 16.2019C9.28263 13.3695 9.06367 10.6115 8.30524 7.93744C8.131 7.3225 8.38817 6.70757 9.03758 6.27897C9.69259 5.85038 10.8246 5.61737 12.0843 5.92484C13.5937 6.29754 15.3156 7.44357 16.4756 9.97788C16.9769 11.0773 17.2173 12.2793 17.3123 13.5092C17.4409 15.177 17.2964 16.8821 17.2256 18.3449C17.1688 19.5096 17.1334 20.5065 17.4064 21.1587C17.4856 21.3543 17.6887 21.3824 17.9421 21.3731C18.2859 21.3544 18.6978 21.2519 19.1729 21.0562C20.1941 20.6463 21.4603 19.8822 22.9036 18.7828C23.526 18.3076 31.2519 12.1116 37.3501 7.88148C40.3558 5.7944 42.9889 4.20117 44.2225 3.91234C45.3723 3.65145 46.7 4.52728 46.5705 6.38143C46.4969 7.4436 45.9062 8.87846 44.3306 10.5556C43.766 11.1612 41.9761 12.9968 40.0074 15.0186C36.9653 18.1306 33.4974 21.6619 33.4974 21.6619C33.3725 21.7923 33.1657 21.7923 33.0362 21.6711C32.9057 21.55 32.902 21.3357 33.0268 21.2053L43.6206 9.90336C44.653 8.76665 45.2036 7.76967 45.4207 6.94975C45.772 5.62669 45.1841 4.81612 44.4769 4.98383C43.3141 5.27267 40.8757 6.87528 38.0601 8.88783C32.042 13.1924 24.4065 19.463 23.7925 19.9381C21.8265 21.4569 20.1457 22.3793 18.9177 22.7054C17.3952 23.1154 16.4197 22.6775 16.0284 21.7271C15.7582 21.0749 15.6827 20.1617 15.7097 19.0809C15.7507 17.5063 15.993 15.5403 15.8579 13.6116C15.7842 12.5588 15.5979 11.5153 15.1749 10.5649C14.4547 8.95305 13.4726 8.00263 12.4896 7.52744C11.4983 7.04294 10.5256 7.04296 9.92458 7.31316C9.81557 7.35975 9.72054 7.41569 9.64973 7.49023C9.61433 7.51818 9.56588 7.5461 9.57799 7.59268C10.3271 10.3879 10.5246 13.2856 10.4137 16.2391C10.2581 20.376 9.50624 24.6434 8.90714 29.0039C8.84192 29.4791 8.99099 30.1406 9.18573 30.8487C9.45872 31.855 9.83327 32.9637 9.99446 33.8768C10.097 34.4545 10.1119 34.967 9.9954 35.3397C9.86682 35.759 9.53885 36.4764 9.13541 37.2777C8.19157 39.1504 6.84009 41.5078 6.84009 41.5078Z" fill="var(--fill-0, #283E37)"/>
<path id="path3098" fill-rule="evenodd" clip-rule="evenodd" d="M36.2975 29.1732C36.1642 29.2944 35.9574 29.2851 35.8363 29.1453C35.7152 29.0149 35.7245 28.8099 35.8586 28.6888C36.4838 27.9993 36.945 27.2818 37.3103 26.5644C37.574 26.0426 37.7631 25.5209 37.9094 25.0085C38.038 24.5612 38.1153 24.114 38.1656 23.6854C38.2197 23.2288 38.2401 22.7816 38.2085 22.3623C38.1516 21.589 37.9653 20.8716 37.5991 20.2846C37.205 19.6603 36.6627 19.1479 35.935 18.887C35.7608 18.8311 35.6574 18.6541 35.7049 18.4863C35.7524 18.3093 35.9322 18.2068 36.1055 18.2534C37.286 18.4677 38.2169 19.1665 38.857 20.1541C39.1206 20.5547 39.32 21.0113 39.4626 21.5051C39.648 22.148 39.7263 22.8562 39.6722 23.5922C39.6452 23.9463 39.58 24.3096 39.4821 24.673C39.347 25.1854 39.156 25.6979 38.8886 26.2011C38.3175 27.2726 37.4612 28.2881 36.2975 29.1732Z" fill="var(--fill-0, #283E37)"/>
<path id="path3100" fill-rule="evenodd" clip-rule="evenodd" d="M39.1407 34.5198C38.9935 34.6223 38.7894 34.585 38.686 34.4452C38.5817 34.2961 38.618 34.0912 38.7652 33.9887C39.3671 33.467 39.805 32.7961 40.1498 32.0693C40.3743 31.6034 40.5355 31.1003 40.6631 30.5972C40.7703 30.1779 40.8355 29.7493 40.8821 29.3301C40.9296 28.8921 40.951 28.4729 40.9296 28.0722C40.8532 26.5908 40.214 25.3702 38.6581 25.3795C38.4782 25.3981 38.3199 25.2676 38.304 25.0813C38.2882 24.9043 38.4214 24.7459 38.6012 24.7273C40.1488 24.4571 41.2175 25.2025 41.8502 26.3764C42.0934 26.8237 42.2518 27.3547 42.3365 27.9231C42.4111 28.4262 42.4232 28.9573 42.3598 29.4978C42.3002 30.0009 42.1744 30.5134 41.9937 31.0072C41.7812 31.5849 41.5008 32.1439 41.1449 32.6564C40.61 33.4204 39.942 34.0633 39.1407 34.5198Z" fill="var(--fill-0, #283E37)"/>
<path id="path3102" fill-rule="evenodd" clip-rule="evenodd" d="M19.7083 52.8693C19.8266 52.8134 20.0596 52.7109 20.2366 52.599C21.2978 51.9189 22.865 50.4933 24.6167 49.2169C25.4636 48.6112 26.3553 48.0336 27.2479 47.5863C28.6716 46.8875 30.0645 46.1515 31.4034 45.4154C33.5846 44.2042 35.6148 42.9649 37.3525 41.7164C39.8747 39.8995 41.7866 38.0733 42.6075 36.3124C43.1208 35.2129 43.2243 34.1134 43.0482 33.1817C42.8236 31.9891 42.1621 31.0574 41.3254 30.7499C41.154 30.694 41.0626 30.5077 41.1213 30.3306C41.1791 30.1629 41.3645 30.0697 41.535 30.1256C42.587 30.461 43.4982 31.5512 43.8401 33.014C44.0926 34.1041 44.0256 35.3806 43.4777 36.6943C42.6708 38.6137 40.7347 40.6822 38.0979 42.7134C36.3611 44.0551 34.3206 45.3874 32.1106 46.6639C30.7642 47.4465 29.3517 48.1919 27.9131 48.9187C26.3916 49.6641 24.8841 50.8101 23.5759 51.8164C22.3479 52.7667 21.2848 53.596 20.5497 53.9593C19.7325 54.36 19.1362 54.2389 18.8213 53.8382C17.6473 52.3475 16.1584 50.7729 14.6537 49.2635C11.8594 46.4589 9.00459 43.9153 7.8949 42.7227C7.76912 42.5922 7.77284 42.3873 7.90142 42.2568C8.03093 42.1357 8.23777 42.1356 8.36356 42.2661C9.52357 43.4121 12.4958 45.8067 15.3981 48.4901C16.9476 49.9157 18.4728 51.4344 19.7083 52.8693Z" fill="var(--fill-0, #283E37)"/>
</g>
</svg>
