<svg preserveAspectRatio="none" width="100%" height="100%" overflow="visible" style="display: block;" viewBox="0 0 59.1271 60.0004" fill="none" xmlns="http://www.w3.org/2000/svg">
<g id="vectorly-UNI-target">
<path id="path44-9" fill-rule="evenodd" clip-rule="evenodd" d="M34.9855 23.4291C34.9937 23.6403 34.8242 23.818 34.6169 23.8261C34.4023 23.836 34.2268 23.6683 34.2186 23.4572C34.1816 23.1591 34.1687 22.8451 34.1725 22.5171C34.1779 22.2134 34.2061 21.8997 34.2491 21.5803C34.4247 20.3813 34.8652 19.3484 35.4002 18.6323C36.0816 17.7183 36.9809 17.3699 37.7805 17.5045C38.5886 17.6619 39.2962 18.3681 39.6027 19.4942C39.8395 20.3777 39.8233 21.5371 39.5226 22.7443C39.1889 23.9145 38.6536 24.9116 38.0248 25.5561C37.3132 26.296 36.5142 26.6247 35.8139 26.4133C35.6079 26.3529 35.4154 26.2628 35.2414 26.1197C35.0397 25.9466 34.8553 25.7266 34.7193 25.4424C34.6089 25.2595 34.6742 25.0258 34.8559 24.9165C35.0371 24.8099 35.277 24.8718 35.3808 25.0531C35.4752 25.1845 35.5771 25.2818 35.6893 25.3634C35.7897 25.4364 35.9054 25.4708 36.0184 25.4867C36.4102 25.5434 36.7578 25.2107 37.0901 24.7608C37.5115 24.1871 37.8257 23.3535 37.9805 22.4041C38.1198 21.6486 38.0997 20.9324 37.993 20.3289C37.9279 19.9408 37.8307 19.6055 37.665 19.3625C37.5917 19.2597 37.5322 19.1568 37.4217 19.1295C37.2668 19.0863 37.0976 19.1381 36.9367 19.2465C36.705 19.3957 36.4732 19.6077 36.255 19.8824C35.869 20.3892 35.5122 21.0429 35.2882 21.8096C35.2016 22.0776 35.1359 22.3441 35.0845 22.6079C35.0359 22.8901 34.9964 23.1625 34.9855 23.4291Z" fill="var(--fill-0, #283E37)"/>
<path id="path46-5" fill-rule="evenodd" clip-rule="evenodd" d="M32.3763 21.13C32.7818 18.9095 33.6679 17.0054 34.7552 15.7249C35.9221 14.3391 37.3464 13.706 38.6618 13.9495C40.0016 14.2102 41.098 15.3821 41.6698 17.1401C42.2111 18.7801 42.2855 20.9371 41.8113 23.2127C41.2859 25.4654 40.2957 27.3931 39.1167 28.6418C37.8592 29.99 36.3848 30.5945 35.0597 30.2668C33.7628 29.9397 32.7374 28.7658 32.2611 27.0232C31.8262 25.4124 31.824 23.3124 32.3763 21.13ZM33.13 21.2964C32.7542 23.3189 32.8814 25.2361 33.3802 26.6855C33.7826 27.8679 34.4399 28.7266 35.3613 28.9007C36.2546 29.0746 37.1292 28.5014 37.9394 27.5808C38.9065 26.4608 39.6993 24.7875 40.102 22.8354C40.5586 20.895 40.5303 19.0408 40.1233 17.6234C39.7882 16.4558 39.2227 15.5647 38.3528 15.3493C37.4572 15.1223 36.5006 15.6189 35.6378 16.5221C34.5765 17.6212 33.6552 19.301 33.13 21.2964Z" fill="var(--fill-0, #283E37)"/>
<path id="path48-4" fill-rule="evenodd" clip-rule="evenodd" d="M29.9963 20.3751C30.6883 16.8276 32.133 13.7905 33.8582 11.7522C35.6707 9.62825 37.8325 8.6042 39.8383 9.00875C41.8659 9.41813 43.4669 11.2442 44.3037 13.9531C45.1192 16.552 45.2299 19.9706 44.4587 23.5674C43.646 27.1456 42.1064 30.2002 40.2726 32.2143C38.3555 34.2962 36.1564 35.2831 34.1449 34.8008C32.1551 34.3234 30.645 32.4984 29.8951 29.8087C29.1645 27.238 29.1543 23.8799 29.9963 20.3751ZM30.7563 20.5428C30.0848 23.894 30.2262 27.0709 30.993 29.4775C31.6859 31.6001 32.8535 33.1198 34.4448 33.4424C36.0143 33.7602 37.6363 32.8084 39.0715 31.1556C40.6934 29.2763 42.0641 26.4714 42.7432 23.1888C43.4874 19.9207 43.4466 16.8041 42.7666 14.4167C42.1606 12.3133 41.0879 10.7764 39.5304 10.4038C37.9512 10.0266 36.2544 10.9044 34.754 12.5428C33.0236 14.3982 31.558 17.2204 30.7563 20.5428Z" fill="var(--fill-0, #283E37)"/>
<path id="path50-9" fill-rule="evenodd" clip-rule="evenodd" d="M27.7186 19.877C28.6852 15.2219 30.6037 11.2309 32.9286 8.57829C35.2933 5.88409 38.0828 4.58261 40.6831 5.10613C43.3072 5.66023 45.3531 8.00382 46.4537 11.4504C47.5623 14.861 47.6991 19.3561 46.6901 24.065C45.623 28.7609 43.5828 32.7501 41.1706 35.3834C38.7213 38.0464 35.8789 39.311 33.2681 38.6969C30.6864 38.0891 28.704 35.7343 27.6933 32.295C26.6985 28.9221 26.6383 24.4944 27.7186 19.877ZM28.4752 20.044C27.5828 24.5012 27.7754 28.7436 28.8047 31.9601C29.7549 34.8437 31.3805 36.8801 33.5681 37.3378C35.7266 37.7891 38.0134 36.5531 40.002 34.3183C42.1998 31.8268 44.0361 28.0701 44.9734 23.686C45.9715 19.3026 45.8847 15.1339 44.9109 11.9423C44.048 9.07796 42.5204 7.01269 40.3725 6.51341C38.1981 5.9956 35.8637 7.17039 33.8196 9.38043C31.5054 11.8463 29.5447 15.6134 28.4752 20.044Z" fill="var(--fill-0, #283E37)"/>
<path id="path52-3" fill-rule="evenodd" clip-rule="evenodd" d="M27.7186 19.877C28.6852 15.2219 30.6037 11.2309 32.9286 8.57829C35.2933 5.88409 38.0828 4.58261 40.6831 5.10613C43.3072 5.66023 45.3531 8.00382 46.4537 11.4504C47.5623 14.861 47.6991 19.3561 46.6901 24.065C45.623 28.7609 43.5828 32.7501 41.1706 35.3834C38.7213 38.0464 35.8789 39.311 33.2681 38.6969C30.6864 38.0891 28.704 35.7343 27.6933 32.295C26.6985 28.9221 26.6383 24.4944 27.7186 19.877ZM28.4752 20.044C27.5828 24.5012 27.7754 28.7436 28.8047 31.9601C29.7549 34.8437 31.3805 36.8801 33.5681 37.3378C35.7266 37.7891 38.0134 36.5531 40.002 34.3183C42.1998 31.8268 44.0361 28.0701 44.9734 23.686C45.9715 19.3026 45.8847 15.1339 44.9109 11.9423C44.048 9.07796 42.5204 7.01269 40.3725 6.51341C38.1981 5.9956 35.8637 7.17039 33.8196 9.38043C31.5054 11.8463 29.5447 15.6134 28.4752 20.044Z" fill="var(--fill-0, #283E37)"/>
<path id="path54-8" fill-rule="evenodd" clip-rule="evenodd" d="M28.6096 10.6294C28.5244 10.8293 28.3036 10.8983 28.079 10.7982C27.8971 10.6908 27.822 10.4724 27.9464 10.2812C29.7903 6.58476 32.1554 3.6928 34.6825 1.92986C37.0104 0.324676 39.4571 -0.329314 41.8164 0.157908C45.2343 0.878655 47.8894 3.93705 49.3352 8.37653C50.8095 12.8728 51.0603 18.8144 49.7224 25.0611C49.0888 27.9316 48.2055 30.6293 47.0617 33.0172C45.783 35.8295 44.1832 38.2346 42.4543 40.1065C39.2206 43.5803 35.4819 45.2439 32.0355 44.4662C28.5927 43.6727 25.9873 40.5749 24.595 36.08C23.2453 31.5775 23.073 25.6534 24.5142 19.4967C24.8543 18.1422 25.223 16.8446 25.6238 15.5877C26.0815 14.2592 26.6035 13.0122 27.1933 11.8305C27.2785 11.6306 27.5028 11.5456 27.6882 11.6369C27.8736 11.7284 27.9488 11.9467 27.8635 12.1466C27.3557 13.3294 26.8765 14.5691 26.4686 15.8581C26.0714 17.099 25.749 18.3734 25.4551 19.7044C24.2202 25.6712 24.4849 31.3636 25.877 35.6735C27.1581 39.5553 29.3852 42.3172 32.3718 42.9429C35.3549 43.5846 38.4665 41.9674 41.1878 38.9523C42.8135 37.1753 44.2604 34.9048 45.4965 32.2851C46.5372 29.9922 47.4313 27.4314 48.0367 24.6892C49.4249 18.773 49.2743 13.1225 47.9249 8.80523C46.7364 4.87653 44.5626 2.05907 41.551 1.36069C39.5194 0.878622 37.3362 1.45618 35.2717 2.79988C32.8156 4.4272 30.4858 7.15868 28.6096 10.6294Z" fill="var(--fill-0, #283E37)"/>
<path id="path56-9" fill-rule="evenodd" clip-rule="evenodd" d="M5.56621 3.51212C5.36996 3.43538 5.27675 3.20514 5.35679 3.01876C5.43792 2.82141 5.66268 2.72274 5.85893 2.79949C5.85893 2.79949 8.46717 3.64373 11.7683 4.81683C12.5226 5.09092 13.3076 5.37602 14.1068 5.683C14.6199 5.88034 15.1396 6.07764 15.6516 6.29692C16.9617 6.8451 18.2521 7.43713 19.4461 7.99627C22.6222 9.4655 25.0704 10.7044 25.0704 10.7044C25.2666 10.7812 25.3609 11.0113 25.2798 11.2087C25.1987 11.3951 24.9739 11.4938 24.7777 11.417C24.7777 11.417 22.1716 10.5619 18.876 9.37786C17.6382 8.9392 16.305 8.44587 14.985 7.91961C14.4686 7.7113 13.9599 7.49199 13.4567 7.27272C12.6728 6.92188 11.9086 6.58197 11.1839 6.2421C8.01107 4.75105 5.56621 3.51212 5.56621 3.51212Z" fill="var(--fill-0, #283E37)"/>
<path id="path58-2" fill-rule="evenodd" clip-rule="evenodd" d="M0.459267 31.0032C0.250958 31.0471 0.0492153 30.9047 0.00755368 30.6964C-0.034108 30.499 0.100744 30.2906 0.309052 30.2467C0.309052 30.2467 2.66623 29.5562 5.71082 28.7778C6.40591 28.6023 7.13607 28.4268 7.88378 28.2623C8.36508 28.1527 8.85078 28.043 9.34085 27.9443C10.5929 27.7141 11.8504 27.5169 13.0158 27.3525C16.124 26.892 18.5634 26.6178 18.5634 26.6178C18.7717 26.5739 18.9746 26.7056 19.0162 26.9139C19.0568 27.1222 18.9219 27.3305 18.7136 27.3634C18.7136 27.3634 16.3553 28.054 13.3086 28.8214C12.1651 29.1065 10.9295 29.4026 9.68293 29.6658C9.19505 29.7754 8.70389 29.8521 8.2182 29.9398C7.46281 30.0714 6.72058 30.1919 6.01125 30.2906C2.89978 30.7401 0.459267 31.0032 0.459267 31.0032Z" fill="var(--fill-0, #283E37)"/>
<path id="path60-6" fill-rule="evenodd" clip-rule="evenodd" d="M15.8012 23.5926C15.5896 23.6036 15.4087 23.439 15.3989 23.2307C15.389 23.0114 15.5523 22.8361 15.765 22.8251C15.765 22.8251 18.5422 22.4742 22.1042 22.1343C22.9188 22.0576 23.7728 21.9919 24.6433 21.9371C25.2036 21.8933 25.7704 21.8494 26.3383 21.8275C27.7888 21.7727 29.2393 21.7618 30.5834 21.7618C34.1608 21.7398 36.9588 21.8166 36.9588 21.8166C37.1704 21.8056 37.3501 21.9699 37.3611 22.1892C37.371 22.3975 37.2065 22.5731 36.9949 22.584C36.9949 22.584 34.2167 22.9239 30.6536 23.2528C29.316 23.3734 27.871 23.5049 26.4217 23.5817C25.8537 23.6146 25.2858 23.6255 24.7245 23.6365C23.8518 23.6584 22.9955 23.6692 22.1777 23.6692C18.5992 23.6692 15.8012 23.5926 15.8012 23.5926Z" fill="var(--fill-0, #283E37)"/>
<path id="path62-9" fill-rule="evenodd" clip-rule="evenodd" d="M17.393 23.2093C17.3535 23.1983 17.314 23.1764 17.2746 23.1545C16.096 22.5844 14.8023 21.8498 14.8023 21.8498C14.6017 21.773 14.4975 21.5537 14.5699 21.3564C14.6411 21.1591 14.8615 21.0495 15.0611 21.1262C15.0611 21.1262 16.5258 21.3783 17.8019 21.6853C18.1999 21.784 18.5716 21.8828 18.8731 21.9815C19.2952 22.113 19.5704 22.2226 19.5704 22.2226C19.896 22.3432 20.1218 22.6392 20.1459 22.9791C20.1711 23.3299 19.9881 23.6588 19.6822 23.8123C19.6822 23.8123 18.9718 24.1412 18.1407 24.4701C17.0367 24.8977 15.7605 25.3254 15.7605 25.3254C15.5731 25.424 15.3406 25.3473 15.242 25.1609C15.1433 24.9745 15.2156 24.7442 15.4031 24.6455C15.4031 24.6455 16.4293 23.8671 17.393 23.2093Z" fill="var(--fill-0, #283E37)"/>
<path id="path64-0" fill-rule="evenodd" clip-rule="evenodd" d="M9.81212 19.168C9.60052 19.146 9.44484 18.9598 9.46458 18.7515C9.48431 18.5322 9.67182 18.3786 9.88342 18.4005C9.88342 18.4005 13.7305 18.5431 18.6356 18.8281C19.7583 18.8939 20.9336 18.9706 22.1308 19.0583C22.9004 19.1241 23.6799 19.179 24.4572 19.2558C26.4438 19.4531 28.4239 19.6943 30.257 19.9245C35.1314 20.5385 38.9402 21.0977 38.9402 21.0977C39.1518 21.1197 39.3074 21.3059 39.2877 21.5142C39.268 21.7225 39.0805 21.8871 38.87 21.8652C38.87 21.8652 35.0218 21.7115 30.1189 21.4155C28.2748 21.3059 26.2838 21.1744 24.295 20.999C23.5166 20.9332 22.7404 20.8565 21.9729 20.7688C20.779 20.6373 19.6092 20.4947 18.4942 20.3521C13.6198 19.7382 9.81212 19.168 9.81212 19.168Z" fill="var(--fill-0, #283E37)"/>
<path id="path66-7" fill-rule="evenodd" clip-rule="evenodd" d="M10.9743 18.9391C10.9173 18.8953 10.8602 18.8515 10.8021 18.8077C9.82088 18.0621 8.77166 17.1411 8.77166 17.1411C8.59076 17.0314 8.53157 16.8013 8.6412 16.6149C8.74974 16.4395 8.98656 16.3736 9.16856 16.4833C9.16856 16.4833 10.4721 16.9767 11.5882 17.503C12.4247 17.8867 13.1297 18.2922 13.1297 18.2922C13.4104 18.4677 13.5738 18.7747 13.5529 19.1036C13.5321 19.4325 13.3303 19.7176 13.031 19.8492C13.031 19.8492 12.7657 19.9698 12.359 20.1233C12.0673 20.222 11.7088 20.3425 11.3251 20.4631C10.0994 20.8469 8.68944 21.2197 8.68944 21.2197C8.49538 21.3074 8.26848 21.2196 8.18296 21.0222C8.09744 20.8249 8.18623 20.5947 8.38028 20.5179C8.38028 20.5179 9.60709 19.7286 10.7177 19.0818C10.8043 19.0269 10.8899 18.983 10.9743 18.9391Z" fill="var(--fill-0, #283E37)"/>
<path id="path68-3" fill-rule="evenodd" clip-rule="evenodd" d="M14.3079 11.7152C14.1095 11.6495 14.0086 11.4192 14.0832 11.2219C14.1577 11.0245 14.3792 10.9259 14.5787 11.0026C14.5787 11.0026 17.62 11.9126 21.4737 13.1844C22.3552 13.4695 23.2739 13.7874 24.2091 14.1163C24.8099 14.3356 25.4173 14.5439 26.0192 14.7741C27.5563 15.3662 29.0758 16.002 30.4813 16.594C34.2199 18.1618 37.1132 19.4776 37.1132 19.4776C37.3117 19.5543 37.4125 19.7736 37.3369 19.9709C37.2624 20.1683 37.0409 20.2669 36.8424 20.2011C36.8424 20.2011 33.8022 19.2802 29.954 17.9975C28.5079 17.5151 26.9478 16.9888 25.402 16.4187C24.7968 16.1994 24.1982 15.9582 23.6061 15.717C22.6863 15.3552 21.7872 14.9824 20.9332 14.6206C17.1979 13.0418 14.3079 11.7152 14.3079 11.7152Z" fill="var(--fill-0, #283E37)"/>
<path id="path70-0" fill-rule="evenodd" clip-rule="evenodd" d="M15.3012 11.7761C14.7268 11.0416 14.1786 10.2194 14.1786 10.2194C14.0251 10.0768 14.0185 9.83565 14.1643 9.67119C14.3101 9.5177 14.5535 9.51774 14.707 9.66027C14.707 9.66027 15.6576 10.2304 16.4656 10.8005C16.7156 10.9759 16.9403 11.1513 17.1223 11.3048C17.3766 11.5131 17.5334 11.6665 17.5334 11.6665C17.779 11.8967 17.8689 12.2586 17.7626 12.5765C17.6573 12.8945 17.3756 13.1248 17.039 13.1686C17.039 13.1686 16.4053 13.2235 15.6784 13.2125C14.7059 13.2016 13.6173 13.1029 13.6173 13.1029C13.4067 13.1248 13.2149 12.9823 13.1886 12.774C13.1622 12.5547 13.3114 12.3683 13.5219 12.3464C13.5219 12.3464 14.4176 12.0283 15.3012 11.7761Z" fill="var(--fill-0, #283E37)"/>
<path id="path72-7" fill-rule="evenodd" clip-rule="evenodd" d="M56.6188 52.545C56.6813 52.5011 57.0025 52.227 57.156 52.0077C57.3369 51.7446 57.5243 51.4597 57.4947 51.2514L53.2683 26.8135C53.254 26.7367 53.2541 26.66 53.2672 26.5833C53.2672 26.5833 54.2857 20.9479 53.8636 15.1591C53.6751 12.5827 53.2047 9.97335 52.2125 7.83534C51.8134 6.98018 50.3948 4.00908 47.1802 2.23298C45.3296 1.21337 42.8891 0.588486 39.7129 0.961248C39.5024 0.994139 39.3095 0.840649 39.282 0.632341C39.2557 0.424032 39.4038 0.226645 39.6143 0.204718C43.0009 -0.266717 45.6179 0.369086 47.6122 1.43255C51.1161 3.29637 52.7037 6.46493 53.1488 7.38587C54.2287 9.62255 54.7802 12.3526 55.0203 15.0715C55.5005 20.4985 54.7363 25.8157 54.6025 26.6818C54.8087 27.7782 56.5223 36.8999 57.7754 43.6644C58.4869 47.5017 59.0483 50.5825 59.113 51.0101C59.1897 51.5363 58.9485 52.2927 58.5154 52.9396C58.0385 53.6413 57.3391 54.1346 56.8435 54.2004C56.3666 54.2552 55.4084 53.9704 54.7067 53.4441C54.1629 53.0384 53.7979 52.5121 53.731 51.9968L51.3453 36.3737C51.2663 36.5381 51.1874 36.6917 51.1096 36.8452C50.3005 38.402 49.5352 39.3887 49.1646 39.8163L48.5507 58.3996C48.5189 58.7723 48.339 59.1231 48.0266 59.3972C47.6231 59.748 46.9631 59.9892 46.302 60.0002C45.2451 60.0112 44.2683 59.4739 44.1334 58.3666C44.1005 58.0925 44.0973 56.1192 44.117 53.6743C44.1444 50.2865 44.2047 45.9559 44.2343 43.9824C42.9932 44.5964 41.8125 44.9911 40.6054 45.2323C39.2031 45.5064 37.7647 45.5722 36.1487 45.4955C35.8867 46.2301 35.2869 47.8746 34.6083 49.3985C34.1072 50.5168 33.5624 51.5692 33.0778 52.1722C32.5746 52.808 31.5002 53.126 30.7481 52.9396C30.0859 52.7642 29.6111 52.282 29.7931 51.361C29.8797 50.9334 30.1549 50.0342 30.4992 48.9927C31.2655 46.6684 32.3695 43.6426 32.3695 43.6426C32.4397 43.4453 32.659 43.3357 32.8596 43.4124C33.0591 43.4782 33.1644 43.6973 33.0931 43.8946C33.0931 43.8946 32.0505 46.9316 31.3291 49.2559C31.0188 50.2536 30.7678 51.1198 30.6932 51.5364C30.6625 51.7118 30.6768 51.8324 30.7579 51.9201C30.8599 52.0188 31.0276 52.0407 31.203 52.0407C31.6043 52.0516 32.0735 51.8761 32.3092 51.5692C32.7445 51.01 33.2181 50.0233 33.6599 48.9818C34.5173 46.9645 35.2354 44.739 35.2354 44.739C35.3144 44.4978 35.5424 44.3443 35.7935 44.3552C37.4731 44.4429 38.9411 44.3772 40.3653 44.0702C41.7566 43.7742 43.1029 43.237 44.5665 42.3818C44.7628 42.2722 45.0039 42.2722 45.2002 42.3818C45.3953 42.4914 45.5149 42.7107 45.5138 42.93C45.5138 42.93 45.516 49.1463 45.5445 53.6743C45.5587 56.0205 45.5752 57.9172 45.6113 58.1803C45.6387 58.3886 45.8405 58.4433 46.0302 58.4762C46.2736 58.5091 46.5421 58.4763 46.7658 58.3886C46.8776 58.3448 47.1133 58.279 47.0344 58.2242C47.018 58.2132 47.0191 58.2571 47.018 58.279L47.4653 39.4544C47.4708 39.2461 47.5585 39.0379 47.7087 38.8844C47.7087 38.8844 48.5956 37.9524 49.5703 36.0557C50.0198 35.1786 50.4857 34.0932 50.8925 32.8105C51.0153 32.4268 51.388 32.1746 51.7926 32.2075C52.1971 32.2404 52.5272 32.5475 52.5875 32.9422C52.5875 32.9422 53.31 37.6454 54.0149 42.3488C54.6925 46.8658 55.3536 51.3937 55.4029 51.7884C55.4084 51.8432 55.4621 51.8763 55.506 51.9201C55.609 52.0298 55.7417 52.1393 55.8809 52.227C56.1473 52.3914 56.4346 52.545 56.6188 52.545Z" fill="var(--fill-0, #283E37)"/>
<path id="path74-9" fill-rule="evenodd" clip-rule="evenodd" d="M32.7335 43.7719C39.1888 44.66 46.3294 36.3606 48.8729 24.8379C51.4888 12.9863 48.2601 2.18687 41.6655 0.728715C41.0055 0.586188 40.3378 0.531499 39.6657 0.586317C48.681 -0.575824 52.0206 6.2106 52.6828 7.61394C56.0124 14.6307 53.9271 26.6908 53.9271 26.6908C53.9271 26.6908 58.1284 49.9006 58.306 51.1285C58.4134 51.885 57.4037 53.2993 56.7513 53.3651C56.1725 53.4309 54.6704 52.6963 54.5685 51.885C54.4676 51.0847 51.7267 33.0715 51.7267 33.0715C50.3475 37.4021 48.3225 39.4743 48.3225 39.4743C48.3225 39.4743 47.8292 57.7835 47.7864 58.3426C47.7053 59.3622 45.0609 59.7241 44.8745 58.2769C44.7748 57.4875 44.8844 42.9278 44.8844 42.9278C41.7959 44.7039 39.2075 45.0986 35.7649 44.9122C35.7649 44.9122 34.0173 50.1857 32.6962 51.8741C32.0187 52.7292 29.9772 52.8608 30.2447 51.4465C30.5089 50.0541 32.7335 43.7719 32.7335 43.7719Z" fill="var(--fill-0, #283E37)"/>
</g>
</svg>
