<svg preserveAspectRatio="none" width="100%" height="100%" overflow="visible" style="display: block;" viewBox="0 0 56.1858 63.9978" fill="none" xmlns="http://www.w3.org/2000/svg">
<g id="vectorly-UNI-handshake">
<path id="path2614" fill-rule="evenodd" clip-rule="evenodd" d="M17.8261 31.1409C18.5856 31.4925 19.4307 31.3038 20.2303 30.9436C22.0149 30.1375 23.5883 28.4223 23.8648 28.1565C24.0949 27.9421 24.8779 27.5133 25.8031 27.1017C26.8282 26.6557 28.0274 26.2098 28.7264 26.0554C29.209 25.9439 29.7863 25.9869 30.3473 26.1069C31.406 26.3385 32.4012 26.8359 32.4012 26.8359C32.4341 26.853 32.4655 26.8702 32.4952 26.8959C32.4952 26.8959 37.1246 30.2661 40.5387 32.7016C42.2323 33.9193 43.6193 34.897 43.975 35.0943C45.3371 35.8575 46.9132 35.7803 47.6874 36.0633C47.9486 36.1576 48.1497 36.2863 48.2889 36.4492C48.5301 36.715 48.679 37.1439 48.6822 37.6584C48.6861 38.3273 48.4689 39.1677 48.0569 39.9395C47.4939 40.9943 46.5784 41.9033 45.463 42.092C43.782 42.3836 42.1557 42.0234 40.5241 41.2688C37.5493 39.8881 34.5463 37.1953 31.0683 35.18C30.9237 35.1028 30.8723 34.9227 30.9536 34.7769C31.035 34.6311 31.2185 34.5797 31.363 34.6569C34.8612 36.5693 37.903 39.1677 40.8849 40.4626C42.3495 41.0972 43.7965 41.4145 45.2833 41.123C46.1005 40.96 46.7213 40.2397 47.1186 39.4507C47.3777 38.9447 47.5368 38.3959 47.574 37.9242C47.5987 37.6155 47.5938 37.3411 47.4577 37.1953C47.3603 37.0838 47.1626 37.0753 46.9272 37.041C46.3438 36.938 45.5653 36.878 44.7594 36.6722C44.3044 36.5522 43.8426 36.3892 43.3977 36.149C42.9489 35.9089 40.904 34.5111 38.6449 32.9246C35.6167 30.8064 32.195 28.3538 31.7469 28.0365C31.5616 27.9421 30.8305 27.6076 30.0601 27.4447C29.6999 27.3675 29.3302 27.3247 29.0205 27.3933C28.4809 27.5133 27.616 27.8221 26.795 28.1651C25.8768 28.5424 25.0065 28.9369 24.7851 29.1427C24.4792 29.4257 22.7196 31.2695 20.7555 32.1271C19.5289 32.6674 18.2289 32.8217 17.0924 32.1785C16.9222 32.0842 16.754 31.9127 16.6677 31.6211C16.5449 31.2009 16.5979 30.2919 17.0037 29.1341C17.483 27.7534 18.4309 25.9526 20.0113 24.1843C20.3873 23.764 23.1678 21.9065 25.8556 20.5198C27.5506 19.6451 29.2094 18.9633 30.2022 18.8981C31.3643 18.8227 34.7524 18.9385 37.7731 19.1495C39.9853 19.3038 42.0003 19.5096 42.8084 19.7163C42.9696 19.7557 43.0686 19.9187 43.0294 20.0799C42.9901 20.2411 42.8275 20.3397 42.6662 20.3011C41.7202 20.0825 39.1044 19.9161 36.4824 19.82C33.8714 19.7248 31.2547 19.7017 30.2701 19.7884C29.3587 19.8673 27.8606 20.5602 26.3192 21.3963C23.8125 22.7556 21.2017 24.5204 20.855 24.9235C19.9078 26.0212 19.2146 27.1274 18.7312 28.1222C18.162 29.2885 17.8879 30.2919 17.8499 30.9265C17.8459 30.9951 17.8311 31.0809 17.8261 31.1409ZM17.8253 31.158C17.8213 31.218 17.8282 31.2695 17.8663 31.2523C17.9217 31.2352 17.8815 31.1923 17.8253 31.158Z" fill="var(--fill-0, #283E37)"/>
<path id="path2616" fill-rule="evenodd" clip-rule="evenodd" d="M43.4082 19.907C43.7213 20.401 44.3541 21.2603 45.0712 22.8348C45.397 23.5492 45.7329 24.4102 46.0615 25.4478C46.493 26.8028 46.9113 28.4579 47.2718 30.4818C47.5378 31.974 47.7611 33.6634 47.9463 35.5843C47.9689 35.7473 47.8537 35.9016 47.6893 35.9187C47.5249 35.9445 47.3732 35.833 47.3508 35.6615C46.8891 33.0459 46.3592 30.8762 45.8491 29.0582C45.2339 26.8714 44.6096 25.2163 44.0636 23.9462C43.3679 22.3297 42.7895 21.3538 42.4371 20.7655C42.2202 20.4036 42.0875 20.1489 42.041 19.9739C41.9662 19.6935 42.0044 19.4791 42.108 19.3093C42.1815 19.1884 42.2845 19.0718 42.4538 18.9895C42.7327 18.8549 43.6918 18.5109 44.8654 18.1302C47.2103 17.3695 50.4118 16.4227 50.4118 16.4227C50.5685 16.3687 50.7399 16.4519 50.7941 16.6088C50.8485 16.7657 50.7652 16.9364 50.6085 16.9913C50.6085 16.9913 46.7396 18.5246 44.4739 19.4602C44.0446 19.6369 43.6755 19.7904 43.4082 19.907Z" fill="var(--fill-0, #283E37)"/>
<path id="path2618" fill-rule="evenodd" clip-rule="evenodd" d="M55.7791 34.5203C55.9344 34.4602 56.1078 34.5375 56.1664 34.7004C56.2249 34.8548 56.1464 35.0263 55.9911 35.0863C55.9911 35.0863 55.0519 35.618 53.7774 36.2097C53.4893 36.3469 53.1842 36.4755 52.8679 36.6041C52.6655 36.6813 52.46 36.7671 52.2494 36.8357C51.7123 37.0072 51.1643 37.1445 50.6474 37.256C49.5155 37.5046 48.5499 37.6247 48.1066 37.599C47.941 37.599 47.7997 37.4789 47.7914 37.3074C47.7831 37.1444 47.9109 36.9986 48.0766 36.9901C48.4299 36.93 49.0964 36.6471 49.9213 36.2955C50.2199 36.1668 50.532 36.0382 50.8593 35.901C51.1693 35.7809 51.4855 35.6522 51.8076 35.5322C52.0136 35.4636 52.2225 35.4036 52.429 35.335C52.7526 35.2406 53.0692 35.1549 53.3746 35.0777C54.7302 34.7347 55.7791 34.5203 55.7791 34.5203Z" fill="var(--fill-0, #283E37)"/>
<path id="path2620" fill-rule="evenodd" clip-rule="evenodd" d="M43.0358 41.7586C42.9753 41.6042 43.0517 41.4242 43.2062 41.3641C43.3606 41.3041 43.5352 41.3813 43.5956 41.5356C43.7983 41.9816 44.0053 42.8649 44.0625 43.7053C44.1044 44.3227 44.0448 44.9058 43.8872 45.3003C43.7466 45.6434 43.2923 46.398 42.7398 46.9297C42.2841 47.3757 41.7419 47.6329 41.2577 47.6158C40.4978 47.5729 39.5142 47.3671 38.4326 47.0155C37.6113 46.741 36.7309 46.3894 35.8443 45.9864C34.5824 45.4118 33.3103 44.7343 32.16 44.0997C30.6563 43.2593 29.3772 42.4618 28.6218 41.9644C28.4785 41.8787 28.43 41.6986 28.5136 41.5528C28.5972 41.4156 28.7814 41.3641 28.9247 41.4499C29.7162 41.8615 31.0622 42.4961 32.6141 43.1907C33.7944 43.7224 35.0944 44.2713 36.3589 44.7772C37.2291 45.1288 38.0818 45.4547 38.8684 45.7206C39.8258 46.055 40.677 46.3209 41.3505 46.3895C41.4593 46.398 41.5725 46.3466 41.6873 46.2865C41.8531 46.1836 42.0187 46.055 42.1716 45.9093C42.5566 45.5491 42.8843 45.1117 43.0009 44.8887C43.1819 44.5457 43.2365 43.9625 43.2315 43.388C43.2259 42.7448 43.1508 42.1016 43.0358 41.7586Z" fill="var(--fill-0, #283E37)"/>
<path id="path2622" fill-rule="evenodd" clip-rule="evenodd" d="M39.2909 46.6722C39.2919 46.5007 39.4273 46.372 39.5932 46.372C39.7591 46.372 39.893 46.5092 39.8921 46.6722C39.9191 47.1524 39.8653 47.8642 39.5167 48.4474C39.2198 48.9533 38.7064 49.3478 37.8627 49.4936C37.1962 49.5965 36.6525 49.6908 35.4376 49.4593C34.8711 49.3478 34.1511 49.1677 33.1959 48.859C32.621 48.6703 31.9588 48.4387 31.1956 48.1386C30.6081 47.907 29.9632 47.6327 29.2467 47.3154C28.5465 47.0066 27.7827 46.655 26.942 46.2606C25.9166 45.7803 24.7882 45.2315 23.5234 44.6055C23.3706 44.5454 23.299 44.3653 23.3636 44.2109C23.4282 44.0651 23.6047 43.988 23.7575 44.0566C25.01 44.5025 26.1388 44.897 27.1597 45.2572C28.4594 45.7288 29.5799 46.1233 30.5509 46.4663C31.4117 46.775 32.154 47.0495 32.7967 47.281C33.7203 47.624 34.4367 47.89 35.0191 48.0786C36.5349 48.5674 37.0656 48.5503 37.7573 48.5074C38.2842 48.4817 38.6317 48.2844 38.8501 48.0014C39.1708 47.5812 39.2659 47.0409 39.2909 46.6722Z" fill="var(--fill-0, #283E37)"/>
<path id="path2624" fill-rule="evenodd" clip-rule="evenodd" d="M13.5163 21.4614C12.1864 20.9726 7.68939 18.9856 4.65145 17.7987C3.70341 17.4283 2.90201 17.135 2.38867 16.9986C2.22727 16.9609 2.12745 16.7987 2.16587 16.6367C2.20429 16.4754 2.36654 16.376 2.52785 16.4146C3.26073 16.5689 4.56955 16.9917 6.05666 17.5148C9.18473 18.616 13.1106 20.1579 14.0361 20.4186C14.2868 20.4906 14.5865 20.7728 14.6159 21.3876C14.6521 22.1432 14.3375 23.7888 13.8001 25.8762C13.5044 27.0253 13.1452 28.3116 12.7418 29.658C12.3771 30.8758 11.9797 32.1364 11.5672 33.3884C9.84446 38.6282 7.96424 43.7051 7.776 44.4426C7.42843 45.7718 6.54994 46.6036 4.85495 46.4664C3.72742 46.3807 2.18808 45.8147 0.151613 44.5969C0.00754094 44.5112 -0.0427121 44.3311 0.0395287 44.1853C0.12177 44.0395 0.305461 43.9881 0.449532 44.0738C2.39973 45.1286 3.84919 45.6003 4.90349 45.6432C6.04749 45.6775 6.63295 45.1201 6.82736 44.2196C6.97804 43.5422 8.36996 39.1685 9.85244 34.3833C10.2539 33.0883 10.6644 31.7591 11.0608 30.4727C11.3353 29.5808 11.6055 28.6976 11.8585 27.8657C12.5563 25.5589 13.1225 23.5453 13.3437 22.2812C13.3943 21.9922 13.5034 21.6518 13.5163 21.4614ZM13.5175 21.422C13.5167 21.3465 13.494 21.3044 13.4358 21.313C13.3761 21.3233 13.471 21.3868 13.5175 21.422Z" fill="var(--fill-0, #283E37)"/>
<path id="path2626" fill-rule="evenodd" clip-rule="evenodd" d="M14.1117 21.7633C13.9522 21.8087 13.7857 21.7161 13.7401 21.5566C13.6946 21.3971 13.7871 21.2307 13.9466 21.1852C14.6123 20.946 16.2498 20.4674 18.3142 20.0249C18.8761 19.904 19.4689 19.7926 20.0821 19.6905C20.4707 19.6254 20.8668 19.5618 21.2688 19.5147C22.2561 19.3989 23.2704 19.3295 24.2637 19.2917C25.9019 19.23 27.4721 19.2805 28.7846 19.4143C28.9504 19.4212 29.0799 19.561 29.0735 19.7265C29.0672 19.892 28.9275 20.0216 28.7617 20.0155C27.8759 20.0421 26.8825 20.1424 25.8279 20.2685C25.067 20.3594 24.2825 20.4743 23.4879 20.5841C22.7058 20.693 21.9204 20.8147 21.1486 20.9116C20.1651 21.0351 19.2086 21.133 18.3275 21.2307C16.3532 21.4494 14.7698 21.6226 14.1117 21.7633Z" fill="var(--fill-0, #283E37)"/>
<path id="path2628" fill-rule="evenodd" clip-rule="evenodd" d="M8.5253 40.2019C8.39555 40.099 8.3742 39.9103 8.47762 39.7817C8.58096 39.6445 8.77022 39.6273 8.89997 39.7302C9.48157 40.159 11.565 41.1366 14.1133 42.2944C15.2981 42.8261 16.5814 43.4006 17.8628 43.9666C18.7075 44.344 19.5511 44.7127 20.3628 45.0815C21.2411 45.476 22.0828 45.8533 22.854 46.2049C24.5801 46.9853 25.9437 47.5856 26.5574 47.7485C28.19 48.203 29.751 48.4088 31.0353 48.4517C32.4607 48.5032 33.5322 48.3917 33.9439 48.1859C34.0894 48.1001 34.2722 48.1602 34.3521 48.2974C34.432 48.4432 34.3789 48.6318 34.2334 48.709C33.7938 48.9748 32.6207 49.2321 31.0339 49.2921C29.6836 49.335 28.0319 49.2235 26.2879 48.8633C25.5527 48.709 23.7645 48.0487 21.5951 47.1225C21.0177 46.8824 20.4142 46.608 19.7972 46.325C18.9274 45.9219 18.0303 45.4931 17.1388 45.0471C15.935 44.4468 14.7437 43.8294 13.6447 43.2377C11.1175 41.8827 9.08564 40.6821 8.5253 40.2019Z" fill="var(--fill-0, #283E37)"/>
<path id="path2630" fill-rule="evenodd" clip-rule="evenodd" d="M22.3595 46.3972C22.5211 46.4315 22.6221 46.5944 22.5848 46.7573C22.5474 46.9117 22.386 47.0147 22.2243 46.9804C21.3792 46.8432 20.416 47.3748 19.8199 48.1295C19.3196 48.7641 19.115 49.6045 19.6813 50.3678C19.7947 50.5307 19.9686 50.6336 20.1677 50.7108C20.3874 50.8051 20.6424 50.8566 20.9212 50.8909C21.6988 50.9766 22.6426 50.8737 23.5975 50.6164C25.1707 50.2048 26.7707 49.4502 27.6591 48.4211C27.76 48.2839 27.9488 48.2667 28.0805 48.361C28.2121 48.4639 28.237 48.6526 28.136 48.7813C27.5166 49.7074 26.4671 50.5393 25.2779 51.1568C24.5279 51.5512 23.7241 51.8599 22.9437 52.0486C21.9933 52.2801 21.0742 52.3316 20.3297 52.1858C19.549 52.0315 18.9454 51.6541 18.5903 51.1053C17.7796 49.7674 18.1229 48.3953 19.0541 47.4606C19.9345 46.5687 21.2921 46.0714 22.3595 46.3972Z" fill="var(--fill-0, #283E37)"/>
<path id="path2632" fill-rule="evenodd" clip-rule="evenodd" d="M18.8245 48.5731C18.9904 48.5731 19.1267 48.7017 19.1287 48.8732C19.1307 49.0362 18.9977 49.1734 18.8318 49.1734C17.8503 49.2849 16.9795 49.2506 16.2255 49.0876C15.5451 48.9418 14.9739 48.6846 14.5201 48.3759C14.1945 48.1529 13.9326 47.9041 13.737 47.6383C13.4794 47.2867 13.3262 46.9094 13.2844 46.5321C13.2233 45.9918 13.3454 45.4515 13.7435 44.9798C13.9413 44.7483 14.192 44.5254 14.5282 44.3453C15.0242 44.0794 15.6768 43.8736 16.5258 43.7878C16.6882 43.7535 16.8476 43.8564 16.8816 44.0193C16.9156 44.1823 16.8113 44.3367 16.649 44.371C15.9423 44.6025 15.4299 44.8941 15.0564 45.2028C14.6328 45.5459 14.4839 45.9403 14.5688 46.3177C14.6198 46.5492 14.7717 46.7636 14.9722 46.9779C15.1692 47.1923 15.4135 47.3982 15.7162 47.5869C16.045 47.7841 16.4203 47.9728 16.8587 48.1271C17.4332 48.3329 18.0795 48.5045 18.8245 48.5731Z" fill="var(--fill-0, #283E37)"/>
<path id="path2634" fill-rule="evenodd" clip-rule="evenodd" d="M13.864 45.7605C14.0277 45.7348 14.1825 45.8462 14.2096 46.0091C14.2367 46.1721 14.1258 46.3264 13.9621 46.3522C13.2643 46.5665 12.6512 46.6352 12.1047 46.6181C11.7934 46.6009 11.5123 46.5494 11.2525 46.4808C10.7259 46.335 10.3131 46.0606 10.0012 45.7519C9.83535 45.5889 9.702 45.4003 9.60347 45.2116C9.33728 44.6799 9.27819 44.0882 9.46119 43.5308C9.57319 43.1963 9.75328 42.8618 10.0425 42.5788C10.5028 42.1243 11.1758 41.747 12.1112 41.627C12.2719 41.5841 12.4357 41.687 12.4768 41.8414C12.5177 42.0043 12.4206 42.1672 12.2599 42.2101C11.5728 42.4759 11.1303 42.8704 10.8626 43.2906C10.7509 43.4707 10.7012 43.6508 10.669 43.8395C10.6237 44.0968 10.6928 44.3369 10.8167 44.5684C10.9188 44.7571 11.0602 44.9457 11.2644 45.0915C11.4652 45.2459 11.6983 45.3831 11.9879 45.486C12.4937 45.6661 13.1036 45.7948 13.864 45.7605Z" fill="var(--fill-0, #283E37)"/>
<path id="path2636" fill-rule="evenodd" clip-rule="evenodd" d="M9.96691 43.219C10.1045 43.1246 10.2915 43.159 10.3841 43.2962C10.4767 43.4334 10.4402 43.622 10.3026 43.7163C10.3026 43.7163 10.1635 43.8964 9.87258 44.1451C9.77301 44.2309 9.66256 44.291 9.52706 44.3681C9.40649 44.4367 9.27296 44.471 9.12701 44.5053C9.0343 44.531 8.93637 44.5482 8.8368 44.5397C8.65423 44.5311 8.46831 44.4967 8.29036 44.4196C8.17056 44.3595 8.05582 44.3167 7.94836 44.2223C7.73654 44.0422 7.54573 43.8793 7.39094 43.5792C7.26934 43.4677 7.26231 43.2704 7.37516 43.1504C7.48802 43.0303 7.6784 43.0217 7.79992 43.1332C7.9704 43.2104 8.11276 43.2018 8.26789 43.219C8.38392 43.2361 8.48108 43.2018 8.58742 43.2018C8.68844 43.2018 8.78089 43.1675 8.87445 43.1675C9.01372 43.1675 9.13798 43.2018 9.26018 43.2018C9.68417 43.2104 9.96691 43.219 9.96691 43.219Z" fill="var(--fill-0, #283E37)"/>
<path id="path2638" fill-rule="evenodd" clip-rule="evenodd" d="M8.59424 53.0411C8.66585 52.8868 8.84542 52.8267 8.99507 52.8953C9.14472 52.9639 9.20809 53.144 9.13657 53.2984C9.13657 53.2984 8.80298 54.3789 8.29289 55.7596C8.17704 56.0684 8.04754 56.3857 7.90862 56.7201C7.8196 56.926 7.7293 57.1403 7.62631 57.3461C7.36243 57.8778 7.06948 58.3838 6.79318 58.8554C6.05266 60.1161 5.42132 61.0594 5.42132 61.0594C5.34971 61.2138 5.17014 61.2738 5.02049 61.2052C4.87085 61.128 4.80747 60.9565 4.87908 60.8021C4.87908 60.8021 5.21739 59.7216 5.73631 58.3495C5.92995 57.835 6.14348 57.2947 6.38926 56.7544C6.48522 56.54 6.59388 56.3428 6.70133 56.137C6.86907 55.8283 7.03853 55.5196 7.20875 55.2366C7.95896 53.9759 8.59424 53.0411 8.59424 53.0411Z" fill="var(--fill-0, #283E37)"/>
<path id="path2640" fill-rule="evenodd" clip-rule="evenodd" d="M23.025 55.2086C23.0643 55.0542 23.227 54.9513 23.3882 54.9942C23.5494 55.0285 23.6483 55.1914 23.609 55.3544C23.609 55.3544 23.6364 55.9375 23.5864 56.7093C23.5754 56.8894 23.5551 57.0609 23.5271 57.241C23.5093 57.3611 23.4912 57.4812 23.4593 57.5927C23.377 57.8842 23.2634 58.1672 23.1528 58.4244C22.8491 59.1448 22.5614 59.6508 22.5614 59.6508C22.5221 59.8138 22.3593 59.9081 22.1981 59.8652C22.037 59.8309 21.938 59.668 21.9774 59.505C21.9774 59.505 21.9547 58.9219 22.0146 58.1501C22.0364 57.8671 22.0643 57.5669 22.127 57.2667C22.1514 57.1552 22.1893 57.0352 22.2269 56.9237C22.2862 56.7522 22.3492 56.5893 22.4189 56.4263C22.7335 55.7145 23.025 55.2086 23.025 55.2086Z" fill="var(--fill-0, #283E37)"/>
<path id="path2642" fill-rule="evenodd" clip-rule="evenodd" d="M28.5007 55.2935C28.4949 55.1305 28.6248 54.9848 28.7906 54.9848C28.9564 54.9762 29.0956 55.1048 29.1015 55.2678C29.1015 55.2678 29.3069 56.3654 29.4899 57.7804C29.5314 58.1063 29.5653 58.4494 29.5934 58.7924C29.6114 59.0154 29.6294 59.2384 29.6334 59.4613C29.6436 60.0445 29.6196 60.6191 29.5924 61.1508C29.5195 62.5829 29.3956 63.6806 29.3956 63.6806C29.4015 63.8521 29.2715 63.9892 29.1058 63.9978C28.94 63.9978 28.8006 63.8692 28.7949 63.7063C28.7949 63.7063 28.5942 62.6172 28.4216 61.1936C28.3572 60.6619 28.2931 60.0873 28.2629 59.5127C28.2511 59.2898 28.2534 59.0583 28.2559 58.8353C28.2597 58.4923 28.27 58.1492 28.2888 57.8233C28.3719 56.3912 28.5007 55.2935 28.5007 55.2935Z" fill="var(--fill-0, #283E37)"/>
<path id="path2644" fill-rule="evenodd" clip-rule="evenodd" d="M38.3488 53.284C38.2831 53.1297 38.3535 52.9496 38.5058 52.881C38.6581 52.8209 38.8351 52.8896 38.9008 53.0439C38.9008 53.0439 39.4121 53.8072 40.0062 54.8448C40.1404 55.085 40.2717 55.3336 40.4006 55.5909C40.4832 55.7538 40.5666 55.9253 40.6371 56.0969C40.8178 56.5428 40.9655 56.9973 41.0984 57.4175C41.4559 58.5581 41.666 59.4585 41.666 59.4585C41.7317 59.6043 41.6614 59.7844 41.509 59.853C41.3567 59.913 41.1797 59.8445 41.114 59.6901C41.114 59.6901 40.6065 58.9268 40.0225 57.8806C39.8057 57.4947 39.577 57.0745 39.3778 56.6371C39.3001 56.4656 39.2355 56.2941 39.1717 56.1226C39.0722 55.8481 38.9814 55.5823 38.9026 55.325C38.5541 54.1759 38.3488 53.284 38.3488 53.284Z" fill="var(--fill-0, #283E37)"/>
<path id="path2646" fill-rule="evenodd" clip-rule="evenodd" d="M45.8953 51.0235C45.8128 50.8778 45.8627 50.6891 46.0066 50.6119C46.1505 50.5262 46.3343 50.5776 46.4168 50.7234C46.4168 50.7234 47.3181 51.9583 48.407 53.5877C48.6552 53.9651 48.9068 54.3596 49.1581 54.7626C49.3196 55.0199 49.4827 55.2857 49.6338 55.5601C50.0199 56.2548 50.3753 56.958 50.7001 57.6183C51.5675 59.3763 52.1825 60.7827 52.1825 60.7827C52.265 60.9285 52.215 61.1086 52.0711 61.1944C51.9272 61.2716 51.7434 61.2201 51.6609 61.0828C51.6609 61.0828 50.7633 59.8394 49.6838 58.2014C49.2792 57.5926 48.8475 56.9236 48.444 56.2376C48.2862 55.9717 48.1406 55.6973 47.997 55.4315C47.7733 55.0027 47.5602 54.5911 47.3644 54.188C46.5055 52.4214 45.8953 51.0235 45.8953 51.0235Z" fill="var(--fill-0, #283E37)"/>
<path id="path2648" fill-rule="evenodd" clip-rule="evenodd" d="M44.6175 7.6876C44.7144 7.55296 44.9024 7.5221 45.037 7.61901C45.1717 7.71592 45.2024 7.90378 45.1055 8.03842C45.1055 8.03842 44.7936 8.7562 44.3079 9.66093C44.1987 9.86504 44.0775 10.0708 43.9468 10.2801C43.8634 10.4139 43.7787 10.5485 43.6825 10.6754C43.4354 11.0013 43.1639 11.304 42.9072 11.5818C42.2128 12.3348 41.6344 12.8631 41.6344 12.8631C41.5375 12.9977 41.3495 13.0277 41.2149 12.9308C41.0801 12.8348 41.0495 12.6461 41.1464 12.5114C41.1464 12.5114 41.463 11.7954 41.9562 10.8975C42.1386 10.5657 42.3386 10.2123 42.5694 9.87441C42.6592 9.7432 42.7604 9.61974 42.8605 9.49796C43.0172 9.30758 43.1742 9.12747 43.3325 8.95938C44.0362 8.21158 44.6175 7.6876 44.6175 7.6876Z" fill="var(--fill-0, #283E37)"/>
<path id="path2650" fill-rule="evenodd" clip-rule="evenodd" d="M36.9617 0.181265C37.0275 0.0294752 37.2045 -0.0408523 37.3568 0.0243231C37.5091 0.0903561 37.5794 0.267904 37.5136 0.419694C37.5136 0.419694 37.0435 1.93245 36.3616 3.84655C36.2061 4.28305 36.0345 4.73587 35.8531 5.19638C35.7367 5.49225 35.6186 5.79148 35.4875 6.08477C35.1524 6.83601 34.7871 7.57095 34.444 8.25014C33.5283 10.0622 32.7543 11.4446 32.7543 11.4446C32.6886 11.5964 32.5115 11.6676 32.3592 11.6015C32.2069 11.5355 32.1367 11.3589 32.2024 11.2063C32.2024 11.2063 32.6774 9.69522 33.3684 7.78627C33.6273 7.07019 33.9118 6.30004 34.2285 5.54109C34.3524 5.24437 34.4891 4.95365 34.6244 4.66551C34.8351 4.21786 35.0473 3.78226 35.2582 3.36977C36.1835 1.56115 36.9617 0.181265 36.9617 0.181265Z" fill="var(--fill-0, #283E37)"/>
<path id="path2652" fill-rule="evenodd" clip-rule="evenodd" d="M21.309 5.62686C21.2754 5.46478 21.38 5.3053 21.5425 5.27185C21.705 5.23841 21.8641 5.34301 21.8977 5.50509C21.8977 5.50509 22.2132 6.21172 22.5488 7.17049C22.6243 7.38574 22.6936 7.61211 22.7586 7.84708C22.8001 7.99716 22.8418 8.14895 22.87 8.30417C22.942 8.70209 22.9797 9.10175 23.0102 9.47479C23.0925 10.4842 23.088 11.2585 23.088 11.2585C23.1216 11.4206 23.017 11.5801 22.8545 11.6135C22.6921 11.647 22.5329 11.5424 22.4992 11.3803C22.4992 11.3803 22.1879 10.6719 21.8629 9.7123C21.7429 9.35726 21.6189 8.97569 21.5271 8.58121C21.4913 8.42856 21.4695 8.27245 21.448 8.11809C21.4144 7.87625 21.3883 7.64128 21.3721 7.41402C21.2996 6.40037 21.309 5.62686 21.309 5.62686Z" fill="var(--fill-0, #283E37)"/>
<path id="path2654" fill-rule="evenodd" clip-rule="evenodd" d="M9.25969 5.19904C9.18191 5.0524 9.23782 4.87057 9.3843 4.79253C9.53086 4.71535 9.713 4.77109 9.7907 4.91773C9.7907 4.91773 10.5533 5.9974 11.4657 7.43383C11.6733 7.76057 11.8821 8.10707 12.0899 8.46468C12.2233 8.69365 12.3581 8.92605 12.4805 9.16531C12.7936 9.77676 13.0753 10.4011 13.332 10.9834C14.0184 12.5382 14.4898 13.7739 14.4898 13.7739C14.5675 13.9197 14.5117 14.1023 14.3651 14.1795C14.2187 14.2575 14.0365 14.2018 13.9587 14.0551C13.9587 14.0551 13.2001 12.972 12.2971 11.5322C11.9594 10.9936 11.6 10.4097 11.2691 9.80765C11.1398 9.57267 11.0229 9.33079 10.9078 9.09153C10.7281 8.71934 10.5584 8.35148 10.4042 7.99645C9.72638 6.43567 9.25969 5.19904 9.25969 5.19904Z" fill="var(--fill-0, #283E37)"/>
<path id="path2656" fill-rule="evenodd" clip-rule="evenodd" d="M44.7893 35.8847C44.8385 36.0391 44.75 36.2106 44.5915 36.2621C44.4331 36.3049 44.2645 36.2192 44.2153 36.0648C43.8243 35.0357 43.1194 33.9209 42.3754 32.9175C41.9117 32.2915 41.4289 31.7169 40.9843 31.2453C40.6119 30.8594 40.2731 30.5506 39.9927 30.3791C39.5431 30.0789 39.0265 29.8217 38.4849 29.5558C37.7057 29.1871 36.8701 28.8355 36.0443 28.5439C34.2995 27.9265 32.6319 27.532 31.7755 27.5749C31.6107 27.592 31.4618 27.4719 31.4433 27.309C31.4248 27.146 31.5436 27.0003 31.7085 26.9831C32.613 26.8202 34.4463 26.9831 36.3686 27.4633C37.2728 27.6863 38.194 27.9779 39.0392 28.3381C39.6561 28.5953 40.2262 28.9126 40.7315 29.2385C41.0766 29.4701 41.5073 29.8645 41.9447 30.3962C42.3879 30.9279 42.8541 31.5969 43.2781 32.3172C43.9474 33.4664 44.5158 34.7527 44.7893 35.8847Z" fill="var(--fill-0, #283E37)"/>
<path id="path2658" fill-rule="evenodd" clip-rule="evenodd" d="M44.5025 35.9797C44.2275 35.8854 43.9529 35.7739 43.6858 35.6281C42.6023 35.0278 32.096 27.4468 32.096 27.4468C32.096 27.4468 31.9621 27.3783 31.7422 27.284C33.3336 27.1124 37.8019 28.1587 40.3623 29.8138C41.5605 30.5942 43.7661 33.6128 44.5025 35.9797Z" fill="var(--fill-0, #283E37)"/>
</g>
</svg>
