<svg preserveAspectRatio="none" width="100%" height="100%" overflow="visible" style="display: block;" viewBox="0 0 16 16" fill="none" xmlns="http://www.w3.org/2000/svg">
<g id="Frame 100">
<path id="path2756" fill-rule="evenodd" clip-rule="evenodd" d="M13.137 14.5613C13.1523 14.6728 13.0731 14.7725 12.961 14.7901C12.8484 14.8077 12.7445 14.7256 12.7293 14.6141L12.0423 10.0673C12.0323 9.99685 12.0534 9.92058 12.1009 9.86191L15.0109 6.14757L10.4388 5.48926C10.3062 5.46873 10.193 5.38484 10.1343 5.26398L8.23169 1.41586L5.9647 5.48107C5.89136 5.61073 5.7617 5.69812 5.61386 5.71689L1.35505 6.2291L4.56838 9.76216C4.64582 9.85016 4.68336 9.96162 4.67162 10.0731L4.14772 14.532L8.18417 12.7719C8.26102 12.7367 8.35019 12.7367 8.42529 12.7778L12.68 15.1246C12.7797 15.1774 12.8179 15.3064 12.7645 15.4062C12.7111 15.5059 12.5861 15.5411 12.4864 15.4883L8.29093 13.3234L3.88196 15.3886C3.77108 15.4414 3.64199 15.4296 3.54401 15.3533C3.44545 15.2829 3.39265 15.1656 3.40556 15.0483L3.8673 10.1728L0.118328 6.19215C0.00509589 6.07012 -0.0301092 5.89411 0.0268001 5.73746C0.0842961 5.58081 0.223926 5.46877 0.38996 5.44824L5.26301 4.81634L7.86323 0.229585C7.94537 0.0834985 8.10204 -0.00451477 8.26925 0.000178784C8.43646 0.00545903 8.58722 0.102869 8.65997 0.253649L10.7791 4.71951L15.7067 5.54736C15.8294 5.56672 15.932 5.64944 15.9766 5.76502C16.0212 5.8806 16.0013 6.01142 15.9232 6.10764L12.602 10.1142L13.137 14.5613Z" fill="var(--fill-0, #283E37)"/>
</g>
</svg>
