<svg preserveAspectRatio="none" width="100%" height="100%" overflow="visible" style="display: block;" viewBox="0 0 64.0009 56.8515" fill="none" xmlns="http://www.w3.org/2000/svg">
<g id="vectorly-UNI-air-balloon">
<path id="path48" fill-rule="evenodd" clip-rule="evenodd" d="M20.9063 23.8172C20.8191 23.6726 20.8662 23.4849 21.0109 23.3982C21.1555 23.3115 21.3429 23.3584 21.43 23.5031C21.6287 23.6162 21.7751 23.6416 21.9633 23.769C22.0609 23.8348 22.1568 23.894 22.2283 23.9875C22.2814 24.0573 22.2997 24.14 22.3311 24.222C22.3546 24.2844 22.3616 24.3352 22.3781 24.3999C22.4252 24.5817 22.4304 24.701 22.4792 24.8828C22.5969 25.0041 22.5934 25.1977 22.4714 25.3147C22.3503 25.4318 22.1568 25.4282 22.04 25.3069C21.8082 25.2319 21.6548 25.1877 21.4405 25.0726C21.3176 25.0064 21.2113 24.9341 21.118 24.8297C21.0823 24.7901 21.0588 24.7421 21.0379 24.6937C21.003 24.6157 20.9751 24.5466 20.9586 24.4627C20.9115 24.2199 20.9124 24.0653 20.9063 23.8172ZM21.7507 8.39002C21.8936 8.30078 22.0819 8.34453 22.1707 8.48762C22.2605 8.63063 22.2169 8.81921 22.0731 8.90836C21.7158 9.17319 21.4195 9.80298 21.145 10.6469C20.9952 11.1051 20.8705 11.6243 20.7538 12.1912C20.6518 12.6872 20.569 13.2169 20.4932 13.7716C20.4235 14.2847 20.3695 14.8182 20.3198 15.364C20.271 15.8881 20.2239 16.422 20.2004 16.963C20.1664 17.7627 20.1647 18.57 20.23 19.3722C20.2971 20.1874 20.4113 20.9877 20.6196 21.7585C20.6753 21.9176 20.5917 22.0921 20.4322 22.1481C20.2736 22.204 20.0993 22.1204 20.0427 21.9614C19.485 20.6711 19.1337 19.2567 18.9882 17.8229C18.8897 16.8587 18.8802 15.8913 18.9586 14.9652C18.9917 14.5782 19.0492 14.1995 19.1163 13.8315C19.2235 13.243 19.3586 12.6824 19.5181 12.1605C19.8074 11.2145 20.1577 10.3984 20.5272 9.76568C20.9333 9.07114 21.3559 8.59341 21.7507 8.39002Z" fill="var(--fill-0, #283E37)"/>
<path id="path50" fill-rule="evenodd" clip-rule="evenodd" d="M33.803 45.7115C32.9499 45.7285 32.1865 45.5708 31.5295 45.2C30.8933 44.8418 30.3556 44.2825 29.9347 43.4733C24.523 33.0436 20.0673 29.8702 17.6029 25.9685C16.6582 24.4726 15.9968 22.8736 15.6665 20.761C14.7683 14.9587 16.3959 9.423 20.0394 5.53103C23.4154 1.92455 28.5256 -0.274804 34.9664 0.0276747C41.4003 0.365883 46.1192 3.29351 48.8241 7.26844C51.9117 11.8059 52.3796 17.7112 49.7914 22.7011C47.2337 27.615 42.2543 33.8806 39.4291 38.7168C38.4905 40.3235 37.7899 41.7659 37.5171 42.9428C37.3228 43.7768 37.0187 44.5875 36.2257 45.1177C35.6932 45.4743 34.9307 45.71 33.803 45.7115ZM33.7961 45.1007C34.7573 45.0819 35.4091 44.89 35.8579 44.5779C36.488 44.1392 36.6936 43.466 36.8374 42.7912C37.1032 41.5545 37.7995 40.028 38.7546 38.3302C41.4901 33.465 46.3597 27.1471 48.8311 22.2104C51.1579 17.5796 50.6594 12.1477 47.7714 7.9927C45.2338 4.34282 40.8487 1.68604 34.8985 1.41598C28.9186 1.11114 24.1649 3.11608 21.0041 6.44126C17.582 10.0409 16.0256 15.1773 16.8003 20.5922C17.0757 22.5387 17.6639 24.0167 18.5101 25.4059C20.9161 29.354 25.3134 32.6171 30.5534 43.1592C30.8924 43.8432 31.3281 44.325 31.8545 44.6348C32.4122 44.9631 33.0658 45.1014 33.7961 45.1007Z" fill="var(--fill-0, #283E37)"/>
<path id="path52" fill-rule="evenodd" clip-rule="evenodd" d="M29.7729 42.5674C29.609 42.6077 29.4434 42.5075 29.4034 42.3439C29.3633 42.1802 29.4635 42.0146 29.6264 41.9742C30.3872 41.6773 31.1306 41.4199 31.9096 41.249C32.2268 41.1794 32.5458 41.1328 32.8674 41.0995C33.0826 41.0772 33.2979 41.0606 33.514 41.0627C34.056 41.0682 34.5937 41.1325 35.127 41.2416C35.9104 41.4018 36.6608 41.6625 37.4207 41.9978C37.5819 42.0463 37.6742 42.2166 37.6254 42.3781C37.5766 42.5396 37.4067 42.6314 37.2455 42.583C36.4821 42.4544 35.7457 42.4308 34.9998 42.4253C34.5841 42.4222 34.1754 42.4424 33.7623 42.4514C33.4878 42.4573 33.2133 42.4566 32.9388 42.4576C32.5214 42.4591 32.1083 42.4564 31.6883 42.4674C31.0495 42.4844 30.4221 42.4983 29.7729 42.5674Z" fill="var(--fill-0, #283E37)"/>
<path id="path54" fill-rule="evenodd" clip-rule="evenodd" d="M31.2373 44.7237C31.0935 44.8115 30.9053 44.7657 30.8181 44.6218C30.7301 44.4778 30.7763 44.2897 30.9201 44.202C31.4368 43.7482 31.9527 43.4145 32.5131 43.182C32.7606 43.0794 33.015 43.0159 33.2712 42.9678C33.4455 42.9351 33.6216 42.9135 33.7976 42.9141C34.2342 42.9156 34.6664 42.9915 35.0873 43.1377C35.6633 43.3375 36.1958 43.6434 36.7326 44.0505C36.8816 44.129 36.94 44.3138 36.8607 44.463C36.7832 44.6123 36.5975 44.6697 36.4485 44.5913C36.0782 44.4732 35.7261 44.4126 35.3688 44.3555C35.0132 44.2988 34.6734 44.293 34.3292 44.2907C34.1279 44.2893 33.93 44.3017 33.7296 44.3094C33.5301 44.3172 33.3314 44.3177 33.1292 44.3358C32.8834 44.3577 32.6403 44.376 32.3867 44.4242C32.0085 44.4964 31.6338 44.5732 31.2373 44.7237Z" fill="var(--fill-0, #283E37)"/>
<path id="path56" fill-rule="evenodd" clip-rule="evenodd" d="M36.59 44.3208C36.1273 44.9472 35.3212 45.3919 33.7988 45.4078C32.7234 45.419 31.8014 45.1438 31.0781 44.4628C32.9151 43.3438 34.753 43.3554 36.59 44.3208Z" fill="var(--fill-0, #283E37)"/>
<path id="path58" fill-rule="evenodd" clip-rule="evenodd" d="M31.0677 44.8083C31.0014 44.6533 31.0729 44.4737 31.228 44.4074C31.3831 44.3412 31.5627 44.4133 31.6289 44.5683C31.6289 44.5683 32.008 45.0379 32.4263 45.7663C32.5178 45.925 32.6005 46.0951 32.6807 46.2769C32.7313 46.3913 32.7809 46.5086 32.8167 46.6317C32.9064 46.941 32.9605 47.2616 32.9927 47.5774C33.0511 48.1473 33.0363 48.6578 32.9683 49.0756C32.9753 49.244 32.8445 49.3868 32.6764 49.3942C32.5082 49.4016 32.3653 49.2709 32.3574 49.1025C32.2772 48.7956 32.1099 48.4691 31.9356 48.0864C31.8589 47.9188 31.7788 47.7549 31.703 47.5789C31.6289 47.4076 31.5478 47.2392 31.4921 47.0625C31.3953 46.7625 31.3343 46.4631 31.2794 46.1854C31.1217 45.3874 31.0677 44.8083 31.0677 44.8083Z" fill="var(--fill-0, #283E37)"/>
<path id="path60" fill-rule="evenodd" clip-rule="evenodd" d="M37.2743 51.0428C37.3292 51.0918 37.4033 51.2308 37.4608 51.4516C37.5855 51.9383 37.704 52.9988 37.7336 53.9637C37.7519 54.5723 37.7257 55.1406 37.6586 55.5148C37.6133 55.7652 37.5271 55.9478 37.4495 56.0617C37.3423 56.2151 37.0722 56.3914 36.6574 56.5154C36.1049 56.6806 35.209 56.8016 34.3062 56.8394C33.4008 56.8774 32.4901 56.8245 31.9106 56.6919C31.5071 56.5996 31.2248 56.439 31.074 56.2903C30.9015 56.1157 30.7254 55.8066 30.6121 55.3909C30.4858 54.9277 30.4091 54.3083 30.3952 53.6886C30.3812 53.0698 30.4239 52.452 30.5215 51.9919C30.613 51.5622 30.7603 51.2427 30.9198 51.0816C31.0392 50.9611 31.2744 50.816 31.6309 50.7426C32.0884 50.6484 32.8091 50.6039 33.5864 50.6099C34.8029 50.6193 36.151 50.7299 36.7706 50.8503C37.0539 50.9053 37.2273 50.9896 37.2743 51.0428ZM32.0335 55.2706C32.0422 55.2795 32.0518 55.2963 32.0587 55.3033C32.0491 55.294 32.0413 55.283 32.0335 55.2706C32.0274 55.2646 32.0213 55.2621 32.0169 55.2688C31.9585 55.3563 32.2661 55.3539 32.4631 55.3901C32.9563 55.4809 33.6221 55.528 34.2879 55.5377C34.9641 55.5474 35.6395 55.5266 36.1354 55.453C36.2852 55.4308 36.4805 55.4301 36.5772 55.406C36.5955 55.3618 36.646 55.235 36.6687 55.131C36.7393 54.816 36.7907 54.3937 36.8238 53.9442C36.8796 53.1816 36.8918 52.3507 36.8543 51.8251C36.8456 51.7011 36.8578 51.5538 36.8465 51.4787C36.7637 51.4681 36.6025 51.4866 36.463 51.4801C35.9175 51.4549 35.0548 51.4739 34.1912 51.5299C33.4783 51.5762 32.7698 51.6515 32.2478 51.7547C32.0082 51.8022 31.6596 51.8178 31.725 51.9132C31.7398 51.9348 31.7659 51.8859 31.779 51.8704C31.7834 51.8651 31.7947 51.855 31.7947 51.855C31.7947 51.855 31.7407 52.0549 31.7189 52.2034C31.664 52.5922 31.6701 53.1084 31.7102 53.6235C31.7485 54.1291 31.8296 54.6319 31.9437 55.0078C31.976 55.1149 31.996 55.2103 32.0335 55.2706ZM36.5728 55.4161C36.572 55.4195 36.5702 55.422 36.5702 55.422C36.5702 55.422 36.5711 55.4199 36.5728 55.4161ZM36.8465 51.4784C36.8404 51.4421 36.8282 51.4228 36.8055 51.4315C36.7837 51.4401 36.8334 51.464 36.843 51.4748C36.8438 51.4757 36.8447 51.4769 36.8465 51.4784ZM36.8465 51.4787C36.8613 51.4964 36.8909 51.5483 36.8996 51.5201C36.9075 51.4957 36.8857 51.4838 36.8465 51.4787ZM36.5781 55.4057C36.626 55.3936 36.6486 55.3757 36.6295 55.3462C36.6138 55.3232 36.5955 55.3849 36.5807 55.4016C36.5798 55.4027 36.5789 55.4042 36.5781 55.4057Z" fill="var(--fill-0, #283E37)"/>
<path id="path62" fill-rule="evenodd" clip-rule="evenodd" d="M32.7437 51.1472C32.755 51.3154 32.6278 51.4615 32.4596 51.4732C32.2914 51.485 32.1458 51.358 32.1336 51.1899C32.1336 51.1899 31.9393 50.2649 31.9777 49.5113C31.996 49.1414 32.1162 48.8273 32.2504 48.6067C32.3785 48.4085 32.6304 48.2429 32.9711 48.1258C33.3214 48.005 33.806 47.9463 34.2879 47.9766C34.6731 48.0008 35.053 48.0841 35.3597 48.1913C35.7632 48.3323 36.0639 48.5141 36.1963 48.6952C36.3436 48.9047 36.4682 49.2204 36.4621 49.6007C36.4508 50.2866 36.1963 51.1431 36.1963 51.1431C36.1693 51.3094 36.0116 51.4222 35.8451 51.3948C35.6796 51.3673 35.5663 51.21 35.5942 51.0437C35.5942 51.0437 35.5942 50.5607 35.5305 50.0664C35.4992 49.8215 35.4748 49.3411 35.3353 49.4443C35.3301 49.4482 35.3319 49.4591 35.3362 49.4631C35.3432 49.4694 35.3493 49.4906 35.3493 49.4906C35.3493 49.4906 35.3162 49.486 35.2979 49.4794C35.2491 49.462 35.1924 49.4572 35.1314 49.4438C34.9484 49.4036 34.7262 49.3919 34.4935 49.377C34.3288 49.3663 34.1598 49.3615 33.9942 49.3589C33.8277 49.3563 33.6665 49.3511 33.5192 49.3636C33.4243 49.3716 33.3371 49.374 33.2613 49.3933C33.2343 49.4003 33.1855 49.4034 33.1855 49.4034C33.1855 49.4034 33.2003 49.3697 33.2116 49.3578C33.1027 49.4672 33.0234 49.6675 32.965 49.8891C32.8099 50.4863 32.7437 51.1472 32.7437 51.1472Z" fill="var(--fill-0, #283E37)"/>
<path id="path64" fill-rule="evenodd" clip-rule="evenodd" d="M36.0648 44.5058C36.1093 44.3432 36.2774 44.2475 36.4404 44.2922C36.6025 44.3369 36.6984 44.5051 36.6539 44.6677C36.6539 44.6677 36.6835 45.2276 36.6382 46.0192C36.6225 46.2926 36.6025 46.5881 36.5476 46.8893C36.5153 47.0662 36.4578 47.2382 36.4073 47.4123C36.3559 47.5907 36.2966 47.7581 36.2417 47.9294C36.118 48.3159 35.9925 48.6494 35.9367 48.9631C35.9437 49.1316 35.813 49.2743 35.6448 49.2818C35.4766 49.2893 35.3337 49.1586 35.3258 48.9902C35.2195 48.5855 35.1446 48.1046 35.1298 47.562C35.121 47.2539 35.1315 46.9404 35.1777 46.6339C35.1969 46.5112 35.23 46.3926 35.264 46.2768C35.3189 46.092 35.3772 45.9189 35.4452 45.7553C35.7598 45 36.0648 44.5058 36.0648 44.5058Z" fill="var(--fill-0, #283E37)"/>
<path id="path66" fill-rule="evenodd" clip-rule="evenodd" d="M37.9226 41.0639C37.7544 41.0619 37.6194 40.9235 37.6211 40.7549C37.6229 40.5864 37.7614 40.4511 37.9296 40.453C37.9296 40.453 38.5605 40.4352 39.2185 40.7435C39.4198 40.8382 39.6211 40.9655 39.8084 41.1319C41.4424 38.3903 43.9635 38.0256 45.8449 38.9197C46.787 39.3672 47.5826 40.1527 48.0471 41.1413C48.4906 42.0854 48.6353 43.2196 48.3364 44.4221C49.3769 44.2033 50.434 44.2708 51.2993 44.647C52.5812 45.2041 53.4884 46.385 53.2635 48.2657C53.2513 48.4339 53.1041 48.56 52.9359 48.5474C52.7677 48.5347 52.6422 48.3879 52.6544 48.2198C52.7006 46.759 51.9738 45.8862 50.9542 45.5359C49.9451 45.1894 48.6702 45.3593 47.5939 45.9559C47.3578 46.0756 47.0728 46.0322 46.8828 45.8478C46.6937 45.6634 46.6423 45.3791 46.7565 45.1404C47.329 43.8744 47.2401 42.6854 46.787 41.7384C46.4488 41.0309 45.9068 40.4576 45.2462 40.1041C43.7317 39.2928 41.6855 39.6521 40.2555 42.0601C40.1832 42.1928 40.0446 42.2761 39.8938 42.278C39.7422 42.28 39.6019 42.2002 39.5261 42.0694C39.3596 41.7485 39.1235 41.5285 38.8795 41.3837C38.4028 41.1009 37.9226 41.0639 37.9226 41.0639Z" fill="var(--fill-0, #283E37)"/>
<path id="path68" fill-rule="evenodd" clip-rule="evenodd" d="M48.4039 39.827C48.2357 39.8191 48.105 39.6759 48.1137 39.5074C48.1215 39.3391 48.2645 39.2088 48.4326 39.2167C48.4326 39.2167 49.759 39.1474 51.664 39.0517C52.3236 39.0187 53.0478 38.9819 53.8129 38.954C54.3349 38.935 54.8735 38.9174 55.4208 38.9116C55.9532 38.9059 56.4909 38.9146 57.0268 38.9179C57.8486 38.9229 58.6599 38.9302 59.4355 38.9162C60.3017 38.9007 61.1122 38.8749 61.8328 38.8017C61.9984 38.7719 62.1579 38.8824 62.1875 39.0483C62.2172 39.2142 62.1065 39.3731 61.9409 39.403C60.7871 39.6969 59.3797 39.9513 57.8939 40.1127C56.9972 40.2102 56.077 40.2817 55.1768 40.3072C54.8099 40.3177 54.4456 40.3114 54.0892 40.3033C53.5245 40.2904 52.9781 40.2671 52.4605 40.2323C50.1189 40.0751 48.4039 39.827 48.4039 39.827Z" fill="var(--fill-0, #283E37)"/>
<path id="path70" fill-rule="evenodd" clip-rule="evenodd" d="M42.42 33.5484C42.2527 33.5309 42.1307 33.3805 42.1481 33.2128C42.1656 33.0451 42.3163 32.9233 42.4837 32.9408C43.5093 32.9912 44.3677 33.2729 45.0753 33.7553C45.5808 34.0992 46.0008 34.5523 46.3442 35.1087C46.7006 34.6977 47.084 34.3349 47.4884 34.0215C48.1838 33.4816 48.9367 33.0851 49.6983 32.8415C50.8696 32.4663 52.0608 32.4356 53.0874 32.7266C55.4795 33.4047 57.1448 35.7675 55.7697 39.6882C55.7209 39.8495 55.5501 39.9411 55.3889 39.8925C55.2277 39.8439 55.1362 39.6733 55.185 39.512C56.0093 36.2552 54.7353 34.4143 52.7719 33.9832C51.9554 33.8039 51.0395 33.8749 50.1201 34.166C49.4901 34.3654 48.8574 34.6601 48.2596 35.0738C47.7053 35.4572 47.1712 35.924 46.7014 36.5013C46.576 36.6674 46.3694 36.7516 46.1638 36.7208C45.9572 36.69 45.7847 36.5492 45.7132 36.3537C45.4666 35.5605 45.0832 34.9279 44.5359 34.4654C43.9808 33.996 43.281 33.6869 42.42 33.5484Z" fill="var(--fill-0, #283E37)"/>
<path id="path72" fill-rule="evenodd" clip-rule="evenodd" d="M57.9569 35.1886C57.8262 35.2948 57.6336 35.2749 57.5273 35.144C57.421 35.0131 57.441 34.8206 57.5717 34.7144C58.3159 33.957 59.2292 33.4716 60.1442 33.279C60.5765 33.1882 61.0061 33.1847 61.4139 33.2378C61.7146 33.2769 62.0039 33.356 62.2697 33.4772C62.7917 33.7155 63.2387 34.0912 63.5438 34.6001C63.7843 35.0026 63.9568 35.4791 63.9925 36.0446C64.0291 36.6335 63.949 37.3055 63.6858 38.0782C63.6501 38.2429 63.4871 38.3474 63.3224 38.3113C63.1577 38.2753 63.0531 38.1123 63.0888 37.9476C63.1777 37.1147 63.0732 36.4565 62.8675 35.9268C62.7751 35.69 62.6435 35.4971 62.5041 35.3221C62.2906 35.0544 62.01 34.8835 61.7059 34.7516C61.4436 34.6376 61.1612 34.5538 60.8579 34.52C60.5495 34.4857 60.2288 34.476 59.8985 34.5177C59.244 34.6003 58.5721 34.7977 57.9569 35.1886Z" fill="var(--fill-0, #283E37)"/>
<path id="path74" fill-rule="evenodd" clip-rule="evenodd" d="M61.7648 34.168C61.6515 34.2923 61.458 34.3009 61.3334 34.187C61.2088 34.0732 61.2009 33.8799 61.3142 33.7555C62.1944 32.7019 61.7831 31.3233 60.7826 30.5781C59.9583 29.9637 58.7191 29.8193 57.4284 30.6562C57.2027 30.7918 56.9178 30.7773 56.7069 30.6193C56.496 30.4615 56.401 30.1917 56.4681 29.9368C56.7522 28.777 56.7452 27.7896 56.5535 26.9765C56.3139 25.9562 55.7588 25.226 55.0119 24.8305C53.4982 24.0283 51.3623 24.5326 49.9122 26.5263C49.839 26.6354 49.717 26.7018 49.5854 26.7045C49.4539 26.7073 49.3301 26.6461 49.2517 26.5403C49.0748 26.2767 48.8709 26.0421 48.5937 25.8828C48.3497 25.7421 48.0561 25.6509 47.6883 25.639C47.5192 25.6413 47.3807 25.5064 47.3789 25.3378C47.3763 25.1692 47.5114 25.0305 47.6796 25.0281C48.1746 24.9985 48.5781 25.09 48.9223 25.2491C49.1471 25.3535 49.3449 25.4918 49.5236 25.6539C50.5702 24.2061 51.9767 23.4552 53.3213 23.3074C54.1161 23.22 54.8952 23.3539 55.5853 23.6774C56.679 24.1902 57.5653 25.198 57.9103 26.6567C58.0742 27.3501 58.1064 28.1513 57.9792 29.0507C59.3578 28.6941 60.5778 29.0683 61.4118 29.8007C62.6867 30.9199 63.0867 32.8497 61.7648 34.168Z" fill="var(--fill-0, #283E37)"/>
<path id="path76" fill-rule="evenodd" clip-rule="evenodd" d="M40.5472 48.55C40.379 48.55 40.2422 48.4131 40.2422 48.2445C40.2422 48.0759 40.379 47.9391 40.5472 47.9391C40.5472 47.9391 41.6687 47.7692 43.1275 47.6339C43.4587 47.6032 43.8046 47.5808 44.1602 47.5645C44.3876 47.5541 44.6177 47.5438 44.8478 47.5477C45.4377 47.5579 46.0242 47.6027 46.568 47.6492C48.0268 47.774 49.1484 47.9391 49.1484 47.9391C49.3174 47.9391 49.4542 48.0759 49.4542 48.2445C49.4542 48.4131 49.3174 48.55 49.1484 48.55C49.1484 48.55 48.0268 48.7149 46.568 48.8397C46.0242 48.8863 45.4377 48.9311 44.8478 48.9413C44.6177 48.9453 44.3876 48.9349 44.1602 48.9245C43.8046 48.9082 43.4587 48.8857 43.1275 48.8551C41.6687 48.7198 40.5472 48.55 40.5472 48.55Z" fill="var(--fill-0, #283E37)"/>
<path id="path78" fill-rule="evenodd" clip-rule="evenodd" d="M25.6192 49.4891C25.7883 49.4912 25.9234 49.6298 25.9216 49.7983C25.919 49.967 25.7805 50.102 25.6123 50.0999C25.6123 50.0999 24.55 50.2564 23.1653 50.3745C22.8515 50.4013 22.5239 50.4197 22.1875 50.4317C21.9723 50.4394 21.7544 50.447 21.5357 50.4403C20.9771 50.4232 20.4237 50.3715 19.9087 50.3185C18.5283 50.1763 17.4695 49.9981 17.4695 49.9981C17.3013 49.9961 17.1662 49.8575 17.168 49.689C17.1706 49.5203 17.3092 49.3853 17.4773 49.3874C17.4773 49.3874 18.5405 49.2357 19.9235 49.1281C20.4394 49.0879 20.9945 49.0502 21.5531 49.047C21.7718 49.0457 21.9897 49.0587 22.2049 49.0719C22.5404 49.0923 22.8681 49.1189 23.181 49.1535C24.5622 49.3061 25.6192 49.4891 25.6192 49.4891Z" fill="var(--fill-0, #283E37)"/>
<path id="path80" fill-rule="evenodd" clip-rule="evenodd" d="M16.3731 49.0771C16.3853 49.2452 16.2589 49.3916 16.0908 49.4037C15.9226 49.4158 15.7762 49.2892 15.764 49.1211C15.6132 47.9703 16.2572 46.8106 17.3256 46.1956C17.96 45.8302 18.7478 45.6716 19.621 45.8201C19.5234 44.8465 19.7961 43.9719 20.3164 43.2475C20.9979 42.2977 22.1238 41.6059 23.3516 41.2928C25.7586 40.6789 28.5411 41.4506 29.1302 44.0891C29.1746 44.2516 29.0796 44.42 28.9167 44.4648C28.7537 44.5096 28.5855 44.414 28.5411 44.2515C27.8622 42.1927 25.5939 41.8639 23.7037 42.4926C22.7887 42.7968 21.9669 43.3376 21.4475 44.0602C20.9691 44.7269 20.753 45.5557 21.0658 46.5278C21.1495 46.7686 21.078 47.0361 20.8863 47.2035C20.6937 47.3708 20.4192 47.4043 20.1918 47.2882C19.2942 46.7751 18.4376 46.7552 17.7622 47.0551C16.9291 47.4252 16.3609 48.2185 16.3731 49.0771Z" fill="var(--fill-0, #283E37)"/>
<path id="path82" fill-rule="evenodd" clip-rule="evenodd" d="M20.8576 38.1777C21.0258 38.1724 21.167 38.3049 21.1722 38.4734C21.1774 38.6419 21.045 38.783 20.8768 38.7883C20.8768 38.7883 18.3888 39.0376 15.2028 39.2724C14.4746 39.3261 13.7109 39.3726 12.9317 39.4134C12.4308 39.4396 11.924 39.4659 11.4167 39.478C10.1203 39.5086 8.82446 39.5047 7.62465 39.4959C4.43142 39.4725 1.93228 39.3854 1.93228 39.3854C1.76375 39.3907 1.62266 39.2582 1.61734 39.0897C1.61203 38.9212 1.74449 38.7801 1.91302 38.7748C1.91302 38.7748 4.40178 38.5305 7.58717 38.306C8.78402 38.2217 10.077 38.1362 11.3728 38.0851C11.8798 38.0652 12.3873 38.0595 12.8889 38.0541C13.6691 38.0457 14.4342 38.0442 15.1644 38.0518C18.3583 38.0856 20.8576 38.1777 20.8576 38.1777Z" fill="var(--fill-0, #283E37)"/>
<path id="path84" fill-rule="evenodd" clip-rule="evenodd" d="M8.04176 34.8619C8.16777 34.9739 8.1791 35.1671 8.06712 35.2931C7.95514 35.4191 7.76194 35.4305 7.63593 35.3185C5.94959 33.9569 5.76912 31.989 6.42488 30.5093C6.9596 29.3028 8.05474 28.4288 9.40052 28.334C9.19425 27.9584 9.03957 27.5808 8.93543 27.2049C8.49483 25.6146 8.88192 24.0663 9.85785 22.8892C11.1659 21.3114 13.5598 20.3709 16.3709 20.9262C16.5374 20.9518 16.6515 21.1079 16.6263 21.2745C16.6001 21.4411 16.4441 21.5556 16.2777 21.53C13.8204 21.2587 11.8215 22.173 10.7884 23.6085C10.1295 24.5241 9.91284 25.6557 10.2632 26.8216C10.463 27.487 10.8356 28.1671 11.433 28.8219C11.6527 29.0607 11.6729 29.4214 11.4814 29.6832C11.2899 29.9451 10.9399 30.035 10.6458 29.8981C9.25481 29.197 7.97815 29.8719 7.38051 30.9783C6.76954 32.1094 6.81041 33.6585 8.04176 34.8619Z" fill="var(--fill-0, #283E37)"/>
<path id="path86" fill-rule="evenodd" clip-rule="evenodd" d="M1.27959 38.3555C1.34739 38.5098 1.27715 38.6902 1.12282 38.758C0.968571 38.8259 0.788185 38.7556 0.7203 38.6013C0.274991 37.8208 0.0612258 37.0698 0.00946189 36.3653C-0.0180758 35.9913 0.0166029 35.6353 0.0861443 35.295C0.187841 34.7979 0.394203 34.3467 0.668185 33.9463C0.854413 33.6739 1.07846 33.427 1.33649 33.2173C1.7933 32.846 2.34667 32.5732 2.95904 32.4279C3.46604 32.3076 4.01 32.2633 4.57801 32.3238C5.29817 32.4005 6.04465 32.6178 6.79243 33.0154C6.94842 33.0796 7.02293 33.2582 6.95879 33.4141C6.89466 33.57 6.71601 33.6445 6.56011 33.5804C5.71568 33.3249 4.91744 33.2966 4.19205 33.4069C3.88443 33.4537 3.59807 33.5395 3.324 33.6398C2.90631 33.7926 2.5451 34.0217 2.22659 34.2894C1.96106 34.5127 1.72403 34.7618 1.54294 35.0581C1.3629 35.3526 1.21598 35.6734 1.13702 36.0372C0.99036 36.7133 0.998899 37.4859 1.27959 38.3555Z" fill="var(--fill-0, #283E37)"/>
</g>
</svg>
