<svg preserveAspectRatio="none" width="100%" height="100%" overflow="visible" style="display: block;" viewBox="0 0 56.305 63.9938" fill="none" xmlns="http://www.w3.org/2000/svg">
<g id="vectorly-UNI-calendar-date">
<path id="path4872" fill-rule="evenodd" clip-rule="evenodd" d="M27.9958 1.67692C27.987 1.67692 27.9792 1.67692 27.9715 1.67692C26.8392 1.59944 24.3055 1.93137 19.4464 2.15275C17.4463 2.2413 15.0587 2.31874 12.2218 2.3298C10.0801 2.35194 7.68257 2.3298 5.00174 2.27446C4.64754 2.26339 4.12621 2.47387 3.58827 2.72845C2.79907 3.09372 1.9988 3.55843 1.56823 3.82408C1.49849 5.7279 1.19965 13.9631 1.01591 20.1948C0.909652 23.8253 0.835491 26.7585 0.890834 27.3341C0.914078 27.5554 0.761333 27.7437 0.547707 27.7658C0.335188 27.7879 0.142592 27.633 0.119348 27.4227C0.0440809 26.8361 0.00643967 23.8586 0.000905311 20.1727C-0.0101634 13.0777 0.0839207 3.37031 0.0839207 3.37031C0.089455 3.1268 0.215643 2.90542 0.420414 2.76153C0.420414 2.76153 2.00323 1.69893 3.368 1.10122C3.9967 0.824503 4.59442 0.658472 5.02167 0.658472C9.29751 0.68061 12.8483 0.603258 15.786 0.514709C21.2926 0.359747 24.6442 0.0940976 26.5558 0.0166166C27.7003 -0.0276583 28.4009 0.0165301 28.7728 0.149355C29.3949 0.35966 29.6163 0.747108 29.6251 1.2452C29.717 7.46582 30.1587 13.5757 30.6601 18.5788C31.2545 24.4895 31.933 28.8506 32.3126 29.9685C32.3857 30.1678 32.2805 30.3891 32.0791 30.4666C31.8776 30.533 31.6551 30.4334 31.5832 30.2342C31.0917 28.9392 29.9993 23.2719 29.1293 15.8226C28.6289 11.5279 28.2106 6.64678 27.9958 1.67692ZM28.1475 1.67692C28.1851 1.73227 28.2238 1.7653 28.2404 1.72103C28.2515 1.67675 28.2083 1.67692 28.1475 1.67692Z" fill="var(--fill-0, #283E37)"/>
<g id="g186">
<path id="path4860" fill-rule="evenodd" clip-rule="evenodd" d="M42.7437 40.6446C42.5854 40.545 42.0784 40.2461 41.5748 40.0026C40.1226 39.3052 37.7096 38.1321 34.4521 35.4977C32.369 33.8153 29.9449 31.513 27.1966 28.3474C26.7771 28.613 26.2303 29.1331 25.4798 29.8083C24.3718 30.8045 22.8765 32.1437 20.8365 33.5937C18.7943 35.0548 16.2054 36.6266 12.9202 38.1209C12.9855 38.2537 13.0751 38.4087 13.1438 38.5526C14.1178 40.5782 17.1008 44.6957 20.3462 48.1491C22.7414 50.6949 25.2684 52.8866 27.2552 53.5618C27.4589 53.6282 27.5718 53.8496 27.5065 54.0488C27.4412 54.2591 27.222 54.3699 27.0184 54.3035C24.0387 53.3959 19.7695 49.3778 16.4699 45.5369C14.0868 42.7587 12.214 40.069 11.644 38.7297C11.4336 38.2316 11.3949 37.8442 11.437 37.6118C11.4978 37.2797 11.6916 37.0694 11.9506 36.9477C19.8392 33.2507 23.586 29.0667 25.5053 27.4286C26.1063 26.9083 26.5967 26.6206 26.9652 26.532C27.5253 26.3992 27.9747 26.5431 28.3488 26.9748C31.0651 30.1847 33.467 32.4981 35.5103 34.2138C39.4241 37.4901 42.053 38.5195 43.1864 39.1947C43.98 39.6596 44.228 40.1464 44.1804 40.6224C44.0531 41.851 42.8743 43.8987 41.2239 46.1014C37.6709 50.8388 32.0635 56.4839 32.0635 56.4839C31.9152 56.6389 31.6694 56.6389 31.5145 56.495C31.3606 56.3511 31.3551 56.0965 31.5034 55.9415C31.5034 55.9415 35.7582 51.3481 39.0677 46.9428C40.9428 44.4413 42.5466 42.0504 42.7437 40.6446ZM12.877 38.0325C12.9678 37.9218 13.0065 37.8332 12.8792 37.8332C12.8106 37.8332 12.8261 37.9107 12.877 38.0325ZM27.2718 28.303C27.3416 28.3252 27.3914 28.3251 27.3759 28.2587C27.3681 28.2255 27.3128 28.2809 27.2718 28.303Z" fill="var(--fill-0, #283E37)"/>
<path id="path4862" fill-rule="evenodd" clip-rule="evenodd" d="M29.7672 39.8913C29.4993 40.3783 29.1186 40.799 28.6581 41.0979C27.7383 41.6956 26.5307 41.8727 25.3519 41.1975C24.0513 40.4338 23.955 38.8067 24.7476 37.4785C25.4305 36.3384 26.6757 35.486 27.9021 35.8512C28.1102 35.9066 28.2386 36.117 28.1877 36.3163C28.1368 36.5266 27.9265 36.6593 27.7184 36.604C26.8573 36.449 26.1201 37.1795 25.7338 37.9986C25.3918 38.7292 25.2999 39.6146 26.0116 39.9467C26.6536 40.2566 27.2768 40.1238 27.7394 39.7806C28.2154 39.4264 28.5076 38.8289 28.4644 38.1979C28.4312 37.6113 28.771 37.3678 29.0798 37.2571C29.2636 37.1907 29.5868 37.1463 29.9631 37.3898C30.2708 37.578 30.9394 38.2864 31.464 39.3269C32.2211 40.8433 32.7259 43.046 31.7242 45.0716C30.9704 46.5437 29.7849 47.0195 28.491 46.931C26.6403 46.8092 24.5937 45.4701 23.8919 44.9499C23.7137 44.8281 23.665 44.5845 23.7835 44.4074C23.9019 44.2303 24.1421 44.186 24.3214 44.3078C24.9822 44.6952 26.8805 45.7357 28.5186 45.6914C29.2935 45.6803 29.9875 45.3482 30.3649 44.4405C30.8597 43.2894 30.6682 42.094 30.3184 41.1089C30.1612 40.6551 29.9664 40.2455 29.7672 39.8913Z" fill="var(--fill-0, #283E37)"/>
<path id="path4864" fill-rule="evenodd" clip-rule="evenodd" d="M38.6317 62.7588C38.6848 62.7588 38.7557 62.7588 38.821 62.7588C39.1863 62.7477 39.7563 62.6926 40.4713 62.604C42.5301 62.3605 45.7533 61.7737 48.7408 60.8661C51.0652 60.1577 53.2568 59.2722 54.5452 58.0879C54.471 57.9219 54.3327 57.6894 54.2441 57.4791C53.756 56.2948 52.8616 54.4242 52.0824 51.823C51.4814 49.8196 50.9534 47.3955 50.7154 44.5287C50.5815 44.5619 50.411 44.6172 50.2572 44.6504C49.4779 44.8054 48.2858 45.0822 46.5414 45.2261C45.1678 45.3479 43.4532 45.3922 41.3303 45.2261C41.1155 45.2151 40.9506 45.0378 40.9617 44.8165C40.9728 44.6061 41.1543 44.4402 41.369 44.4513C46.589 44.5731 49.2289 43.599 50.4165 43.3555C51.0275 43.2226 51.4116 43.3334 51.6341 43.5105C51.8201 43.6544 51.9507 43.8756 51.9927 44.2187C52.358 47.3069 53.073 49.8528 53.798 51.8894C54.585 54.1142 55.3975 55.7414 55.8568 56.7929C56.1313 57.4238 56.2785 57.8997 56.3007 58.2096C56.3328 58.6523 56.1811 58.9624 55.9697 59.1727C54.5297 60.5895 51.9739 61.7073 49.2045 62.4711C46.5835 63.1905 43.7842 63.6222 41.6911 63.8436C39.8017 64.0318 38.4502 64.0208 38.2033 63.9323C38.0351 63.8769 37.7827 63.6998 37.5547 63.3345C37.2957 62.936 36.9747 62.2498 36.6571 61.4418C35.8147 59.3055 34.9436 56.328 34.9359 55.7635C34.927 55.5421 35.0931 55.3651 35.3078 55.354C35.5214 55.3429 35.7018 55.5088 35.7118 55.7302C35.7406 56.1397 36.346 57.8444 37.0245 59.5158C37.4883 60.6448 37.992 61.7626 38.3926 62.4267C38.4668 62.5485 38.5708 62.6813 38.6317 62.7588ZM50.8172 44.5067C50.8703 44.562 50.939 44.6284 50.949 44.562C50.9589 44.5067 50.9047 44.4956 50.8172 44.5067ZM54.5551 58.1212C54.4765 58.2319 54.4267 58.3313 54.5408 58.3313C54.6193 58.3202 54.6071 58.2429 54.5551 58.1212Z" fill="var(--fill-0, #283E37)"/>
<path id="path4866" fill-rule="evenodd" clip-rule="evenodd" d="M42.6691 52.8897C42.0747 52.0485 41.9806 50.9859 42.3426 50.0561C42.7709 48.9493 43.8114 48.0083 45.3134 47.9308C46.5343 47.8976 47.4519 48.6061 47.6932 49.6244C47.9345 50.6427 47.5338 52.0264 45.8325 52.923C45.6488 53.0337 45.4108 52.9781 45.3001 52.801C45.1894 52.6129 45.2481 52.3695 45.4318 52.2588C46.3052 51.6611 46.6616 50.9527 46.6461 50.3328C46.6306 49.713 46.1148 49.2481 45.4363 49.3367C44.6205 49.4474 44.0925 49.9897 43.8944 50.6096C43.7095 51.1851 43.8634 51.8493 44.4578 52.2145C45.7949 53.1222 46.5774 54.1515 46.8829 55.0591C47.3235 56.3541 46.9228 57.439 45.9709 57.9149C44.4733 58.6455 42.6193 57.8264 42.0747 56.1439C41.7825 55.2363 41.8467 54.074 42.6691 52.8897ZM43.2945 53.5538C42.9037 54.384 42.917 55.1366 43.1749 55.7232C43.5468 56.5755 44.4988 57.0405 45.2448 56.5867C45.402 56.4981 45.4407 56.3209 45.4374 56.1217C45.4341 55.8671 45.3156 55.5794 45.133 55.2695C44.8175 54.7382 44.274 54.1959 43.4904 53.6978C43.4229 53.6424 43.3576 53.5981 43.2945 53.5538Z" fill="var(--fill-0, #283E37)"/>
<path id="path4868" fill-rule="evenodd" clip-rule="evenodd" d="M47.6361 36.0764C47.6682 36.0875 47.7003 36.1097 47.7324 36.1207C48.2792 36.4196 48.8659 36.9288 49.3518 37.7811C49.9307 38.7994 50.4088 40.2937 50.566 42.4189C50.5937 42.6292 50.4431 42.8285 50.2306 42.8506C50.0192 42.8838 49.8244 42.7289 49.7967 42.5185C49.5499 41.2014 49.2024 40.1609 48.8061 39.375C48.5847 40.4597 47.6206 41.0462 46.6554 40.9577C45.6714 40.8581 44.4782 39.9837 44.5391 37.8474C44.5767 37.0062 44.9929 36.3533 45.6249 36.0434C44.1639 34.4605 42.1737 33.0989 41.3746 32.8222C41.1676 32.7668 41.048 32.5567 41.1067 32.3464C41.1654 32.1361 41.3801 32.0143 41.586 32.0807C42.5102 32.2799 44.9575 33.5196 46.7318 35.1356C47.0628 35.4344 47.3672 35.7554 47.6361 36.0764ZM46.6466 37.3604C46.6211 37.3604 46.5945 37.3604 46.5691 37.3604C46.3344 37.3936 46.2049 37.6039 46.2116 37.8584C46.2182 38.423 46.3499 38.8215 46.5658 39.054C46.7717 39.2753 47.127 39.1978 47.1447 38.8879C47.1779 38.4562 47.0174 38.0025 46.7562 37.5376C46.7218 37.4823 46.6853 37.4157 46.6466 37.3604Z" fill="var(--fill-0, #283E37)"/>
<path id="path4870" fill-rule="evenodd" clip-rule="evenodd" d="M8.68318 43.8696C8.61898 43.5376 8.61013 43.2166 8.65883 42.9288C8.93998 41.3017 10.3379 40.7814 11.3673 41.1688C12.1576 41.4677 12.8981 42.3863 12.6746 44.0577C12.5318 44.9764 12.172 45.6517 11.7049 46.0834C11.8034 46.1609 11.9053 46.2383 12.0115 46.3158C13.031 47.0685 14.3902 47.6442 16.0173 47.7216C16.2309 47.7216 16.4036 47.8987 16.4025 48.109C16.4014 48.3304 16.2265 48.4965 16.0129 48.4965C13.725 48.585 11.8234 47.777 10.5316 46.7255C10.5073 46.7033 10.4829 46.681 10.4586 46.6589C9.63509 46.7585 8.66548 46.4155 7.83422 45.4526C7.06051 44.5671 6.35322 43.0948 6.07651 41.0028C5.84074 39.2207 5.90605 36.9738 6.45174 34.2399C6.48384 34.0296 6.68196 33.8856 6.89338 33.9188C7.10479 33.952 7.25089 34.1513 7.21879 34.3616C6.87123 37.6379 7.17341 40.1285 7.75009 41.9106C8.01242 42.7297 8.3323 43.3716 8.68318 43.8696ZM10.5549 44.7551C10.7519 44.567 10.8714 44.2239 10.9379 43.7922C10.9998 43.427 10.9954 43.1391 10.9047 42.9288C10.8637 42.8292 10.8194 42.7517 10.7431 42.7185C10.4996 42.6078 10.2516 42.8402 10.162 43.2276C10.0745 43.5928 10.1764 44.0356 10.4088 44.4894C10.4531 44.578 10.5018 44.6666 10.5549 44.7551Z" fill="var(--fill-0, #283E37)"/>
<path id="path4874" fill-rule="evenodd" clip-rule="evenodd" d="M7.12289 30.9981C8.33824 31.2306 10.5199 31.308 12.8731 31.3302C16.6375 31.3523 20.8248 31.1865 22.3401 30.954C22.5515 30.9097 22.7541 31.0535 22.7928 31.2638C22.8316 31.4741 22.6921 31.6733 22.4818 31.7176C20.9577 32.0386 16.7217 32.4926 12.8996 32.6697C10.0948 32.7914 7.51473 32.7581 6.33702 32.4814C6.16656 32.4482 5.95293 32.3376 5.77695 32.0609C5.67733 31.9059 5.54562 31.5405 5.43825 30.9981C5.24676 30.013 5.03645 28.2422 4.85493 26.0284C4.77302 25.0212 4.69664 23.9141 4.63355 22.7519C4.49077 20.1065 4.39226 17.1402 4.32916 14.2513C4.21626 8.98257 4.24061 3.95729 4.33469 1.48897C4.33801 1.26759 4.5129 1.10156 4.72763 1.10156C4.94126 1.10156 5.11282 1.27862 5.11061 1.49999C5.14049 3.22671 5.29878 6.21539 5.50577 9.65776C5.65962 12.2368 5.84999 15.0592 6.03926 17.8153C6.16876 19.697 6.30492 21.5454 6.42446 23.25C6.57168 25.342 6.69896 27.2127 6.83511 28.6516C6.93473 29.7142 7.02438 30.5332 7.12289 30.9981Z" fill="var(--fill-0, #283E37)"/>
<path id="path4876" fill-rule="evenodd" clip-rule="evenodd" d="M4.43484 29.9804C4.50236 30.1796 4.39278 30.4011 4.18912 30.4675C3.98656 30.5339 3.76628 30.4231 3.69877 30.2238C3.3667 29.3715 2.86529 26.0288 2.45575 21.8559C2.35171 20.7933 2.25984 19.6754 2.18014 18.5243C2.13033 17.7938 2.08052 17.0522 2.05174 16.2995C1.97869 14.4289 1.95988 12.525 1.96098 10.7319C1.9632 7.32271 2.07499 4.26779 2.18125 2.36397C2.18457 2.14259 2.35946 1.97656 2.57419 1.97656C2.78782 1.97656 2.96049 2.15362 2.95717 2.37499C3.01915 4.26774 3.24606 7.2895 3.47187 10.6765C3.59141 12.4697 3.72091 14.3513 3.81942 16.2219C3.85816 16.9635 3.8814 17.7051 3.90575 18.4357C3.94338 19.5757 3.97548 20.6938 4.00426 21.7675C4.05407 23.6492 4.09503 25.3648 4.15701 26.7484C4.23007 28.3534 4.30644 29.5155 4.43484 29.9804Z" fill="var(--fill-0, #283E37)"/>
<path id="path4878" fill-rule="evenodd" clip-rule="evenodd" d="M4.77049 5.79148C4.55687 5.80255 4.37867 5.6254 4.37313 5.4151C4.3687 5.20479 4.53805 5.02774 4.75167 5.01667C4.75167 5.01667 7.92949 4.72892 11.9961 4.45221C12.9259 4.39686 13.9011 4.34147 14.895 4.2972C15.5348 4.27506 16.1823 4.2419 16.8298 4.23083C18.4835 4.20869 20.1371 4.21972 21.6679 4.24186C25.7423 4.30827 28.9301 4.44118 28.9301 4.44118C29.1448 4.43011 29.323 4.60704 29.3275 4.81734C29.333 5.02765 29.1637 5.20492 28.9489 5.21599C28.9489 5.21599 25.7711 5.5036 21.7045 5.75818C20.1759 5.8578 18.5256 5.94648 16.8719 6.00183C16.2244 6.02396 15.5769 6.02388 14.9371 6.02388C13.9409 6.02388 12.9646 6.02396 12.0338 6.00183C7.95827 5.93541 4.77049 5.79148 4.77049 5.79148Z" fill="var(--fill-0, #283E37)"/>
<path id="path4880" fill-rule="evenodd" clip-rule="evenodd" d="M11.8111 11.6782C11.831 11.6561 11.8631 11.6119 11.8831 11.5787C11.955 11.4791 12.0258 11.3684 12.1077 11.2577C12.3225 10.9589 12.597 10.671 12.9955 10.4386C13.3109 10.2504 13.7105 10.1175 14.2396 10.0622C14.9358 10.0069 15.6331 9.94053 16.3282 9.87412C17.03 9.80771 17.7295 9.75223 18.418 9.68582C20.7114 9.48658 22.8831 9.2653 24.6762 8.99965C26.7937 8.70079 28.3665 8.40185 28.9344 8.08086C29.1137 7.9591 29.3539 8.01444 29.4701 8.19154C29.5852 8.36864 29.5332 8.6122 29.3528 8.73395C28.6599 9.22098 26.4052 9.91835 23.4144 10.5493C21.7829 10.8813 19.9344 11.2245 18.0074 11.4681C16.8108 11.6119 15.5822 11.7003 14.3658 11.7889C13.5766 11.8332 13.3729 12.3312 13.1294 12.619C12.8781 12.9068 12.6114 13.1283 12.2682 13.2058C12.0812 13.2611 11.8698 13.2832 11.6229 13.2278C11.3141 13.1725 10.5316 12.7519 9.72134 12.1763C8.81814 11.5454 7.8463 10.7486 7.45447 10.3058C7.14787 9.95164 6.7837 9.7745 6.39851 9.76343C5.97126 9.76343 5.53295 9.92938 5.15219 10.2282C4.99391 10.3721 4.74819 10.3611 4.60429 10.2062C4.4604 10.0512 4.47257 9.80771 4.63196 9.65274C5.13006 9.15465 5.74215 8.86691 6.35867 8.81156C7.01726 8.74515 7.68138 8.9664 8.27024 9.50876C8.6023 9.81869 9.34722 10.3058 10.0932 10.7596C10.8005 11.1913 11.499 11.6007 11.8111 11.6782ZM11.8709 11.6894C11.872 11.6894 11.872 11.6894 11.872 11.6894H11.8709Z" fill="var(--fill-0, #283E37)"/>
<path id="path4882" fill-rule="evenodd" clip-rule="evenodd" d="M11.0108 14.8231C10.8393 14.9559 10.5958 14.9228 10.4674 14.7457C10.3401 14.5797 10.3744 14.3361 10.546 14.2033C10.9721 13.7827 11.6218 13.6941 12.1476 14.0483C12.4487 14.2475 12.6878 14.6793 12.825 15.4209C12.856 15.6201 12.9545 16.2622 13.0187 17.1145C13.0563 17.6126 13.0929 18.1881 13.0873 18.7748C13.0807 19.4389 13.0231 20.1251 12.9678 20.7782C12.8283 22.4274 12.6391 23.7777 12.6391 23.7777C12.6402 23.9881 12.4675 24.1652 12.2539 24.1652C12.0391 24.1652 11.8643 23.9881 11.8631 23.7777C11.8631 23.7777 11.6539 22.4274 11.4846 20.7892C11.4182 20.1472 11.3462 19.4609 11.3263 18.7968C11.3075 18.2102 11.3296 17.6346 11.354 17.1365C11.3927 16.3174 11.4702 15.6977 11.4768 15.5095C11.4912 15.2771 11.5078 15.0999 11.4591 14.9671C11.437 14.9007 11.4591 14.8342 11.4193 14.8121C11.2953 14.7457 11.1392 14.7567 11.0108 14.8231Z" fill="var(--fill-0, #283E37)"/>
<path id="path4884" fill-rule="evenodd" clip-rule="evenodd" d="M9.93633 24.4644C9.72381 24.4976 9.529 24.3427 9.50133 24.1324C9.47365 23.922 9.62419 23.723 9.83671 23.7008C9.83671 23.7008 10.3946 23.4129 11.2059 23.1251C11.383 23.0698 11.5667 23.0144 11.7627 22.9701C11.8855 22.9369 12.0106 22.9148 12.139 22.9038C12.4688 22.8706 12.7943 22.8816 13.1009 22.9038C13.9543 22.9591 14.5686 23.0808 14.5686 23.0808C14.7811 23.0587 14.9759 23.2028 15.0025 23.4241C15.0301 23.6344 14.8807 23.8224 14.6682 23.8556C14.6682 23.8556 14.107 24.1324 13.2957 24.4091C13.0046 24.4976 12.6935 24.5974 12.3659 24.6527C12.2397 24.6749 12.1113 24.6747 11.9851 24.6858C11.7837 24.6858 11.5933 24.6859 11.4051 24.6637C10.5473 24.5973 9.93633 24.4644 9.93633 24.4644Z" fill="var(--fill-0, #283E37)"/>
<path id="path4886" fill-rule="evenodd" clip-rule="evenodd" d="M23.2373 15.654C23.3303 15.8422 23.2483 16.0746 23.0546 16.1631C22.8621 16.2627 22.6307 16.1742 22.5377 15.9861C21.8913 14.8239 20.9073 14.4254 19.9853 14.6578C19.1076 14.8681 18.3361 15.6541 17.9907 16.7942C17.6775 17.7461 17.7262 18.8197 17.9088 19.8048C18.0073 20.3361 18.149 20.8452 18.3217 21.299C18.5187 21.8082 18.7368 22.2509 18.988 22.5276C19.7451 23.391 20.9527 23.7231 21.7109 22.5609C22.2411 21.7529 22.6019 20.4247 22.6318 18.3991C22.623 18.1888 22.7901 18.0118 23.0037 18.0007C23.2174 17.9896 23.3989 18.1555 23.4077 18.3769C23.5782 20.1479 23.4443 21.4652 23.1443 22.4282C22.9041 23.203 22.5344 23.7452 22.1282 24.1216C20.8586 25.3059 19.0555 24.9075 17.7848 23.6788C17.3974 23.2914 17.0034 22.6938 16.6935 21.9411C16.4644 21.3988 16.2784 20.7679 16.171 20.1038C15.9674 18.8419 16.036 17.4582 16.4998 16.2628C17.1672 14.6357 18.4445 13.6284 19.7628 13.4513C21.1066 13.2742 22.5167 13.883 23.2373 15.654Z" fill="var(--fill-0, #283E37)"/>
</g>
</g>
</svg>
