<svg preserveAspectRatio="none" width="100%" height="100%" overflow="visible" style="display: block;" viewBox="0 0 174.448 48" fill="none" xmlns="http://www.w3.org/2000/svg">
<g id="Layer_1" clip-path="url(#clip0_790_40)">
<g id="Group">
<path id="Vector" d="M49.767 25.5618C50.6312 25.5939 51.4286 25.675 52.1765 25.8096H60.1999V29.1288L57.4069 28.7806C57.7302 29.3616 57.9069 30.0045 57.9069 30.7029V30.9934C57.9069 33.9965 55.1764 35.9893 49.767 36.1644C49.5645 36.1708 48.4848 36.1772 48.03 36.1772C45.9568 36.1772 45.3491 36.0704 44.3319 35.9167C44.0086 36.032 43.6551 36.2648 43.6551 36.7326C43.6551 37.6638 45.0905 38.0141 48.03 38.0141H49.767C57.5901 38.0141 59.6698 39.3832 59.6698 42.6447V42.9352C59.6698 46.0515 56.644 48.0016 49.3252 48.0016H47.9438C40.7738 48.0016 37.8945 46.4573 37.8945 44.0694V43.7789C37.8945 42.177 39.041 41.1282 40.9807 40.6049V39.8766C39.541 39.4686 38.8945 38.7702 38.8945 37.6916C38.8945 36.613 39.7759 35.7394 40.9807 35.419V34.7505C39.6876 33.847 38.8945 32.5355 38.8945 30.9934V30.7029C38.8945 27.5568 41.9806 25.5469 47.8274 25.5469C47.8274 25.5469 49.5084 25.5511 49.767 25.5618ZM42.8297 42.8754C42.8297 44.1121 44.2607 44.6952 48.0279 44.7101C48.0774 44.7101 49.5494 44.7101 49.7649 44.7037C53.3079 44.6397 54.6139 44.0544 54.6139 42.8754C54.6139 41.7776 53.3101 41.1453 49.7649 41.077C49.5472 41.0727 48.0473 41.0706 48.0279 41.0706C44.3987 41.077 42.8297 41.7177 42.8297 42.8754ZM43.7414 30.7905V30.9357C43.7414 32.1575 45.0926 33.061 47.9438 33.061H48.8253C51.7045 33.061 53.0277 32.2173 53.0277 30.9357V30.7905C53.0277 29.6286 51.989 28.8319 49.767 28.6674C49.4826 28.6461 49.1787 28.6354 48.8554 28.6354H47.974C45.0948 28.6354 43.7435 29.4791 43.7435 30.7905H43.7414Z" fill="#354B40"/>
<path id="Vector_2" d="M81.0403 32.1952V32.8936H76.368V32.1952C76.368 30.3006 74.8982 29.3694 72.1656 29.3694C69.4329 29.3694 67.8467 30.3006 67.8467 32.1952V40.758H62.793V25.8174H67.8467V27.7098L67.864 28.6411C69.0105 27.3019 71.3423 25.5547 74.2237 25.5547C78.8076 25.5547 81.0403 27.5945 81.0403 32.1952Z" fill="#354B40"/>
<path id="Vector_3" d="M94.2964 25.5547C100.585 25.5547 104.964 28.1178 104.964 33.1264V33.4169C104.964 38.573 100.585 41.0186 94.2964 41.0186H93.415C87.1264 41.0186 82.7773 38.5431 82.7773 33.4169V33.1264C82.7773 28.1178 87.0962 25.5547 93.415 25.5547H94.2964ZM87.8311 33.1264V33.4169C87.8311 35.6596 89.4776 37.2338 93.415 37.2338H94.2964C98.264 37.2338 99.8803 35.6596 99.8803 33.4169V33.1264C99.8803 30.9115 98.264 29.3117 94.2964 29.3117H93.415C89.4776 29.3117 87.8311 30.9137 87.8311 33.1264Z" fill="#354B40"/>
<path id="Vector_4" d="M117.441 25.5547C123.141 25.5547 127.139 26.9815 127.139 30.6509V30.8837H122.085V30.6509C122.085 29.1943 120.204 28.5535 117.443 28.5535H116.561C113.682 28.5535 112.243 29.049 112.243 30.0977C112.243 31.3793 113.829 31.5822 118.443 31.7872C124.997 32.0777 127.522 33.3016 127.522 36.0676V36.3004C127.522 39.4167 124.085 41.0186 117.678 41.0186H116.796C110.389 41.0186 107.07 39.4167 107.07 35.9223V35.6318H112.124V35.8946C112.124 37.3213 113.594 37.992 116.796 37.992H117.678C121.176 37.992 122.469 37.5264 122.469 36.3901C122.469 35.1385 120.617 34.8458 115.945 34.6728C110.01 34.44 107.159 33.3913 107.159 30.4203V30.1575C107.159 26.896 111.215 25.5568 116.561 25.5568H117.443L117.441 25.5547Z" fill="#354B40"/>
<path id="Vector_5" d="M140.038 25.5547C145.739 25.5547 149.736 26.9815 149.736 30.6509V30.8837H144.683V30.6509C144.683 29.1943 142.801 28.5535 140.041 28.5535H139.159C136.28 28.5535 134.84 29.049 134.84 30.0977C134.84 31.3793 136.426 31.5822 141.041 31.7872C147.594 32.0777 150.12 33.3016 150.12 36.0676V36.3004C150.12 39.4167 146.683 41.0186 140.275 41.0186H139.394C132.989 41.0186 129.668 39.4167 129.668 35.9223V35.6318H134.722V35.8946C134.722 37.3213 136.191 37.992 139.394 37.992H140.275C143.773 37.992 145.066 37.5264 145.066 36.3901C145.066 35.1385 143.215 34.8458 138.543 34.6728C132.608 34.44 129.756 33.3913 129.756 30.4203V30.1575C129.756 26.896 133.812 25.5568 139.159 25.5568H140.041L140.038 25.5547Z" fill="#354B40"/>
<path id="Vector_6" d="M163.781 25.5547C170.069 25.5547 174.449 28.1178 174.449 33.1264V33.4169C174.449 38.573 170.069 41.0186 163.781 41.0186H162.899C156.611 41.0186 152.262 38.5431 152.262 33.4169V33.1264C152.262 28.1178 156.583 25.5547 162.899 25.5547H163.781ZM157.315 33.1264V33.4169C157.315 35.6596 158.962 37.2338 162.899 37.2338H163.781C167.748 37.2338 169.365 35.6596 169.365 33.4169V33.1264C169.365 30.9115 167.748 29.3117 163.781 29.3117H162.899C158.962 29.3117 157.315 30.9137 157.315 33.1264Z" fill="#354B40"/>
</g>
<g id="Group_2">
<path id="Vector_7" d="M40.8526 6.25781C37.9734 6.25781 35.6351 7.72945 34.4885 9.07079L34.4756 8.41507V6.52266H29.4219V21.4633H34.4756V12.9005C34.4756 11.0059 35.9734 10.0747 38.7945 10.0747C41.6155 10.0747 42.9969 11.0059 42.9969 12.9005V13.5989H47.6692V12.9005C47.6692 8.29973 45.4365 6.25995 40.8526 6.25995V6.25781Z" fill="#354B40"/>
<path id="Vector_8" d="M60.3391 6.25781H59.4577C52.8156 6.25781 49.7597 8.26769 49.7597 11.6467H54.8134C54.8134 10.1323 56.3996 9.43175 59.4275 9.43175H60.2508C63.3369 9.43175 64.8929 10.19 64.8929 11.7898V12.3729H57.0461C51.904 12.3729 49.4062 13.9171 49.4062 17.1787C49.4062 20.1774 52.0807 21.7217 56.3112 21.7217C60.0439 21.7217 63.102 20.8972 64.9511 18.2573L64.8929 19.2184V21.4611H69.9466V11.7919C69.9466 8.3275 66.979 6.25781 60.337 6.25781H60.3391ZM64.8929 15.6088C64.8929 17.7062 61.3089 18.347 58.6926 18.347C55.6669 18.347 54.5785 17.7361 54.5785 16.6874C54.5785 15.5212 55.5785 15.0855 57.9879 15.0855H64.8929V15.6109V15.6088Z" fill="#354B40"/>
<path id="Vector_9" d="M83.4645 12.4982C78.8504 12.2931 77.2643 12.0902 77.2643 10.8087C77.2643 9.75995 78.7039 9.26442 81.5831 9.26442H82.4646C85.2274 9.26442 87.1067 9.90519 87.1067 11.3619V11.5947H92.1604V11.3619C92.1604 7.6924 88.1648 6.26562 82.4624 6.26562H81.581C76.232 6.26562 72.1782 7.60483 72.1782 10.8663V11.1291C72.1782 14.1001 75.0294 15.1488 80.9646 15.3816C85.6369 15.5568 87.4881 15.8473 87.4881 17.0989C87.4881 18.2352 86.1951 18.7008 82.6973 18.7008H81.8159C78.6134 18.7008 77.1436 18.0323 77.1436 16.6034V16.3406H72.0898V16.6311C72.0898 20.1255 75.4109 21.7274 81.8159 21.7274H82.6973C89.1045 21.7274 92.5419 20.1255 92.5419 17.0092V16.7764C92.5419 14.0082 90.0139 12.7865 83.4624 12.496L83.4645 12.4982Z" fill="#354B40"/>
<path id="Vector_10" d="M106.06 12.4982C101.446 12.2931 99.86 12.0902 99.86 10.8087C99.86 9.75995 101.3 9.26442 104.179 9.26442H105.06C107.823 9.26442 109.702 9.90519 109.702 11.3619V11.5947H114.756V11.3619C114.756 7.6924 110.761 6.26562 105.058 6.26562H104.177C98.8277 6.26562 94.7739 7.60483 94.7739 10.8663V11.1291C94.7739 14.1001 97.6251 15.1488 103.56 15.3816C108.233 15.5568 110.084 15.8473 110.084 17.0989C110.084 18.2352 108.791 18.7008 105.293 18.7008H104.412C101.209 18.7008 99.7393 18.0323 99.7393 16.6034V16.3406H94.6855V16.6311C94.6855 20.1255 98.0066 21.7274 104.412 21.7274H105.293C111.698 21.7274 115.138 20.1255 115.138 17.0092V16.7764C115.138 14.0082 112.61 12.7865 106.058 12.496L106.06 12.4982Z" fill="#354B40"/>
<path id="Vector_11" d="M122.448 6.52344H117.395V21.464H122.448V6.52344Z" fill="#354B40"/>
<path id="Vector_12" d="M119.686 4.37004H120.186C121.568 4.37004 122.742 3.52637 122.742 2.18502C122.742 0.843679 121.568 0 120.186 0H119.686C118.277 0 117.158 0.901348 117.158 2.18502C117.158 3.4687 118.275 4.37004 119.686 4.37004Z" fill="#354B40"/>
<path id="Vector_13" d="M12.9587 15.6541L15.7345 15.4341L20.0813 15.0881C19.1977 16.5298 17.0082 17.3308 13.6354 17.3308H12.1958C7.78858 17.3308 5.31882 15.6413 5.31882 12.2922V11.0684C5.31882 7.89441 7.78642 6.08745 12.1958 6.08745H13.6354C18.131 6.08745 20.452 7.68937 20.452 9.72701H25.7407C25.7407 4.48339 20.6287 1.6875 13.6332 1.6875H12.1936C5.49554 1.68964 0 4.60086 0 11.0662V12.2901C0 18.7832 5.17227 21.7265 11.4609 21.7265H12.9005C15.9866 21.7265 18.6611 20.8251 20.452 19.1356L21.4498 18.0207V21.4659H25.9174V12.3798H12.9587V15.6563V15.6541Z" fill="#354B40"/>
</g>
<path id="Vector_14" d="M139.839 7.58594H126.908V20.4013H139.839V7.58594Z" fill="#CD313C"/>
<path id="Vector_15" d="M154.915 7.58594H141.984V20.4013H154.915V7.58594Z" fill="#FFFFFF"/>
<path id="Vector_16" d="M169.987 7.58594H157.057V20.4013H169.987V7.58594Z" fill="#22874B"/>
</g>
<defs>
<clipPath id="clip0_790_40">
<rect width="174.448" height="48" fill="white"/>
</clipPath>
</defs>
</svg>
