<svg preserveAspectRatio="none" width="100%" height="100%" overflow="visible" style="display: block;" viewBox="0 0 174.448 48" fill="none" xmlns="http://www.w3.org/2000/svg">
<g id="Layer_1" clip-path="url(#clip0_790_212)">
<g id="Group">
<path id="Vector" d="M49.7651 25.5618C50.6293 25.5939 51.4267 25.675 52.1745 25.8096H60.198V29.1288L57.405 28.7806C57.7282 29.3616 57.905 30.0045 57.905 30.7029V30.9934C57.905 33.9965 55.1744 35.9893 49.7651 36.1644C49.5625 36.1708 48.4828 36.1772 48.0281 36.1772C45.9549 36.1772 45.3471 36.0704 44.3299 35.9167C44.0066 36.032 43.6532 36.2648 43.6532 36.7326C43.6532 37.6638 45.0885 38.0141 48.0281 38.0141H49.7651C57.5882 38.0141 59.6678 39.3832 59.6678 42.6447V42.9352C59.6678 46.0515 56.6421 48.0016 49.3233 48.0016H47.9419C40.7718 48.0016 37.8926 46.4573 37.8926 44.0694V43.7789C37.8926 42.177 39.0391 41.1282 40.9787 40.6049V39.8766C39.5391 39.4686 38.8926 38.7702 38.8926 37.6916C38.8926 36.613 39.774 35.7394 40.9787 35.419V34.7505C39.6856 33.847 38.8926 32.5355 38.8926 30.9934V30.7029C38.8926 27.5568 41.9787 25.5469 47.8255 25.5469C47.8255 25.5469 49.5065 25.5511 49.7651 25.5618ZM42.8278 42.8754C42.8278 44.1121 44.2588 44.6952 48.0259 44.7101C48.0755 44.7101 49.5474 44.7101 49.7629 44.7037C53.3059 44.6397 54.6119 44.0544 54.6119 42.8754C54.6119 41.7776 53.3081 41.1453 49.7629 41.077C49.5453 41.0727 48.0453 41.0706 48.0259 41.0706C44.3967 41.077 42.8278 41.7177 42.8278 42.8754ZM43.7394 30.7905V30.9357C43.7394 32.1575 45.0907 33.061 47.9419 33.061H48.8233C51.7025 33.061 53.0258 32.2173 53.0258 30.9357V30.7905C53.0258 29.6286 51.987 28.8319 49.7651 28.6674C49.4806 28.6461 49.1767 28.6354 48.8535 28.6354H47.972C45.0928 28.6354 43.7416 29.4791 43.7416 30.7905H43.7394Z" fill="var(--fill-0, #354B40)"/>
<path id="Vector_2" d="M81.0384 32.1874V32.8858H76.3661V32.1874C76.3661 30.2928 74.8963 29.3616 72.1636 29.3616C69.4309 29.3616 67.8448 30.2928 67.8448 32.1874V40.7502H62.791V25.8096H67.8448V27.702L67.862 28.6332C69.0085 27.294 71.3403 25.5469 74.2217 25.5469C78.8057 25.5469 81.0384 27.5867 81.0384 32.1874Z" fill="var(--fill-0, #354B40)"/>
<path id="Vector_3" d="M94.2945 25.5469C100.583 25.5469 104.962 28.1099 104.962 33.1186V33.4091C104.962 38.5652 100.583 41.0108 94.2945 41.0108H93.413C87.1244 41.0108 82.7754 38.5353 82.7754 33.4091V33.1186C82.7754 28.1099 87.0942 25.5469 93.413 25.5469H94.2945ZM87.8291 33.1186V33.4091C87.8291 35.6518 89.4756 37.226 93.413 37.226H94.2945C98.262 37.226 99.8784 35.6518 99.8784 33.4091V33.1186C99.8784 30.9037 98.262 29.3039 94.2945 29.3039H93.413C89.4756 29.3039 87.8291 30.9058 87.8291 33.1186Z" fill="var(--fill-0, #354B40)"/>
<path id="Vector_4" d="M117.441 25.5469C123.141 25.5469 127.139 26.9737 127.139 30.6431V30.8759H122.085V30.6431C122.085 29.1864 120.204 28.5457 117.443 28.5457H116.561C113.682 28.5457 112.243 29.0412 112.243 30.0899C112.243 31.3715 113.829 31.5744 118.443 31.7794C124.997 32.0699 127.522 33.2938 127.522 36.0598V36.2926C127.522 39.4088 124.085 41.0108 117.678 41.0108H116.796C110.389 41.0108 107.07 39.4088 107.07 35.9145V35.624H112.124V35.8868C112.124 37.3135 113.594 37.9842 116.796 37.9842H117.678C121.176 37.9842 122.469 37.5186 122.469 36.3823C122.469 35.1306 120.617 34.838 115.945 34.665C110.01 34.4322 107.159 33.3835 107.159 30.4124V30.1497C107.159 26.8882 111.215 25.549 116.561 25.549H117.443L117.441 25.5469Z" fill="var(--fill-0, #354B40)"/>
<path id="Vector_5" d="M140.036 25.5469C145.737 25.5469 149.734 26.9737 149.734 30.6431V30.8759H144.681V30.6431C144.681 29.1864 142.799 28.5457 140.039 28.5457H139.157C136.278 28.5457 134.838 29.0412 134.838 30.0899C134.838 31.3715 136.424 31.5744 141.039 31.7794C147.592 32.0699 150.118 33.2938 150.118 36.0598V36.2926C150.118 39.4088 146.681 41.0108 140.273 41.0108H139.392C132.987 41.0108 129.666 39.4088 129.666 35.9145V35.624H134.72V35.8868C134.72 37.3135 136.19 37.9842 139.392 37.9842H140.273C143.771 37.9842 145.064 37.5186 145.064 36.3823C145.064 35.1306 143.213 34.838 138.541 34.665C132.606 34.4322 129.754 33.3835 129.754 30.4124V30.1497C129.754 26.8882 133.81 25.549 139.157 25.549H140.039L140.036 25.5469Z" fill="var(--fill-0, #354B40)"/>
<path id="Vector_6" d="M163.779 25.5469C170.067 25.5469 174.447 28.1099 174.447 33.1186V33.4091C174.447 38.5652 170.067 41.0108 163.779 41.0108H162.897C156.609 41.0108 152.26 38.5353 152.26 33.4091V33.1186C152.26 28.1099 156.581 25.5469 162.897 25.5469H163.779ZM157.314 33.1186V33.4091C157.314 35.6518 158.96 37.226 162.897 37.226H163.779C167.746 37.226 169.363 35.6518 169.363 33.4091V33.1186C169.363 30.9037 167.746 29.3039 163.779 29.3039H162.897C158.96 29.3039 157.314 30.9058 157.314 33.1186Z" fill="var(--fill-0, #354B40)"/>
</g>
<g id="Group_2">
<path id="Vector_7" d="M40.8526 6.25781C37.9734 6.25781 35.6351 7.72945 34.4885 9.07079L34.4756 8.41507V6.52266H29.4219V21.4633H34.4756V12.9005C34.4756 11.0059 35.9734 10.0747 38.7945 10.0747C41.6155 10.0747 42.9969 11.0059 42.9969 12.9005V13.5989H47.6692V12.9005C47.6692 8.29973 45.4365 6.25995 40.8526 6.25995V6.25781Z" fill="var(--fill-0, #354B40)"/>
<path id="Vector_8" d="M60.3391 6.25781H59.4577C52.8156 6.25781 49.7597 8.26769 49.7597 11.6467H54.8134C54.8134 10.1323 56.3996 9.43175 59.4275 9.43175H60.2508C63.3369 9.43175 64.8929 10.19 64.8929 11.7898V12.3729H57.0461C51.904 12.3729 49.4062 13.9171 49.4062 17.1787C49.4062 20.1774 52.0807 21.7217 56.3112 21.7217C60.0439 21.7217 63.102 20.8972 64.9511 18.2573L64.8929 19.2184V21.4611H69.9466V11.7919C69.9466 8.3275 66.979 6.25781 60.337 6.25781H60.3391ZM64.8929 15.6088C64.8929 17.7062 61.3089 18.347 58.6926 18.347C55.6669 18.347 54.5785 17.7361 54.5785 16.6874C54.5785 15.5212 55.5785 15.0855 57.9879 15.0855H64.8929V15.6109V15.6088Z" fill="var(--fill-0, #354B40)"/>
<path id="Vector_9" d="M83.4626 12.4982C78.8485 12.2931 77.2623 12.0902 77.2623 10.8087C77.2623 9.75995 78.7019 9.26442 81.5812 9.26442H82.4626C85.2255 9.26442 87.1047 9.90519 87.1047 11.3619V11.5947H92.1585V11.3619C92.1585 7.6924 88.1629 6.26562 82.4604 6.26562H81.579C76.23 6.26562 72.1763 7.60483 72.1763 10.8663V11.1291C72.1763 14.1001 75.0275 15.1488 80.9626 15.3816C85.6349 15.5568 87.4862 15.8473 87.4862 17.0989C87.4862 18.2352 86.1931 18.7008 82.6954 18.7008H81.8139C78.6114 18.7008 77.1416 18.0323 77.1416 16.6034V16.3406H72.0879V16.6311C72.0879 20.1255 75.4089 21.7274 81.8139 21.7274H82.6954C89.1025 21.7274 92.5399 20.1255 92.5399 17.0092V16.7764C92.5399 14.0082 90.012 12.7865 83.4604 12.496L83.4626 12.4982Z" fill="var(--fill-0, #354B40)"/>
<path id="Vector_10" d="M106.06 12.4982C101.446 12.2931 99.86 12.0902 99.86 10.8087C99.86 9.75995 101.3 9.26442 104.179 9.26442H105.06C107.823 9.26442 109.702 9.90519 109.702 11.3619V11.5947H114.756V11.3619C114.756 7.6924 110.761 6.26562 105.058 6.26562H104.177C98.8277 6.26562 94.7739 7.60483 94.7739 10.8663V11.1291C94.7739 14.1001 97.6251 15.1488 103.56 15.3816C108.233 15.5568 110.084 15.8473 110.084 17.0989C110.084 18.2352 108.791 18.7008 105.293 18.7008H104.412C101.209 18.7008 99.7393 18.0323 99.7393 16.6034V16.3406H94.6855V16.6311C94.6855 20.1255 98.0066 21.7274 104.412 21.7274H105.293C111.698 21.7274 115.138 20.1255 115.138 17.0092V16.7764C115.138 14.0082 112.61 12.7865 106.058 12.496L106.06 12.4982Z" fill="var(--fill-0, #354B40)"/>
<path id="Vector_11" d="M122.446 6.52344H117.393V21.464H122.446V6.52344Z" fill="var(--fill-0, #354B40)"/>
<path id="Vector_12" d="M119.686 4.37004H120.186C121.568 4.37004 122.742 3.52637 122.742 2.18502C122.742 0.843679 121.568 0 120.186 0H119.686C118.277 0 117.158 0.901348 117.158 2.18502C117.158 3.4687 118.275 4.37004 119.686 4.37004Z" fill="var(--fill-0, #354B40)"/>
<path id="Vector_13" d="M12.9587 15.6541L15.7345 15.4341L20.0813 15.0881C19.1977 16.5298 17.0082 17.3308 13.6354 17.3308H12.1958C7.78858 17.3308 5.31882 15.6413 5.31882 12.2922V11.0684C5.31882 7.89441 7.78642 6.08745 12.1958 6.08745H13.6354C18.131 6.08745 20.452 7.68937 20.452 9.72701H25.7407C25.7407 4.48339 20.6287 1.6875 13.6332 1.6875H12.1936C5.49554 1.68964 0 4.60086 0 11.0662V12.2901C0 18.7832 5.17227 21.7265 11.4609 21.7265H12.9005C15.9866 21.7265 18.6611 20.8251 20.452 19.1356L21.4498 18.0207V21.4659H25.9174V12.3798H12.9587V15.6563V15.6541Z" fill="var(--fill-0, #354B40)"/>
</g>
<path id="Vector_14" d="M139.839 7.58594H126.908V20.4013H139.839V7.58594Z" fill="var(--fill-0, #CD313C)"/>
<path id="Vector_15" d="M154.913 7.58594H141.982V20.4013H154.913V7.58594Z" fill="var(--fill-0, white)"/>
<path id="Vector_16" d="M169.987 7.58594H157.057V20.4013H169.987V7.58594Z" fill="var(--fill-0, #22874B)"/>
</g>
<defs>
<clipPath id="clip0_790_212">
<rect width="174.448" height="48" fill="white"/>
</clipPath>
</defs>
</svg>
