<svg preserveAspectRatio="none" width="100%" height="100%" overflow="visible" style="display: block;" viewBox="0 0 63.8151 64.0016" fill="none" xmlns="http://www.w3.org/2000/svg">
<g id="vectorly-UNI-balloons">
<path id="path1336" fill-rule="evenodd" clip-rule="evenodd" d="M28.2308 42.6677C28.4274 42.7091 28.5525 42.8953 28.5122 43.0919C28.4708 43.2884 28.2794 43.4125 28.0829 43.3712C26.0243 43.0194 24.2264 40.8057 23.4329 38.2091C22.9974 36.7815 22.8774 35.2505 23.1547 33.8643C23.3626 32.8298 23.8074 31.8885 24.4922 31.1023C26.1164 29.3033 27.937 28.635 29.5798 28.6568C31.8566 28.6868 33.7911 30.0471 34.5515 31.485C35.6873 33.6884 35.8073 35.9746 35.2808 37.9505C34.6415 40.3505 33.0815 42.2746 31.4036 43.0091C31.2225 43.1022 31.0063 43.0298 30.9194 42.8436C30.8325 42.6678 30.908 42.4505 31.088 42.3574C32.5125 41.6126 33.7353 39.8229 34.1646 37.6816C34.5101 35.9747 34.3228 34.0299 33.2491 32.1988C32.6656 31.1747 31.2142 30.3161 29.5643 30.3057C28.3022 30.2954 26.915 30.8023 25.6446 32.1678C24.2833 33.5747 24.1136 35.8402 24.6008 37.8885C25.1419 40.1643 26.4815 42.2333 28.2308 42.6677Z" fill="var(--fill-0, #283E37)"/>
<path id="path1338" fill-rule="evenodd" clip-rule="evenodd" d="M31.1763 43.5972C31.0428 43.442 31.0553 43.2145 31.2042 43.08C31.3532 42.9455 31.5828 42.9558 31.7163 43.111C32.7301 43.9903 32.6018 44.7868 32.2966 45.2834C31.9749 45.7903 31.2394 46.0179 30.5701 45.9455C30.2721 45.9145 30.0011 45.78 29.7611 45.6145C29.5428 45.4489 29.3804 45.4076 29.2025 45.4283C29.0411 45.449 28.8735 45.511 28.6729 45.5731C28.3635 45.6662 28.0025 45.7696 27.5577 45.8627C26.7218 46.0179 25.7298 45.6041 25.586 44.6731C25.497 44.1041 25.6791 43.2455 26.8149 42.3352C26.9556 42.1904 27.1853 42.1904 27.328 42.3352C27.4708 42.4697 27.4718 42.6972 27.3322 42.8421C26.9908 43.2869 26.8253 43.6593 26.7539 43.9696C26.7125 44.1455 26.756 44.28 26.816 44.3834C26.8811 44.4972 27.0394 44.4455 27.1553 44.4041C27.5536 44.2696 27.867 44.1145 28.1463 44.011C28.4784 43.8869 28.7701 43.8144 29.0432 43.7938C29.5935 43.7524 30.1108 43.8765 30.7263 44.4352C30.8515 44.5593 31.047 44.6317 31.2146 44.5903C31.3025 44.5696 31.4194 44.5903 31.4473 44.4972C31.5145 44.2903 31.4504 43.9903 31.1763 43.5972Z" fill="var(--fill-0, #283E37)"/>
<path id="path1340" fill-rule="evenodd" clip-rule="evenodd" d="M28.9674 44.5211C29.0181 44.3245 29.2167 44.2107 29.4112 44.2625C29.6036 44.3142 29.7194 44.5108 29.6677 44.7073C29.4143 46.0004 29.4919 47.3245 29.6491 48.7211C29.7484 49.6004 29.8912 50.5107 30.0174 51.4521C30.1188 52.2073 30.216 52.9831 30.2688 53.79C30.3195 54.5555 30.3288 55.3521 30.2894 56.1693C30.2388 57.2038 30.1064 58.259 29.855 59.3452C29.5208 60.7831 28.9798 62.2624 28.1481 63.7934C28.0633 63.9693 27.8481 64.052 27.666 63.9693C27.485 63.8865 27.4064 63.6693 27.4912 63.4831C28.2619 61.5383 28.5691 59.7279 28.6798 58.0004C28.7491 56.9245 28.7202 55.8797 28.6715 54.8659C28.6384 54.1417 28.596 53.4383 28.5526 52.7555C28.4801 51.628 28.4057 50.5418 28.3808 49.4969C28.3384 47.728 28.445 46.0728 28.9674 44.5211Z" fill="var(--fill-0, #283E37)"/>
<path id="path1342" fill-rule="evenodd" clip-rule="evenodd" d="M28.1258 31.5805C28.3161 31.5185 28.5199 31.6219 28.582 31.8081C28.643 32.0047 28.5375 32.2115 28.3471 32.2633C28.0171 32.4598 27.7978 32.7081 27.5765 32.9667C27.3644 33.215 27.2444 33.4943 27.1151 33.784C27.0396 33.9598 26.9806 34.1357 26.9175 34.3116C26.8523 34.4978 26.7778 34.6736 26.723 34.8598C26.5451 35.4805 26.4189 36.1219 26.4996 36.7736C26.5596 36.9702 26.453 37.1667 26.2627 37.2288C26.0713 37.2908 25.8675 37.1874 25.8075 36.9909C25.5768 36.5771 25.4248 36.1426 25.3161 35.677C25.2406 35.3564 25.2168 35.046 25.2189 34.715C25.222 34.3529 25.281 34.0012 25.3948 33.6598C25.4579 33.4736 25.5447 33.2978 25.6472 33.1323C25.8054 32.8736 25.9813 32.6357 26.2037 32.4391C26.3692 32.2943 26.5337 32.1495 26.7323 32.0357C27.1503 31.8081 27.5889 31.6323 28.1258 31.5805Z" fill="var(--fill-0, #283E37)"/>
<path id="path1344" fill-rule="evenodd" clip-rule="evenodd" d="M38.4115 36.523C38.6111 36.5023 38.7849 36.6575 38.7994 36.8541C38.8139 37.061 38.6628 37.2265 38.4632 37.2472C38.4632 37.2472 38.1425 37.4334 37.4122 37.6817C37.2818 37.723 37.1442 37.7644 36.987 37.7954C36.8959 37.8058 36.8018 37.8265 36.7015 37.8265C36.4739 37.8368 36.237 37.8058 35.9763 37.7541C35.6163 37.692 35.2904 37.5885 34.8787 37.4851C34.6791 37.4954 34.5063 37.3403 34.4939 37.1437C34.4815 36.9472 34.6336 36.7713 34.8332 36.7609C35.2284 36.6058 35.5356 36.4506 35.8842 36.3471C36.1366 36.2644 36.3663 36.2024 36.5918 36.1817C36.6911 36.1713 36.7873 36.1713 36.8794 36.1817C37.0387 36.192 37.1794 36.2127 37.3139 36.2334C38.0691 36.3782 38.4115 36.523 38.4115 36.523ZM23.9174 37.3506C24.1171 37.3403 24.2867 37.4954 24.296 37.7023C24.3053 37.8989 24.1502 38.0747 23.9505 38.0747C18.7564 38.3954 13.1558 38.654 8.95267 38.623C6.75183 38.6127 4.92877 38.5196 3.73343 38.323C3.07312 38.2196 2.58341 38.0644 2.28599 37.8989C0.919137 37.1437 0.25129 36.1092 0.0581524 35.0541C-0.163123 33.8437 0.259668 32.5713 1.11208 31.5575C2.31249 30.13 4.36569 29.231 6.53448 29.7555C6.50489 26.6531 7.11017 24.0452 8.14537 21.9359C9.69895 18.7704 12.2027 16.7055 14.9444 15.7228C20.5481 13.7149 27.1988 16.1914 29.0432 23.0034C31.6656 21.2407 34.5611 21.1134 36.7915 22.3382C39.0508 23.5765 40.6594 26.2124 40.5259 29.9955C40.5218 30.192 40.3563 30.3472 40.1566 30.3472C39.9559 30.3472 39.7966 30.1817 39.8007 29.9779C39.8204 26.5962 38.3845 24.2479 36.3352 23.1979C34.196 22.1024 31.4153 22.4593 29.0526 24.4982C28.8891 24.6348 28.6667 24.6751 28.466 24.6058C28.2653 24.5365 28.1164 24.3658 28.0729 24.1589C26.6484 17.6459 20.5574 15.2955 15.4864 17.2C13.1154 18.0896 10.9803 19.9103 9.6313 22.6641C8.57303 24.8241 7.98875 27.5479 8.1583 30.8541C8.17392 31.1334 8.03819 31.4024 7.80202 31.5575C7.56595 31.7127 7.26514 31.7334 7.01252 31.6093C5.16733 30.6679 3.28157 31.3299 2.23831 32.5196C1.66159 33.1816 1.3288 34.0092 1.45801 34.8058C1.57273 35.5196 2.04704 36.2023 2.9553 36.7299C3.24526 36.9058 3.80357 37.0196 4.56402 37.123C5.68653 37.2782 7.20389 37.3816 8.97636 37.4437C13.1589 37.5885 18.7388 37.5058 23.9174 37.3506Z" fill="var(--fill-0, #283E37)"/>
<path id="path1346" fill-rule="evenodd" clip-rule="evenodd" d="M38.2312 32.1358C38.1091 32.3014 37.8816 32.3324 37.7223 32.2082C37.564 32.0841 37.5329 31.8565 37.654 31.7013C38.6874 30.1186 39.9412 29.262 41.2167 28.8927C41.9057 28.6941 42.6039 28.6558 43.2857 28.7314C44.2643 28.8389 45.2119 29.2 46.0312 29.7462C46.8484 30.2945 47.5415 31.0186 48.037 31.8255C49.3187 33.9048 49.3994 36.46 47.2663 37.991C47.1112 38.1255 46.8826 38.1047 46.7563 37.9496C46.6291 37.7944 46.6519 37.5565 46.807 37.4323C48.0701 36.253 47.9739 34.6806 47.2177 33.3048C46.745 32.4565 45.9939 31.691 45.1167 31.122C44.7784 30.9048 44.4267 30.7082 44.0553 30.5531C43.506 30.3255 42.9267 30.1807 42.3246 30.16C40.9726 30.1186 39.5419 30.6462 38.2312 32.1358Z" fill="var(--fill-0, #283E37)"/>
<path id="path1348" fill-rule="evenodd" clip-rule="evenodd" d="M34.488 15.4972C34.6566 15.6048 34.7063 15.8283 34.5987 15.9969C34.4911 16.1666 34.2666 16.2162 34.098 16.1086C31.7435 14.7048 30.5725 11.4483 30.8042 8.22795C31.0266 5.1452 32.5618 2.14627 35.3859 0.747655C37.7725 -0.388203 40.0235 -0.138911 41.7583 0.885223C43.6803 2.02108 44.96 4.11591 45.1369 6.27487C45.35 9.18175 44.4748 11.6769 42.9821 13.5141C41.2959 15.5903 38.8442 16.8317 36.379 16.8866C36.1794 16.8969 36.0087 16.7427 35.9983 16.5431C35.988 16.3434 36.1421 16.1728 36.3418 16.1624C38.5431 15.9866 40.6669 14.7545 42.079 12.819C43.2976 11.1483 43.97 8.94381 43.6659 6.41761C43.4807 4.7459 42.4286 3.17452 40.9286 2.3066C39.5952 1.53591 37.8914 1.33212 36.0594 2.18039C33.6397 3.25522 32.3477 5.77108 32.029 8.34797C31.6794 11.1835 32.4821 14.1317 34.488 15.4972Z" fill="var(--fill-0, #283E37)"/>
<path id="path1350" fill-rule="evenodd" clip-rule="evenodd" d="M34.0985 18.323C34.0912 18.323 34.0757 18.3324 34.0675 18.3334C34.0364 18.3365 34.0054 18.3438 33.9733 18.35C33.8502 18.3748 33.724 18.4089 33.5957 18.4348C33.2409 18.5051 32.8768 18.5403 32.5199 18.4203C32.2002 18.3127 31.8578 18.1265 31.5599 17.7003C31.1244 17.0299 31.114 16.4196 31.4316 15.8838C31.6147 15.5724 31.8713 15.2858 32.1588 15.0676C32.5023 14.8069 32.8364 14.6351 32.9419 14.5658C33.093 14.4344 33.3216 14.45 33.454 14.6C33.5854 14.751 33.5699 14.9796 33.4199 15.1121C33.3133 15.2341 32.8468 15.6676 32.5974 16.1796C32.5343 16.3069 32.524 16.4445 32.5344 16.5779C32.5406 16.6555 32.6202 16.701 32.6926 16.7724C32.8054 16.8934 32.9171 16.8934 33.0185 16.882C33.125 16.8686 33.2285 16.8314 33.334 16.8045C33.6557 16.7207 33.9764 16.6596 34.2805 16.701C34.4461 16.7238 34.6116 16.7651 34.7699 16.8479C35.0885 17.0238 35.3564 17.2721 35.5995 17.5348C35.675 17.6165 35.7402 17.7034 35.8199 17.7717C35.8612 17.8069 35.8871 17.8596 35.9378 17.8772C36.0836 17.9258 36.2626 17.9145 36.5243 17.7738C36.6805 17.692 36.8109 17.5979 36.8999 17.4851C37.0871 17.2503 37.1761 17.0321 37.1761 17.0321C37.2071 16.8345 37.3933 16.7 37.5909 16.731C37.7885 16.7631 37.9229 16.9482 37.8919 17.1458C37.8919 17.1458 37.8681 17.5203 37.6778 17.9548C37.5692 18.201 37.384 18.4389 37.1388 18.6592C36.5471 19.1796 36.0505 19.2262 35.6461 19.1796C35.3098 19.1403 35.0244 18.9572 34.7378 18.7482C34.5309 18.5972 34.3375 18.4048 34.0892 18.3117C34.0933 18.3127 34.0964 18.3189 34.0985 18.323ZM34.0985 18.323C34.1005 18.323 34.1026 18.3241 34.1026 18.3272C34.1026 18.3303 34.1005 18.3272 34.0985 18.323Z" fill="var(--fill-0, #283E37)"/>
<path id="path1352" fill-rule="evenodd" clip-rule="evenodd" d="M42.6049 37.7981C42.6825 37.4567 42.8087 37.167 42.9566 36.9395C43.3342 36.3705 43.8876 36.1429 44.3966 36.205C45.1145 36.2877 45.46 36.6705 45.6038 37.0739C45.7859 37.5912 45.5863 38.336 44.9387 38.874C44.6894 39.0809 44.3697 39.2671 43.9963 39.3808C44.2073 40.2705 44.8456 41.3774 46.1594 42.5464C47.5011 43.736 49.509 44.967 52.451 46.105C52.6404 46.1774 52.7386 46.3843 52.6724 46.5705C52.6062 46.7567 52.3983 46.8601 52.21 46.7877C46.9487 45.0911 44.3904 42.9084 43.2825 41.067C42.9421 40.5084 42.7321 39.9601 42.6214 39.4636C42.2542 39.4015 41.8642 39.2774 41.4608 39.0601C40.2329 38.3774 38.9542 37.1877 37.7998 35.6464C36.4705 33.8671 35.2819 31.6119 34.4284 29.2347C32.9512 25.1102 32.4825 20.5906 33.8894 17.3827C33.9639 17.1975 34.176 17.1075 34.3612 17.183C34.5463 17.2575 34.6363 17.4695 34.5608 17.6547C33.4156 20.7375 34.1739 24.9271 35.7339 28.734C36.637 30.9395 37.8215 33.0084 39.098 34.6533C40.1201 35.9774 41.1866 37.0429 42.249 37.6326C42.3701 37.6947 42.489 37.7567 42.6049 37.7981ZM44.1214 37.5394C44.1618 37.4981 44.1814 37.4671 44.1452 37.4671C44.1142 37.4567 44.1101 37.4981 44.1214 37.5394ZM44.2249 37.7153C44.2476 37.736 44.2673 37.736 44.2797 37.705C44.2859 37.6946 44.2694 37.6946 44.2487 37.6946C44.2425 37.6946 44.2342 37.705 44.2249 37.7153Z" fill="var(--fill-0, #283E37)"/>
<path id="path1354" fill-rule="evenodd" clip-rule="evenodd" d="M49.8385 36.5429C49.6389 36.5429 49.4775 36.3774 49.4785 36.1809C49.4796 35.9843 49.642 35.8188 49.8427 35.8188C49.8427 35.8188 54.0343 35.6119 57.6747 35.4981C58.826 35.4567 59.9195 35.436 60.8071 35.4257C61.3522 35.4153 61.8198 35.4153 62.1726 35.4153C62.246 34.6602 62.2036 33.9464 62.0619 33.2946C61.854 32.3326 61.4422 31.505 60.8423 30.8119C59.6412 29.4443 57.7771 28.6406 55.5747 28.5733C55.375 28.5764 55.2095 28.4161 55.2064 28.2164C55.2033 28.0157 55.3637 27.8512 55.5633 27.8481C58.0843 27.6919 60.294 28.4574 61.7919 29.915C62.9164 31.0085 63.6343 32.5085 63.7884 34.3085C63.8433 34.9602 63.8122 35.6533 63.7067 36.3774C63.6415 36.7809 63.2939 37.0705 62.8874 37.0705C62.8874 37.0705 62.0495 37.0705 60.7988 37.0498C59.9122 37.0291 58.8178 36.9981 57.6674 36.9464C54.0292 36.8016 49.8385 36.5429 49.8385 36.5429Z" fill="var(--fill-0, #283E37)"/>
<path id="path1356" fill-rule="evenodd" clip-rule="evenodd" d="M55.631 29.1474C55.5503 29.3305 55.3362 29.4143 55.1531 29.3346C54.97 29.2539 54.8862 29.0408 54.9658 28.8567C55.7396 26.8167 54.8541 24.9774 53.3117 23.9646C52.57 23.4774 51.6731 23.1991 50.7286 23.1784C49.8783 23.1598 48.9897 23.3595 48.1414 23.8519C47.8621 24.0091 47.5176 23.9905 47.2569 23.8043C46.9952 23.6181 46.8659 23.2984 46.9228 22.984C47.1338 21.9319 47.2073 20.9616 47.1721 20.0668C47.1328 19.0219 46.9497 18.0847 46.6259 17.2478C45.88 15.3226 44.4618 13.9323 42.697 13.0706C42.5139 12.9909 42.429 12.7778 42.5076 12.5937C42.5873 12.4106 42.8004 12.3257 42.9845 12.4043C45.0649 13.1874 46.8131 14.6181 47.8311 16.7233C48.4486 17.9988 48.7869 19.5257 48.7497 21.3029C48.7466 21.4788 48.7383 21.6567 48.7259 21.8367C49.4242 21.6371 50.1235 21.5657 50.8 21.6133C52.0321 21.6991 53.1876 22.1491 54.101 22.865C55.9196 24.2895 56.8476 26.7019 55.631 29.1474ZM32.0563 13.0571C32.2312 12.9599 32.4515 13.024 32.5487 13.1988C32.646 13.3737 32.5819 13.5951 32.407 13.6913C32.0594 13.984 31.7688 14.2985 31.4522 14.6192C31.1491 14.9264 30.8791 15.2482 30.5925 15.5688C30.4436 15.7344 30.2957 15.8999 30.1405 16.0602C29.9067 16.3023 29.6615 16.5267 29.4308 16.7771C29.0077 17.2343 28.6002 17.6792 28.2567 18.2264C28.1822 18.4116 27.9702 18.5005 27.785 18.426C27.5998 18.3505 27.5098 18.1385 27.5853 17.9533C27.7374 17.2437 27.9505 16.595 28.2691 15.9712C28.4864 15.5471 28.7481 15.152 29.0605 14.7971C29.1857 14.6554 29.3264 14.5282 29.4712 14.4071C29.6884 14.2251 29.9119 14.0554 30.155 13.9085C30.7581 13.5433 31.3819 13.2816 32.0563 13.0571Z" fill="var(--fill-0, #283E37)"/>
</g>
</svg>
