<svg width="80" height="80" viewBox="0 0 80 80" fill="none" xmlns="http://www.w3.org/2000/svg">
<path d="M0 8C0 3.58172 3.58172 0 8 0H37.5378C39.0351 0 40.3919 0.881772 41 2.25C41.6081 3.61823 42.9649 4.5 44.4622 4.5H72C76.4183 4.5 80 8.08172 80 12.5V72C80 76.4183 76.4183 80 72 80H8C3.58172 80 0 76.4183 0 72V8Z" fill="#F2E6C9"/>
<path d="M22.188 46.647C21.908 46.647 21.691 46.57 21.537 46.416C21.397 46.248 21.327 46.024 21.327 45.744V32.577C21.327 32.283 21.404 32.066 21.558 31.926C21.712 31.772 21.929 31.695 22.209 31.695H27.186C28.768 31.695 29.986 32.087 30.84 32.871C31.694 33.641 32.121 34.733 32.121 36.147C32.121 37.547 31.694 38.639 30.84 39.423C29.986 40.207 28.768 40.599 27.186 40.599H23.049V45.744C23.049 46.024 22.979 46.248 22.839 46.416C22.699 46.57 22.482 46.647 22.188 46.647ZM23.049 39.15H26.976C28.11 39.15 28.964 38.898 29.538 38.394C30.126 37.876 30.42 37.127 30.42 36.147C30.42 35.153 30.126 34.404 29.538 33.9C28.964 33.382 28.11 33.123 26.976 33.123H23.049V39.15ZM35.5611 46.5C35.2531 46.5 35.0151 46.423 34.8471 46.269C34.6931 46.101 34.6161 45.863 34.6161 45.555V32.64C34.6161 32.332 34.6931 32.101 34.8471 31.947C35.0151 31.779 35.2531 31.695 35.5611 31.695H39.6141C42.0081 31.695 43.8561 32.325 45.1581 33.585C46.4601 34.845 47.1111 36.679 47.1111 39.087C47.1111 40.291 46.9431 41.355 46.6071 42.279C46.2851 43.189 45.8021 43.959 45.1581 44.589C44.5141 45.219 43.7301 45.695 42.8061 46.017C41.8821 46.339 40.8181 46.5 39.6141 46.5H35.5611ZM36.3381 45.03H39.4881C40.4681 45.03 41.3151 44.904 42.0291 44.652C42.7571 44.4 43.3591 44.029 43.8351 43.539C44.3251 43.049 44.6891 42.433 44.9271 41.691C45.1651 40.935 45.2841 40.067 45.2841 39.087C45.2841 37.113 44.8011 35.636 43.8351 34.656C42.8691 33.662 41.4201 33.165 39.4881 33.165H36.3381V45.03ZM51.126 46.647C50.832 46.647 50.601 46.57 50.433 46.416C50.279 46.248 50.202 46.01 50.202 45.702V32.64C50.202 32.332 50.279 32.101 50.433 31.947C50.601 31.779 50.839 31.695 51.147 31.695H58.77C59.008 31.695 59.19 31.758 59.316 31.884C59.442 32.01 59.505 32.185 59.505 32.409C59.505 32.647 59.442 32.829 59.316 32.955C59.19 33.081 59.008 33.144 58.77 33.144H51.924V38.31H58.329C58.567 38.31 58.749 38.373 58.875 38.499C59.015 38.625 59.085 38.8 59.085 39.024C59.085 39.262 59.015 39.444 58.875 39.57C58.749 39.696 58.567 39.759 58.329 39.759H51.924V45.702C51.924 46.332 51.658 46.647 51.126 46.647Z" fill="#283E37"/>
</svg>
