<svg width="128" height="128" viewBox="0 0 128 128" fill="none" xmlns="http://www.w3.org/2000/svg">
<g clip-path="url(#clip0_871_259)">
<path fill-rule="evenodd" clip-rule="evenodd" d="M0.588939 21.0763C0.196564 21.0019 -0.0615854 20.6219 0.0127594 20.2296C0.0891692 19.8372 0.467109 19.579 0.859484 19.6534C0.859484 19.6534 4.00464 19.8516 7.89742 21.3963C8.76271 21.7371 9.64659 22.1687 10.5387 22.6768C11.0984 22.9948 11.6601 23.3418 12.1949 23.7465C13.465 24.7027 14.6669 25.8674 15.7139 27.2283C17.1368 29.0766 18.2623 31.2574 18.95 33.8099C19.0904 34.1837 18.9025 34.6009 18.5287 34.7434C18.1549 34.8838 17.7357 34.6959 17.5953 34.3221C16.8973 32.9343 16.034 31.7612 15.115 30.677C14.1444 29.533 13.0685 28.5789 11.9781 27.7033C11.2883 27.1477 10.5862 26.6459 9.89854 26.1585C9.16129 25.6361 8.44674 25.1363 7.7384 24.6861C6.76985 24.0707 5.85295 23.5235 4.99386 23.0671C2.45583 21.7144 0.588939 21.0763 0.588939 21.0763Z" fill="#283E37"/>
<path fill-rule="evenodd" clip-rule="evenodd" d="M111.177 51.5195C111.028 51.8912 110.607 52.0729 110.235 51.9263C109.865 51.7776 109.683 51.3584 109.83 50.9867C109.83 50.9867 110.77 47.5317 112.868 43.3395C113.341 42.3957 113.888 41.4271 114.497 40.4565C114.886 39.8391 115.296 39.2175 115.753 38.6248C116.883 37.1565 118.188 35.7707 119.606 34.5626C121.855 32.6483 124.371 31.1986 127.045 30.546C127.423 30.418 127.834 30.6224 127.962 31.0003C128.09 31.3782 127.886 31.7892 127.508 31.9172C125.25 32.8981 123.336 34.6267 121.572 36.5865C120.616 37.6501 119.745 38.8003 118.888 39.9444C118.301 40.725 117.721 41.4994 117.165 42.2635C116.255 43.5171 115.4 44.7273 114.65 45.8548C112.507 49.0702 111.177 51.5195 111.177 51.5195Z" fill="#283E37"/>
<path fill-rule="evenodd" clip-rule="evenodd" d="M101.326 38.4538C101.253 38.4332 101.131 38.4022 101.041 38.3878C100.687 38.3341 100.254 38.332 99.7582 38.3568C98.2341 38.4332 96.2041 38.8028 94.0564 39.2923C88.815 40.488 82.9108 42.4168 81.8927 42.8195C80.1188 43.5217 79.2494 44.9817 78.5266 46.3426C77.7232 47.8585 77.0521 49.2958 76.1207 50.1549C75.6746 50.5679 75.1687 50.8715 74.5946 51.0532C73.0581 51.5365 60.2337 53.267 49.1708 55.1215C43.8696 56.0115 38.9794 56.9223 36.0118 57.7752C35.3551 57.9652 34.5952 58.1098 34.1739 58.2605C34.1883 58.8945 34.368 60.1666 34.6137 61.8806C35.2271 66.1451 36.4186 72.8217 37.7754 79.4467C39.4048 87.3995 41.2593 95.2801 42.6801 98.7371C42.8618 99.177 43.1365 99.6725 43.246 99.8625C43.5557 99.8192 44.0101 99.6953 44.4313 99.6478C47.6323 99.2987 54.2345 98.2125 62.0076 96.8557C81.234 93.5019 107.591 88.4795 107.591 88.4795C107.981 88.399 108.364 88.653 108.444 89.0454C108.523 89.4378 108.269 89.8198 107.878 89.8983C107.878 89.8983 81.616 95.4948 62.4413 99.2162C54.6207 100.736 47.9751 101.938 44.7493 102.345C43.4525 102.508 42.6016 102.51 42.3001 102.442C41.8417 102.339 41.1333 101.843 40.5448 100.722C39.5225 98.768 38.1657 94.2722 36.8172 88.8657C34.7996 80.7745 32.751 70.6141 31.6833 64.1482C31.0906 60.5631 30.8469 58.0188 30.9543 57.3807C31.039 56.883 31.4045 56.1892 32.3669 55.6502C33.5874 54.9645 36.4579 54.1612 40.1958 53.4012C51.6655 51.0697 71.7488 48.7196 73.6859 48.1269C74.2765 47.9473 74.576 47.3359 74.9498 46.6751C75.687 45.3699 76.3995 43.7674 77.5539 42.4375C78.3903 41.471 79.4373 40.6367 80.8395 40.1039C82.0414 39.6475 89.7815 37.256 95.63 36.2297C97.8686 35.8373 99.8449 35.6515 101.129 35.8022C102.009 35.9034 102.649 36.178 103.038 36.5229C103.296 36.7542 103.698 37.3799 104.068 38.4146C104.925 40.8081 106.162 45.9255 107.473 51.997C110.668 66.7833 114.357 87.2694 114.357 87.2694C114.431 87.6617 114.175 88.0417 113.782 88.1161C113.39 88.1925 113.01 87.9344 112.936 87.542C112.936 87.542 108.789 67.1818 105.289 52.4926C104.122 47.592 103.027 43.3255 102.181 40.678C101.877 39.7259 101.441 38.7181 101.326 38.4538ZM43.1613 99.8729C43.0787 99.8316 42.9796 99.7821 42.9238 99.7697C42.9093 99.7655 42.8701 99.7345 42.868 99.7573C42.8639 99.8667 42.9775 99.8915 43.1613 99.8729ZM34.1284 58.2771C33.8951 58.3659 33.7835 58.4567 33.8827 58.562C34.0066 58.6921 34.0809 58.4918 34.1284 58.2771Z" fill="#283E37"/>
<path fill-rule="evenodd" clip-rule="evenodd" d="M56.0883 23.4758C55.729 25.0887 54.8224 28.4362 53.6618 32.3517C50.9152 41.618 46.8572 54.1657 46.8572 54.1657C46.7478 54.5498 46.3471 54.7729 45.963 54.6634C45.5789 54.5519 45.3559 54.1512 45.4653 53.7671C45.4653 53.7671 47.7432 44.5608 49.8372 36.04C50.5042 33.3347 51.1568 30.7017 51.702 28.4528C52.4558 25.3448 53.0113 23.0069 53.0753 22.3213C53.1455 21.5779 53.6515 20.7415 55.0475 20.5102C56.2887 20.3078 59.1386 20.6486 62.767 21.456C66.381 22.2635 70.8333 23.4943 75.2279 24.7851C83.8085 27.3086 92.1496 30.1069 93.4858 30.2679C94.9602 30.4476 95.5591 31.5133 95.4125 33.0621C95.206 35.2594 93.3598 38.5471 93.3598 38.5471C93.1718 38.9003 92.734 39.0344 92.3809 38.8465C92.0278 38.6606 91.8935 38.2208 92.0815 37.8677C92.0815 37.8677 92.9591 36.0607 93.3969 34.3219C93.5477 33.723 93.6427 33.1343 93.6076 32.6511C93.589 32.4198 93.5436 32.2175 93.3061 32.201C91.8212 32.1018 81.7 29.4172 72.1261 27.0547C69.1936 26.3319 66.3169 25.6358 63.7603 25.0576C61.6394 24.5785 59.7457 24.1738 58.2278 23.928C57.4927 23.8083 56.6356 23.546 56.0883 23.4758ZM55.886 23.4593C55.6505 23.4551 55.5143 23.5129 55.539 23.6843C55.5679 23.8867 55.7538 23.6472 55.886 23.4593ZM56.2391 22.7055C56.2412 22.6931 56.2432 22.6787 56.2453 22.6663C56.2432 22.6787 56.2412 22.691 56.2391 22.7055Z" fill="#283E37"/>
<path fill-rule="evenodd" clip-rule="evenodd" d="M58.7476 31.934C58.3614 31.8349 58.126 31.4426 58.223 31.0543C58.3201 30.6661 58.7145 30.4327 59.1028 30.5298C59.1028 30.5298 61.8803 30.8168 65.4406 31.3868C66.2502 31.5169 67.0886 31.6739 67.9456 31.8494C68.495 31.963 69.0505 32.0786 69.5998 32.2273C71.002 32.6073 72.3753 33.0637 73.6475 33.4994C77.0549 34.6642 79.6404 35.7216 79.6404 35.7216C80.0287 35.8207 80.2641 36.2151 80.165 36.6013C80.0679 36.9895 79.6735 37.2229 79.2873 37.1258C79.2873 37.1258 76.5097 36.8264 72.9556 36.2337C71.6298 36.0127 70.2049 35.7607 68.7903 35.4282C68.2368 35.2981 67.6937 35.135 67.1568 34.974C66.3183 34.722 65.5047 34.4618 64.7323 34.1913C61.329 33.0017 58.7476 31.934 58.7476 31.934Z" fill="#283E37"/>
<path fill-rule="evenodd" clip-rule="evenodd" d="M56.9454 40.3482C56.5575 40.2492 56.3231 39.8564 56.4205 39.4682C56.5193 39.0799 56.9125 38.8468 57.3006 38.9439C57.3006 38.9439 59.205 39.0128 61.686 39.3073C62.2446 39.374 62.8202 39.4629 63.41 39.5725C63.7872 39.6425 64.1685 39.7141 64.543 39.8186C65.5018 40.0854 66.4288 40.4301 67.2892 40.7617C69.6162 41.6574 71.3297 42.4903 71.3297 42.4903C71.7176 42.5893 71.952 42.982 71.8546 43.3702C71.7573 43.7583 71.3626 43.9915 70.976 43.8943C70.976 43.8943 69.0711 43.8134 66.5976 43.496C65.6833 43.3791 64.7045 43.2409 63.7336 43.0196C63.3548 42.9336 62.9857 42.8145 62.6208 42.6969C62.0497 42.513 61.4994 42.319 60.9775 42.1117C58.6538 41.1916 56.9454 40.3482 56.9454 40.3482Z" fill="#283E37"/>
<path fill-rule="evenodd" clip-rule="evenodd" d="M101.355 15.2919C100.744 15.232 99.614 15.3643 98.6042 15.3313C96.5308 15.2631 93.7821 15.2837 90.7278 15.3043C88.2207 15.3209 85.5113 15.3394 82.7998 15.3642C75.5739 15.4324 68.3563 15.5666 65.0046 15.8722C64.5172 15.9177 64.0236 15.9879 63.7345 16.0334C63.6065 16.5517 63.5135 17.4377 63.4247 18.3876C63.2162 20.5705 63.1129 23.061 63.1129 23.061C63.1108 23.4616 62.7866 23.7838 62.386 23.7838C61.9874 23.7817 61.6632 23.4575 61.6653 23.0568C61.6653 23.0568 61.5558 19.8559 61.6487 17.4769C61.6983 16.2192 61.8553 15.1722 62.0391 14.7695C62.1175 14.5981 62.3344 14.3234 62.8155 14.1376C63.1852 13.9951 63.9947 13.8298 65.1471 13.6646C67.5158 13.3239 71.4581 12.9274 75.9291 12.6176C79.3737 12.3802 83.1261 12.1819 86.707 12.0787C89.2574 12.0043 91.719 11.9836 93.9122 12.0125C97.0636 12.0559 99.6719 12.2108 101.233 12.4194C102.171 12.5454 102.817 12.725 103.131 12.8902C103.424 13.0472 103.627 13.2227 103.753 13.3879C103.901 13.5841 104.093 13.9186 104.209 14.4225C104.409 15.2899 104.541 17.0515 104.57 19.2777C104.661 26.7308 103.883 39.6565 103.883 39.6565C103.872 40.0571 103.54 40.373 103.141 40.3627C102.741 40.3503 102.425 40.0178 102.435 39.6192C102.435 39.6192 102.357 31.4743 102.082 24.4199C101.96 21.2457 101.803 18.2967 101.566 16.4402C101.512 16.0168 101.417 15.5583 101.355 15.2919ZM101.45 15.3023C101.545 15.4448 101.743 15.7897 101.801 15.5853C101.846 15.4221 101.708 15.3395 101.45 15.3023Z" fill="#283E37"/>
<path fill-rule="evenodd" clip-rule="evenodd" d="M70.3545 22.7771C69.9559 22.7853 69.6255 22.4673 69.6193 22.0667C69.611 21.6681 69.9291 21.3377 70.3297 21.3315C70.3297 21.3315 73.8074 20.8647 78.297 20.4641C79.3213 20.3732 80.3931 20.301 81.4876 20.2431C82.1918 20.206 82.9022 20.1688 83.6147 20.1647C85.4382 20.1564 87.2555 20.2308 88.9406 20.3113C93.4406 20.524 96.9347 20.8544 96.9347 20.8544C97.3353 20.8482 97.6658 21.1662 97.672 21.5648C97.6802 21.9654 97.3601 22.2939 96.9616 22.3021C96.9616 22.3021 93.4819 22.7565 88.9923 23.1323C87.3112 23.2727 85.496 23.411 83.6745 23.4668C82.9621 23.4895 82.2496 23.4772 81.5454 23.4648C80.4488 23.4462 79.375 23.4131 78.3486 23.3574C73.8487 23.1199 70.3545 22.7771 70.3545 22.7771Z" fill="#283E37"/>
<path fill-rule="evenodd" clip-rule="evenodd" d="M41.0895 38.0844C40.8603 38.1401 40.4638 38.2413 40.0838 38.3652C37.1699 39.3255 31.15 42.0681 25.1798 44.9365C19.2446 47.7885 13.3672 50.7726 10.7425 52.4185C10.5236 52.5569 10.3026 52.7076 10.125 52.8335C10.315 53.2486 10.6289 53.8084 10.8519 54.3577C11.7833 56.6438 13.3776 60.1111 15.2692 64.0948C17.4108 68.603 19.9302 73.7658 22.3691 78.6065C25.7911 85.4007 29.0312 91.563 30.8382 94.351C31.2389 94.9664 31.7593 95.6066 31.7593 95.6066C31.7593 95.6066 31.7283 95.5984 31.72 95.5922C32.4036 95.9536 33.4589 95.7408 34.541 95.4186C36.8663 94.7268 39.2701 93.3184 39.2701 93.3184C39.6109 93.1078 40.0569 93.211 40.2676 93.5517C40.4782 93.8904 40.375 94.3366 40.0342 94.5472C40.0342 94.5472 36.8622 96.6143 34.1424 97.3247C32.891 97.6531 31.7221 97.6593 30.8836 97.2628C30.5119 97.0873 29.6838 96.1662 28.6388 94.6008C25.6609 90.1484 20.0025 80.1593 15.2486 71.0253C11.6697 64.1484 8.6092 57.7548 7.41762 54.6385C7.02731 53.6183 6.83319 52.8707 6.80015 52.4804C6.76298 52.0405 6.84556 51.7184 6.93436 51.5099C7.00871 51.3343 7.13055 51.1112 7.34946 50.8758C7.61173 50.597 8.17965 50.1551 9.03461 49.6388C11.7502 48.0053 17.8176 45.0543 23.982 42.3366C30.1608 39.6106 36.4326 37.1241 39.4436 36.2712C40.4039 35.9987 41.0998 35.8933 41.4488 35.9284C41.8123 35.9635 42.0601 36.0916 42.2171 36.2279C42.6631 36.6182 43.547 38.1422 44.4577 40.0711C46.1738 43.7078 48.2142 48.7777 48.2142 48.7777C48.3732 49.1453 48.2039 49.5707 47.8363 49.7297C47.4707 49.8887 47.0433 49.7194 46.8863 49.3539C46.8863 49.3539 45.0773 45.4528 43.3591 42.1155C42.4525 40.3519 41.6079 38.7411 41.0895 38.0844ZM10.0383 52.627C10.1395 52.435 10.2861 52.1418 10.0713 52.1769C9.92469 52.2017 9.93914 52.371 10.0383 52.627Z" fill="#283E37"/>
<path fill-rule="evenodd" clip-rule="evenodd" d="M18.0325 56.8399C17.6732 57.0155 17.2395 56.8667 17.0639 56.5074C16.8884 56.148 17.0371 55.7144 17.3964 55.5388C17.3964 55.5388 20.1182 53.7628 23.724 51.646C24.5438 51.1649 25.4132 50.6817 26.3074 50.2026C26.8836 49.8949 27.466 49.5831 28.0628 49.3022C29.591 48.5835 31.1481 47.9412 32.5978 47.3547C36.4699 45.7935 39.5428 44.73 39.5428 44.73C39.9001 44.5544 40.3359 44.7031 40.5093 45.0624C40.6849 45.4218 40.5362 45.8554 40.1768 46.031C40.1768 46.031 37.4488 47.7987 33.8348 49.8907C32.4822 50.6734 31.018 51.5056 29.5104 52.2697C28.9219 52.5671 28.3189 52.8335 27.7221 53.0979C26.7928 53.5088 25.8779 53.8971 24.992 54.2481C21.1054 55.7887 18.0325 56.8399 18.0325 56.8399Z" fill="#283E37"/>
<path fill-rule="evenodd" clip-rule="evenodd" d="M21.7952 64.8011C21.4364 64.9778 21.0028 64.8278 20.8273 64.4684C20.6519 64.1091 20.8018 63.677 21.1597 63.4998C21.1597 63.4998 21.8812 62.718 23.0358 61.7799C23.286 61.5779 23.5506 61.3901 23.8403 61.2048C24.0226 61.0884 24.2075 60.9705 24.4082 60.884C24.9292 60.6566 25.4658 60.5139 25.9754 60.3854C27.4067 60.0298 28.4697 59.933 28.4697 59.933C28.8281 59.7576 29.2621 59.9063 29.4376 60.2657C29.6131 60.6251 29.4637 61.0589 29.1043 61.2338C29.1043 61.2338 28.3739 62.012 27.2128 62.9211C26.7997 63.2462 26.3565 63.5808 25.8563 63.8514C25.6648 63.955 25.4579 64.029 25.2542 64.1004C24.9299 64.2152 24.6189 64.3096 24.305 64.3814C22.856 64.7149 21.7952 64.8011 21.7952 64.8011Z" fill="#283E37"/>
<path fill-rule="evenodd" clip-rule="evenodd" d="M24.6546 71.051C24.2958 71.2277 23.8622 71.0777 23.6867 70.7183C23.5113 70.359 23.6612 69.9269 24.019 69.7497C24.019 69.7497 24.7406 68.9679 25.8952 68.0298C26.1453 67.8277 26.41 67.6399 26.6997 67.4547C26.8819 67.3382 27.0669 67.2205 27.2676 67.134C27.7886 66.9066 28.3252 66.7638 28.8347 66.6353C30.2661 66.2797 31.3291 66.183 31.3291 66.183C31.6875 66.0076 32.1215 66.1563 32.297 66.5157C32.4724 66.875 32.323 67.3088 31.9637 67.4837C31.9637 67.4837 31.2332 68.2619 30.0722 69.171C29.659 69.4961 29.2159 69.8307 28.7157 70.1013C28.5241 70.2049 28.3173 70.279 28.1136 70.3504C27.7893 70.4652 27.4783 70.5595 27.1644 70.6313C25.7154 70.9648 24.6546 71.051 24.6546 71.051Z" fill="#283E37"/>
<path fill-rule="evenodd" clip-rule="evenodd" d="M7.62552 88.5854C7.23108 88.6515 6.85728 88.3852 6.79326 87.9907C6.72718 87.5963 6.99358 87.2246 7.38802 87.1585C7.38802 87.1585 8.91417 86.508 11.1197 85.9752C11.605 85.8575 12.1172 85.7707 12.6562 85.6984C12.9948 85.653 13.3438 85.6117 13.6949 85.6097C14.5788 85.6035 15.4689 85.6984 16.3259 85.8554C17.852 86.1383 19.1902 86.5905 20.2166 87.1915C20.5904 87.3298 20.7845 87.7449 20.6482 88.1208C20.5098 88.4946 20.0947 88.6888 19.7189 88.5525C18.8701 88.412 17.8913 88.5153 16.7947 88.6144C16.3032 88.6578 15.8158 88.7238 15.3057 88.7734C14.8059 88.823 14.3082 88.8953 13.8085 88.9097C12.9597 88.9366 12.1357 88.8953 11.3716 88.8581C9.19708 88.7549 7.62552 88.5854 7.62552 88.5854Z" fill="#283E37"/>
<path fill-rule="evenodd" clip-rule="evenodd" d="M33.2428 116.303C32.8422 116.307 32.5159 115.985 32.5118 115.587C32.5076 115.186 32.8277 114.86 33.2284 114.856C33.2284 114.856 42.7713 114.354 54.9494 113.912C57.7373 113.811 60.6594 113.728 63.6394 113.66C65.5559 113.614 67.495 113.571 69.4342 113.561C74.3863 113.536 79.3385 113.592 83.921 113.656C96.1052 113.825 105.659 114.122 105.659 114.122C106.057 114.118 106.385 114.438 106.39 114.839C106.394 115.238 106.072 115.566 105.673 115.57C105.673 115.57 96.128 116.06 83.95 116.477C79.3695 116.634 74.4194 116.788 69.4672 116.863C67.5281 116.892 65.5889 116.888 63.6725 116.881C60.6925 116.873 57.7683 116.85 54.9783 116.805C42.794 116.611 33.2428 116.303 33.2428 116.303Z" fill="#283E37"/>
</g>
<defs>
<clipPath id="clip0_871_259">
<rect width="128" height="104.886" fill="white" transform="translate(0 12)"/>
</clipPath>
</defs>
</svg>
