<svg width="392" height="189" viewBox="0 0 392 189" fill="none" xmlns="http://www.w3.org/2000/svg">
<rect width="392" height="188.805" fill="#E6E3DE"/>
<path d="M163.041 49.9255C164.173 47.6316 172.373 51.1094 174.498 51.4929C178.789 52.2667 182.808 53.0994 187.165 53.3874C192.934 53.9509 199.487 54.562 204.507 57.7292C206.509 58.9929 208.697 61.6056 208.852 64.0388C219.524 64.0176 230.048 63.9564 240.699 64.7048C242.524 64.8329 250.88 64.4384 251.824 65.3474C253.272 68.252 252.813 85.2407 252.831 89.4724C252.843 92.1419 253.107 95.9007 253.183 98.6247C253.301 102.917 253.257 107.213 253.05 111.503C251.338 113.772 250.491 114.012 248.887 115.753C250.323 119.458 248.196 124.349 244.473 125.71C242.738 126.334 240.826 126.233 239.167 125.429C239.102 125.398 239.037 125.366 238.974 125.333C236.615 127.253 234.512 129.335 231.977 131.052C230.229 132.237 229.01 132.017 227 131.98C226.759 134.842 225.363 137.024 223.106 138.724C217.759 142.754 209.807 139.918 210.562 132.551C210.584 132.343 210.611 132.135 210.645 131.928C207.037 131.763 202.649 132.033 199.221 131.701C195.894 143.691 181.735 141.78 183.358 131.168C182.063 131.133 178.504 131.238 177.58 130.51C176.352 128.368 176.985 104.358 177.159 100.238C174.642 100.353 172.862 100.372 170.349 99.903C165.626 99.0216 160.955 96.2871 160.036 91.1911C160.006 91.0206 160.183 90.371 160.199 90.1052C156.604 88.2583 153.726 87.0337 152.34 82.78C152.187 82.3098 151.95 81.4188 152.035 80.906C152.077 80.6558 152.491 79.8658 152.399 79.7985C151.221 78.9383 149.007 77.7515 147.952 76.8356C145.84 75.0022 142.09 70.9198 143.526 67.8845C143.594 67.5182 144.774 66.4494 145.083 66.4851C146.892 66.6938 148.82 67.5021 150.63 67.9772C157.077 69.6698 163.543 70.555 170.179 71.0603C170.817 71.1089 173.49 71.6332 173.898 71.4606C173.483 70.8193 173.068 69.6048 173.102 68.821C173.107 68.7198 173.376 67.9474 173.331 67.9089C171.63 66.4749 169.51 65.641 168.594 63.3913C168.274 62.6431 167.397 59.6387 168.447 59.2399C169.387 59.606 169.594 61.6684 170.053 62.3845C172.345 65.9657 177.29 66.974 180.903 68.7624C178.548 69.959 177.125 69.2164 174.653 68.5007C175.051 69.4302 175.475 70.3141 175.911 71.2263C176.031 71.5068 176.082 71.7976 176.405 71.862C179.885 72.5538 182.667 73.3585 185.699 75.3054C190.247 71.7557 195.023 67.3925 199.827 64.3122C200.465 63.9034 206.2 64.0475 207.428 64.0407C202.731 54.5636 186.988 56.549 178.254 54.5095C175.739 53.9222 173.177 53.5431 170.72 52.6843C168.715 52.0961 166.118 50.9876 164.143 50.5759C166.412 55.7673 168.8 56.9653 173.914 59.2272C175.497 59.9277 182.135 61.7062 182.761 62.7028C182.663 62.8719 182.642 62.9326 182.405 62.9597C177.802 63.5222 172.81 61.3919 168.885 59.2487C166.322 57.849 161.462 53.1253 163.041 49.9255ZM219.89 126.258C211.815 127.188 210.015 137.581 217.6 138.295C219.947 137.942 221.742 137.177 223.214 135.179C224.285 133.741 224.728 131.93 224.441 130.159C224.234 128.941 223.666 127.83 222.642 127.103C221.836 126.539 220.873 126.244 219.89 126.258ZM190.935 137.481C198.867 135.397 198.535 124.879 191.583 125.87C183.647 127.842 183.554 138.431 190.935 137.481ZM218.308 129.217C219.743 129.159 221.026 129.51 221.559 131.007C221.82 131.755 221.765 132.578 221.405 133.284C220.863 134.36 220.095 134.756 219.013 135.107C214.982 135.675 214.168 130.639 218.308 129.217ZM191.427 128.515C191.877 128.548 192.313 128.689 192.698 128.925C195.302 130.504 193.958 133.996 191.074 134.593C186.734 134.067 187.501 129.348 191.427 128.515ZM218.578 130.976C217.066 131.763 216.681 132.947 218.611 133.479C219.756 132.909 220.249 131.29 218.935 131.015C218.818 130.99 218.698 130.977 218.578 130.976ZM191.181 130.258C189.919 131.158 189.466 132.173 191.209 132.891C192.029 132.366 192.728 130.91 191.655 130.3L191.181 130.258ZM145.426 68.6638C145.602 70.5498 146.745 71.8965 147.937 73.2243C151.483 77.1713 156.406 79.0397 161.428 80.2731C163.157 80.6978 168.829 81.5514 169.826 82.7243C169.848 83.6301 167.252 83.5652 166.577 83.5329C161.89 83.3084 157.626 81.9058 153.294 80.2614C154.453 83.5783 155.594 85.2161 158.854 86.8249C161.048 87.9073 164.348 88.7089 166.757 89.3171C169.246 89.9455 170.709 89.8568 173.041 91.1618C171.013 92.5659 168.837 92.1995 166.472 91.7731C164.709 91.4486 162.981 90.9547 161.312 90.2985C163.214 94.064 164.662 95.633 168.627 96.9646C173.776 98.6938 177.799 97.9109 182.82 96.5837C183.251 96.47 184.127 96.4612 184.484 96.8337C184.516 98.3421 179.851 99.6894 178.66 100.001C179.058 107.535 179.567 114.925 179.366 122.493C179.31 124.619 179.361 127.368 179.146 129.425C180.309 129.279 182.759 129.153 183.908 129.302C185.573 126.697 187.437 124.557 190.599 123.823C194.645 122.884 198.403 125.237 199.253 129.326C199.289 129.499 199.316 129.674 199.335 129.85C201.889 129.38 208.511 129.449 211.379 129.447C212.159 127.93 213.002 126.742 214.354 125.671C219.239 122.362 225.317 123.915 226.954 129.9C227.964 129.811 228.629 129.838 229.648 129.878C229.379 128.366 229.464 125.976 229.472 124.407C229.503 118.091 228.965 111.796 229.151 105.482C229.192 104.087 229.223 102.681 229.243 101.286L229.499 84.8874C223.623 85.3025 217.357 84.8035 211.442 84.8415C211.622 86.1782 211.591 87.6976 211.572 89.0622C211.53 92.1127 211.487 95.1692 211.403 98.2194C211.386 98.8398 211.061 99.606 210.315 99.6843C209.235 99.6802 207.809 98.1812 207.025 97.4851C204.523 100.589 204.25 99.948 201.854 97.2312C201.202 97.9341 200.195 99.1566 199.332 99.4812C197.154 99.135 198.035 86.579 198.103 84.5485C196.07 84.4604 194.036 84.3898 192.002 84.3366C192.346 85.9952 192.633 87.6529 192.185 89.3278C191.951 90.2036 191.72 92.3731 190.913 92.7604C190.026 92.2558 190.676 89.5768 190.632 88.5388C190.055 75.0585 176.031 74.1164 165.649 73.2058C162.102 72.8844 158.292 72.2685 155.068 71.5837C153.326 71.223 151.607 70.7545 149.923 70.1813C148.789 69.7852 146.475 68.8129 145.426 68.6638ZM239.699 77.528C236.517 80.176 234.092 82.2777 230.734 84.7194C231.42 92.1727 231.517 98.7074 231.616 106.208C231.716 113.814 232.103 121.495 231.508 129.109C231.593 129.1 231.68 129.09 231.766 129.081C232.747 128.064 234.431 126.263 235.34 125.345C238.933 121.76 242.635 118.284 246.438 114.922C247.838 113.672 249.47 112.14 250.893 110.949C250.562 108.439 250.943 105.196 250.84 102.603C250.703 99.2069 250.503 95.7672 250.427 92.3747C250.353 87.6989 250.398 83.0218 250.563 78.3483C250.592 77.4118 250.741 68.6839 250.609 68.445L239.699 77.528ZM246.929 117.578C246.126 118.341 240.941 123.023 240.633 123.646L240.763 123.816C242.48 123.856 243.375 123.982 244.794 122.774C245.644 122.05 247.864 118.537 246.929 117.578ZM164.072 119.802C165.73 119.717 171.401 119.438 172.291 120.179C175.069 122.497 166.472 121.944 165.976 121.941C164.236 121.947 162.49 122.005 160.751 121.992C159.931 121.986 157.092 122.046 157.594 120.67C158.566 119.789 162.534 119.857 164.072 119.802ZM140.661 119.874C142.073 119.848 146.226 119.642 147.16 120.542C147.31 121.312 146.583 121.474 145.983 121.638C145.48 121.704 144.973 121.747 144.466 121.767C143.053 121.821 140.14 122.053 139.139 121.125C138.961 120.696 138.974 120.875 139.065 120.446C139.323 120.128 139.82 120.023 140.224 119.892C140.37 119.883 140.515 119.877 140.661 119.874ZM155.069 112.813C156.819 112.586 164.427 112.1 165.698 113.092C165.879 113.234 165.954 113.382 166.016 113.598C165.717 114.6 164.211 114.698 163.324 114.662C161.033 114.569 158.018 114.966 155.796 114.644C154.788 114.639 150.959 114.812 150.687 113.587C151.249 112.778 154.069 112.839 155.069 112.813ZM248.27 107.864C248.368 108.101 248.498 108.36 248.373 108.623C247.767 109.888 244.884 111.892 243.801 112.5L243.589 112.398C243.103 111.032 246.949 108.241 247.974 107.633L248.27 107.864ZM248.266 103.117C250.481 104.512 243.995 108.031 243.073 108.477L242.849 108.426C242.736 108.255 242.627 108.166 242.717 107.944C243.259 106.596 247.156 103.804 248.266 103.117ZM168.531 105.38C169.559 105.349 171.952 105.299 172.616 106.176C172.581 107.684 168.919 107.484 167.8 107.514C165.783 107.539 159.076 107.845 157.577 107.203C157.235 107.056 157.085 106.886 156.953 106.55C157.117 106.012 157.31 105.852 157.879 105.752C159.203 105.517 160.729 105.52 162.068 105.467C164.157 105.305 166.423 105.442 168.531 105.38ZM146.162 105.561C147.343 105.503 151.827 105.137 152.443 106.3C152.367 107.078 151.742 107.168 151.093 107.326C149.739 107.339 145.186 107.841 144.648 106.587C144.662 106.137 144.612 106.313 144.853 105.918C145.205 105.656 145.715 105.631 146.162 105.561ZM199.692 84.6794C199.731 87.298 199.746 89.9169 199.738 92.5358C199.736 93.5671 199.763 95.8398 199.637 96.8132C200.451 96.1461 201.092 95.5782 202.079 95.1696C202.984 95.7909 203.851 96.5411 204.697 97.2468C205.499 96.3795 206.236 95.0548 207.476 95.4753C208.214 95.9315 208.69 96.2782 209.379 96.8044C209.102 93.4559 209.271 88.1557 209.588 84.822C206.798 84.8038 202.39 84.8847 199.692 84.6794ZM229.775 66.695C227.868 68.361 226.145 70.2806 224.299 72.0163C222.516 73.6923 220.625 75.2425 218.858 76.9401C217.048 78.6797 215.169 80.9244 213.25 82.4919C216.232 82.5649 227.456 82.8113 229.788 83.7419C230.188 83.3434 230.622 82.9273 231.008 82.5202C234.437 78.6768 238.733 75.2038 242.688 71.904C244.319 70.5432 246.962 67.8905 248.581 66.7829C245.769 67.1325 242.305 66.7014 239.43 66.7185C236.185 66.7378 233.024 66.7691 229.775 66.695ZM201.351 82.5622C203.768 82.4387 206.714 82.4367 209.156 82.444L210.666 82.4597C215.892 76.4294 221.17 72.047 226.898 66.571C224.29 66.5109 221.774 66.433 219.162 66.447L201.351 82.5622ZM200.205 65.8122C198.056 67.9034 195.873 69.7261 193.54 71.611C191.663 73.1271 189.174 75.37 187.016 76.4392C189.177 78.0269 190.402 80.1356 191.602 82.4919C193.982 82.5072 196.486 82.5493 198.856 82.4479C199.677 81.6823 200.483 80.901 201.273 80.1042C205.092 76.5189 208.892 72.9028 212.921 69.5573C214.133 68.5512 215.677 67.1169 216.896 66.2048C212.827 66.4744 208.341 65.8428 204.226 65.9479C202.914 65.9814 201.523 65.8084 200.205 65.8122Z" fill="#696565"/>
</svg>
