<svg preserveAspectRatio="none" width="100%" height="100%" overflow="visible" style="display: block;" viewBox="0 0 64 44.2184" fill="none" xmlns="http://www.w3.org/2000/svg">
<g id="vectorly-UNI-book">
<path id="path5266" fill-rule="evenodd" clip-rule="evenodd" d="M1.53515 36.4554C3.59549 36.904 9.39985 38.0162 13.9051 38.9977C16.4446 39.5491 18.5785 40.0726 19.4506 40.3904C20.0236 40.3998 22.6716 40.4559 26.0823 40.6615C28.1442 40.7924 30.4856 40.9699 32.8149 41.2409C36.0293 41.6148 39.2194 42.157 41.644 42.858C41.7776 42.8207 42.2665 42.6711 42.7039 42.4842C43.9489 41.942 45.8707 40.9698 48.0569 39.8108C54.3539 36.4926 62.8008 31.707 63.5448 31.3985C63.7111 31.3331 63.9037 31.4079 63.9738 31.5762C64.0448 31.7444 63.9663 31.9313 63.7999 32.0061C62.9755 32.3706 52.6229 38.6986 46.4146 42.0729C44.534 43.0917 43.0217 43.8394 42.2469 44.1011C41.8206 44.2413 41.5122 44.2319 41.3617 44.1945C38.9792 43.5309 35.8208 43.073 32.6475 42.7178C30.3407 42.4655 28.0255 42.2691 25.986 42.1289C22.1594 41.8578 19.3029 41.755 19.3029 41.755C19.2169 41.755 19.1319 41.7364 19.0524 41.699C18.5084 41.4653 17.1802 41.1008 15.48 40.6615C10.1477 39.2969 1.2524 37.3245 0.532969 37.0534C0.044965 36.8665 -0.0175651 36.5675 0.0034656 36.4086C0.0207575 36.2778 0.0960953 36.1188 0.283127 35.9973C0.493901 35.8665 0.955263 35.7636 1.2696 35.6981L1.27979 35.1094C1.27979 34.9785 1.34437 34.8663 1.45102 34.8009L3.42903 33.5951C3.58185 33.5016 3.7843 33.5391 3.88095 33.698C3.97759 33.8476 3.93198 34.0531 3.77916 34.1466L2.01857 35.3056L2.031 36.0253C2.031 36.2122 1.8922 36.3711 1.70451 36.3991L1.53515 36.4554Z" fill="var(--fill-0, #283E37)"/>
<path id="path5268" fill-rule="evenodd" clip-rule="evenodd" d="M62.5474 29.3115C62.5474 29.1339 62.6942 28.9844 62.8755 28.9844C63.0559 28.9844 63.2026 29.1339 63.2026 29.3115C63.2026 29.3115 63.3727 29.6387 63.5298 30.1527C63.5625 30.2649 63.5868 30.377 63.6046 30.4892C63.6158 30.564 63.627 30.6388 63.6223 30.7229C63.6111 30.9192 63.5634 31.1061 63.5139 31.2837C63.369 31.7978 63.2026 32.1249 63.2026 32.1249C63.2026 32.3025 63.0559 32.4521 62.8755 32.4521C62.6942 32.4521 62.5474 32.3025 62.5474 32.1249C62.5474 32.1249 62.381 31.7978 62.2371 31.2837C62.1876 31.1061 62.139 30.9192 62.1277 30.7229C62.124 30.6388 62.1343 30.564 62.1455 30.4892C62.1642 30.377 62.1876 30.2649 62.2203 30.1527C62.3773 29.6387 62.5474 29.3115 62.5474 29.3115Z" fill="var(--fill-0, #283E37)"/>
<path id="path5270" fill-rule="evenodd" clip-rule="evenodd" d="M20.0904 40.1131C20.2268 40.2253 20.2399 40.4403 20.1203 40.5712C20.0007 40.7114 19.7932 40.7206 19.6576 40.5991C19.3239 40.3374 17.9546 39.7298 15.9703 39.0101C15.1935 38.7297 14.3261 38.4401 13.389 38.141C12.7001 37.9166 11.9739 37.7017 11.2229 37.4774C10.5193 37.2624 9.79483 37.0473 9.05203 36.8417C7.86525 36.5146 6.63912 36.1968 5.38672 35.9537C4.14816 35.7107 2.89791 35.5145 1.64412 35.4303C1.46335 35.4303 1.31828 35.2808 1.32033 35.1032C1.32248 34.9163 1.47101 34.7761 1.65178 34.7761C3.5951 34.6919 5.56973 34.8134 7.47716 35.1125C8.79471 35.3181 10.0771 35.5893 11.2824 35.9351C11.7924 36.0847 12.2855 36.2435 12.7632 36.4211C13.5328 36.6921 14.2607 36.9725 14.9356 37.2716C17.7639 38.4961 19.6987 39.7206 20.0904 40.1131Z" fill="var(--fill-0, #283E37)"/>
<path id="path5272" fill-rule="evenodd" clip-rule="evenodd" d="M3.03231 33.1842C4.06944 33.3244 5.04499 33.4738 5.96276 33.642C6.96391 33.8289 7.89571 34.0253 8.76058 34.2309C9.58703 34.4366 10.3522 34.6609 11.0614 34.8759C11.8889 35.1376 12.6389 35.4087 13.3213 35.6797C14.4804 36.1377 15.4413 36.5864 16.2405 37.0164C18.9744 38.4839 19.8446 39.6709 20.0774 40.0542C20.1194 40.1196 20.1447 40.1663 20.1559 40.1944C20.3213 40.5402 19.8746 40.6896 19.8746 40.6896C19.8746 40.6896 19.8512 40.6897 19.8157 40.6803C19.7157 40.671 19.6306 40.6055 19.5848 40.512C19.5829 40.512 19.5811 40.512 19.5801 40.512C19.5717 40.4933 19.553 40.4654 19.524 40.428C19.2483 40.0635 18.1099 38.9138 14.6814 37.5958C13.6233 37.1846 12.3515 36.7733 10.8268 36.334C10.0238 36.1097 9.15193 35.876 8.20584 35.6237C7.38228 35.4087 6.50498 35.1843 5.56449 34.9506C4.33677 34.6515 3.0096 34.3431 1.56166 34.044C1.25163 33.9786 1.13834 33.8009 1.10432 33.642C1.07833 33.5205 1.05786 33.343 1.2048 33.156C1.26144 33.0906 1.40313 32.9598 1.64363 32.8289C2.28904 32.4737 3.83157 31.8288 5.268 31.2399C5.43232 31.1651 5.62702 31.24 5.70254 31.4082C5.77806 31.5671 5.70591 31.7634 5.54168 31.8382C4.65765 32.2962 3.73109 32.7822 3.03231 33.1842Z" fill="var(--fill-0, #283E37)"/>
<path id="path5274" fill-rule="evenodd" clip-rule="evenodd" d="M3.32758 30.3367C4.25592 30.5049 5.13836 30.7011 5.97407 30.9254C8.33295 31.561 10.3331 32.3648 12.0178 33.2247C18.1735 36.3653 20.1569 40.207 20.1569 40.207C20.2466 40.3566 20.1915 40.5621 20.0345 40.6462C19.8775 40.7397 19.6774 40.6837 19.5877 40.5248C19.5877 40.5248 17.8837 37.8235 13.3074 35.3092C11.4845 34.309 9.20568 33.3557 6.39777 32.5799C4.92534 32.1687 3.31272 31.7854 1.53465 31.505C1.20769 31.4489 1.04001 31.2807 0.951491 31.1312C0.831945 30.9349 0.769507 30.6918 0.90373 30.3927C0.945323 30.3086 1.01823 30.1871 1.15357 30.0563C1.34397 29.8787 1.76224 29.6075 2.36437 29.2804C3.76548 28.5139 6.23466 27.3735 8.77806 26.2612C11.1593 25.2144 13.6029 24.2051 15.2685 23.5134C15.433 23.4386 15.6274 23.5133 15.7012 23.6815C15.776 23.8498 15.7022 24.0367 15.5367 24.1114C13.9197 24.9059 11.5552 26.0743 9.23708 27.2427C6.9483 28.3923 4.71251 29.5328 3.32758 30.3367Z" fill="var(--fill-0, #283E37)"/>
<path id="path5276" fill-rule="evenodd" clip-rule="evenodd" d="M19.8884 40.6845C19.708 40.6938 19.5547 40.5537 19.5472 40.3761C19.5388 40.1892 19.679 40.0395 19.8594 40.0302C19.8594 40.0302 22.5756 39.7311 26.3387 39.6096C27.1612 39.5815 28.0324 39.5723 28.9362 39.5816C29.5036 39.5816 30.0831 39.5908 30.6691 39.6189C32.0871 39.6843 33.548 39.8152 34.9912 39.9835C37.2569 40.2545 39.4665 40.6564 41.405 41.1611C41.5826 41.1892 41.6967 41.3669 41.6602 41.5445C41.6238 41.7221 41.4499 41.8342 41.2732 41.7968C39.3291 41.4977 37.1269 41.3574 34.8865 41.2546C33.6863 41.2079 32.4787 41.1706 31.2945 41.1332C30.4803 41.1052 29.6774 41.0678 28.8988 41.0397C27.6174 40.9837 26.4013 40.9182 25.2993 40.8714C22.1074 40.7406 19.8884 40.6845 19.8884 40.6845Z" fill="var(--fill-0, #283E37)"/>
<path id="path5278" fill-rule="evenodd" clip-rule="evenodd" d="M20.1642 40.5156C20.1081 40.6278 19.995 40.6932 19.8744 40.6932C19.8408 40.6932 19.8062 40.6839 19.7725 40.6746C19.6005 40.6185 19.5071 40.4315 19.5632 40.2633C19.5632 40.2633 19.6884 39.5249 22.1878 38.9921C23.0645 38.8052 24.2572 38.6276 25.891 38.5341C26.622 38.4874 27.4398 38.4688 28.3567 38.4688C29.1568 38.4688 30.0317 38.4966 30.9879 38.5527C31.8011 38.5995 32.6713 38.6836 33.6041 38.7864C34.8005 38.9173 36.0951 39.0949 37.5037 39.3005C38.7141 39.4874 39.9993 39.7024 41.3789 39.9455C41.5584 39.9642 41.6864 40.1324 41.664 40.31C41.6425 40.4876 41.4789 40.6185 41.2995 40.5904C39.2936 40.4502 37.4822 40.3568 35.8343 40.2633C34.5164 40.1979 33.3087 40.1417 32.2002 40.095C31.3356 40.0576 30.5318 40.0203 29.785 39.9829C28.3932 39.9081 27.1996 39.8521 26.1733 39.8334C22.7252 39.7492 21.2082 40.011 20.5399 40.3007C20.3202 40.3942 20.2137 40.4595 20.1735 40.5063C20.1707 40.5063 20.1679 40.5156 20.1642 40.5156Z" fill="var(--fill-0, #283E37)"/>
<path id="path5280" fill-rule="evenodd" clip-rule="evenodd" d="M43.1223 40.0472C42.9625 40.1314 42.7634 40.0659 42.6802 39.907C42.5961 39.7481 42.6578 39.5517 42.8176 39.4676C42.8176 39.4676 46.0133 37.6075 49.8502 35.4577C51.3775 34.5978 53.0048 33.6912 54.5732 32.8406C55.6818 32.2424 56.7614 31.6722 57.7531 31.1581C58.6934 30.6814 59.5514 30.2422 60.2749 29.887L53.4058 29.7188C53.2245 29.7188 53.0768 29.5693 53.0749 29.3917C53.074 29.2141 53.2189 29.0646 53.4002 29.0646L62.8696 28.6719C63.1631 28.6719 63.4201 28.8683 63.4912 29.158C63.5631 29.4384 63.4304 29.7375 63.1706 29.8777C63.1706 29.8777 61.1862 31.0087 58.442 32.4762C57.4596 32.9996 56.3753 33.5603 55.2528 34.1398C53.6629 34.9437 51.9944 35.7663 50.4204 36.5421C46.4676 38.4769 43.1223 40.0472 43.1223 40.0472Z" fill="var(--fill-0, #283E37)"/>
<path id="path5282" fill-rule="evenodd" clip-rule="evenodd" d="M19.655 40.1231C19.655 40.1231 21.802 38.1603 28.229 34.5056C31.5378 32.6175 35.9869 30.2901 41.8671 27.5421C45.6003 25.8129 52.8282 24.8595 57.2391 24.6072C59.0757 24.5043 60.4432 24.5417 60.9217 24.6539C61.3396 24.7474 61.5199 24.9904 61.5882 25.1212C61.7181 25.3736 61.8349 25.9343 61.1096 26.2615C59.9235 26.8036 51.0084 31.5145 45.6189 34.0569C44.2674 34.6925 43.1317 35.1879 42.3905 35.4589C41.869 35.6552 41.496 35.7394 41.3212 35.73C37.031 35.5711 33.3483 35.9823 30.3105 36.6366C23.6265 38.0667 20.0682 40.6279 20.0682 40.6279C19.928 40.7307 19.7289 40.712 19.6186 40.5718C19.5073 40.441 19.5242 40.2353 19.655 40.1231ZM25.2753 37.2069C26.6409 36.6741 28.2505 36.1506 30.0974 35.7019C33.1922 34.9542 36.9553 34.4402 41.3539 34.5056C41.4979 34.5056 41.8334 34.356 42.3326 34.141C43.4196 33.683 45.0871 32.8605 46.9836 31.9071C50.785 29.9816 55.4884 27.4954 58.2597 26.0466C55.9043 26.112 52.3207 26.4112 48.9455 26.972C46.4443 27.3926 44.0561 27.944 42.3858 28.6824C36.4786 31.2902 32.0061 33.5055 28.6711 35.3001C27.3709 36.0011 26.2446 36.6368 25.2753 37.2069Z" fill="var(--fill-0, #283E37)"/>
<path id="path5284" fill-rule="evenodd" clip-rule="evenodd" d="M52.6739 14.933C50.9887 15.6433 48.4996 16.7183 45.8656 17.8586C43.8495 18.7279 41.7502 19.6345 39.8593 20.457C36.7122 21.831 34.1502 22.962 33.6006 23.3359C30.3759 25.5044 27.7737 28.271 25.7407 30.9349C21.9833 35.8701 20.1821 40.4783 20.1821 40.4783C20.1195 40.6465 19.9316 40.74 19.7615 40.6745C19.5923 40.6091 19.5045 40.4222 19.5671 40.2539C19.5671 40.2539 21.2121 35.4682 24.8864 30.3087C26.9035 27.4766 29.5375 24.5417 32.8173 22.205C33.5024 21.7283 37.216 19.9803 41.409 18.1577C43.1158 17.4099 44.9038 16.6622 46.59 15.9611C50.6727 14.2787 54.1694 12.9234 54.5704 12.858C55.0107 12.7832 55.2126 13.0168 55.3079 13.2224C55.3612 13.3346 55.4462 13.6057 55.2275 13.9422C55.0817 14.1759 54.6433 14.6526 53.9965 15.3069C52.0963 17.223 48.3323 20.7842 45.703 23.8593C44.3206 25.4763 43.2457 26.9438 42.9699 27.972C42.926 28.1496 42.7475 28.2524 42.5727 28.2057C42.397 28.1683 42.2904 27.9814 42.3344 27.8132C42.7437 26.0466 45.2656 22.9246 47.9154 19.9896C49.6539 18.0735 51.4401 16.2415 52.6739 14.933Z" fill="var(--fill-0, #283E37)"/>
<path id="path5286" fill-rule="evenodd" clip-rule="evenodd" d="M34.8007 7.81123C33.6566 8.27858 27.8718 10.3535 22.4085 12.3817C19.209 13.5688 16.1189 14.7279 14.1729 15.5878C13.614 15.8308 12.9811 16.0271 12.6368 16.1954C13.8308 18.6349 14.8459 20.8595 15.6955 22.8785C16.8714 25.6825 17.7406 28.0941 18.3884 30.1598C20.6896 37.4878 20.1989 40.4133 20.1989 40.4133C20.1736 40.5909 20.0073 40.7124 19.8287 40.6937C19.6493 40.6657 19.525 40.4974 19.5502 40.3198C19.5502 40.3198 19.8717 37.4971 17.406 30.4869C16.6975 28.4773 15.7572 26.1219 14.5244 23.3925C13.5869 21.3082 12.4858 19.0088 11.1726 16.4851C11.0626 16.2701 11.0369 16.0178 11.1854 15.728C11.2555 15.5972 11.4186 15.4009 11.7098 15.2046C12.3429 14.7653 13.8729 14.0642 15.8787 13.2697C18.5043 12.2229 21.9589 10.9985 25.1855 9.88618C29.8599 8.26916 34.0548 6.92313 34.4838 6.72684C34.7334 6.61468 35.0689 6.61479 35.4325 6.88585C35.9606 7.28777 36.7617 8.53095 37.5618 10.1947C38.8675 12.9053 40.2574 16.7187 40.7229 19.3452C40.7575 19.5228 40.6416 19.7006 40.464 19.7286C40.2864 19.766 40.1144 19.6537 40.0798 19.4761C39.691 17.6535 38.8152 15.2513 37.8515 13.0828C36.9804 11.1199 36.0354 9.34399 35.3054 8.36256C35.139 8.13823 34.9091 7.91405 34.8007 7.81123ZM12.515 16.2702C12.3935 16.345 12.3452 16.4103 12.4069 16.4851C12.4831 16.5692 12.5045 16.373 12.515 16.2702ZM34.967 7.74569C34.967 7.74569 34.967 7.74569 34.968 7.74569H34.967Z" fill="var(--fill-0, #283E37)"/>
<path id="path5288" fill-rule="evenodd" clip-rule="evenodd" d="M3.4896 16.3463C3.30883 16.3369 3.1675 16.1874 3.17405 16.0098C3.18059 15.8229 3.33257 15.6826 3.51325 15.692C3.51325 15.692 4.05611 15.636 4.90958 15.7108C5.31431 15.7482 5.77754 15.823 6.28517 15.9445C6.63082 16.0379 6.98853 16.1595 7.354 16.309C7.58094 16.4025 7.81088 16.5146 8.03315 16.6455C8.55031 16.9539 9.05243 17.3558 9.50744 17.8418C10.1057 18.4774 10.6137 19.2533 11.0022 20.2066C11.0901 20.3655 11.0331 20.5618 10.8751 20.6459C10.7171 20.7394 10.5175 20.6834 10.4296 20.5245C10.0789 20.0478 9.68989 19.6552 9.29321 19.3001C8.86886 18.9168 8.42357 18.6176 7.98379 18.3466C7.70217 18.169 7.42055 18.0101 7.14836 17.8606C6.85263 17.6924 6.56998 17.5334 6.29209 17.4026C5.90597 17.2063 5.54723 17.038 5.21093 16.8978C4.20455 16.4959 3.4896 16.3463 3.4896 16.3463Z" fill="var(--fill-0, #283E37)"/>
<path id="path5290" fill-rule="evenodd" clip-rule="evenodd" d="M21.6071 7.49832C21.4492 7.40485 21.3931 7.2085 21.481 7.0496C21.5698 6.8907 21.7698 6.83473 21.9277 6.9282C21.9277 6.9282 22.8849 7.25534 24.0196 8.0031C24.2729 8.162 24.5253 8.35824 24.7767 8.57322C24.9356 8.70408 25.0945 8.85356 25.2394 9.01246C25.5964 9.40503 25.9123 9.85383 26.1666 10.3305C26.5545 11.0689 26.7994 11.854 26.833 12.6859C26.8657 12.8635 26.747 13.0317 26.5694 13.0598C26.3909 13.0972 26.2208 12.9756 26.1881 12.798C25.9722 12.1343 25.5581 11.583 25.1048 11.0409C24.8533 10.7418 24.5757 10.4707 24.3084 10.1996C24.1233 10.0033 23.9457 9.81644 23.771 9.6295C23.4775 9.32105 23.2045 9.02188 22.9428 8.76016C22.181 7.99371 21.6071 7.49832 21.6071 7.49832Z" fill="var(--fill-0, #283E37)"/>
<path id="path5292" fill-rule="evenodd" clip-rule="evenodd" d="M23.3 0.618543C23.1402 0.53442 23.0785 0.328714 23.1626 0.169816C23.2468 0.0109177 23.4449 -0.0452005 23.6057 0.0389221C23.6057 0.0389221 25.418 0.786752 27.4248 2.63745C27.8548 3.03937 28.2847 3.48799 28.7054 4.00207C28.9624 4.31052 29.2176 4.63763 29.4531 4.99281C29.9906 5.81534 30.4682 6.74076 30.8505 7.77828C31.3449 9.11489 31.6627 10.6198 31.7581 12.3022C31.7814 12.4798 31.6543 12.6388 31.4749 12.6668C31.2954 12.6855 31.1309 12.564 31.1085 12.3864C30.801 10.8348 30.2728 9.48881 29.6774 8.28305C29.2288 7.37639 28.7166 6.57245 28.2128 5.83404C27.6323 4.97412 27.0538 4.20781 26.4836 3.55352C24.8039 1.6187 23.3 0.618543 23.3 0.618543Z" fill="var(--fill-0, #283E37)"/>
<path id="path5294" fill-rule="evenodd" clip-rule="evenodd" d="M43.6318 13.6494C43.5318 13.8083 43.328 13.8457 43.1775 13.7429C43.027 13.6494 42.9859 13.4437 43.0859 13.2941C43.0859 13.2941 43.5093 12.5091 44.4814 11.5931C44.9422 11.1538 45.5255 10.6863 46.2471 10.275C46.7247 9.9946 47.264 9.74238 47.8641 9.53674C48.223 9.40589 48.6043 9.30303 49.0091 9.21891C49.8858 9.06001 50.8654 9.00382 51.9384 9.10664C53.1965 9.22815 54.5733 9.56471 56.0922 10.1629C56.2651 10.219 56.3614 10.406 56.3072 10.5742C56.2539 10.7518 56.0697 10.8452 55.8978 10.7891C54.4022 10.4433 53.0778 10.3593 51.8898 10.378C50.9327 10.3967 50.0802 10.5274 49.3035 10.6863C48.3632 10.8826 47.5425 11.1349 46.8387 11.4434C44.7188 12.3687 43.6318 13.6494 43.6318 13.6494Z" fill="var(--fill-0, #283E37)"/>
</g>
</svg>
