<svg width="80" height="80" viewBox="0 0 64 64" fill="none" xmlns="http://www.w3.org/2000/svg">
<g clip-path="url(#clip0_871_94)">
<path fill-rule="evenodd" clip-rule="evenodd" d="M33.8539 36.5704C33.6439 36.6056 33.4448 36.4648 33.4097 36.2548C33.3745 36.0447 33.5163 35.8457 33.7264 35.8105C33.7264 35.8105 35.7784 35.2486 38.4353 34.6316C39.0412 34.4909 39.6768 34.3556 40.3289 34.2258C40.7479 34.1411 41.1713 34.0576 41.598 33.9916C42.6889 33.8211 43.7842 33.6946 44.8003 33.5847C47.5099 33.29 49.6334 33.146 49.6334 33.146C49.8423 33.1108 50.0414 33.2526 50.0766 33.4627C50.1118 33.6716 49.9699 33.8706 49.7599 33.9058C49.7599 33.9058 47.7068 34.4623 45.0488 35.066C44.0525 35.2926 42.9759 35.5301 41.8883 35.7259C41.4638 35.8017 41.036 35.86 40.6126 35.9183C39.9539 36.0074 39.3084 36.0866 38.6893 36.1515C35.9763 36.4341 33.8539 36.5704 33.8539 36.5704Z" fill="#696565"/>
<path fill-rule="evenodd" clip-rule="evenodd" d="M49.0722 19.0979C49.1195 18.8868 49.2009 18.5019 49.2449 18.1841C49.39 17.1119 49.5275 15.7065 49.8222 14.7366C50.0389 14.0207 50.3776 13.5104 50.7559 13.2861C51.463 12.8693 56.0399 11.7674 59.4676 11.2714C61.0336 11.0449 62.3653 10.9503 63.0097 11.0636C63.3528 11.1241 63.5815 11.2539 63.7091 11.3836C63.7806 11.4562 63.8609 11.564 63.9126 11.7267C63.9719 11.9082 64.0115 12.2744 63.9972 12.7989C63.9543 14.333 63.5496 17.5496 62.9635 21.3677C61.7429 29.3174 59.7447 39.8866 58.7066 43.1967C58.6439 43.4001 58.4284 43.5156 58.2249 43.454C58.0215 43.3913 57.9071 43.1758 57.9687 42.9723C58.6989 40.4892 59.8866 33.9284 60.8917 27.4622C61.7847 21.7175 62.5313 16.0474 62.6666 13.3807C62.6864 13.0024 62.6776 12.612 62.6688 12.3723C62.5082 12.3602 62.274 12.348 62.0585 12.3568C60.9016 12.4085 59.0816 12.7088 57.2671 13.0783C54.6454 13.6105 52.0271 14.2692 51.5278 14.5738C51.4652 14.6123 51.4454 14.7058 51.4025 14.8048C51.298 15.0467 51.2188 15.3546 51.1506 15.6933C50.934 16.7732 50.8471 18.1347 50.7042 19.0122C50.6173 19.5467 50.4787 19.9436 50.3424 20.1405C50.2786 20.2328 50.0861 20.4253 49.6935 20.5606C49.2625 20.709 48.3409 20.9268 47.0785 21.1841C41.5921 22.3003 29.4383 24.2918 24.2445 25.5279C23.555 25.6917 22.7643 25.7588 22.4003 25.8918C22.408 25.8688 22.4146 25.8512 22.419 25.8413C22.4135 25.8545 22.4069 25.871 22.4003 25.8918C22.2409 25.9501 22.1639 26.0206 22.2134 26.1184C22.275 26.2383 22.3508 26.0349 22.3937 25.9128C22.0649 26.9487 20.6177 35.2458 19.6786 42.484C19.2123 46.0723 18.8714 49.4011 18.8769 51.4675C18.8791 52.0041 18.9011 52.4484 18.9561 52.7794C18.9649 52.8343 18.9792 52.8949 18.9935 52.9476C19.2156 52.9421 19.5774 52.8871 20.058 52.8245C22.6862 52.477 28.1231 51.3597 34.0548 50.0521C44.1709 47.8231 55.7177 45.0409 57.2231 44.4932C57.4222 44.4184 57.6443 44.5196 57.7191 44.7186C57.7939 44.9177 57.6927 45.1398 57.4937 45.2146C55.7957 45.8689 41.2512 49.6584 30.4479 52.1558C25.7742 53.2368 21.7977 54.0726 19.8534 54.3233C19.0781 54.4234 18.5602 54.407 18.3545 54.3443C18.0642 54.2552 17.7299 53.9714 17.5617 53.371C17.3154 52.4956 17.3131 50.5228 17.4979 47.9946C17.8894 42.6677 19.0408 34.762 19.8754 29.8243C20.3142 27.2334 20.6892 25.4321 20.8091 25.1506C20.885 24.9747 21.1676 24.6294 21.7988 24.3941C22.6598 24.0707 24.5458 23.6287 26.9596 23.1493C33.1729 21.9165 42.9634 20.367 47.3226 19.4916C48.1166 19.3322 48.7203 19.2013 49.0722 19.0979Z" fill="#696565"/>
<path fill-rule="evenodd" clip-rule="evenodd" d="M19.2719 19.8952C19.1575 20.5473 19.2389 22.1452 19.3588 24.0476C19.6447 28.6114 20.3133 34.8059 20.3133 34.8059C20.3419 35.0171 20.1946 35.2107 19.9834 35.2393C19.7723 35.2679 19.5787 35.1205 19.5501 34.9094C19.5501 34.9094 18.5406 28.7291 18.0392 24.1609C17.8709 22.6291 17.7642 21.2775 17.7598 20.3878C17.7576 19.8534 17.8071 19.4575 17.8753 19.2398C17.9259 19.0803 18.0447 18.8912 18.2756 18.712C18.4592 18.5712 18.7771 18.4074 19.2213 18.2391C20.3056 17.8311 22.2906 17.3241 24.7836 16.8073C25.9229 16.5708 27.1699 16.3289 28.4862 16.1013C31.5005 15.5789 34.8732 15.0796 38.1239 14.6463C45.2015 13.7017 51.6941 13.0617 52.664 13.0167C52.8763 13.0013 53.061 13.1607 53.0764 13.373C53.0918 13.5852 52.9324 13.77 52.7201 13.7854C51.8536 13.8722 46.5674 14.7421 40.4058 15.7978C37.739 16.2542 34.9095 16.7479 32.2032 17.223C30.028 17.6057 27.9331 17.9774 26.0691 18.3216C23.4617 18.8044 21.3119 19.2277 20.0527 19.6093C19.7349 19.705 19.4171 19.8336 19.2719 19.8952ZM19.3148 19.7204C19.3148 19.7193 19.3148 19.7193 19.3148 19.7193V19.7204Z" fill="#696565"/>
<path fill-rule="evenodd" clip-rule="evenodd" d="M22.7034 25.0442C22.7518 25.251 22.6242 25.4588 22.4164 25.5072C22.2096 25.5567 22.0018 25.428 21.9534 25.2201C21.6125 24.0138 21.1572 22.7898 21.2023 21.8606C21.2353 21.1645 21.5267 20.6157 22.1546 20.2429C22.5044 20.0373 24.7378 19.427 27.8411 18.7331C29.5072 18.3603 31.4262 17.9523 33.4342 17.5686C34.3205 17.3992 35.2256 17.2419 36.1317 17.0901C37.4986 16.8614 38.87 16.6492 40.1918 16.4512C45.7166 15.6243 50.3672 15.0216 50.3672 15.0216C50.5773 14.9843 50.7774 15.125 50.8137 15.335C50.85 15.544 50.7092 15.7441 50.5003 15.7804C50.5003 15.7804 46.8295 16.5953 42.136 17.5927C40.371 17.9677 38.4653 18.3724 36.5529 18.7551C35.3784 18.9894 34.2007 19.2147 33.0548 19.4226C31.8363 19.6447 30.6531 19.8427 29.5468 20.0307C27.939 20.3046 26.4962 20.5432 25.3416 20.7466C23.8988 21.0006 22.9288 21.1645 22.7122 21.2712C22.3053 21.4703 22.2239 21.8672 22.236 22.3422C22.2569 23.1318 22.5241 24.0952 22.7034 25.0442Z" fill="#696565"/>
<path fill-rule="evenodd" clip-rule="evenodd" d="M18.2491 53.3027C18.4096 53.1641 18.6537 53.1818 18.7923 53.3434C18.9309 53.5051 18.9122 53.748 18.7505 53.8866C18.3425 54.2506 17.951 54.2121 17.5761 53.8415C16.9206 53.196 16.3015 50.7349 15.8231 47.3545C15.1402 42.5257 14.6366 35.7824 14.3166 30.0112C13.9834 23.9904 13.8514 19.0362 13.8085 18.4676C13.7326 17.3724 14.2121 16.5993 15.3976 16.0275C16.3873 15.5502 18.017 15.2203 20.3286 14.8167C21.5789 14.6078 24.6064 14.1206 28.3618 13.5477C32.0161 12.9913 36.3588 12.3501 40.4199 11.7683C47.1907 10.7973 53.1764 9.99781 53.9077 10C54.7511 10.0022 55.4065 10.2573 55.8585 10.6455C56.4457 11.1503 56.7108 11.875 56.6008 12.6151C56.5733 12.8251 56.3797 12.9747 56.1686 12.9461C55.9575 12.9186 55.809 12.7251 55.8365 12.5139C55.8904 12.0444 55.7078 11.5924 55.3263 11.2867C54.9963 11.0227 54.5191 10.8765 53.9197 10.8952C53.4557 10.9084 50.8593 11.3306 47.2941 11.9289C42.7271 12.6943 36.5897 13.7654 31.2892 14.6837C26.3615 15.536 22.1585 16.253 20.6299 16.5345C18.9276 16.8358 17.6233 17.0821 16.7018 17.3933C16.3752 17.5033 16.1047 17.6176 15.8924 17.7551C15.6571 17.9069 15.5306 18.0872 15.5471 18.3522C15.5823 18.957 15.678 24.4984 15.9012 31.0262C16.0442 35.172 16.2311 39.7159 16.5269 43.6408C16.803 47.2972 17.1582 50.4105 17.6519 52.1425C17.7894 52.6242 17.9279 52.9904 18.0885 53.2125C18.1435 53.2884 18.1831 53.3566 18.2491 53.3027Z" fill="#696565"/>
<path fill-rule="evenodd" clip-rule="evenodd" d="M15.3742 37.2215C15.5766 37.1566 15.7932 37.2689 15.8581 37.4712C15.923 37.6736 15.8108 37.8912 15.6085 37.955L2.22632 42.819C1.98549 42.9235 1.81503 43.0334 1.74355 43.1863C1.68417 43.3128 1.75564 43.448 1.83262 43.5976C2.07125 44.0606 2.58481 44.5269 3.26442 44.9579C3.90225 45.378 5.4913 46.5558 7.42566 47.9282C9.37651 49.3127 11.6793 50.8995 13.7621 52.0179C15.0267 52.6975 16.1968 53.2155 17.1458 53.3925C17.6847 53.4937 18.1399 53.5026 18.4753 53.32C18.6579 53.21 18.8943 53.2705 19.0032 53.4531C19.1132 53.6356 19.0527 53.872 18.8701 53.9809C18.4182 54.2745 17.7825 54.3635 17.0128 54.2767C15.9724 54.1579 14.6627 53.7015 13.2485 53.0527C11.048 52.0443 8.58694 50.5785 6.53051 49.2511C4.55656 47.9777 2.96531 46.8329 2.32089 46.4359C1.00786 45.5913 0.202884 44.5631 0.0412289 43.6965C-0.136911 42.7343 0.241364 41.8084 1.58519 41.275C1.97558 41.1233 4.38501 40.3688 7.11224 39.5683C10.5224 38.5675 14.4241 37.4866 15.3742 37.2215Z" fill="#696565"/>
<path fill-rule="evenodd" clip-rule="evenodd" d="M15.4912 37.5938C16.0542 46.5112 16.9824 54.8996 18.5 53.5954C18.5242 53.6152 18.5494 53.6283 18.5769 53.6371C18.6022 53.6448 18.6352 53.6515 18.6726 53.6559C15.7815 55.3836 4.7714 46.9654 2.79307 45.7029C0.814716 44.4405 0.0977213 42.803 1.90562 42.053C2.77108 41.6934 13.8109 38.1304 15.4912 37.5938Z" fill="#696565"/>
</g>
<defs>
<clipPath id="clip0_871_94">
<rect width="64" height="44.3924" fill="white" transform="translate(0 10)"/>
</clipPath>
</defs>
</svg>
