<svg preserveAspectRatio="none" width="100%" height="100%" overflow="visible" style="display: block;" viewBox="0 0 97.8187 127.998" fill="none" xmlns="http://www.w3.org/2000/svg">
<g id="vectorly-UNI-highfive">
<path id="path3060" fill-rule="evenodd" clip-rule="evenodd" d="M28.904 69.5454C29.0625 69.878 28.9122 70.2887 28.5687 70.4452C28.2252 70.6017 27.8173 70.4649 27.6589 70.1128C26.8825 68.5674 24.4034 63.0704 23.1508 58.7276C22.7341 57.2996 22.464 55.9693 22.4022 54.9325C22.3474 54.0326 22.4918 53.3089 22.7428 52.8003C23.3265 51.6657 24.4873 51.1569 25.8234 51.2743C27.0323 51.3917 28.415 52.1352 29.4498 53.4458C30.8767 55.3042 33.6607 58.8253 36.6068 62.816C38.142 64.8895 39.7238 67.0805 41.1855 69.2128C44.5697 74.162 47.3375 78.8178 47.9158 80.8914C49.1058 85.2929 49.4113 89.6553 49.2638 93.4895C48.9882 100.649 47.2055 105.892 47.2055 105.892C47.0948 106.244 46.7112 106.459 46.3493 106.342C45.9874 106.224 45.7833 105.853 45.8941 105.481C45.8941 105.481 47.2763 100.356 47.1709 93.4698C47.1155 89.8508 46.6519 85.7625 45.3266 81.6544C44.8426 80.1286 42.8811 77.1355 40.4826 73.6534C38.8636 71.2864 37.0299 68.7043 35.2507 66.2004C31.9594 61.5641 28.8365 57.2018 27.2956 55.05C26.966 54.5805 26.5722 54.2282 26.1534 54.013C25.8472 53.8565 25.5431 53.7393 25.2643 53.7784C25.1062 53.7784 24.949 53.8174 24.8672 53.9544C24.7017 54.2478 24.7056 54.7173 24.7432 55.3237C24.8216 56.5561 25.1614 58.1603 25.6127 59.8427C26.67 63.7942 28.3254 68.176 28.904 69.5454Z" fill="var(--fill-0, #283E37)"/>
<path id="path3062" fill-rule="evenodd" clip-rule="evenodd" d="M21.7101 69.2912C21.8139 69.6629 21.6031 70.0345 21.2392 70.1323C20.8754 70.2497 20.4955 70.0345 20.3916 69.6628C19.2715 66.3568 17.8092 62.777 16.3534 59.334C14.9553 56.028 13.528 52.8786 12.323 50.2182C11.1205 47.5577 10.1557 45.4254 9.53973 44.2517C8.31241 41.7478 9.24767 39.7133 10.9638 39.1264C12.0225 38.7743 13.674 38.8917 15.5265 40.3979C16.9925 41.5912 18.5166 43.567 19.8485 45.7775C21.8885 49.1422 23.5381 52.9568 24.1948 54.6783C24.3461 55.0304 24.1868 55.4216 23.84 55.5781C23.493 55.7346 23.0886 55.5585 22.9376 55.226C22.1535 53.6219 20.203 50.1203 17.9675 47.0099C16.647 45.1906 15.2337 43.5278 13.8766 42.5693C13.0497 41.9824 11.7986 41.4347 11.9748 41.8846C11.9817 41.9042 12.0161 41.9043 12.0161 41.9043C12.0161 41.9043 12.0161 42.0216 12.022 42.0999C12.0423 42.3151 12.1397 42.5694 12.2808 42.8237C12.8312 43.8801 13.7117 45.6798 14.682 47.9685C15.6339 50.1986 16.6895 52.9178 17.7153 55.8325C19.2503 60.1753 20.6868 64.968 21.7101 69.2912Z" fill="var(--fill-0, #283E37)"/>
<path id="path3064" fill-rule="evenodd" clip-rule="evenodd" d="M16.2519 70.1494C16.3558 70.5015 16.1447 70.8929 15.7809 70.9907C15.417 71.0885 15.0373 70.8732 14.9333 70.5211C14.3448 68.7997 12.6877 64.7504 10.7571 60.1337C9.82364 57.9036 8.81991 55.5561 7.8469 53.2673C6.99693 51.272 6.163 49.3353 5.39479 47.5943C4.39439 45.3251 3.5317 43.3885 2.76174 42.1952C1.35464 39.9652 1.27326 38.1066 1.8568 36.8938C2.66295 35.231 4.72499 34.3703 7.10647 35.4658C8.40266 36.0527 9.33166 36.7961 9.98268 37.559C11.3786 39.1826 11.5608 40.7867 11.5608 40.7867C11.6222 41.1584 11.369 41.5105 10.9956 41.5692C10.6222 41.6279 10.2691 41.3931 10.2076 41.0018C10.2076 41.0018 9.91441 39.8477 8.74558 38.7327C8.1818 38.2045 7.4046 37.696 6.35568 37.3439C5.29405 36.9722 4.36016 37.109 4.07592 37.8524C3.8134 38.5371 4.17079 39.476 5.03622 40.6498C5.93862 41.9017 7.07654 43.8776 8.21173 46.3033C9.03431 48.0639 9.86081 50.0592 10.6499 52.1327C11.5435 54.4802 12.3796 56.9255 13.1302 59.2534C14.6834 64.0657 15.8384 68.3497 16.2519 70.1494Z" fill="var(--fill-0, #283E37)"/>
<path id="path3066" fill-rule="evenodd" clip-rule="evenodd" d="M15.5568 87.0774C15.6054 87.4686 15.3399 87.8012 14.9647 87.8598C14.5893 87.899 14.2454 87.6447 14.1969 87.2535C13.9799 86.0602 13.02 83.2433 11.7092 79.5656C10.736 76.8269 9.54327 73.6578 8.31692 70.3323C7.57219 68.2978 6.80751 66.2242 6.07804 64.1702C5.33371 62.0575 4.63045 59.9643 3.9448 57.969C2.72198 54.4087 1.61281 51.1809 0.636273 48.7356C-0.287644 46.3686 -0.168709 44.1778 0.755793 42.8867C1.54336 41.8108 2.85696 41.2044 4.68385 41.7521C5.05123 41.8499 5.2758 42.2216 5.18503 42.5932C5.09427 42.9454 4.7222 43.1801 4.35482 43.0823C3.0426 42.828 2.22275 43.3953 1.97373 44.393C1.7382 45.332 1.98351 46.5838 2.62417 47.8553C4.03537 50.7701 5.82784 54.8 7.57689 59.2602C8.07298 60.5122 8.56066 61.8031 9.02741 63.1138C9.4883 64.4049 9.92668 65.7155 10.3471 67.0262C11.2221 69.7453 12.0288 72.4254 12.7297 74.9294C14.351 80.7002 15.4226 85.4146 15.5568 87.0774Z" fill="var(--fill-0, #283E37)"/>
<path id="path3068" fill-rule="evenodd" clip-rule="evenodd" d="M29.9541 109.373C30.3301 109.412 30.6004 109.764 30.5574 110.136C30.5146 110.507 30.1744 110.781 29.7984 110.742C28.6004 110.664 27.036 110.077 25.6115 109.079C24.3871 108.218 23.2983 107.045 22.6044 105.636C21.608 103.582 20.2216 101.391 18.6263 99.1613C17.1916 97.1464 15.5662 95.1314 13.8606 93.1752C12.5077 91.6298 11.0984 90.143 9.68507 88.7346C7.36814 86.4262 5.04359 84.3527 2.78984 82.8659C1.15485 81.7705 0.212151 79.8926 0.458633 78.3472C0.689662 76.8996 1.79844 75.4716 4.54495 75.3934C6.42291 75.3542 8.05419 75.7454 9.38676 76.3323C11.9273 77.4473 13.369 79.1296 13.369 79.1296C13.627 79.4035 13.6118 79.834 13.335 80.0883C13.0582 80.3621 12.6239 80.3425 12.3659 80.0686C12.3659 80.0686 11.001 78.7579 8.74805 77.9754C7.60583 77.5842 6.2312 77.3495 4.68051 77.506C3.51716 77.643 2.91015 78.0146 2.85518 78.6406C2.79082 79.3644 3.408 80.1469 4.20457 80.5968C6.68191 82.064 9.33198 84.0985 11.8541 86.5046C13.3618 87.9522 14.8201 89.5367 16.191 91.1995C17.9141 93.2731 19.4943 95.4836 20.8597 97.655C22.3945 100.1 23.6428 102.545 24.5288 104.775C24.9806 105.93 25.7747 106.927 26.6784 107.69C27.7673 108.61 28.9842 109.216 29.9541 109.373Z" fill="var(--fill-0, #283E37)"/>
<path id="path3070" fill-rule="evenodd" clip-rule="evenodd" d="M24.014 106.942C24.0453 106.57 24.3769 106.277 24.754 106.316C25.1312 106.336 25.4119 106.668 25.3806 107.059C25.3806 107.059 25.5743 109.289 25.5743 112.243C25.5743 112.889 25.5494 113.593 25.5058 114.297C25.4778 114.747 25.4475 115.217 25.3834 115.667C25.2208 116.821 24.9729 117.975 24.7059 119.071C24.176 121.203 23.5435 123.042 23.0406 124.098C22.923 124.45 22.5355 124.646 22.1758 124.528C21.8162 124.411 21.6196 124.039 21.7372 123.668C21.9461 122.592 21.9602 120.772 22.0617 118.679C22.1147 117.584 22.1629 116.43 22.2777 115.295C22.3233 114.845 22.399 114.395 22.4723 113.965C22.5879 113.26 22.7122 112.595 22.8479 111.95C23.4559 109.074 24.014 106.942 24.014 106.942Z" fill="var(--fill-0, #283E37)"/>
<path id="path3072" fill-rule="evenodd" clip-rule="evenodd" d="M47.419 121.891C47.4094 121.91 47.3996 121.949 47.3898 121.969C47.3971 121.949 47.4 121.891 47.419 121.891ZM47.419 121.891C47.8466 120.58 48.1236 119.191 48.3349 117.763C48.6618 115.572 48.7887 113.303 48.7617 111.131C48.7007 106.241 47.9479 101.879 47.1361 100.157C46.9554 99.8246 47.0784 99.4138 47.4108 99.2377C47.7431 99.0617 48.1598 99.1791 48.3407 99.5117C49.4022 101.233 50.8611 105.772 51.3791 110.995C51.6105 113.323 51.6456 115.787 51.3781 118.154C51.1925 119.817 50.8296 121.441 50.3367 122.947C50.1768 123.397 49.8149 124.003 49.0593 124.571C48.1659 125.255 46.5989 126.057 44.1439 126.683C41.0353 127.485 36.4284 128.053 29.9061 127.994C29.5281 128.014 29.2081 127.72 29.192 127.348C29.176 126.957 29.47 126.644 29.8481 126.625C34.8895 126.155 38.6875 125.392 41.5144 124.61C43.7562 123.984 45.3366 123.338 46.3797 122.712C46.9313 122.399 47.679 122.028 47.4315 121.891C47.4266 121.891 47.4225 121.891 47.419 121.891Z" fill="var(--fill-0, #283E37)"/>
<path id="path3074" fill-rule="evenodd" clip-rule="evenodd" d="M53.6551 57.0386C53.4098 57.3125 52.9769 57.3517 52.6886 57.117C52.4002 56.8626 52.3654 56.4323 52.6105 56.1388C54.0988 54.0066 55.7567 52.2656 57.654 50.9354C58.4823 50.3485 59.362 49.8791 60.2738 49.4682C60.8866 49.2139 61.5169 48.9791 62.1672 48.8031C63.7388 48.3923 65.3943 48.2552 67.1048 48.3335C69.3623 48.4509 71.6872 48.9986 74.1358 49.8985C74.502 49.9963 74.7211 50.3681 74.6253 50.7398C74.5292 51.0919 74.1542 51.3266 73.788 51.2288C71.4175 50.8376 69.2302 50.8179 67.1559 51.0135C65.6971 51.1505 64.3303 51.444 62.9929 51.8157C61.6363 52.2069 60.3229 52.6569 59.048 53.2829C57.1726 54.2218 55.357 55.3954 53.6551 57.0386Z" fill="var(--fill-0, #283E37)"/>
<path id="path3076" fill-rule="evenodd" clip-rule="evenodd" d="M79.6876 59.1173C79.4808 59.4499 79.0557 59.528 78.7388 59.3324C78.4217 59.1172 78.3323 58.687 78.5391 58.374C80.3073 55.4006 82.9061 51.5859 85.8931 48.8864C88.3352 46.6954 91.0661 45.2868 93.7457 45.3455C95.6487 45.4042 96.7246 46.6758 97.0609 48.5146C97.3541 50.0991 96.9499 52.2118 96.1197 53.855C95.5074 55.0288 94.7512 56.4764 93.9368 58.1C92.9479 60.0563 91.8841 62.2473 91.0183 64.4969C90.0608 66.9813 89.3066 69.5048 89.1938 71.8327C89.0754 73.9845 88.3485 76.195 87.3794 78.0926C86.1405 80.5378 84.5566 82.494 83.5707 83.2765C83.2833 83.5113 82.8502 83.4721 82.6039 83.1982C82.3576 82.9048 82.3909 82.4744 82.6782 82.2201C83.5034 81.4572 84.7491 79.5793 85.6875 77.3101C86.3972 75.6082 86.9123 73.6519 86.8759 71.7935C86.8424 69.2113 87.4516 66.3552 88.3712 63.5383C89.1578 61.1517 90.1639 58.7847 91.1572 56.7307C91.9507 55.0679 92.7476 53.6008 93.3679 52.4076C93.8423 51.5468 94.1522 50.4707 94.1584 49.5122C94.1606 49.1797 94.1355 48.8471 94.0321 48.5733C93.9558 48.3776 93.8417 48.2016 93.6007 48.182C91.526 48.006 89.4113 49.1014 87.3949 50.6859C84.3704 53.0334 81.5984 56.4373 79.6876 59.1173Z" fill="var(--fill-0, #283E37)"/>
<path id="path3078" fill-rule="evenodd" clip-rule="evenodd" d="M81.9814 55.0665C82.1985 55.3795 82.1232 55.81 81.8132 56.0252C81.5033 56.2404 81.0753 56.162 80.8583 55.849C80.5892 55.4969 80.2038 54.3035 79.7951 52.543C78.8863 48.611 77.6564 41.6665 76.4968 35.5631C76.0294 33.0983 75.583 30.7704 75.1564 28.8533C74.7471 26.9949 74.3813 25.5473 74.0165 24.7453C73.8064 24.2758 73.5519 23.8846 73.2326 23.6694C73.058 23.5324 72.8614 23.4738 72.6581 23.5716C71.9799 23.865 71.3788 24.7061 70.8064 26.1341C69.6988 28.7946 69.2418 32.0419 69.0988 35.2305C68.7707 42.5272 70.1315 49.6086 70.1315 49.6086C70.2175 49.9803 69.9883 50.352 69.6199 50.4303C69.2514 50.5085 68.8822 50.2934 68.7962 49.9218C68.7962 49.9218 66.8294 42.7425 66.7067 35.1915C66.6494 31.6704 67.0285 28.0904 68.0919 25.0779C69.3375 21.6545 71.304 20.4613 72.8768 20.4221C74.414 20.4026 75.9606 21.4589 76.8722 23.4738C77.3818 24.6475 77.9543 27.0341 78.4682 30.0271C78.8354 32.1593 79.1881 34.6242 79.5162 37.1477C79.9907 40.8059 80.4137 44.6205 80.8071 47.8091C81.2742 51.6041 81.6123 54.4992 81.9814 55.0665Z" fill="var(--fill-0, #283E37)"/>
<path id="path3080" fill-rule="evenodd" clip-rule="evenodd" d="M63.3519 50.1587C63.4255 50.5304 63.1837 50.902 62.8124 50.9607C62.4413 51.0389 62.0802 50.8041 62.0067 50.4324C61.7477 49.4152 61.0068 45.5029 60.4626 40.6711C60.311 39.3213 60.1829 37.8931 60.0851 36.4455C59.9798 34.8806 59.9045 33.2961 59.8988 31.7312C59.893 30.1075 59.9501 28.5034 60.0927 26.9776C60.3149 24.6301 60.73 22.4979 61.3104 20.8155C61.9685 18.918 62.874 17.5291 63.9711 16.864C65.1364 16.1597 66.1986 15.8858 67.1468 16.1401C67.8113 16.3162 68.4614 16.7075 69.0195 17.4508C69.8334 18.5267 70.5539 20.4633 71.058 23.5737C71.1388 23.9454 70.9043 24.3171 70.5345 24.3954C70.165 24.4736 69.7992 24.2388 69.7184 23.8671C68.9932 21.2458 68.2608 19.6026 67.461 18.7418C66.809 18.0376 66.1116 18.2919 65.3228 18.8788C64.654 19.3679 64.2849 20.3655 63.948 21.637C63.5327 23.1824 63.3285 25.1192 63.1827 27.2319C63.0834 28.6795 63.0141 30.2053 62.9709 31.7703C62.9286 33.2962 62.8952 34.8416 62.8916 36.3674C62.8883 37.7759 62.8995 39.1646 62.9192 40.5144C62.9898 45.268 63.2101 49.161 63.3519 50.1587Z" fill="var(--fill-0, #283E37)"/>
<path id="path3082" fill-rule="evenodd" clip-rule="evenodd" d="M57.4855 53.0488C57.5298 53.4205 57.2604 53.7725 56.8846 53.8116C56.5088 53.8507 56.1678 53.5965 56.1236 53.2052C55.7072 50.9752 55.1757 47.1605 54.9075 42.9938C54.7627 40.7441 54.6768 38.3968 54.7314 36.1667C54.7813 34.1127 54.9656 32.1563 55.1827 30.4349C55.5315 27.6962 56.0558 25.5444 56.6295 24.5468C57.5777 22.9231 58.8316 21.9841 59.95 21.8276C61.0728 21.6711 62.1319 22.1014 62.6691 23.3925C62.8385 23.7251 62.7014 24.1359 62.363 24.312C62.0245 24.488 61.6124 24.3512 61.4428 23.9991C61.0856 23.3926 60.5057 23.3535 59.9627 23.6665C59.4173 23.9795 58.9484 24.6446 58.5824 25.5054C58.189 26.4248 58.071 28.3026 57.9768 30.6697C57.923 32.039 57.9177 33.5453 57.8827 35.1298C57.8506 36.5774 57.8003 38.0838 57.7528 39.5901C57.6956 41.4289 57.6254 43.2482 57.5734 44.9697C57.474 48.2757 57.3979 51.1904 57.4855 53.0488Z" fill="var(--fill-0, #283E37)"/>
<path id="path3084" fill-rule="evenodd" clip-rule="evenodd" d="M75.242 83.4707C75.6186 83.4316 75.9554 83.7055 75.9938 84.0968C76.0323 84.4684 75.7578 84.801 75.3813 84.8401C73.3488 85.114 68.4013 84.6835 64.0597 83.9206C60.6289 83.3142 57.5906 82.4339 56.4704 81.6318C55.1742 80.7124 53.6983 78.5998 52.4135 75.8415C51.1368 73.1028 50.0337 69.6793 49.3234 66.3342C48.9302 64.2802 48.6362 62.1676 48.4658 60.0549C48.2062 56.8271 48.1931 53.619 48.3504 50.6064C48.7417 43.1337 50.2006 36.9521 51.5324 35.0545C52.4541 33.7439 53.4598 33.1178 54.3372 32.9222C55.4663 32.6679 56.4174 33.0591 56.8967 33.7047C57.1342 33.9981 57.0876 34.4285 56.7928 34.6633C56.4982 34.898 56.0663 34.8589 55.8288 34.5655C55.5534 34.2525 54.9851 34.2133 54.3816 34.5263C53.8988 34.7806 53.4186 35.2501 52.9682 35.9935C51.8332 37.8323 50.9999 43.7009 50.9878 50.6845C50.9827 53.5797 51.1349 56.6706 51.4755 59.7614C51.6959 61.7763 51.9837 63.7717 52.3902 65.7279C52.9817 68.8774 53.9675 72.066 55.0694 74.6678C56.0299 76.937 57.0209 78.7563 58.0329 79.5583C59.1463 80.4386 62.6765 81.4362 66.2867 82.2187C69.8843 83.0207 73.5641 83.5881 75.242 83.4707Z" fill="var(--fill-0, #283E37)"/>
<path id="path3086" fill-rule="evenodd" clip-rule="evenodd" d="M74.0342 95.8375C73.9419 95.9157 74.2613 95.9938 74.4304 96.0721C74.713 96.209 75.0616 96.3069 75.4748 96.3852C76.9278 96.6199 79.0132 96.4829 81.7573 95.6222C84.2366 94.8397 87.2077 93.5486 90.6588 91.3577C90.9666 91.1425 91.3952 91.2208 91.6154 91.5338C91.8357 91.8272 91.7649 92.2576 91.4572 92.4727C89.2995 94.2333 87.3196 95.6027 85.4954 96.6199C82.7722 98.1654 80.4173 98.9672 78.494 99.2998C76.3416 99.691 74.6692 99.4955 73.5321 99.0847C72.2865 98.6348 71.5669 97.8915 71.2462 97.2068C71.1289 96.9525 70.8572 96.5025 70.4962 95.9156C69.6938 94.6049 68.4631 92.727 67.2065 90.7708C65.1135 87.5039 62.9586 84.0806 62.2559 82.946C62.0364 82.633 62.1086 82.2025 62.4169 81.9873C62.7252 81.7722 63.1536 81.831 63.3731 82.144C64.1525 83.1025 66.4715 85.8216 68.737 88.619C69.514 89.5775 70.2781 90.5361 70.9734 91.4555C72.4902 93.4312 73.6698 95.1528 74.0342 95.8375ZM74.0342 95.8375C74.035 95.8375 74.0358 95.8375 74.0366 95.8375C74.0481 95.8179 74.0473 95.8569 74.0532 95.8764C74.0471 95.8569 74.0409 95.857 74.0342 95.8375Z" fill="var(--fill-0, #283E37)"/>
<path id="path3088" fill-rule="evenodd" clip-rule="evenodd" d="M86.7612 75.8083C86.6041 75.4561 86.7561 75.0453 87.1004 74.8888C87.4447 74.7323 87.8516 74.8888 88.0088 75.2409C88.0088 75.2409 88.857 76.3365 90.2935 77.9406C90.7669 78.4688 91.3066 79.0164 91.8809 79.6229C92.2155 79.9945 92.5648 80.3662 92.9115 80.7574C93.3994 81.3052 93.8751 81.9116 94.4115 82.4789C95.3268 83.4765 96.2671 84.4743 97.4481 85.335C97.7842 85.5111 97.9158 85.9219 97.7419 86.2545C97.568 86.587 97.1539 86.724 96.8178 86.5479C95.2887 86.0393 93.9156 85.3546 92.6744 84.5134C91.7843 83.9265 90.9889 83.2419 90.3087 82.5377C90.0186 82.2247 89.7669 81.9116 89.531 81.5791C89.1479 81.0509 88.8109 80.5422 88.5302 80.0336C87.2029 77.6275 86.7612 75.8083 86.7612 75.8083Z" fill="var(--fill-0, #283E37)"/>
<path id="path3090" fill-rule="evenodd" clip-rule="evenodd" d="M36.175 0.646496C36.204 0.255254 36.5336 -0.0185773 36.911 0.000984853C37.2883 0.0401091 37.5712 0.372627 37.5424 0.744307C37.5424 0.744307 37.7046 3.63957 37.7236 7.37594C37.7279 8.23667 37.7109 9.11696 37.6782 10.0168C37.6573 10.6037 37.6355 11.1905 37.5819 11.7774C37.4444 13.2837 37.2302 14.7704 37.0201 16.1397C36.4583 19.837 35.8697 22.6735 35.8697 22.6735C35.8409 23.0648 35.5113 23.3386 35.1339 23.3191C34.7566 23.2799 34.4735 22.9474 34.5023 22.5757C34.5023 22.5757 34.3513 19.6805 34.3556 15.9441C34.3571 14.5552 34.371 13.0489 34.463 11.5426C34.4988 10.9558 34.5666 10.3689 34.6341 9.78204C34.7396 8.88218 34.8571 8.00181 34.9904 7.16064C35.5757 3.48296 36.175 0.646496 36.175 0.646496Z" fill="var(--fill-0, #283E37)"/>
<path id="path3092" fill-rule="evenodd" clip-rule="evenodd" d="M4.44911 8.54585C4.19618 8.25242 4.21907 7.82206 4.50037 7.56775C4.78167 7.31344 5.21556 7.33297 5.46869 7.6264C5.46869 7.6264 8.05694 9.93465 11.2504 13.0255C11.9784 13.7297 12.7243 14.4926 13.4754 15.2751C13.9578 15.7642 14.4455 16.2729 14.9093 16.8011C16.0962 18.1509 17.2212 19.5593 18.255 20.87C21.0152 24.352 23.044 27.169 23.044 27.169C23.2972 27.4429 23.2741 27.8731 22.9928 28.1274C22.7115 28.3818 22.2776 28.3622 22.0244 28.0883C22.0244 28.0883 19.4434 25.7604 16.2683 22.6501C15.0787 21.4959 13.8047 20.2243 12.5838 18.8941C12.1065 18.3855 11.6532 17.8378 11.2057 17.3096C10.5087 16.488 9.83787 15.6664 9.21248 14.8644C6.46851 11.3628 4.44911 8.54585 4.44911 8.54585Z" fill="var(--fill-0, #283E37)"/>
<path id="path3094" fill-rule="evenodd" clip-rule="evenodd" d="M51.0937 13.536C51.3381 13.2426 51.771 13.2034 52.0601 13.4577C52.349 13.6924 52.3854 14.1228 52.1411 14.4163C52.1411 14.4163 51.6301 15.59 50.7639 17.0963C50.5724 17.4289 50.3586 17.7613 50.1229 18.1134C49.9732 18.309 49.8214 18.5243 49.6448 18.7199C49.1886 19.2286 48.6841 19.6785 48.2038 20.0893C46.884 21.2043 45.8067 21.9085 45.8067 21.9085C45.5626 22.202 45.1295 22.2412 44.8405 21.9869C44.5516 21.7521 44.5152 21.3217 44.7596 21.0282C44.7596 21.0282 45.2809 19.8349 46.1629 18.3482C46.4837 17.82 46.8347 17.2528 47.2559 16.7051C47.4188 16.5095 47.606 16.3138 47.7913 16.1377C48.0833 15.8443 48.3736 15.5705 48.6704 15.3357C50.012 14.2207 51.0937 13.536 51.0937 13.536Z" fill="var(--fill-0, #283E37)"/>
</g>
</svg>
