<svg xmlns="http://www.w3.org/2000/svg" width="220" height="194" viewBox="0 0 220 194" fill="none">
  <g clip-path="url(#clip0_1180_1505)">
    <path d="M120.599 0.0879036C130.157 -0.22323 140.464 0.562167 150.096 0.704115L173.081 1.07033C177.922 1.13937 182.783 1.02695 187.613 1.40919C195.024 1.9956 197.932 2.90454 204.226 6.84474C206.231 8.09995 208.134 9.23563 209.677 11.0781C218.985 22.1913 220.579 58.5206 220.339 73.4248C220.191 82.5846 219.294 91.6994 218.76 100.838C218.455 106.139 218.49 111.471 218.047 116.763C217.125 127.772 215.377 136.649 206.624 143.969C203.092 146.922 198.487 149.184 193.981 150.148C188.496 151.323 182.82 151.453 177.238 151.752C166.863 152.308 156.546 152.49 146.164 152.73C133.92 153.011 121.679 154.01 109.43 154.008C102.219 154.006 94.9008 153.478 87.7213 152.813C85.7157 161.361 78.121 169.417 71.4567 174.73C62.7971 181.69 47.6968 189.85 36.2301 188.926C34.8019 188.811 32.9293 188.292 32.0104 187.074C31.8291 186.834 31.6843 186.568 31.5797 186.286C30.7127 183.94 33.1262 181.256 34.5495 179.373C43.4517 167.599 44.657 163.799 46.7584 149.514C35.0772 151.78 20.2712 151.325 11.4498 142.316C2.20291 132.873 2.0762 113.17 1.33363 100.691C0.810052 92.9088 0.448006 85.1161 0.247693 77.3184C-0.0815179 62.0277 0.601654 39.7858 4.78773 24.8379C6.11582 21.5515 9.56167 15.9222 12.1432 13.6846C25.1306 2.4295 51.381 2.81196 67.0309 2.01368C84.8702 0.97301 102.731 0.331184 120.599 0.0879036ZM56.4928 5.72169C54.8159 5.95285 54.7058 7.33567 54.4899 8.81349C45.7671 9.03721 32.9756 9.43615 24.86 11.8203C20.0242 13.2409 14.5302 16.3444 12.0621 20.8945C7.32137 29.6353 6.57949 56.453 6.73207 67.0684C6.89149 78.1644 7.73505 89.1937 8.38636 100.264C8.92624 109.441 8.59209 119.656 11.2243 128.483C16.1509 145.006 27.8834 144.143 42.319 145.203C44.4679 145.361 47.447 145.401 49.3502 146.49C50.3392 147.056 50.6201 147.967 50.8805 149.012C51.41 151.134 51.3643 153.44 51.2828 155.612C50.9251 165.165 47.2611 173.241 42.4694 181.334C46.4033 179.664 50.636 178.208 54.5963 176.522C64.3838 172.357 70.88 166.033 77.528 157.966C79.8698 155.124 83.6844 150.944 85.5709 147.897C86.5884 147.903 87.5751 147.857 88.5846 147.744C96.127 146.902 103.701 147.399 111.272 147.088C117.994 146.811 124.718 146.344 131.442 145.997C142.441 145.514 153.436 144.929 164.424 144.242C175.071 143.549 186.697 143.655 196.949 140.767C203.104 139.033 208.296 131.697 209.411 125.566C210.835 117.731 210.58 110.076 210.962 102.176L211.944 79.6914C212.412 68.6233 212.618 60.4411 211.416 49.0986C209.637 32.3282 210.087 11.0846 187.967 9.26857C183.328 8.8875 178.537 8.86357 173.81 8.81349L154.563 8.51368C132.011 7.8526 109.447 7.74717 86.8903 8.19728C76.841 8.2995 67.5482 8.18073 57.4694 8.61329V8.61427L54.4918 8.81349C54.7146 7.28854 54.8246 5.86476 56.6598 5.70314L56.4928 5.72169Z" fill="white"/>
    <path d="M134.416 37.9293C145.789 37.3477 154.527 47.8451 154.454 58.8424C154.349 74.6674 146.221 87.4792 135.652 99.0309C130.934 104.187 119.882 116.707 112.679 118.658C108.187 118.693 92.4318 105.136 88.7304 101.686C82.4953 95.7871 72.7885 85.109 69.0859 77.7555C65.8065 70.4542 63.4885 63.4343 65.9628 55.6032C69.6136 44.0495 80.6193 38.5186 92.1044 42.609C100.367 45.5521 104.161 48.6478 108.097 56.4635C109.048 54.4294 110.6 51.8343 111.983 50.0836C117.396 43.351 125.229 39.0032 133.806 37.9713C134.009 37.9536 134.212 37.94 134.416 37.9293ZM147.228 56.7135C146.405 50.0608 141.155 43.4777 133.883 44.4567C126.062 46.061 120.597 49.0663 116.087 55.6999C115.305 56.8502 109.262 66.0493 108.139 64.6012C101.759 56.3774 95.4184 45.1613 83.1249 46.5797C79.7066 46.9745 76.0975 49.3538 74.0946 52.2672C71.521 55.5035 70.6391 61.0907 71.0888 65.0524C72.0278 73.3245 81.3409 85.3034 87.5361 90.8991C90.9985 94.0344 94.9756 97.979 98.4482 100.874C102.876 104.565 107.757 108.145 112.308 111.857C115.606 107.364 120.368 104.319 124.246 100.401C126.623 97.9995 128.858 95.0642 131.025 92.4508C133.576 89.0064 137.097 85.58 139.25 81.8864C143.62 74.3877 148.333 65.6396 147.228 56.7135Z" fill="white"/>
  </g>
  <defs>
    <clipPath id="clip0_1180_1505">
      <rect width="220" height="194" fill="white"/>
    </clipPath>
  </defs>
</svg>
