<svg preserveAspectRatio="xMidYMid meet" width="100%" height="100%" overflow="visible" style="display: block;" viewBox="0 0 63.9998 41.7323" fill="none" xmlns="http://www.w3.org/2000/svg">
<g id="vectorly-UNI-map-pin">
<path id="path2878" fill-rule="evenodd" clip-rule="evenodd" d="M35.7955 24.3753C35.1553 22.3804 34.0186 20.911 32.8035 19.5216C31.5086 18.0344 30.1266 16.6361 29.0951 14.8371C28.3068 13.4567 27.7265 11.8537 27.5321 9.82314C27.3502 7.82823 28.0394 5.04068 29.8503 2.9478C31.3136 1.25569 33.5003 0.0178117 36.5122 0C39.2532 0.0178117 41.4998 1.52292 42.9225 3.6247C44.3769 5.77101 44.9605 8.51396 44.3856 10.785C43.9484 12.4949 43.2398 13.9466 42.403 15.2557C40.2859 18.5776 37.3446 20.9377 36.3967 24.3575C36.3617 24.5 36.2407 24.5891 36.1006 24.598C35.9605 24.598 35.8357 24.5089 35.7955 24.3753ZM36.0803 23.2354C37.1642 20.2074 39.692 17.8474 41.5412 14.7303C42.2794 13.4835 42.9042 12.1119 43.2629 10.5178C43.7106 8.54959 43.1211 6.2074 41.832 4.3817C40.6238 2.66287 38.779 1.40712 36.5144 1.42494C33.9764 1.41603 32.1295 2.44022 30.8749 3.84735C29.2868 5.62852 28.6213 8.00638 28.7404 9.72521C28.8603 11.5776 29.3452 13.0471 30.0207 14.3206C30.9611 16.0929 32.2586 17.4911 33.4575 18.9695C34.4894 20.243 35.4505 21.5789 36.0803 23.2354Z" fill="var(--fill-0, #283E37)"/>
<path id="path2880" fill-rule="evenodd" clip-rule="evenodd" d="M37.5921 10.5951C37.5634 10.4233 37.6708 10.265 37.8391 10.2348C38.0138 10.1986 38.1733 10.314 38.2084 10.4797C38.3181 10.8911 38.3164 11.315 38.2271 11.7244C38.1338 12.1425 37.9202 12.5248 37.6184 12.8665C37.1095 13.4297 36.3994 13.7047 35.6867 13.7192C34.9625 13.7346 34.2421 13.4316 33.6724 12.8867C33.1302 12.306 32.8451 11.569 32.8821 10.8341C32.9126 10.1052 33.2259 9.38875 33.8157 8.8845C34.4024 8.40269 35.1087 8.17528 35.8047 8.25935C36.4571 8.33647 37.0964 8.6319 37.5432 9.19003C37.6622 9.31471 37.6557 9.51421 37.5334 9.63106C37.411 9.7479 37.2114 9.74522 37.0924 9.62062C36.7131 9.28799 36.2399 9.15351 35.7716 9.1789C35.3451 9.19653 34.9415 9.39285 34.6305 9.73769C34.3439 10.0436 34.2402 10.451 34.2502 10.8483C34.2589 11.2313 34.3961 11.62 34.69 11.9148C34.9701 12.2338 35.3445 12.4196 35.7286 12.4608C36.146 12.4981 36.576 12.4198 36.9206 12.1357C37.1504 11.9509 37.3323 11.7287 37.4362 11.4764C37.5588 11.1921 37.6202 10.8954 37.5921 10.5951Z" fill="var(--fill-0, #283E37)"/>
<path id="path2882" fill-rule="evenodd" clip-rule="evenodd" d="M62.564 32.9122C59.8841 30.4185 57.8596 28.0673 56.3367 25.9745C53.6732 22.3142 52.5312 19.4465 52.0862 18.0572C51.2556 19.0369 50.1581 19.687 48.6862 20.1323C46.2579 20.8536 42.7703 20.9961 37.7277 21.1386C37.5555 21.1475 37.4106 21.014 37.4043 20.8359C37.398 20.6667 37.5325 20.5241 37.7047 20.5152C42.6523 20.2926 46.0747 20.1056 48.4465 19.3486C50.0426 18.8409 51.1397 18.075 51.8893 16.8193C51.9846 16.6679 52.1655 16.5877 52.3457 16.6145C52.5259 16.6501 52.6684 16.7837 52.7053 16.9618C52.7053 16.9618 53.4538 20.3995 57.172 25.36C58.7648 27.4796 60.8991 29.8753 63.7487 32.4045C63.9268 32.5559 63.9952 32.7429 63.9996 32.9389C64.0041 33.1259 63.9219 33.3841 63.6424 33.6335C63.181 34.0343 61.7918 34.6221 59.9407 35.1475C57.1573 35.9312 53.3048 36.6259 50.2107 36.5279C49.5278 36.6615 43.9839 37.7124 39.7045 38.6119C37.7594 39.0216 36.0778 39.3956 35.2492 39.6361C35.198 39.6539 35.1452 39.6628 35.0921 39.6628C35.0921 39.6628 30.1835 39.9478 25.9612 40.4376C24.0683 40.6514 22.3151 40.9096 21.2249 41.2124C20.8753 41.3015 20.4737 41.4885 20.448 41.5063C20.3338 41.631 20.1748 41.7112 20.0027 41.729C19.8212 41.7468 19.6401 41.6933 19.4995 41.5775L1.42073 26.5C1.24929 26.3575 1.17751 26.1348 1.23789 25.9211C1.29836 25.7073 1.47942 25.5471 1.69957 25.5114L17.3387 23.4274L28.0293 20.8893C28.0512 20.8804 28.0735 20.8804 28.096 20.8804L34.4431 20.6399C34.6153 20.631 34.7604 20.7646 34.767 20.9338C34.7736 21.1119 34.6392 21.2544 34.4671 21.2633L28.1718 21.6017L17.5275 24.3091C17.5128 24.3091 17.4979 24.318 17.4828 24.318L3.11667 26.4376C6.85418 29.4923 19.9799 40.1971 19.9799 40.1971C20.1376 40.1259 20.3226 40.0457 20.5343 39.9745C21.3693 39.7073 22.7138 39.4491 24.2611 39.2353C28.4639 38.6475 34.197 38.2913 34.9317 38.2468C35.8058 38.0064 37.4846 37.6322 39.4194 37.2404C44.0043 36.2964 50.0382 35.2099 50.0382 35.2099C50.0874 35.201 50.1374 35.192 50.1874 35.192C51.8571 35.2722 53.7666 35.103 55.5972 34.8181C58.1442 34.4084 60.5394 33.7761 61.9277 33.215C62.1553 33.1259 62.3858 33.0101 62.564 32.9122Z" fill="var(--fill-0, #283E37)"/>
<path id="path2884" fill-rule="evenodd" clip-rule="evenodd" d="M17.2186 24.1136C17.0877 23.9978 17.0723 23.8019 17.1843 23.6683C17.2962 23.5436 17.4934 23.5258 17.6243 23.6327C17.6243 23.6327 20.0602 25.4939 23.1164 27.9252C23.8154 28.4774 24.5419 29.0741 25.2782 29.6797C25.7516 30.0716 26.2304 30.4635 26.6997 30.8731C27.899 31.9151 29.0742 32.9749 30.1585 33.9724C33.0427 36.5996 35.2552 38.7192 35.2552 38.7192C35.3861 38.8349 35.4015 39.0309 35.2895 39.1556C35.1775 39.2892 34.9803 39.3069 34.8494 39.1912C34.8494 39.1912 32.4166 37.3388 29.3676 34.8896C28.2214 33.9723 26.9868 32.9838 25.7741 31.9597C25.2994 31.5589 24.8343 31.1403 24.3747 30.7395C23.66 30.1072 22.9634 29.4749 22.3051 28.8693C19.4274 26.2332 17.2186 24.1136 17.2186 24.1136Z" fill="var(--fill-0, #283E37)"/>
<path id="path2886" fill-rule="evenodd" clip-rule="evenodd" d="M27.9443 21.5093C27.8007 21.4114 27.7615 21.2243 27.8567 21.0729C27.9519 20.9304 28.1457 20.8948 28.2893 20.9928C28.2893 20.9928 31.2907 22.7739 35.0746 25.1162C35.9404 25.6505 36.8429 26.2205 37.759 26.8083C38.3481 27.1912 38.944 27.5742 39.5319 27.9661C41.0337 28.9724 42.515 30.0144 43.8832 30.9762C47.521 33.5411 50.3323 35.6073 50.3323 35.6073C50.476 35.7052 50.5151 35.8923 50.4199 36.0437C50.3247 36.1862 50.1309 36.2218 49.9873 36.1238C49.9873 36.1238 46.9885 34.3427 43.2107 31.9915C41.79 31.1009 40.2582 30.1391 38.7448 29.1505C38.1524 28.7676 37.5682 28.3668 36.9908 27.9661C36.0931 27.3516 35.216 26.746 34.3849 26.1582C30.7525 23.5844 27.9443 21.5093 27.9443 21.5093Z" fill="var(--fill-0, #283E37)"/>
<path id="path2888" fill-rule="evenodd" clip-rule="evenodd" d="M12.1139 34.8821C11.9427 34.8999 11.7877 34.7751 11.7677 34.6059C11.7479 34.4367 11.8706 34.2765 12.0418 34.2586C12.0418 34.2586 14.6394 33.8133 17.7828 33.3591C19.0217 33.181 20.3429 32.994 21.6233 32.8426C22.759 32.709 23.861 32.6022 24.8398 32.522C26.2153 32.4151 27.3498 32.3795 28 32.3884C28.5418 32.1747 30.5402 31.3821 32.4576 30.7587C33.7016 30.349 34.9086 30.0195 35.6697 29.9393C35.8402 29.9215 35.9992 30.0373 36.0246 30.2065C36.0501 30.3757 35.9324 30.536 35.762 30.5627C35.044 30.6963 33.9278 31.1327 32.7738 31.6136C30.6273 32.5042 28.3757 33.6085 28.3757 33.6085C28.2937 33.6442 28.2048 33.6619 28.1149 33.6619C27.4008 33.6708 25.934 33.8401 24.162 34.0093C22.9215 34.1251 21.5337 34.223 20.1544 34.3299C19.3373 34.4011 18.5241 34.4546 17.7445 34.508C14.6518 34.7217 12.1139 34.8821 12.1139 34.8821Z" fill="var(--fill-0, #283E37)"/>
<path id="path2890" fill-rule="evenodd" clip-rule="evenodd" d="M56.9118 25.8203C57.0617 25.7312 57.2523 25.7846 57.3372 25.936C57.4222 26.0874 57.3694 26.2744 57.2196 26.3635C57.2196 26.3635 56.1107 27.0404 55.0033 27.5391C54.3753 27.8241 53.7443 28.0378 53.295 28.0645C52.9236 28.0912 52.333 27.8953 51.6331 27.5925C50.7009 27.1828 49.5321 26.5773 48.4466 26.2477C47.8119 26.0518 47.2146 25.945 46.7433 26.132C45.6365 26.5506 43.5424 27.263 41.6394 27.7796C40.1096 28.1892 38.6985 28.4652 38.0066 28.4652C37.3601 28.4652 36.9655 28.7146 36.7192 29.1243C36.3728 29.7121 36.2442 30.5225 36.1084 31.3686C35.9637 32.2681 35.8204 33.1943 35.5027 33.9691C35.1687 34.7885 35.0493 35.6078 35.0411 36.3648C35.0298 37.4067 35.2152 38.3062 35.3516 38.8762C35.3973 39.0454 35.2995 39.2146 35.1334 39.2592C34.9674 39.3126 34.7954 39.2147 34.7496 39.0455C34.5631 38.4488 34.3005 37.4958 34.2405 36.3826C34.1939 35.5276 34.2774 34.5836 34.5985 33.6306C34.9001 32.749 34.9434 31.6803 35.0622 30.7007C35.1619 29.8813 35.3189 29.1154 35.6353 28.5187C36.0631 27.7172 36.7653 27.1829 37.9826 27.1383C38.612 27.1116 39.8765 26.7821 41.2679 26.408C43.1282 25.9004 45.2019 25.2859 46.2926 24.9029C47.0062 24.6535 47.8986 24.7605 48.8281 25.09C49.9412 25.4907 51.1232 26.1943 52.0675 26.6841C52.5718 26.9423 52.9823 27.1562 53.2585 27.1562C53.6329 27.1562 54.1636 26.9958 54.7005 26.7999C55.7983 26.3992 56.9118 25.8203 56.9118 25.8203Z" fill="var(--fill-0, #283E37)"/>
<path id="path2892" fill-rule="evenodd" clip-rule="evenodd" d="M20.2064 37.3279C20.062 37.2299 20.021 37.034 20.1149 36.8915C20.2087 36.7491 20.4023 36.7045 20.5467 36.8025C20.5467 36.8025 21.1935 37.0162 22.0205 37.3902C22.2051 37.4704 22.3911 37.5595 22.5808 37.6664C22.7014 37.7287 22.8235 37.7999 22.9378 37.8801C23.2321 38.0849 23.5016 38.3164 23.7505 38.5302C24.4289 39.1269 24.8929 39.6257 24.8929 39.6257C25.0374 39.7236 25.0785 39.9106 24.9845 40.062C24.8906 40.2045 24.6971 40.2401 24.5527 40.1511C24.5527 40.1511 23.907 39.9284 23.0874 39.5543C22.7866 39.4118 22.4673 39.2605 22.1616 39.0735C22.0429 39.0022 21.9323 38.9132 21.8232 38.833C21.6518 38.6994 21.4906 38.5658 21.3403 38.4322C20.6664 37.8266 20.2064 37.3279 20.2064 37.3279Z" fill="var(--fill-0, #283E37)"/>
<path id="path2894" fill-rule="evenodd" clip-rule="evenodd" d="M26.0322 36.1504C25.9016 36.0346 25.887 35.8387 25.9995 35.714C26.1119 35.5804 26.3091 35.5625 26.4397 35.6783C26.4397 35.6783 27.0541 35.9812 27.8272 36.4621C27.9996 36.569 28.1722 36.6847 28.3471 36.8183C28.4583 36.8985 28.5709 36.9786 28.674 37.0766C28.9395 37.317 29.177 37.5842 29.3955 37.8336C29.991 38.5193 30.3861 39.0804 30.3861 39.0804C30.5167 39.1872 30.5314 39.3921 30.4189 39.5168C30.3064 39.6504 30.1092 39.6681 29.9787 39.5524C29.9787 39.5524 29.3659 39.2407 28.6014 38.7598C28.3209 38.5728 28.0236 38.3858 27.7444 38.1542C27.6359 38.0652 27.5372 37.9672 27.4398 37.8692C27.2868 37.7178 27.1442 37.5664 27.0125 37.4061C26.423 36.7114 26.0322 36.1504 26.0322 36.1504Z" fill="var(--fill-0, #283E37)"/>
<path id="path2896" fill-rule="evenodd" clip-rule="evenodd" d="M1.22965 28.7696C1.90169 29.1792 3.43607 30.2213 5.33595 31.5393C6.2171 32.1449 7.17884 32.8128 8.1632 33.5075C9.08762 34.1665 10.0295 34.8523 10.9634 35.5113C12.4649 36.5711 13.9314 37.5864 15.2293 38.379C16.2326 38.9935 17.1221 39.4744 17.8371 39.7416C18.292 39.9108 18.6594 40.0088 18.9263 39.9642C19.0947 39.9286 19.261 40.0355 19.2975 40.2047C19.334 40.3739 19.2269 40.5432 19.0585 40.5788C18.6051 40.6946 17.8777 40.5698 16.9636 40.2314C15.8335 39.8217 14.3922 39.0915 12.8311 38.192C11.5812 37.4617 10.2514 36.6424 8.95252 35.7785C8.09881 35.2085 7.25854 34.6207 6.46103 34.0418C5.35314 33.2314 4.32737 32.4477 3.43928 31.753C1.91879 30.5774 0.827999 29.6869 0.494209 29.482C0.0762583 29.2238 -0.0184997 28.9388 0.00278522 28.734C0.0247826 28.5202 0.174311 28.2441 0.548624 28.0749C1.42692 27.6831 3.90131 27.5317 3.90131 27.5317C4.07284 27.5228 4.22557 27.6475 4.24223 27.8167C4.25888 27.9859 4.13322 28.1373 3.96169 28.1551C3.96169 28.1551 2.15069 28.4133 1.22965 28.7696Z" fill="var(--fill-0, #283E37)"/>
<path id="path2898" fill-rule="evenodd" clip-rule="evenodd" d="M3.93197 27.8438L18.9929 40.2674C16.1425 40.8908 2.10387 29.8119 0.733081 29.0549C-0.637705 28.289 3.93197 27.8438 3.93197 27.8438Z" fill="var(--fill-0, #283E37)"/>
</g>
</svg>
