<svg xmlns="http://www.w3.org/2000/svg" width="80" height="80" viewBox="0 0 64 64" fill="none">
  <path d="M13.4847 37.1125C13.3159 35.787 13.1957 34.4556 13.1244 33.1213C13.0708 32.0371 12.9445 23.7771 13.3652 23.2446C13.8618 22.6161 18.3699 20.538 19.3548 20.0379C20.8216 19.293 22.2707 18.5109 23.753 17.7972C25.147 17.126 26.5642 16.5048 27.9595 15.8389C29.0935 15.2976 30.2076 14.6919 31.3662 14.2053C31.8908 13.985 32.4662 13.7391 33.0391 13.7017C33.4024 13.678 33.7613 13.8284 34.0943 13.9573C35.0424 14.3244 35.9514 14.8233 36.8844 15.2343C39.2282 16.2671 41.6078 17.302 43.9066 18.4303C45.4904 19.2077 47.033 20.0755 48.6104 20.87L51.5005 22.3433C51.8746 22.5387 52.3212 22.7036 52.6421 22.9822C52.9548 23.2535 53.0162 27.312 53.0257 27.9514C53.042 29.0466 53.0115 34.7548 52.5725 35.5687L52.4548 35.6596C52.284 35.6292 52.3493 35.6574 52.2061 35.521C52.0146 35.0634 52.0822 33.9714 52.0435 33.4187C52.0112 32.9568 51.9203 32.3063 51.9091 31.8722C51.849 29.5278 51.7042 26.0172 52.0848 23.7427C51.2699 23.4725 49.9282 22.7423 49.1275 22.3514C47.2773 21.448 45.4357 20.4186 43.6004 19.4975L37.0042 16.2605C36.2078 15.8703 33.7483 14.7217 33.1575 14.2002C28.5396 16.6407 23.8596 18.9616 19.122 21.1605L15.5143 22.8737C14.9972 23.1166 14.3452 23.4541 13.8293 23.6478C14.0157 25.5139 14.2802 35.7347 13.7773 37.1235C14.2447 37.1359 16.08 37.1345 16.4204 37.0621L16.4699 36.9776C16.2811 35.501 16.1667 26.5851 16.5999 25.5595C16.7801 25.3996 17.4858 25.3452 17.7513 25.3355C22.0102 25.1791 26.3067 25.2211 30.5686 25.1899L41.4182 25.0939C43.7345 25.0729 46.0185 24.9085 48.3289 25.2234C48.6557 25.2679 49.0254 25.2959 49.3538 25.2739C49.6141 26.468 49.9347 35.1925 49.133 35.5711C48.9882 35.5592 48.9262 35.5616 48.8287 35.4385C48.4584 34.9707 48.6406 27.2321 48.7056 25.9539C47.0885 26.1888 44.9953 26.0654 43.3284 26.0894C39.1955 26.1489 35.0579 26.0766 30.9228 26.0599C27.2953 26.0453 23.6512 26.0868 20.0273 26.0355C19.3618 26.026 17.624 26.0372 17.0517 25.9281C17.2493 28.0821 17.2862 30.3239 17.265 32.4855C17.2541 33.5894 17.2644 35.1977 17.0952 36.2783C17.1298 36.6196 17.0773 36.76 16.9842 37.0916C17.2298 37.0813 18.5428 37.0636 18.6784 37.0175C18.7563 35.9149 18.4554 29.9749 18.8016 29.2854C19.3572 28.8612 26.1232 28.7863 27.2172 28.9767C27.3485 28.9995 27.7845 29.0476 27.8665 29.1689C28.1414 29.5754 27.9666 30.4847 27.995 30.9906C28.0492 31.9555 28.0936 32.9053 28.1018 33.8691C28.1114 35.0162 28.0337 36.1592 28.0358 37.303C28.5618 37.3034 29.8618 37.2024 30.2306 37.6058C30.8064 38.2356 30.4902 44.6178 30.4114 45.7699C30.8169 45.6625 32.2462 45.5699 32.6646 45.6066C32.4117 44.8362 32.2889 44.3198 32.306 43.5028C32.3274 42.4849 32.3582 42.025 33.0997 41.2903C32.6335 40.9384 32.4531 40.6458 32.3869 40.0258C32.2931 39.1469 32.2044 37.8175 32.768 37.0907C33.2127 36.5174 33.7414 36.4826 34.404 36.3967C35.5311 36.2508 36.6596 36.2775 37.7921 36.2572C39.8929 36.2257 41.9938 36.2141 44.0948 36.2223L50.0386 36.2168C51.1179 36.2241 52.1624 36.219 53.238 36.2939C54.7837 36.4015 55.1652 37.3251 55.1813 38.7465C55.193 39.7849 55.1513 40.5013 54.324 41.2351C55.4766 42.3885 55.4349 44.1878 54.6344 45.5267C55.9026 45.4244 57.6198 45.2453 56.922 47.4021C56.8615 47.5896 55.6484 47.5155 55.4376 47.5092C55.4424 47.8693 55.4654 48.4066 55.4451 48.753C56.2317 48.6611 57.036 48.558 57.0788 49.6213C57.0916 49.9201 57.0734 50.2196 57.0247 50.5148C56.1932 50.7995 53.3619 50.6766 52.2949 50.6915C48.6975 50.768 45.0993 50.8077 41.5009 50.8109C38.7028 50.7915 35.7742 50.6563 32.9866 50.6722C32.6831 50.671 32.128 50.6536 31.8515 50.6663C30.5828 50.7249 29.9781 50.527 30.3187 49.108C30.3587 48.9411 30.6089 48.8657 30.7604 48.8085C30.9552 48.7213 31.6181 48.7586 31.8574 48.7644C31.7838 48.3878 31.8088 47.9024 31.8474 47.5212C31.2743 47.5133 30.9439 47.5106 30.3673 47.4468C30.2255 46.9468 30.2305 46.6461 30.2306 46.1384C29.8603 46.2937 29.6003 46.3738 29.1961 46.4088C27.6092 46.5457 26.0042 46.4308 24.4125 46.4477C24.0108 46.4519 23.5757 46.4473 23.1785 46.4128C23.1589 46.9611 23.208 50.159 22.9644 50.386C22.3224 50.9842 11.0123 50.5379 9.45588 50.4771C9.34013 49.5625 9.32039 48.2868 9.29277 47.3557C9.21513 44.7371 9.23744 42.1077 9.36004 39.491C9.37743 39.1196 9.34602 37.7138 9.49949 37.464C9.84132 37.3118 12.9501 37.0601 13.4847 37.1125ZM31.7144 50.1065C33.0559 50.0324 34.374 50.044 35.7146 50.0327L40.9633 49.9775L48.0867 49.8709C50.7983 49.8458 53.5101 49.853 56.2215 49.8925C56.3071 49.8931 56.3157 49.8834 56.3858 49.8384C56.4875 49.6795 56.5158 49.6499 56.5073 49.4645C56.35 49.3772 56.1611 49.3707 55.9813 49.3693L30.8903 49.3148C30.7822 49.4183 30.813 49.3664 30.7978 49.544C30.827 49.7319 30.8333 49.9169 30.9644 50.052C31.182 50.2011 31.4495 50.137 31.7144 50.1065ZM10.1593 49.9161C11.165 49.6657 12.1221 49.7887 13.1633 49.7522C15.0363 49.6865 16.8866 49.7097 18.7595 49.7486C19.9123 49.7725 21.1003 49.6798 22.2686 49.795C22.1975 48.5517 22.2497 37.9018 22.3288 38.0308C21.8769 38.0295 18.028 37.9531 17.8864 38.0435C18.0183 38.8538 17.8498 40.6614 17.7227 41.5133C17.6705 41.863 16.9148 41.4914 16.743 41.4055C16.5506 41.3401 16.2365 41.28 16.0286 41.2339C15.4699 41.4955 15.2325 41.5324 14.5954 41.4772C14.4483 41.3678 14.4958 41.4265 14.4342 41.2163C14.343 40.7117 14.3508 38.461 14.4459 37.945C13.5651 37.9118 12.7322 37.9414 11.8524 37.9466C11.2092 37.9505 10.5824 37.8983 9.93304 37.9212C10.0435 38.4506 10.0485 39.5448 10.0586 40.1094L10.1117 43.2652C10.1541 45.2616 10.2339 47.2549 10.2073 49.2522C10.2042 49.4804 10.1942 49.6896 10.1593 49.9161ZM52.2468 48.7509C52.233 48.2819 52.2239 48.0676 52.2718 47.6068C51.8895 47.6646 51.5971 47.6375 51.2234 47.6527C49.6266 47.7176 47.8967 47.5611 46.3097 47.6509L45.156 47.6591C45.3109 48.1469 45.3436 48.2369 45.2537 48.7493C47.3102 48.7526 49.383 48.7687 51.4381 48.7471C51.7019 48.7476 51.9849 48.7428 52.2468 48.7509ZM54.9003 48.7689C54.8837 48.3797 54.8827 47.99 54.8966 47.6006C54.3342 47.6394 53.2576 47.6503 52.6901 47.6141C52.7244 48.0439 52.7235 48.2981 52.7073 48.7297C53.2907 48.7336 54.3502 48.7169 54.9003 48.7689ZM19.4218 37.09C20.5588 37.0763 22.2994 36.9383 23.3054 37.5037C24.4845 37.1475 26.0505 37.2904 27.3337 37.25C27.2631 36.604 27.2785 35.2972 27.2824 34.6152C27.2908 33.1509 27.2252 31.259 27.4441 29.8191C27.1282 29.8397 24.6828 29.8059 24.3823 29.7562C24.4044 30.4784 24.4121 31.2009 24.4053 31.9235C24.1142 31.8828 23.8264 31.8397 23.5316 31.8217C23.1047 31.7958 22.5692 32.0489 22.2269 31.8142C22.0417 31.4774 22.201 30.1155 22.2717 29.7075L22.2188 29.7156C21.5956 29.8067 19.8043 29.6992 19.3826 29.802C19.3248 30.2306 19.3607 31.0108 19.3632 31.477C19.3665 32.6325 19.3818 33.788 19.4089 34.9432C19.4205 35.4938 19.4653 36.5683 19.4218 37.09ZM15.0904 40.9742C15.3002 40.7493 15.4726 40.6104 15.7826 40.5781C16.3378 40.7036 16.3027 40.2148 17.1011 40.8366C17.1999 40.6336 17.3154 38.5227 17.4078 38.0375C17.1504 37.9488 15.1448 37.8873 14.8953 38.0062L14.8575 38.1531C14.984 38.661 14.9241 40.2785 14.9927 40.8805C14.9931 40.8839 15.071 40.9621 15.0904 40.9742ZM34.4148 48.8026C34.4872 48.5228 34.4466 47.9175 34.4772 47.5654C33.8245 47.5777 32.9653 47.5943 32.3127 47.5607C32.3061 47.9547 32.31 48.3681 32.259 48.7574C32.7643 48.7547 33.9637 48.7229 34.4148 48.8026ZM56.4126 46.2124C55.2128 46.3434 53.6546 46.2569 52.4147 46.2447L46.4463 46.2295C41.2967 46.2089 35.8919 46.3586 30.7596 46.1865C30.7038 46.3821 30.862 46.7992 30.9403 46.9916C32.2171 46.9376 33.5131 46.9133 34.7911 46.9309C40.0381 47.0031 45.2891 46.8526 50.5341 46.879C51.994 46.8886 53.4539 46.8858 54.9142 46.8706C55.1395 46.8696 56.3103 46.9868 56.3783 46.9694L56.4126 46.2124ZM41.9624 48.655C41.9571 48.2886 41.9432 47.9763 41.9936 47.6115C41.2471 47.7035 39.2224 47.6643 38.3984 47.6476C37.3375 47.626 35.9369 47.6627 34.9155 47.6104C34.9952 48.0735 35.0066 48.2627 34.9738 48.7457C36.2563 48.7663 37.487 48.8109 38.7754 48.8119C39.6657 48.8126 41.0574 48.7321 41.9032 48.7859C41.9454 48.7168 41.9512 48.7283 41.9624 48.655ZM23.9715 29.759C23.6292 29.7935 22.928 29.7643 22.575 29.7536C22.5957 30.2233 22.6324 30.773 22.634 31.2403C23.2099 31.1363 23.3316 31.1158 23.9176 31.2627C23.929 30.7613 23.9469 30.26 23.9715 29.759ZM42.4958 47.6106C42.5656 48.0634 42.5924 48.2839 42.5548 48.7555C42.9801 48.752 44.2583 48.7181 44.6103 48.8017C44.6248 48.4849 44.626 47.9046 44.6678 47.6161C44.0316 47.6362 43.1384 47.6528 42.4958 47.6106ZM25.034 38.0775C25.0384 38.3423 25.0112 39.3625 25.1323 39.5311C25.5483 39.6257 25.6852 39.4364 26.3348 39.6217C26.3752 39.1138 26.4055 38.6051 26.4257 38.096C25.9885 38.0956 25.4632 38.1079 25.034 38.0775ZM26.8242 38.0932C26.8713 38.4854 26.9954 39.8845 26.7801 40.1694C26.4816 40.3494 25.8218 40.1169 25.4451 40.1722C25.1571 40.2146 24.9319 40.2868 24.6553 40.3689C24.5001 39.6183 24.4457 38.8259 24.5831 38.0685C24.0945 38.0737 23.497 38.0945 23.0238 38.0176C23.1232 38.4237 23.1702 39.5848 23.1834 40.0442C23.2313 41.7081 23.4075 44.0153 23.2237 45.6462C24.2903 45.5176 29.1605 45.6945 29.6233 45.5003C29.6999 45.1313 29.592 43.4451 29.6011 42.9025C29.6083 41.8146 29.4957 39.1132 29.7755 38.2196C29.7839 38.1928 29.7905 38.1655 29.798 38.1385C28.8052 38.0594 27.7936 38.1538 26.8242 38.0932ZM53.7247 45.1082C53.8948 45.035 54.0308 44.9806 54.0768 44.7803C54.2823 43.8819 54.4273 42.4321 53.684 41.7749C52.8954 41.5974 51.8314 41.6556 51.0048 41.6609L47.848 41.6746L40.2943 41.6731C39.3184 41.675 38.3525 41.7123 37.3773 41.7291C36.0959 41.751 34.8487 41.6718 33.5773 41.6261C32.9684 42.4709 33.1022 43.3754 33.2004 44.3571C33.3021 45.3736 33.8542 45.343 34.6936 45.3714C36.9021 45.3971 39.1081 45.3698 41.3152 45.3282L47.7983 45.2229L51.7514 45.1819C52.33 45.1723 53.1687 45.1829 53.7247 45.1082ZM33.5394 37.0875C32.9491 37.6449 32.9811 39.9075 33.4035 40.5594C33.5849 40.8394 35.5093 40.8385 35.9331 40.836L47.4871 40.6798C49.6468 40.6436 51.5881 40.699 53.7605 40.5494C53.8595 40.4704 54.0286 40.3366 54.0586 40.2185C54.2855 39.3216 54.3615 37.936 53.8194 37.1703C53.0685 37.0466 52.1023 37.1181 51.3167 37.1199L47.3737 37.0992C45.2624 37.0925 43.1618 37.1279 41.0525 37.1303C38.5731 37.1331 36.0129 37.0336 33.5394 37.0875Z" fill="#696565"/>
  <path d="M30.7605 48.8086L30.7741 48.8811C30.6171 48.9661 30.3792 49.0477 30.3579 49.2422C30.3308 49.4897 30.2219 50.2111 30.5321 50.2885C30.6642 49.86 30.4641 50.0002 30.7979 49.544C30.8271 49.732 30.8334 49.9169 30.9645 50.0521C31.1822 50.2011 31.4496 50.137 31.7145 50.1065C32.0525 50.2184 32.5742 50.1439 32.9441 50.1789C32.7417 50.1873 32.3155 50.1818 32.1752 50.3172C32.2246 50.4533 32.2254 50.4177 32.3806 50.5159C32.4906 50.5048 32.4982 50.4861 32.586 50.4198C32.6914 50.4984 32.8691 50.6521 32.9868 50.6722C32.6832 50.671 32.1281 50.6536 31.8517 50.6664C30.5829 50.725 29.9783 50.5271 30.3189 49.1081C30.3589 48.9412 30.6091 48.8658 30.7605 48.8086Z" fill="#696565"/>
  <path d="M18.227 48.4844C18.5241 48.3467 21.0327 48.3235 21.2752 48.6215C21.2837 48.8098 21.3015 48.7344 21.1932 48.9061C20.8893 49.1061 18.8699 49.0371 18.5046 48.9688C18.2023 48.9765 17.8184 49.0309 17.6953 48.6792L17.7593 48.5662C17.9292 48.4722 18.0362 48.4862 18.227 48.4844Z" fill="#696565"/>
  <path d="M18.5046 48.9688C18.2023 48.9764 17.8184 49.0309 17.6953 48.6792L17.7593 48.5662C17.9292 48.4722 18.0362 48.4861 18.227 48.4844C18.5899 48.5129 19.7056 48.4534 19.8832 48.5364C19.7531 48.8835 18.8208 48.9394 18.5046 48.9688Z" fill="#696565"/>
  <path d="M19.9371 46.2422C20.0778 45.9434 20.222 45.746 20.4587 45.5176C20.6289 45.7931 20.9845 46.2961 20.9683 46.6078L20.8985 46.706C20.5481 46.9478 20.6707 47.1487 20.6179 47.5321L20.6074 47.7895C20.6401 47.9774 20.6478 48.0064 20.5915 48.187L20.4961 48.2642C20.3349 48.2175 20.3933 48.2482 20.2746 48.1203C20.0193 47.655 20.1877 47.0155 20.044 46.6796L19.9311 46.6416C19.7754 46.6519 19.8262 46.669 19.6987 46.6027C19.7324 46.4363 19.8145 46.3874 19.9371 46.2422Z" fill="#696565"/>
  <path d="M20.2744 48.1211C20.2793 47.9008 20.2592 47.3642 20.4534 47.2539C20.5815 47.3991 20.5659 47.5651 20.6072 47.7904C20.64 47.9782 20.6476 48.0072 20.5914 48.1878L20.496 48.2651C20.3348 48.2183 20.3932 48.249 20.2744 48.1211Z" fill="#696565"/>
  <path d="M20.618 47.5332C20.6036 47.2825 20.5884 47.058 20.56 46.8087C20.5403 46.7969 20.5208 46.7851 20.5014 46.773C20.3308 46.6666 20.3014 46.6589 20.2642 46.4977C20.3187 46.3465 20.3451 46.3297 20.4673 46.2227C20.6743 46.357 20.6206 46.5288 20.8986 46.707C20.5483 46.9489 20.6708 47.1498 20.618 47.5332Z" fill="#696565"/>
  <path d="M19.9371 46.2441C20.0054 46.4833 19.9956 46.3948 19.9311 46.6436C19.7754 46.6538 19.8262 46.6709 19.6987 46.6046C19.7324 46.4382 19.8145 46.3893 19.9371 46.2441Z" fill="#696565"/>
  <path d="M18.3521 45.6732L18.5135 45.5703C18.6913 45.6338 18.7203 45.7648 18.8265 45.9626C18.9173 46.1227 19.0004 46.2626 19.072 46.4327C18.6704 47.2201 18.9096 47.4714 18.7478 48.0724C18.6711 47.566 18.9141 47.0425 18.2544 46.8769C18.0881 46.644 17.9956 46.8493 17.7666 46.617C17.7788 46.4529 18.2196 45.8691 18.3521 45.6732Z" fill="#696565"/>
  <path d="M18.3521 45.6732L18.5134 45.5703C18.6912 45.6338 18.7203 45.7648 18.8264 45.9626C18.6342 46.0693 18.711 46.0556 18.516 46.055C18.3588 45.8885 18.4039 45.9259 18.3521 45.6732Z" fill="#696565"/>
  <path d="M18.2547 46.877C18.9143 47.0426 18.6714 47.5661 18.7481 48.0724C18.6109 48.2228 18.6529 48.2258 18.4936 48.2549L18.3843 48.1614C18.217 47.7833 18.249 47.2908 18.2547 46.877Z" fill="#696565"/>
  <path d="M17.4079 38.0371L17.4698 38.1373C17.6312 38.0807 17.7143 38.0382 17.8865 38.0431C18.0184 38.8534 17.8499 40.661 17.7228 41.5129C17.6706 41.8626 16.9149 41.491 16.7431 41.4051C16.6914 41.2416 16.6759 41.1669 16.5717 41.0248L16.4683 41.0171C16.352 41.1497 16.3081 41.2237 16.144 41.2876C16.0102 41.2688 16.0061 41.2576 15.9021 41.1625L16.0274 40.9306L15.7827 40.5776C16.3378 40.7032 16.3028 40.2143 17.1012 40.8361C17.2 40.6332 17.3155 38.5223 17.4079 38.0371Z" fill="#696565"/>
  <path d="M22.2718 29.7082L22.3143 29.6328C22.4206 29.669 22.5085 29.6796 22.5752 29.7543C22.5959 30.2241 22.6326 30.7737 22.6342 31.241C23.2101 31.137 23.3318 31.1165 23.9178 31.2635C23.9292 30.762 23.9471 30.2607 23.9717 29.7597L24.0451 29.6896C24.2428 29.6659 24.167 29.6647 24.3825 29.7569C24.4046 30.4791 24.4123 31.2017 24.4055 31.9242C24.1144 31.8835 23.8266 31.8404 23.5318 31.8225C23.1049 31.7966 22.5694 32.0497 22.2271 31.8149C22.0419 31.4781 22.2012 30.1162 22.2718 29.7082Z" fill="#696565"/>
  <path d="M14.446 37.9453C14.6271 37.9986 14.7276 38.0119 14.8576 38.1535C14.9841 38.6613 14.9242 40.2788 14.9928 40.8809C14.9932 40.8843 15.0711 40.9624 15.0906 40.9745C15.3003 40.7496 15.4727 40.6107 15.7827 40.5784L16.0274 40.9314L15.9021 41.1632C16.0061 41.2584 16.0102 41.2696 16.144 41.2884C16.3082 41.2245 16.352 41.1505 16.4683 41.0178L16.5718 41.0256C16.676 41.1677 16.6914 41.2423 16.7432 41.4059C16.5507 41.3405 16.2366 41.2803 16.0287 41.2342C15.47 41.4959 15.2326 41.5327 14.5955 41.4775C14.4484 41.3682 14.4959 41.4268 14.4343 41.2166C14.3431 40.712 14.3509 38.4614 14.446 37.9453Z" fill="#696565"/>
  <path d="M15.0903 40.9742C15.3001 40.7493 15.4725 40.6104 15.7825 40.5781L16.0271 40.9311L15.9019 41.163C16.0059 41.2581 16.0099 41.2693 16.1437 41.2881C16.3079 41.2242 16.3518 41.1502 16.4681 41.0176L16.5715 41.0253C16.6757 41.1674 16.6912 41.242 16.7429 41.4056C16.5505 41.3402 16.2364 41.28 16.0284 41.234C15.4697 41.4956 15.2323 41.5325 14.5952 41.4772C14.4481 41.3679 14.4956 41.4266 14.4341 41.2164L14.478 40.7562C14.4982 40.9896 14.488 41.254 14.688 41.3964C14.8423 41.3284 14.9983 41.2713 15.156 41.2115L15.1737 41.138C15.0818 41.1424 15.0196 41.1502 14.9281 41.1319C15.0633 41.0565 15.0309 41.0992 15.0903 40.9742Z" fill="#696565"/>
  <path d="M40.8522 31.7094C40.7992 31.3121 40.7483 29.9162 40.9841 29.5864C41.1273 29.3863 41.893 29.3125 42.1551 29.3196C43.7298 29.3623 45.889 29.1688 47.3768 29.4803C47.5805 30.2003 47.6191 34.8695 47.4088 35.3848C47.285 35.5039 47.1587 35.4973 46.9817 35.5201C46.6416 35.3825 46.7824 34.5863 46.836 34.2773C45.4278 34.5004 42.901 34.334 41.4281 34.2877C41.4765 34.6589 41.5364 35.4633 41.3307 35.776L41.2259 35.7921C41.0034 35.6167 40.9055 35.2226 40.8905 34.9787C40.8732 34.6963 40.8193 33.0938 40.858 32.9234C40.9279 32.6607 40.9379 31.9754 40.8522 31.7094ZM41.4829 33.668C43.2209 33.5863 44.9302 33.6586 46.646 33.6209L46.7446 33.6203C46.8086 33.4781 46.7603 30.5152 46.8117 30.0145C46.2419 30.1206 42.0219 30.058 41.4532 29.973C41.4559 30.6672 41.5702 33.1542 41.4829 33.668Z" fill="#696565"/>
  <path d="M36.4484 32.5232C36.5129 32.9824 36.6182 35.3893 36.4645 35.7078C36.3191 35.8199 36.3874 35.7891 36.2002 35.8187C35.5442 35.5186 35.8958 33.0089 35.928 32.3606C35.9421 32.0782 36.3646 31.9384 36.5766 31.9362C37.4512 31.9272 39.9417 31.7329 40.6754 31.9359L40.635 31.9799C40.7169 32.1312 40.7263 32.2956 40.7513 32.4647C40.1146 32.6749 37.2787 32.5414 36.4484 32.5232Z" fill="#696565"/>
  <path d="M10.1248 13.0254C10.5333 13.0935 11.3087 13.7878 11.6024 14.1071C12.1056 14.6542 13.617 15.5964 13.1403 16.4071C12.1494 16.0743 10.3916 14.4706 10.0291 13.439C9.9599 13.2418 10.0229 13.1783 10.1248 13.0254Z" fill="#696565"/>
  <path d="M53.6631 12.4648C54.5402 12.9284 51.6325 15.7137 51.1373 16.0289C50.8847 15.8223 50.7074 15.6803 50.9414 15.3061C51.0794 15.0852 51.2706 14.7978 51.4518 14.6068C52.0378 13.989 52.8276 12.6815 53.6631 12.4648Z" fill="#696565"/>
  <path d="M55.1509 18.309C55.5073 18.2266 56.3159 18.1818 56.5203 18.5505C56.4877 18.7343 56.3924 18.81 56.226 18.9285C56.203 18.9446 56.1805 18.9602 56.1575 18.9754C55.4351 19.3781 53.9555 19.5627 53.1065 19.6979C52.9599 19.7212 52.834 19.6385 52.7334 19.5392C52.6979 18.9395 54.6533 18.4392 55.1509 18.309Z" fill="#696565"/>
  <path d="M55.1509 18.309C55.5073 18.2266 56.3158 18.1818 56.5202 18.5505C56.4876 18.7343 56.3923 18.81 56.2259 18.9285C56.2029 18.9446 56.1804 18.9602 56.1574 18.9754C55.8198 18.8291 55.5667 18.603 55.2135 18.4639L55.2338 18.3802L55.1509 18.309Z" fill="#696565"/>
  <path d="M47.7751 10.8691C47.91 10.9009 47.922 10.913 48.0422 10.9869C48.3978 11.485 47.5748 13.8813 47.059 14.3115C46.8102 14.2394 46.6587 14.18 46.6689 13.8803C46.6969 13.0558 47.1004 11.3558 47.7751 10.8691Z" fill="#696565"/>
  <path d="M7.44722 19.9725C8.12826 19.8675 10.6153 20.1891 11.1022 20.9651C11.1398 21.0251 11.0656 21.1202 11.0273 21.1933C10.3604 21.2377 7.67962 20.7958 7.35791 20.3034C7.34169 20.0976 7.32933 20.181 7.44722 19.9725Z" fill="#696565"/>
  <path d="M17.0131 10.5809C17.1699 10.5787 17.2104 10.5786 17.363 10.6123C18.0114 11.0718 18.2615 13.3028 17.9928 14.0536C17.162 13.9799 16.8455 11.1842 17.0131 10.5809Z" fill="#696565"/>
  <path d="M40.8523 31.7109C40.938 31.977 40.9279 32.6623 40.8581 32.925C40.8352 32.7115 40.8324 32.6685 40.7515 32.4645C40.7265 32.2954 40.7172 32.131 40.6353 31.9797L40.6756 31.9357C40.7299 31.875 40.8004 31.7781 40.8523 31.7109Z" fill="white"/>
</svg>