<svg preserveAspectRatio="none" width="100%" height="100%" overflow="visible" style="display: block;" viewBox="0 0 48.4529 56.4552" fill="none" xmlns="http://www.w3.org/2000/svg">
<g id="vectorly-UNI-scales-neraca">
<path id="path4456" fill-rule="evenodd" clip-rule="evenodd" d="M1.58449 34.3774C1.64955 34.4118 1.72717 34.4348 1.78309 34.4693C2.26359 34.7217 3.00658 34.9283 3.91393 35.089C4.8966 35.2611 6.05959 35.3989 7.3139 35.4218C8.87294 35.4792 10.3042 35.3873 11.4204 35.1922C12.1657 35.0545 12.7649 34.8824 13.1461 34.6528C13.2442 34.5955 13.3287 34.5496 13.3869 34.4807C13.4223 34.4463 13.4633 34.4232 13.4656 34.3774C13.4702 34.2856 13.3972 34.1938 13.291 34.102C13.1609 33.9987 12.9908 33.8839 12.782 33.7807C12.6085 33.7118 12.5298 33.5052 12.6051 33.333C12.6804 33.1609 12.8824 33.0806 13.057 33.1494C13.5033 33.3216 13.8263 33.5397 14.0237 33.7463C14.2018 33.9414 14.2771 34.1594 14.2885 34.3774C14.3022 34.6758 14.1561 34.9742 13.848 35.2496C13.5444 35.5251 13.0377 35.8005 12.3723 36.0301C11.1419 36.4547 9.33632 36.7531 7.3139 36.8219C6.20911 36.8563 5.1648 36.8104 4.24147 36.6957C3.45511 36.6039 2.7555 36.4547 2.178 36.2826C1.45554 36.0645 0.907693 35.789 0.572153 35.5021C0.165843 35.1463 -0.0087893 34.7561 0.000339382 34.3774C0.00718834 34.0789 0.104213 33.7806 0.345032 33.5167C0.66118 33.1609 1.29458 32.7936 2.20193 32.5527C3.46195 32.2198 5.28806 32.0477 7.3139 32.1166C7.98271 32.151 8.62645 32.1969 9.23477 32.2772C9.92413 32.3575 10.5633 32.4723 11.1362 32.61C11.3222 32.6444 11.4444 32.8166 11.4101 33.0117C11.3748 33.1953 11.1955 33.3216 11.0095 33.2871C10.4514 33.2068 9.83165 33.1494 9.16626 33.1265C8.57734 33.1151 7.95646 33.115 7.3139 33.1379C6.04932 33.1838 4.87949 33.3445 3.89224 33.5397C2.97919 33.7348 2.23733 33.9757 1.7614 34.2511C1.70205 34.2856 1.63814 34.3315 1.58449 34.3774ZM1.50232 34.3315C1.50457 34.2856 1.50574 34.2512 1.48178 34.2626C1.4521 34.2856 1.46581 34.3085 1.50232 34.3315Z" fill="var(--fill-0, #283E37)"/>
<path id="path4496" fill-rule="evenodd" clip-rule="evenodd" d="M0.412131 34.2812C0.455181 34.0953 0.639144 33.9778 0.823087 34.0267C1.00801 34.0659 1.12348 34.2518 1.0814 34.4377C0.710582 36.6 1.52167 38.1851 2.78285 39.2711C3.59689 39.9756 4.6047 40.4453 5.61736 40.7388C6.33454 40.9345 7.05367 41.0617 7.71509 41.0519C9.45765 41.0812 10.6934 40.5822 11.5651 39.8778C12.9359 38.7526 13.4427 37.1578 13.5308 36.2576C13.5396 36.0717 13.7001 35.9249 13.8889 35.9347C14.0777 35.9347 14.2245 36.1011 14.2167 36.287C14.2274 37.3437 13.839 39.3005 12.3548 40.7584C11.3666 41.727 9.88816 42.451 7.74542 42.5782C6.93627 42.5978 6.04685 42.4902 5.17606 42.226C3.96282 41.8444 2.77503 41.1791 1.86706 40.2496C0.472814 38.8309 -0.313859 36.8153 0.412131 34.2812Z" fill="var(--fill-0, #283E37)"/>
<path id="path4498" fill-rule="evenodd" clip-rule="evenodd" d="M22.3209 5.41564C22.3747 5.45477 22.6271 5.61136 22.8316 5.69942C23.4177 5.95381 24.2523 6.18861 25.1476 6.41365C27.1152 6.92243 29.3773 7.35299 30.1512 7.49975C30.6776 7.16709 31.9055 6.4528 33.1902 5.99294C34.1079 5.66028 35.054 5.46458 35.8211 5.58199C37.4629 5.83638 38.865 6.72672 40.0871 7.71493C41.4206 8.80098 42.5155 9.99467 43.5477 10.3273C44.0976 10.5035 44.6142 10.3763 45.1416 9.75987C45.2609 9.61311 45.4772 9.59354 45.6239 9.71095C45.7707 9.82836 45.7932 10.0437 45.6738 10.1904C44.941 11.1493 44.1563 11.3352 43.3207 11.1199C42.3775 10.8753 41.3326 10.0143 40.1487 9.09456C38.8689 8.10636 37.4091 7.03984 35.6568 6.85394C35.0717 6.79523 34.3672 7.00068 33.6794 7.27464C32.154 7.89105 30.7285 8.89888 30.7285 8.89888C30.57 9.01629 30.3743 9.05541 30.1835 9.02605C30.1835 9.02605 28.7305 8.81076 27.0095 8.44875C25.9694 8.23349 24.8325 7.95953 23.855 7.66601C22.9109 7.38227 22.1096 7.06925 21.6428 6.76594C21.2652 6.52133 21.049 6.24735 20.9648 6.01253C20.596 4.95584 19.5725 3.8404 18.1626 3.2827C17.014 2.83262 15.6148 2.72498 14.0757 3.31203C12.296 3.96757 10.9898 4.08502 10.027 3.93826C8.66803 3.72301 7.96359 3.0088 7.59375 2.5098C7.47732 2.35325 7.5047 2.138 7.65342 2.02059C7.80312 1.91296 8.01934 1.93246 8.13479 2.089C8.45278 2.47059 9.04669 2.98923 10.1327 3.09685C10.9908 3.17513 12.1346 2.98923 13.6736 2.31412C15.4994 1.52159 17.2038 1.57046 18.6176 2.05967C20.4423 2.69564 21.7701 4.09477 22.3209 5.41564ZM22.3512 5.49399C22.3522 5.49399 22.3522 5.49399 22.3522 5.49399H22.3512Z" fill="var(--fill-0, #283E37)"/>
<path id="path4500" fill-rule="evenodd" clip-rule="evenodd" d="M27.6694 4.96108C27.7183 5.1372 27.6087 5.33286 27.4258 5.38178C27.2428 5.4307 27.055 5.31329 27.007 5.13718L26.3065 2.76938C26.2605 3.08247 26.2126 3.3956 26.1646 3.68913C26.0511 4.37403 25.9239 4.94149 25.8358 5.13718C25.6607 5.53833 25.6617 5.83191 25.7635 6.07652C25.9337 6.47767 26.3153 6.73204 26.5697 6.98643C26.6841 7.11363 26.7487 7.27014 26.7497 7.43647C26.7497 7.43647 26.8534 10.7142 26.9082 15.1758C26.9278 16.7707 26.9356 18.522 26.9287 20.3321C26.9199 22.8857 26.8818 25.5569 26.8436 28.0714C26.7487 34.3725 26.6205 39.6755 26.6205 39.6755C26.6215 39.8614 26.4689 40.0179 26.28 40.0179C26.0902 40.0179 25.9357 39.8712 25.9347 39.6755C25.9347 39.6755 25.7449 34.3822 25.5756 28.0812C25.5081 25.5666 25.4386 22.8956 25.3995 20.3419C25.3721 18.5318 25.3584 16.7804 25.3594 15.1856C25.3613 11.448 25.4073 8.5421 25.422 7.70066C25.0345 7.27994 24.5864 6.80051 24.4827 6.13519C24.4181 5.71446 24.4631 5.22522 24.7586 4.62838C24.8584 4.43269 25.0042 3.76744 25.1549 3.04341C25.4092 1.8106 25.6549 0.411417 25.6549 0.411417C25.6881 0.18638 25.875 0.0102452 26.1029 0.000460997C26.3299 -0.00932322 26.5354 0.137459 26.5932 0.362496L27.6694 4.96108Z" fill="var(--fill-0, #283E37)"/>
<path id="path4502" fill-rule="evenodd" clip-rule="evenodd" d="M22.7087 49.9011C22.5932 50.0577 22.378 50.0871 22.2283 49.9696C22.0776 49.8522 22.0493 49.6369 22.1647 49.4902C22.5776 48.8346 22.7478 47.8856 22.831 46.6626C22.8682 46.1245 22.876 45.5374 22.8799 44.8916C22.8838 44.3339 22.8721 43.7371 22.8731 43.1011C22.875 42.5336 22.8907 41.9271 22.8975 41.3009C22.9044 40.7138 22.923 40.1072 22.925 39.4712C22.9338 38.9233 23.1754 38.3753 23.829 38.0818C24.2683 37.8861 24.9023 37.7882 25.7682 37.9448C25.957 37.9644 26.095 38.1308 26.0774 38.3167C26.0588 38.5124 25.8905 38.6493 25.7027 38.6297C25.1763 38.6297 24.7781 38.7178 24.4816 38.845C24.189 38.9722 24.0648 39.1874 24.0971 39.4027C24.1842 40.0582 24.2693 40.6844 24.325 41.291C24.3867 41.9563 24.4278 42.5923 24.4366 43.1989C24.4415 43.5512 24.4297 43.8936 24.4121 44.2263C24.3818 44.7742 24.3299 45.2927 24.2614 45.7722C24.1959 46.232 24.1186 46.6626 24.0208 47.0637C23.7126 48.3259 23.282 49.2847 22.7087 49.9011Z" fill="var(--fill-0, #283E37)"/>
<path id="path4504" fill-rule="evenodd" clip-rule="evenodd" d="M27.8719 38.6043C27.683 38.5945 27.5353 38.4379 27.5412 38.2422C27.549 38.0563 27.7075 37.9096 27.8963 37.9194C28.4423 37.8802 28.9354 37.89 29.3043 38.5162C29.5068 38.8488 29.6409 39.4457 29.6741 40.4926C29.679 40.8742 29.7191 41.52 29.7593 42.3223C29.7867 42.8702 29.8268 43.4865 29.8532 44.1518C29.8767 44.7389 29.8855 45.3554 29.9099 45.9718C29.9344 46.5882 29.9589 47.1948 30.0078 47.7916C30.1037 48.9657 30.2514 50.0322 30.5782 50.7758C30.6682 50.9421 30.6066 51.1476 30.4402 51.2357C30.2739 51.3237 30.0655 51.265 29.9755 51.0986C29.5557 50.4627 29.2084 49.5527 28.9354 48.5058C28.7163 47.6644 28.5509 46.7447 28.4316 45.825C28.3846 45.463 28.3454 45.1108 28.32 44.7487C28.2946 44.3867 28.2818 44.0247 28.2779 43.6725C28.273 43.2126 28.2838 42.7723 28.3014 42.3809C28.3415 41.5199 28.4149 40.8252 28.4619 40.4241C28.5715 39.6414 28.5862 39.1815 28.4824 38.9075C28.3699 38.6042 28.1136 38.6336 27.8719 38.6043Z" fill="var(--fill-0, #283E37)"/>
<path id="path4506" fill-rule="evenodd" clip-rule="evenodd" d="M23.42 39.1956C23.2703 39.0782 23.2429 38.8629 23.3593 38.7064C23.4747 38.5596 23.691 38.5302 23.8407 38.6476C23.8407 38.6476 24.5432 38.902 25.6067 38.9118C25.7848 38.9118 25.9717 38.902 26.1723 38.8922C26.3523 38.8922 26.5411 38.902 26.7397 38.8922C27.0499 38.8726 27.3728 38.8629 27.7309 38.7944C28.0616 38.7357 28.3962 38.677 28.766 38.54C28.9284 38.4422 29.1398 38.5009 29.2377 38.6574C29.3355 38.8238 29.2836 39.0292 29.1212 39.1271C28.771 39.4499 28.4354 39.6945 28.0861 39.9C27.8121 40.0663 27.544 40.174 27.2739 40.2718C26.9452 40.3795 26.6233 40.4381 26.3161 40.4577C26.135 40.4675 25.96 40.4577 25.7926 40.4284C25.5148 40.3892 25.2603 40.3305 25.0294 40.2424C24.7604 40.1446 24.5295 40.037 24.3289 39.9098C23.7194 39.538 23.42 39.1956 23.42 39.1956Z" fill="var(--fill-0, #283E37)"/>
<path id="path4508" fill-rule="evenodd" clip-rule="evenodd" d="M21.9137 51.4465C21.7777 51.3193 21.7728 51.1041 21.9039 50.9672C22.0341 50.8302 22.2512 50.8203 22.3882 50.9573C22.3882 50.9573 22.9978 51.2803 24.4185 51.427C24.7717 51.4662 25.1699 51.4759 25.6259 51.5053C25.8802 51.5151 26.1503 51.5444 26.4389 51.564C26.9144 51.6031 27.4271 51.6521 28.0044 51.6716C28.5063 51.6814 29.0288 51.7108 29.6139 51.701C29.7998 51.6618 29.9779 51.789 30.0092 51.9749C30.0415 52.1608 29.9162 52.3369 29.7294 52.376C28.8664 52.65 28.1071 52.8555 27.3958 52.9631C26.8 53.0609 26.2579 53.1001 25.7667 53.0805C25.5339 53.0707 25.3147 53.0414 25.1083 53.0023C24.7453 52.9436 24.4214 52.8652 24.1318 52.7674C23.7629 52.65 23.4547 52.5229 23.1925 52.3859C22.2483 51.8869 21.9137 51.4465 21.9137 51.4465Z" fill="var(--fill-0, #283E37)"/>
<path id="path4510" fill-rule="evenodd" clip-rule="evenodd" d="M31.7882 49.5076C31.6091 49.4489 31.5152 49.2532 31.5768 49.0771C31.6395 48.8912 31.8351 48.8031 32.0142 48.8619C33.1345 49.1945 33.8614 49.5957 34.289 50.0066C34.7087 50.4078 34.8555 50.848 34.8467 51.2687C34.836 51.7873 34.5297 52.3059 33.9769 52.7755C33.5033 53.1865 32.8253 53.5485 32.0211 53.8518C31.1092 54.1845 29.9624 54.4388 28.711 54.5758C27.6446 54.6932 26.5037 54.7422 25.3795 54.7031C23.9638 54.6443 22.5764 54.4486 21.3964 54.1551C20.3289 53.8811 19.4268 53.5093 18.7987 53.0788C17.5629 52.208 16.7665 51.0535 17.7028 50.036C18.2165 49.4783 19.4288 48.8911 21.819 48.4606C22.004 48.4215 22.1879 48.5389 22.229 48.7248C22.2711 48.9107 22.1546 49.0967 21.9697 49.1358C19.9434 49.6837 18.9063 50.2023 18.5042 50.7209C18.3427 50.9263 18.4249 51.1122 18.5688 51.2981C18.7801 51.5622 19.1235 51.7971 19.4875 52.0124C20.0344 52.3451 20.8132 52.5701 21.7153 52.756C22.8258 52.981 24.1193 53.0887 25.4372 53.1376C26.4959 53.1767 27.5682 53.1767 28.577 53.0984C29.7178 53.0201 30.7745 52.8832 31.6199 52.6288C32.4212 52.4037 33.0895 52.1004 33.4965 51.7286C33.6794 51.5623 33.8213 51.3959 33.8419 51.2002C33.8683 50.9556 33.7293 50.7013 33.4309 50.4469C33.0758 50.1338 32.5406 49.8109 31.7882 49.5076Z" fill="var(--fill-0, #283E37)"/>
<path id="path4512" fill-rule="evenodd" clip-rule="evenodd" d="M17.5374 51.2018C17.5394 51.0061 17.695 50.8594 17.8838 50.8594C18.0726 50.8594 18.2253 51.0159 18.2233 51.2018C18.2497 51.6128 18.2135 52.4444 18.5119 53.1097C18.6372 53.3935 18.8505 53.6186 19.191 53.736C19.7076 53.9219 20.2046 54.0785 20.685 54.2154C21.4746 54.4503 22.2182 54.6067 22.9403 54.7241C23.3669 54.7828 23.7856 54.8416 24.2014 54.8807C24.6271 54.9199 25.0497 54.9492 25.4753 54.959C26.5213 54.9884 27.5809 54.9297 28.7316 54.8025C29.7579 54.6851 30.844 54.5383 32.0464 54.3426C32.2314 54.3035 32.4153 54.4209 32.4574 54.6068C32.4994 54.7927 32.384 54.9687 32.2 55.0177C30.4252 55.546 28.8989 55.9863 27.4391 56.231C26.2914 56.4169 25.1907 56.5049 24.0753 56.4266C23.1673 56.3679 22.2505 56.1918 21.2985 55.8885C20.4727 55.6341 19.6283 55.2721 18.7223 54.8318C18.0991 54.5089 17.7361 54.0295 17.5727 53.4522C17.3379 52.6303 17.4973 51.6715 17.5374 51.2018Z" fill="var(--fill-0, #283E37)"/>
<path id="path4514" fill-rule="evenodd" clip-rule="evenodd" d="M34.0351 51.3183C33.9568 51.1422 34.0321 50.9367 34.2043 50.8585C34.3775 50.7802 34.5811 50.8585 34.6593 51.0346C34.6593 51.0346 34.8295 51.2107 35.0585 51.5825C35.1358 51.6999 35.1828 51.8369 35.2415 51.9935C35.2943 52.1402 35.3109 52.2968 35.3256 52.4631C35.3354 52.5707 35.3315 52.6783 35.31 52.786C35.2699 52.9816 35.2004 53.1774 35.0781 53.3633C34.9949 53.4807 34.9254 53.598 34.807 53.6959C34.5732 53.9013 34.3609 54.0873 34.0067 54.2047C33.8609 54.3221 33.6447 54.3025 33.5243 54.1558C33.405 54.009 33.4265 53.7938 33.5733 53.6764C33.675 53.5003 33.6829 53.3339 33.7318 53.1676C33.768 53.0404 33.7396 52.9327 33.7572 52.8153C33.7748 52.7077 33.7562 52.6001 33.7729 52.4924C33.7973 52.3457 33.8599 52.2185 33.8834 52.0815C33.9666 51.6118 34.0351 51.3183 34.0351 51.3183Z" fill="var(--fill-0, #283E37)"/>
<path id="path4516" fill-rule="evenodd" clip-rule="evenodd" d="M8.56386 2.88355C8.69106 2.73679 8.90829 2.72702 9.0482 2.85422C9.18909 2.98141 9.19986 3.19666 9.07266 3.34343C8.8985 3.62717 8.87499 4.11636 8.97186 4.54687C9.02078 4.76212 9.19592 4.8893 9.50607 4.91865C9.7272 4.98714 9.96299 4.96759 10.0912 4.79147C10.1303 4.74255 10.1871 4.69367 10.2125 4.63496C10.3084 4.38057 10.3573 4.07728 10.2183 3.72505C10.1205 3.55872 10.1714 3.34343 10.3329 3.24558C10.4953 3.14774 10.7056 3.20647 10.8044 3.36301C11.3993 4.03813 11.4072 4.75237 11.2281 5.31986C11.0451 5.88734 10.5373 6.26887 9.96595 6.4352C9.72721 6.49391 9.46792 6.49393 9.20376 6.45479C8.99926 6.40587 8.81627 6.35701 8.66266 6.26895C8.15192 5.99499 7.8408 5.60362 7.74491 5.14376C7.69012 4.8698 7.66467 4.58606 7.7312 4.3121C7.87112 3.71527 8.20087 3.15751 8.56386 2.88355Z" fill="var(--fill-0, #283E37)"/>
<path id="path4518" fill-rule="evenodd" clip-rule="evenodd" d="M1.0779 34.4572C1.02507 34.6333 0.834267 34.7409 0.65228 34.692C0.471272 34.6333 0.366569 34.4474 0.420383 34.2615C0.420383 34.2615 1.9653 28.4986 3.75581 22.1193C4.51702 19.3993 5.32033 16.5814 6.07077 14.0375C7.37892 9.615 8.52466 6.05353 8.86319 5.35885C9.01387 5.05554 9.34651 4.88922 9.68405 4.93815C10.0206 4.98707 10.2848 5.25126 10.3357 5.59371C10.3357 5.59371 11.1145 10.9652 11.9442 17.0706C13.0322 25.0643 14.2151 34.3104 14.2151 34.3104C14.2435 34.4963 14.1143 34.6724 13.9265 34.7018C13.7396 34.7213 13.5645 34.5941 13.5371 34.4082C13.5371 34.4082 11.9472 25.2306 10.6312 17.2663C10.096 14.0277 9.60873 10.9946 9.26923 8.86168C9.00799 9.66398 8.70664 10.5934 8.37594 11.6208C7.52178 14.2723 6.48368 17.5305 5.45634 20.7495C3.23728 27.7061 1.0779 34.4572 1.0779 34.4572Z" fill="var(--fill-0, #283E37)"/>
<path id="path4520" fill-rule="evenodd" clip-rule="evenodd" d="M8.20694 36.139C8.19618 36.3249 8.03374 36.4717 7.84491 36.4619C7.65607 36.4521 7.51128 36.2858 7.52205 36.0998C7.52205 36.0998 7.55333 32.0785 7.68835 26.9516C7.71966 25.7873 7.76271 24.5545 7.81457 23.3021C7.84784 22.4998 7.8821 21.6779 7.932 20.8658C8.0592 18.7915 8.22552 16.7173 8.385 14.7898C8.80963 9.68247 9.21862 5.69051 9.21862 5.69051C9.22938 5.50461 9.39178 5.35787 9.5806 5.36765C9.76944 5.37743 9.91427 5.534 9.90351 5.72969C9.90351 5.72969 9.86634 9.74116 9.71958 14.8681C9.66479 16.7956 9.59825 18.8796 9.49356 20.9539C9.45247 21.766 9.39571 22.5781 9.33896 23.3902C9.2509 24.6328 9.15696 25.8655 9.05814 27.0299C8.62177 32.1372 8.20694 36.139 8.20694 36.139Z" fill="var(--fill-0, #283E37)"/>
<path id="path4522" fill-rule="evenodd" clip-rule="evenodd" d="M36.0429 42.4172C36.5199 42.6383 37.2414 42.8276 38.1203 42.9855C39.0762 43.1433 40.2059 43.2696 41.4229 43.3117C42.9369 43.3748 44.3266 43.3011 45.4193 43.1328C46.1593 43.0275 46.7565 42.8802 47.144 42.6909C47.2715 42.6277 47.3763 42.5646 47.4431 42.4909C47.4668 42.4699 47.4976 42.4593 47.4986 42.4277C47.4986 42.2383 47.6528 42.0805 47.8419 42.0805C48.0311 42.0805 48.1843 42.2383 48.1843 42.4277C48.1976 42.6908 48.0465 42.9644 47.7217 43.217C47.4185 43.459 46.9292 43.68 46.2919 43.8799C45.0975 44.2587 43.3635 44.5218 41.4229 44.606C40.4166 44.6376 39.4616 44.6165 38.6054 44.5428C37.4295 44.4375 36.4366 44.2376 35.7397 43.9851C35.2299 43.7957 34.8578 43.5642 34.6306 43.3433C34.3418 43.0486 34.2226 42.7329 34.2246 42.4277C34.2278 42.1226 34.3418 41.7964 34.6347 41.5123C34.8639 41.2914 35.2361 41.0703 35.7469 40.8914C36.9506 40.4705 39.0474 40.2286 41.4229 40.3022C42.718 40.3548 43.9216 40.4915 44.9321 40.6915C45.9013 40.8809 46.6938 41.1229 47.2293 41.3965C47.402 41.4702 47.4791 41.6701 47.402 41.849C47.325 42.0174 47.1224 42.1016 46.9498 42.0175C46.4389 41.8175 45.6958 41.6702 44.7984 41.5754C43.8178 41.4702 42.6615 41.4387 41.4229 41.4913C40.2038 41.5333 39.0721 41.6596 38.1141 41.828C37.2373 41.9858 36.5188 42.1857 36.0429 42.4172ZM35.7808 42.5329C35.7233 42.5645 35.6904 42.5961 35.7243 42.6276C35.7623 42.6487 35.7757 42.5961 35.7808 42.5329ZM35.7808 42.312C35.7767 42.2489 35.7634 42.1962 35.7274 42.2279C35.6955 42.2489 35.7253 42.2804 35.7808 42.312Z" fill="var(--fill-0, #283E37)"/>
<path id="path4524" fill-rule="evenodd" clip-rule="evenodd" d="M42.6822 10.2013C42.8387 10.0937 43.052 10.1329 43.1587 10.2894C43.2653 10.446 43.2252 10.6613 43.0687 10.7689C42.8143 11.0233 42.781 11.3167 42.8025 11.5711C42.8104 11.6788 42.8818 11.7473 42.9287 11.8353C42.9571 11.8842 43.0139 11.9039 43.055 11.943C43.1342 12.0213 43.2487 12.0506 43.374 12.0506C43.5256 12.0799 43.6753 12.1093 43.7976 12.0506C43.9081 11.9919 44.0363 11.943 44.0843 11.7962C44.1665 11.5516 44.2193 11.2385 44.141 10.8276C44.0725 10.6515 44.1606 10.4558 44.3367 10.3873C44.5128 10.3188 44.7124 10.4068 44.7799 10.583C45.2133 11.2874 45.2417 11.8647 45.1576 12.3245C45.1204 12.53 45.0187 12.6964 44.9179 12.8529C44.6752 13.2443 44.2574 13.4595 43.7907 13.5769C43.6215 13.616 43.4415 13.6161 43.2585 13.6063C42.9845 13.5868 42.7262 13.5182 42.51 13.3911C41.9826 13.078 41.6001 12.5496 41.5883 11.943C41.5756 11.2972 41.8319 10.5731 42.6822 10.2013Z" fill="var(--fill-0, #283E37)"/>
<path id="path4526" fill-rule="evenodd" clip-rule="evenodd" d="M43.2459 16.7004C42.831 18.168 42.3036 19.978 41.7156 21.9545C40.9417 24.5473 40.0621 27.4336 39.206 30.1928C37.1992 36.6895 35.3324 42.5308 35.3324 42.5308C35.2786 42.7069 35.0878 42.8145 34.9068 42.7558C34.7248 42.7068 34.6211 42.521 34.6739 42.3351C34.6739 42.3351 36.4165 35.8676 38.2921 28.9698C39.0338 26.24 39.7979 23.4515 40.4789 20.9565C41.0415 18.9019 41.5493 17.0526 41.9348 15.6241C42.3614 14.0391 42.651 13.0118 42.6529 12.8356C42.6598 12.4345 42.9768 12.092 43.3828 12.0724C43.7889 12.043 44.147 12.3269 44.2077 12.7378C44.2077 12.7378 45.0051 18.2854 45.8544 24.5865C46.9678 32.8443 48.1801 42.384 48.1801 42.384C48.2084 42.5699 48.0793 42.746 47.8914 42.7754C47.7045 42.7949 47.5304 42.6677 47.502 42.4818C47.502 42.4818 45.8808 33.0009 44.5394 24.7821C44.0423 21.7295 43.5844 18.8529 43.2459 16.7004Z" fill="var(--fill-0, #283E37)"/>
<path id="path4528" fill-rule="evenodd" clip-rule="evenodd" d="M41.7637 43.9783C41.751 44.1642 41.5876 44.3109 41.3987 44.2914C41.2099 44.2816 41.0671 44.1152 41.0788 43.9293C41.0788 43.9293 41.1551 39.82 41.3459 34.5757C41.3899 33.3722 41.4467 32.1198 41.5123 30.8381C41.5543 30.0064 41.5974 29.1747 41.6561 28.3431C41.8058 26.2199 41.9946 24.0967 42.1757 22.1301C42.6561 16.9053 43.109 12.8155 43.109 12.8155C43.1217 12.6296 43.2851 12.4829 43.474 12.4926C43.6628 12.5122 43.8057 12.6687 43.7939 12.8644C43.7939 12.8644 43.7118 16.9739 43.5092 22.2182C43.4329 24.1848 43.3448 26.3177 43.2167 28.4507C43.1668 29.2823 43.1012 30.114 43.0356 30.9359C42.9339 32.2176 42.8273 33.47 42.7147 34.6637C42.2226 39.8884 41.7637 43.9783 41.7637 43.9783Z" fill="var(--fill-0, #283E37)"/>
<path id="path4530" fill-rule="evenodd" clip-rule="evenodd" d="M47.776 44.4968C47.818 44.3207 48.0019 44.2033 48.1869 44.2424C48.3708 44.2816 48.4863 44.4675 48.4442 44.6534C48.1282 46.5222 47.2104 47.9604 46.1029 48.9975C45.2908 49.7509 44.3681 50.2793 43.5042 50.6119C42.7214 50.9055 41.9759 51.0229 41.382 51.0033C40.4691 50.9544 39.6365 50.788 38.8968 50.5141C37.5965 50.0249 36.5662 49.2226 35.8285 48.2637C34.4763 46.5026 34.0751 44.2424 34.67 42.3345C34.717 42.1486 34.9038 42.041 35.0868 42.0899C35.2708 42.1388 35.3813 42.3247 35.3344 42.5106C35.0007 44.1739 35.5428 46.0427 36.8196 47.4223C37.479 48.1463 38.3489 48.7138 39.4124 49.066C40.0288 49.2715 40.7098 49.4183 41.4612 49.4574C41.8966 49.4868 42.4426 49.4085 43.0306 49.2324C43.7703 49.0074 44.5697 48.6258 45.3094 48.0583C46.3651 47.2462 47.3122 46.1014 47.776 44.4968Z" fill="var(--fill-0, #283E37)"/>
</g>
</svg>
