<svg width="88" height="88" viewBox="0 0 88 88" fill="none" xmlns="http://www.w3.org/2000/svg">
<g clip-path="url(#clip0_981_249)">
<path d="M16.4219 66.4734C16.7486 66.3576 17.026 66.3082 17.1499 66.705C17.0835 66.9413 17.0666 66.9515 16.8137 67.1066L16.4219 66.4734Z" fill="#696565"/>
<path d="M39.5176 24.3359C39.5848 24.3681 39.6661 24.407 39.7618 24.4527C40.2823 25.2868 40.415 26.4193 41.1939 27.1325C41.9892 27.8607 42.7973 27.9063 43.7329 28.2678C43.8685 28.3202 43.8643 28.4084 43.8937 28.5236C43.8004 28.7843 43.7086 28.842 43.5064 29.0366C43.1764 29.1538 42.8263 29.2038 42.4767 29.1835C40.6542 29.0795 38.984 27.283 39.1367 25.451C39.1703 25.0472 39.2005 24.6159 39.5176 24.3359Z" fill="#696565"/>
<path d="M46.8927 30.2578L46.9444 30.348C46.9231 30.441 46.1179 31.6248 45.9748 31.8436C45.022 33.3002 43.9145 37.8648 41.5484 34.9909C41.4361 34.7323 41.2157 34.3637 41.4078 34.127C41.849 34.1747 42.8936 35.2133 43.2354 34.7516C44.3677 33.2224 45.0196 31.1979 46.8927 30.2578Z" fill="#696565"/>
<path d="M36.9948 34.2188C37.4928 34.3128 37.7214 35.1142 38.0345 35.654C38.9214 37.183 39.4586 37.4779 40.9706 38.2393C41.2269 38.3685 41.6153 38.5728 41.8117 38.7864C41.8526 39.0034 41.8453 38.9276 41.7498 39.162C39.8877 39.3915 38.3025 38.2274 37.4083 36.6327C37.0364 35.9695 36.765 34.9654 36.9948 34.2188Z" fill="#696565"/>
<path d="M48.1002 32.0703C48.1312 32.0771 48.2715 32.1216 48.2791 32.1539C48.4798 33.0065 48.8032 33.7154 49.3413 34.4054C49.7284 34.9018 49.9877 34.8321 50.5349 34.9993C51.04 35.1537 51.8181 35.1058 51.8959 35.7263C51.7957 35.9931 51.7632 36.0084 51.558 36.2187C49.5774 36.3819 48.0216 35.5859 47.6669 33.5101C47.5628 32.9008 47.7334 32.5253 48.1002 32.0703Z" fill="#696565"/>
<path d="M31.2911 10.8651C35.5454 7.42173 40.975 5.77174 46.4259 6.26553C48.7426 6.49739 49.7736 7.02854 51.8019 7.9462C54.5138 9.17347 55.5538 10.3165 56.8722 13.0028C57.145 13.5583 57.4678 14.1301 56.8497 14.6249C56.4307 14.6661 56.1455 14.0399 55.9356 13.7245C55.3764 12.8847 54.7029 11.5259 53.9298 10.8925C46.5842 4.87439 34.3824 8.21843 29.045 15.3925C26.6885 18.56 24.7825 22.0969 21.8995 24.8466C18.9216 27.6731 14.6395 28.9934 11.4923 31.5927C9.86284 32.9386 8.24077 35.5596 7.74131 37.6239C7.23146 39.7313 7.3246 42.7379 8.17393 44.7802C8.67164 45.9306 9.64066 47.4188 10.3214 48.5175C10.4398 45.5525 10.6149 42.8083 12.171 40.1601C13.6921 37.4297 16.0439 35.9599 19.1222 35.5331C21.291 35.2325 23.829 35.2326 25.7511 34.0146C26.9908 33.2287 29.6558 30.8013 30.1075 29.3495C30.6671 27.5509 30.7176 26.702 31.7892 24.9228C31.0161 24.3016 30.6927 23.8737 30.4132 22.869C29.7437 20.4602 33.1934 16.2353 35.7003 17.8466C36.2483 18.199 36.3632 18.8161 36.4689 19.4257C40.0254 17.354 43.3722 19.7391 46.6837 20.9452C48.9285 21.7628 51.8647 21.5248 54.0626 20.6747C54.8479 20.3711 55.6361 20.0081 56.4708 19.9052L56.5763 19.8935C55.1321 23.4441 54.8038 25.5876 56.2062 29.2675C56.5292 30.1153 57.0438 31.0097 57.2706 31.8759C57.3621 32.2253 57.6284 33.8466 57.463 34.119C57.2768 34.0218 57.0554 33.56 56.8273 33.3075L56.7433 33.3349C56.6459 33.6355 56.6934 33.7834 56.7374 34.0966C56.4347 34.7234 56.0135 35.1852 55.5733 35.7187C56.3398 35.4163 57.0455 34.8412 57.8214 34.5829C58.5547 34.3389 60.877 33.5799 60.9962 34.8534C60.8976 35.1055 60.9737 35.0065 60.7687 35.1698C60.5619 35.0994 60.4605 35.1441 60.2501 35.1982C60.0021 35.0457 59.1587 35.1249 58.8683 35.2216C55.5652 36.3214 52.3077 39.3059 50.4571 42.1806C48.687 44.958 48.4288 48.3201 47.1339 51.2646C46.4435 52.8347 45.301 54.4154 44.1124 55.6239C42.4257 57.3384 41.3372 59.0381 40.2306 61.1649C39.7778 62.0355 38.7701 64.8225 37.5509 64.4833C37.2793 64.2734 37.2042 63.8575 37.1046 63.5155C36.445 64.1492 35.9886 64.7933 35.3048 65.4276C35.199 65.2049 35.1364 64.9909 34.9337 64.8778C34.4818 64.9464 34.3578 65.3654 34.0274 65.6396C33.8719 65.7689 33.6156 65.9053 33.4308 65.996C32.754 65.0794 32.6687 64.7158 32.6808 63.579C31.7362 64.2608 30.7704 64.4634 30.7677 62.9501L30.8331 62.7851L30.7286 62.6825C31.0313 61.4395 31.4908 60.1382 31.7657 58.8944C32.9042 53.7448 36.3336 50.1341 40.6153 47.2899C43.2743 45.5238 45.2903 44.3779 48.464 43.7763C48.7853 42.782 49.3704 41.8697 49.9132 40.9843C49.3213 41.3148 48.7246 41.8178 48.0743 42.1903C45.7716 43.5278 43.1292 44.1669 40.4698 44.0282C37.6827 43.9091 34.9776 43.0179 33.0519 40.9071C31.1692 38.8433 29.893 34.8021 30.0216 32.0136C28.464 33.6979 27.5607 34.8098 25.2579 35.744C24.7445 35.9522 23.5648 36.2138 23.1866 36.4315L23.1642 36.5233L23.3556 36.6513C23.1187 36.7563 23.0867 36.8158 22.963 37.0614C22.8646 36.8446 22.8432 36.6961 22.669 36.5858C22.0256 36.5875 21.4146 36.7151 20.7823 36.7831C18.6033 37.0175 16.2874 37.6208 14.6896 39.2314C12.4986 41.4397 11.6064 45.3621 11.6476 48.4247C11.6717 50.0199 11.8418 51.6095 12.1544 53.1737C13.4067 59.1319 16.8078 66.026 21.2774 70.1884C23.0571 71.8459 26.4412 74.2359 28.795 74.788C40.2777 77.481 46.5196 66.0416 50.7091 57.454C51.4959 55.8411 52.0831 54.2587 52.8956 52.7704C53.3458 52.0453 53.7817 50.6097 54.1622 49.7821C54.7398 48.5258 55.3332 47.1645 55.9405 45.9237C56.6691 44.4365 57.3411 42.3818 58.3507 41.1415C58.952 40.4031 60.0625 39.4612 60.8419 38.8886C61.3394 38.5235 61.91 38.1843 62.3595 37.7646C62.4339 37.6949 62.4029 37.6213 62.4015 37.4823V37.3788C62.6046 37.224 62.6366 37.2181 62.7023 36.9862C62.8661 37.3953 62.935 37.6811 63.044 38.1103C61.6987 39.2251 60.2806 40.4727 59.3097 41.9442C58.1789 43.6701 57.4358 45.6127 56.5616 47.4716C56.0505 48.5581 55.4865 49.6516 54.9083 50.705C54.4101 51.6122 54.1046 52.7007 53.1896 53.2323C54.8201 53.1225 61.7299 48.5541 63.2052 47.3964C64.0428 46.7386 64.8175 46.0037 65.5196 45.203C67.0978 43.3849 67.8477 41.0695 67.6534 38.6786C67.4029 35.5885 65.6114 33.8686 64.0851 31.5038C63.7193 32.0948 62.4211 33.8162 61.8253 34.0956L61.6788 34.078C61.5958 33.8065 61.9611 33.0921 62.1095 32.8573C63.7319 30.2848 65.045 27.339 64.9103 24.2343C64.8703 23.3207 64.5838 22.3055 64.3292 21.4218C63.6026 18.8102 61.6388 16.3576 59.2403 15.1005C58.744 14.8402 58.0874 14.5784 57.5519 14.3554C57.5201 14.0925 57.4907 14.2062 57.6183 13.996C58.0394 13.81 58.6316 14.0715 59.0372 14.204C65.5967 16.3448 67.1879 23.9956 64.8829 29.7724C64.7435 30.1174 64.5922 30.4575 64.4298 30.7919C66.4931 31.9702 68.1792 34.8369 68.8116 37.1093C69.5185 39.6693 69.166 42.4066 67.8341 44.704C66.1249 47.672 63.2388 49.1339 60.464 51.1181C58.7345 52.3544 55.3465 53.176 53.5548 54.3183C53.2487 54.5137 52.742 55.9948 52.5714 56.3915C49.0409 64.6202 44.5814 73.867 35.129 76.2675C28.0645 78.0617 20.0709 73.0542 16.8214 67.1083L16.4298 66.4745C15.9546 65.8102 15.216 64.8234 14.8321 64.1396C13.3649 61.5259 11.6556 57.2566 11.0597 54.3212C10.9335 53.7077 10.825 53.0902 10.7345 52.4706C10.5528 51.1374 10.6361 49.8891 9.58213 48.9062C4.75541 44.4014 4.8854 36.6422 8.99717 31.7372C12.0933 28.0439 17.326 26.7874 20.753 23.5312C22.2741 22.0859 23.8205 20.056 24.9523 18.2753C26.6724 15.5685 28.7996 12.9061 31.2911 10.8651ZM48.5411 43.9999C47.6159 44.598 46.6331 45.1022 45.673 45.5995C39.9688 48.5538 34.6713 52.6849 32.6769 59.0468C32.4474 59.7788 31.4656 62.5179 31.9083 63.1376C32.364 62.9961 32.8141 61.4186 32.9981 60.9608C33.6169 59.4225 34.1602 57.8719 34.8048 56.3417L34.8878 56.5067C35.0465 56.4946 35.0396 56.4852 35.1788 56.4013C34.9515 57.4454 34.6798 58.5703 34.4571 59.6064C34.2627 60.5117 32.8508 64.1251 33.588 64.7567C33.7836 64.7181 33.9203 64.617 34.0099 64.4228C34.5204 63.3163 36.1912 56.4602 37.6134 56.6044C37.7766 57.0547 36.7644 59.2705 36.5401 59.8983C36.3269 60.5016 36.1358 61.1126 35.9659 61.7294C35.8419 62.1926 35.3744 63.8155 35.5821 64.1737C36.816 63.9502 38.2306 56.7881 39.6319 56.6122C39.7166 56.6752 39.7941 56.7034 39.7833 56.8212C39.6735 58.0195 37.4859 62.8578 37.8458 63.7265L37.9532 63.7011C38.4494 63.0781 38.7354 61.8704 39.0733 61.1317C39.5634 60.0605 40.0657 58.7957 40.6749 57.8017C41.564 56.3506 43.0524 54.8139 44.2677 53.6005C46.852 51.0212 47.7346 47.4632 48.5411 43.9999ZM34.4034 18.7812C33.595 18.9421 33.1013 19.309 32.6495 19.995C31.2739 22.0838 31.7427 22.8393 32.6612 24.9325C32.282 25.709 31.7977 28.1644 31.6651 28.8388C30.8888 32.789 32.0146 38.7352 35.5274 41.0976C40.1007 44.1727 47.2036 41.7934 50.9952 38.4247C52.6292 36.998 55.2956 34.4003 56.419 32.5829C54.5353 28.7852 53.1115 25.6191 54.9132 21.3583C52.12 22.8314 48.8494 23.1137 45.8448 22.1415C43.3107 21.3433 41.2075 19.7007 38.4542 19.8241C37.2991 19.8759 36.4387 19.9773 35.3155 20.2714C35.3496 19.9672 35.3864 19.6628 35.4259 19.3593C35.0598 18.9818 34.9583 18.7891 34.4034 18.7812Z" fill="#696565"/>
<path d="M35.3195 55.3516C35.2763 55.7071 35.235 56.0483 35.1765 56.4025C35.0372 56.4865 35.0442 56.4953 34.8853 56.5075L34.8027 56.3422C34.9713 55.9292 35.0865 55.7369 35.3195 55.3516Z" fill="#696565"/>
<path d="M71.8879 57.5615C72.1742 57.6313 72.4564 57.7888 72.6027 58.0527C72.8932 58.5796 72.5835 62.8603 72.465 63.8076C72.3878 64.4529 72.261 65.0914 72.0891 65.7178C71.1898 68.9795 69.5086 71.0703 66.3849 72.4639C63.7841 73.6244 60.5999 73.5812 57.8859 72.8242C56.584 73.7695 55.6592 75.0505 55.0803 76.5381C54.9551 76.8954 54.8916 77.0822 54.5646 77.2744C54.3284 77.2562 54.4331 77.2978 54.2463 77.1299C54.2104 77.0094 54.1969 76.9673 54.1955 76.8389C54.1759 74.5982 55.7324 73.1234 57.1808 71.6377C57.2086 70.7007 57.232 69.6496 57.4113 68.7383C58.0363 65.5543 59.9381 63.4334 62.8918 62.1631C63.9569 61.7047 64.9022 61.4292 66.0168 61.0791C67.5735 60.5902 69.3305 59.9502 70.6096 58.917C71.1045 58.5175 71.4146 58.0435 71.7795 57.5391C71.8152 57.5465 71.8521 57.5528 71.8879 57.5615ZM71.5568 59.4219C71.1891 59.8085 70.496 60.2635 70.0295 60.5459C64.0408 64.1686 59.8662 62.0773 58.2092 70.6514C59.1138 70.2315 61.005 69.3744 61.5305 68.5361C61.8535 68.0206 62.6741 65.0276 63.2375 64.834C63.7054 65.5718 62.7715 67.7179 62.4533 68.4531C64.369 67.4164 65.8033 66.1342 67.4318 64.7061C67.7711 64.6173 67.8595 64.5374 68.1642 64.6152C67.2467 66.241 66.2568 67.1695 64.7766 68.2441C65.2701 68.2157 67.9126 67.9934 67.9484 68.5752C67.4106 68.7445 65.2559 68.8456 64.4914 69.0352C63.0878 69.3826 62.0529 70.1644 60.7853 70.8232C60.1469 71.1556 59.4898 71.4716 58.8859 71.8291C61.9256 72.1744 65.1199 72.047 67.6232 70.0576C70.1882 68.0201 71.015 65.5116 71.3224 62.3711C71.4179 61.3946 71.441 60.3875 71.5568 59.4219Z" fill="#696565"/>
<path d="M67.4336 64.7211C67.8582 64.289 68.2645 63.9071 68.754 63.5469C68.6057 63.8401 68.3471 64.3866 68.1656 64.6296C67.8609 64.5518 67.7728 64.6324 67.4336 64.7211Z" fill="#696565"/>
<path d="M6.19708 53.6406C6.69377 53.8079 6.73589 54.9767 6.8378 55.4994C7.53127 59.0606 8.74757 62.1606 10.3553 65.396C11.9289 68.563 13.7617 71.1985 16.161 73.794C17.1051 74.8416 18.1574 75.8492 19.1645 76.8351C19.9288 77.5834 20.9071 78.1684 21.5325 79.0291C21.6045 79.1279 21.5336 79.197 21.4927 79.2932C20.1896 78.8131 18.9791 78.1122 17.9144 77.2204C16.9371 76.4031 15.4902 75.1334 14.6232 74.18C9.66952 68.7289 6.82494 62.319 6.04228 55.0098C5.99732 54.59 5.92927 53.9575 6.19708 53.6406Z" fill="#696565"/>
<path d="M17.195 20.751C17.6177 20.4861 18.7277 19.6277 19.0939 19.5859C19.1303 19.8453 18.2243 20.8077 17.9909 20.9409C17.43 21.5882 15.6864 22.7048 14.928 23.1004C10.2374 25.5466 5.87146 27.0742 3.32604 32.1085C2.31282 34.1125 1.67359 35.7022 1.16438 37.9696C1.01764 38.6232 1.01228 40.0869 0.764515 40.6376L0.652312 40.6615C-0.719123 39.9335 0.99529 33.8602 1.46225 32.664C3.62257 27.1297 8.51052 24.6887 13.6832 22.5196C14.8676 22.0229 15.9465 21.2387 17.195 20.751Z" fill="#696565"/>
<path d="M17.1953 20.751C17.618 20.4861 18.728 19.6277 19.0942 19.5859C19.1306 19.8453 18.2246 20.8077 17.9912 20.9409L17.9741 20.8548C18.0044 20.7055 18.3367 20.4254 18.5092 20.1854C18.0431 20.314 17.7382 20.7732 17.1953 20.751Z" fill="#696565"/>
<path d="M29.7707 2.96094C29.8859 3.06237 29.9133 3.06177 29.9532 3.2041L29.9324 3.37014C29.8182 3.49981 29.0744 4.1037 28.9175 4.23629C27.9658 5.03059 26.9677 5.759 26.0918 6.64139C22.9494 9.80708 20.4866 14.1198 16.4665 16.2865C13.4654 17.9038 10.1123 18.8437 7.13463 20.5007C6.72123 20.7308 5.90763 21.3106 5.4601 21.2824L5.45312 21.1693C5.7764 20.7087 6.42138 20.245 6.88496 19.9061C8.24509 18.9291 9.69535 18.0841 11.216 17.3826C12.992 16.5682 15.2266 15.7792 16.7889 14.6002C21.721 10.8784 23.7198 5.32636 29.7707 2.96094Z" fill="#696565"/>
<path d="M67.6157 51.4557C67.8142 51.4591 67.7349 51.4246 67.8724 51.5343C67.8819 51.5925 67.8893 51.6189 67.8893 51.6744C67.8778 53.2387 62.2256 56.0705 60.9167 56.8621C60.2362 57.2731 59.5935 57.7526 58.9692 58.2428C55.2151 61.1891 54.0294 64.1245 51.4779 67.9606C50.8413 68.9181 50.2204 69.9555 49.4002 70.7647L49.3077 70.8412L49.236 70.7952C49.2181 70.5297 49.3502 70.0875 49.4596 69.8377C51.5408 65.0881 53.854 60.2424 58.1377 57.0659C60.3885 55.3974 63.0991 54.1366 65.4854 52.6665C66.1504 52.2568 66.9095 51.7706 67.6157 51.4557Z" fill="#696565"/>
<path d="M59.5703 7.06353C60.3653 6.98167 60.9639 7.48675 61.6343 7.80752C63.6887 8.79047 65.3573 10.1602 66.8436 11.9115C68.8642 14.2929 70.1176 17.6999 70.463 20.7928C70.6038 22.0572 70.4501 23.7341 70.3512 24.9885C70.1298 25.0475 70.2307 25.059 70.037 24.9772C69.9003 24.6884 69.8393 23.1199 69.7174 22.5656C69.0796 19.6919 68.2202 16.4923 66.7102 13.9552C65.0072 11.0956 62.3873 9.11821 59.6712 7.31401C59.6712 7.31401 59.5798 7.08737 59.5703 7.06353Z" fill="#696565"/>
<path d="M23.35 36.6328C25.6821 38.3943 24.9668 44.6587 28.2566 46.3143C30.5797 47.4835 31.3621 45.9858 33.3831 44.9495C33.8977 44.6816 34.3526 44.483 34.9008 44.2707C32.8166 46.9729 30.3413 49.6538 26.8946 47.024C24.5739 45.2532 24.5429 41.9388 23.7359 39.3558C23.5816 38.8463 23.0161 37.3446 22.957 37.043C23.0808 36.7972 23.1126 36.738 23.35 36.6328Z" fill="#696565"/>
<path d="M30.7592 62.9428C30.1442 62.8297 30.3422 63.1656 29.7895 63.3159C29.4678 63.2617 29.2016 63.0248 29.0006 62.7722C26.4115 59.5306 25.0514 55.5524 24.167 51.5477C24.0426 50.985 23.4618 48.7051 23.9187 48.3672C24.211 48.6129 25.2799 52.2723 25.5112 52.9318C26.4357 55.5693 27.4569 58.1438 28.9453 60.5261C29.2725 61.0502 30.2044 62.5758 30.72 62.6753L30.8245 62.7776L30.7592 62.9428Z" fill="#696565"/>
<path d="M2.85331 62.6719C3.15668 62.7829 3.26793 62.8919 3.51435 63.0904C4.61696 66.1761 5.52677 68.1074 7.25893 70.9284C7.68763 71.6265 9.76453 74.564 9.84315 75.0543C8.54152 74.801 7.23015 72.9314 6.44242 71.9123C4.86953 69.8781 3.86362 67.4356 3.24863 64.9532C3.10575 64.3769 2.8269 63.2495 2.85331 62.6719Z" fill="#696565"/>
<path d="M19.8703 4.79688L19.9254 4.87671C19.8782 5.19707 19.5764 5.69755 19.4188 6.00762C18.0252 8.74833 15.545 11.0139 12.5844 11.9202C11.6076 12.2193 10.6104 12.2022 9.60381 12.2158L9.56691 12.1927L9.54883 12.0969C9.73708 11.9351 10.0754 11.8391 10.3148 11.7462C11.8821 11.1382 13.3856 10.5252 14.7684 9.55333C15.6822 8.90184 16.5322 8.16523 17.3068 7.35333C18.0887 6.53113 18.896 5.33189 19.8703 4.79688Z" fill="#696565"/>
<path d="M45.2592 75.2978C45.6652 74.8963 46.3547 74.1149 46.8975 74.0234C47.582 74.3485 46.0887 76.0644 45.753 76.3278C43.54 78.7906 39.5643 80.6724 36.2988 81.0171L36.3387 80.6663C40.3043 79.3607 42.2634 78.0708 45.2592 75.2978Z" fill="#696565"/>
<path d="M68.9148 8.27344C71.251 8.2987 74.1716 14.6751 73.5804 16.7558C72.9791 16.759 72.8619 16.5662 72.6629 16.0177C71.7006 13.3692 70.6253 11.0084 68.9555 8.72307C68.8329 8.55527 68.8566 8.45505 68.9148 8.27344Z" fill="#696565"/>
<path d="M60.2469 35.1971C60.4575 35.143 60.5584 35.0987 60.7656 35.1694L60.5293 35.4155C60.3383 35.5407 59.8183 35.8972 59.6402 35.9808C59.3571 35.9219 59.2867 35.9127 59.0273 35.7961C59.4126 35.6255 59.8325 35.3836 60.2469 35.1971Z" fill="#696565"/>
<path d="M61.1279 35.715C61.5416 35.6565 62.1134 35.5141 62.458 35.7189C62.5521 35.9306 62.5343 35.8427 62.4639 36.1076C62.0203 36.322 61.4795 36.3942 61.082 36.6008C59.2023 37.5783 57.9095 38.555 56.3223 39.9094C55.952 40.2444 55.5376 40.5695 55.0996 40.8088C55.4355 40.1259 55.7444 39.7107 56.3105 39.1906C56.463 38.9119 57.4907 38.0432 57.7764 37.7951L57.665 37.7599C57.535 37.8484 57.5887 37.8287 57.4336 37.8547L57.3936 37.8029L57.3955 37.799L57.4355 37.8498C57.5902 37.8239 57.5363 37.8433 57.666 37.7551L57.7773 37.7902C58.2156 37.5406 59.3406 36.6461 59.7666 36.3029L59.7686 36.3039C60.3131 35.9749 60.5285 35.8985 61.126 35.714L61.1279 35.715ZM57.502 37.6232L57.499 37.6271L57.3955 37.5226C57.3964 37.5216 57.3975 37.5207 57.3984 37.5197L57.502 37.6232ZM60.2432 35.174C60.4536 35.1199 60.5547 35.0751 60.7617 35.1457L60.5254 35.3908C60.3344 35.516 59.8138 35.8727 59.6357 35.9562H59.6348C59.3533 35.8977 59.2822 35.889 59.0234 35.7726C59.4087 35.6021 59.8288 35.3604 60.2432 35.174Z" fill="#696565"/>
<path d="M55.0996 40.8283C55.4355 40.1455 55.7443 39.731 56.3104 39.2109C56.1905 39.4099 55.9786 39.6953 55.9813 39.9094L56.0869 39.9848L56.3225 39.9289C55.9521 40.264 55.5377 40.5889 55.0996 40.8283Z" fill="#696565"/>
<path d="M56.5723 41.4235C57.6097 39.5246 59.5213 37.9599 61.4918 37.0721C61.7931 36.9362 62.3416 36.6767 62.6389 36.7963L62.6944 36.976C62.6287 37.208 62.5969 37.2138 62.3937 37.3687V37.4717C59.9005 38.5808 58.8285 40.855 56.5723 41.4235Z" fill="#696565"/>
<path d="M73.3611 37.8105C73.1268 36.4679 72.6914 35.0561 72.1876 33.788C72.0082 33.3366 71.1705 32.0319 71.4157 31.6639C71.4644 31.6528 71.5443 31.6298 71.591 31.6465C73.6327 32.3819 74.0599 35.9574 73.804 37.7255C73.6773 37.7508 73.483 37.7955 73.3611 37.8105Z" fill="#696565"/>
<path d="M57.3967 37.5391C56.7873 37.946 56.2117 38.4024 55.6768 38.9038C55.3287 39.2335 54.2426 40.622 53.8464 40.4882C53.7245 40.206 53.7848 39.9686 53.8986 39.6845C54.6326 37.8472 57.3053 36.5502 59.0253 35.7891C59.2846 35.9057 59.3551 35.9149 59.6381 35.9738L59.5 36.1152C59.1038 36.3612 57.6913 37.2202 57.3967 37.5391Z" fill="#696565"/>
<path d="M37.1377 0.504984C37.4547 0.457313 38.2203 0.412621 38.4189 0.677591C38.3245 1.52606 34.7763 1.71776 33.9683 1.82042C33.4435 1.92382 32.9195 2.03149 32.3965 2.14356C34.2564 1.13399 34.9763 0.754989 37.1377 0.504984Z" fill="#696565"/>
<path d="M71.5385 45.7422C71.611 45.7818 71.5832 45.7585 71.6421 45.8287C71.7308 45.9346 71.7004 46.2664 71.6861 46.4061C71.5649 47.6327 70.9257 48.657 69.9946 49.4287L69.8991 49.3546C69.8348 48.3867 70.9602 46.5343 71.5385 45.7422Z" fill="#696565"/>
<path d="M73.7983 37.7344C73.7936 38.0507 73.8146 38.3775 73.6866 38.6637L73.6074 38.6909C73.3975 38.4083 73.4374 38.1564 73.3555 37.8194C73.4774 37.8043 73.6717 37.7596 73.7983 37.7344Z" fill="#696565"/>
<path d="M29.7715 2.97735C30.3387 2.77725 30.7971 2.6578 31.3768 2.50781C30.8524 2.80258 30.4247 3.03633 29.9332 3.38655L29.9539 3.22051C29.914 3.07818 29.8867 3.07879 29.7715 2.97735Z" fill="#696565"/>
<path d="M34.9707 81.128C35.3987 80.9465 35.8926 80.8131 36.3419 80.6797L36.302 81.0305C35.7636 81.1049 35.5097 81.1334 34.9707 81.128Z" fill="#696565"/>
</g>
<defs>
<clipPath id="clip0_981_249">
<rect width="88" height="88" fill="white"/>
</clipPath>
</defs>
</svg>
