<svg width="64" height="40" viewBox="0 0 64 40" fill="none" xmlns="http://www.w3.org/2000/svg">
<path d="M2 4C2 2.89543 2.89543 2 4 2H36C37.1046 2 38 2.89543 38 4V30C38 31.1046 37.1046 32 36 32H4C2.89543 32 2 31.1046 2 30V4Z" stroke="#283E37" stroke-width="2"/>
<path d="M38 12H52C53.1046 12 54 12.8954 54 14V30C54 31.1046 53.1046 32 52 32H38V12Z" stroke="#283E37" stroke-width="2"/>
<path d="M54 22H60C61.1046 22 62 22.8954 62 24V30C62 31.1046 61.1046 32 60 32H54V22Z" stroke="#283E37" stroke-width="2"/>
<circle cx="14" cy="32" r="6" stroke="#283E37" stroke-width="2"/>
<circle cx="48" cy="32" r="6" stroke="#283E37" stroke-width="2"/>
</svg>
