<svg width="64" height="64" viewBox="0 0 64 64" fill="none" xmlns="http://www.w3.org/2000/svg">
<g clip-path="url(#clip0_981_148)">
<path d="M49.5723 8.7832C49.6893 8.78631 49.7859 8.78401 49.875 8.80273C49.923 8.81283 49.9684 8.82848 50.0156 8.85156L50.167 8.94531L50.1982 8.98145C50.2283 9.04058 50.2728 9.11392 50.2959 9.18359C50.3227 9.26452 50.3261 9.35089 50.29 9.45508C50.2516 9.56581 50.17 9.69709 50.0635 9.83887C49.9555 9.98262 49.8164 10.1442 49.6572 10.3154C49.3388 10.6578 48.9346 11.0445 48.5225 11.417C47.7002 12.1601 46.8355 12.8574 46.5479 13.0381C46.5268 13.0513 46.501 13.0561 46.4766 13.0518C46.4087 13.0397 46.341 13.0261 46.2734 13.0117H46.2725C46.1339 12.982 46.0276 12.9553 45.9385 12.9023C45.8458 12.8471 45.7796 12.7692 45.707 12.6572C45.6949 12.6385 45.6895 12.6159 45.6914 12.5938C45.6959 12.5443 45.7201 12.4911 45.7471 12.4434C45.7757 12.3927 45.8149 12.3347 45.8623 12.2715C45.9575 12.1445 46.091 11.9885 46.249 11.8154C46.5655 11.4689 46.9886 11.0457 47.4258 10.627C47.8631 10.2081 48.316 9.79268 48.6934 9.46191C49.0674 9.1341 49.3756 8.88188 49.5186 8.79688L49.5439 8.78613C49.5531 8.7837 49.5627 8.78295 49.5723 8.7832Z" fill="#696565" stroke="#696565" stroke-width="0.2" stroke-linejoin="round"/>
<mask id="path-2-outside-1_981_148" maskUnits="userSpaceOnUse" x="1.73047" y="16.4609" width="66" height="39" fill="black">
<rect fill="white" x="1.73047" y="16.4609" width="66" height="39"/>
<path fill-rule="evenodd" clip-rule="evenodd" d="M7.18164 17.4727C8.12824 17.363 9.2879 18.0498 10.1904 18.3389C13.8607 19.5147 19.913 22.8375 23.6729 22.1299C24.4983 21.4246 25.2101 20.6336 26.2051 20.1553C28.0016 19.292 35.8288 18.5482 38.0742 18.6123C38.9124 18.6364 39.7729 18.7301 40.5674 19.0108C42.7274 19.7741 44.7888 21.5248 47.1201 22.3438C48.4364 22.8047 49.846 22.9349 51.2246 22.7246C54.3413 22.2474 59.197 19.2711 62.1328 17.9112C62.4267 17.7749 62.8074 17.5478 63.1035 17.6534C63.1888 17.796 63.3927 18.2937 63.1943 18.3994C60.0205 20.0906 56.5712 22.0587 53.1895 23.2657C49.8538 24.5277 46.1439 23.6163 43.292 21.628C39.4473 18.9476 36.0979 19.6719 31.7246 20.2578C29.3729 20.5729 26.6947 20.4134 25.0762 22.6612C24.0318 24.1118 23.7934 25.7897 22.2119 26.8301C21.7225 27.2218 20.3616 28.3419 20.623 29.0684C21.7561 32.2157 25.9388 30.1071 27.5342 28.5967C28.3414 27.8325 29.1949 26.814 29.8105 26.3731C30.2519 26.0605 30.7648 25.8631 31.3018 25.7989C31.7174 25.7463 32.1008 25.7682 32.5059 25.7608C41.485 25.5976 47.6939 31.7385 53.9531 37.2383C54.9295 38.0962 55.7234 39.083 56.7842 39.9082C57.7866 39.4918 58.7966 39.0846 59.7871 38.6407C60.9571 38.1162 66.1862 35.5041 67.1299 35.6875C67.2857 35.7179 67.3119 35.802 67.3975 35.9248L67.3564 36.1192C66.843 36.6852 58.5439 40.4085 57.3438 40.8477C58.8545 43.7091 57.5982 45.5912 54.5254 46.0205C54.6754 47.2654 54.8614 48.7098 53.6133 49.4922C52.3452 50.287 50.8312 49.7528 49.4922 49.4395C48.8293 52.0903 47.1494 52.4971 44.7344 52.1729C44.2569 52.9298 43.8378 53.5826 43.0068 54.0381C41.168 55.0462 38.406 54.2971 36.5889 53.5733C35.5816 53.172 34.5813 52.5532 33.5361 52.253C32.3903 53.8225 31.0773 55.4456 28.8027 54.9522C27.672 54.7068 27.0614 53.8581 26.4932 52.9239C25.9627 53.1271 25.2171 53.4058 24.6582 53.4356C22.5319 53.5484 21.3487 52.288 21.1406 50.3467C20.3678 50.6914 19.3851 51.0209 18.5342 50.9444C16.7939 50.7878 15.3771 49.0351 15.5254 47.3067C15.549 47.0307 15.5776 46.753 15.6084 46.4766C15.2856 46.4618 14.9644 46.4227 14.6475 46.3594C13.7988 46.1884 12.983 45.7153 12.5215 44.9766C11.7051 43.669 11.9515 42.5893 12.2422 41.2198C11.6816 39.9798 10.9243 39.6744 9.7373 39.211C8.72262 38.8153 2.73378 36.8398 2.73047 35.9844C2.84745 35.883 3.0175 35.7624 3.18066 35.8194C5.89227 36.7649 11.3887 38.1176 13.2246 40.1992C15.1617 38.3381 20.2963 35.9846 21.4346 39.9326L21.4658 39.918C24.0117 38.7456 26.4095 39.2523 26.6484 42.4678C29.2078 41.7354 31.1141 42.0432 31.377 45.1153C32.0468 44.8009 32.3802 44.6699 33.1113 44.8965C36.0166 45.7971 34.8453 48.7865 34.0762 50.9034C35.3631 51.9027 36.726 52.4675 38.2832 52.9424C39.6985 53.374 42.7373 53.9843 43.2988 52.0401C42.9478 50.9562 34.9844 46.8697 34.9258 45.8711L35.0342 45.7998C37.2539 46.1925 40.6435 48.8055 42.7256 49.8955C44.6536 50.9049 47.6692 52.5602 48.3184 49.0899C47.4576 47.7736 45.4591 46.6559 44.1699 45.7285C41.6983 43.9505 38.4339 42.2079 36.251 40.1407C36.8877 40.2685 37.5466 40.4811 38.1289 40.7647C42.3836 42.8367 46.126 45.7816 50.1201 48.2686C51.0838 48.8686 52.6101 49.2315 53.3301 48.0586C54.3341 46.4223 51.7706 44.5413 50.7598 43.5459C48.9211 41.9941 46.9516 40.538 45.04 39.0811C43.8154 38.1473 42.6118 37.1863 41.4297 36.1992C41.1032 35.9266 40.0299 35.0816 39.9648 34.7285C41.1302 34.3009 51.4909 42.5506 52.9775 43.9571C53.1918 44.1597 53.5568 44.4156 53.8193 44.5723C54.1397 44.7599 54.5094 44.8476 54.8799 44.8242C56.4962 44.7334 57.4331 43.1771 56.4824 41.7627C55.1113 39.7229 53.055 37.949 51.21 36.3389C49.4706 34.8013 47.6737 33.3296 45.8232 31.9278C41.0723 28.3436 37.2757 26.5494 31.1494 26.9659C29.4845 27.9883 28.2313 30.1243 26.2246 30.9737C24.8227 31.567 23.3654 32.2628 21.7734 31.7305C20.9113 31.4421 20.0431 30.8403 19.6211 30.0059C18.3522 26.9745 22.3792 26.215 23.3574 23.3184C18.0829 23.3196 12.6197 20.118 7.74707 18.2764C7.51813 18.1898 7.34543 18.1125 7.16699 17.9405C7.06535 17.6746 7.08086 17.7775 7.18164 17.4727ZM32.4248 45.9424C30.6526 46.4329 29.339 49.3353 28.3184 50.8125C27.3224 52.2542 27.7474 53.2371 29.3115 53.9551C32.0141 54.0451 33.5 49.8049 33.7793 47.669C33.887 46.8436 33.3329 45.9456 32.4248 45.9424ZM29.3193 43.4434C28.9792 43.2436 28.4442 43.1894 28.0459 43.2285C26.438 43.9473 25.1696 45.7127 24.1055 47.0967C23.2345 48.2293 21.844 49.6816 22.5596 51.1582C22.827 51.699 23.3016 52.1092 23.875 52.2969C24.0442 52.3517 24.3149 52.3897 24.4941 52.3828C25.8788 51.8787 26.5842 51.2526 27.4199 49.9317C28.2587 48.6059 31.5934 44.7799 29.3193 43.4434ZM19.2871 49.6846C22.4349 48.7834 28.8422 39.8989 23.1279 40.583C22.8247 40.6465 22.1559 40.8551 21.9355 41.1006C20.3546 42.8637 18.655 44.5124 17.0742 46.2608C16.7953 46.5692 16.6705 47.7691 16.8066 48.1758C17.2787 49.583 17.9763 49.7295 19.2871 49.6846ZM19.9033 41.3047C20.8078 39.6415 19.7142 38.7156 17.9951 38.9541C15.8393 39.3999 12.6803 41.0284 13.2529 43.7217C13.4708 44.746 14.3271 45.3816 15.375 45.2959C17.0665 44.7069 19.0478 42.8776 19.9033 41.3047Z"/>
</mask>
<path fill-rule="evenodd" clip-rule="evenodd" d="M7.18164 17.4727C8.12824 17.363 9.2879 18.0498 10.1904 18.3389C13.8607 19.5147 19.913 22.8375 23.6729 22.1299C24.4983 21.4246 25.2101 20.6336 26.2051 20.1553C28.0016 19.292 35.8288 18.5482 38.0742 18.6123C38.9124 18.6364 39.7729 18.7301 40.5674 19.0108C42.7274 19.7741 44.7888 21.5248 47.1201 22.3438C48.4364 22.8047 49.846 22.9349 51.2246 22.7246C54.3413 22.2474 59.197 19.2711 62.1328 17.9112C62.4267 17.7749 62.8074 17.5478 63.1035 17.6534C63.1888 17.796 63.3927 18.2937 63.1943 18.3994C60.0205 20.0906 56.5712 22.0587 53.1895 23.2657C49.8538 24.5277 46.1439 23.6163 43.292 21.628C39.4473 18.9476 36.0979 19.6719 31.7246 20.2578C29.3729 20.5729 26.6947 20.4134 25.0762 22.6612C24.0318 24.1118 23.7934 25.7897 22.2119 26.8301C21.7225 27.2218 20.3616 28.3419 20.623 29.0684C21.7561 32.2157 25.9388 30.1071 27.5342 28.5967C28.3414 27.8325 29.1949 26.814 29.8105 26.3731C30.2519 26.0605 30.7648 25.8631 31.3018 25.7989C31.7174 25.7463 32.1008 25.7682 32.5059 25.7608C41.485 25.5976 47.6939 31.7385 53.9531 37.2383C54.9295 38.0962 55.7234 39.083 56.7842 39.9082C57.7866 39.4918 58.7966 39.0846 59.7871 38.6407C60.9571 38.1162 66.1862 35.5041 67.1299 35.6875C67.2857 35.7179 67.3119 35.802 67.3975 35.9248L67.3564 36.1192C66.843 36.6852 58.5439 40.4085 57.3438 40.8477C58.8545 43.7091 57.5982 45.5912 54.5254 46.0205C54.6754 47.2654 54.8614 48.7098 53.6133 49.4922C52.3452 50.287 50.8312 49.7528 49.4922 49.4395C48.8293 52.0903 47.1494 52.4971 44.7344 52.1729C44.2569 52.9298 43.8378 53.5826 43.0068 54.0381C41.168 55.0462 38.406 54.2971 36.5889 53.5733C35.5816 53.172 34.5813 52.5532 33.5361 52.253C32.3903 53.8225 31.0773 55.4456 28.8027 54.9522C27.672 54.7068 27.0614 53.8581 26.4932 52.9239C25.9627 53.1271 25.2171 53.4058 24.6582 53.4356C22.5319 53.5484 21.3487 52.288 21.1406 50.3467C20.3678 50.6914 19.3851 51.0209 18.5342 50.9444C16.7939 50.7878 15.3771 49.0351 15.5254 47.3067C15.549 47.0307 15.5776 46.753 15.6084 46.4766C15.2856 46.4618 14.9644 46.4227 14.6475 46.3594C13.7988 46.1884 12.983 45.7153 12.5215 44.9766C11.7051 43.669 11.9515 42.5893 12.2422 41.2198C11.6816 39.9798 10.9243 39.6744 9.7373 39.211C8.72262 38.8153 2.73378 36.8398 2.73047 35.9844C2.84745 35.883 3.0175 35.7624 3.18066 35.8194C5.89227 36.7649 11.3887 38.1176 13.2246 40.1992C15.1617 38.3381 20.2963 35.9846 21.4346 39.9326L21.4658 39.918C24.0117 38.7456 26.4095 39.2523 26.6484 42.4678C29.2078 41.7354 31.1141 42.0432 31.377 45.1153C32.0468 44.8009 32.3802 44.6699 33.1113 44.8965C36.0166 45.7971 34.8453 48.7865 34.0762 50.9034C35.3631 51.9027 36.726 52.4675 38.2832 52.9424C39.6985 53.374 42.7373 53.9843 43.2988 52.0401C42.9478 50.9562 34.9844 46.8697 34.9258 45.8711L35.0342 45.7998C37.2539 46.1925 40.6435 48.8055 42.7256 49.8955C44.6536 50.9049 47.6692 52.5602 48.3184 49.0899C47.4576 47.7736 45.4591 46.6559 44.1699 45.7285C41.6983 43.9505 38.4339 42.2079 36.251 40.1407C36.8877 40.2685 37.5466 40.4811 38.1289 40.7647C42.3836 42.8367 46.126 45.7816 50.1201 48.2686C51.0838 48.8686 52.6101 49.2315 53.3301 48.0586C54.3341 46.4223 51.7706 44.5413 50.7598 43.5459C48.9211 41.9941 46.9516 40.538 45.04 39.0811C43.8154 38.1473 42.6118 37.1863 41.4297 36.1992C41.1032 35.9266 40.0299 35.0816 39.9648 34.7285C41.1302 34.3009 51.4909 42.5506 52.9775 43.9571C53.1918 44.1597 53.5568 44.4156 53.8193 44.5723C54.1397 44.7599 54.5094 44.8476 54.8799 44.8242C56.4962 44.7334 57.4331 43.1771 56.4824 41.7627C55.1113 39.7229 53.055 37.949 51.21 36.3389C49.4706 34.8013 47.6737 33.3296 45.8232 31.9278C41.0723 28.3436 37.2757 26.5494 31.1494 26.9659C29.4845 27.9883 28.2313 30.1243 26.2246 30.9737C24.8227 31.567 23.3654 32.2628 21.7734 31.7305C20.9113 31.4421 20.0431 30.8403 19.6211 30.0059C18.3522 26.9745 22.3792 26.215 23.3574 23.3184C18.0829 23.3196 12.6197 20.118 7.74707 18.2764C7.51813 18.1898 7.34543 18.1125 7.16699 17.9405C7.06535 17.6746 7.08086 17.7775 7.18164 17.4727ZM32.4248 45.9424C30.6526 46.4329 29.339 49.3353 28.3184 50.8125C27.3224 52.2542 27.7474 53.2371 29.3115 53.9551C32.0141 54.0451 33.5 49.8049 33.7793 47.669C33.887 46.8436 33.3329 45.9456 32.4248 45.9424ZM29.3193 43.4434C28.9792 43.2436 28.4442 43.1894 28.0459 43.2285C26.438 43.9473 25.1696 45.7127 24.1055 47.0967C23.2345 48.2293 21.844 49.6816 22.5596 51.1582C22.827 51.699 23.3016 52.1092 23.875 52.2969C24.0442 52.3517 24.3149 52.3897 24.4941 52.3828C25.8788 51.8787 26.5842 51.2526 27.4199 49.9317C28.2587 48.6059 31.5934 44.7799 29.3193 43.4434ZM19.2871 49.6846C22.4349 48.7834 28.8422 39.8989 23.1279 40.583C22.8247 40.6465 22.1559 40.8551 21.9355 41.1006C20.3546 42.8637 18.655 44.5124 17.0742 46.2608C16.7953 46.5692 16.6705 47.7691 16.8066 48.1758C17.2787 49.583 17.9763 49.7295 19.2871 49.6846ZM19.9033 41.3047C20.8078 39.6415 19.7142 38.7156 17.9951 38.9541C15.8393 39.3999 12.6803 41.0284 13.2529 43.7217C13.4708 44.746 14.3271 45.3816 15.375 45.2959C17.0665 44.7069 19.0478 42.8776 19.9033 41.3047Z" fill="#696565"/>
<path d="M7.18164 17.4727L7.15862 17.274C7.0813 17.283 7.01619 17.336 6.99175 17.4099L7.18164 17.4727ZM10.1904 18.3389L10.2514 18.1484L10.2514 18.1484L10.1904 18.3389ZM23.6729 22.1299L23.7098 22.3265C23.7442 22.32 23.7762 22.3047 23.8028 22.282L23.6729 22.1299ZM26.2051 20.1553L26.1185 19.975L26.1184 19.975L26.2051 20.1553ZM38.0742 18.6123L38.08 18.4124L38.0799 18.4124L38.0742 18.6123ZM40.5674 19.0108L40.634 18.8222L40.634 18.8222L40.5674 19.0108ZM47.1201 22.3438L47.0538 22.5325L47.054 22.5325L47.1201 22.3438ZM51.2246 22.7246L51.2548 22.9224L51.2549 22.9223L51.2246 22.7246ZM62.1328 17.9112L62.2169 18.0926L62.2169 18.0926L62.1328 17.9112ZM63.1035 17.6534L63.2752 17.5508C63.2514 17.5109 63.2144 17.4806 63.1707 17.465L63.1035 17.6534ZM63.1943 18.3994L63.2884 18.576L63.2884 18.5759L63.1943 18.3994ZM53.1895 23.2657L53.1222 23.0773L53.1187 23.0786L53.1895 23.2657ZM43.292 21.628L43.4064 21.4639L43.4064 21.4639L43.292 21.628ZM31.7246 20.2578L31.698 20.0596L31.698 20.0596L31.7246 20.2578ZM25.0762 22.6612L24.9139 22.5443L24.9139 22.5443L25.0762 22.6612ZM22.2119 26.8301L22.102 26.663C22.0968 26.6664 22.0918 26.6701 22.0869 26.674L22.2119 26.8301ZM20.623 29.0684L20.4349 29.1361L20.4349 29.1361L20.623 29.0684ZM27.5342 28.5967L27.3967 28.4515V28.4515L27.5342 28.5967ZM29.8105 26.3731L29.6949 26.2099L29.6941 26.2105L29.8105 26.3731ZM31.3018 25.7989L31.3255 25.9974L31.3268 25.9973L31.3018 25.7989ZM32.5059 25.7608L32.5022 25.5608H32.5022L32.5059 25.7608ZM53.9531 37.2383L53.8211 37.3886L53.8211 37.3886L53.9531 37.2383ZM56.7842 39.9082L56.6614 40.0661C56.7182 40.1103 56.7944 40.1206 56.8609 40.0929L56.7842 39.9082ZM59.7871 38.6407L59.8689 38.8232V38.8232L59.7871 38.6407ZM67.1299 35.6875L67.1681 35.4912L67.168 35.4912L67.1299 35.6875ZM67.3975 35.9248L67.5931 35.9661C67.6045 35.9121 67.5931 35.8558 67.5616 35.8105L67.3975 35.9248ZM67.3564 36.1192L67.5046 36.2535C67.5284 36.2273 67.5448 36.1952 67.5521 36.1605L67.3564 36.1192ZM57.3438 40.8477L57.275 40.6599C57.2208 40.6797 57.1778 40.722 57.1571 40.7759C57.1364 40.8298 57.1399 40.89 57.1669 40.9411L57.3438 40.8477ZM54.5254 46.0205L54.4977 45.8225C54.3898 45.8375 54.3138 45.9363 54.3268 46.0445L54.5254 46.0205ZM53.6133 49.4922L53.7195 49.6617L53.7195 49.6617L53.6133 49.4922ZM49.4922 49.4395L49.5378 49.2447C49.4314 49.2198 49.3247 49.285 49.2982 49.391L49.4922 49.4395ZM44.7344 52.1729L44.761 51.9747C44.6834 51.9642 44.607 52 44.5652 52.0662L44.7344 52.1729ZM43.0068 54.0381L42.9107 53.8627L42.9107 53.8627L43.0068 54.0381ZM36.5889 53.5733L36.5149 53.7591L36.5149 53.7591L36.5889 53.5733ZM33.5361 52.253L33.5914 52.0607C33.5107 52.0376 33.4241 52.0672 33.3746 52.135L33.5361 52.253ZM28.8027 54.9522L28.7603 55.1476L28.7603 55.1476L28.8027 54.9522ZM26.4932 52.9239L26.664 52.8199C26.6138 52.7374 26.5118 52.7025 26.4216 52.7371L26.4932 52.9239ZM24.6582 53.4356L24.6688 53.6353H24.6688L24.6582 53.4356ZM21.1406 50.3467L21.3395 50.3254C21.3327 50.2618 21.2958 50.2053 21.2404 50.1734C21.1849 50.1415 21.1176 50.138 21.0592 50.1641L21.1406 50.3467ZM18.5342 50.9444L18.5163 51.1436H18.5163L18.5342 50.9444ZM15.5254 47.3067L15.7247 47.3238L15.7247 47.3237L15.5254 47.3067ZM15.6084 46.4766L15.8072 46.4987C15.8133 46.4438 15.7964 46.3887 15.7605 46.3467C15.7245 46.3046 15.6728 46.2793 15.6176 46.2768L15.6084 46.4766ZM14.6475 46.3594L14.608 46.5555L14.6083 46.5555L14.6475 46.3594ZM12.5215 44.9766L12.3518 45.0825L12.3519 45.0826L12.5215 44.9766ZM12.2422 41.2198L12.4378 41.2613C12.4467 41.2196 12.442 41.1762 12.4244 41.1374L12.2422 41.2198ZM9.7373 39.211L9.81004 39.0247L9.80997 39.0246L9.7373 39.211ZM2.73047 35.9844L2.5995 35.8333C2.55545 35.8714 2.53024 35.9269 2.53047 35.9852L2.73047 35.9844ZM3.18066 35.8194L3.11477 36.0082L3.11481 36.0082L3.18066 35.8194ZM13.2246 40.1992L13.0746 40.3315C13.1107 40.3724 13.1619 40.3968 13.2163 40.3991C13.2708 40.4013 13.3239 40.3812 13.3632 40.3435L13.2246 40.1992ZM21.4346 39.9326L21.2424 39.9881C21.2586 40.0443 21.2986 40.0906 21.3519 40.1148C21.4052 40.139 21.4665 40.1386 21.5195 40.1137L21.4346 39.9326ZM21.4658 39.918L21.3822 39.7363L21.3809 39.7369L21.4658 39.918ZM26.6484 42.4678L26.449 42.4826C26.4534 42.5426 26.4847 42.5974 26.534 42.6319C26.5834 42.6663 26.6456 42.6766 26.7035 42.6601L26.6484 42.4678ZM31.377 45.1153L31.1777 45.1323C31.1833 45.1975 31.2203 45.2558 31.277 45.2885C31.3336 45.3212 31.4027 45.3241 31.4619 45.2963L31.377 45.1153ZM33.1113 44.8965L33.1705 44.7055L33.1705 44.7055L33.1113 44.8965ZM34.0762 50.9034L33.8882 50.835C33.8585 50.9167 33.8849 51.0081 33.9535 51.0613L34.0762 50.9034ZM38.2832 52.9424L38.2249 53.1337L38.2249 53.1337L38.2832 52.9424ZM43.2988 52.0401L43.491 52.0956C43.5021 52.0572 43.5014 52.0164 43.4891 51.9784L43.2988 52.0401ZM34.9258 45.8711L34.8159 45.704C34.7562 45.7433 34.7219 45.8115 34.7261 45.8828L34.9258 45.8711ZM35.0342 45.7998L35.069 45.6029C35.0187 45.594 34.9669 45.6047 34.9243 45.6327L35.0342 45.7998ZM42.7256 49.8955L42.8184 49.7184H42.8183L42.7256 49.8955ZM48.3184 49.0899L48.5149 49.1266C48.5244 49.076 48.514 49.0236 48.4857 48.9804L48.3184 49.0899ZM44.1699 45.7285L44.0531 45.8909L44.0531 45.8909L44.1699 45.7285ZM36.251 40.1407L36.2904 39.9446C36.2029 39.927 36.1144 39.9694 36.0734 40.0486C36.0324 40.1278 36.0487 40.2246 36.1135 40.2859L36.251 40.1407ZM38.1289 40.7647L38.0413 40.9445V40.9445L38.1289 40.7647ZM50.1201 48.2686L50.2258 48.0988L50.2258 48.0988L50.1201 48.2686ZM53.3301 48.0586L53.5005 48.1632L53.5005 48.1632L53.3301 48.0586ZM50.7598 43.5459L50.9001 43.4034C50.8965 43.3998 50.8927 43.3964 50.8888 43.3931L50.7598 43.5459ZM45.04 39.0811L44.9188 39.2401L44.9188 39.2402L45.04 39.0811ZM41.4297 36.1992L41.3015 36.3528L41.3015 36.3528L41.4297 36.1992ZM39.9648 34.7285L39.8959 34.5408C39.8045 34.5744 39.7505 34.669 39.7682 34.7648L39.9648 34.7285ZM52.9775 43.9571L52.8401 44.1023L52.8401 44.1024L52.9775 43.9571ZM53.8193 44.5723L53.7168 44.744L53.7183 44.7449L53.8193 44.5723ZM54.8799 44.8242L54.8687 44.6246L54.8673 44.6246L54.8799 44.8242ZM56.4824 41.7627L56.6484 41.6512L56.6484 41.6512L56.4824 41.7627ZM51.21 36.3389L51.0775 36.4887L51.0785 36.4896L51.21 36.3389ZM45.8232 31.9278L45.944 31.7683L45.9437 31.7681L45.8232 31.9278ZM31.1494 26.9659L31.1359 26.7663C31.1036 26.7685 31.0723 26.7785 31.0448 26.7954L31.1494 26.9659ZM26.2246 30.9737L26.3026 31.1578L26.3026 31.1578L26.2246 30.9737ZM21.7734 31.7305L21.71 31.9202L21.71 31.9202L21.7734 31.7305ZM19.6211 30.0059L19.4366 30.0831C19.4385 30.0875 19.4405 30.0919 19.4426 30.0962L19.6211 30.0059ZM23.3574 23.3184L23.5469 23.3824C23.5675 23.3213 23.5575 23.2541 23.5199 23.2018C23.4823 23.1494 23.4218 23.1184 23.3574 23.1184L23.3574 23.3184ZM7.74707 18.2764L7.67634 18.4635L7.67636 18.4635L7.74707 18.2764ZM7.16699 17.9405L6.98018 18.0119C6.99066 18.0393 7.00705 18.0641 7.02818 18.0844L7.16699 17.9405ZM32.4248 45.9424L32.4255 45.7424C32.4072 45.7423 32.3891 45.7448 32.3715 45.7497L32.4248 45.9424ZM28.3184 50.8125L28.1538 50.6988L28.1538 50.6989L28.3184 50.8125ZM29.3115 53.9551L29.2281 54.1369C29.2522 54.148 29.2783 54.1541 29.3049 54.155L29.3115 53.9551ZM33.7793 47.669L33.9776 47.6949L33.9776 47.6949L33.7793 47.669ZM29.3193 43.4434L29.4207 43.271L29.4206 43.2709L29.3193 43.4434ZM28.0459 43.2285L28.0264 43.0295C28.0049 43.0316 27.9839 43.0372 27.9643 43.046L28.0459 43.2285ZM24.1055 47.0967L24.264 47.2186L24.264 47.2186L24.1055 47.0967ZM22.5596 51.1582L22.3796 51.2455L22.3803 51.2469L22.5596 51.1582ZM23.875 52.2969L23.8128 52.487L23.8134 52.4872L23.875 52.2969ZM24.4941 52.3828L24.5018 52.5827C24.5226 52.5819 24.5431 52.5779 24.5626 52.5708L24.4941 52.3828ZM27.4199 49.9317L27.2509 49.8247L27.2509 49.8247L27.4199 49.9317ZM19.2871 49.6846L19.294 49.8845C19.3103 49.8839 19.3265 49.8814 19.3422 49.8769L19.2871 49.6846ZM23.1279 40.583L23.1042 40.3845C23.0984 40.3851 23.0926 40.3861 23.0869 40.3873L23.1279 40.583ZM21.9355 41.1006L21.7867 40.967L21.7866 40.9671L21.9355 41.1006ZM17.0742 46.2608L17.2226 46.3949H17.2226L17.0742 46.2608ZM16.8066 48.1758L16.617 48.2393L16.617 48.2394L16.8066 48.1758ZM19.9033 41.3047L20.079 41.4003L20.079 41.4003L19.9033 41.3047ZM17.9951 38.9541L17.9676 38.7556L17.9546 38.7583L17.9951 38.9541ZM13.2529 43.7217L13.0573 43.7633L13.0573 43.7633L13.2529 43.7217ZM15.375 45.2959L15.3913 45.4953C15.4082 45.4939 15.4248 45.4904 15.4408 45.4848L15.375 45.2959ZM7.18164 17.4727L7.20466 17.6714C7.62746 17.6224 8.11551 17.751 8.63274 17.9437C8.88907 18.0392 9.1437 18.1468 9.39639 18.251C9.64666 18.3543 9.89516 18.4543 10.1294 18.5294L10.1904 18.3389L10.2514 18.1484C10.0344 18.0789 9.79953 17.9847 9.54895 17.8813C9.30079 17.7789 9.03711 17.6675 8.77239 17.5688C8.24751 17.3733 7.68243 17.2133 7.15862 17.274L7.18164 17.4727ZM10.1904 18.3389L10.1294 18.5294C11.0384 18.8206 12.0977 19.2457 13.2412 19.712C14.382 20.1772 15.6043 20.6824 16.8296 21.1286C19.2689 22.0169 21.7699 22.6916 23.7098 22.3265L23.6729 22.1299L23.6359 21.9334C21.8159 22.2759 19.4109 21.6429 16.9665 20.7528C15.75 20.3098 14.536 19.808 13.3922 19.3416C12.2512 18.8763 11.1776 18.4451 10.2514 18.1484L10.1904 18.3389ZM23.6729 22.1299L23.8028 22.282C24.012 22.1032 24.2136 21.9193 24.4116 21.7389C24.6103 21.5577 24.8053 21.38 25.0051 21.2097C25.4044 20.8693 25.8162 20.5642 26.2917 20.3356L26.2051 20.1553L26.1184 19.975C25.599 20.2247 25.1574 20.5542 24.7456 20.9053C24.5399 21.0806 24.34 21.2628 24.1421 21.4433C23.9433 21.6245 23.7464 21.804 23.5429 21.9779L23.6729 22.1299ZM26.2051 20.1553L26.2917 20.3356C26.7139 20.1327 27.5154 19.928 28.5384 19.7376C29.5539 19.5486 30.7661 19.3773 31.9944 19.2347C34.4548 18.949 36.961 18.7806 38.0685 18.8123L38.0742 18.6123L38.0799 18.4124C36.9421 18.3799 34.412 18.5513 31.9483 18.8373C30.7146 18.9806 29.4927 19.1531 28.4652 19.3443C27.4452 19.5342 26.5945 19.7463 26.1185 19.975L26.2051 20.1553ZM38.0742 18.6123L38.0685 18.8123C38.8975 18.836 39.7345 18.9286 40.5008 19.1993L40.5674 19.0108L40.634 18.8222C39.8114 18.5316 38.9272 18.4367 38.08 18.4124L38.0742 18.6123ZM40.5674 19.0108L40.5007 19.1993C41.5589 19.5733 42.5966 20.1905 43.6779 20.8287C44.7522 21.4626 45.8668 22.1155 47.0538 22.5325L47.1201 22.3438L47.1864 22.1551C46.0422 21.7531 44.9605 21.1211 43.8812 20.4842C42.8089 19.8514 41.736 19.2116 40.634 18.8222L40.5674 19.0108ZM47.1201 22.3438L47.054 22.5325C48.4013 23.0043 49.8439 23.1375 51.2548 22.9224L51.2246 22.7246L51.1945 22.5269C49.8481 22.7322 48.4715 22.6051 47.1862 22.155L47.1201 22.3438ZM51.2246 22.7246L51.2549 22.9223C52.8475 22.6784 54.8661 21.8012 56.8351 20.8282C58.8232 19.8458 60.7476 18.7733 62.2169 18.0926L62.1328 17.9112L62.0487 17.7297C60.5822 18.409 58.6108 19.5046 56.6579 20.4696C54.686 21.444 52.7184 22.2936 51.1943 22.5269L51.2246 22.7246ZM62.1328 17.9112L62.2169 18.0926C62.3796 18.0172 62.5269 17.9365 62.6849 17.8798C62.8417 17.8236 62.9554 17.8129 63.0364 17.8417L63.1035 17.6534L63.1707 17.465C62.9555 17.3883 62.7308 17.4384 62.5498 17.5033C62.3699 17.5679 62.1799 17.6689 62.0487 17.7297L62.1328 17.9112ZM63.1035 17.6534L62.9318 17.7559C62.9644 17.8105 63.0287 17.9516 63.0607 18.0864C63.0768 18.1543 63.0807 18.2048 63.0772 18.2351C63.0737 18.2645 63.0691 18.2395 63.1003 18.2229L63.1943 18.3994L63.2884 18.5759C63.4187 18.5065 63.463 18.3797 63.4745 18.2815C63.4858 18.1843 63.4706 18.0817 63.4499 17.9941C63.4082 17.818 63.3279 17.6389 63.2752 17.5508L63.1035 17.6534ZM63.1943 18.3994L63.1003 18.2229C59.9177 19.9188 56.4862 21.8767 53.1222 23.0773L53.1895 23.2657L53.2567 23.454C56.6563 22.2407 60.1232 20.2625 63.2884 18.576L63.1943 18.3994ZM53.1895 23.2657L53.1187 23.0786C49.8611 24.3111 46.2202 23.4257 43.4064 21.4639L43.292 21.628L43.1776 21.792C46.0675 23.8068 49.8465 24.7443 53.2602 23.4527L53.1895 23.2657ZM43.292 21.628L43.4064 21.4639C39.4866 18.7312 36.0523 19.4762 31.698 20.0596L31.7246 20.2578L31.7512 20.4561C36.1434 19.8676 39.408 19.164 43.1776 21.792L43.292 21.628ZM31.7246 20.2578L31.698 20.0596C31.1134 20.138 30.5144 20.1861 29.9002 20.2513C29.2907 20.316 28.6745 20.3969 28.0787 20.5403C26.8828 20.828 25.7596 21.3697 24.9139 22.5443L25.0762 22.6612L25.2385 22.778C26.0112 21.7048 27.0364 21.2024 28.1722 20.9292C28.7422 20.7921 29.3377 20.7133 29.9424 20.6491C30.5423 20.5854 31.16 20.5353 31.7512 20.4561L31.7246 20.2578ZM25.0762 22.6612L24.9139 22.5443C24.3812 23.2841 24.0446 24.0975 23.6688 24.8057C23.2875 25.5243 22.8519 26.1697 22.102 26.663L22.2119 26.8301L22.3218 26.9972C23.1534 26.4501 23.6277 25.7364 24.0221 24.9932C24.422 24.2397 24.7267 23.4889 25.2385 22.778L25.0762 22.6612ZM22.2119 26.8301L22.0869 26.674C21.8417 26.8702 21.367 27.2576 20.9856 27.6917C20.7953 27.9084 20.6205 28.1453 20.5106 28.3834C20.4016 28.6196 20.3442 28.8842 20.4349 29.1361L20.623 29.0684L20.8112 29.0007C20.7712 28.8893 20.7858 28.7415 20.8738 28.5511C20.9608 28.3626 21.1077 28.1588 21.2862 27.9557C21.6423 27.5502 22.0927 27.1817 22.3369 26.9863L22.2119 26.8301ZM20.623 29.0684L20.4349 29.1361C20.7357 29.9717 21.2486 30.4773 21.8849 30.7216C22.5123 30.9625 23.2355 30.9403 23.9505 30.774C25.3781 30.442 26.8532 29.5168 27.6717 28.7419L27.5342 28.5967L27.3967 28.4515C26.6197 29.187 25.2059 30.0713 23.8599 30.3844C23.1882 30.5406 22.5536 30.5499 22.0283 30.3481C21.5117 30.1498 21.0769 29.7387 20.8112 29.0006L20.623 29.0684ZM27.5342 28.5967L27.6717 28.7419C28.0796 28.3557 28.5005 27.904 28.8881 27.5026C29.2814 27.0952 29.6364 26.7438 29.927 26.5357L29.8105 26.3731L29.6941 26.2105C29.369 26.4433 28.9895 26.8216 28.6003 27.2247C28.2054 27.6338 27.796 28.0735 27.3967 28.4515L27.5342 28.5967ZM29.8105 26.3731L29.9261 26.5363C30.3403 26.243 30.8216 26.0577 31.3255 25.9974L31.3018 25.7989L31.278 25.6003C30.708 25.6685 30.1635 25.878 29.695 26.2099L29.8105 26.3731ZM31.3018 25.7989L31.3268 25.9973C31.7284 25.9465 32.0857 25.9685 32.5095 25.9607L32.5059 25.7608L32.5022 25.5608C32.1159 25.5679 31.7064 25.5461 31.2767 25.6004L31.3018 25.7989ZM32.5059 25.7608L32.5095 25.9607C41.3947 25.7993 47.5404 31.8699 53.8211 37.3886L53.9531 37.2383L54.0851 37.0881C47.8473 31.6071 41.5753 25.3959 32.5022 25.5608L32.5059 25.7608ZM53.9531 37.2383L53.8211 37.3886C54.3027 37.8117 54.7387 38.266 55.195 38.7263C55.6489 39.1843 56.1202 39.6451 56.6614 40.0661L56.7842 39.9082L56.907 39.7504C56.3874 39.3461 55.9313 38.9009 55.479 38.4447C55.0291 37.9909 54.58 37.5229 54.0851 37.0881L53.9531 37.2383ZM56.7842 39.9082L56.8609 40.0929C57.8607 39.6776 58.8751 39.2686 59.8689 38.8232L59.7871 38.6407L59.7053 38.4581C58.7181 38.9006 57.7125 39.306 56.7075 39.7235L56.7842 39.9082ZM59.7871 38.6407L59.8689 38.8232C60.1638 38.691 60.7137 38.4277 61.3806 38.1131C62.0497 37.7975 62.8408 37.4284 63.6243 37.0815C64.4086 36.7344 65.1818 36.4111 65.8158 36.1863C66.1331 36.0739 66.4115 35.9875 66.6368 35.935C66.8712 35.8804 67.0193 35.8698 67.0917 35.8839L67.1299 35.6875L67.168 35.4912C67.0046 35.4594 66.7828 35.4903 66.546 35.5455C66.3002 35.6028 66.0061 35.6945 65.6822 35.8093C65.0338 36.0392 64.2497 36.3673 63.4624 36.7158C62.6745 37.0646 61.8799 37.4353 61.21 37.7513C60.538 38.0683 59.9955 38.3281 59.7053 38.4581L59.7871 38.6407ZM67.1299 35.6875L67.0917 35.8838C67.1145 35.8883 67.1251 35.8932 67.1294 35.8956C67.133 35.8975 67.1366 35.9001 67.1424 35.9064C67.1497 35.9144 67.1588 35.9265 67.1746 35.9504C67.1879 35.9706 67.2102 36.006 67.2334 36.0392L67.3975 35.9248L67.5616 35.8105C67.5419 35.7823 67.5289 35.7611 67.5084 35.73C67.4903 35.7026 67.4671 35.6688 67.4377 35.6366C67.3701 35.5626 67.2852 35.514 67.1681 35.4912L67.1299 35.6875ZM67.3975 35.9248L67.2018 35.8835L67.1608 36.0779L67.3564 36.1192L67.5521 36.1605L67.5931 35.9661L67.3975 35.9248ZM67.3564 36.1192L67.2083 35.9848C67.1951 35.9994 67.1521 36.0351 67.063 36.0934C66.979 36.1485 66.8672 36.2153 66.7299 36.2926C66.4556 36.4471 66.0879 36.6391 65.6545 36.8562C64.7883 37.2904 63.6675 37.8216 62.5238 38.3494C60.2328 39.4068 57.8659 40.4437 57.275 40.6599L57.3438 40.8477L57.4125 41.0355C58.0218 40.8126 60.4045 39.7682 62.6914 38.7126C63.8368 38.184 64.962 37.6508 65.8338 37.2138C66.2694 36.9955 66.6437 36.8003 66.9262 36.6411C67.0673 36.5616 67.1876 36.4899 67.2822 36.428C67.3716 36.3695 67.4536 36.3097 67.5046 36.2535L67.3564 36.1192ZM57.3438 40.8477L57.1669 40.9411C57.9054 42.3398 57.9415 43.4474 57.4802 44.2461C57.0152 45.0513 56.006 45.6117 54.4977 45.8225L54.5254 46.0205L54.5531 46.2186C56.1175 46 57.2729 45.4048 57.8266 44.4462C58.384 43.4811 58.2929 42.217 57.5206 40.7543L57.3438 40.8477ZM54.5254 46.0205L54.3268 46.0445C54.4027 46.6737 54.4819 47.3177 54.3958 47.9006C54.3114 48.4716 54.0704 48.9696 53.507 49.3228L53.6133 49.4922L53.7195 49.6617C54.4043 49.2324 54.6943 48.617 54.7915 47.959C54.8869 47.3129 54.7982 46.6122 54.724 45.9966L54.5254 46.0205ZM53.6133 49.4922L53.5071 49.3228C52.9246 49.6878 52.2794 49.7532 51.6001 49.6825C50.9124 49.6108 50.2234 49.4052 49.5378 49.2447L49.4922 49.4395L49.4466 49.6342C50.1 49.7871 50.8375 50.0052 51.5586 50.0803C52.2881 50.1563 53.0339 50.0914 53.7195 49.6617L53.6133 49.4922ZM49.4922 49.4395L49.2982 49.391C48.9762 50.6783 48.4187 51.383 47.6826 51.7421C46.9331 52.1077 45.9591 52.1355 44.761 51.9747L44.7344 52.1729L44.7078 52.3711C45.9246 52.5345 46.9981 52.521 47.858 52.1016C48.7314 51.6756 49.3452 50.8515 49.6862 49.488L49.4922 49.4395ZM44.7344 52.1729L44.5652 52.0662C44.0863 52.8255 43.691 53.435 42.9107 53.8627L43.0068 54.0381L43.103 54.2135C43.9846 53.7302 44.4275 53.0342 44.9035 52.2796L44.7344 52.1729ZM43.0068 54.0381L42.9107 53.8627C42.0449 54.3374 40.9445 54.4061 39.8159 54.2569C38.6908 54.1081 37.5629 53.746 36.6629 53.3875L36.5889 53.5733L36.5149 53.7591C37.432 54.1244 38.5937 54.4987 39.7635 54.6534C40.9299 54.8077 42.1299 54.7469 43.103 54.2135L43.0068 54.0381ZM36.5889 53.5733L36.6629 53.3875C36.1675 53.1901 35.6757 52.9401 35.163 52.6948C34.6551 52.4518 34.131 52.2158 33.5914 52.0607L33.5361 52.253L33.4809 52.4452C33.9864 52.5904 34.4851 52.8139 34.9904 53.0557C35.4909 53.2951 36.003 53.5551 36.5149 53.7591L36.5889 53.5733ZM33.5361 52.253L33.3746 52.135C32.8004 52.9215 32.2026 53.6943 31.4764 54.2135C30.7604 54.7254 29.9203 54.99 28.8451 54.7567L28.8027 54.9522L28.7603 55.1476C29.9598 55.4078 30.9135 55.1076 31.709 54.5389C32.4943 53.9775 33.126 53.154 33.6977 52.3709L33.5361 52.253ZM28.8027 54.9522L28.8452 54.7567C27.8045 54.5309 27.2321 53.7539 26.664 52.8199L26.4932 52.9239L26.3223 53.0278C26.8907 53.9624 27.5395 54.8827 28.7603 55.1476L28.8027 54.9522ZM26.4932 52.9239L26.4216 52.7371C25.8824 52.9437 25.1685 53.2081 24.6476 53.2359L24.6582 53.4356L24.6688 53.6353C25.2656 53.6035 26.043 53.3105 26.5647 53.1106L26.4932 52.9239ZM24.6582 53.4356L24.6476 53.2359C23.6275 53.29 22.8565 53.0148 22.3159 52.5146C21.7729 52.0122 21.4399 51.2619 21.3395 50.3254L21.1406 50.3467L20.9418 50.368C21.0495 51.3727 21.4121 52.2233 22.0443 52.8082C22.6789 53.3954 23.5626 53.694 24.6688 53.6353L24.6582 53.4356ZM21.1406 50.3467L21.0592 50.1641C20.2917 50.5064 19.349 50.8169 18.5521 50.7452L18.5342 50.9444L18.5163 51.1436C19.4212 51.225 20.4439 50.8764 21.2221 50.5294L21.1406 50.3467ZM18.5342 50.9444L18.5521 50.7452C16.9253 50.5988 15.5855 48.9463 15.7247 47.3238L15.5254 47.3067L15.3261 47.2896C15.1688 49.1238 16.6624 50.9767 18.5163 51.1436L18.5342 50.9444ZM15.5254 47.3067L15.7247 47.3237C15.7481 47.05 15.7765 46.774 15.8072 46.4987L15.6084 46.4766L15.4096 46.4544C15.3787 46.7319 15.35 47.0114 15.3261 47.2896L15.5254 47.3067ZM15.6084 46.4766L15.6176 46.2768C15.3048 46.2625 14.9936 46.2246 14.6866 46.1633L14.6475 46.3594L14.6083 46.5555C14.9351 46.6208 15.2664 46.6611 15.5992 46.6764L15.6084 46.4766ZM14.6475 46.3594L14.687 46.1633C13.8794 46.0006 13.1172 45.5526 12.6911 44.8706L12.5215 44.9766L12.3519 45.0826C12.8487 45.8779 13.7181 46.3761 14.608 46.5555L14.6475 46.3594ZM12.5215 44.9766L12.6911 44.8707C11.9223 43.6392 12.1459 42.6369 12.4378 41.2613L12.2422 41.2198L12.0465 41.1782C11.7572 42.5417 11.4879 43.6987 12.3518 45.0825L12.5215 44.9766ZM12.2422 41.2198L12.4244 41.1374C12.1311 40.4887 11.7801 40.073 11.3404 39.7611C10.9089 39.4549 10.3984 39.2544 9.81004 39.0247L9.7373 39.211L9.66457 39.3973C10.2632 39.631 10.7249 39.8149 11.1089 40.0873C11.4847 40.3539 11.7926 40.7109 12.0599 41.3022L12.2422 41.2198ZM9.7373 39.211L9.80997 39.0246C9.55319 38.9245 8.98271 38.7247 8.28279 38.472C7.57931 38.2181 6.73799 37.9082 5.92895 37.5844C5.11849 37.26 4.34642 36.9239 3.77895 36.6177C3.49428 36.4642 3.26926 36.3225 3.11796 36.198C3.04222 36.1356 2.99138 36.0828 2.96089 36.0404C2.92934 35.9966 2.93045 35.9792 2.93047 35.9836L2.73047 35.9844L2.53047 35.9852C2.5309 36.0965 2.57919 36.1948 2.63622 36.2741C2.69432 36.3548 2.77348 36.4325 2.86379 36.5068C3.0446 36.6556 3.29594 36.8117 3.58904 36.9698C4.17712 37.287 4.96629 37.6299 5.7803 37.9557C6.59571 38.2821 7.44206 38.5938 8.14697 38.8483C8.85544 39.104 9.41408 39.2996 9.66464 39.3973L9.7373 39.211ZM2.73047 35.9844L2.86144 36.1356C2.91549 36.0887 2.97026 36.048 3.02191 36.0242C3.07271 36.0008 3.09976 36.003 3.11477 36.0082L3.18066 35.8194L3.24656 35.6305C3.0984 35.5788 2.95885 35.6128 2.85458 35.6609C2.75117 35.7085 2.66243 35.7787 2.5995 35.8333L2.73047 35.9844ZM3.18066 35.8194L3.11481 36.0082C3.79639 36.2459 4.653 36.5091 5.57557 36.8006C6.50036 37.0927 7.49523 37.4143 8.46182 37.7709C9.42884 38.1276 10.3634 38.5178 11.1681 38.9462C11.975 39.3758 12.6386 39.8372 13.0746 40.3315L13.2246 40.1992L13.3746 40.067C12.8926 39.5205 12.1808 39.0322 11.356 38.5931C10.529 38.1528 9.57579 37.7555 8.60025 37.3956C7.62429 37.0356 6.62188 36.7116 5.69606 36.4192C4.76804 36.126 3.92073 35.8656 3.24652 35.6305L3.18066 35.8194ZM13.2246 40.1992L13.3632 40.3435C14.3081 39.4356 16.0424 38.4029 17.6677 38.0838C18.4787 37.9245 19.2412 37.9471 19.8612 38.229C20.4725 38.5071 20.9717 39.0493 21.2424 39.9881L21.4346 39.9326L21.6267 39.8772C21.3283 38.842 20.7588 38.1978 20.0267 37.8649C19.3033 37.5359 18.4476 37.523 17.5906 37.6913C15.8798 38.0272 14.0782 39.1018 13.086 40.055L13.2246 40.1992ZM21.4346 39.9326L21.5195 40.1137L21.5507 40.0991L21.4658 39.918L21.3809 39.7369L21.3497 39.7516L21.4346 39.9326ZM21.4658 39.918L21.5495 40.0997C22.7985 39.5245 23.9726 39.3802 24.8474 39.733C25.7035 40.0781 26.3333 40.9255 26.449 42.4826L26.6484 42.4678L26.8479 42.453C26.7246 40.7946 26.0361 39.7809 24.997 39.362C23.9767 38.9506 22.679 39.1391 21.3822 39.7363L21.4658 39.918ZM26.6484 42.4678L26.7035 42.6601C27.9754 42.2961 29.0317 42.2087 29.7925 42.5476C30.5292 42.8757 31.0496 43.635 31.1777 45.1323L31.377 45.1153L31.5762 45.0982C31.4415 43.5235 30.8773 42.5929 29.9553 42.1822C29.0574 41.7822 27.8808 41.9071 26.5934 42.2755L26.6484 42.4678ZM31.377 45.1153L31.4619 45.2963C31.8004 45.1375 32.0272 45.0387 32.2545 45.0003C32.4734 44.9632 32.7068 44.9805 33.0521 45.0876L33.1113 44.8965L33.1705 44.7055C32.7847 44.5859 32.4859 44.5554 32.1878 44.6059C31.8982 44.6548 31.6234 44.7787 31.292 44.9342L31.377 45.1153ZM33.1113 44.8965L33.0521 45.0875C33.7434 45.3018 34.1721 45.6332 34.4284 46.0265C34.6863 46.4222 34.784 46.9027 34.7717 47.4392C34.7468 48.5235 34.2771 49.7648 33.8882 50.835L34.0762 50.9034L34.2641 50.9716C34.6444 49.925 35.1449 48.6132 35.1716 47.4484C35.1851 46.8604 35.079 46.2923 34.7635 45.8081C34.4463 45.3214 33.9319 44.9415 33.1705 44.7055L33.1113 44.8965ZM34.0762 50.9034L33.9535 51.0613C35.2674 52.0817 36.6562 52.6553 38.2249 53.1337L38.2832 52.9424L38.3415 52.7511C36.7959 52.2797 35.4587 51.7238 34.1988 50.7454L34.0762 50.9034ZM38.2832 52.9424L38.2249 53.1337C38.9402 53.3519 40.0787 53.6198 41.1184 53.5821C42.1511 53.5446 43.1729 53.1969 43.491 52.0956L43.2988 52.0401L43.1067 51.9846C42.8633 52.8275 42.0849 53.1467 41.1039 53.1823C40.13 53.2176 39.0415 52.9646 38.3415 52.7511L38.2832 52.9424ZM43.2988 52.0401L43.4891 51.9784C43.4548 51.8726 43.3824 51.7689 43.2988 51.6723C43.2126 51.5726 43.1012 51.4656 42.9715 51.3535C42.7119 51.1291 42.3649 50.8718 41.9644 50.5949C41.163 50.0406 40.1283 49.3942 39.109 48.7542C38.0866 48.1125 37.08 47.4774 36.3253 46.9409C35.9474 46.6723 35.6388 46.4326 35.4246 46.2323C35.3172 46.132 35.2387 46.0462 35.1876 45.9757C35.1622 45.9407 35.1459 45.9126 35.1361 45.891C35.1262 45.8691 35.1254 45.8593 35.1254 45.8594L34.9258 45.8711L34.7261 45.8828C34.7332 46.003 34.795 46.1157 34.8637 46.2104C34.9358 46.31 35.0347 46.4155 35.1514 46.5246C35.3853 46.7432 35.7111 46.995 36.0935 47.2669C36.8594 47.8114 37.8765 48.4529 38.8963 49.093C39.919 49.735 40.9446 50.3759 41.7369 50.9238C42.1333 51.198 42.4665 51.4456 42.7098 51.6561C42.8316 51.7613 42.9274 51.8543 42.9963 51.934C43.068 52.0169 43.099 52.0721 43.1086 52.1017L43.2988 52.0401ZM34.9258 45.8711L35.0357 46.0382L35.1441 45.9669L35.0342 45.7998L34.9243 45.6327L34.8159 45.704L34.9258 45.8711ZM35.0342 45.7998L34.9993 45.9968C36.0671 46.1857 37.4391 46.9165 38.8279 47.7573C40.1981 48.5868 41.5854 49.5243 42.6328 50.0727L42.7256 49.8955L42.8183 49.7184C41.7837 49.1767 40.4352 48.2628 39.0351 47.4151C37.6537 46.5787 36.221 45.8067 35.069 45.6029L35.0342 45.7998ZM42.7256 49.8955L42.6328 50.0727C43.1126 50.3239 43.67 50.6206 44.2424 50.8672C44.8139 51.1133 45.4138 51.3156 45.9819 51.3716C46.5523 51.4279 47.1077 51.338 47.5652 50.9791C48.0209 50.6216 48.3474 50.0222 48.5149 49.1266L48.3184 49.0899L48.1218 49.0531C47.9647 49.8927 47.6709 50.3878 47.3183 50.6644C46.9675 50.9396 46.5268 51.0235 46.0212 50.9736C45.5132 50.9234 44.9572 50.7395 44.4007 50.4998C43.8451 50.2606 43.3026 49.9719 42.8184 49.7184L42.7256 49.8955ZM48.3184 49.0899L48.4857 48.9804C48.0343 48.2901 47.2942 47.664 46.5226 47.1017C46.1348 46.8192 45.7342 46.5494 45.3522 46.2937C44.9688 46.0371 44.6056 45.7956 44.2867 45.5662L44.1699 45.7285L44.0531 45.8909C44.3788 46.1252 44.7488 46.3712 45.1297 46.6261C45.5118 46.8819 45.9064 47.1477 46.287 47.425C47.0521 47.9825 47.7416 48.5733 48.151 49.1993L48.3184 49.0899ZM44.1699 45.7285L44.2867 45.5662C43.0464 44.6739 41.6025 43.7873 40.2119 42.8758C38.8153 41.9603 37.4662 41.016 36.3885 39.9954L36.251 40.1407L36.1135 40.2859C37.2187 41.3325 38.5933 42.2931 39.9926 43.2103C41.3978 44.1314 42.8219 45.0052 44.0531 45.8909L44.1699 45.7285ZM36.251 40.1407L36.2116 40.3367C36.8335 40.4617 37.476 40.6692 38.0413 40.9445L38.1289 40.7647L38.2165 40.5849C37.6172 40.293 36.9418 40.0754 36.2904 39.9446L36.251 40.1407ZM38.1289 40.7647L38.0413 40.9445C40.1566 41.9746 42.1471 43.223 44.1116 44.5276C46.0723 45.8297 48.0143 47.193 50.0144 48.4384L50.1201 48.2686L50.2258 48.0988C48.2318 46.8572 46.3056 45.5045 44.3329 44.1944C42.364 42.8868 40.3559 41.6268 38.2165 40.5849L38.1289 40.7647ZM50.1201 48.2686L50.0144 48.4384C50.5166 48.7511 51.1731 49.0078 51.81 49.0284C52.4559 49.0492 53.0944 48.8249 53.5005 48.1632L53.3301 48.0586L53.1596 47.954C52.8458 48.4653 52.3612 48.646 51.8229 48.6286C51.2758 48.6109 50.6873 48.3862 50.2258 48.0988L50.1201 48.2686ZM53.3301 48.0586L53.5005 48.1632C54.0761 47.2252 53.604 46.2431 52.9564 45.4367C52.306 44.6267 51.3828 43.8787 50.9001 43.4034L50.7598 43.5459L50.6194 43.6884C51.1476 44.2085 52.0115 44.8987 52.6445 45.6871C53.2804 46.4791 53.5881 47.2558 53.1596 47.954L53.3301 48.0586ZM50.7598 43.5459L50.8888 43.3931C49.0452 41.837 47.0696 40.3764 45.1613 38.922L45.04 39.0811L44.9188 39.2402C46.8337 40.6995 48.7971 42.1511 50.6308 43.6988L50.7598 43.5459ZM45.04 39.0811L45.1613 38.922C43.9391 37.9901 42.7378 37.0309 41.5579 36.0457L41.4297 36.1992L41.3015 36.3528C42.4859 37.3417 43.6918 38.3046 44.9188 39.2401L45.04 39.0811ZM41.4297 36.1992L41.5579 36.0457C41.3899 35.9055 41.047 35.6318 40.734 35.3463C40.5778 35.2037 40.434 35.0626 40.3267 34.9383C40.273 34.8761 40.2313 34.8213 40.2022 34.7752C40.1715 34.7265 40.1629 34.6999 40.1615 34.6923L39.9648 34.7285L39.7682 34.7648C39.783 34.8455 39.8222 34.9225 39.8639 34.9886C39.9073 35.0574 39.9626 35.1287 40.0238 35.1996C40.1463 35.3415 40.3034 35.4949 40.4644 35.6418C40.786 35.9352 41.143 36.2204 41.3015 36.3528L41.4297 36.1992ZM39.9648 34.7285L40.0337 34.9163C40.0453 34.9121 40.1022 34.9042 40.2353 34.9396C40.3591 34.9725 40.5186 35.0343 40.7123 35.1255C41.0989 35.3077 41.5968 35.5951 42.1735 35.9612C43.3255 36.6923 44.7715 37.7239 46.2309 38.8152C49.1521 40.9996 52.1059 43.4077 52.8401 44.1023L52.9775 43.9571L53.115 43.8118C52.3626 43.0999 49.3926 40.68 46.4705 38.4948C45.0082 37.4014 43.5527 36.3628 42.3878 35.6235C41.8061 35.2542 41.2918 34.9564 40.8828 34.7637C40.6788 34.6676 40.4948 34.5946 40.3381 34.553C40.1907 34.5138 40.0301 34.4916 39.8959 34.5408L39.9648 34.7285ZM52.9775 43.9571L52.8401 44.1024C53.069 44.3188 53.4475 44.5833 53.7168 44.744L53.8193 44.5723L53.9218 44.4006C53.6662 44.248 53.3147 44.0006 53.1149 43.8117L52.9775 43.9571ZM53.8193 44.5723L53.7183 44.7449C54.0731 44.9527 54.4824 45.0497 54.8925 45.0239L54.8799 44.8242L54.8673 44.6246C54.5365 44.6455 54.2063 44.5672 53.9204 44.3997L53.8193 44.5723ZM54.8799 44.8242L54.8911 45.0239C55.7619 44.975 56.4655 44.5291 56.819 43.8862C57.1747 43.2393 57.1629 42.4165 56.6484 41.6512L56.4824 41.7627L56.3164 41.8743C56.7526 42.5233 56.7477 43.1858 56.4685 43.6934C56.1872 44.205 55.6143 44.5826 54.8687 44.6246L54.8799 44.8242ZM56.4824 41.7627L56.6484 41.6512C55.2597 39.5852 53.1812 37.7936 51.3415 36.1882L51.21 36.3389L51.0785 36.4896C52.9289 38.1044 54.9629 39.8606 56.3164 41.8743L56.4824 41.7627ZM51.21 36.3389L51.3424 36.1891C49.5993 34.6482 47.7985 33.1733 45.944 31.7683L45.8232 31.9278L45.7025 32.0872C47.5489 33.486 49.3419 34.9545 51.0775 36.4887L51.21 36.3389ZM45.8232 31.9278L45.9437 31.7681C43.5616 29.9711 41.4065 28.6131 39.0708 27.7588C36.7322 26.9034 34.223 26.5565 31.1359 26.7663L31.1494 26.9659L31.163 27.1654C34.2021 26.9588 36.6543 27.3008 38.9334 28.1344C41.2152 28.9691 43.3339 30.3003 45.7028 32.0874L45.8232 31.9278ZM31.1494 26.9659L31.0448 26.7954C30.1868 27.3223 29.4356 28.1356 28.6741 28.8929C27.9025 29.6603 27.1112 30.3812 26.1467 30.7895L26.2246 30.9737L26.3026 31.1578C27.3447 30.7167 28.1834 29.945 28.9562 29.1765C29.7392 28.3978 30.4471 27.6319 31.2541 27.1363L31.1494 26.9659ZM26.2246 30.9737L26.1467 30.7895C24.7228 31.3921 23.3429 32.0444 21.8369 31.5408L21.7734 31.7305L21.71 31.9202C23.3879 32.4812 24.9227 31.7419 26.3026 31.1578L26.2246 30.9737ZM21.7734 31.7305L21.8369 31.5408C21.0082 31.2636 20.191 30.6895 19.7996 29.9156L19.6211 30.0059L19.4426 30.0962C19.8953 30.991 20.8144 31.6206 21.71 31.9202L21.7734 31.7305ZM19.6211 30.0059L19.8056 29.9287C19.5063 29.2136 19.5248 28.652 19.718 28.1629C19.9156 27.6626 20.3034 27.2179 20.785 26.7559C21.2542 26.3059 21.8302 25.8249 22.3281 25.2962C22.8339 24.759 23.2897 24.1441 23.5469 23.3824L23.3574 23.3184L23.1679 23.2544C22.9361 23.941 22.5216 24.5072 22.0369 25.0219C21.5443 25.545 21.0094 25.9865 20.5081 26.4673C20.0193 26.9362 19.5771 27.4308 19.346 28.016C19.1104 28.6124 19.1015 29.2825 19.4366 30.0831L19.6211 30.0059ZM23.3574 23.3184L23.3574 23.1184C20.758 23.119 18.1016 22.3299 15.4744 21.3022C14.1616 20.7886 12.8609 20.2175 11.5802 19.658C10.301 19.0992 9.04139 18.5518 7.81778 18.0893L7.74707 18.2764L7.67636 18.4635C8.88905 18.9218 10.1396 19.4652 11.42 20.0246C12.6989 20.5833 14.0072 21.1578 15.3287 21.6747C17.9699 22.7079 20.6823 23.519 23.3575 23.5184L23.3574 23.3184ZM7.74707 18.2764L7.8178 18.0893C7.59601 18.0055 7.45437 17.9397 7.30581 17.7965L7.16699 17.9405L7.02818 18.0844C7.23649 18.2853 7.44025 18.3742 7.67634 18.4635L7.74707 18.2764ZM7.16699 17.9405L7.3538 17.869C7.32505 17.7938 7.31128 17.7617 7.3012 17.7326C7.2932 17.7095 7.29926 17.7192 7.29773 17.7377C7.29694 17.7473 7.29402 17.7492 7.30977 17.7073C7.32319 17.6716 7.34477 17.6164 7.37153 17.5355L7.18164 17.4727L6.99175 17.4099C6.96812 17.4814 6.94998 17.5276 6.93532 17.5666C6.92299 17.5995 6.90365 17.6495 6.89909 17.7047C6.89379 17.7688 6.90873 17.8217 6.92325 17.8636C6.9357 17.8995 6.95811 17.9542 6.98018 18.0119L7.16699 17.9405ZM32.4248 45.9424L32.3715 45.7497C31.4102 46.0157 30.6034 46.9212 29.9257 47.893C29.5827 48.3848 29.2644 48.9066 28.9701 49.394C28.6742 49.8841 28.4046 50.3359 28.1538 50.6988L28.3184 50.8125L28.4829 50.9262C28.7424 50.5506 29.0198 50.0856 29.3126 49.6007C29.607 49.1131 29.9192 48.6016 30.2538 48.1218C30.9311 47.1506 31.6672 46.3596 32.4782 46.1352L32.4248 45.9424ZM28.3184 50.8125L28.1538 50.6989C27.6396 51.4432 27.4587 52.1177 27.6658 52.7202C27.87 53.3142 28.4295 53.7703 29.2281 54.1369L29.3115 53.9551L29.395 53.7733C28.6294 53.4219 28.1944 53.0275 28.0441 52.5902C27.8966 52.1613 28.0012 51.6235 28.4829 50.9262L28.3184 50.8125ZM29.3115 53.9551L29.3049 54.155C30.7742 54.2039 31.8755 53.076 32.6282 51.7452C33.3871 50.4035 33.8352 48.7841 33.9776 47.6949L33.7793 47.669L33.581 47.643C33.4441 48.6898 33.0096 50.2584 32.2801 51.5483C31.5443 52.8491 30.5514 53.7963 29.3182 53.7552L29.3115 53.9551ZM33.7793 47.669L33.9776 47.6949C34.096 46.7874 33.4888 45.7461 32.4255 45.7424L32.4248 45.9424L32.4241 46.1424C33.1769 46.1451 33.678 46.8998 33.581 47.6431L33.7793 47.669ZM29.3193 43.4434L29.4206 43.2709C29.0291 43.041 28.4455 42.9883 28.0264 43.0295L28.0459 43.2285L28.0654 43.4276C28.4429 43.3905 28.9292 43.4462 29.2181 43.6158L29.3193 43.4434ZM28.0459 43.2285L27.9643 43.046C27.1246 43.4213 26.3839 44.0647 25.7249 44.7774C25.066 45.4901 24.4757 46.2871 23.9469 46.9748L24.1055 47.0967L24.264 47.2186C24.7994 46.5224 25.3754 45.7447 26.0186 45.049C26.6618 44.3533 27.3592 43.7546 28.1275 43.4111L28.0459 43.2285ZM24.1055 47.0967L23.9469 46.9748C23.5229 47.5262 22.9385 48.1957 22.5611 48.9044C22.1794 49.621 21.9822 50.4253 22.3796 51.2454L22.5596 51.1582L22.7396 51.071C22.4214 50.4145 22.5616 49.7543 22.9141 49.0925C23.2708 48.4228 23.8171 47.7999 24.264 47.2186L24.1055 47.0967ZM22.5596 51.1582L22.3803 51.2469C22.6717 51.8359 23.1884 52.2826 23.8128 52.487L23.875 52.2969L23.9372 52.1068C23.4147 51.9358 22.9824 51.562 22.7388 51.0696L22.5596 51.1582ZM23.875 52.2969L23.8134 52.4872C24.0047 52.5491 24.2988 52.5905 24.5018 52.5827L24.4941 52.3828L24.4865 52.183C24.331 52.189 24.0838 52.1542 23.9366 52.1066L23.875 52.2969ZM24.4941 52.3828L24.5626 52.5708C25.2705 52.313 25.8156 52.0201 26.2922 51.6162C26.7676 51.2133 27.1655 50.7079 27.5889 50.0386L27.4199 49.9317L27.2509 49.8247C26.8386 50.4764 26.466 50.9446 26.0336 51.311C25.6025 51.6764 25.1025 51.9485 24.4257 52.1949L24.4941 52.3828ZM27.4199 49.9317L27.5889 50.0386C27.7957 49.7117 28.1524 49.237 28.5544 48.661C28.9509 48.0928 29.3817 47.4394 29.7153 46.7821C30.0469 46.1287 30.2934 45.4505 30.2999 44.8367C30.3065 44.206 30.0578 43.6454 29.4207 43.271L29.3193 43.4434L29.218 43.6158C29.7179 43.9096 29.9052 44.3285 29.8999 44.8325C29.8944 45.3534 29.6813 45.9652 29.3586 46.6011C29.0379 47.233 28.6199 47.8682 28.2264 48.432C27.8383 48.9881 27.4635 49.4887 27.2509 49.8247L27.4199 49.9317ZM19.2871 49.6846L19.3422 49.8769C20.18 49.637 21.2006 48.882 22.1598 47.9279C23.1253 46.9675 24.0542 45.7797 24.7046 44.6383C25.0298 44.0676 25.288 43.5038 25.4453 42.9823C25.6018 42.4635 25.6633 41.9707 25.5771 41.5497C25.4888 41.1185 25.2462 40.7698 24.8207 40.5612C24.4061 40.3579 23.837 40.2967 23.1042 40.3845L23.1279 40.583L23.1517 40.7816C23.8474 40.6983 24.3281 40.7651 24.6446 40.9203C24.9501 41.0701 25.1198 41.3103 25.1852 41.6299C25.2528 41.9597 25.2093 42.3796 25.0623 42.8668C24.9162 43.3513 24.6723 43.8869 24.357 44.4403C23.7263 45.5472 22.8203 46.7067 21.8777 47.6443C20.9288 48.5881 19.9681 49.2816 19.2321 49.4923L19.2871 49.6846ZM23.1279 40.583L23.0869 40.3873C22.9246 40.4213 22.671 40.4924 22.428 40.5873C22.3062 40.6348 22.1834 40.6896 22.0745 40.7506C21.968 40.8102 21.8631 40.8819 21.7867 40.967L21.9355 41.1006L22.0844 41.2342C22.1182 41.1966 22.1795 41.1502 22.2698 41.0997C22.3578 41.0505 22.4625 41.0031 22.5734 40.9599C22.7956 40.8732 23.028 40.8083 23.1689 40.7788L23.1279 40.583ZM21.9355 41.1006L21.7866 40.9671C20.9989 41.8456 20.1812 42.696 19.3608 43.5474C18.5412 44.398 17.7188 45.2497 16.9259 46.1266L17.0742 46.2608L17.2226 46.3949C18.0104 45.5235 18.8282 44.6766 19.6488 43.825C20.4687 42.9741 21.2912 42.1187 22.0844 41.2341L21.9355 41.1006ZM17.0742 46.2608L16.9259 46.1266C16.8252 46.238 16.7548 46.4066 16.7041 46.5753C16.6513 46.7508 16.6119 46.9538 16.5864 47.1565C16.5608 47.3594 16.5486 47.5668 16.5518 47.7519C16.555 47.9327 16.5732 48.1083 16.617 48.2393L16.8066 48.1758L16.9963 48.1123C16.9721 48.0399 16.9548 47.9131 16.9518 47.7449C16.9489 47.581 16.9598 47.3929 16.9832 47.2064C17.0068 47.0197 17.0423 46.8395 17.0871 46.6905C17.134 46.5348 17.1838 46.4378 17.2226 46.3949L17.0742 46.2608ZM16.8066 48.1758L16.617 48.2394C16.8613 48.9675 17.178 49.4115 17.6399 49.6521C18.0889 49.886 18.6403 49.9069 19.294 49.8845L19.2871 49.6846L19.2803 49.4847C18.6231 49.5073 18.1703 49.4774 17.8247 49.2974C17.4921 49.1241 17.2241 48.7913 16.9963 48.1122L16.8066 48.1758ZM19.9033 41.3047L20.079 41.4003C20.5527 40.5293 20.5368 39.7792 20.0805 39.2812C19.6409 38.8013 18.8561 38.6327 17.9676 38.756L17.9951 38.9541L18.0226 39.1522C18.8532 39.037 19.4748 39.2121 19.7856 39.5514C20.0798 39.8725 20.1585 40.417 19.7276 41.2092L19.9033 41.3047ZM17.9951 38.9541L17.9546 38.7583C16.8543 38.9858 15.4936 39.5151 14.475 40.3397C13.4532 41.1668 12.7497 42.3168 13.0573 43.7633L13.2529 43.7217L13.4486 43.6801C13.1835 42.4334 13.7731 41.4225 14.7267 40.6506C15.6833 39.8761 16.9801 39.3682 18.0356 39.15L17.9951 38.9541ZM13.2529 43.7217L13.0573 43.7633C13.2963 44.8865 14.2436 45.5891 15.3913 45.4953L15.375 45.2959L15.3587 45.0966C14.4105 45.1741 13.6454 44.6055 13.4486 43.6801L13.2529 43.7217ZM15.375 45.2959L15.4408 45.4848C16.3198 45.1787 17.2605 44.5564 18.086 43.8183C18.9122 43.0796 19.6377 42.2117 20.079 41.4003L19.9033 41.3047L19.7276 41.2092C19.3134 41.9707 18.6206 42.8038 17.8193 43.5202C17.0174 44.2372 16.1217 44.8241 15.3092 45.1071L15.375 45.2959Z" fill="#696565" mask="url(#path-2-outside-1_981_148)"/>
<path d="M41.1865 4.40332C41.2247 4.41412 41.2801 4.43848 41.3281 4.45996C41.3534 4.47124 41.3788 4.48275 41.4014 4.49316C41.4241 4.50365 41.4438 4.51274 41.459 4.51953C41.4724 4.52553 41.4845 4.53475 41.4941 4.5459C41.6613 4.73996 41.7486 4.99381 41.6953 5.25488C41.5893 5.77358 41.2794 7.03935 40.9131 8.24512C40.7299 8.848 40.5318 9.43792 40.3379 9.91309C40.241 10.1506 40.144 10.3614 40.0498 10.5312C39.9571 10.6985 39.8623 10.8354 39.7656 10.917C39.7462 10.9334 39.7207 10.9418 39.6953 10.9404C39.5896 10.9347 39.517 10.9316 39.4473 10.9141C39.3761 10.8961 39.3115 10.8647 39.2158 10.8145C39.2018 10.8071 39.1898 10.7961 39.1807 10.7832C39.1186 10.6949 39.0956 10.5689 39.0918 10.4346C39.0879 10.2965 39.1036 10.1315 39.1318 9.95117C39.1883 9.59028 39.2989 9.15297 39.4238 8.71289C39.549 8.27199 39.6893 7.82414 39.8076 7.44434C39.9268 7.06179 40.022 6.75273 40.0576 6.58105C40.2048 5.87173 40.5725 4.97632 41.0869 4.43164L41.1328 4.40332C41.15 4.39862 41.1687 4.39828 41.1865 4.40332Z" fill="#696565" stroke="#696565" stroke-width="0.2" stroke-linejoin="round"/>
<path d="M29.791 4.9502C30.0181 5.06884 30.193 5.30742 30.333 5.5918C30.4743 5.87864 30.5874 6.22755 30.6816 6.58691C30.776 6.94664 30.8531 7.32134 30.9219 7.66113C30.991 8.00275 31.0509 8.30652 31.1123 8.53027C31.2177 8.91435 31.405 9.50615 31.4854 10.0752C31.5256 10.3604 31.5403 10.6461 31.5029 10.9023C31.4655 11.1587 31.375 11.3935 31.1982 11.5664C31.1599 11.6039 31.0986 11.6042 31.0596 11.5674C30.9981 11.5095 30.874 11.3934 30.7578 11.2705C30.6997 11.2091 30.6419 11.1444 30.5947 11.084C30.5494 11.0259 30.5068 10.9628 30.4863 10.9062C29.9303 9.36847 29.5947 7.54194 29.2559 5.9502C29.2093 5.73087 29.2567 5.55591 29.3457 5.40039C29.4297 5.25352 29.5588 5.11371 29.666 4.97754C29.6957 4.93976 29.7484 4.928 29.791 4.9502Z" fill="#696565" stroke="#696565" stroke-width="0.2" stroke-linejoin="round"/>
<path d="M29.6963 59.3125C29.8691 59.3741 29.9566 59.5514 29.999 59.7559C30.0426 59.966 30.0467 60.2406 30.0244 60.5527C29.9797 61.1785 29.826 61.9847 29.6328 62.8018C29.2462 64.4369 28.6987 66.1358 28.5371 66.5635C28.4862 66.6979 28.3848 66.772 28.2822 66.8174C28.1857 66.86 28.0705 66.8832 27.9941 66.9043C27.9745 66.9097 27.9538 66.9091 27.9346 66.9023C27.843 66.8698 27.7836 66.8458 27.7266 66.8135C27.6709 66.7819 27.6195 66.7437 27.5439 66.6875C27.5192 66.6691 27.5046 66.6402 27.5039 66.6094C27.5018 66.504 27.53 66.3299 27.5771 66.1143C27.6252 65.8949 27.695 65.6215 27.7793 65.3125C27.948 64.6943 28.1779 63.9273 28.417 63.1475C28.8961 61.5844 29.413 59.9729 29.5664 59.3809L29.584 59.3447C29.5925 59.3338 29.6037 59.325 29.6162 59.3184C29.641 59.3052 29.6699 59.3031 29.6963 59.3125Z" fill="#696565" stroke="#696565" stroke-width="0.2" stroke-linejoin="round"/>
<path d="M47.3008 56.708C47.3492 56.7124 47.4003 56.7186 47.4443 56.7275C47.4663 56.732 47.4886 56.738 47.5088 56.7451C47.5273 56.7516 47.5522 56.7617 47.5732 56.7793C48.6417 57.6755 50.1376 59.2989 50.833 60.5156C50.9126 60.6551 50.9005 60.8119 50.8672 60.9414C50.8336 61.0718 50.7733 61.192 50.7334 61.2695C50.7174 61.3005 50.6862 61.3207 50.6514 61.3232C50.6077 61.3264 50.4739 61.3375 50.3418 61.3379C50.2759 61.3381 50.207 61.336 50.1484 61.3281C50.1192 61.3242 50.0891 61.3182 50.0625 61.3096C50.0382 61.3017 50.0053 61.2876 49.9795 61.2607C48.9467 60.1802 47.532 58.5946 46.7891 57.3018C46.755 57.2423 46.7548 57.1789 46.7666 57.125C46.7783 57.0718 46.803 57.0199 46.8291 56.9746C46.8786 56.8886 46.9557 56.7909 46.9902 56.7402L47.0264 56.708C47.0406 56.7006 47.0567 56.6972 47.0732 56.6973C47.1062 56.6976 47.2036 56.6992 47.3008 56.708Z" fill="#696565" stroke="#696565" stroke-width="0.2" stroke-linejoin="round"/>
<path d="M20.8027 9.00977C20.8528 9.01307 20.9057 9.01757 20.9502 9.02441C20.9722 9.0278 20.994 9.03275 21.0137 9.03809L21.0791 9.06543V9.06641C22.298 9.91948 23.8976 11.5617 24.707 12.8115C24.7787 12.9223 24.7758 13.0396 24.7539 13.1348C24.733 13.2256 24.6898 13.3136 24.6709 13.3594C24.6558 13.3959 24.6206 13.42 24.5811 13.4209C24.4351 13.4244 24.2741 13.381 24.1074 13.3076C23.9397 13.2337 23.7594 13.1262 23.5732 12.9971C23.201 12.7389 22.7958 12.3853 22.4053 12.0068C21.6242 11.2497 20.8899 10.3827 20.5732 9.95312C20.4651 9.80633 20.4182 9.66174 20.4111 9.5127C20.4043 9.3668 20.436 9.22102 20.4775 9.07422L20.4912 9.04492C20.5095 9.01816 20.5405 9.00185 20.5742 9.00195C20.6026 9.00215 20.7023 9.00315 20.8027 9.00977Z" fill="#696565" stroke="#696565" stroke-width="0.2" stroke-linejoin="round"/>
<path d="M21.5293 58.5879C21.6156 58.5893 21.6809 58.5894 21.7422 58.6104C21.7727 58.6208 21.8012 58.6362 21.8311 58.6553L21.9277 58.7227L21.9473 58.7432C21.9529 58.7505 21.9575 58.7588 21.9609 58.7676C22.0146 58.9046 22.0045 59.0673 21.959 59.2363C21.913 59.407 21.828 59.5962 21.7168 59.7939C21.4939 60.1901 21.1585 60.6357 20.791 61.0596C20.423 61.484 20.0195 61.89 19.6602 62.21C19.4805 62.3699 19.3109 62.5092 19.1611 62.6182C19.0129 62.7261 18.8788 62.8084 18.7715 62.8506C18.7466 62.8603 18.7187 62.8604 18.6943 62.8496C18.623 62.8179 18.5737 62.7986 18.5352 62.7832C18.4987 62.7687 18.4639 62.7537 18.4326 62.7324C18.3986 62.7093 18.3736 62.6814 18.3486 62.6475C18.3251 62.6154 18.2961 62.5707 18.2568 62.5117C18.2485 62.4992 18.2433 62.4846 18.2412 62.4697C18.223 62.3378 18.2563 62.1868 18.3184 62.0303C18.3812 61.8718 18.4771 61.6969 18.5957 61.5146C18.8331 61.15 19.1678 60.744 19.5273 60.3525C19.8873 59.9607 20.2746 59.5811 20.6211 59.2715C20.9658 58.9634 21.2751 58.7197 21.4766 58.6016C21.4924 58.5923 21.5109 58.5876 21.5293 58.5879Z" fill="#696565" stroke="#696565" stroke-width="0.2" stroke-linejoin="round"/>
<path d="M38.8906 60.4521L38.9307 60.4658C39.0276 60.5243 39.1176 60.6316 39.2002 60.7607C39.2844 60.8924 39.3679 61.0572 39.4482 61.2432C39.6091 61.6156 39.7619 62.0815 39.8896 62.5537C40.0174 63.0261 40.1213 63.5078 40.1816 63.9131C40.2118 64.1157 40.2308 64.3012 40.2373 64.457C40.2437 64.6103 40.2377 64.7441 40.2119 64.8398C40.2017 64.8773 40.171 64.9054 40.1328 64.9121C40.0234 64.9311 39.8194 64.9807 39.6377 64.9854C39.4616 64.9899 39.239 64.954 39.1592 64.7383C38.9787 64.2499 38.7394 63.4381 38.5684 62.627C38.4828 62.2214 38.4137 61.8142 38.3779 61.4463C38.3423 61.0799 38.3388 60.7456 38.3877 60.4893L38.4014 60.4551C38.4203 60.4247 38.4546 60.4059 38.4922 60.4082L38.8906 60.4521Z" fill="#696565" stroke="#696565" stroke-width="0.2" stroke-linejoin="round"/>
</g>
<defs>
<clipPath id="clip0_981_148">
<rect width="64" height="64" fill="white"/>
</clipPath>
</defs>
</svg>
