<svg preserveAspectRatio="xMidYMid meet" width="100%" height="100%" overflow="visible" style="display: block;" viewBox="0 0 64.001 39.8845" fill="none" xmlns="http://www.w3.org/2000/svg">
<g id="vectorly-UNI-mail-email-letter">
<path id="path2062" fill-rule="evenodd" clip-rule="evenodd" d="M25.5299 1.18948C25.3951 1.30517 25.2038 1.53017 24.9998 1.70781C23.4894 3.02688 20.4167 6.08314 17.7923 8.92808C16.1717 10.6853 14.7205 12.3588 13.9462 13.5002C13.774 13.7544 13.5426 14.0368 13.4534 14.208C13.4889 14.2499 13.5472 14.3165 13.5982 14.3638C13.815 14.5715 14.1348 14.8193 14.5292 15.1017C15.9594 16.1229 18.3416 17.5303 20.7811 18.8448C23.207 20.153 25.6875 21.3709 27.3573 22.004C28.0752 22.2764 28.6154 22.4559 28.906 22.4367C29.1091 22.4231 29.3633 22.2837 29.6639 22.0824C30.2177 21.7125 30.8755 21.1304 31.5687 20.4463C34.1668 17.8838 37.233 13.9275 37.233 13.9275C37.3378 13.7863 37.5383 13.7571 37.6795 13.8628C37.8206 13.9676 37.8498 14.168 37.745 14.3092C37.745 14.3092 34.7853 18.4258 32.2419 21.1067C31.3756 22.0195 30.5503 22.7647 29.9017 23.1537C29.5591 23.3596 29.2485 23.4689 28.9934 23.4944C28.6208 23.5308 27.9066 23.3796 26.9756 23.0562C25.2512 22.4577 22.6796 21.2871 20.1717 20.0036C17.6447 18.71 15.1824 17.3017 13.7029 16.2732C13.1309 15.8751 12.7 15.5235 12.4449 15.2538C12.2518 15.0507 12.1388 14.8648 12.0823 14.72C11.9913 14.4868 11.9812 14.1006 12.2017 13.6123C12.5952 12.7396 13.8432 11.1481 15.4547 9.36901C18.2723 6.2599 22.184 2.51493 24.0706 0.918013C24.5543 0.508991 24.9196 0.233862 25.1146 0.125458C25.3141 0.0134093 25.4716 -0.00390964 25.5564 0.000645175C25.8123 0.0152206 26.2469 0.201089 26.7725 0.602823C27.5395 1.18948 28.629 2.23891 29.8242 3.48966C33.326 7.15173 37.7824 12.5282 37.7824 12.5282C37.8972 12.6621 37.8816 12.8644 37.7477 12.9791C37.6138 13.0939 37.4125 13.0785 37.2977 12.9445C37.2977 12.9445 32.6855 7.74747 29.0927 4.2102C27.9103 3.04599 26.8417 2.06217 26.0911 1.52015C25.8898 1.3753 25.632 1.2414 25.5299 1.18948ZM13.4451 14.2244C13.4041 14.3082 13.4014 14.362 13.4643 14.3665C13.5207 14.3711 13.4716 14.28 13.4451 14.2244ZM25.5463 1.17671C25.6192 1.18764 25.7459 1.20858 25.7067 1.13935C25.6794 1.09107 25.6229 1.11386 25.5463 1.17671Z" fill="var(--fill-0, #283E37)"/>
<path id="path2064" fill-rule="evenodd" clip-rule="evenodd" d="M13.5202 15.0752C13.5093 15.3375 13.5466 15.7921 13.5922 16.3833C13.7215 18.0495 14.0567 20.6503 14.4375 23.242C14.8183 25.8336 15.2446 28.418 15.6254 30.0359C15.7329 30.4914 15.8322 30.8676 15.9278 31.1382C15.9424 31.1792 15.9616 31.2265 15.9789 31.2684C16.0909 31.2775 16.2567 31.2885 16.4016 31.2867C17.9074 31.2612 21.0794 30.7774 24.5437 30.1799C30.874 29.0876 38.1608 27.6036 38.1608 27.6036C38.3329 27.5654 38.5033 27.6738 38.5415 27.845C38.5807 28.0172 38.4723 28.1885 38.3001 28.2267C38.3001 28.2267 26.8339 31.0052 20.1902 32.1448C18.2226 32.4828 16.6639 32.6668 15.9133 32.6249C15.4405 32.5984 15.1554 32.4354 15.0296 32.3069C14.8547 32.1284 14.5951 31.5699 14.3637 30.7127C14.0203 29.4356 13.614 27.3932 13.2624 25.1823C12.7878 22.2062 12.3988 18.9267 12.2521 16.8306C12.1674 15.6208 12.1902 14.7645 12.2795 14.4931C12.346 14.2927 12.5464 14.0148 13.0019 13.8481C13.6241 13.6194 15.0251 13.4391 16.827 13.3334C22.7628 12.9872 33.2261 13.2551 33.2261 13.2551C33.4019 13.256 33.544 13.3999 33.5431 13.5766C33.5422 13.7524 33.3974 13.8946 33.2215 13.8936C33.2215 13.8936 26.6399 13.9847 20.9755 14.2808C18.3902 14.4156 15.9989 14.5906 14.5277 14.832C14.126 14.8985 13.7197 15.0141 13.5202 15.0752Z" fill="var(--fill-0, #283E37)"/>
<path id="path2066" fill-rule="evenodd" clip-rule="evenodd" d="M37.913 15.362C37.8985 15.1862 38.0287 15.0313 38.2045 15.0167C38.3794 15.0022 38.5343 15.1324 38.5498 15.3073C38.5498 15.3073 38.8614 16.8715 39.1747 18.8938C39.2458 19.3547 39.3104 19.8385 39.3696 20.3331C39.4079 20.651 39.4462 20.9726 39.469 21.2951C39.5291 22.1213 39.5519 22.9476 39.5682 23.7137C39.612 25.7588 39.5737 27.3521 39.5737 27.3521C39.5892 27.5279 39.458 27.6827 39.2831 27.6973C39.1073 27.7128 38.9524 27.5825 38.9379 27.4067C38.9379 27.4067 38.6309 25.8417 38.3284 23.8185C38.2155 23.0615 38.0989 22.2434 38.0178 21.419C37.9859 21.0965 37.9695 20.7731 37.9531 20.4543C37.9276 19.956 37.9103 19.4686 37.903 19.0022C37.8702 16.9553 37.913 15.362 37.913 15.362Z" fill="var(--fill-0, #283E37)"/>
<path id="path2068" fill-rule="evenodd" clip-rule="evenodd" d="M0.352607 24.9522C0.177703 24.9713 0.0201193 24.8438 0.00190009 24.6689C-0.0172301 24.4931 0.110292 24.3364 0.285197 24.3173C0.285197 24.3173 2.59903 23.8937 5.57149 23.4391C6.25016 23.3353 6.96256 23.236 7.69133 23.1422C8.15865 23.082 8.63233 23.021 9.10786 22.9754C10.3222 22.8579 11.5383 22.7768 12.6642 22.7067C15.664 22.5209 18.0152 22.4471 18.0152 22.4471C18.1901 22.4288 18.3477 22.5555 18.3668 22.7313C18.3851 22.9062 18.2575 23.0638 18.0826 23.082C18.0826 23.082 15.7679 23.5001 12.7954 23.9447C11.6786 24.1114 10.4725 24.2854 9.25998 24.4239C8.78628 24.4785 8.31077 24.5177 7.8398 24.556C7.1083 24.6161 6.39045 24.6689 5.7054 24.709C2.70379 24.8839 0.352607 24.9522 0.352607 24.9522Z" fill="var(--fill-0, #283E37)"/>
<path id="path2070" fill-rule="evenodd" clip-rule="evenodd" d="M1.20189 29.4071C1.02699 29.4326 0.864836 29.3123 0.839329 29.1374C0.813822 28.9634 0.934985 28.8013 1.10897 28.7758C1.10897 28.7758 2.61751 28.375 4.57516 27.9468C5.02153 27.8494 5.48978 27.7573 5.96985 27.6699C6.27867 27.6143 6.59022 27.5579 6.9045 27.5159C7.70797 27.4094 8.51323 27.3392 9.26113 27.2791C11.257 27.1188 12.8175 27.0659 12.8175 27.0659C12.9915 27.0404 13.1537 27.1615 13.1792 27.3355C13.2047 27.5104 13.0836 27.6726 12.9096 27.6981C12.9096 27.6981 11.3992 28.0935 9.44061 28.5107C8.70728 28.6674 7.91476 28.8295 7.11494 28.9571C6.80157 29.0072 6.48637 29.0427 6.17573 29.0773C5.69019 29.1301 5.21557 29.1757 4.76009 29.2103C2.76145 29.3597 1.20189 29.4071 1.20189 29.4071Z" fill="var(--fill-0, #283E37)"/>
<path id="path2072" fill-rule="evenodd" clip-rule="evenodd" d="M45.3611 27.1522C45.4877 27.0301 45.6899 27.0328 45.8129 27.1594C45.935 27.2861 45.9323 27.4883 45.8056 27.6113C45.8056 27.6113 44.3526 29.2173 42.7666 30.7532C42.3048 31.2014 41.8302 31.6386 41.3784 32.0303C40.6879 32.6297 40.0456 33.1171 39.5774 33.3831C39.2704 33.558 39.0035 33.64 38.814 33.661C38.5216 33.6901 38.0069 33.6373 37.3601 33.477C36.8372 33.3476 36.2132 33.1554 35.5427 32.924C34.455 32.5478 33.2462 32.0741 32.1567 31.6232C30.3248 30.8662 28.8426 30.1793 28.8426 30.1793C28.6777 30.1155 28.5967 29.9306 28.6604 29.7666C28.7233 29.6017 28.9082 29.5207 29.0731 29.5844C29.0731 29.5844 30.6217 30.07 32.5074 30.6384C33.6206 30.9727 34.8468 31.3326 35.9418 31.6286C36.5904 31.8044 37.1907 31.9566 37.6899 32.0659C38.1299 32.1624 38.4724 32.238 38.671 32.218C38.7712 32.2098 38.9097 32.1196 39.0946 32.0121C39.4972 31.778 40.0047 31.4228 40.5558 31.0101C41.0222 30.6612 41.5177 30.2758 42.0106 29.8878C43.7259 28.535 45.3611 27.1522 45.3611 27.1522Z" fill="var(--fill-0, #283E37)"/>
<path id="path2074" fill-rule="evenodd" clip-rule="evenodd" d="M62.6095 16.3402C62.5011 16.2619 62.2124 16.0569 61.9318 15.8902C60.1536 14.8326 56.1554 12.9004 52.5061 11.319C50.2414 10.3379 48.1162 9.48617 46.737 9.08171C46.2496 8.93868 45.6966 8.86122 45.5901 8.84756C45.5053 8.92408 45.4115 9.0762 45.2876 9.27297C44.8841 9.91338 44.3657 10.9664 43.8146 12.1862C42.1293 15.9175 40.1453 21.1747 40.1453 21.1747C40.0861 21.3405 39.903 21.427 39.7372 21.3678C39.5714 21.3086 39.4848 21.1255 39.544 20.9597C39.544 20.9597 41.3632 15.6106 42.9383 11.8073C43.473 10.5165 43.9831 9.40235 44.384 8.72186C44.6463 8.27822 44.8977 8.00036 45.0754 7.88922C45.2539 7.77809 45.6511 7.71614 46.2277 7.81543C47.5322 8.04226 50.1686 8.97964 53.0035 10.1384C56.7493 11.6706 60.8469 13.5819 62.667 14.6386C63.0687 14.8718 63.3675 15.0731 63.5469 15.2206C63.7455 15.3846 63.8512 15.5386 63.9004 15.6424C63.9505 15.749 63.996 15.9057 64.0006 16.1143C64.0051 16.3156 63.9723 16.6172 63.894 16.997C63.5633 18.6103 62.421 21.9545 61.2121 24.8741C60.2921 27.0969 59.3255 29.0718 58.6778 29.8972C58.3781 30.2788 58.083 30.4665 57.8753 30.5139C57.7222 30.5476 57.4335 30.5449 57.0381 30.4456C56.1262 30.2151 54.3398 29.5045 52.2629 28.5963C47.2262 26.3927 40.4432 23.0531 40.4432 23.0531C40.2837 22.9775 40.2154 22.7871 40.291 22.6277C40.3657 22.4683 40.5561 22.3999 40.7155 22.4746C40.7155 22.4746 47.5924 25.5619 52.6801 27.6006C54.3672 28.2766 55.8539 28.8377 56.8213 29.1238C57.1921 29.2331 57.6321 29.3041 57.6321 29.3041C57.6321 29.3041 57.5992 29.3069 57.5874 29.3105C57.5637 29.316 57.4845 29.3124 57.5054 29.3397C57.6311 29.5109 57.8698 28.8824 58.1176 28.4351C58.8109 27.1852 59.6863 25.0873 60.4824 22.9556C61.2786 20.8258 61.9928 18.6623 62.3399 17.2667C62.4228 16.9333 62.5685 16.5625 62.6095 16.3402ZM62.6132 16.3138C62.6296 16.2027 62.615 16.1362 62.544 16.1398C62.4893 16.1426 62.5694 16.2327 62.5831 16.2628C62.5886 16.2746 62.6004 16.2938 62.6132 16.3138Z" fill="var(--fill-0, #283E37)"/>
<path id="path2076" fill-rule="evenodd" clip-rule="evenodd" d="M61.4357 16.2433C61.6015 16.1823 61.7846 16.2679 61.8447 16.4337C61.9048 16.5995 61.8201 16.7826 61.6543 16.8427C61.6543 16.8427 59.3268 17.8402 56.8763 18.6373C56.1603 18.8696 55.4343 19.081 54.7529 19.2477C53.892 19.4581 53.1004 19.592 52.4837 19.6157C51.958 19.6366 51.5363 19.5601 51.2493 19.4307C50.9678 19.2987 50.5907 18.9826 50.1962 18.4825C49.7644 17.935 49.2662 17.1515 48.7588 16.246C48.1047 15.0782 47.4287 13.7072 46.8184 12.3981C46.096 10.8477 45.4793 9.38829 45.0921 8.47277C45.0156 8.31427 45.083 8.12297 45.2415 8.04736C45.4 7.97084 45.5913 8.03735 45.6678 8.19677C46.1379 9.06492 46.9049 10.4395 47.7503 11.9153C48.4554 13.1469 49.2206 14.4387 49.9257 15.5491C50.4413 16.3617 50.9232 17.0714 51.3313 17.5724C51.549 17.8393 51.7139 18.0488 51.8651 18.1199C52.05 18.211 52.3543 18.2092 52.7315 18.1909C53.483 18.1563 54.4541 17.9887 55.4752 17.7765C58.2856 17.1916 61.4357 16.2433 61.4357 16.2433Z" fill="var(--fill-0, #283E37)"/>
<path id="path2078" fill-rule="evenodd" clip-rule="evenodd" d="M28.0694 38.7378C28.4502 38.7223 29.0651 38.6439 29.854 38.53C31.6768 38.2677 34.3678 37.773 37.22 37.2301C38.1929 37.0443 39.1841 36.8575 40.1661 36.6717C41.6965 36.3829 43.2041 36.0978 44.5815 35.8227C47.1112 35.3153 49.1937 34.857 50.1438 34.5236C50.2295 34.4936 50.3233 34.4553 50.3916 34.4252C50.3889 34.346 50.3761 34.2449 50.3625 34.1265C50.2923 33.4961 50.0855 32.5396 49.8332 31.5193C49.2656 29.2182 48.4767 26.6074 48.4767 26.6074C48.4212 26.4407 48.5123 26.2594 48.679 26.2038C48.8466 26.1482 49.027 26.2393 49.0835 26.4069C49.0835 26.4069 50.2631 29.6664 50.9536 32.1041C51.1896 32.9376 51.3663 33.6774 51.4292 34.1711C51.4711 34.5054 51.4492 34.7568 51.4037 34.9035C51.3709 35.0101 51.2834 35.1531 51.0921 35.2861C50.8908 35.4264 50.4271 35.6213 49.7539 35.8372C48.1752 36.3437 45.3376 37.0598 42.2012 37.7284C40.545 38.081 38.8051 38.4216 37.1271 38.7141C33.4751 39.3508 30.1173 39.7926 28.5486 39.8737C28.012 39.901 27.6458 39.8737 27.4892 39.8227C27.1275 39.7052 27.0291 39.4583 27.0182 39.2716C26.9945 38.8516 26.8123 37.8714 26.5773 36.7191C26.0453 34.1055 25.2391 30.642 25.2391 30.642C25.1944 30.4717 25.2955 30.2968 25.4668 30.2522C25.6371 30.2075 25.8121 30.3096 25.8567 30.4799C25.8567 30.4799 26.8651 33.9042 27.5402 36.4959C27.7752 37.3986 27.9674 38.203 28.0694 38.7378Z" fill="var(--fill-0, #283E37)"/>
<path id="path2080" fill-rule="evenodd" clip-rule="evenodd" d="M31.5184 33.9576C31.6924 33.9284 31.8573 34.045 31.8874 34.2181C31.9165 34.3921 31.7999 34.5579 31.6259 34.5871C31.6259 34.5871 29.1946 35.1846 26.0673 35.8615C25.3521 36.0164 24.6015 36.1694 23.8336 36.3179C23.3407 36.4126 22.8415 36.5092 22.3405 36.5912C21.0579 36.7998 19.7716 36.972 18.5801 37.1268C15.4081 37.5377 12.9157 37.7882 12.9157 37.7882C12.7426 37.8183 12.5768 37.7007 12.5477 37.5276C12.5176 37.3537 12.6342 37.1888 12.8082 37.1587C12.8082 37.1587 15.2414 36.5666 18.3705 35.8997C19.5456 35.6492 20.8156 35.3851 22.0946 35.1555C22.5947 35.0653 23.0975 34.9906 23.594 34.9159C24.3674 34.8011 25.1262 34.6955 25.8513 34.6034C29.026 34.2026 31.5184 33.9576 31.5184 33.9576Z" fill="var(--fill-0, #283E37)"/>
</g>
</svg>
