<svg width="64" height="64" viewBox="0 0 64 64" fill="none" xmlns="http://www.w3.org/2000/svg">
<path d="M14 8C14 6.89543 14.8954 6 16 6H26C27.1046 6 28 6.89543 28 8V14L22 20L28 26L34 20L40 26L46 20L40 14V8C40 6.89543 40.8954 6 42 6H48C49.1046 6 50 6.89543 50 8V18C50 20 48 24 44 28L36 36C32 40 28 44 24 48L16 56C12 60 8 58 8 56V46C8 44.8954 8.89543 44 10 44H16L22 38L16 32L10 38H8C6.89543 38 6 37.1046 6 36V16C6 10 10 8 14 8Z" stroke="#283E37" stroke-width="2"/>
<path d="M40 6C40 6 52 6 56 10C60 14 58 24 58 24" stroke="#283E37" stroke-width="2"/>
<path d="M40 14C40 14 48 14 50 18C52 22 50 28 50 28" stroke="#283E37" stroke-width="2"/>
</svg>
