<svg xmlns="http://www.w3.org/2000/svg" width="80" height="80" viewBox="0 0 64 64" fill="none">
  <path d="M33.1665 12.1711C34.1621 12.0154 36.2547 12.1528 37.2255 12.3395C38.5522 12.5946 40.087 13.2314 41.2372 13.9406C41.7269 14.2426 42.9382 14.8127 42.9843 15.4265C42.9147 15.7497 42.4756 15.9976 42.2005 16.1938C40.1841 14.5694 38.5132 13.7429 35.912 13.3443C33.0703 12.9089 29.7587 13.8833 27.4731 15.5941C24.871 17.5255 23.1556 20.4228 22.7138 23.6332C22.3135 26.4174 22.8867 29.619 24.5603 31.9188C25.1288 32.6998 25.8096 33.2752 26.3599 34.0078C28.9055 33.5741 31.4306 35.1302 32.593 37.3598C32.7038 37.2458 32.8277 37.1309 32.9557 37.0376C35.3456 35.2953 37.6347 35.3777 40.351 35.7083C42.7085 34.3635 44.3132 32.2235 45.4015 29.7833C46.749 26.7621 46.6685 23.7783 45.4537 20.7222C45.1502 19.9587 44.6969 19.2694 44.3938 18.4935C44.6297 18.1864 44.7324 18.0602 45.0165 17.7893C45.9914 18.4743 46.6742 20.247 47.0349 21.3372C48.0977 24.5485 47.763 28.2413 46.2623 31.2591C50.1186 31.3675 50.3426 34.3283 50.5966 34.4256C50.7765 34.4944 51.2115 34.4466 51.4222 34.4597C52.0512 34.4989 52.7973 34.7757 53.3418 35.0927C54.6703 35.8655 54.7057 36.7323 54.9074 38.0848C54.9687 38.4943 55.0696 38.892 55.1736 39.2923C55.4403 40.5638 55.332 42.3887 55.0072 43.6398C54.7353 44.6882 53.1078 45.588 52.1478 45.9407C51.1909 46.2925 50.2675 46.3154 49.2494 46.3491C48.8159 47.0479 48.4031 47.7784 47.7346 48.2707C46.4234 49.2363 45.0608 49.5373 43.4767 49.332C42.4602 51.6945 40.3882 52.2348 38.0614 52.3446C37.813 52.5466 37.4095 52.9667 37.1446 53.2044C36.5481 53.7299 35.9067 54.2025 35.2279 54.6165C32.8956 56.0464 30.4601 56.5608 27.7382 55.9477C26.2093 55.6029 23.878 54.5769 23.0234 53.1749C21.3157 53.2131 19.9985 52.9971 18.6213 51.935C17.8588 51.3469 17.4876 50.8737 17.1783 49.955C15.002 50.4644 12.0943 49.3379 11.4865 47.0864C11.4693 47.0227 11.1339 47.036 11.0727 47.0392C9.41015 47.1266 7.60807 46.9118 6.40886 45.6313C5.45176 44.6023 5.28574 42.5309 5.3396 41.1665C5.36638 40.4886 5.58716 39.816 5.45989 39.1278C5.22148 37.7574 5.84854 36.5453 6.86393 35.6624C8.48527 34.2526 10.5988 33.8385 12.6839 33.9666C12.7429 33.6828 12.819 33.4028 12.912 33.1282C13.4398 31.6143 14.6575 30.4091 16.0879 29.7393C18.1557 28.7711 19.843 28.7217 21.9676 29.4601C21.6674 28.6169 21.4174 27.5452 21.3278 26.6561C20.9842 23.1493 22.0407 19.6488 24.267 16.9176C26.4704 14.1981 29.6806 12.486 33.1665 12.1711Z" fill="#696565"/>
  <path d="M12.6965 41.4632C12.3153 41.4061 11.6869 41.4038 11.2641 41.3863C9.92751 41.3314 8.30243 41.127 7.19816 40.3042C6.76395 39.9984 6.40693 39.2798 6.39484 38.7533C6.33216 36.0361 9.99484 34.6854 12.2508 34.7828C12.6738 34.8011 13.0316 35.0202 13.3512 34.9938C13.5043 34.8778 13.6048 34.5386 13.6331 34.3506C14.0695 31.4499 17.3559 29.614 20.1087 29.8505C20.8241 29.9119 21.4886 30.123 22.2216 30.362C23.3134 32.444 23.5305 32.8048 25.1709 34.4481L24.6953 34.7867C24.4166 34.6516 24.1367 34.5192 23.8555 34.3894C23.1389 34.0628 22.3033 33.8017 21.5325 34.0902L21.5534 34.1684C21.3342 34.3612 21.1129 34.2358 21.0016 34.4211L21.0481 34.5021C21.279 34.4916 21.396 34.3908 21.5172 34.4721L21.5619 34.5885C22.7621 34.8148 23.4885 34.8632 24.3601 35.83C25.1545 35.4197 25.7547 35.0562 26.6836 34.9904C28.6694 34.8495 30.6956 35.9175 31.6337 37.6865C31.8455 38.086 32.1321 39.0197 32.5929 39.1701C32.9343 39.0699 32.8801 38.4286 32.8522 38.1355C35.6124 36.0993 40.3209 36.0486 43.0799 38.0757C43.2606 38.2085 43.5939 38.3855 43.8013 38.2689C44.149 37.4829 42.4872 36.4899 41.8979 36.2003C43.6618 35.0859 44.8685 33.7226 45.9389 31.9192C46.7652 32.0543 47.4255 32.2117 48.1727 32.603C49.2884 33.1871 49.5143 33.9076 49.8811 35.0236C55.6709 34.9687 55.0298 40.2044 50.0684 40.6374L50.2983 40.703C50.1963 40.7626 50.2172 40.7271 50.1419 40.7319C49.7214 40.7586 49.5119 41.2123 49.1111 40.8139L49.0961 40.725C48.6173 40.7429 48.1105 40.7241 47.6291 40.7138C47.0362 41.72 47.1789 42.5199 45.7414 43.3041C44.5271 43.9665 43.4571 43.9211 42.1661 43.5504C40.6064 46.2671 39.5895 46.3236 36.6736 46.3153C36.2226 46.6888 35.8054 47.3668 35.3655 47.8035C34.0943 49.0654 31.6962 49.9027 29.9309 49.9084C27.599 49.916 25.7487 49.0299 24.1279 47.3997C23.0055 47.0492 21.7422 47.3161 20.5255 46.7993C19.2907 46.2747 18.5868 45.2336 18.0889 44.0386C17.1948 44.2176 15.2745 44.0409 14.4367 43.6426C13.4452 43.1711 13.0376 42.4342 12.6965 41.4632Z" fill="#F6F3F1"/>
  <path d="M21.5622 34.5881C21.0076 34.6053 20.6915 34.8673 20.1439 34.9271L20.1089 34.774L20.1716 34.9248L20.1444 34.7475C20.5826 34.4262 21.0109 34.2327 21.5328 34.0898L21.5537 34.168C21.3346 34.3608 21.1132 34.2354 21.0019 34.4207L21.0485 34.5017C21.2793 34.4912 21.3963 34.3904 21.5175 34.4717L21.5622 34.5881Z" fill="#696565"/>
  <path d="M49.0962 40.7243C49.4016 40.7106 49.7601 40.6667 50.0685 40.6367L50.2984 40.7024C50.1964 40.762 50.2172 40.7265 50.1419 40.7312C49.7215 40.758 49.512 41.2117 49.1111 40.8133L49.0962 40.7243Z" fill="#696565"/>
  <path d="M27.78 45.1523C28.511 45.1894 28.8823 45.4233 29.3798 45.9376C29.8227 45.5071 30.8072 44.9601 31.4427 45.4288C31.5357 45.4974 31.5188 45.5462 31.5189 45.6486C31.362 45.7492 31.3172 45.7033 31.0924 45.6827C30.2806 45.6142 30.0212 46.0488 29.4805 46.5006C29.4045 46.5641 29.3026 46.5362 29.2398 46.4785C28.895 46.1615 28.6329 45.7769 28.1625 45.6356C27.9482 45.5711 27.8233 45.6162 27.602 45.5493L27.5698 45.4693C27.6305 45.2947 27.6433 45.2769 27.78 45.1523Z" fill="#696565"/>
  <path d="M35.0937 42.8781C35.554 42.7963 36.2011 42.0306 36.9078 42.2248C37.0398 42.2611 37.2514 42.222 37.3804 42.3146C37.2718 42.4675 36.8173 42.567 36.7015 42.566C36.1349 42.5609 35.4368 43.4207 35.1618 43.4731C34.926 43.3532 34.8996 43.1823 34.9049 42.9278L35.0937 42.8781Z" fill="#696565"/>
  <path d="M15.8305 37.7809L15.8689 37.7815C16.0116 37.7828 16.0512 37.7817 16.1891 37.752C16.2723 37.8421 16.2862 37.9193 16.3277 38.0384C15.777 38.3462 15.4291 38.6125 15.0468 39.1369C14.9321 38.7917 14.8844 38.6287 14.6924 38.3102L14.955 38.1629C15.1121 38.243 15.5937 37.8583 15.8305 37.7809Z" fill="#696565"/>
  <path d="M47.4195 37.137C47.7766 36.8304 48.5851 36.4265 48.985 36.8708C48.7215 37.2299 48.0229 36.9983 47.4034 37.79L47.3246 37.7835C47.2338 37.6272 47.2234 37.5877 47.1753 37.4125C47.3211 37.3142 47.3327 37.2912 47.4195 37.137Z" fill="#696565"/>
  <path d="M21.3292 41.3633C21.6901 41.4605 21.952 41.6417 22.2763 41.8534C22.3037 41.8435 22.331 41.8336 22.3584 41.8237C22.5002 41.8497 22.6067 41.8538 22.7201 41.9392L22.1804 42.5691C21.8192 42.0258 21.7477 41.8258 21.1167 41.6711C21.2503 41.5703 21.225 41.4974 21.3292 41.3633Z" fill="#696565"/>
  <path d="M14.6922 38.3093C14.0545 37.6622 13.2738 38.0915 13.0093 37.9019C13.1888 37.2997 14.5733 37.701 14.9548 38.162L14.6922 38.3093Z" fill="#696565"/>
  <path d="M22.3584 41.8232C22.6994 41.4808 23.4479 40.9134 23.9597 41.2369C23.8713 41.4356 23.1084 41.6642 22.7202 41.9387C22.6067 41.8533 22.5003 41.8492 22.3584 41.8232Z" fill="#696565"/>
  <path d="M46.8247 37.0338C46.5726 36.9986 46.329 36.9853 46.0685 36.9448L46.0454 36.8574C46.4592 36.2979 47.064 36.8244 47.4196 37.1375C47.3327 37.2918 47.3212 37.3147 47.1754 37.413C47.0975 37.2548 46.959 37.1539 46.8247 37.0338Z" fill="#696565"/>
  <path d="M15.8306 37.7809C16.2299 37.5544 16.6531 37.4315 17.0442 37.7581L17.0935 37.8846C16.9556 38.0345 16.6144 37.9429 16.3277 38.0383C16.2862 37.9193 16.2723 37.8421 16.1891 37.7519C16.0512 37.7817 16.0116 37.7828 15.869 37.7815L15.8306 37.7809Z" fill="#696565"/>
  <path d="M34.9047 42.928C34.647 42.3654 34.2314 42.6985 33.8311 42.5608L33.8312 42.4909C34.2466 42.1959 34.8637 42.3994 35.0936 42.8782L34.9047 42.928Z" fill="#696565"/>
  <path d="M21.1164 41.6711C20.8863 41.6625 20.6965 41.6845 20.5186 41.5626L20.5416 41.4761C20.8163 41.3134 21.0199 41.3264 21.3289 41.3633C21.2247 41.4975 21.25 41.5703 21.1164 41.6711Z" fill="#696565"/>
  <path d="M54.3381 39.3613C54.232 40.4729 54.3265 41.2901 54.1586 42.5913L54.2003 42.9536C54.4453 43.1465 54.618 43.0429 54.7944 43.2607L54.7986 43.3783C54.5578 43.5647 54.3181 43.366 54.0883 43.2295C53.1548 45.2273 50.3523 45.2796 48.4798 45.4981C48.2272 46.0809 47.7606 46.8868 47.316 47.3094C46.3145 48.2613 44.7761 48.615 43.4277 48.5313C43.3054 48.5237 43.0047 48.5464 42.9097 48.6164C42.4246 48.9741 42.1498 49.6857 41.6932 50.102C40.9086 50.8173 39.8427 51.1947 38.8121 51.3647C38.4145 51.4303 37.8436 51.5281 37.5006 51.6907C36.9292 51.9614 36.4377 52.5071 35.9172 52.8962C33.9585 54.3605 32.4152 55.1315 29.9342 55.1019C27.9145 55.0781 26.2705 54.5723 24.5978 53.3886C24.3503 53.2135 23.6135 52.4204 23.3754 52.1753C22.8426 52.2404 22.303 52.2259 21.7745 52.1321C19.66 51.7764 18.7205 50.8677 17.5263 49.1984C15.7683 49.5326 13.0489 49.0458 12.2182 47.2847C12.0696 46.9696 12.0265 46.6445 11.9659 46.3034C11.6486 46.2554 11.1533 46.267 10.8021 46.249C9.49048 46.1816 8.12072 46.0483 7.11187 45.115C6.07699 44.1578 6.21603 41.9781 6.18604 40.6275C7.9868 42.254 9.75678 42.1902 12.0892 42.1981C12.5304 43.2026 12.8053 43.6252 13.7491 44.2824C14.6632 44.9188 16.7544 45.2136 17.8062 44.9708C18.4888 47.4805 21.3226 48.1707 23.6006 47.8834C25.6413 50.6463 29.1814 51.5364 32.4172 50.6195C34.3097 50.0832 36.1412 48.9452 37.1353 47.2095C39.3909 47.5567 41.8112 46.6829 42.7605 44.48C45.1259 44.9395 47.3337 44.0193 48.1802 41.6417C50.8891 41.7002 52.4672 41.4342 54.3381 39.3613Z" fill="#F6F3F1"/>
  <path d="M54.0884 43.2299L54.1586 42.5918L54.2003 42.9541C54.4453 43.147 54.618 43.0433 54.7944 43.2612L54.7986 43.3788C54.5578 43.5652 54.3181 43.3665 54.0884 43.2299Z" fill="#696565"/>
  <path d="M29.4442 51.7617L29.629 51.808C29.8967 52.1042 29.9209 54.108 29.7736 54.4839C29.6804 54.4639 29.5613 54.4607 29.5393 54.3942C29.3655 53.8682 29.3372 52.2215 29.4442 51.7617Z" fill="#696565"/>
  <path d="M50.5116 6.26802C50.5471 6.26734 50.5825 6.26744 50.618 6.26834C51.5461 6.28703 51.1416 7.52738 51.1209 8.12672C51.1026 8.65461 50.9512 9.20474 50.9351 9.74182L51.0034 9.77672L51.029 9.76738C51.2427 9.69018 51.455 9.58916 51.6594 9.68453C51.7262 9.86607 51.6488 10.1287 51.6099 10.3305C52.3789 10.279 53.0765 10.1927 53.8617 10.1922C54.6775 10.0785 55.6787 10.6392 54.6316 11.4783C53.7482 12.187 50.8548 15.0714 49.9665 15.458C49.7429 15.5553 46.7836 15.3531 46.5138 15.3255C46.1455 15.599 45.76 16.0242 45.416 16.3423C43.6027 18.0194 41.6749 19.5658 39.8454 21.2224C39.2892 21.726 38.5349 22.3402 38.0856 22.9258C38.3641 22.9282 39.1298 22.9494 39.3605 23.0353C41.0203 23.6535 38.6372 24.3103 38.1942 24.4496C37.4139 24.7015 34.9375 25.8197 34.3793 25.5964C34.0094 25.2731 34.4568 24.2354 34.6499 23.8886C35.0683 23.137 36.079 20.3597 36.8555 20.0692C37.4493 20.1032 37.2663 21.5156 37.2636 21.9756C37.572 21.7663 38.9782 20.3606 39.3647 20.0076C40.9737 18.5495 42.5989 17.1093 44.2399 15.6873C44.3721 15.5717 45.5203 14.5503 45.5331 14.4037C45.6184 13.4326 45.5415 11.3681 46.0525 10.5698C46.2586 10.2478 47.349 9.29609 47.645 9.01263C48.5929 8.08981 49.5485 7.1749 50.5116 6.26802Z" fill="#696565"/>
  <path d="M48.8398 13.1552C48.9941 12.9544 49.4596 12.4656 49.7001 12.4277C49.9992 12.6563 51.2437 12.6299 51.647 12.6386L51.6724 12.7473C51.5667 12.913 51.2031 13.2161 51.0076 13.2085C50.9013 13.2726 50.8195 13.3247 50.7186 13.397C50.7045 13.4871 50.6921 13.5498 50.6928 13.6423C50.6366 13.88 49.8114 14.4787 49.582 14.6289C48.6862 14.6209 47.8938 14.6335 47.0029 14.7008C47.5371 14.3152 48.021 13.8513 48.5473 13.449L48.6308 13.4606C48.693 13.3603 48.7716 13.253 48.8398 13.1552Z" fill="#F6F3F1"/>
  <path d="M48.8399 13.1552C48.9941 12.9544 49.4596 12.4656 49.7002 12.4277C49.9992 12.6563 51.2437 12.6299 51.6471 12.6386L51.6725 12.7473C51.5668 12.913 51.2031 13.2161 51.0076 13.2085C50.9013 13.2726 50.8196 13.3247 50.7187 13.397C50.7046 13.4871 50.6921 13.5498 50.6928 13.6423C50.0539 13.6693 49.2352 13.6987 48.6309 13.4606C48.693 13.3603 48.7716 13.253 48.8399 13.1552Z" fill="#F6F3F1"/>
  <path d="M48.8399 13.1549C49.3053 13.1422 50.5314 13.1551 51.0076 13.2082C50.9013 13.2723 50.8196 13.3244 50.7187 13.3968C50.7046 13.4868 50.6921 13.5495 50.6928 13.642C50.0539 13.669 49.2352 13.6984 48.6309 13.4603C48.693 13.36 48.7716 13.2527 48.8399 13.1549Z" fill="#696565"/>
  <path d="M48.5226 9.57784C48.5312 9.52545 48.5416 9.46161 48.5541 9.38626C49.0058 8.86349 49.8475 8.10515 50.3283 7.64844C50.162 8.52728 50.1231 9.42549 50.2128 10.3154L50.2168 10.3572C49.7413 10.7914 49.3154 11.1101 48.8035 11.4968L48.748 11.5472L48.082 12.3196C48.2574 11.6543 48.3581 10.3843 48.5226 9.57784Z" fill="#F6F3F1"/>
  <path d="M48.5226 9.57812C48.6241 9.60379 48.7637 9.65311 48.8578 9.63832C48.8039 10.1157 48.5203 11.1942 48.748 11.5474L48.082 12.3199C48.2574 11.6546 48.3581 10.3846 48.5226 9.57812Z" fill="#F6F3F1"/>
  <path d="M48.8578 9.63737L48.9931 9.44336L49.0545 9.45667C49.0807 9.90857 48.7618 11.1467 48.8034 11.4962L48.7479 11.5465C48.5202 11.1932 48.8038 10.1147 48.8578 9.63737Z" fill="#696565"/>
  <path d="M51.1442 11.0312C51.6549 11.1522 52.9164 11.1334 53.4915 11.1312C53.0585 11.5612 52.589 12.0378 52.1095 12.4126C51.9369 12.5559 51.8735 12.5928 51.6471 12.6382C51.2437 12.6295 49.9992 12.6559 49.7002 12.4273L49.7743 12.3275C49.9516 11.92 50.7555 11.2668 51.1442 11.0312Z" fill="#F6F3F1"/>
  <path d="M49.7743 12.3285C50.3464 12.1969 51.5589 12.2482 52.1095 12.4136C51.9369 12.5569 51.8735 12.5937 51.6471 12.6392C51.2437 12.6305 49.9992 12.6568 49.7002 12.4283L49.7743 12.3285Z" fill="#696565"/>
  <path d="M47.952 9.81836C48.0339 9.90163 47.8409 10.5276 47.8115 10.6978C47.7005 11.315 47.6391 11.9401 47.6278 12.5671C47.2249 13.0014 46.6817 13.4638 46.2208 13.8429C46.1759 13.788 46.1739 13.7328 46.1895 13.6569C46.3629 12.8171 46.4273 12.1896 46.4281 11.3331C46.9333 10.8254 47.4413 10.3205 47.952 9.81836Z" fill="#F6F3F1"/>
  <path d="M34.1983 16.5542C35.6725 16.4204 37.4028 16.9438 38.6985 17.5993C39.1018 17.8033 39.8381 18.0834 39.8062 18.6181C39.6633 18.9154 39.3658 19.0717 39.0896 19.2456C38.421 18.8008 37.9108 18.4307 37.138 18.1647C35.9143 17.7436 34.6741 17.5151 33.3856 17.7232C31.43 18.0461 29.68 19.1251 28.5131 20.7273C26.0678 24.1288 26.6786 28.9527 30.1298 31.421C34.3992 34.4745 40.2795 32.0992 41.655 27.151C42.0242 25.823 41.9718 24.9185 41.7318 23.5817C41.5783 22.9855 41.3464 22.4508 41.1706 21.8656C41.0952 21.6149 41.03 21.3672 41.1819 21.1306C41.252 21.0214 41.4284 20.8129 41.5582 20.7776C41.6309 20.7578 41.7582 20.8056 41.7963 20.8498C42.6321 21.8671 43.0227 23.3306 43.1406 24.6022C43.6033 29.5907 39.9132 33.7022 34.9608 34.0332C32.7124 34.1836 30.4324 33.3423 28.7064 31.8783C26.9824 30.4159 25.9323 28.0941 25.7536 25.8644C25.6013 23.7178 26.4087 21.1122 27.8608 19.5025C29.6094 17.5642 31.6452 16.7148 34.1983 16.5542Z" fill="#696565"/>
  <path d="M17.2076 17.1762C19.7211 17.0189 18.4703 24.7596 17.4215 25.2485C17.0462 25.1454 14.5928 23.6971 14.235 23.4369C13.2965 22.7321 11.9807 21.6131 11.7486 20.3891C11.6268 19.7456 11.9953 19.1599 12.6803 19.1088C13.6694 19.0353 14.4966 19.5427 15.235 20.142C15.4771 18.9956 15.8835 17.4384 17.2076 17.1762ZM17.1686 17.9965C15.7636 19.0567 16.4224 20.8853 15.9576 21.2768C15.8016 21.3328 15.7483 21.3632 15.5846 21.3285C14.8331 20.7488 13.8219 19.7494 12.7916 19.7406C12.5322 19.7386 12.3477 20.0827 12.4274 20.3364C12.6353 20.9979 13.2122 21.4881 13.6969 21.9506C15.0977 23.2041 15.5628 23.3145 17.2067 24.186C17.3103 23.1299 18.1905 18.6965 17.2936 18.0053L17.1686 17.9965Z" fill="#696565"/>
  <path d="M34.2131 21.1469C35.0676 21.0617 34.9033 21.6502 34.7637 22.2359C34.0803 22.3775 33.439 22.5165 32.8438 22.9062C32.1983 23.3215 31.7452 23.9773 31.5851 24.728C31.1258 26.9807 33.4241 28.8673 35.5158 27.9991C36.2932 27.6764 36.8969 27.1996 37.1168 26.3388C37.1921 26.0441 37.376 25.4549 37.6613 25.2613C38.9714 24.6922 38.4946 26.3515 38.3544 26.8146C37.721 28.1905 36.6852 29.2626 35.1148 29.4556C32.719 29.7502 30.5997 28.277 30.2872 25.8397C30.1457 24.714 30.4593 23.5784 31.1585 22.685C31.9772 21.632 32.9645 21.3067 34.2131 21.1469Z" fill="#696565"/>
  <path d="M21.8527 9.99029C22.0929 9.98769 22.4416 10.0724 22.5617 10.2852C23.3539 11.6902 21.3534 14.8905 20.4542 15.6036C19.8224 15.0539 19.4813 14.7025 18.9464 14.0577C18.1662 13.1272 17.7047 12.2454 17.7501 11.0157C18.5345 9.54888 19.4777 10.6303 20.1584 11.4756C20.1961 11.4027 20.2349 11.3302 20.2755 11.2588C20.6533 10.5981 21.1158 10.1904 21.8527 9.99029ZM21.7931 10.8106C20.9602 11.2859 20.7422 12.3648 20.2287 12.5342C19.6724 12.3035 19.157 10.9978 18.6212 11.044C18.3074 11.3942 18.7316 12.2427 18.9318 12.5831C19.429 13.3379 19.7924 13.8232 20.3859 14.504C20.8831 13.6504 22.0522 11.9683 21.9191 10.959C21.8664 10.8784 21.8697 10.8644 21.7931 10.8106Z" fill="#696565"/>
</svg>