<svg xmlns="http://www.w3.org/2000/svg" width="64" height="65" viewBox="0 0 64 65" fill="none">
  <path d="M32.5184 27.4151C34.7121 27.2171 36.0879 28.2206 36.3553 30.42C36.5774 32.2477 35.0349 34.8308 33.8163 36.2257C32.5085 37.7224 30.3511 40.2186 28.4959 41.0489C28.1309 41.1436 26.051 38.9161 25.5985 38.461C24.4086 37.2421 23.4117 35.8025 22.577 34.3204C21.5173 32.4386 21.1753 29.159 23.4383 27.9727C24.2564 27.5534 25.2074 27.4755 26.0829 27.7559C27.4727 28.2105 28.1245 29.1219 28.7528 30.3575C28.8042 30.2555 28.8589 30.1554 28.9178 30.0577C29.6945 28.7804 31.0554 27.7673 32.5184 27.4151ZM24.5028 28.4532C23.7309 28.7918 23.2722 29.0694 22.9198 29.9083C22.4609 31.0007 22.9395 32.6575 23.4207 33.6915C24.2579 35.4899 25.8207 37.1188 27.1815 38.546C27.5804 38.9644 27.9983 39.5344 28.4588 39.8721C29.1785 39.3814 31.9247 36.3879 32.5321 35.6456C33.6453 34.2997 35.1228 32.2529 35.1522 30.4395C35.1684 29.4358 33.8596 28.3084 32.8299 28.5108C31.7011 28.7329 30.6356 29.6708 29.9461 30.5684C29.6727 30.9304 29.2004 31.6805 28.8309 31.8526C28.0796 31.5831 27.4763 28.1779 24.5028 28.4532Z" fill="#696565"/>
  <path d="M44.9697 29.7932C44.9098 29.5511 45.0759 27.5916 45.1773 27.3531L45.2591 27.3359C45.4544 27.7956 45.1888 29.3814 45.3459 29.9898C45.3673 30.0722 45.3825 30.5573 45.3772 30.6615L45.2932 30.6816L45.3464 30.8198C45.3166 30.7664 45.2591 30.5046 45.2404 30.4283C45.2076 30.6841 45.1564 30.9219 45.0367 31.1539C45.0664 30.8071 45.1711 30.0503 44.9697 29.7932Z" fill="#696565"/>
  <path d="M10.7713 17.9443C10.8702 17.9382 11.2549 17.931 11.3192 17.9482C13.2236 18.4565 11.0113 24.6287 10.2479 25.1426C9.97331 25.1554 10.0656 25.1831 9.84946 25.0732C9.71069 24.8494 9.82844 24.7466 9.78696 24.4717L9.40122 24.5234C8.92997 24.319 8.56478 23.9126 8.20591 23.5478C7.59678 22.8587 5.25918 20.3169 6.38364 19.125C7.01283 18.4581 8.36682 19.4414 8.88559 20.0879C9.30413 19.0827 9.73293 18.355 10.7713 17.9443ZM10.9852 18.6406C10.0962 19.113 9.68787 20.1852 9.40219 21.0957C9.34933 21.2642 9.34146 21.4553 9.1854 21.4961C8.69176 21.2617 7.70161 19.2565 6.78989 19.5019C6.43664 19.9869 7.16355 20.9621 7.44516 21.3935C8.32592 22.6273 8.89773 23.0253 9.88852 24.0801C10.1347 23.3054 11.6298 19.0727 10.9852 18.6406Z" fill="#696565"/>
  <path d="M8.59912 4.74219C9.66555 5.47772 11.0112 7.08518 12.0461 7.96303C12.4788 8.3301 12.8117 8.85912 12.2634 9.31652C12.1561 9.24904 12.0525 9.17585 11.9531 9.09734C11.3009 8.57594 8.27445 5.76701 8.19922 5.11268C8.30523 4.87925 8.34816 4.90899 8.59912 4.74219Z" fill="#696565"/>
  <path d="M55.8331 32.9389C56.5173 32.9054 59.1824 32.7883 59.4119 33.6342C59.2613 34.1804 58.7042 34.0965 58.2378 34.1029C57.541 34.0939 54.8506 34.1658 54.6367 33.4865C54.8244 32.9413 55.3503 32.9763 55.8331 32.9389Z" fill="#696565"/>
  <path d="M50.6176 3.94531C50.9581 3.98017 51.1197 4.04496 51.18 4.38158C51.023 4.92457 49.0003 7.82357 48.5717 8.2041C48.3186 8.159 48.142 8.10478 47.9844 7.91573C47.9988 7.73114 48.1471 7.39932 48.2553 7.25221C48.9034 6.37069 49.7433 4.49855 50.6176 3.94531Z" fill="#696565"/>
  <path d="M30.8367 59.6562C31.1077 59.8013 31.311 60.5201 31.343 60.8254C31.4746 62.0798 31.8708 63.3651 31.1268 64.4705C30.0935 64.055 30.377 60.4518 30.8367 59.6562Z" fill="#696565"/>
  <path d="M52.5074 56C53.37 56.1291 56.0401 58.5502 55.8557 59.4952C54.6654 59.3803 53.6155 57.874 52.8092 57.0652C52.4901 56.745 52.3384 56.4325 52.5074 56Z" fill="#696565"/>
  <path d="M11.1356 55.8777C11.2531 55.8686 11.2556 55.8813 11.3562 55.9382V56.0946C10.8349 57.0082 8.27656 59.2427 7.32257 59.6116C7.15853 59.544 7.06925 59.5289 6.97656 59.3812C7.25023 58.5869 10.2969 56.3124 11.1356 55.8777Z" fill="#696565"/>
  <path d="M58.1422 22.7611C58.4989 22.7227 58.6719 22.7737 58.8509 23.0794C58.789 23.9 56.0595 24.1809 55.3755 24.3008C55.145 24.3469 54.9333 24.4063 54.7014 24.3731C54.5002 24.2005 54.5476 24.2839 54.4805 24.0595C54.6196 23.4823 57.5683 22.8277 58.1422 22.7611Z" fill="#696565"/>
  <path d="M45.5827 59.4844C45.6968 59.4942 45.8028 59.5231 45.9145 59.5487C46.2438 59.8054 47.1549 62.0976 47.2454 62.6457C47.2939 62.9392 47.2705 63.0888 47.103 63.3153C46.8999 63.2917 46.7934 63.2884 46.6029 63.2017C46.2404 62.7882 45.407 60.5058 45.3607 59.8553C45.3465 59.6557 45.4468 59.6137 45.5827 59.4844Z" fill="#696565"/>
  <path d="M55.319 9.94972C55.3912 9.94178 55.4635 9.93574 55.5361 9.93167C55.7634 9.92091 55.8277 9.9515 55.9701 10.084C55.9827 10.7311 53.4774 11.8342 52.8864 12.0733C52.6003 12.1287 52.5976 12.1754 52.3606 12.0909L52.3086 11.9435C52.5026 11.1691 54.5573 10.1058 55.319 9.94972Z" fill="#696565"/>
  <path d="M30.4555 0.476562C30.6498 0.488903 30.6794 0.492908 30.8598 0.565115C30.8892 0.604763 30.9382 0.681434 30.9435 0.725809C31.0607 1.70021 31.2167 4.13203 30.7244 4.92526C30.5019 4.90543 30.38 4.80986 30.3224 4.59744C30.1119 3.82153 30.1808 1.13943 30.4555 0.476562Z" fill="#696565"/>
  <path d="M55.2407 48.1406C55.9193 48.1734 58.2828 49.1244 58.5084 49.7532C58.4814 50.0245 58.497 49.9385 58.3223 50.1753C57.72 50.3278 55.4196 49.1375 55.1368 48.5974C55.107 48.3688 55.1309 48.3356 55.2407 48.1406Z" fill="#696565"/>
  <path d="M16.4219 59.3906L16.7264 59.4385C17.2549 60.005 15.641 62.5835 15.0946 63.0758L14.8387 63.0857C14.7578 63.0384 14.671 63.0089 14.6719 62.8992C14.6782 62.1352 16.03 59.9447 16.4219 59.3906Z" fill="#696565"/>
  <path d="M13.996 3.44531C14.4945 3.54529 15.6435 5.80997 15.8437 6.35356C15.9447 6.62808 15.9199 6.68591 15.7864 6.91947C15.1362 6.97474 14.9492 6.72458 14.735 6.14212C14.3758 5.16614 13.4708 4.44223 13.996 3.44531Z" fill="#696565"/>
  <path d="M4.59673 30.1094C5.51606 30.1292 6.6419 30.2114 7.55874 30.3156C7.86312 30.3502 7.95581 30.4012 8.10902 30.6214C8.11867 30.8433 8.14959 30.7812 8.03537 30.9169L7.86746 30.9186C7.24509 31.0609 4.65298 31.1743 4.31059 30.5657C4.26711 30.2115 4.31781 30.2196 4.59673 30.1094Z" fill="#696565"/>
  <path d="M7.22524 51.8941C7.48735 51.8661 7.6168 51.8397 7.78222 52.0411C7.7196 52.6214 5.46496 53.5473 4.91795 53.7437C4.72549 53.7644 4.54609 53.7258 4.38349 53.6222C4.33788 52.9334 6.61338 52.0272 7.22524 51.8941Z" fill="#696565"/>
  <path d="M7.4111 10.375C8.14059 10.3705 10.2374 11.0141 10.8055 11.5879C10.9624 11.7464 10.9251 11.8335 10.92 12.0287C10.3345 12.0387 7.86877 11.3085 7.5032 10.9619C7.37487 10.7566 7.40198 10.6183 7.4111 10.375Z" fill="#696565"/>
  <path d="M22.6191 7.57962C24.9485 7.42243 25.8707 9.28214 26.2891 11.1968C26.9847 11.4718 34.4481 11.3742 35.7275 11.3736C35.9914 7.14845 41.8399 5.6084 41.8564 11.6167L41.9111 11.6118C42.5207 11.5608 45.0043 11.5121 45.4932 11.6206C47.1886 11.9972 49.1114 14.0608 50.4922 15.229C51.0967 16.9244 50.7172 22.1949 50.6611 24.1099C50.6135 25.7421 50.7019 27.5625 50.6406 29.1949C50.5263 32.2441 50.3005 35.2916 50.251 38.3452C50.1937 41.8791 50.6652 45.2796 50.4404 48.8306C50.3131 50.8425 50.0459 52.943 49.6689 54.9224C48.1005 55.6467 44.896 55.5531 43.2041 55.5689L39.2461 55.6197C34.1004 55.6392 28.9748 55.9824 23.8311 55.9566C22.9434 55.9521 21.9191 56.0256 21.0312 56.105C18.9193 56.2941 16.6824 56.4989 16.1328 53.8384C13.6285 53.5937 14.167 53.5185 14.5098 51.1363C13.5061 51.0686 12.6591 51.1239 11.623 51.0005C11.7942 50.0608 12.2023 49.4667 12.3701 48.2759C11.1581 48.2256 9.15069 48.2049 8.05469 47.8677C9.68831 45.139 11.1788 40.9857 12.1299 37.9536C12.8756 35.4045 13.2462 32.663 13.8379 30.0923C15.0589 24.7875 14.6122 19.5143 15.1572 14.1753C15.2641 13.1281 15.6055 12.2009 16.4111 11.4781C17.1218 11.3797 18.7148 11.3891 19.4941 11.3736C19.5812 9.47438 20.8168 8.08824 22.6191 7.57962ZM47.5957 22.2339C47.517 23.1916 47.5731 24.1713 47.5029 25.1226C47.3067 27.7787 47.3087 30.4626 47.1543 33.1148C46.8733 37.9393 46.3761 42.7637 45.9453 47.5777C45.8596 48.5115 45.7801 52.3426 45.5645 52.9488C44.0143 53.2876 42.2116 53.0394 40.6846 53.2456C37.0818 53.7325 33.8341 53.7056 30.2178 53.647C28.4789 53.6339 26.7398 53.6382 25.001 53.6587C22.7159 53.6983 18.8628 54.0947 16.7969 53.8325C17.1224 54.189 17.4961 54.5631 17.7246 54.9829C18.9079 55.2502 22.6297 55.0069 23.9648 54.9595L34.8369 54.5708C36.4569 54.5143 38.0989 54.4607 39.7188 54.4439C41.9854 54.4203 44.923 54.5208 47.1445 54.0415C47.3191 53.2603 47.2457 52.4236 47.2852 51.6324C47.3615 50.1046 47.197 48.4574 47.3115 46.9458C47.6532 42.4371 47.8812 38.0284 47.9502 33.5093C48.0038 29.9962 48.3248 26.4368 48.3838 22.9087C48.1936 22.7534 47.7516 22.3276 47.5957 22.2339ZM48.8291 23.2808C49.1608 28.7919 48.5583 34.6893 48.5488 40.2408C48.5449 42.5511 48.1505 45.006 48.0928 47.3247C47.9947 49.668 48.0523 51.7138 47.8789 54.104L48.8193 54.023C49.7162 52.2249 49.1787 41.0034 49.1924 38.2036C49.2014 36.4961 49.2648 34.789 49.3828 33.0855C49.4602 31.9422 49.56 30.8165 49.623 29.6685C49.7199 27.904 49.5174 25.3858 49.7373 23.6919C49.4602 23.534 49.1374 23.315 48.8291 23.2808ZM46.71 21.6402C46.5212 23.0329 46.6937 24.56 46.5283 25.9507C45.7116 32.8206 45.3387 39.7472 43.8438 46.52C43.67 47.3074 43.2102 50.8256 42.7529 51.2339C41.8073 51.5614 39.1079 51.393 37.9482 51.4097L28.1729 51.4839C26.8685 51.493 25.4736 51.6146 24.1797 51.5513C22.07 51.448 20.0358 51.1796 17.9102 51.273C17.0758 51.3095 16.0674 51.1531 15.1992 51.1558C15.2146 51.5929 15.1928 52.6752 15.2275 53.0054C16.4371 53.0251 18.0241 53.1046 19.2012 53.0415C21.8432 52.8533 24.4752 52.7347 27.1211 52.6148C29.7253 52.4968 32.4452 52.888 35.0264 52.7359C38.3761 52.5385 41.7392 52.3997 45.0869 52.2193C44.8467 46.3212 45.9888 40.4157 46.2158 34.5659C46.2768 32.9964 47.3031 22.4244 46.9805 21.7896C46.8706 21.7115 46.8371 21.678 46.71 21.6402ZM44.9629 29.7964C44.9285 30.0504 44.8049 30.8532 44.8096 31.0679C44.5865 32.2589 44.4278 33.4983 44.1885 34.6783C43.3466 38.9865 42.026 43.1874 40.252 47.2027C40.0108 47.7465 39.627 48.95 39.1377 49.2857C38.3685 49.8123 25.0541 49.1752 23.1768 49.0513L16.6104 48.5884C15.5556 48.5058 14.2998 48.3398 13.2578 48.314C13.1952 48.7977 12.9505 49.8586 12.7969 50.3394C15.3725 50.4195 17.9402 50.4407 20.5166 50.4429C21.1271 50.4434 21.886 50.5064 22.4941 50.563C24.9055 50.7873 27.2956 50.5284 29.707 50.5142L42.3398 50.5152C42.438 49.3394 42.7489 48.2276 42.9121 47.0738C43.2997 44.333 44.0046 41.6153 44.2969 38.8609C44.5069 36.8812 44.9285 34.7835 44.9473 32.8072C45.0101 32.5169 45.0219 31.4855 45.0303 31.1568C45.0601 30.8097 45.1641 30.0535 44.9629 29.7964ZM15.6475 20.7027C15.4582 24.501 15.5626 28.233 14.6045 31.981C14.1567 33.7326 13.9095 35.5927 13.4766 37.3531C12.5402 40.5609 11.2819 44.4272 9.37891 47.1929C10.7735 47.1966 12.5366 47.4305 13.9717 47.5093L25.4258 48.1529C26.8826 48.2431 28.4941 48.2367 29.9619 48.2681L36.8682 48.4048C37.1502 48.4078 38.7108 48.4976 38.8008 48.4556L38.8193 48.3921C39.1534 46.7498 39.7272 45.6575 40.3486 44.1167C40.7479 43.1116 41.103 42.0887 41.4121 41.0523C42.6058 37.0633 43.2028 34.0781 43.8945 29.9712C44.4259 26.9446 44.8036 23.8926 45.0254 20.8277C39.915 20.7238 34.8032 20.712 29.6924 20.7915C27.3136 20.8435 24.9624 20.9768 22.5801 21.0308C20.2626 21.0833 17.8985 20.7174 15.6475 20.7027ZM46.3242 13.1949C46.4518 15.5277 46.3578 17.6849 46.3799 19.9986C47.2129 20.2804 49.3494 22.4053 49.7715 22.3843C49.8167 20.5863 49.9429 18.0153 49.8516 16.2447C49.2837 15.5498 47.0966 13.7212 46.3242 13.1949ZM23.7529 12.1411C23.186 12.1233 22.0424 12.0621 21.4922 12.1402C21.3206 12.153 20.9976 12.1508 20.8828 12.2476C20.8185 12.7051 21.3761 13.7893 21.5986 14.2134C22.2622 14.1868 22.8668 14.1531 23.4004 14.6363C23.5048 14.7325 23.6066 14.8318 23.7051 14.9341C24.0245 16.1689 23.8973 16.5547 22.96 17.4077C22.4045 17.559 22.1374 17.5445 21.5654 17.4644C21.3183 17.2444 21.111 17.083 20.9561 16.7886L20.9365 16.7525C20.7812 16.4572 20.7408 16.0062 20.6953 15.6695C19.818 14.659 19.5017 13.5315 19.4688 12.231C18.4346 12.2444 17.4445 12.2528 16.4131 12.3247L15.7188 19.896C17.2285 19.9839 18.6513 20.1196 20.1719 20.1138C25.8923 20.0918 31.5901 19.4369 37.3223 19.5816C37.865 19.5953 38.4692 19.5442 39.0195 19.5327C40.739 19.5017 43.3802 19.5746 45.1143 19.7085C45.4322 16.9985 45.5493 15.4825 45.4463 12.6997C42.9029 12.6529 39.8341 12.5294 37.3359 12.5747C37.4821 13.2717 37.6956 13.8397 37.9355 14.5074C39.8826 14.5993 40.5728 15.5071 39.6396 17.354C38.622 17.9695 38.2457 18.0414 37.1807 17.4146C37.1285 17.2116 36.9772 16.3597 36.9385 16.2886C36.0814 14.7597 35.7774 14.3732 35.7148 12.5767C33.49 12.4585 31.2683 12.5555 29.0469 12.4702C27.2938 12.403 25.5081 12.1962 23.7529 12.1411ZM38.5635 15.4058C38.5988 16.0429 38.6463 16.3374 38.1016 16.7954C38.2465 16.8832 38.3493 16.8592 38.5215 16.8521C39.0967 16.4931 39.3579 15.6148 38.5635 15.4058ZM22.2324 15.023C22.3182 15.2879 22.4737 15.6739 22.4473 15.937C22.1355 16.3218 21.5964 16.1221 21.5703 16.3433C21.783 16.5248 21.8165 16.5528 22.0752 16.6548C22.7874 16.2103 23.6108 15.19 22.2324 15.023ZM39.1484 8.75735C37.8461 9.28283 37.7188 10.1237 37.3477 11.3511C38.0199 11.3978 38.6918 11.4489 39.3633 11.5044L41.1006 11.5796C40.8284 10.5847 40.4731 8.73358 39.1484 8.75735ZM22.6787 8.70169C21.5215 9.23671 21.1293 10.1941 20.8555 11.355C21.6359 11.3589 22.4164 11.3466 23.1963 11.3179C23.8188 11.3105 24.5467 11.3198 25.1572 11.2554C24.7995 9.87832 24.3442 8.5921 22.6787 8.70169Z" fill="#696565"/>
</svg>