<svg preserveAspectRatio="none" width="100%" height="100%" overflow="visible" style="display: block;" viewBox="0 0 48.3074 56.002" fill="none" xmlns="http://www.w3.org/2000/svg">
<g id="vectorly-UNI-bell">
<path id="path452" fill-rule="evenodd" clip-rule="evenodd" d="M7.99385 32.1473C8.03983 31.9659 8.22481 31.8553 8.40679 31.9009C8.58866 31.9475 8.69905 32.1318 8.65317 32.3141C8.65317 32.3141 8.53774 33.2783 8.54172 34.8468C8.54298 35.3522 8.56151 35.9148 8.5875 36.5337C8.60603 36.9741 8.63707 37.4397 8.66268 37.9295C8.68615 38.3767 8.70507 38.8423 8.73465 39.3244C8.78014 40.0674 8.8366 40.8444 8.94476 41.6544C9.04583 42.411 9.16475 43.1841 9.35352 43.9815C9.41385 44.159 9.3186 44.352 9.14089 44.4131C8.96319 44.4733 8.76996 44.3782 8.70963 44.1997C8.18048 43.0047 7.77608 41.8387 7.5105 40.7018C7.31213 39.8521 7.18418 39.0295 7.12792 38.2525C7.10338 37.9121 7.1027 37.5803 7.10843 37.2602C7.11793 36.7335 7.14917 36.2378 7.20232 35.7761C7.46064 33.5334 7.99385 32.1473 7.99385 32.1473Z" fill="var(--fill-0, #283E37)"/>
<path id="path454" fill-rule="evenodd" clip-rule="evenodd" d="M4.92806 38.0686C4.97423 37.8872 5.15941 37.7766 5.34129 37.8231C5.52316 37.8687 5.63326 38.054 5.58709 38.2364C5.58709 38.2364 5.66265 38.6932 5.78643 39.5274C5.82367 39.7787 5.8811 40.0571 5.89778 40.3723C5.91195 40.641 5.88391 40.9233 5.87363 41.2318C5.85947 41.6586 5.80777 42.0825 5.82212 42.5791C5.87043 42.7596 5.76247 42.9468 5.58117 42.9943C5.39988 43.0428 5.21344 42.9351 5.16513 42.7537C4.9107 42.2794 4.70865 41.8613 4.56227 41.4229C4.4512 41.0892 4.37952 40.772 4.34964 40.4693C4.33635 40.3345 4.34218 40.2026 4.35071 40.0775C4.36526 39.865 4.3899 39.672 4.42763 39.4916C4.4738 39.2694 4.52308 39.0851 4.58099 38.9144C4.77364 38.345 4.92806 38.0686 4.92806 38.0686Z" fill="var(--fill-0, #283E37)"/>
<path id="path456" fill-rule="evenodd" clip-rule="evenodd" d="M30.7961 17.3366C30.6106 17.3657 30.4369 17.2377 30.4083 17.0524C30.3798 16.8672 30.5072 16.6935 30.6927 16.6654C30.6927 16.6654 31.3233 16.4782 32.5216 16.709C32.8594 16.774 33.2343 16.8807 33.6562 17.0427C33.987 17.1688 34.338 17.3357 34.711 17.5471C34.9234 17.6684 35.1436 17.8022 35.3604 17.9652C35.8172 18.3076 36.2837 18.7373 36.7567 19.2592C37.3164 19.8771 37.8592 20.6201 38.4392 21.5028C38.56 21.6464 38.5415 21.8608 38.3978 21.982C38.2542 22.1023 38.0396 22.0839 37.9188 21.9403C37.4176 21.4757 36.9385 21.0886 36.4853 20.721C35.9587 20.2942 35.4663 19.9421 35.014 19.6181C34.7366 19.4193 34.4745 19.2379 34.2311 19.0642C33.7945 18.7509 33.4126 18.4793 33.0579 18.263C31.6359 17.3939 30.7961 17.3366 30.7961 17.3366Z" fill="var(--fill-0, #283E37)"/>
<path id="path458" fill-rule="evenodd" clip-rule="evenodd" d="M38.0351 14.8972C37.8654 14.8177 37.7923 14.6149 37.8722 14.4452C37.9522 14.2754 38.1549 14.2027 38.3247 14.2822C38.3247 14.2822 38.636 14.3346 39.132 14.5286C39.2939 14.5917 39.451 14.6761 39.6312 14.7828C39.7858 14.8749 39.9315 14.9903 40.0812 15.1242C40.1731 15.2067 40.2624 15.2978 40.3394 15.4026C40.4762 15.5898 40.5916 15.8003 40.6789 16.035C40.7373 16.1922 40.7899 16.3454 40.8205 16.5191C40.8853 16.8877 40.9208 17.2427 40.8757 17.6627C40.9058 17.848 40.7798 18.0226 40.5945 18.0527C40.4093 18.0827 40.2345 17.9566 40.2044 17.7714C40.0887 17.5221 39.941 17.3417 39.798 17.1389C39.6831 16.975 39.5505 16.8528 39.4331 16.7092C39.3134 16.5627 39.1821 16.4405 39.0756 16.3037C38.9265 16.1117 38.817 15.9196 38.6941 15.7547C38.3015 15.227 38.0351 14.8972 38.0351 14.8972Z" fill="var(--fill-0, #283E37)"/>
<path id="path460" fill-rule="evenodd" clip-rule="evenodd" d="M15.1856 52.9103C13.6218 50.6009 13.9473 47.298 15.8003 43.8235C17.6376 40.3803 20.9787 36.7661 25.366 33.8073C29.7884 30.8493 34.4282 29.1201 38.3299 28.727C42.4123 28.3148 45.7018 29.3841 47.3056 31.8067C48.8894 34.2409 48.5615 37.6821 46.5607 41.2623C44.648 44.6853 41.2219 48.2541 36.7514 51.1362C32.2965 53.9896 27.6562 55.6209 23.7696 55.9425C19.8458 56.2678 16.6861 55.2597 15.1856 52.9103ZM15.7542 52.5367C17.1793 54.6453 20.1095 55.4144 23.6824 55.0302C27.4178 54.6281 31.8482 52.9502 36.073 50.1036C40.2834 47.2849 43.4915 43.8359 45.2712 40.5518C46.9043 37.538 47.3508 34.6817 46.0094 32.6584C44.6831 30.6267 41.8843 29.908 38.4717 30.2132C34.7527 30.5459 30.318 32.1201 26.062 34.8666C21.7722 37.6117 18.4751 41.0092 16.6214 44.2753C14.8488 47.3995 14.3876 50.391 15.7542 52.5367Z" fill="var(--fill-0, #283E37)"/>
<path id="path462" fill-rule="evenodd" clip-rule="evenodd" d="M43.3881 32.215C43.3966 32.0278 43.5557 31.8823 43.7432 31.891C43.9306 31.8997 44.0759 32.0588 44.0674 32.246C44.0093 35.9942 42.0542 39.5696 39.1137 42.5456C38.0414 43.6301 36.8331 44.6292 35.544 45.5265C34.6969 46.1162 33.8141 46.6624 32.9059 47.1503C31.4624 47.9263 29.9601 48.5665 28.4647 49.0641C26.861 49.5967 25.2628 49.9633 23.7404 50.1418C19.823 50.6006 16.4138 49.8372 14.6072 47.5596C14.4863 47.4161 14.5048 47.2007 14.6482 47.0804C14.7918 46.9592 15.0065 46.9776 15.1273 47.1212C16.8883 49.0922 20.0303 49.5181 23.5651 48.9186C24.9953 48.6761 26.4869 48.259 27.987 47.7032C29.3926 47.1833 30.7988 46.5324 32.1677 45.7865C33.0283 45.3179 33.8758 44.8155 34.6934 44.2742C35.9341 43.4526 37.1065 42.5466 38.1695 41.5669C41.053 38.911 43.1234 35.7187 43.3881 32.215Z" fill="var(--fill-0, #283E37)"/>
<path id="path464" fill-rule="evenodd" clip-rule="evenodd" d="M23.0624 46.1024C22.8885 46.0317 22.8047 45.8337 22.8755 45.6594C22.946 45.4862 23.1447 45.4018 23.3186 45.4726C24.1156 45.7393 24.9388 45.6422 25.638 45.2978C26.2999 44.9712 26.8266 44.3902 27.0861 43.638C27.3475 42.9246 27.2698 42.1785 26.984 41.5336C26.7039 40.9009 26.2014 40.3637 25.5106 40.0839C24.8183 39.773 24.0683 39.7639 23.4087 40.0095C22.7201 40.2665 22.1151 40.7619 21.7805 41.4798C21.5753 41.9114 21.4731 42.3641 21.4814 42.8116C21.4896 43.2909 21.5986 43.7598 21.8161 44.1823C21.9121 44.3437 21.8593 44.5523 21.698 44.6482C21.5369 44.7441 21.3281 44.691 21.2317 44.5307C20.8969 44.0396 20.6889 43.473 20.6075 42.8795C20.5267 42.2911 20.5941 41.6798 20.7988 41.0804C21.1693 40.0211 21.9508 39.228 22.8916 38.7836C23.8583 38.3265 25.0019 38.2778 26.0837 38.6751C27.1613 39.1147 27.9758 39.944 28.3769 40.9465C28.7737 41.9374 28.7807 43.0855 28.3098 44.1358C27.8326 45.1481 27.0159 45.8962 26.0369 46.2431C25.0959 46.5761 24.0314 46.57 23.0624 46.1024Z" fill="var(--fill-0, #283E37)"/>
<path id="path466" fill-rule="evenodd" clip-rule="evenodd" d="M17.9375 41.4148C19.8476 38.9131 22.5003 36.4425 25.7126 34.3318C29.0029 32.1696 32.4068 30.6971 35.5215 29.9531C35.0478 34.3308 31.5506 38.3593 27.1853 40.4147C26.8292 39.9714 26.3589 39.6106 25.7955 39.3817C24.027 38.6619 22.0073 39.5136 21.2879 41.2819C21.2127 41.4672 21.1545 41.6544 21.1129 41.8436C20.0419 41.8455 18.975 41.7087 17.9375 41.4148Z" fill="var(--fill-0, #283E37)"/>
<path id="path468" fill-rule="evenodd" clip-rule="evenodd" d="M43.6826 27.8046C43.8354 27.9142 43.8708 28.1266 43.7616 28.2789C43.6526 28.4322 43.4401 28.4671 43.2874 28.3585C41.7274 27.305 39.0236 26.7424 35.7449 26.9897C33.9629 27.1246 32.0156 27.5087 29.9809 28.1868C28.2372 28.7668 26.4294 29.5603 24.6178 30.6234C23.2655 31.3956 22.0621 32.2511 20.9846 33.1358C19.7713 34.132 18.7221 35.1718 17.8384 36.2214C15.4355 39.0761 14.228 41.9697 14.1523 43.9621C14.095 45.3085 14.2168 46.6491 14.3988 47.8228C14.7382 50.0121 15.282 51.6233 15.282 51.6233C15.347 51.7988 15.2568 51.9948 15.0807 52.0598C14.9047 52.1248 14.709 52.0346 14.6441 51.858C14.6441 51.858 13.992 50.2245 13.5284 47.9799C13.276 46.7587 13.0843 45.358 13.0762 43.9417C13.0737 41.764 14.2012 38.5155 16.7279 35.3164C17.634 34.1688 18.7203 33.0261 20.0015 31.9514C21.1346 31.0008 22.4253 30.1113 23.8616 29.2955C27.2604 27.4321 30.6141 26.4068 33.6227 26.0391C38.0847 25.495 41.7671 26.3602 43.6826 27.8046Z" fill="var(--fill-0, #283E37)"/>
<path id="path470" fill-rule="evenodd" clip-rule="evenodd" d="M34.3372 24.5864C34.5179 24.6368 34.6237 24.824 34.573 25.0044C34.5225 25.1858 34.3348 25.2916 34.1541 25.2411C31.4605 24.567 29.0493 22.5988 26.6521 20.8557C25.0844 19.7159 23.5278 18.679 21.8721 18.2473C20.2655 17.8283 18.5677 18.0232 16.6608 19.326C15.8423 19.8702 15.1592 20.427 14.5849 20.9867C12.8433 22.6822 12.174 24.4477 12.1049 26.2742C12.0228 28.449 12.7315 30.6819 13.46 32.9004C14.2392 35.273 15.0371 37.6224 15.0358 39.8466C15.0407 40.0348 14.8923 40.191 14.7047 40.1958C14.5171 40.2007 14.361 40.0523 14.3561 39.8641C14.2224 37.2994 12.9508 34.6299 11.9712 31.9274C11.2854 30.0359 10.7418 28.1289 10.7461 26.247C10.7512 24.0791 11.4644 21.9314 13.5011 19.8896C14.1302 19.2591 14.8954 18.645 15.8043 18.0388C18.1867 16.4945 20.2908 16.3189 22.2478 16.9C24.0378 17.4315 25.7056 18.613 27.3532 19.939C29.5822 21.7326 31.7769 23.7929 34.3372 24.5864Z" fill="var(--fill-0, #283E37)"/>
<path id="path472" fill-rule="evenodd" clip-rule="evenodd" d="M14.3154 20.1969C14.4383 20.3395 14.4229 20.5539 14.2811 20.6771C14.1393 20.8003 13.9244 20.7847 13.8015 20.6421C12.581 19.3064 9.91837 16.2771 7.31263 13.2196C4.64548 10.0913 2.041 6.93874 0.997655 5.64765C-0.70782 3.47094 0.00717574 1.50957 1.39468 0.579322C2.79693 -0.361592 5.01545 -0.281068 6.34921 1.75596C6.73082 2.34767 8.20553 4.83575 9.81322 7.60999C12.1893 11.7102 14.8642 16.4255 14.8642 16.4255C14.9612 16.5865 14.9095 16.7951 14.7488 16.8921C14.5882 16.9891 14.3791 16.9376 14.2821 16.7766L5.15658 2.5572C4.34837 1.38348 3.07513 1.29715 2.26003 1.85588C1.48635 2.38551 1.24734 3.48355 2.20018 4.70868C2.9564 5.70683 4.58961 7.77974 6.4272 10.133C7.81093 11.9062 9.30717 13.8365 10.6599 15.568C12.206 17.5468 13.5534 19.2676 14.3154 20.1969Z" fill="var(--fill-0, #283E37)"/>
<path id="path474" fill-rule="evenodd" clip-rule="evenodd" d="M26.0459 22.5932C26.383 23.1723 26.2934 24.1869 24.9322 23.3362C24.4674 23.0452 20.8692 21.1741 20.2609 20.4116C19.5339 19.4998 20.2124 19.3058 21.0034 19.3301C22.7963 19.3844 24.9748 20.756 26.0459 22.5932Z" fill="var(--fill-0, #283E37)"/>
</g>
</svg>
