<svg xmlns="http://www.w3.org/2000/svg" width="128" height="128" viewBox="0 0 128 128" fill="none">
  <g clip-path="url(#clip0_1208_83)">
    <path d="M8.75879 27.9051C10.6326 27.6974 12.9291 28.9945 14.7158 29.5409C21.9807 31.7623 33.9603 38.0409 41.4023 36.7039C43.0361 35.3715 44.4448 33.8781 46.4141 32.9745C49.969 31.3431 65.4654 29.9361 69.9092 30.0575C71.5682 30.1029 73.2703 30.2811 74.8428 30.8114C79.1186 32.2536 83.1997 35.5601 87.8145 37.1073C90.42 37.9781 93.2096 38.2252 95.9385 37.828C102.108 36.9263 111.718 31.3026 117.529 28.7332C118.111 28.4759 118.864 28.0485 119.45 28.2479C119.619 28.5179 120.023 29.4564 119.631 29.6561C113.348 32.8512 106.521 36.5681 99.8271 38.8485C93.2245 41.2331 85.8815 39.5123 80.2363 35.7557C72.6261 30.6916 65.9963 32.0598 57.3398 33.1668C52.6849 33.7622 47.3843 33.4618 44.1807 37.7088C42.1136 40.4494 41.64 43.6172 38.5098 45.5828C37.541 46.3229 34.8474 48.4408 35.3652 49.8133C37.6082 55.7591 45.8871 51.7743 49.0449 48.9207C50.643 47.4767 52.3331 45.5523 53.5518 44.7196C54.4252 44.1291 55.4393 43.756 56.502 43.6346C57.3249 43.5352 58.0838 43.5773 58.8857 43.5633C76.6596 43.2548 88.95 54.8578 101.34 65.2489C103.272 66.8697 104.843 68.7337 106.942 70.2928C108.927 69.5061 110.925 68.7361 112.886 67.8973C115.201 66.9069 125.553 61.9716 127.421 62.3182C127.729 62.3756 127.78 62.5353 127.949 62.7674L127.869 63.1336C126.853 64.203 110.426 71.2375 108.051 72.0672C111.041 77.4731 108.554 81.0295 102.472 81.8407C102.769 84.1928 103.136 86.9211 100.665 88.3993C98.1549 89.9008 95.1584 88.8915 92.5078 88.2996C91.1957 93.3075 87.8718 94.0752 83.0918 93.4627C82.1465 94.8931 81.317 96.1274 79.6719 96.9881C76.0321 98.8927 70.5656 97.4767 66.9688 96.1092C64.9748 95.3511 62.9947 94.1814 60.9258 93.6141C58.6575 96.5797 56.0593 99.647 51.5566 98.7147C49.3183 98.2511 48.1093 96.6479 46.9844 94.8827C45.9343 95.2667 44.4587 95.7933 43.3525 95.8495C39.1439 96.0626 36.8017 93.6818 36.3896 90.0145C34.8598 90.6657 32.9148 91.2872 31.2305 91.1424C27.7858 90.8465 24.9819 87.5357 25.2754 84.2703C25.3222 83.7489 25.3795 83.2242 25.4404 82.702C24.8012 82.6741 24.1646 82.6 23.5371 82.4803C21.8569 82.1571 20.2414 81.2631 19.3281 79.867C17.7123 77.3967 18.2011 75.3576 18.7764 72.7703C17.6667 70.4278 16.1689 69.85 13.8193 68.9745C11.8127 68.2274 -0.0421029 64.4961 -0.0507812 62.8797C0.18068 62.6883 0.516939 62.459 0.839844 62.5662C6.20702 64.3526 17.0867 66.9086 20.7207 70.8416C24.555 67.3255 34.7185 62.8797 36.9717 70.3387L37.0332 70.3104C42.0727 68.0953 46.819 69.0527 47.292 75.1278C52.358 73.744 56.132 74.3258 56.6523 80.1297C57.9785 79.5358 58.6383 79.2874 60.0859 79.7157C65.8362 81.4171 63.5176 87.0659 61.9951 91.0653C64.5424 92.9534 67.2391 94.0215 70.3213 94.9188C73.1226 95.7342 79.1374 96.8866 80.249 93.2137C79.5556 91.1664 63.7917 83.4452 63.6758 81.5584L63.8906 81.4227C68.2843 82.1645 74.993 87.1025 79.1143 89.162C82.9306 91.069 88.9018 94.1955 90.1865 87.6385C88.4826 85.1515 84.5254 83.0401 81.9736 81.2879C77.0814 77.9287 70.6207 74.6368 66.2998 70.7313C67.5602 70.9729 68.8638 71.3751 70.0166 71.911C78.4384 75.8256 85.8459 81.3891 93.752 86.0877C95.6595 87.2215 98.6805 87.9066 100.105 85.6903C102.093 82.5987 97.0182 79.0453 95.0176 77.1649C91.3782 74.2329 87.4801 71.4818 83.6963 68.7293C81.2721 66.965 78.889 65.149 76.5488 63.284C75.9022 62.7686 73.7793 61.1736 73.6504 60.5067C75.9564 59.6982 96.4646 75.2849 99.4072 77.9422C99.8314 78.325 100.555 78.8074 101.074 79.1034C101.708 79.4578 102.439 79.6239 103.172 79.5799C106.372 79.4087 108.228 76.4681 106.346 73.7957C103.632 69.9419 99.5613 66.5906 95.9092 63.5487C92.4664 60.6439 88.9097 57.8641 85.2471 55.2157C75.8427 48.4439 68.3271 45.0537 56.2002 45.8407C52.9049 47.7724 50.4259 51.8072 46.4541 53.412C43.6788 54.5331 40.7933 55.8479 37.6416 54.8416C35.9352 54.2967 34.2181 53.16 33.3828 51.5838C30.8711 45.8567 38.841 44.4216 40.7773 38.9491C30.3371 38.9513 19.5246 32.902 9.87988 29.4227C9.42654 29.2591 9.08474 29.114 8.73145 28.7889C8.53022 28.2866 8.55935 28.4808 8.75879 27.9051ZM58.7178 81.6952C55.2095 82.6213 52.6102 88.1053 50.5898 90.8963C48.6183 93.6202 49.4582 95.4753 52.5547 96.8319C57.9042 97.0019 60.8468 88.9911 61.3994 84.9559C61.6127 83.3964 60.5152 81.7012 58.7178 81.6952ZM52.5723 76.9598C51.899 76.5822 50.8404 76.4796 50.0518 76.5536C46.8687 77.9115 44.3585 81.2473 42.252 83.8621C40.5279 86.0021 37.7753 88.7449 39.1924 91.535C39.7219 92.557 40.6604 93.3328 41.7959 93.6873C42.131 93.7908 42.6667 93.8616 43.0215 93.8485C45.7622 92.8961 47.1594 91.7142 48.8135 89.2186C50.4737 86.7139 57.0735 79.485 52.5723 76.9598ZM32.7188 88.7577C38.9493 87.0556 51.6327 70.2705 40.3213 71.5633C39.7209 71.6833 38.3977 72.077 37.9619 72.5409C34.8324 75.872 31.4671 78.9856 28.3379 82.2889C27.7857 82.8718 27.5389 85.1393 27.8086 85.9071C28.743 88.566 30.1238 88.8426 32.7188 88.7577ZM33.9355 72.9325C35.7264 69.7899 33.5612 68.0412 30.1582 68.492C25.8908 69.3342 19.6376 72.4093 20.7715 77.4979C21.2028 79.4335 22.8979 80.6358 24.9727 80.4735C28.3208 79.3606 32.2421 75.9041 33.9355 72.9325Z" fill="#696565"/>
    <path d="M76.0122 3.42188C76.1309 3.45392 76.399 3.57767 76.5253 3.63147C76.8236 3.96188 76.9714 4.38326 76.8802 4.80965C76.4637 6.75565 74.4284 14.3537 73.1255 15.4017C72.6948 15.3793 72.6375 15.3746 72.257 15.1839C71.551 14.2251 73.733 8.73501 74.0248 7.39207C74.3117 6.07205 75.0278 4.41677 76.0122 3.42188Z" fill="#696565"/>
    <path d="M53.4147 4.44531C54.9883 5.22989 55.4363 9.3694 55.9317 11.092C56.3548 12.5635 57.3878 15.489 56.1531 16.6421C55.9093 16.4229 55.1867 15.7755 55.0696 15.4667C53.9748 12.5769 53.3139 9.14452 52.6411 6.12793C52.4802 5.40567 52.9614 4.99516 53.4147 4.44531Z" fill="#696565"/>
    <path d="M53.2559 107.133C55.1686 107.783 51.4743 118.99 50.8417 120.588C50.6902 120.97 50.2447 121.027 49.9007 121.117C49.5424 120.996 49.4861 120.955 49.1799 120.737C49.1511 119.348 52.6455 109.381 53.2559 107.133Z" fill="#696565"/>
    <path d="M92.655 11.7109C93.1481 11.7234 93.3091 11.6987 93.7221 11.982C93.8647 12.2498 94.0087 12.4154 93.8948 12.7296C93.371 14.1749 87.6739 18.7387 86.5681 19.4013C86.4354 19.3788 86.303 19.3543 86.171 19.3275C85.6159 19.2138 85.451 19.1435 85.1758 18.7383C85.2528 17.9202 91.5986 12.3103 92.655 11.7109Z" fill="#696565"/>
    <path d="M87.7114 102.227C87.836 102.228 88.4553 102.243 88.5748 102.339C90.6784 104.023 93.6204 107.073 94.9816 109.346C95.2229 109.75 94.9396 110.297 94.7814 110.591C94.607 110.603 93.7469 110.669 93.6074 110.53C91.5628 108.488 88.7784 105.508 87.321 103.087C87.1795 102.852 87.544 102.461 87.7114 102.227Z" fill="#696565"/>
    <path d="M35.2598 12.1016C35.3683 12.1023 36.0309 12.1124 36.1457 12.189C38.5383 13.7871 41.6871 16.8734 43.275 19.2139C43.4798 19.5158 43.2766 19.8665 43.1869 20.0737C41.2013 20.1188 36.6585 15.204 35.4187 13.5987C35.0345 13.1013 35.0978 12.6483 35.2598 12.1016Z" fill="#696565"/>
    <path d="M37.1487 105.781C37.5126 105.787 37.5227 105.791 37.8238 106.001C38.4976 107.639 33.1299 112.906 31.6225 113.471C31.0403 113.224 31.1641 113.366 30.84 112.901C30.6057 111.284 35.6259 106.633 37.1487 105.781Z" fill="#696565"/>
    <path d="M70.7214 109.227C70.9635 109.241 71.2542 109.281 71.4987 109.309C72.7177 110.009 74.2908 116.144 73.947 117.362C73.4715 117.44 72.4565 117.716 72.239 117.153C71.532 115.327 70.3551 111.058 70.7214 109.227Z" fill="#696565"/>
    <path d="M8.75879 27.9051C10.6326 27.6974 12.9291 28.9945 14.7158 29.5409C21.9807 31.7623 33.9603 38.0409 41.4023 36.7039C43.0361 35.3715 44.4448 33.8781 46.4141 32.9745C49.969 31.3431 65.4654 29.9361 69.9092 30.0575C71.5682 30.1029 73.2703 30.2811 74.8428 30.8114C79.1186 32.2536 83.1997 35.5601 87.8145 37.1073C90.42 37.9781 93.2096 38.2252 95.9385 37.828C102.108 36.9263 111.718 31.3026 117.529 28.7332C118.111 28.4759 118.864 28.0485 119.45 28.2479C119.619 28.5179 120.023 29.4564 119.631 29.6561C113.348 32.8512 106.521 36.5681 99.8271 38.8485C93.2245 41.2331 85.8815 39.5123 80.2363 35.7557C72.6261 30.6916 65.9963 32.0598 57.3398 33.1668C52.6849 33.7622 47.3843 33.4618 44.1807 37.7088C42.1136 40.4494 41.64 43.6172 38.5098 45.5828C37.541 46.3229 34.8474 48.4408 35.3652 49.8133C37.6082 55.7591 45.8871 51.7743 49.0449 48.9207C50.643 47.4767 52.3331 45.5523 53.5518 44.7196C54.4252 44.1291 55.4393 43.756 56.502 43.6346C57.3249 43.5352 58.0838 43.5773 58.8857 43.5633C76.6596 43.2548 88.95 54.8578 101.34 65.2489C103.272 66.8697 104.843 68.7337 106.942 70.2928C108.927 69.5061 110.925 68.7361 112.886 67.8973C115.201 66.9069 125.553 61.9716 127.421 62.3182C127.729 62.3756 127.78 62.5353 127.949 62.7674L127.869 63.1336C126.853 64.203 110.426 71.2375 108.051 72.0672C111.041 77.4731 108.554 81.0295 102.472 81.8407C102.769 84.1928 103.136 86.9211 100.665 88.3993C98.1549 89.9008 95.1584 88.8915 92.5078 88.2996C91.1957 93.3075 87.8718 94.0752 83.0918 93.4627C82.1465 94.8931 81.317 96.1274 79.6719 96.9881C76.0321 98.8927 70.5656 97.4767 66.9688 96.1092C64.9748 95.3511 62.9947 94.1814 60.9258 93.6141C58.6575 96.5797 56.0593 99.647 51.5566 98.7147C49.3183 98.2511 48.1093 96.6479 46.9844 94.8827C45.9343 95.2667 44.4587 95.7933 43.3525 95.8495C39.1439 96.0626 36.8017 93.6818 36.3896 90.0145C34.8598 90.6657 32.9148 91.2872 31.2305 91.1424C27.7858 90.8465 24.9819 87.5357 25.2754 84.2703C25.3222 83.7489 25.3795 83.2242 25.4404 82.702C24.8012 82.6741 24.1646 82.6 23.5371 82.4803C21.8569 82.1571 20.2414 81.2631 19.3281 79.867C17.7123 77.3967 18.2011 75.3576 18.7764 72.7703C17.6667 70.4278 16.1689 69.85 13.8193 68.9745C11.8127 68.2274 -0.0421029 64.4961 -0.0507812 62.8797C0.18068 62.6883 0.516939 62.459 0.839844 62.5662C6.20702 64.3526 17.0867 66.9086 20.7207 70.8416C24.555 67.3255 34.7185 62.8797 36.9717 70.3387L37.0332 70.3104C42.0727 68.0953 46.819 69.0527 47.292 75.1278C52.358 73.744 56.132 74.3258 56.6523 80.1297C57.9785 79.5358 58.6383 79.2874 60.0859 79.7157C65.8362 81.4171 63.5176 87.0659 61.9951 91.0653C64.5424 92.9534 67.2391 94.0215 70.3213 94.9188C73.1226 95.7342 79.1374 96.8866 80.249 93.2137C79.5556 91.1664 63.7917 83.4452 63.6758 81.5584L63.8906 81.4227C68.2843 82.1645 74.993 87.1025 79.1143 89.162C82.9306 91.069 88.9018 94.1955 90.1865 87.6385C88.4826 85.1515 84.5254 83.0401 81.9736 81.2879C77.0814 77.9287 70.6207 74.6368 66.2998 70.7313C67.5602 70.9729 68.8638 71.3751 70.0166 71.911C78.4384 75.8256 85.8459 81.3891 93.752 86.0877C95.6595 87.2215 98.6805 87.9066 100.105 85.6903C102.093 82.5987 97.0182 79.0453 95.0176 77.1649C91.3782 74.2329 87.4801 71.4818 83.6963 68.7293C81.2721 66.965 78.889 65.149 76.5488 63.284C75.9022 62.7686 73.7793 61.1736 73.6504 60.5067C75.9564 59.6982 96.4646 75.2849 99.4072 77.9422C99.8314 78.325 100.555 78.8074 101.074 79.1034C101.708 79.4578 102.439 79.6239 103.172 79.5799C106.372 79.4087 108.228 76.4681 106.346 73.7957C103.632 69.9419 99.5613 66.5906 95.9092 63.5487C92.4664 60.6439 88.9097 57.8641 85.2471 55.2157C75.8427 48.4439 68.3271 45.0537 56.2002 45.8407C52.9049 47.7724 50.4259 51.8072 46.4541 53.412C43.6788 54.5331 40.7933 55.8479 37.6416 54.8416C35.9352 54.2967 34.2181 53.16 33.3828 51.5838C30.8711 45.8567 38.841 44.4216 40.7773 38.9491C30.3371 38.9513 19.5246 32.902 9.87988 29.4227C9.42654 29.2591 9.08474 29.114 8.73145 28.7889C8.53022 28.2866 8.55935 28.4808 8.75879 27.9051ZM58.7178 81.6952C55.2095 82.6213 52.6102 88.1053 50.5898 90.8963C48.6183 93.6202 49.4582 95.4753 52.5547 96.8319C57.9042 97.0019 60.8468 88.9911 61.3994 84.9559C61.6127 83.3964 60.5152 81.7012 58.7178 81.6952ZM52.5723 76.9598C51.899 76.5822 50.8404 76.4796 50.0518 76.5536C46.8687 77.9115 44.3585 81.2473 42.252 83.8621C40.5279 86.0021 37.7753 88.7449 39.1924 91.535C39.7219 92.557 40.6604 93.3328 41.7959 93.6873C42.131 93.7908 42.6667 93.8616 43.0215 93.8485C45.7622 92.8961 47.1594 91.7142 48.8135 89.2186C50.4737 86.7139 57.0735 79.485 52.5723 76.9598ZM32.7188 88.7577C38.9493 87.0556 51.6327 70.2705 40.3213 71.5633C39.7209 71.6833 38.3977 72.077 37.9619 72.5409C34.8324 75.872 31.4671 78.9856 28.3379 82.2889C27.7857 82.8718 27.5389 85.1393 27.8086 85.9071C28.743 88.566 30.1238 88.8426 32.7188 88.7577ZM33.9355 72.9325C35.7264 69.7899 33.5612 68.0412 30.1582 68.492C25.8908 69.3342 19.6376 72.4093 20.7715 77.4979C21.2028 79.4335 22.8979 80.6358 24.9727 80.4735C28.3208 79.3606 32.2421 75.9041 33.9355 72.9325Z" fill="#696565"/>
    <path d="M76.0122 3.42188C76.1309 3.45392 76.399 3.57767 76.5253 3.63147C76.8236 3.96188 76.9714 4.38326 76.8802 4.80965C76.4637 6.75565 74.4284 14.3537 73.1255 15.4017C72.6948 15.3793 72.6375 15.3746 72.257 15.1839C71.551 14.2251 73.733 8.73501 74.0248 7.39207C74.3117 6.07205 75.0278 4.41677 76.0122 3.42188Z" fill="#696565"/>
    <path d="M53.4147 4.44531C54.9883 5.22989 55.4363 9.3694 55.9317 11.092C56.3548 12.5635 57.3878 15.489 56.1531 16.6421C55.9093 16.4229 55.1867 15.7755 55.0696 15.4667C53.9748 12.5769 53.3139 9.14452 52.6411 6.12793C52.4802 5.40567 52.9614 4.99516 53.4147 4.44531Z" fill="#696565"/>
    <path d="M53.2559 107.133C55.1686 107.783 51.4743 118.99 50.8417 120.588C50.6902 120.97 50.2447 121.027 49.9007 121.117C49.5424 120.996 49.4861 120.955 49.1799 120.737C49.1511 119.348 52.6455 109.381 53.2559 107.133Z" fill="#696565"/>
    <path d="M92.655 11.7109C93.1481 11.7234 93.3091 11.6987 93.7221 11.982C93.8647 12.2498 94.0087 12.4154 93.8948 12.7296C93.371 14.1749 87.6739 18.7387 86.5681 19.4013C86.4354 19.3788 86.303 19.3543 86.171 19.3275C85.6159 19.2138 85.451 19.1435 85.1758 18.7383C85.2528 17.9202 91.5986 12.3103 92.655 11.7109Z" fill="#696565"/>
    <path d="M87.7114 102.227C87.836 102.228 88.4553 102.243 88.5748 102.339C90.6784 104.023 93.6204 107.073 94.9816 109.346C95.2229 109.75 94.9396 110.297 94.7814 110.591C94.607 110.603 93.7469 110.669 93.6074 110.53C91.5628 108.488 88.7784 105.508 87.321 103.087C87.1795 102.852 87.544 102.461 87.7114 102.227Z" fill="#696565"/>
    <path d="M35.2598 12.1016C35.3683 12.1023 36.0309 12.1124 36.1457 12.189C38.5383 13.7871 41.6871 16.8734 43.275 19.2139C43.4798 19.5158 43.2766 19.8665 43.1869 20.0737C41.2013 20.1188 36.6585 15.204 35.4187 13.5987C35.0345 13.1013 35.0978 12.6483 35.2598 12.1016Z" fill="#696565"/>
    <path d="M37.1487 105.781C37.5126 105.787 37.5227 105.791 37.8238 106.001C38.4976 107.639 33.1299 112.906 31.6225 113.471C31.0403 113.224 31.1641 113.366 30.84 112.901C30.6057 111.284 35.6259 106.633 37.1487 105.781Z" fill="#696565"/>
    <path d="M70.7214 109.227C70.9635 109.241 71.2542 109.281 71.4987 109.309C72.7177 110.009 74.2908 116.144 73.947 117.362C73.4715 117.44 72.4565 117.716 72.239 117.153C71.532 115.327 70.3551 111.058 70.7214 109.227Z" fill="#696565"/>
  </g>
  <defs>
    <clipPath id="clip0_1208_83">
      <rect width="128" height="128" fill="white"/>
    </clipPath>
  </defs>
</svg>