<svg xmlns="http://www.w3.org/2000/svg" width="66" height="68" viewBox="0 0 66 68" fill="none">
  <path d="M43.6973 8.20898C44.6821 8.07914 46.4618 8.9043 47.3135 9.38965C48.3867 10.0013 49.7076 11.0341 50.501 11.9922C51.9263 13.7135 53.1129 15.8729 53.7432 18.0146C54.1113 19.2662 53.8426 20.0539 53.5996 21.25C53.1614 23.4068 52.4831 25.4347 51.6875 27.4814C51.1132 29.0447 50.5686 30.5843 49.8242 32.085C49.0692 33.5597 48.1845 34.9067 47.373 36.3535C45.0698 40.4605 41.7721 43.9674 38.6553 47.4629C37.4653 48.7974 36.0006 50.1219 34.6621 51.3096C33.0036 52.7812 31.0443 54.0285 29.1787 55.2129C28.0498 55.9104 26.8972 56.7832 25.6289 57.1807C24.9969 57.3669 24.2095 57.3753 23.5664 57.4355C20.5074 57.7224 17.7401 56.2009 15.1387 54.6729C13.6421 53.727 12.5246 52.2864 11.9805 50.6016C11.5379 49.1881 11.956 48.014 12.7773 46.7861C14.9098 43.5983 18.0939 40.7054 21.8145 39.5957C24.917 38.6706 25.8975 42.2401 27.8105 43.4824C29.89 44.8324 32.5295 40.7582 33.7793 39.5479C34.0121 39.2649 34.248 38.957 34.4531 38.6553C36.6892 35.4172 39.4449 32.5872 41.2705 29.0879C44.0301 24.3928 38.4119 24.8384 36.7881 22.3438C35.4571 20.2986 37.8425 14.6934 38.8691 12.8018C40.1691 10.4064 41.1056 9.02234 43.6973 8.20898ZM47.3271 10.7344C46.7454 11.515 46.0711 12.2391 45.5518 13.0664C43.5103 16.3182 42.2718 19.8325 41.2773 23.4961C42.236 24.4658 43.2815 25.4355 43.2617 26.9043C43.2186 30.075 38.8132 35.1679 36.874 37.6777C36.3517 38.3538 35.8978 39.079 35.3828 39.7598C34.4577 40.9826 33.3371 42.2517 32.2295 43.3105C31.2849 44.2136 30.2249 45.0939 28.8398 45.0732C27.9611 45.06 26.9583 44.6509 26.3428 44.0156C26.141 43.8074 25.9916 43.5529 25.7959 43.3408C25.2522 43.6264 24.858 43.9705 24.3525 44.2773C22.119 45.6331 19.1783 48.0548 17.5908 50.1191C17.2206 50.601 16.8695 51.0975 16.5391 51.6074C16.3284 51.9386 15.7539 52.939 15.5117 53.1758C16.6882 53.9638 17.2416 54.2905 18.5576 54.7939C19.3166 55.1022 20.074 55.471 20.8555 55.7139C22.2975 56.162 24.1774 56.2054 25.5801 55.6133C26.6984 55.1412 27.7692 54.445 28.793 53.7969C30.2415 52.8799 31.6413 51.9215 32.9619 50.8252C35.4617 48.75 37.624 46.424 39.75 43.9795C41.094 42.4342 42.4436 40.8908 43.6826 39.2578C46.0765 36.1026 48.4269 32.1845 49.9004 28.5039C50.6309 26.679 52.6622 21.3288 52.6445 19.5723C52.6348 18.6137 52.2988 17.736 51.9268 16.8682C51.0262 14.7678 49.1723 12.0915 47.3271 10.7344ZM22.4561 40.7705C18.2316 42.3932 15.0301 45.4519 12.5625 49.1943C12.7899 49.8402 14.1089 52.3842 14.8896 52.3643C14.9896 52.241 14.9931 52.2417 15.0537 52.0977C15.8189 50.3442 16.8072 49.24 18.1904 47.9219C20.1166 46.0863 22.1172 44.1962 24.6113 43.166C24.8483 43.0682 25.0903 42.9518 25.3271 42.8477C24.6705 41.8983 23.7419 40.6824 22.4561 40.7705ZM43.6494 9.1875C42.3163 9.53688 41.4275 10.9273 40.7695 12.0654C39.3249 14.5644 37.4946 18.7709 37.8643 21.6797C38.8047 22.4564 39.2188 22.7527 40.332 23.2441L40.4707 22.5244C40.6549 21.739 41.041 20.8734 41.292 20.1045C42.1712 17.4103 44.4733 12.0494 46.9258 10.4766C45.8259 9.88359 44.9227 9.31832 43.6494 9.1875Z" fill="#696565"/>
  <path d="M29.7441 23.6855C33.8765 23.4449 31.573 30.194 30.3877 31.9521C30.0163 32.5035 29.1335 34.8635 28.4658 34.7988C27.7336 34.7273 25.1166 32.686 24.5957 32.2051C23.1624 30.9352 21.6705 29.1529 21.4375 27.1904C21.3085 26.1028 22.0013 25.0748 23.1279 25.0186C24.6298 24.9436 25.5637 25.9563 26.584 26.8643C26.6531 26.6878 26.7344 26.5164 26.8262 26.3506C27.5058 25.106 28.3274 24.0984 29.7441 23.6855ZM29.7969 24.9453C27.8454 25.7547 27.8708 28.1933 27.1826 28.8203C26.4722 28.8029 24.7382 25.9594 23.417 26.165C22.9923 26.2312 22.5213 26.1757 22.5195 26.8691C22.655 27.9118 23.5322 29.1731 24.1846 29.9551C25.6447 31.65 26.2579 32.1042 28.085 33.3857C28.9664 31.886 31.1804 27.25 30.7686 25.5869C30.7087 25.3455 30.59 25.1348 30.375 24.998C30.2178 24.8982 29.9756 24.9341 29.7969 24.9453Z" fill="#696565"/>
  <path d="M18.9284 4.92969L18.9868 4.93958C20.0517 5.11267 22.9571 10.1726 22.7579 11.4873C22.7438 11.5803 22.6011 11.6277 22.5239 11.6704C22.2513 11.4617 21.9919 11.1903 21.7695 10.9284C21.1068 10.1482 18.5266 6.08667 18.6529 5.24146C18.6805 5.05695 18.786 5.02268 18.9284 4.92969Z" fill="#696565"/>
  <path d="M5.27533 19.6641C6.20076 19.6909 11.716 22.6677 11.8318 23.747L11.6937 23.9004C10.2815 23.582 5.86978 21.4571 5 20.3846C5.08782 20.0584 5.12554 19.9681 5.27533 19.6641Z" fill="#696565"/>
  <path d="M53.3787 43.7188C53.5217 43.7277 53.7403 43.7667 53.8818 43.8312C55.5162 44.583 57.1712 45.435 58.6999 46.3816C59.1858 46.6824 59.5735 47.1274 59.3 47.6904C59.139 47.7803 59.0088 47.8288 58.822 47.804C57.965 47.6906 53.999 45.1648 53.4029 44.3698C53.2698 44.1922 53.3489 43.9245 53.3787 43.7188Z" fill="#696565"/>
  <path d="M42.1566 57.1719C42.6445 57.2659 42.7735 57.4566 43.058 57.8469C43.7452 58.8207 44.3425 59.8784 44.8915 60.937C45.3344 61.7916 45.7662 62.3908 45.6287 63.3782C45.478 63.3814 45.2529 63.3884 45.1183 63.3163C44.1838 62.8197 41.7817 57.9377 42.1566 57.1719Z" fill="#696565"/>
  <path d="M63.0667 27.0694C63.6354 26.9499 65.0593 26.9466 65.3037 27.6002C65.0395 28.2668 61.4852 28.423 60.7152 28.4511C60.1165 28.4586 58.8189 28.5311 58.4102 28.0674C58.4151 27.4814 62.4432 27.1332 63.0667 27.0694Z" fill="#696565"/>
  <path d="M4.29057 37.7309C4.83096 37.6788 6.36679 37.6862 6.88165 37.8745L6.8983 37.9735C6.2985 38.7552 3.85683 38.7854 2.90097 38.8468C2.18899 38.8641 1.0033 38.9467 0.315459 38.7745C0.124368 38.7266 0.100051 38.6276 0.0390625 38.4837C0.125874 37.7775 1.42627 37.8495 1.9907 37.8174C2.75106 37.7743 3.52815 37.7594 4.29057 37.7309Z" fill="#696565"/>
  <path d="M26.0864 62.1094C26.1819 62.1209 26.2026 62.1419 26.2907 62.1841C26.6091 62.7916 26.124 66.5725 25.7464 67.2739C25.6976 67.3645 25.2089 67.7602 25.0865 67.8592L24.9633 67.8215C24.5428 67.4552 24.7565 66.1628 24.8373 65.6362C25.0323 64.3623 25.3398 63.1752 26.0864 62.1094Z" fill="#696565"/>
  <path d="M61.3229 8.81407C61.6018 8.8193 61.5284 8.78126 61.7186 8.9061C61.801 9.83874 58.3538 12.0137 57.3946 12.3108C57.2098 12.3497 57.145 12.3824 56.9747 12.3235L56.9297 12.2152C56.9765 11.9564 57.2748 11.5711 57.4646 11.4016C58.4802 10.4941 59.9315 8.96093 61.3229 8.81407Z" fill="#696565"/>
  <path d="M7.68878 52.7734C7.77456 52.8373 7.73563 52.8023 7.77124 52.9456C7.03945 53.9117 4.4628 55.2604 3.34974 55.8784C3.21653 55.9524 2.85547 55.9962 2.69487 56.0119C2.66108 55.9334 2.67028 55.9593 2.64307 55.8778C2.56915 55.6565 2.53882 55.4769 2.65884 55.2611C3.29775 54.1121 6.44137 53.0918 7.68878 52.7734Z" fill="#696565"/>
  <path d="M36.0464 0C36.5532 0.096385 36.5604 1.26631 36.6023 1.6818C36.7436 3.08346 36.8625 4.70596 36.3286 6.04553C36.1387 6.09206 36.2172 6.09653 36.027 6.04458C35.4575 5.18029 35.5523 0.999157 36.0464 0Z" fill="#696565"/>
</svg>