<svg xmlns="http://www.w3.org/2000/svg" width="69" height="70" viewBox="0 0 69 70" fill="none">
  <path d="M33.9162 10.8584C36.8654 10.5646 40.2822 14.7713 42.9758 16.293C43.3605 16.2489 43.775 16.2489 44.1633 16.2402C47.2423 16.1717 50.3186 15.9567 53.3977 15.9072C53.7349 15.9018 54.1352 15.9455 54.4504 16.0596C55.1735 16.6962 55.2473 20.1176 55.3235 21.1826L55.803 27.5508C57.6843 29.1626 59.5606 30.9285 61.4368 32.5596C61.6383 32.7349 62.1892 33.5692 62.2424 33.8389C62.669 36.008 62.7612 38.2757 62.9075 40.4805C63.0785 45.0367 63.2086 49.5971 63.3127 54.1553C63.3542 55.9659 63.551 57.7243 63.6643 59.5273C63.7818 61.3976 63.6723 63.332 63.5647 65.2031C63.5379 65.6634 63.1848 66.3211 62.97 66.7412C61.434 67.1022 58.2311 67.2609 56.5793 67.4072C54.7263 67.4903 52.7899 67.7789 50.9397 67.8057C45.9043 67.8774 40.9264 68.0441 35.8987 68.2685C29.3862 68.4733 22.9002 69.1609 16.386 69.2285C14.8271 69.2447 11.0404 69.327 9.68968 68.9033C8.2752 67.0871 8.18998 62.4545 8.0432 60.165C7.86917 57.4277 7.71974 54.6882 7.59398 51.9482C7.5522 50.9201 7.56124 49.8902 7.51585 48.8623C7.41774 46.6396 6.76911 37.2815 7.34496 35.7851C7.60356 35.1135 8.0538 34.4505 8.51097 33.8965C9.01435 33.2865 12.8773 29.5177 13.425 29.2705C13.3955 29.1307 13.3712 28.9893 13.3528 28.8476C13.1744 27.5557 12.6974 19.1206 13.2825 18.7148C15.3035 17.314 23.5669 17.3696 26.0149 17.206C27.2064 15.8545 28.4625 14.6459 29.7766 13.418C31.0105 12.2649 32.1735 11.1023 33.9162 10.8584ZM42.9983 49.5781C41.4266 50.8445 39.1695 52.7422 37.4651 53.7041C34.6547 55.2902 30.5058 51.823 27.886 50.415C27.2923 51.0445 26.7517 51.7575 26.1555 52.3643C24.1872 54.3674 22.2115 56.3634 20.2522 58.375C19.4903 59.154 18.6258 59.8769 17.8684 60.6592C15.6004 63.0019 13.2593 65.2594 10.9084 67.5176C10.7595 67.661 10.6199 67.9434 10.5315 68.1299C13.6231 68.1489 16.7147 68.0972 19.8039 67.9726C21.4929 67.8945 23.5166 67.6949 25.1584 67.6787C29.5185 67.2698 33.9573 67.0421 38.3332 66.8965C39.4122 66.8599 40.4967 66.8443 41.5744 66.7978C45.9902 66.6008 50.4037 66.3451 54.8127 66.0312C57.1988 65.8772 59.1789 66.0957 61.7121 65.7607C60.8725 65.2046 59.079 63.3941 58.1828 62.625C54.2273 59.2302 50.2041 55.9241 46.2522 52.5322C45.9513 52.2739 42.9674 49.5858 42.9983 49.5781ZM7.90257 36.4375C7.98378 40.1286 8.3156 43.9643 8.52074 47.6504C8.58527 48.8101 8.75617 49.9724 8.81468 51.1631L9.35667 61.2627C9.46757 63.2821 9.46849 65.5347 9.84886 67.4853C12.7542 64.5698 15.5632 61.679 18.5129 58.7783C20.2269 57.1605 21.9342 55.224 23.6311 53.543C24.4635 52.7184 26.7544 50.6754 27.2258 49.9228C26.402 49.418 25.6185 48.8579 24.8098 48.3301C23.1345 47.2597 21.4832 46.1521 19.8577 45.0078C19.0885 44.4615 18.3615 43.8682 17.5725 43.3154C14.4351 41.1167 10.8416 38.8988 7.90257 36.4375ZM61.1487 34.2344C60.3562 35.3932 59.2722 36.3024 58.2336 37.2344C53.5451 41.4412 48.2707 45.0547 43.5159 49.1797C44.1531 49.5583 44.7791 50.0714 45.3606 50.5371C48.0387 52.6823 50.676 54.7229 53.26 56.9883C54.9754 58.4581 56.7583 59.9214 58.511 61.3476C59.6807 62.2998 61.6538 64.3756 62.8059 65.1152C62.1253 60.4972 61.7949 56.3561 62.0237 51.6807C62.1062 49.9931 61.7063 46.7071 61.7327 44.9853C61.7487 43.9306 61.508 34.6699 61.2317 34.2705L61.1487 34.2344ZM52.8518 16.8379L28.3801 18.1064L19.5832 18.5869C17.9056 18.6777 15.3089 18.8962 13.6682 18.7646L14.4387 29.9893C14.6592 33.0096 15.0221 37.0329 14.8694 40.04C15.3833 40.2664 15.8092 40.6259 16.2834 40.916C18.6914 42.3886 20.9747 44.1183 23.3137 45.665C25.6488 47.2972 28.0998 48.8122 30.4993 50.3467C31.9879 51.3064 33.5421 52.573 35.3401 52.8887C37.1303 53.2028 38.7009 51.362 39.9758 50.4092C42.327 48.6518 44.6351 46.8152 46.8918 44.9316C48.5384 43.5317 50.207 42.157 51.8967 40.8096C52.9232 39.9863 54.0639 38.9914 55.216 38.3926C55.0475 34.3891 54.6726 30.4167 54.6868 26.3945C54.6948 24.1054 54.2624 21.6948 54.178 19.3965C54.1263 18.5404 54.0128 17.6534 54.0676 16.7969L52.8518 16.8379ZM13.6711 36.0234C12.8074 36.0574 11.9428 36.071 11.0784 36.0644C10.4335 36.0561 9.4204 36.0084 8.82054 36.0576C9.01864 36.4129 13.3746 39.2668 13.9162 39.4853C13.773 38.3077 13.7611 37.2013 13.6711 36.0234ZM59.7619 34.0146C58.528 34.1307 57.3369 34.2691 56.0979 34.3379C56.1385 35.2622 56.1946 36.2254 56.2082 37.1475C56.2351 37.1681 56.2761 37.2072 56.302 37.2109C56.746 36.8707 59.902 34.325 59.9524 34.0605C59.8276 33.9955 59.89 34.005 59.7619 34.0146ZM13.3674 30.5937C12.4491 31.5884 11.4097 32.453 10.4162 33.3701C9.6654 34.0632 8.96032 34.9007 8.21898 35.5869L8.27269 35.6543L8.35179 35.6572C10.1731 35.3157 11.7562 35.2593 13.594 35.1377C13.5688 34.4946 13.5477 30.8103 13.3674 30.5937ZM55.8518 29.1641C55.9707 30.4328 55.9994 31.9244 56.052 33.2148C57.5919 33.2544 58.909 33.2073 60.4475 33.1162C60.4339 33.076 60.416 33.0214 60.3928 32.9531C58.8889 31.7307 57.4442 30.4664 55.969 29.2119C55.9395 29.1869 55.8721 29.17 55.8518 29.1641ZM34.4211 11.9844C32.7171 12.1771 31.748 12.9478 30.509 14.0478C29.362 15.0662 28.2957 16.0945 27.219 17.1855C29.3047 17.1548 31.5962 17.0102 33.6848 16.875C36.0404 16.6787 38.748 16.4473 41.1037 16.3965C40.0658 15.6621 39.0514 14.8865 38.0168 14.1523C36.9806 13.4169 35.7457 11.9641 34.4211 11.9844Z" fill="#696565"/>
  <path d="M67.243 21.9688C67.5168 21.9773 67.9242 21.9902 68.1107 22.2044L68.072 22.3527C67.2205 23.226 64.4506 24.0779 63.2501 24.3466C62.9032 24.4274 62.545 24.4483 62.191 24.4083L62.1055 24.1754C63.0995 23.1683 65.8616 22.3367 67.243 21.9688Z" fill="#696565"/>
  <path d="M0 25.0354C1.00591 24.9828 5.5327 25.4205 5.72496 26.6169C4.48682 26.9551 0.47199 26.3017 0 25.0354Z" fill="#696565"/>
  <path d="M49.5142 3.54688C49.629 3.58389 49.6227 3.59642 49.7007 3.69255C49.7832 4.20901 49.3377 5.16784 49.0798 5.62934C48.5382 6.59894 48.1259 8.12941 47.0843 8.63285L46.958 8.5933C46.6184 7.81224 48.3408 4.60528 48.904 3.88882C48.9764 3.7967 49.3871 3.60528 49.5142 3.54688Z" fill="#696565"/>
  <path d="M5.13619 12.0469C6.1359 12.3448 9.76404 15.4533 9.68712 16.2785C9.56601 16.2466 9.44602 16.2103 9.32759 16.1697C8.30754 15.8158 5.59516 13.6827 5.06575 12.6089C4.97447 12.4239 5.06546 12.2337 5.13619 12.0469Z" fill="#696565"/>
  <path d="M62.1418 9.89062C62.2588 9.91392 62.3115 9.942 62.4211 9.98598C62.8342 10.9723 59.1118 13.6755 58.3418 14.2271C58.2056 14.2874 58.2027 14.2775 58.0596 14.262L58.0312 14.1481C58.3588 12.8824 61.0572 10.6319 62.1418 9.89062Z" fill="#696565"/>
  <path d="M33.201 0C33.2589 0.0186488 33.4397 0.0867695 33.4527 0.142857C33.828 1.76509 34.1517 4.88471 33.5697 6.42123C32.9168 5.35522 32.4792 1.02498 33.201 0Z" fill="#696565"/>
  <path d="M18.9778 4.25C19.9964 4.47878 22.0973 8.25815 22.1241 9.32451C21.0132 9.08883 18.9173 5.40707 18.9778 4.25Z" fill="#696565"/>
</svg>