<svg width="64" height="64" viewBox="0 0 64 64" fill="none" xmlns="http://www.w3.org/2000/svg">
<path fill-rule="evenodd" clip-rule="evenodd" d="M30.7903 36.1508C28.694 35.8906 27.6498 37.6414 28.2336 39.5082C28.8927 41.6152 31.0332 44.3556 32.9309 45.4311C33.8207 44.8607 34.2304 44.4597 34.9797 43.725C35.7282 42.9695 36.4099 42.1498 37.0158 41.2758C37.6495 40.3449 38.1578 39.2645 37.9514 38.0942C37.7434 36.9151 36.5337 36.1708 35.3801 36.434C34.6197 36.6075 33.8289 37.2516 33.4133 37.9252C32.6693 37.0197 31.9364 36.4413 30.7903 36.1508ZM30.5373 37.3363C32.063 37.7145 32.383 39.0211 33.1018 39.56C33.7812 40.0693 34.6032 36.9791 35.9406 37.4945C37.6307 38.1462 35.9283 40.6698 35.2893 41.4613C34.516 42.3408 33.6723 43.112 32.9113 44.0043C31.7043 42.2692 29.3627 40.3778 29.427 38.0346C29.4414 37.5076 30.1098 37.3432 30.5373 37.3363Z" fill="#696565"/>
<path fill-rule="evenodd" clip-rule="evenodd" d="M22.7424 28.4423C21.7261 28.3859 19.9934 28.2927 19.0451 28.5224C18.9916 28.9271 18.9181 29.5704 18.8889 30.0751C18.8311 31.0736 18.6598 33.4926 19.1887 34.3524C19.3806 34.6627 20.6138 34.6292 21.0422 34.6356C21.8033 34.6421 24.0023 34.6454 24.6047 34.4735C25.4142 34.2424 24.9465 29.3786 24.7102 28.6571C24.0759 28.5063 23.3924 28.4773 22.7424 28.4423ZM24.0979 29.287C24.0444 30.6254 24.0107 32.1522 24.05 33.4862C22.7185 33.4273 21.3847 33.4052 20.052 33.4208C20.0125 32.0657 19.9937 30.7101 19.9944 29.3544C20.8446 29.3483 23.3647 29.3858 24.0979 29.287Z" fill="#696565"/>
<path fill-rule="evenodd" clip-rule="evenodd" d="M22.7746 37.6947C21.964 37.6415 19.8333 37.5188 19.1779 37.8988C18.6732 38.4399 18.6387 42.8345 19.1105 43.6137C19.325 43.9669 20.403 43.9059 20.7882 43.8988C21.581 43.8977 24.1756 44.0032 24.715 43.6117C25.2648 42.8125 24.9022 39.0531 24.7365 38.0063C23.9903 37.7269 23.5683 37.7396 22.7746 37.6947ZM24.0939 38.5766C24.0537 39.8068 23.9474 41.6663 24.006 42.8578C22.4995 42.6823 21.5534 42.6882 20.0256 42.6908C19.9447 41.6297 19.9441 39.7321 20.0031 38.6518C21.3773 38.6412 22.7259 38.5967 24.0939 38.5766Z" fill="#696565"/>
<path fill-rule="evenodd" clip-rule="evenodd" d="M45.2044 37.9566C44.5815 37.8758 41.5191 37.8337 41.3089 38.1461C40.82 38.8735 40.8218 42.8258 41.1741 43.8307C41.2824 44.1398 42.599 44.1169 42.8255 44.1197C43.3125 44.1173 46.7471 44.1938 46.8636 43.8824C47.3985 42.4512 47.0365 39.7068 46.8626 38.2281C46.2806 38.0252 45.8107 38.0019 45.2044 37.9566ZM46.2122 38.7936C46.1866 40.1881 46.1115 41.7296 46.1077 43.1012C45.1735 42.9578 43.1257 42.9372 42.1663 42.9977C42.0598 41.5786 42.0699 40.2979 42.0882 38.8727C43.4041 38.8625 44.9535 38.7787 46.2122 38.7936Z" fill="#696565"/>
<path fill-rule="evenodd" clip-rule="evenodd" d="M44.5358 28.6422C43.9197 28.5894 41.9077 28.4881 41.4157 28.8268C40.9046 29.5641 40.7715 34.0109 41.3307 34.6354C41.7405 34.8696 42.9405 34.7973 43.4645 34.7936C44.4369 34.7943 45.8022 34.8545 46.7448 34.6706C46.8006 34.6597 46.9595 34.5898 46.987 34.528C47.3358 33.7411 47.1613 29.7373 46.9196 29.0543C46.5275 28.6474 45.1389 28.6715 44.5358 28.6422ZM46.3053 29.485C46.1696 30.5899 46.2259 32.5915 46.233 33.736C44.8264 33.6745 43.6147 33.6358 42.2038 33.6491C42.1588 32.2965 42.0929 30.8303 42.1666 29.486C43.6423 29.5858 44.8418 29.4957 46.3053 29.485Z" fill="#696565"/>
<path fill-rule="evenodd" clip-rule="evenodd" d="M33.2983 28.0406C32.6659 28.0189 30.5277 27.8712 30.2651 28.2301C29.7166 28.9842 29.796 33.3379 30.2651 33.9947C30.6428 34.2452 31.9945 34.1766 32.4965 34.1822C33.0056 34.1744 35.812 34.3455 35.9096 33.9068C36.2092 32.5354 36.1241 29.676 35.8422 28.3356C34.9111 28.0623 34.2612 28.0767 33.2983 28.0406ZM35.1723 28.9713C35.3182 29.8974 35.0676 32.0997 35.1303 33.1666C34.1478 33.0654 32.2193 33.0339 31.2026 33.0387C30.9436 32.7488 31.0913 29.6165 31.0688 28.9918C32.3767 29.0616 33.8155 28.9497 35.1723 28.9713Z" fill="#696565"/>
<path fill-rule="evenodd" clip-rule="evenodd" d="M31.9093 19.3271C30.6047 19.251 30.0631 19.1955 30.0294 20.7832C30.0012 22.1136 29.8406 24.1542 30.3419 25.3652C31.2412 25.4585 33.2285 25.4056 34.2032 25.4062C34.7728 25.4064 35.343 25.3977 35.9122 25.3799C36.1743 24.4859 36.4015 20.3485 35.8019 19.6475C35.1736 19.2944 32.777 19.3453 31.9093 19.3271ZM35.2941 20.1074C35.2792 21.4869 35.2786 23.1392 35.1476 24.5029C34.2453 24.3562 32.2721 24.3519 31.2794 24.3291C31.1061 24.0824 31.1777 20.8336 31.1886 20.2676C32.0007 20.2727 34.5433 20.2307 35.2941 20.1074Z" fill="#696565"/>
<path fill-rule="evenodd" clip-rule="evenodd" d="M22.251 19.441C21.1314 19.397 20.1848 19.3308 19.0909 19.5758C18.9167 20.7147 18.6104 24.3526 19.1739 25.2526C19.4952 25.5384 21.0345 25.4707 21.5596 25.4762C22.6768 25.5191 23.7439 25.4779 24.8594 25.4303C25.1146 23.8723 25.2472 21.1226 24.711 19.651C24.0011 19.4807 22.9987 19.4695 22.251 19.441ZM24.1465 20.3297C24.0423 21.6366 24.1029 23.2732 24.1544 24.5924C23.1231 24.4177 21.1892 24.4393 20.1065 24.441C20.0765 23.0753 20.0606 21.7084 20.0596 20.3424C21.0639 20.3943 23.1519 20.4387 24.1465 20.3297Z" fill="#696565"/>
<path fill-rule="evenodd" clip-rule="evenodd" d="M43.9504 19.5586C43.5648 19.5517 41.6205 19.4739 41.4299 19.6865C41.0686 20.09 41.0006 22.0669 40.9992 22.6543C40.9979 23.148 41.0105 25.1259 41.3146 25.4004C41.5963 25.6542 43.3096 25.5818 43.7639 25.5791C44.6559 25.588 46.2486 25.6547 47.0773 25.4697C47.2293 24.4929 47.2989 20.5589 46.8293 19.8428C46.4625 19.5645 44.9293 19.5912 44.3752 19.5742C44.2338 19.5663 44.092 19.5612 43.9504 19.5586ZM46.3097 20.4131C46.2877 21.7265 46.221 23.435 46.2717 24.7119C45.2265 24.5531 43.2967 24.5757 42.2199 24.5703C42.1322 23.7219 42.1297 21.4435 42.1418 20.5342C43.4491 20.5085 45.0256 20.5168 46.3097 20.4131Z" fill="#696565"/>
<path fill-rule="evenodd" clip-rule="evenodd" d="M27.9493 10.463C24.5901 10.3971 21.3254 10.318 17.9571 10.4347C17.2079 10.4607 12.6739 10.1733 12.1504 10.7521C11.5455 11.4238 11.3423 14.5345 12.1172 15.298C12.6224 15.7948 13.361 15.7335 14.0293 15.7609C14.1236 18.2565 13.9123 20.298 13.8975 22.7267L13.6446 43.2365C13.6109 46.9172 13.6128 50.5998 13.6504 54.2804C13.677 56.1319 13.85 57.8318 13.7676 59.6945C12.7081 59.7185 11.1369 59.7138 10.128 59.8439C9.42669 60.8819 9.79782 61.3566 10.9991 61.4113C17.753 61.7192 24.6098 61.2102 31.3575 61.4953C36.8157 61.5834 42.2756 61.5718 47.7334 61.4611C49.9999 61.4216 52.2729 61.4782 54.5362 61.3576C54.981 61.3338 55.9135 61.2133 55.4541 60.5509C54.9067 60.3283 52.2178 60.2743 51.375 60.215C51.8697 59.2939 51.7556 55.9854 51.7998 54.673C52.0459 47.1063 52.1267 39.5332 52.043 31.963C51.9782 26.5354 51.798 21.0087 51.6788 15.5705C52.8003 15.6058 53.9482 15.8894 53.9649 14.339C53.9746 13.3807 54.1811 11.9095 53.6543 11.0343C53.581 10.9151 52.8506 10.8174 52.6817 10.8097C48.1807 10.6294 43.6838 10.6737 39.1817 10.4914C37.3673 10.4179 35.5339 10.5003 33.712 10.425C31.769 10.4123 29.8528 10.4771 27.9493 10.463ZM50.8018 15.7316C50.7926 17.7771 50.502 19.8253 50.5372 21.8712C50.5892 24.9057 50.3874 28.0134 50.4532 31.0363C50.5414 35.0963 50.3689 39.0784 50.3125 43.1339C50.2704 47.191 50.2897 51.2504 50.3711 55.3068C50.3875 56.4052 50.2651 59.3877 50.6407 60.1808C47.9129 60.2262 45.1409 60.0573 42.4043 60.09C41.7064 60.0983 40.9584 60.0261 40.2598 60.0353C40.3241 57.5788 40.3184 53.0285 40.045 50.633C40.5593 50.6472 41.4094 50.7368 41.8164 50.4757C42.2802 49.8837 41.9136 47.7057 41.7432 46.9376C41.4618 46.8362 41.2194 46.7628 40.918 46.7433C39.0786 46.6245 37.2215 46.6754 35.3819 46.591C32.9585 46.4722 30.5339 46.4632 28.1104 46.3459C27.2141 46.3025 26.3151 46.3246 25.419 46.3556C24.8165 46.3765 24.6498 46.5226 24.2705 46.964C24.0821 47.6975 23.6666 49.5147 24.0674 50.2228C24.2983 50.6262 25.4288 50.5941 25.9034 50.6613C25.8529 51.2073 25.796 51.9114 25.7188 52.4523C25.4672 54.8785 25.3974 57.3223 25.5098 59.7589L20.6729 59.7628C18.7903 59.7767 17.0452 59.8174 15.1553 59.7052C15.3528 54.9896 15.3007 49.8929 15.3057 45.1574L15.1495 15.7687L38.1875 15.7609C42.3106 15.7678 46.6779 16.0071 50.8018 15.7316ZM39.2051 50.6554C39.1176 53.7501 38.9996 56.9127 39.1231 60.0011C37.081 60.0051 35.6127 59.9852 33.5733 59.8615C33.6642 57.6545 33.554 55.3726 33.5977 53.1574C33.6128 52.3897 33.4981 51.5464 33.4805 50.7707C35.2553 50.724 37.4836 50.7532 39.2051 50.6554ZM26.8477 50.6496C28.1205 50.6839 29.5048 50.5997 30.7149 50.6671C31.3267 50.6905 31.9387 50.7081 32.5508 50.7199C32.5249 51.9962 32.3787 53.2625 32.3575 54.5392C32.3278 56.3185 32.349 58.1124 32.3555 59.8927C31.1509 59.7794 29.8118 59.8171 28.5938 59.8293L27.0567 59.8488C27.0681 57.2821 27.0741 54.7189 26.9034 52.1564C26.8702 51.6598 26.8582 51.1475 26.8477 50.6496ZM41.0098 47.5148C40.9835 48.226 40.9796 48.9382 40.9981 49.6496C35.9972 49.2502 30.9802 49.0859 25.9639 49.1564C25.6739 49.1905 25.6878 49.238 25.4893 49.1154C25.3422 48.7465 25.5164 48.2732 25.6114 47.8664C26.319 47.7406 26.8763 47.7405 27.5889 47.7404C32.0591 47.7398 36.5503 47.8621 41.0098 47.5148ZM49.0293 11.7472C50.4097 11.7078 51.5905 11.6098 52.9903 11.6632C52.9432 12.6349 52.8596 13.7889 52.8653 14.7462C39.8598 14.1731 26.8405 13.9663 13.8233 14.1261C13.6123 14.1273 13.3404 14.1599 13.1856 14.046C13.0725 13.5979 13.1515 12.3923 13.1739 11.8693C16.1831 11.9858 19.2006 11.8272 22.211 11.8996C22.8456 11.9148 23.5011 11.8984 24.1377 11.8996C30.2635 11.9336 36.3899 11.9277 42.5157 11.882C44.6872 11.8531 46.8585 11.8083 49.0293 11.7472Z" fill="#696565"/>
</svg>
