<svg width="88" height="88" viewBox="0 0 88 88" fill="none" xmlns="http://www.w3.org/2000/svg">
<path d="M6.81608 33.5452C6.50025 32.7444 5.38365 31.4056 5.42288 30.9553C7.09872 30.2234 10.8547 39.4643 11.2901 40.8132C13.5267 47.7424 15.0496 54.8559 14.6605 62.1763C14.6146 63.0398 14.3735 66.3387 13.6214 66.7989L13.3869 66.784C13.0858 66.3748 13.6624 64.9686 13.1919 63.9181C13.2537 63.8545 13.396 63.7667 13.4756 63.7127C13.8694 61.8752 13.5348 58.6272 13.3663 56.7543C13.0545 53.2871 12.4393 50.0085 11.5468 46.6435C10.441 42.4739 9.33076 38.0421 7.20324 34.2575C6.89494 36.8673 7.05328 39.5696 7.14951 42.1794C7.32677 46.9892 8.1933 51.779 9.95714 56.2716C10.832 58.4998 12.0358 60.8225 13.0806 63.008C12.972 63.1191 12.9226 63.1978 12.7713 63.2188C8.37668 56.1716 6.53739 49.9419 6.23855 41.5831C6.15046 39.1199 6.20334 36.1342 6.76389 33.744C6.77963 33.6773 6.79708 33.611 6.81608 33.5452Z" fill="#696565"/>
<path d="M13.0828 62.9922C13.2268 63.3228 13.2623 63.4084 13.4778 63.6969C13.3982 63.7509 13.2558 63.8386 13.194 63.9023L12.7734 63.2029C12.9247 63.182 12.9741 63.1033 13.0828 62.9922Z" fill="#696565"/>
<path d="M10.7399 25.2157C23.0202 19.2563 36.6294 16.7975 50.2233 17.369C50.8644 17.396 53.121 17.3818 53.5505 17.6346C53.6017 17.9485 53.6204 17.8284 53.5026 18.1004C52.9487 18.6285 49.4334 18.2942 48.4548 18.3934C45.9424 18.6481 43.3853 18.7044 40.864 18.8866C34.941 19.2683 29.074 20.2671 23.3581 21.8661C21.391 22.4182 19.0577 23.2282 17.0915 23.8778C15.205 24.5128 13.3256 25.1683 11.4528 25.8426C10.9745 26.0159 9.081 26.7717 8.72237 26.8358C7.10624 27.1245 4.66767 26.0885 2.94405 26.495C2.30995 26.6445 2.01113 27.0397 1.70577 27.577C1.61566 29.8408 3.32205 31.7531 3.66866 33.8299C3.74416 35.0077 3.75246 36.3413 3.72432 37.5174C3.5307 45.6159 4.98164 53.5827 8.3171 60.9813C9.01747 62.5348 9.78584 64.1396 10.3933 65.7557C11.0612 67.5332 10.263 69.5716 10.9675 71.3465C12.1365 73.908 16.1778 70.3141 17.7487 69.5809L17.8308 69.5428C17.9814 69.7127 17.9995 69.7414 18.1882 69.8612L18.0739 70.0438L18.1023 70.118C20.6451 69.1485 25.0655 69.3826 27.8122 69.2225C29.1766 69.1824 30.596 68.954 31.9548 68.9247C41.2232 68.7242 49.8282 66.7264 58.4069 63.1366C59.7483 62.5704 61.0828 61.9874 62.4099 61.3885C63.4037 60.9283 63.9713 60.6138 65.323 60.0965C67.3916 59.3498 71.706 60.4245 73.1335 58.6034C73.713 57.864 71.1065 54.8444 70.863 53.9579C69.8107 49.9512 70.2814 45.3993 69.8503 41.2811C69.3269 36.2813 68.166 31.8159 66.1003 27.2479C65.7798 26.5391 65.0544 25.1736 65.3327 24.4549C65.5316 24.2754 65.4332 24.3132 65.7038 24.3163C66.3435 24.8515 67.1132 26.765 67.4841 27.5809C69.8327 32.7483 71.3149 38.3804 71.4685 44.0692C71.5057 45.7051 71.58 47.3154 71.6071 48.954C71.7219 50.0179 71.3609 52.1092 71.6423 53.0809C72.1564 54.8556 74.8105 56.3122 74.612 58.536C74.5593 59.1661 74.2596 59.7502 73.778 60.16C71.9378 61.6981 68.2653 60.785 66.198 61.1756C65.253 61.5007 64.3022 62.1846 63.4138 62.6083C57.9282 65.2233 51.8478 67.5402 45.8942 68.8231C37.5827 70.614 28.7132 70.8122 20.2321 70.6903C19.4088 70.6784 18.6356 70.8827 17.7605 70.8065C15.959 71.975 14.005 74.1754 11.5017 73.5956C8.07191 72.8007 9.87765 67.8408 9.13839 65.7274C8.48998 64.2565 7.51106 62.8082 6.85909 61.3377C3.61201 54.0136 1.99861 46.2237 2.47921 38.2059C2.52458 37.4492 2.62125 34.6944 2.48311 34.0965C2.0182 32.0857 -0.241029 29.4762 0.40401 27.1834C0.604921 26.4576 1.09231 25.8438 1.7546 25.4852C3.60854 24.5027 6.99682 25.5736 8.88057 26.1629C9.48889 25.9261 10.136 25.5089 10.7399 25.2157ZM69.8122 4.77622C71.9605 4.34094 72.8236 6.46883 71.5476 8.10337C70.6706 9.40537 70.0364 10.5348 69.1501 11.6737C70.0208 13.3013 70.5457 14.7101 69.986 16.5965C69.61 17.9094 68.7086 19.0091 67.4948 19.6346C66.8888 19.9516 66.2406 20.1406 65.572 20.2733C65.469 20.9177 65.28 21.5198 65.113 22.1473C64.328 25.0962 63.2415 27.957 62.5017 30.9168C63.0914 31.3782 64.481 32.1728 64.7575 32.6278C64.76 32.8993 64.7799 32.7915 64.6286 33.0565C63.9217 33.4649 62.7066 32.3889 62.1482 31.9354C60.7496 36.277 59.5915 40.556 58.113 44.8631C58.3449 45.154 58.5225 45.0695 58.7761 45.3045C59.6118 45.9961 58.5423 48.9462 57.3571 49.1073H57.3552C58.5402 48.9456 59.6096 45.9961 58.7741 45.3045L58.6687 45.3846L58.5915 45.3329C58.4295 45.4277 58.4135 45.4294 58.3142 45.5829L58.1638 45.6053C58.1635 45.6041 58.1641 45.6027 58.1638 45.6014L58.0251 45.4842C57.7263 45.598 57.3639 46.5304 57.1169 47.3026C57.3638 46.5317 57.7251 45.6041 58.0232 45.4901L58.1628 45.6063L58.1638 45.6053C58.3309 46.3513 57.7319 48.513 56.8474 48.2518C56.8469 48.2538 56.8468 48.2558 56.8464 48.2577C56.7689 48.5119 56.7813 48.7565 56.6442 48.8309L56.6452 48.8319C56.4013 49.2168 56.3887 49.4002 56.0466 49.8329C55.3775 50.6792 54.4455 51.1174 53.7741 51.9334C53.4108 52.3751 53.2778 53.1492 52.9079 53.6307C51.3277 55.687 49.4751 57.7335 47.1374 58.8905C42.6132 61.1297 38.1328 61.486 33.3542 59.9061C29.2213 58.5396 25.6689 56.0996 23.7214 52.1229C21.3639 47.3089 20.7306 43.2775 22.4001 38.1278C24.1032 32.8751 27.2996 30.1089 32.0632 27.5995C34.1924 26.4778 37.0381 25.7257 39.3962 26.5155C37.0004 27.0541 35.5592 26.9415 33.1247 28.1229C24.2393 32.435 20.1445 41.8829 24.5466 51.0448C26.3418 54.7809 29.55 57.1887 33.486 58.5545C37.6557 60.0014 42.0497 59.8038 46.0749 57.9315C48.5908 56.726 50.0517 55.1551 51.2546 52.662C51.8187 51.4924 51.5142 50.4978 51.8669 49.3221C52.1371 48.4215 52.6749 47.1553 52.9685 46.2713L58.5417 29.5711C57.7867 29.1357 57.2514 28.7886 56.5944 28.2225C56.1854 28.7975 54.5241 31.122 53.7038 29.3231C53.3878 28.6288 54.0525 27.3457 54.4099 26.6737C53.8401 26.2848 53.4942 26.0307 53.0564 25.5008C50.2147 27.8676 47.2516 29.9975 44.3767 32.3299C41.6983 34.5028 39.0464 36.6912 36.4177 38.9256C36.0154 39.2676 35.5234 39.5482 35.0222 39.7147C34.7032 39.7326 34.4659 39.9054 34.1872 40.0672L33.7956 40.3631C33.1353 41.0096 31.9901 42.2188 31.0515 42.2645C30.0288 41.59 33.3212 38.6007 33.5974 37.9139C34.2639 36.2552 33.9518 35.5328 35.404 34.2303C35.1652 34.0502 34.9687 33.9356 34.9314 33.62C34.7717 32.2715 36.099 30.8675 37.3942 30.7049C37.9713 30.6326 38.3905 30.7745 38.7692 31.2049C40.8378 29.5209 42.9326 27.8688 45.0524 26.2499C46.2754 25.3225 47.4733 24.3664 48.7214 23.4745C48.9068 23.342 49.1092 23.208 49.281 23.0604C48.7483 22.7387 47.1782 21.6802 47.153 21.0545C47.5952 20.5184 48.3285 21.1461 48.739 21.4364C49.1979 21.761 49.6567 22.0892 50.1384 22.3797C51.0604 21.7006 51.9531 21.0492 52.8454 20.3299C54.6259 18.8945 56.9085 16.8324 58.8552 15.6971C58.4121 12.6859 60.1987 9.84976 63.3103 9.42661C64.293 9.29302 65.0478 9.36908 65.9509 9.77134C66.5525 8.62752 68.4028 5.06188 69.8122 4.77622ZM34.2448 34.9295C34.2272 35.1267 33.8115 35.3907 33.6384 35.6668C32.9922 36.6969 32.1497 37.7981 31.5437 38.8348C30.9739 39.8284 30.5534 40.9004 30.2956 42.0165C29.7893 44.1627 30.1791 46.4232 31.3747 48.2762C35.1165 54.16 44.3071 53.4565 45.7927 46.3133C46.0585 45.0694 45.8115 43.7706 45.1081 42.7108C44.4207 41.6568 43.5559 40.6313 42.2487 40.367C40.3605 39.9632 37.617 41.1042 37.2761 43.202C37.0674 44.4864 37.4812 45.167 38.5632 45.8309C39.8714 46.6335 41.2185 45.0186 41.5671 45.0692C42.5492 46.3238 39.935 48.4624 37.1989 46.4706C32.9663 42.5972 39.627 37.2395 43.7253 39.5125C47.1931 41.4364 48.202 45.534 46.3259 48.9842C44.4781 52.382 40.3464 54.154 36.5788 53.3338C33.1374 52.5813 30.32 50.0668 29.2751 46.7C28.4713 44.1566 28.7076 41.3979 29.9323 39.0282C30.8404 37.3084 32.3293 35.519 34.2448 34.9295ZM62.1442 19.9061C61.7112 22.0908 61.3323 24.2327 60.6648 26.3641C58.8275 32.2296 56.7196 38.0096 54.8767 43.8768C54.6048 44.7424 52.5493 50.2184 52.6286 50.7538C53.0865 51.2737 54.1598 50.4366 54.5368 50.0975C56.0899 48.6183 56.4012 46.599 57.0114 44.6209L59.4733 36.3817C59.807 35.267 60.2377 34.1079 60.6052 32.993L62.9284 25.9999C63.5584 24.1471 64.1171 22.2583 64.7439 20.4295C63.6995 20.3919 63.1402 20.2588 62.1442 19.9061ZM56.6989 48.8778C56.9104 49.0671 57.1285 49.1326 57.3435 49.1073C57.1277 49.1334 56.9082 49.0687 56.696 48.8788L56.6452 48.8319L56.6462 48.8309L56.6989 48.8778ZM57.0114 47.6395C56.9651 47.7958 56.9273 47.9373 56.8972 48.0526C56.9018 48.035 56.9058 48.0167 56.9108 47.9979L57.0114 47.6395ZM45.1335 33.0506C45.4724 33.0171 46.2008 33.1867 46.5485 33.3084C49.1267 34.2195 51.2979 35.9522 52.6325 38.3475C53.1051 39.1958 53.8353 42.4572 52.8024 42.8758L52.6569 42.7938C52.2058 39.1399 49.4777 35.6241 45.9382 34.4901C45.4928 34.3474 44.231 33.9808 44.3337 33.4256C44.5327 33.1967 44.8357 33.1421 45.1335 33.0506ZM58.9714 16.367C57.586 17.7519 55.5384 19.3866 53.9968 20.6385C51.8108 22.4422 49.5868 24.2005 47.3278 25.912C43.5208 28.7841 39.6069 31.5607 36.0339 34.7245C35.5603 35.1439 34.612 37.8322 34.988 38.3709C35.4028 38.3796 35.6039 38.1395 35.9245 37.8592C36.7108 37.2201 37.5203 36.603 38.2966 35.9491C39.3849 35.0323 40.3885 34.0063 41.5144 33.1307C47.5575 28.4309 53.562 23.6408 59.7448 19.1278C59.9771 18.9582 60.2275 18.7783 60.4724 18.6317C60.0301 18.131 59.7376 17.76 59.4128 17.1717C59.3594 17.075 59.0131 16.4199 58.9714 16.367ZM38.195 31.5057C37.9698 31.4909 37.8675 31.4826 37.6442 31.5086C36.8568 31.7637 35.7677 32.3471 35.8288 33.3309L35.9206 33.4032C36.0432 33.3638 36.0632 33.3693 36.1677 33.2948C36.7025 32.8632 37.7725 32.0478 38.2175 31.5897L38.195 31.5057ZM57.0222 25.3436C56.4638 25.7547 54.673 28.0405 54.6892 28.6561C54.7421 28.6824 54.8155 28.725 54.8689 28.7381C55.2764 28.36 57.1178 25.9188 57.1579 25.453L57.0222 25.3436ZM60.7107 18.9061C59.068 20.7216 55.5539 23.4856 53.4802 24.9413C54.0177 25.2517 54.472 25.515 54.9245 25.9559C55.5789 25.2347 56.6148 23.9308 57.7107 24.5467C58.3509 25.413 57.6855 26.614 57.154 27.3924C57.6542 27.7098 58.4054 28.2292 58.8444 28.6278C59.9567 25.5888 60.6705 22.6353 61.6921 19.6473C61.4408 19.4415 60.9821 19.0388 60.7107 18.9061ZM66.3337 10.8534C65.6199 10.3896 64.8966 10.2129 64.0983 10.3504C57.4807 11.4366 59.5735 19.5001 65.0085 19.2459C65.9595 19.0617 67.0203 18.7182 67.6755 18.0321C69.9834 15.6147 68.8758 12.5056 66.3337 10.8534ZM64.2273 12.6649C65.4192 12.5185 66.5055 13.3616 66.6599 14.5526C66.8142 15.7437 65.9788 16.8366 64.7888 16.9989C63.5875 17.1625 62.4826 16.3164 62.3269 15.1141C62.1711 13.9119 63.024 12.8128 64.2273 12.6649ZM64.5046 13.4413C64.3263 13.3974 64.006 13.4005 63.82 13.4208C62.61 14.3777 62.7863 16.2632 64.5876 16.0477C65.3297 15.6451 65.712 14.7994 65.2761 14.0282C65.1127 13.733 64.8326 13.5202 64.5046 13.4413ZM70.0769 5.36509C68.6804 6.28613 67.5756 8.68829 66.3649 10.0028C66.9126 10.2356 67.5999 10.5016 68.0661 10.8631C68.2226 11.0218 68.3464 11.1884 68.5534 11.2381C68.6333 11.1533 68.8623 10.805 68.8933 10.6874C69.16 9.67612 73.0173 5.18255 70.0769 5.36509Z" fill="#696565"/>
<path d="M17.8301 69.548C18.3442 69.3662 18.5405 69.3202 19.0707 69.2188C18.7482 69.491 18.5624 69.6591 18.1872 69.8663C17.9986 69.7465 17.9807 69.7179 17.8301 69.548Z" fill="#696565"/>
</svg>
