<svg width="64" height="64" viewBox="0 0 64 64" fill="none" xmlns="http://www.w3.org/2000/svg">
<path fill-rule="evenodd" clip-rule="evenodd" d="M47.4346 13.4492C47.5576 13.4425 47.7369 13.4375 47.8008 13.541C48.2641 14.2858 48.2721 15.9084 48.2442 16.7256C52.1572 16.4326 51.4793 16.7673 51.5557 20.3389C52.3065 20.3132 53.0046 20.3379 53.7256 20.5449C53.9373 21.0833 54.0193 21.887 53.9952 22.4658C54.5335 22.5179 56.1898 22.6516 56.3038 22.9883C56.8571 24.6236 56.684 28.8211 56.7256 30.4365C56.8424 34.9396 56.9145 39.0798 56.8829 43.5244C56.8599 46.8248 56.5891 50.021 56.5059 53.251C55.3564 53.7955 53.9813 53.6082 52.7256 53.5986C51.5025 53.5974 50.2793 53.6081 49.0567 53.6309L40.3008 53.7344C38.8024 53.7452 37.3126 53.9259 35.8272 53.6729C34.3696 54.648 34.019 54.8425 32.2335 55.083C30.4727 55.3203 29.1107 53.9135 28.0215 53.8555C25.6955 53.7514 23.3662 53.723 21.0381 53.7715C17.3862 53.875 14.1841 54.1149 10.4903 54.0156C9.75511 53.9791 9.0008 54.0338 8.26666 53.9668C7.72184 53.9171 7.20036 53.8243 7.20123 53.1895C7.20544 50.0818 6.91482 46.9461 6.84674 43.8506C6.77154 38.8468 6.78852 33.8412 6.8985 28.8379C6.93308 27.3381 6.91663 25.8668 6.93072 24.3701C6.93228 24.2052 6.98775 23.6057 7.10065 23.501C7.56416 23.071 9.02401 22.8893 9.63483 22.8633C9.64557 22.0652 9.68254 21.1885 9.81451 20.4023C10.7917 20.1341 11.5582 20.1224 12.5547 20.1885C12.5374 19.6979 12.4533 17.1834 12.8321 16.9873C13.7981 16.489 16.3146 16.7554 17.3663 16.9004C22.4266 17.5983 28.7502 20.2001 31.9268 24.1484C33.9185 20.8947 37.4273 17.5418 40.876 15.7314C42.4252 14.9183 45.7379 13.5407 47.4346 13.4492ZM54.085 23.3613C54.3297 27.6546 54.0916 32.0486 54.1133 36.3389L54.1817 42.9873C54.1972 43.8771 54.3933 49.032 53.8692 49.4844C53.657 49.5459 53.3674 49.5828 53.1514 49.5596C47.1215 48.9086 40.8532 49.4837 35.377 52.1475C34.297 52.6728 33.4314 52.8009 32.4317 53.5996C32.3724 53.6215 32.322 53.6259 32.2706 53.6221L32.1046 53.5967L31.0753 53.2461C25.9419 51.5259 20.9463 50.3366 15.4005 50.7803C13.6446 50.9209 11.552 51.529 9.92584 51.5439C9.56683 42.2117 9.45199 32.8713 9.58209 23.5332C9.11506 23.659 8.22892 23.8667 7.75104 23.9199C7.82394 25.5926 7.81365 27.248 7.89362 28.9189C8.08439 32.9034 7.87363 36.9383 7.96881 40.9229L8.21002 49.002C8.2343 50.0052 8.32562 52.0855 8.20221 52.957C9.50747 53.0306 10.7764 52.9909 12.0831 52.9688C15.0541 52.9185 18.0323 52.8381 21.003 52.7812C23.4441 52.7346 25.8754 52.5374 28.3253 52.748C29.5543 52.8236 29.9267 53.6009 31.4669 53.7744C31.4685 53.7742 31.4702 53.7736 31.4717 53.7734C31.7338 53.7978 32.0181 53.8094 32.2911 53.7969L32.5606 53.7764C33.9973 53.6507 34.6532 52.8763 35.9922 52.7871C39.0642 52.5831 42.1393 52.5887 45.2159 52.5869C47.0732 52.5857 48.8932 52.4285 50.7344 52.3818C52.2768 52.343 53.9408 52.3994 55.4913 52.4287C55.4162 51.2273 55.5309 50.053 55.5626 48.8564C55.7165 43.0843 55.3893 37.2465 55.4893 31.4854C55.5092 29.8631 55.5398 28.241 55.5801 26.6191C55.6037 25.707 55.6858 24.4345 55.6231 23.5518C55.109 23.4974 54.596 23.4344 54.085 23.3613ZM13.293 17.4053C13.4724 21.3662 13.3752 25.415 13.4346 29.3838C13.4837 32.6512 13.4222 35.9313 13.3965 39.1992C13.3775 41.631 13.429 44.0321 13.3536 46.4668L13.293 46.5137V46.5146L13.3536 46.4678L13.4835 46.541C14.6633 46.4004 16.3498 46.5694 17.5245 46.6777C22.5041 47.1373 27.6028 48.8654 31.4454 52.0098C31.3426 51.2888 31.3606 50.2786 31.3409 49.5361C31.2864 47.4779 31.3688 45.4083 31.3702 43.3506C31.3135 37.2081 31.34 31.0647 31.4493 24.9229C30.9964 24.6504 30.3329 23.9193 29.878 23.5684C29.0743 22.9484 28.2125 22.3859 27.3897 21.8008C26.6216 21.2545 25.8997 20.9404 25.0899 20.5156C22.3834 19.0959 19.6141 18.3934 16.6036 17.9111C15.4539 17.7269 14.4939 17.5251 13.293 17.4053ZM51.5958 20.7236C51.6746 23.7423 51.6909 26.7621 51.6456 29.7812C51.6288 31.2779 51.5212 32.8071 51.5547 34.2988C51.6156 37.0097 51.9912 39.7899 51.8428 42.5C51.7472 42.9451 51.6533 44.6718 51.3077 44.8906C50.3812 45.474 48.9308 45.5483 47.8614 45.7715C46.0114 46.1532 44.1863 46.6416 42.3965 47.2334C40.7007 47.8101 37.4197 49.5215 35.7764 50.7266L35.4708 50.959C35.1961 51.1152 34.93 51.3667 34.6905 51.5762C35.0634 51.4027 35.3396 51.2855 35.6768 51.0469L35.6778 51.0479C36.4801 50.5997 37.2321 50.3664 38.0831 50.0547C41.6592 48.7456 45.2518 48.2143 49.0733 48.334C50.5618 48.3807 51.5632 48.3673 53.1163 48.5713C53.1753 46.3873 53.0746 44.0409 53.0069 41.8516C52.7914 34.8773 53.408 27.8013 53.254 20.8525C52.6958 20.739 52.1614 20.734 51.5958 20.7236ZM47.0665 14.2588C45.458 15.1827 43.5929 15.5101 41.96 16.4854C40.3506 17.4466 38.6972 18.3182 37.2637 19.5391C36.0521 20.533 35.0281 21.7656 33.9053 22.8389C33.2392 23.4756 32.6761 24.4397 32.0606 24.999C32.4263 26.8677 32.3482 30.1009 32.4112 32.083C32.5647 36.9108 32.5414 41.7675 32.587 46.5967C32.5924 47.1679 32.4333 51.0665 32.4903 51.208C33.0492 50.5278 33.4842 49.7308 34.0284 49.1074C36.4568 46.3275 39.1254 44.0359 42.4385 42.2891C44.52 41.1918 45.1683 40.7278 47.5176 40.2275C47.1408 39.228 47.4123 36.6124 47.3292 35.5391C47.1795 33.5923 47.0966 30.6375 47.0264 28.8418C46.9601 27.1485 47.3062 14.6556 47.0665 14.2588ZM12.4903 20.9775C11.768 21.0398 10.9982 21.0496 10.2696 21.0703C10.3267 22.0035 10.3224 22.9527 10.3409 23.8887C10.4543 29.6354 10.7315 35.3594 10.6299 41.1123C10.5737 44.3045 10.9376 47.6436 10.6661 50.8232C17.7406 49.2292 20.6984 49.2987 27.7227 51.0596C27.2959 50.5546 23.6206 49.1057 22.7881 48.8477C20.5726 48.1596 17.9872 47.7685 15.6612 47.5059C15.1703 47.4484 13.0117 47.4005 12.8116 47.2217C12.7207 47.0707 12.6681 46.912 12.6309 46.748L12.5411 46.2422L12.4854 45.9893C12.2296 44.6432 12.291 42.0856 12.2637 40.7695C12.1602 35.7734 12.4249 30.7323 12.4258 25.7285C12.4262 24.1871 12.5283 22.4862 12.4903 20.9775ZM35.4708 50.959L35.6768 51.0469L35.4708 50.96V50.959ZM50.6866 17.4463C49.8769 17.4025 49.0644 17.4147 48.2559 17.4844C48.3168 18.6333 48.4021 19.8387 48.3897 20.9873C48.4201 24.1808 48.0914 27.5351 48.3038 30.7148C48.5366 34.1948 48.5058 37.3951 48.4356 40.874C43.5655 42.7994 40.1392 44.6344 36.587 48.1816L35.8741 48.9141L34.9122 49.9346C35.1716 49.806 35.4997 49.6573 35.7256 49.4893C35.7274 49.3724 35.7442 49.2821 35.7706 49.1943V49.1953C35.7444 49.2829 35.7283 49.3727 35.7266 49.4893C39.6847 46.6161 45.0909 44.9018 50.0098 44.2783C50.2625 44.2466 50.5669 44.2405 50.8253 44.2285C50.7998 40.9635 50.5642 37.8827 50.4307 34.6348C50.3804 33.4049 50.4933 31.7629 50.5225 30.4932L50.6085 24.8213C50.6569 22.4345 50.5891 19.7995 50.6866 17.4463ZM12.8419 47.0527V47.0537V47.0527ZM17.1221 40.7891C18.9059 40.6461 21.6982 41.4855 23.3389 42.1143C24.2923 42.4796 28.5554 44.2836 28.627 45.3828C28.4241 45.7813 28.177 45.6394 27.8536 45.5107C25.1198 43.8158 22.2643 42.6193 19.1036 41.8281C18.47 41.6696 16.2618 41.4307 16.0196 41.3359C15.9509 41.1777 15.955 41.2564 16.0118 41.0898C16.2915 40.8414 16.7459 40.831 17.1221 40.7891ZM43.5274 36.8223C43.8703 36.7742 44.3203 36.7848 44.5596 37.0527C44.4817 37.7827 41.8683 38.3479 41.1915 38.7373C38.9415 40.0326 37.1092 41.4301 35.2676 43.2285L34.6114 43.7998C34.836 42.427 35.3148 42.039 36.3262 41.1055C38.3693 39.1835 40.8285 37.7207 43.5274 36.8223ZM17.3194 36.3486C18.0297 36.3362 19.1979 36.5573 19.9073 36.7715C22.0147 37.4079 24.1888 38.2067 26.2227 39.0371C26.7293 39.244 27.8387 40.0662 28.0997 40.5117C27.0977 40.3577 26.5232 39.8616 25.6514 39.4219C25.0541 39.1205 24.4342 38.8377 23.8145 38.5801C21.8124 37.7478 19.2037 37.3923 17.3194 36.3486ZM44.3624 32.8311C43.274 33.6765 41.6959 34.1917 40.4942 34.8652L40.4932 34.8643C39.2346 35.5274 37.8889 36.675 36.7305 37.5107C36.3617 37.777 35.3949 38.8262 34.9796 38.7695C34.9137 38.6391 34.9305 38.7102 34.9639 38.5439C36.3031 37.0693 38.0643 35.5217 39.879 34.5557L40.2432 34.3701V34.3711C40.3166 34.5879 40.331 34.6717 40.4727 34.8389C40.3304 34.6712 40.3167 34.5872 40.2432 34.3701C41.6584 33.5943 42.7279 32.9836 44.3624 32.8311ZM16.876 31.5059C19.1288 31.3293 22.1851 32.3854 24.2374 33.2197C24.9062 33.4918 29.0007 35.6352 28.5782 36.4023L28.3702 36.4307C27.8177 36.1977 27.0391 35.7005 26.5225 35.3809C25.3952 34.6834 24.4057 34.0738 23.1592 33.5889C21.3697 32.8867 19.5143 32.3505 17.6192 31.9873C17.3159 31.9298 16.8135 31.831 16.5772 31.6504C16.6467 31.5313 16.6871 31.558 16.876 31.5059ZM44.0762 28.5732C44.2717 28.5705 44.3616 28.5329 44.4854 28.6299C44.0687 29.0402 42.2136 29.7893 41.5831 30.1035C38.9886 31.3966 36.9085 33.0844 34.8399 35.0527C34.6615 35.1909 34.6546 35.2046 34.4356 35.2393C34.4293 34.9881 34.5806 34.758 34.7227 34.5566C36.407 32.1703 41.1539 29.1152 44.0762 28.5732ZM16.5313 26.9531C19.6999 26.8066 23.0839 28.0653 25.8214 29.5C26.4346 29.8214 29.2967 31.301 28.295 32.1768C27.7345 31.8825 27.1236 31.2431 26.6192 30.9648C25.1508 30.1382 23.6317 29.3911 22.0528 28.79C20.2735 28.1126 18.5852 27.8015 16.7227 27.4521C16.5384 27.4176 16.4644 27.3809 16.3438 27.249C16.3809 27.0501 16.3588 27.119 16.5313 26.9531ZM44.2432 23.9834C44.3205 24.001 44.2836 23.9888 44.3497 24.0723C44.1741 24.3556 43.163 24.9053 42.8077 25.0762C40.2634 26.2997 37.8253 27.8205 35.9034 29.8613C35.5719 30.2132 35.0622 30.7991 34.6475 31.043C34.5352 30.9438 34.5446 30.9491 34.5098 30.8047C34.5618 30.5479 34.7123 30.3484 34.8799 30.1533C36.8614 27.8486 38.9022 26.2289 41.6954 24.9014C42.5513 24.4946 43.2563 24.0612 44.2432 23.9834ZM16.4571 22.291C19.1113 22.0018 23.3921 23.5965 25.7178 24.7617C26.5725 25.19 29.3621 26.9675 28.7579 27.9717C28.6285 27.9972 28.5913 27.9892 28.461 27.9834C27.8641 27.6711 27.1347 26.7146 26.4883 26.3447C24.3891 25.1433 22.2277 23.9704 19.8419 23.3906C19.2487 23.2465 16.6285 22.7602 16.3975 22.4521L16.4571 22.291ZM43.9161 19.5352C44.1701 19.5098 44.2907 19.4958 44.4786 19.6289C44.4525 20.0309 43.2261 20.4744 42.8223 20.6875C39.6484 22.3625 37.1385 24.2785 34.8399 26.9336L34.7012 27.0371C34.4805 27.0623 34.557 27.0837 34.3848 26.9863C34.3406 26.7133 34.4886 26.5199 34.6631 26.2754C36.3727 23.8809 38.7692 22.1247 41.3331 20.6514C42.1235 20.1971 43.0346 19.7144 43.9161 19.5352ZM32.8858 10.083C36.3564 9.75454 33.4746 16.6062 32.5967 17.8594C32.177 18.4585 31.5029 17.7536 31.1768 17.5234C30.5041 17.0487 29.9401 16.5615 29.3448 16.0078C28.2272 15.0182 27.4552 14.155 27.0753 12.6846C26.894 11.9829 27.0196 11.3701 27.878 11.2441C28.9578 11.0856 29.7535 12.1768 30.5079 12.707C30.6482 12.559 30.7266 12.4058 30.8018 12.2207C31.2231 11.1848 31.8127 10.5214 32.8858 10.083ZM61.3126 14.627C61.6743 14.5849 61.7604 14.592 62.046 14.8047C62.1459 14.995 62.1392 14.9006 62.0753 15.0977C61.5366 15.5066 58.2915 16.8835 57.586 17.125C57.2371 17.1549 56.9304 17.1814 56.7813 16.8447C56.8751 15.8805 60.3903 14.857 61.3126 14.627ZM33.1446 11.1406C32.5233 11.5313 32.4671 11.6829 32.1329 12.1602C31.8786 12.5236 31.338 14.6012 30.752 14.2275C29.873 13.6672 29.0784 12.7385 28.0762 12.165C28.3802 12.7151 28.735 13.4294 29.0743 13.9336C29.9719 15.2299 30.5782 15.6619 31.8174 16.6426C32.2562 15.5305 33.7037 12.4406 33.3116 11.2363C33.2094 11.1403 33.2685 11.1611 33.1446 11.1406ZM56.1182 6.94824C57.5266 7.16328 53.9272 10.9064 53.3692 11.2168C53.1301 11.1577 53.2171 11.205 53.0401 11.0264C52.7137 10.0771 55.2927 7.48698 56.1182 6.94824ZM45.3165 4.40625C45.8299 4.51564 45.9585 4.93514 45.9678 5.40723C45.997 6.88935 46.0992 8.28557 45.5186 9.69141C44.6858 9.34927 44.8333 5.03578 45.3165 4.40625Z" fill="#283E37"/>
</svg>
