<svg preserveAspectRatio="none" width="100%" height="100%" overflow="visible" style="display: block;" viewBox="0 0 56.0008 63.4607" fill="none" xmlns="http://www.w3.org/2000/svg">
<g id="vectorly-UNI-flowers">
<path id="path2174" fill-rule="evenodd" clip-rule="evenodd" d="M37.6398 3.82386C37.4909 3.95483 37.3409 4.14814 37.1677 4.38156C36.986 4.62554 36.799 4.92022 36.5963 5.25503C36.3449 5.66906 36.0724 6.14327 35.7978 6.68826C35.5644 7.15193 35.3193 7.65469 35.0796 8.21025C34.7648 8.93691 34.4427 9.72271 34.1512 10.6088C34.1079 10.8085 33.9093 10.9341 33.7108 10.8908C33.5112 10.8465 33.3844 10.649 33.4288 10.4494C33.5629 9.30765 33.7435 8.28839 33.9801 7.37478C34.1005 6.90901 34.2378 6.47919 34.3846 6.07889C34.6191 5.43567 34.8757 4.87479 35.144 4.40162C35.3816 3.98443 35.6309 3.63587 35.8717 3.35281C36.3312 2.81309 36.7716 2.48147 37.1307 2.33782C37.6261 2.13926 38.0411 2.16568 38.3474 2.38114C38.6368 2.58499 38.9389 2.96306 38.9357 3.6348C38.9315 4.30443 38.6801 5.36699 37.9968 6.8372C37.9281 7.02943 37.7169 7.12975 37.5236 7.06216C37.3314 6.9935 37.231 6.78116 37.2997 6.58893C37.5806 5.46937 37.6715 4.63291 37.6493 4.04356C37.6472 3.97491 37.6451 3.8978 37.6398 3.82386ZM37.6176 3.62531C37.6018 3.54399 37.5754 3.49855 37.531 3.52918C37.4951 3.55453 37.5732 3.60207 37.606 3.61897C37.6092 3.62108 37.6134 3.6232 37.6176 3.62531ZM37.7591 3.70453C37.7929 3.71931 37.8141 3.72035 37.8035 3.68761C37.7972 3.66754 37.7802 3.68129 37.7591 3.70453Z" fill="var(--fill-0, #283E37)"/>
<path id="path2176" fill-rule="evenodd" clip-rule="evenodd" d="M43.5437 7.90027C43.2437 7.91822 42.8867 7.96785 42.4695 8.05024C41.7059 8.20022 40.7628 8.45684 39.6369 8.84341C38.4286 9.25955 37.0207 9.79193 35.4174 10.5397C35.2389 10.639 35.0129 10.5745 34.9136 10.396C34.8143 10.2165 34.8798 9.99156 35.0583 9.89228C36.4039 9.01564 37.6058 8.30795 38.6884 7.76824C39.6812 7.27183 40.5621 6.91694 41.3236 6.66873C42.2266 6.37406 42.9712 6.23996 43.5352 6.20933C44.0665 6.18081 44.4731 6.25366 44.7509 6.36456C45.2199 6.55151 45.4691 6.8589 45.5578 7.19476C45.6518 7.55176 45.6128 8.04288 45.1639 8.53718C44.8027 8.93536 44.1246 9.43389 43.0642 9.88805C41.8791 10.395 40.2051 10.884 38.0082 11.2684C37.8096 11.3159 37.61 11.1934 37.5615 10.9949C37.5139 10.7963 37.6354 10.5968 37.8339 10.5482C39.4964 10.0264 40.8092 9.46871 41.8263 8.95645C42.591 8.572 43.1624 8.21607 43.5437 7.90027ZM43.9281 7.51472C43.9303 7.5126 43.9324 7.51157 43.9334 7.50945C43.9577 7.47671 44.0137 7.4292 43.9862 7.41652C43.925 7.38906 43.9165 7.44289 43.9281 7.51472ZM44.0644 7.86757C44.0961 7.92566 44.1299 7.96891 44.1542 7.92244C44.1753 7.88125 44.1352 7.86863 44.0644 7.86757Z" fill="var(--fill-0, #283E37)"/>
<path id="path2178" fill-rule="evenodd" clip-rule="evenodd" d="M43.2773 13.1941C43.2604 13.1888 43.2435 13.1837 43.2266 13.1773C42.7481 13.0115 42.0806 12.8425 41.1786 12.6682C40.2841 12.4939 39.2025 12.2806 37.8517 12.1147C37.6478 12.1116 37.4852 11.9426 37.4883 11.7388C37.4915 11.5349 37.6605 11.3712 37.8643 11.3754C39.2648 11.2518 40.4034 11.1853 41.3445 11.2202C42.4038 11.2592 43.1949 11.4029 43.7536 11.5761C44.3715 11.7683 44.7539 12.0345 44.9598 12.2679C45.3157 12.6692 45.3897 13.0769 45.2534 13.4519C45.1256 13.8036 44.756 14.2504 44.0219 14.4732C43.5868 14.6042 43.0196 14.7066 42.3447 14.7161C41.6444 14.7256 40.8438 14.657 39.9746 14.4827C39.7708 14.4637 39.6218 14.2831 39.6398 14.0803C39.6588 13.8765 39.8394 13.7265 40.0432 13.7455C41.3054 13.736 42.3742 13.5142 43.1252 13.2469C43.1738 13.229 43.2245 13.2121 43.2773 13.1941ZM43.7093 13.0294C43.8001 12.9798 43.8434 12.9312 43.7917 12.8826C43.7526 12.8457 43.7262 12.9565 43.7167 12.9956C43.7146 13.0051 43.7114 13.0167 43.7093 13.0294ZM43.6818 13.3082C43.6829 13.4064 43.7029 13.4699 43.7653 13.4065C43.8022 13.3674 43.761 13.3378 43.6818 13.3082Z" fill="var(--fill-0, #283E37)"/>
<path id="path2180" fill-rule="evenodd" clip-rule="evenodd" d="M38.2192 16.6159C38.1432 16.242 38.0196 15.7963 37.8189 15.2767C37.5824 14.663 37.2835 13.9617 36.8462 13.1716C36.7279 13.0047 36.7659 12.7735 36.9328 12.6552C37.0986 12.5358 37.3299 12.5749 37.4493 12.7407C38.1347 13.5001 38.6533 14.1825 39.0388 14.8014C39.2712 15.1721 39.4434 15.5185 39.5775 15.8343C39.9514 16.7109 39.9693 17.3964 39.8711 17.8041C39.7011 18.5054 39.2068 18.7959 38.6248 18.7589C38.2488 18.7346 37.6753 18.4959 37.1483 17.8041C36.8356 17.3943 36.4966 16.8197 36.1977 16.0434C35.9146 15.3115 35.6643 14.4158 35.452 13.3216C35.3918 13.1262 35.5017 12.9181 35.6971 12.859C35.8924 12.7988 36.0995 12.9087 36.1597 13.103C36.8113 14.6546 37.4905 15.7013 38.0471 16.3984C38.1031 16.4681 38.1611 16.543 38.2192 16.6159ZM38.628 17.0775C38.7061 17.1408 38.7642 17.1545 38.7864 17.0869C38.7949 17.0605 38.7357 17.0733 38.7125 17.0722C38.6882 17.0701 38.6597 17.0722 38.628 17.0775ZM38.3238 17.1778C38.2129 17.237 38.1538 17.3067 38.2594 17.3489C38.3238 17.3743 38.3365 17.2982 38.3238 17.1778Z" fill="var(--fill-0, #283E37)"/>
<path id="path2182" fill-rule="evenodd" clip-rule="evenodd" d="M28.7366 14.1641C29.0017 14.0902 29.3111 13.9814 29.6681 13.8304C30.4254 13.5114 31.3675 13.0678 32.4903 12.3644C32.6508 12.2376 32.8831 12.2641 33.0109 12.4236C33.1377 12.5841 33.1113 12.8175 32.9518 12.9443C32.3128 13.5906 31.7414 14.1145 31.207 14.536C30.7074 14.9299 30.2511 15.2192 29.8477 15.4368C29.3449 15.7083 28.9098 15.8456 28.5665 15.909C28.2306 15.9713 27.9529 15.9491 27.7395 15.8921C27.1058 15.7221 26.7826 15.2911 26.8059 14.687C26.8196 14.3448 26.9706 13.8494 27.4311 13.3361C27.7385 12.9928 28.1715 12.6021 28.7672 12.2176C29.3502 11.8406 30.0674 11.4634 30.9472 11.0938C31.1246 10.9945 31.3506 11.0579 31.451 11.2364C31.5503 11.4149 31.4869 11.6409 31.3084 11.7402C30.0114 12.6538 29.1971 13.5093 28.7366 14.1641ZM28.4715 14.5507C28.4197 14.6405 28.4007 14.707 28.463 14.7134C28.5454 14.7239 28.5211 14.6384 28.4715 14.5507ZM28.2697 14.2899C28.2254 14.2423 28.1799 14.2085 28.1662 14.2581C28.1557 14.3003 28.2 14.3036 28.2697 14.2899Z" fill="var(--fill-0, #283E37)"/>
<path id="path2184" fill-rule="evenodd" clip-rule="evenodd" d="M27.4463 6.32236C27.4865 6.37728 27.5255 6.4312 27.5614 6.48296C27.9015 6.97197 28.4022 7.55704 29.1109 8.21505C29.6337 8.69984 30.2441 9.22585 30.9835 9.77612C31.1578 9.8828 31.2127 10.111 31.106 10.2852C30.9993 10.4595 30.7701 10.5144 30.5969 10.4066C29.49 9.8532 28.5954 9.3125 27.8815 8.79286C27.1506 8.26159 26.6214 7.74931 26.2507 7.30676C25.7268 6.6815 25.5346 6.11962 25.5029 5.73939C25.4691 5.33276 25.6149 5.02328 25.8198 4.7962C26.0183 4.5744 26.3151 4.41808 26.7186 4.40013C26.9731 4.38851 27.3027 4.43499 27.684 4.59553C28.0853 4.76452 28.5807 5.05389 29.1278 5.51862C29.5777 5.90096 30.0741 6.39214 30.5938 7.02374C31.1525 7.70498 31.7323 8.53298 32.3449 9.53425C32.4674 9.69796 32.4336 9.93034 32.2699 10.0529C32.1062 10.1754 31.8738 10.1416 31.7513 9.97787C31.0004 9.14242 30.297 8.47917 29.6643 7.9215C29.1151 7.43671 28.6187 7.05857 28.1804 6.76072C27.911 6.578 27.666 6.43326 27.4463 6.32236ZM26.9119 6.071C26.8411 6.04354 26.7915 6.0383 26.7936 6.08689C26.7968 6.1492 26.8527 6.11853 26.9119 6.071ZM27.1316 5.84604C27.1981 5.75838 27.252 5.66014 27.1622 5.67493C27.0883 5.6876 27.0893 5.7531 27.1316 5.84604Z" fill="var(--fill-0, #283E37)"/>
<path id="path2186" fill-rule="evenodd" clip-rule="evenodd" d="M30.6498 4.29715C30.6297 4.94565 30.7258 5.83608 30.9952 6.92818C31.0628 7.12041 30.9613 7.33267 30.7681 7.40027C30.5758 7.46787 30.3646 7.36643 30.296 7.17315C29.7943 6.10428 29.5049 5.19596 29.3708 4.48198C29.2535 3.85988 29.2884 3.37302 29.3665 3.04349C29.4975 2.48371 29.8714 2.24816 30.2136 2.15522C30.5125 2.07389 30.9043 2.14676 31.3342 2.49636C31.593 2.70654 31.9088 3.07305 32.2129 3.64234C32.4474 4.08171 32.683 4.65521 32.8963 5.37236C33.0484 5.8825 33.1857 6.46231 33.305 7.1256C33.4455 7.9019 33.5522 8.77114 33.6504 9.76607C33.6916 9.96569 33.5627 10.1622 33.3631 10.2034C33.1635 10.2456 32.9671 10.1168 32.9248 9.91718C32.5045 8.59377 32.0693 7.52383 31.707 6.61762C31.3627 5.75577 31.0585 5.08087 30.7913 4.56862C30.7417 4.47145 30.6952 4.38164 30.6498 4.29715ZM30.3076 3.69726C30.2833 3.65607 30.2622 3.63388 30.2442 3.66029C30.222 3.69408 30.2579 3.69937 30.3076 3.69726ZM30.7301 3.61485C30.8188 3.5726 30.8705 3.51978 30.7955 3.47225C30.7607 3.45008 30.7459 3.55253 30.7311 3.61274C30.7311 3.61379 30.7301 3.61379 30.7301 3.61485Z" fill="var(--fill-0, #283E37)"/>
<path id="path2188" fill-rule="evenodd" clip-rule="evenodd" d="M34.1839 36.3714C33.9826 36.336 33.8489 36.144 33.884 35.9438C33.9191 35.7422 34.1123 35.6073 34.3136 35.6427C36.6291 35.99 38.515 36.5498 39.7282 37.2348C40.8535 37.8695 41.4142 38.6636 41.4331 39.4521C41.4452 39.9982 41.1994 40.5389 40.6995 41.0483C40.1038 41.657 39.0973 42.2331 37.7639 42.7166C35.2295 43.6345 31.4699 44.2338 27.2725 44.2964C25.3974 44.2992 23.6087 44.2011 21.9782 43.9941C19.9463 43.7354 18.159 43.3199 16.7473 42.816C15.3909 42.3325 14.3656 41.7524 13.7563 41.1395C13.224 40.6043 12.9674 40.0296 12.9768 39.4521C12.9876 38.8787 13.2443 38.3094 13.7901 37.7987C14.4142 37.2158 15.4423 36.671 16.8 36.242C19.3519 35.433 23.1035 34.9686 27.2725 35.068C27.4765 35.068 27.6426 35.2342 27.6426 35.4385C27.6426 35.6428 27.4765 35.8089 27.2725 35.8089C23.9397 35.8892 20.9014 36.3251 18.5684 36.9734C17.0013 37.4078 15.7652 37.9349 15.01 38.5328C14.6331 38.831 14.3831 39.1212 14.3899 39.4521C14.3953 39.7762 14.6682 40.0391 15.0491 40.3183C15.8165 40.8808 17.0594 41.3465 18.621 41.7224C19.8707 42.0234 21.3202 42.2509 22.9049 42.4075C24.2734 42.5423 25.7432 42.6308 27.2725 42.6336C30.5782 42.6812 33.6084 42.3639 35.9469 41.815C37.5302 41.4432 38.7893 40.9816 39.5701 40.4177C39.993 40.1113 40.2821 39.8103 40.2902 39.4521C40.2956 39.1988 40.1672 38.959 39.947 38.7221C39.6336 38.3829 39.1608 38.0615 38.5583 37.7619C37.46 37.2144 35.9604 36.7364 34.1839 36.3714Z" fill="var(--fill-0, #283E37)"/>
<path id="path2190" fill-rule="evenodd" clip-rule="evenodd" d="M35.0629 40.1512C35.2657 40.1755 35.4104 40.3603 35.3861 40.5631C35.3618 40.7658 35.177 40.9106 34.9742 40.8863C34.9742 40.8863 32.9875 40.823 30.3428 40.8018C29.3817 40.7934 28.3371 40.7933 27.2693 40.7912C26.5933 40.7902 25.9079 40.7902 25.2319 40.7859C24.18 40.7775 23.1502 40.7648 22.1964 40.8071C20.7188 40.8726 19.443 41.0141 18.6065 41.3933C18.1449 41.6034 17.8101 41.8454 17.7531 42.2319C17.7372 42.4358 17.5587 42.5889 17.3549 42.573C17.1521 42.5572 16.999 42.3787 17.0148 42.1749C17.0201 41.5232 17.4299 40.9814 18.147 40.5346C19.0226 39.9896 20.4189 39.6062 22.0612 39.3707C23.0467 39.2292 24.1208 39.1341 25.2182 39.1077C25.9132 39.0919 26.6187 39.1077 27.3126 39.1436C28.3994 39.1996 29.4598 39.3031 30.4315 39.4203C33.0889 39.7404 35.0629 40.1512 35.0629 40.1512Z" fill="var(--fill-0, #283E37)"/>
<path id="path2192" fill-rule="evenodd" clip-rule="evenodd" d="M34.0163 13.1085C34.1008 12.9226 34.3205 12.8391 34.5063 12.9236C34.6922 13.0071 34.7757 13.2267 34.6912 13.4137C33.4417 16.4914 31.8363 19.1098 30.3767 22.0365C29.8338 23.1243 29.311 24.2534 28.8368 25.4701C28.5452 26.2179 28.2759 26.9995 28.0182 27.8212C27.4574 29.6125 26.9969 31.6034 26.7212 33.9239C26.4033 36.6076 26.2935 39.7107 26.567 43.4169C26.5902 43.6207 26.4434 43.8035 26.2396 43.8256C26.0368 43.8489 25.8541 43.702 25.8308 43.4992C25.2742 39.7339 25.1116 36.5548 25.2848 33.7939C25.4379 31.3404 25.8351 29.2164 26.4043 27.3258C26.6673 26.4523 26.9779 25.6306 27.3106 24.848C27.8429 23.5932 28.4386 22.4367 29.0723 21.3361C30.6988 18.515 32.5408 16.0679 34.0163 13.1085Z" fill="var(--fill-0, #283E37)"/>
<path id="path2194" fill-rule="evenodd" clip-rule="evenodd" d="M30.0527 25.4366C29.8499 25.4091 29.7074 25.2233 29.7348 25.0205C29.7623 24.8177 29.9482 24.6761 30.151 24.7025C31.8102 24.7711 32.8865 24.3984 33.5498 23.8766C34.0726 23.4658 34.2141 22.9239 34.0504 22.4655C33.8867 22.0071 33.4378 21.667 32.7407 21.6596C31.8842 21.6512 30.7773 21.9913 29.437 22.9799C29.2838 23.1151 29.0504 23.1003 28.9152 22.9472C28.78 22.794 28.7938 22.5606 28.9469 22.4254C29.983 21.328 30.9558 20.7175 31.806 20.4144C32.4355 20.1905 33.009 20.1598 33.5054 20.2264C34.5912 20.3711 35.339 21.0692 35.6389 21.8931C35.9473 22.738 35.7984 23.7688 35.058 24.5525C34.7052 24.9264 34.2225 25.2665 33.5719 25.463C32.7048 25.7259 31.5483 25.7862 30.0527 25.4366Z" fill="var(--fill-0, #283E37)"/>
<path id="path2196" fill-rule="evenodd" clip-rule="evenodd" d="M28.0195 26.0345C28.0998 26.2225 28.0121 26.4401 27.8241 26.5204C27.6361 26.6007 27.4185 26.5141 27.3382 26.3261C26.4996 24.6837 25.6441 23.4775 24.8477 22.5734C24.0799 21.701 23.3606 21.1613 22.7132 20.8698C22.2875 20.6776 21.9073 20.6089 21.5799 20.6533C21.2588 20.6955 20.9958 20.8455 20.8501 21.0958C20.5607 21.5954 20.6336 22.3168 21.1585 23.0434C21.7499 23.862 22.8114 24.6742 24.5277 25.2709C24.7252 25.3248 24.8414 25.5286 24.7865 25.7261C24.7326 25.9225 24.5288 26.0387 24.3313 25.9849C21.7267 25.4452 20.2755 24.2919 19.6133 23.1702C19.0155 22.1552 19.0567 21.1159 19.4348 20.3427C19.8182 19.559 20.5945 19.0098 21.6031 18.957C22.4608 18.9126 23.5476 19.2443 24.6481 20.2381C25.2237 20.7588 25.8163 21.4644 26.3824 22.4033C26.9591 23.3613 27.5083 24.5558 28.0195 26.0345Z" fill="var(--fill-0, #283E37)"/>
<path id="path2198" fill-rule="evenodd" clip-rule="evenodd" d="M50.2755 15.2639C50.1276 15.4055 49.8932 15.4002 49.7527 15.2524C49.6112 15.1045 49.6175 14.87 49.7654 14.7285C49.7654 14.7285 50.0294 14.3504 50.6938 13.9025C50.8955 13.7663 51.1299 13.649 51.4141 13.5307C51.6422 13.4346 51.8989 13.3628 52.1861 13.3047C52.352 13.272 52.5283 13.2445 52.7132 13.2424C53.1092 13.2382 53.5402 13.29 54.0017 13.4167C54.5531 13.5688 55.1086 13.8085 55.7402 14.1507C55.9356 14.212 56.0444 14.419 55.9842 14.6144C55.924 14.8098 55.717 14.9186 55.5216 14.8584C55.0833 14.8193 54.703 14.8309 54.326 14.8309C53.9077 14.832 53.5433 14.8732 53.1959 14.8975C52.9931 14.9112 52.803 14.9292 52.6224 14.9366C52.3044 14.9492 52.0245 14.944 51.7711 14.9672C50.793 15.0527 50.2755 15.2639 50.2755 15.2639Z" fill="var(--fill-0, #283E37)"/>
<path id="path2200" fill-rule="evenodd" clip-rule="evenodd" d="M45.2619 2.62822C45.1267 2.78137 44.8923 2.79613 44.7391 2.662C44.586 2.52681 44.5701 2.29236 44.7053 2.13922C44.7053 2.13922 44.8659 1.8308 45.3528 1.3101C45.4901 1.16223 45.6506 1.01962 45.8534 0.858018C46.0129 0.730219 46.1945 0.609814 46.4047 0.488352C46.5251 0.418644 46.654 0.34898 46.7976 0.297227C47.1081 0.182102 47.4588 0.100743 47.8517 0.0521582C48.3449 -0.00910084 48.853 -0.00805703 49.4582 0.0130668C49.6588 -0.0260123 49.8532 0.106014 49.8922 0.305633C49.9313 0.506309 49.8004 0.700685 49.5997 0.739764C49.0874 0.970014 48.6871 1.22033 48.2773 1.43052C47.97 1.58894 47.7028 1.74841 47.4356 1.86037C47.1124 1.99556 46.8166 2.07055 46.56 2.15716C45.6749 2.45712 45.2619 2.62822 45.2619 2.62822Z" fill="var(--fill-0, #283E37)"/>
<path id="path2202" fill-rule="evenodd" clip-rule="evenodd" d="M16.7226 7.17642C16.5399 7.08453 16.467 6.86168 16.5599 6.67896C16.6518 6.4973 16.8747 6.42442 17.0574 6.5163C17.0574 6.5163 17.8031 6.67679 18.7811 7.17003C18.9913 7.27565 19.1983 7.40668 19.4116 7.55455C19.5437 7.64644 19.6757 7.74669 19.7982 7.86181C20.0211 8.07094 20.2249 8.31077 20.4097 8.57165C20.5819 8.81351 20.735 9.05955 20.866 9.33099C21.0646 9.73973 21.2198 10.1379 21.3212 10.5805C21.4068 10.7664 21.3265 10.9861 21.1417 11.0727C20.9558 11.1593 20.7361 11.079 20.6495 10.8931C20.3749 10.5266 20.0411 10.2467 19.6957 9.94675C19.5257 9.79994 19.3525 9.67115 19.1814 9.53067C19.0082 9.38809 18.8286 9.26135 18.6681 9.11666C18.3861 8.86 18.14 8.59694 17.9045 8.36247C17.201 7.6601 16.7226 7.17642 16.7226 7.17642Z" fill="var(--fill-0, #283E37)"/>
<path id="path2204" fill-rule="evenodd" clip-rule="evenodd" d="M12.8022 20.1301C12.6152 20.0477 12.5308 19.829 12.6142 19.6421C12.6966 19.4551 12.9152 19.3706 13.1022 19.454C14.2471 19.8987 16.1704 20.3371 18.6873 23.4814C19.4741 24.4647 20.3159 25.7173 21.1873 27.3333C21.6752 28.2374 22.1737 29.2565 22.6628 30.412C23.0694 31.3742 23.4655 32.4325 23.8615 33.589C24.3601 35.0445 24.8512 36.6552 25.3391 38.4423C25.751 39.9515 26.1503 41.5834 26.5569 43.3515C26.6108 43.549 26.4957 43.7528 26.2992 43.8077C26.1017 43.8626 25.8979 43.7465 25.8429 43.55C25.0392 41.0733 24.247 38.8838 23.5056 36.9235C22.9025 35.3276 22.3216 33.8943 21.7745 32.5973C21.3415 31.5696 20.9253 30.6307 20.5335 29.7678C19.7899 28.1296 19.1098 26.7788 18.4591 25.6666C15.9549 21.388 13.9534 20.7025 12.8022 20.1301Z" fill="var(--fill-0, #283E37)"/>
<path id="path2206" fill-rule="evenodd" clip-rule="evenodd" d="M13.9436 17.0522C13.7313 17.0374 13.4641 17.0786 13.141 17.1579C12.9276 17.2085 12.6963 17.2856 12.4439 17.3828C12.1714 17.4715 11.8725 17.3934 11.6771 17.1843C11.4817 16.9741 11.4257 16.6699 11.5334 16.4048C11.8746 15.469 12.0626 14.6282 12.1766 13.9079C12.2759 13.2763 12.3055 12.7429 12.2675 12.3152C12.2485 12.1008 12.2474 11.8008 12.202 11.6794C12.0309 11.8621 11.788 12.3659 11.5978 12.8116C11.1923 13.7611 10.8036 15.1574 10.5565 17.1071C10.5438 17.3109 10.3685 17.4662 10.1646 17.4536C9.96077 17.4409 9.80445 17.2656 9.81713 17.0617C9.81079 14.4635 10.1519 12.7166 10.585 11.6752C10.9018 10.9136 11.3232 10.4933 11.6739 10.2926C11.9823 10.1162 12.2918 10.0983 12.5769 10.1511C13.0248 10.2335 13.4821 10.6021 13.743 11.3319C13.9415 11.8843 14.0429 12.7197 13.8919 13.7738C13.8084 14.3663 13.6384 15.0328 13.3796 15.7626C13.931 15.7447 14.3471 15.8281 14.6164 15.9644C15.1129 16.2157 15.3167 16.5864 15.2618 16.9698C15.2259 17.2254 15.0928 17.5412 14.7231 17.7916C14.3038 18.0757 13.5402 18.3524 12.3615 18.4084C12.1587 18.4327 11.9739 18.288 11.9496 18.0852C11.9253 17.8824 12.07 17.6976 12.2728 17.6733C13.0395 17.5212 13.5729 17.2994 13.9119 17.0754C13.9225 17.068 13.9331 17.0607 13.9436 17.0522ZM12.1999 11.6731C12.1809 11.6266 12.1545 11.6097 12.1165 11.6403C12.0943 11.6572 12.165 11.6582 12.1872 11.6677C12.1904 11.6698 12.1946 11.672 12.1999 11.6731ZM12.2062 11.6752C12.2738 11.6994 12.4058 11.7216 12.3773 11.6593C12.3414 11.5811 12.2801 11.597 12.2062 11.6752Z" fill="var(--fill-0, #283E37)"/>
<path id="path2208" fill-rule="evenodd" clip-rule="evenodd" d="M6.52431 9.7068C6.51375 9.72792 6.49684 9.76701 6.48522 9.79447C6.42818 9.93917 6.41023 10.1283 6.40706 10.3564C6.39861 11.0566 6.63309 12.0367 7.14639 13.2989C7.49282 14.1491 7.95967 15.1197 8.59443 16.1992C8.77503 16.5076 8.74017 16.8963 8.50781 17.1688C8.27545 17.4403 7.89631 17.5342 7.56361 17.4043C5.45546 16.5287 3.88701 16.2034 2.78647 16.2277C2.34604 16.2372 1.99221 16.2922 1.72499 16.4073C1.54966 16.4834 1.41026 16.5626 1.33949 16.6808C1.14199 17.0167 1.43244 17.4043 1.9204 17.7212C2.83717 18.3137 4.45312 18.5873 6.63099 17.9567C6.82533 17.8934 7.03444 17.9979 7.09993 18.1922C7.1633 18.3855 7.05874 18.5956 6.86546 18.6601C3.74654 19.8345 1.51481 19.109 0.58853 18.1553C-0.0462395 17.5015 -0.145529 16.7083 0.185059 16.0524C0.49241 15.4409 1.2888 14.8789 2.71783 14.7743C3.58707 14.7099 4.7288 14.8241 6.16733 15.2022C5.94976 14.7448 5.76386 14.3118 5.60966 13.902C5.02664 12.3599 4.84813 11.1464 4.90093 10.3004C4.98543 8.93685 5.6688 8.32423 6.37223 8.29043C6.91194 8.26508 7.6555 8.58935 8.29131 9.52196C9.09402 10.6986 9.86819 12.9134 10.0203 16.2763C10.0382 16.4791 9.88721 16.6587 9.68336 16.6766C9.47952 16.6946 9.29996 16.5435 9.28306 16.3396C8.89227 13.283 8.06425 11.309 7.24993 10.2898C7.08938 10.0891 6.92882 9.93595 6.77567 9.82294C6.69857 9.7659 6.58451 9.72581 6.52431 9.7068Z" fill="var(--fill-0, #283E37)"/>
<path id="path2210" fill-rule="evenodd" clip-rule="evenodd" d="M2.99051 22.4597C2.99791 22.4586 3.00741 22.4586 3.01269 22.4597C3.05283 22.4692 3.09824 22.4682 3.14789 22.4671C3.30103 22.4671 3.47848 22.4238 3.68127 22.3583C4.31074 22.1534 5.09445 21.6623 6.00171 20.8702C6.63543 20.3167 7.32618 19.6218 8.03911 18.7483C8.29364 18.4409 8.72773 18.3543 9.08049 18.5401C9.43326 18.7271 9.60647 19.1349 9.49557 19.5183C8.89565 21.4437 8.77526 22.9022 8.92841 23.837C8.96643 24.0714 9.01184 24.2669 9.08367 24.4168C9.11324 24.4781 9.1692 24.5679 9.1692 24.5679C9.1692 24.5679 8.99812 24.5193 9.03191 24.5679C9.21147 24.834 9.5283 23.9225 9.72581 23.1821C10.0036 22.1365 10.1705 20.6293 10.0796 18.6056C10.0617 18.4018 10.2117 18.2212 10.4155 18.2033C10.6183 18.1843 10.7989 18.3342 10.8169 18.5381C11.1781 21.1743 11.0344 23.0237 10.707 24.1601C10.4852 24.928 10.143 25.4033 9.82826 25.6536C9.4607 25.9462 9.06676 25.981 8.70237 25.8754C8.35066 25.773 7.99367 25.4688 7.72962 24.9153C7.47719 24.3872 7.30506 23.5602 7.32829 22.4523C7.33146 22.2674 7.342 22.0742 7.35784 21.8725C6.08619 22.9699 4.9508 23.5518 4.0974 23.7767C2.98207 24.0693 2.21739 23.7809 1.8868 23.3067C1.56361 22.8452 1.49073 22.0457 2.17197 21.1068C2.90602 20.0971 4.56 18.7715 7.49198 17.521C7.67681 17.4323 7.89758 17.5104 7.9863 17.6952C8.07396 17.879 7.99579 18.1008 7.81095 18.1884C5.24652 19.5499 3.81856 20.8405 3.22499 21.8101C3.10775 22.0013 3.03488 22.1766 2.99792 22.3297C2.98735 22.3699 2.9884 22.4217 2.99051 22.4597ZM2.99263 22.4851C2.99369 22.4977 2.99474 22.5062 2.99474 22.5062C2.99474 22.5062 2.9958 22.4935 2.99263 22.4851ZM2.98208 22.4597C2.98103 22.4534 2.97891 22.4502 2.9768 22.4544C2.97468 22.4576 2.97786 22.4586 2.98208 22.4597Z" fill="var(--fill-0, #283E37)"/>
<path id="path2212" fill-rule="evenodd" clip-rule="evenodd" d="M38.904 27.4284C39.1047 27.3904 39.299 27.5224 39.3371 27.7231C39.3751 27.9238 39.2431 28.117 39.0424 28.1561C38.1816 28.3789 36.892 29.2186 35.5475 30.672C34.9465 31.3205 34.3487 32.0978 33.7625 33.0019C33.3844 33.5849 33.019 34.2228 32.6588 34.9125C32.3314 35.5367 32.005 36.199 31.7029 36.9162C31.2942 37.8857 30.915 38.9387 30.5992 40.0995C30.3172 41.1356 30.069 42.2404 29.8937 43.4392C29.8768 43.643 29.6983 43.7951 29.4945 43.7792C29.2917 43.7623 29.1396 43.5839 29.1554 43.3801C29.1987 41.1874 29.4564 39.2408 29.9127 37.5213C30.2834 36.1208 30.7724 34.8746 31.3459 33.7867C31.6068 33.2924 31.8941 32.8361 32.1888 32.4094C32.6799 31.6996 33.1943 31.0722 33.7213 30.5315C35.708 28.4909 37.7359 27.5731 38.904 27.4284Z" fill="var(--fill-0, #283E37)"/>
<path id="path2214" fill-rule="evenodd" clip-rule="evenodd" d="M33.8374 31.9055C33.8923 32.102 33.7772 32.3069 33.5797 32.3618C33.3833 32.4168 33.1794 32.3016 33.1234 32.1051C32.57 30.6888 31.9933 29.6992 31.4769 28.9863C31.1875 28.587 30.9139 28.305 30.6572 28.1149C30.5125 28.0082 30.3848 27.9438 30.2622 27.9396C30.1693 27.9364 30.0943 27.9892 30.033 28.0706C29.9485 28.1836 29.8693 28.3166 29.8165 28.4771C29.6591 28.9493 29.6031 29.5565 29.7373 30.2399C29.8524 30.8261 30.0584 31.4534 30.4376 32.0882C30.5601 32.2519 30.5263 32.4843 30.3626 32.6068C30.1989 32.7293 29.9665 32.6955 29.845 32.5318C28.8174 31.4017 28.3632 30.1723 28.2724 29.1425C28.2079 28.4169 28.3643 27.7864 28.6072 27.3153C28.9737 26.6045 29.6084 26.2317 30.3087 26.2507C30.9234 26.2676 31.7092 26.6225 32.3841 27.6195C32.6756 28.0494 32.9618 28.6018 33.2079 29.3116C33.4551 30.0213 33.6631 30.8715 33.8374 31.9055Z" fill="var(--fill-0, #283E37)"/>
<path id="path2216" fill-rule="evenodd" clip-rule="evenodd" d="M40.0199 31.012C40.0801 30.9169 40.1403 30.8166 40.1952 30.73C40.5163 30.223 40.8712 29.5555 41.1394 28.6525C41.1701 28.4497 41.3581 28.3103 41.5598 28.3399C41.7626 28.3694 41.902 28.5574 41.8724 28.7591C41.8724 29.7488 41.7478 30.5483 41.5566 31.1799C41.4193 31.632 41.2239 31.9784 41.037 32.2425C40.6008 32.8625 40.0315 33.0177 39.6302 32.9639C39.1707 32.9037 38.6215 32.5551 38.5032 31.6743C38.4525 31.2983 38.4504 30.7849 38.6109 30.1374C38.7472 29.5914 38.9774 28.9651 39.3249 28.2078C39.3809 28.0114 39.5847 27.8963 39.7822 27.9512C39.9787 28.0061 40.0938 28.211 40.0389 28.4074C39.9692 29.0211 39.9629 29.5334 39.9555 29.9886C39.9491 30.4058 39.9745 30.7427 40.0199 31.012ZM40.1001 31.3627C40.1128 31.4144 40.1244 31.4852 40.1551 31.4673C40.2142 31.4335 40.1699 31.3954 40.1001 31.3627ZM39.8245 31.2835C39.7347 31.2697 39.6132 31.2613 39.6534 31.3278C39.6914 31.3912 39.7527 31.3616 39.8245 31.2835Z" fill="var(--fill-0, #283E37)"/>
<path id="path2218" fill-rule="evenodd" clip-rule="evenodd" d="M48.2696 27.868C48.1734 27.8299 48.0763 27.793 47.9907 27.7581C47.1362 27.4096 45.8551 27.1614 44.349 27.2512C43.9719 27.2765 43.6276 27.0378 43.5188 26.6766C43.41 26.3153 43.5653 25.9267 43.8938 25.7408C46.2913 24.4502 47.7383 23.4965 48.4903 22.8353C47.1627 23.1532 44.9056 24.2885 43.1618 26.065C43.0235 26.215 42.789 26.2257 42.639 26.0873C42.488 25.95 42.4774 25.7155 42.6158 25.5645C44.1177 23.8059 46.0748 22.55 47.5154 21.9364C48.184 21.6512 48.7575 21.5119 49.1451 21.4939C49.5845 21.4738 49.8771 21.6333 50.0429 21.8055C50.2457 22.0146 50.3386 22.3145 50.214 22.7222C50.1242 23.0148 49.8211 23.4636 49.1884 24.0361C48.6857 24.4924 47.9453 25.0586 46.9197 25.744C47.9052 25.9056 48.7089 26.1887 49.2518 26.5023C50.1443 27.0178 50.4369 27.7223 50.3598 28.2049C50.2996 28.5778 50.0725 28.9822 49.4884 29.2336C49.1071 29.3983 48.4945 29.5272 47.6084 29.5145C46.9419 29.505 46.098 29.4226 45.0556 29.242C45.4495 30.5443 45.4601 31.5647 45.2721 32.1614C45.0154 32.9726 44.4726 33.2535 43.8853 33.0539C43.597 32.9557 43.24 32.7032 42.9147 32.192C42.4721 31.496 42.0074 30.2719 41.6874 28.3855C41.6462 28.1859 41.774 27.9894 41.9747 27.9472C42.1743 27.906 42.3707 28.0338 42.4119 28.2334C42.7605 29.6233 43.1555 30.6056 43.5347 31.251C43.7903 31.6872 44.1494 32.2026 44.2032 31.9998C44.2148 31.9586 44.0955 32.0145 44.0955 32.0145C44.0955 32.0145 44.1166 31.9554 44.1293 31.9163C44.1673 31.8044 44.18 31.6629 44.1832 31.4981C44.198 30.8169 43.9413 29.8146 43.3213 28.6137C43.2062 28.3739 43.2358 28.0898 43.3984 27.8786C43.5611 27.6684 43.8283 27.567 44.0892 27.6156C45.8456 27.906 47.1109 27.9725 47.9675 27.9081C48.0699 27.8996 48.1724 27.8859 48.2696 27.868ZM48.7057 28.0707C48.6973 28.1542 48.6963 28.2398 48.7501 28.2049C48.8072 28.168 48.7807 28.1214 48.7057 28.0707Z" fill="var(--fill-0, #283E37)"/>
<path id="path2220" fill-rule="evenodd" clip-rule="evenodd" d="M43.03 21.0771C42.9296 21.2123 42.8198 21.376 42.7216 21.5112C42.3287 22.0509 41.9051 22.803 41.5281 23.7894C41.2397 24.5436 40.9525 25.3991 40.7423 26.3993C40.7201 26.6031 40.5374 26.7488 40.3335 26.7277C40.1307 26.7045 39.9839 26.5217 40.0061 26.3189C40.0346 24.6502 40.2649 23.2729 40.6155 22.1935C40.8257 21.5471 41.0908 21.0158 41.3538 20.5923C41.6369 20.136 41.9421 19.8044 42.2188 19.5879C42.8377 19.1031 43.4334 19.0915 43.8337 19.3017C44.1421 19.4643 44.4453 19.7611 44.5393 20.2976C44.6143 20.7201 44.5984 21.3708 44.309 22.2358C44.0133 23.1209 43.4556 24.2637 42.5462 25.6906C42.4522 25.8723 42.2294 25.943 42.0477 25.849C41.8661 25.755 41.7953 25.531 41.8893 25.3504C42.3783 24.1527 42.6677 23.1705 42.8494 22.3794C42.9751 21.8333 43.0342 21.4024 43.03 21.0771ZM42.9962 20.7338C42.9909 20.7074 42.9846 20.6832 42.9782 20.661C42.974 20.6483 42.9698 20.6261 42.9603 20.6304C42.9085 20.6557 42.9413 20.6969 42.9962 20.7338ZM43.2349 20.8394C43.3088 20.8669 43.3965 20.8954 43.3732 20.8394C43.3479 20.7771 43.2982 20.7866 43.2349 20.8394Z" fill="var(--fill-0, #283E37)"/>
<path id="path2222" fill-rule="evenodd" clip-rule="evenodd" d="M38.2784 23.2184C38.2858 23.2998 38.2953 23.3843 38.308 23.4709C38.3619 23.8395 38.4379 24.243 38.5552 24.6517C38.7326 25.2675 38.9385 25.88 39.2533 26.3648C39.3874 26.519 39.3716 26.7525 39.2174 26.8866C39.0632 27.0218 38.8287 27.0049 38.6946 26.8518C38.1992 26.4229 37.7525 25.842 37.3838 25.2147C37.1325 24.7869 36.9424 24.3423 36.8019 23.9251C36.6857 23.5808 36.6234 23.2533 36.5949 22.9692C36.5621 22.6376 36.5949 22.3514 36.6604 22.1327C36.7882 21.7029 37.049 21.4324 37.3648 21.3173C37.669 21.2053 38.1137 21.1526 38.6259 21.5212C38.8784 21.7039 39.2026 21.9923 39.548 22.4718C39.9335 23.0051 40.3665 23.7539 40.883 24.7985C40.996 24.9685 40.9506 25.1988 40.7805 25.3118C40.6105 25.4248 40.3803 25.3794 40.2672 25.2094C39.7909 24.6686 39.3737 24.2503 39.0135 23.8912C38.7305 23.6071 38.4876 23.3864 38.2784 23.2184ZM37.8348 22.9132C37.819 22.9048 37.8032 22.8964 37.7873 22.889C37.7641 22.8774 37.7261 22.8509 37.7197 22.8699C37.7007 22.929 37.7651 22.9291 37.8348 22.9132ZM38.2404 22.7379C38.3144 22.6893 38.3524 22.6397 38.2784 22.6143C38.2351 22.5995 38.233 22.6597 38.2404 22.7379Z" fill="var(--fill-0, #283E37)"/>
<path id="path2224" fill-rule="evenodd" clip-rule="evenodd" d="M47.9983 39.022C47.8241 38.9164 47.7681 38.6882 47.8737 38.5139C47.9804 38.3397 48.2085 38.2837 48.3828 38.3893C48.3828 38.3893 48.6996 38.4706 49.2108 38.6851C49.3777 38.7548 49.5425 38.8382 49.7305 38.9459C49.8932 39.0388 50.0484 39.1498 50.209 39.2786C50.3082 39.36 50.4065 39.4466 50.4931 39.548C50.6525 39.7338 50.7898 39.9419 50.905 40.169C50.9874 40.3295 51.0602 40.4848 51.1151 40.658C51.2461 41.0678 51.3391 41.4491 51.3454 41.8821C51.4024 42.0775 51.2894 42.2835 51.094 42.3406C50.8976 42.3987 50.6916 42.2855 50.6346 42.0891C50.4508 41.7923 50.2111 41.5854 49.9639 41.3424C49.8678 41.2484 49.7664 41.1734 49.6713 41.0805C49.5288 40.9421 49.3735 40.8259 49.2446 40.6844C49.0535 40.4742 48.9024 40.2534 48.7525 40.0559C48.2856 39.4465 47.9983 39.022 47.9983 39.022Z" fill="var(--fill-0, #283E37)"/>
<path id="path2226" fill-rule="evenodd" clip-rule="evenodd" d="M5.62182 32.4947C5.42008 32.4598 5.28385 32.2687 5.31765 32.068C5.35144 31.8663 5.54262 31.7299 5.74435 31.7637C5.74435 31.7637 6.40656 31.6718 7.41522 31.4733C7.7437 31.4078 8.09752 31.317 8.4883 31.2483C8.77242 31.1976 9.07237 31.1734 9.38289 31.1269C9.67968 31.0815 9.97754 31.053 10.2891 30.9907C10.6704 30.9136 11.0422 30.8438 11.4319 30.7075C11.6083 30.604 11.8354 30.6622 11.9399 30.8375C12.0435 31.0128 11.9853 31.2409 11.81 31.3444C11.2766 31.8155 10.7369 32.1789 10.155 32.4598C9.7325 32.6626 9.30685 32.8062 8.8886 32.8918C8.71011 32.9288 8.53161 32.9425 8.35945 32.9499C8.07746 32.9636 7.81342 32.9594 7.56311 32.9361C7.26949 32.9097 7.01284 32.8706 6.77625 32.8199C6.0422 32.6636 5.62182 32.4947 5.62182 32.4947Z" fill="var(--fill-0, #283E37)"/>
<path id="path2228" fill-rule="evenodd" clip-rule="evenodd" d="M30.1909 49.7751C29.9871 49.7941 29.8065 49.6441 29.7875 49.4403C29.7685 49.2375 29.9184 49.0569 30.1212 49.0379C31.4351 48.8151 32.5853 48.5763 33.6056 48.3524C34.4632 48.1644 35.2131 47.9753 35.8722 47.799C36.9484 47.5096 37.7469 47.2297 38.2919 46.9445C38.4387 46.8674 38.5665 46.7966 38.6689 46.7206C38.7334 46.672 38.7957 46.6424 38.82 46.5928C38.8823 46.4703 38.9868 45.9761 39.1421 45.318C39.6554 43.1412 40.494 39.3939 40.494 39.3939C40.5236 39.1922 40.7127 39.0527 40.9144 39.0823C41.1161 39.1129 41.2566 39.3009 41.226 39.5026C41.226 39.5026 41 42.5794 40.7401 44.829C40.5965 46.0743 40.4043 47.0734 40.3177 47.2847C40.1761 47.6079 39.8825 47.9584 39.3755 48.27C38.896 48.5647 38.1852 48.8562 37.222 49.0928C36.4531 49.2818 35.5162 49.4424 34.3998 49.5586C33.2021 49.6821 31.809 49.7434 30.1909 49.7751ZM13.3131 39.4868C13.2919 39.283 13.4398 39.1013 13.6437 39.0801C13.8464 39.059 14.0292 39.2069 14.0492 39.4107C14.2605 40.4426 14.4823 41.8389 14.7833 43.2341C14.872 43.6418 14.966 44.0463 15.0653 44.4413C15.1656 44.8374 15.2765 45.2209 15.4011 45.5821C15.5353 45.9782 15.6736 46.3499 15.869 46.671C16.0623 46.9889 16.2715 47.2773 16.5682 47.4737C16.9199 47.7124 17.3192 47.9342 17.767 48.1349C18.1853 48.3229 18.6278 48.5003 19.102 48.6598C19.3016 48.7042 19.4273 48.9016 19.3819 49.1012C19.3376 49.3009 19.1401 49.4266 18.9404 49.3822C18.2972 49.3062 17.6941 49.1985 17.1333 49.0538C16.6939 48.9408 16.2957 48.7939 15.9282 48.6334C15.1382 48.2669 14.5287 47.5951 14.082 46.7291C13.8443 46.2654 13.6616 45.7404 13.5296 45.1849C13.4398 44.8078 13.3785 44.416 13.3363 44.0178C13.274 43.4433 13.2465 42.8624 13.2444 42.291C13.2391 41.2464 13.3109 40.2705 13.3131 39.4868Z" fill="var(--fill-0, #283E37)"/>
<path id="path2230" fill-rule="evenodd" clip-rule="evenodd" d="M37.4418 59.8166C37.3795 60.0109 37.1715 60.1176 36.9761 60.0553C36.7817 59.9929 36.6751 59.7849 36.7374 59.5895C36.9201 58.7339 36.9961 57.4455 37.1039 56.009C37.1387 55.5359 37.181 55.0511 37.2285 54.562C37.2591 54.241 37.2887 53.9178 37.333 53.5988C37.4503 52.7665 37.5992 51.9532 37.7355 51.2022C38.1093 49.1501 38.4346 47.6059 38.4346 47.6059C38.4505 47.4021 38.63 47.25 38.8328 47.2669C39.0367 47.2828 39.1888 47.4624 39.1719 47.6651C39.1719 47.6651 39.2416 49.2568 39.1698 51.3576C39.1433 52.1286 39.1022 52.964 39.0092 53.81C38.9733 54.1353 38.9184 54.4606 38.8614 54.7828C38.7747 55.2771 38.6786 55.764 38.5667 56.235C38.2202 57.6968 37.8073 58.9801 37.4418 59.8166ZM15.9981 48.1742C15.9685 47.9714 16.109 47.7834 16.3107 47.7538C16.5135 47.7253 16.7015 47.8658 16.73 48.0675C16.8895 48.8871 17.2803 50.2538 17.745 51.8053C18.1622 53.2016 18.6523 54.7363 19.0959 56.1516C19.6842 58.0242 20.1985 59.6782 20.4816 60.4566C20.5735 60.7249 20.8481 60.896 21.1829 61.065C21.7332 61.3439 22.4546 61.5445 23.252 61.6998C25.1943 62.0758 27.5485 62.175 29.1265 62.1898C29.8648 62.2035 30.6453 62.1644 31.4195 62.0725C32.2011 61.9796 32.9742 61.8403 33.6871 61.6459C33.8814 61.5836 34.0906 61.6903 34.1529 61.8846C34.2162 62.079 34.1085 62.2881 33.9142 62.3514C33.1844 62.625 32.388 62.8499 31.5758 63.0221C30.7636 63.1932 29.9397 63.3052 29.1561 63.359C27.99 63.4319 26.4121 63.5016 24.8627 63.4319C23.8329 63.3843 22.8179 63.2735 21.9402 63.0739C21.1745 62.9006 20.508 62.6492 20.0052 62.3313C19.4402 61.9743 19.0642 61.518 18.8878 60.9984C18.6893 60.3753 18.3481 59.2177 17.9848 57.8235C17.7302 56.8434 17.4619 55.7471 17.2106 54.6413C16.6244 52.0652 16.1227 49.4543 15.9981 48.1742Z" fill="var(--fill-0, #283E37)"/>
<path id="path2232" fill-rule="evenodd" clip-rule="evenodd" d="M13.7031 39.6797C13.8351 40.3556 14.5333 40.9862 15.6613 41.5322C16.9393 43.1915 18.8499 47.0635 18.4264 48.8748C18.4264 48.8748 21.2042 54.9638 22.1019 62.2642C20.8725 61.9547 19.9378 61.4689 19.6833 60.719C18.9872 58.6711 16.7344 50.6852 16.3626 48.1123C16.3235 48.0922 16.2855 48.0721 16.2475 48.051C13.9513 46.7825 13.9397 42.2536 13.7031 39.6797Z" fill="var(--fill-0, #283E37)"/>
<path id="path2234" fill-rule="evenodd" clip-rule="evenodd" d="M16.6268 48.6321C16.8222 48.6933 16.931 48.9013 16.8697 49.0957C16.8095 49.2911 16.6014 49.3999 16.406 49.3387C15.0404 48.9838 12.8963 49.5499 11.273 50.6832C9.8936 51.6464 8.88599 53.0702 9.39296 54.8668C9.47112 55.1678 9.68975 55.4804 9.97492 55.8194C10.2411 56.1341 10.5685 56.4584 10.9403 56.789C11.9077 57.6476 13.1678 58.5264 14.4901 59.3016C16.1008 60.2448 17.7844 61.0475 19.1384 61.4446C19.9844 61.6939 20.6773 61.8164 21.1071 61.6601C21.2962 61.582 21.5127 61.6707 21.5919 61.8598C21.6701 62.0478 21.5813 62.2654 21.3933 62.3435C20.8758 62.5896 19.9939 62.5917 18.9092 62.3773C17.4464 62.0889 15.5886 61.4172 13.8216 60.5406C12.0493 59.6618 10.3699 58.5803 9.25565 57.5146C8.45083 56.7457 7.94494 55.9525 7.77701 55.2702C7.3239 53.2201 8.10756 51.5218 9.51229 50.323C10.4576 49.5171 11.6712 48.9394 12.8879 48.6331C14.2768 48.2835 15.6551 48.274 16.6268 48.6321Z" fill="var(--fill-0, #283E37)"/>
<path id="path2236" fill-rule="evenodd" clip-rule="evenodd" d="M16.5165 48.9943C17.1481 52.1618 19.0524 58.8761 19.683 60.7287C19.8741 61.2927 20.4519 61.7077 21.2493 62.0108C18.9669 62.9646 9.33657 58.086 8.58456 55.0769C7.4724 50.6293 13.7039 48.1156 16.5165 48.9943Z" fill="var(--fill-0, #283E37)"/>
</g>
</svg>
