<svg xmlns="http://www.w3.org/2000/svg" width="64" height="39" viewBox="0 0 64 39" fill="none">
  <g clip-path="url(#clip0_786_4189)">
    <path fill-rule="evenodd" clip-rule="evenodd" d="M42.1691 11.663C41.9963 11.681 41.8433 11.5464 41.8275 11.3761C41.8117 11.2057 41.9391 11.0533 42.1118 11.0354C42.1118 11.0354 44.933 10.6051 48.5468 10.1299C49.3732 10.0223 50.2407 9.92366 51.1257 9.82504C51.6948 9.76228 52.2706 9.69957 52.8477 9.65474C54.3226 9.52922 55.7991 9.4395 57.1663 9.3588C60.8038 9.15259 63.657 9.06295 63.657 9.06295C63.8297 9.05399 63.9827 9.17952 63.9985 9.34987C64.0143 9.52022 63.8869 9.67262 63.7142 9.69055C63.7142 9.69055 60.8921 10.1209 57.2778 10.5782C55.9193 10.7485 54.4512 10.9368 52.9783 11.0802C52.4019 11.134 51.8242 11.1789 51.2531 11.2147C50.365 11.2865 49.4934 11.3403 48.6612 11.3851C45.0223 11.5734 42.1691 11.663 42.1691 11.663Z" fill="#283E37"/>
    <path fill-rule="evenodd" clip-rule="evenodd" d="M49.3214 15.2698C49.1487 15.2881 48.9955 15.1557 48.9798 14.9854C48.9641 14.815 49.0915 14.6605 49.2641 14.6421C49.2641 14.6421 51.0862 14.3024 53.4345 13.9437C53.9704 13.8627 54.5328 13.7918 55.1077 13.7216C55.477 13.6771 55.8508 13.6329 56.226 13.6065C57.1852 13.5283 58.1451 13.4856 59.0347 13.4486C61.4067 13.3587 63.2609 13.3599 63.2609 13.3599C63.4338 13.3504 63.5867 13.4739 63.6024 13.6443C63.6184 13.8235 63.4907 13.9691 63.3181 13.9875C63.3181 13.9875 61.495 14.3271 59.1462 14.668C58.2652 14.7948 57.3138 14.9358 56.3565 15.032C55.982 15.0674 55.6065 15.0937 55.235 15.1113C54.6573 15.1546 54.0907 15.1806 53.549 15.1989C51.1754 15.2797 49.3214 15.2698 49.3214 15.2698Z" fill="#283E37"/>
    <path fill-rule="evenodd" clip-rule="evenodd" d="M11.8826 24.9114C12.1888 24.8397 12.9435 24.5528 13.7275 24.239C14.4112 23.97 15.1039 23.6742 15.4999 23.4591C15.6788 23.3604 15.8514 23.3873 16.0081 23.4232C16.1791 23.468 16.3678 23.6115 16.4855 23.9074C16.5728 24.1225 16.6102 24.7232 16.4479 25.4136C16.3276 25.9336 16.1033 26.5074 15.7637 26.9826C15.3795 27.5205 14.8616 27.9419 14.2238 28.0943C13.315 28.2826 12.5265 27.8612 12.0264 27.1799C11.6139 26.615 11.3883 25.9336 11.4118 25.5301C11.4347 25.1446 11.6111 24.9204 11.8826 24.9114ZM16.0058 24.6604C16.0186 24.6515 16.0315 24.6514 16.0446 24.6425C16.0319 24.6514 16.019 24.6515 16.0058 24.6604ZM15.2185 24.3646C15.2276 24.3287 15.2423 24.2929 15.2218 24.2929C15.1801 24.3018 15.1913 24.3287 15.2185 24.3646ZM12.0809 25.4942C12.1109 25.4763 12.1263 25.4674 12.098 25.4584C12.0766 25.4494 12.0737 25.4673 12.0809 25.4942ZM12.0921 25.5301C12.1139 25.5839 12.1543 25.6556 12.1769 25.7184C12.3047 26.0501 12.6106 26.4626 12.9923 26.7405C13.246 26.9288 13.5511 27.0184 13.8751 26.9019C14.3098 26.7494 14.5534 26.3191 14.7601 25.9067C14.9211 25.575 15.0428 25.2343 15.1197 24.9384C14.777 25.0281 14.398 25.1267 14.02 25.2074C13.241 25.3688 12.4832 25.4943 12.0921 25.5301Z" fill="#283E37"/>
    <path fill-rule="evenodd" clip-rule="evenodd" d="M23.6633 21.0052C23.6843 20.6107 24.3692 19.5528 25.1009 18.71C25.4748 18.2797 25.8643 17.912 26.1524 17.7058C26.3588 17.5534 26.5508 17.4817 26.6846 17.4548C27.0865 17.3651 27.5466 17.4637 27.9674 17.6879C28.3125 17.8672 28.6266 18.1451 28.8415 18.4589C29.2502 19.0596 29.3176 19.7769 28.9176 20.3238C28.7288 20.5749 28.4106 20.8348 27.9756 21.0321C27.3891 21.2921 26.6052 21.4983 25.877 21.5969C24.9811 21.7135 24.1851 21.6687 23.9148 21.4983C23.7093 21.3638 23.6136 21.2025 23.6633 21.0052ZM26.9096 18.7638C26.9094 18.7638 26.909 18.7638 26.9087 18.7638C26.909 18.7638 26.9093 18.7638 26.9096 18.7638ZM24.4048 20.9066C24.4227 20.9066 24.4404 20.9066 24.4569 20.9066C24.9598 20.8797 25.7808 20.6376 26.5269 20.3328C27.0909 20.0997 27.6126 19.8486 27.7863 19.5527C27.7956 19.5438 27.7761 19.5258 27.7742 19.5079C27.77 19.472 27.7514 19.4362 27.7355 19.4003C27.6709 19.2568 27.5537 19.1224 27.4191 19.0148C27.2622 18.8803 27.0936 18.7458 26.9226 18.7638C26.8675 18.7907 26.7376 18.8534 26.6412 18.9162C26.3269 19.1224 25.9361 19.4183 25.562 19.75C25.1818 20.0817 24.8165 20.4224 24.5666 20.7183C24.5068 20.79 24.451 20.8528 24.4048 20.9066Z" fill="#283E37"/>
    <path fill-rule="evenodd" clip-rule="evenodd" d="M31.6915 10.7166C31.6865 10.6718 31.6754 10.6538 31.6521 10.6628C31.6519 10.6628 31.6517 10.6628 31.6515 10.6628C31.5782 10.5372 31.5974 10.3759 31.7062 10.2773C31.8323 10.1517 32.0313 10.1608 32.1505 10.2863C32.2175 10.349 32.3293 10.6808 32.3978 11.2277C32.557 12.5008 32.7278 15.2084 32.8428 18.1851C32.9174 20.1127 32.9787 22.1479 32.9978 23.968C33.0089 25.0259 32.999 26.0122 32.9884 26.855C32.9687 28.4419 32.9306 29.5447 32.9297 29.742C32.917 30.7641 32.7906 31.5351 32.5225 32.0551C32.1878 32.7006 31.6804 33.0503 30.9196 33.0593L25.1101 33.6241C24.9371 33.6331 24.7874 33.5076 24.7761 33.3283C24.7647 33.1579 24.896 33.0055 25.0691 32.9965C25.544 32.9517 28.0889 32.4406 29.6617 32.1627C30.2285 32.0641 30.6738 31.9923 30.8668 31.9744C31.1617 31.9564 31.3462 31.804 31.4607 31.544C31.641 31.1316 31.6703 30.5398 31.6367 29.7598C31.6298 29.5626 31.5988 28.4509 31.5821 26.855C31.5733 26.0122 31.5641 25.0259 31.5719 23.968C31.5845 22.2734 31.6265 20.3907 31.6589 18.5796C31.6948 16.5713 31.7376 14.6525 31.7388 13.1911C31.7395 12.2676 31.7302 11.5235 31.6979 11.0662C31.689 10.9317 31.7013 10.7883 31.6915 10.7166ZM31.6915 10.7166C31.6771 10.6987 31.6254 10.6717 31.6515 10.6628C31.6627 10.6807 31.6761 10.6987 31.6915 10.7166Z" fill="#283E37"/>
    <path fill-rule="evenodd" clip-rule="evenodd" d="M32.0979 11.0382C32.2703 11.0561 32.3944 11.2175 32.3751 11.3879C32.3557 11.5582 32.2001 11.6837 32.0277 11.6658C31.2917 11.621 30.491 11.8003 29.7589 12.0603C28.9114 12.3562 28.167 12.7775 27.7578 13.1272C27.122 13.6472 26.2635 14.9562 25.473 16.319C25.1255 16.9108 24.7945 17.5205 24.5075 18.0853C24.1593 18.7757 23.8699 19.3943 23.7431 19.8605C23.404 21.0171 23.1561 22.5951 22.9718 24.1013C22.7392 26.011 22.6089 27.7862 22.6386 28.4586C22.6544 28.629 22.5272 28.7815 22.3545 28.7994C22.1817 28.8084 22.0286 28.6828 22.0127 28.5125C21.9165 27.8311 21.8467 25.993 21.9233 24.0206C21.985 22.4247 22.1535 20.7571 22.4236 19.5198C22.5517 18.9819 22.8311 18.2466 23.2275 17.4487C23.527 16.848 23.8919 16.2024 24.2857 15.5928C25.2274 14.1134 26.3296 12.7686 27.0724 12.2396C27.5851 11.881 28.4876 11.4596 29.505 11.2086C30.356 11.0023 31.2776 10.9037 32.0979 11.0382Z" fill="#283E37"/>
    <path fill-rule="evenodd" clip-rule="evenodd" d="M17.0879 35.8886C16.7353 35.8438 16.486 35.6734 16.3159 35.4492C16.0291 35.0637 15.9737 34.49 16.0248 34.1134C16.0409 33.9431 16.1943 33.8085 16.367 33.8265C16.5397 33.8444 16.6667 33.9968 16.6506 34.1672C16.6394 34.3823 16.6723 34.6693 16.8036 34.9024C16.8875 35.0458 17.0346 35.1355 17.2601 35.1265C17.6228 35.1086 17.8122 34.8934 17.922 34.6334C18.0739 34.2748 18.0821 33.8354 18.0824 33.4947C18.0876 32.0692 18.5583 30.5181 19.38 29.4153C20.0561 28.5008 20.9781 27.9091 22.0493 27.8105C23.3784 27.7029 24.3562 28.2408 25.001 29.1374C25.3462 29.6126 25.5922 30.2132 25.7275 30.8767C25.8919 31.6836 25.8938 32.5981 25.7452 33.5216C25.4976 34.9651 24.9106 36.4086 23.9873 37.368C23.2777 38.1121 22.3854 38.5873 21.3137 38.6232C20.2901 38.659 19.3361 38.3721 18.5952 37.8879C17.793 37.3679 17.2374 36.6417 17.0879 35.8886ZM17.7558 35.8527C17.9411 36.3817 18.4089 36.8479 19.0163 37.1886C19.6415 37.5293 20.4261 37.7087 21.2502 37.628C22.2208 37.5383 22.9424 36.9376 23.4629 36.1217C23.9744 35.3327 24.2819 34.3286 24.404 33.3244C24.5464 32.2575 24.4457 31.2174 24.091 30.4195C23.7435 29.6395 23.1179 29.1105 22.1428 29.1643C21.2489 29.2091 20.5295 29.8277 20.0065 30.6526C19.4732 31.4953 19.1309 32.5354 19.0622 33.5306C19.023 34.0775 18.9171 34.8217 18.5413 35.3058C18.3473 35.5569 18.0951 35.763 17.7558 35.8527Z" fill="#283E37"/>
    <path fill-rule="evenodd" clip-rule="evenodd" d="M23.943 32.7532C24.0047 32.9146 23.9232 33.0939 23.7611 33.1567C23.5991 33.2194 23.4174 33.1387 23.3556 32.9774C23.0489 32.3856 22.666 32.1076 22.2758 32.1345C22.1346 32.1435 22.0136 32.2332 21.8856 32.3229C21.6884 32.4753 21.5331 32.7174 21.397 33.0222C21.2225 33.3539 21.1924 33.7394 21.1892 34.0981C21.185 34.5643 21.2273 34.9857 21.3364 35.2008C21.4848 35.5146 21.7591 35.694 22.0514 35.6582C22.3962 35.6133 22.7356 35.3802 22.9028 34.9319C22.9454 34.7615 23.1166 34.6629 23.2847 34.7077C23.4528 34.7436 23.5546 34.914 23.5119 35.0843C23.3924 35.9181 22.8525 36.4023 22.2772 36.5996C21.5638 36.8506 20.7665 36.5637 20.2515 35.8375C20.0386 35.5147 19.7893 34.8602 19.7671 34.116C19.7498 33.5333 19.8866 32.9056 20.1909 32.3677C20.7943 31.4353 21.5934 30.969 22.3237 31.0677C22.9832 31.1663 23.6565 31.6504 23.943 32.7532Z" fill="#283E37"/>
    <path fill-rule="evenodd" clip-rule="evenodd" d="M22.5078 28.2296C22.6485 28.3372 22.6803 28.5345 22.5789 28.669C22.4774 28.8124 22.2809 28.8483 22.1402 28.7407C21.431 28.2834 20.5596 28.7855 19.7608 29.5655C18.7321 30.5787 17.8545 32.1476 17.7284 33.4029C17.648 34.1111 17.1948 34.5594 16.5364 34.8194C16.0692 35.0077 15.4757 35.0884 14.8908 35.0973C14.339 35.1153 13.7971 35.0705 13.4097 35.0436C12.6607 34.9898 11.6552 34.9001 10.5511 34.7477C9.64781 34.6312 8.67987 34.4877 7.73031 34.3263C5.10989 33.887 2.64557 33.3759 2.09535 33.1428C1.9328 33.089 1.84995 32.9007 1.91038 32.7394C1.9709 32.578 2.15192 32.4973 2.31447 32.56C2.78508 32.7035 4.6218 32.9008 6.74524 33.107C8.07432 33.2325 9.5109 33.3491 10.8005 33.4477C11.8383 33.5284 12.7776 33.6 13.4837 33.618C14.0578 33.6538 15.009 33.7525 15.7584 33.609C15.9508 33.5732 16.1296 33.5283 16.2659 33.4387C16.3423 33.3849 16.4095 33.3222 16.4261 33.2235C16.6893 31.7532 17.8163 29.942 19.1309 28.8661C20.3099 27.8978 21.6062 27.5123 22.5078 28.2296Z" fill="#283E37"/>
    <path fill-rule="evenodd" clip-rule="evenodd" d="M16.3348 34.1623C16.7318 34.0009 17.018 33.7409 17.0774 33.3106C17.4272 30.8002 20.5545 27.2049 22.3241 28.487C22.2492 28.487 22.1726 28.487 22.0946 28.4959C20.0066 28.6394 18.6531 31.2305 18.5708 33.5168C18.5439 34.2609 18.409 35.4354 17.3602 35.5161C17.3284 35.5161 17.2958 35.5161 17.2623 35.5161C16.431 35.5251 16.2928 34.6554 16.3348 34.1623Z" fill="#283E37"/>
    <path fill-rule="evenodd" clip-rule="evenodd" d="M1.28383 31.9874C1.44925 32.0412 1.54133 32.2206 1.48933 32.382C1.43732 32.5523 1.26079 32.6419 1.09528 32.5882C0.820034 32.5075 0.58047 32.2564 0.407073 31.844C0.220137 31.4047 0.102148 30.7592 0.0438707 30.006C-0.118588 27.917 0.193778 25.0569 0.592663 23.9631C0.825682 23.3265 1.31925 22.6989 1.95922 22.1072C3.11679 21.0402 4.77294 20.0719 5.99407 19.3009C6.09224 19.2381 6.21651 19.0678 6.39026 18.8526C6.68909 18.4671 7.06 17.9381 7.4848 17.3284C8.54572 15.7953 9.90716 13.7421 11.2027 12.0835C12.3137 10.6579 13.4027 9.52823 14.1868 9.14271C14.4688 8.99925 14.9873 8.87372 15.686 8.81096C16.9594 8.68544 18.9079 8.67645 20.9958 8.74818C25.1758 8.89163 29.9113 9.33995 30.8513 9.59099C31.0197 9.63582 31.1225 9.80616 31.0808 9.9765C31.0391 10.1469 30.8686 10.2455 30.7003 10.2006C29.7653 9.99444 25.0935 9.80619 20.9811 9.83309C18.9537 9.85102 17.0646 9.91376 15.8338 10.0841C15.3484 10.1469 14.9827 10.2096 14.7891 10.3172C14.317 10.5682 13.7508 11.178 13.1114 11.94C11.9375 13.3477 10.6054 15.3021 9.45224 16.9518C8.66209 18.0815 7.94914 19.0767 7.43979 19.6864C7.12267 20.063 6.85639 20.314 6.6804 20.4216C5.65355 21.0223 4.31703 21.7486 3.22877 22.5645C2.47905 23.1203 1.83854 23.7031 1.57091 24.3486C1.20583 25.2093 0.863608 27.3252 0.809903 29.1453C0.784082 30.0239 0.819765 30.8309 0.965907 31.3957C1.04454 31.6916 1.11357 31.9336 1.28383 31.9874Z" fill="#283E37"/>
    <path fill-rule="evenodd" clip-rule="evenodd" d="M27.0131 10.5271C27.1791 10.4823 27.3546 10.572 27.4047 10.7423C27.4548 10.9037 27.3608 11.083 27.1947 11.1278C26.7616 11.3071 26.2207 11.6927 25.7073 12.1499C25.2489 12.5534 24.8323 13.0286 24.5826 13.4769C24.3867 13.8086 24.1439 14.3107 23.8411 14.8934C23.6832 15.1893 23.514 15.5211 23.3238 15.8528C22.8839 16.6149 22.3739 17.4308 21.8616 18.1839C20.9305 19.5646 19.9772 20.7122 19.3474 21.0529C19.2015 21.1515 19.0069 21.1067 18.9132 20.9633C18.8194 20.8108 18.8617 20.6225 19.0076 20.5239C19.3019 20.2998 19.6217 19.7978 19.9907 19.1612C20.3774 18.4977 20.7779 17.6907 21.1921 16.8659C21.4567 16.3459 21.7195 15.8169 21.9849 15.3148C22.1771 14.9562 22.372 14.6155 22.5586 14.3017C22.936 13.6652 23.2839 13.1361 23.5344 12.7865C23.9168 12.2844 24.4913 11.7733 25.1245 11.3788C25.7902 10.9574 26.4887 10.6347 27.0131 10.5271Z" fill="#283E37"/>
    <path fill-rule="evenodd" clip-rule="evenodd" d="M17.9803 20.2884C18.1525 20.2704 18.309 20.3959 18.3296 20.5663C18.3501 20.7366 18.227 20.898 18.0548 20.916C17.5646 21.0236 16.2145 21.0952 14.552 21.0594C14.1107 21.0504 13.65 21.0325 13.1779 21.0056C12.8766 20.9877 12.5711 20.9608 12.266 20.9249C11.5005 20.8352 10.7344 20.7008 10.0067 20.5753C8.642 20.3153 7.4362 20.0283 6.6439 19.849C6.47211 19.8221 6.35215 19.6697 6.37609 19.4904C6.40012 19.32 6.55908 19.2035 6.73086 19.2304C7.53796 19.2663 8.77012 19.2842 10.1481 19.3559C10.8825 19.3918 11.6534 19.4277 12.4164 19.4994C12.7199 19.5263 13.0206 19.5711 13.3173 19.607C13.7813 19.6698 14.2328 19.7415 14.6641 19.8132C16.2327 20.0642 17.5013 20.3063 17.9803 20.2884Z" fill="#283E37"/>
    <path fill-rule="evenodd" clip-rule="evenodd" d="M22.196 15.9013C22.3568 15.8296 22.5401 15.9103 22.6051 16.0717C22.67 16.2331 22.5922 16.4124 22.4313 16.4841C22.4313 16.4841 21.1934 17.1655 19.5603 17.9814C19.1886 18.1607 18.7959 18.3491 18.3916 18.5284C18.132 18.6449 17.8693 18.7615 17.6011 18.869C16.9144 19.1291 16.2176 19.3621 15.5694 19.5773C13.8372 20.1332 12.4691 20.5008 12.4691 20.5008C12.3083 20.5726 12.125 20.4918 12.0601 20.3304C11.9951 20.1691 12.0729 19.9898 12.2337 19.9181C12.2337 19.9181 13.4745 19.2367 15.1107 18.4387C15.7229 18.1339 16.3853 17.82 17.0641 17.5331C17.3293 17.4255 17.6 17.327 17.8675 17.2283C18.2844 17.0759 18.6944 16.9414 19.0897 16.8159C20.8267 16.26 22.196 15.9013 22.196 15.9013Z" fill="#283E37"/>
    <path fill-rule="evenodd" clip-rule="evenodd" d="M24.5151 12.2678C24.6882 12.2857 24.8194 12.4292 24.8078 12.6085C24.7963 12.7788 24.6464 12.9133 24.4734 12.8954C24.4734 12.8954 22.8698 12.9671 20.8097 12.9671C20.3402 12.9671 19.8492 12.9582 19.3478 12.9402C19.0259 12.9313 18.7001 12.9223 18.3752 12.8954C17.5442 12.8326 16.7185 12.7251 15.9536 12.6264C13.9119 12.3664 12.3305 12.0885 12.3305 12.0885C12.1575 12.0795 12.0263 11.9271 12.0378 11.7567C12.0494 11.5864 12.1992 11.4519 12.3722 11.4609C12.3722 11.4609 13.9763 11.3982 16.0349 11.4071C16.8061 11.4071 17.6381 11.4161 18.4705 11.4609C18.7958 11.4788 19.1202 11.5147 19.4407 11.5505C19.9398 11.5954 20.4278 11.6491 20.8931 11.7119C22.9348 11.9898 24.5151 12.2678 24.5151 12.2678Z" fill="#283E37"/>
    <path fill-rule="evenodd" clip-rule="evenodd" d="M21.8596 12.1229C22.0217 12.0601 22.2034 12.1408 22.2653 12.3022C22.3273 12.4636 22.2461 12.6429 22.0841 12.7056C22.0841 12.7056 20.3169 13.5753 18.018 14.5974C17.4931 14.8305 16.9398 15.0726 16.3723 15.3057C16.0076 15.4581 15.6386 15.6105 15.2643 15.745C14.3072 16.1036 13.3396 16.4174 12.4416 16.7133C10.0482 17.4933 8.15695 18.0312 8.15695 18.0312C7.99494 18.094 7.81312 18.0133 7.75125 17.8519C7.6893 17.6905 7.77053 17.5023 7.93254 17.4485C7.93254 17.4485 9.70211 16.5878 12.0042 15.5657C12.868 15.1891 13.8028 14.7767 14.7523 14.4091C15.1238 14.2567 15.5003 14.1311 15.8727 13.9967C16.452 13.7904 17.022 13.6022 17.5694 13.4229C19.9672 12.6608 21.8596 12.1229 21.8596 12.1229Z" fill="#283E37"/>
    <path fill-rule="evenodd" clip-rule="evenodd" d="M17.5486 11.8281C17.7133 11.7743 17.8911 11.864 17.9452 12.0254C17.9994 12.1958 17.9096 12.3751 17.7448 12.4289C17.7448 12.4289 16.8406 12.9041 15.6279 13.451C15.3536 13.5765 15.0641 13.6931 14.7643 13.8096C14.5724 13.8903 14.378 13.962 14.179 14.0247C13.6687 14.1772 13.1517 14.3028 12.6698 14.4103C11.3745 14.6972 10.3616 14.8586 10.3616 14.8586C10.1969 14.9124 10.0191 14.8227 9.965 14.6524C9.91084 14.491 10.0006 14.3117 10.1654 14.2579C10.1654 14.2579 11.0724 13.7827 12.2872 13.2448C12.7392 13.0476 13.2274 12.8413 13.7312 12.662C13.9277 12.5903 14.1286 12.5365 14.3273 12.4827C14.6375 12.402 14.9413 12.3213 15.2355 12.2586C16.5354 11.9806 17.5486 11.8281 17.5486 11.8281Z" fill="#283E37"/>
    <path fill-rule="evenodd" clip-rule="evenodd" d="M10.8516 24.3678C11.0246 24.3768 11.154 24.5292 11.1407 24.6996C11.1272 24.8789 10.976 25.0044 10.8031 24.9954C10.8031 24.9954 9.54461 25.0672 7.90639 25.0672C7.53566 25.0672 7.14843 25.0582 6.75152 25.0403C6.49761 25.0313 6.24038 25.0223 5.98405 24.9954C5.33152 24.9237 4.6833 24.8161 4.07803 24.7085C2.7571 24.4665 1.66714 24.1975 1.2185 24.054C1.04868 24.0182 0.93984 23.8568 0.975524 23.6865C1.01112 23.5161 1.17788 23.4085 1.3476 23.4444C1.80324 23.4892 2.89428 23.4623 4.19879 23.4892C4.8099 23.4982 5.46224 23.5161 6.11253 23.5609C6.36859 23.5789 6.62277 23.6147 6.87372 23.6506C7.26633 23.6954 7.64827 23.7582 8.01237 23.821C9.62351 24.0989 10.8516 24.3678 10.8516 24.3678Z" fill="#283E37"/>
    <path fill-rule="evenodd" clip-rule="evenodd" d="M8.72449 25.5737C8.89762 25.5647 9.04645 25.6992 9.05658 25.8695C9.06671 26.0488 8.93438 26.1923 8.76125 26.2013C8.76125 26.2013 7.78174 26.4254 6.32661 26.5419C6.01774 26.5688 5.6904 26.5778 5.34593 26.5778C5.13291 26.5778 4.91397 26.5778 4.69188 26.5599C4.16416 26.5151 3.61922 26.4254 3.0707 26.2999C2.25948 26.1205 1.46861 25.8695 0.706616 25.5737C0.538419 25.5288 0.436031 25.3584 0.478259 25.1881C0.520398 25.0177 0.691285 24.9191 0.859482 24.9639C1.63457 25.0536 2.42759 25.0626 3.22132 25.0895C3.75783 25.0984 4.28367 25.1074 4.78925 25.1254C5.00282 25.1433 5.21118 25.1612 5.41443 25.1791C5.74491 25.215 6.05844 25.2509 6.35485 25.2867C7.76139 25.4661 8.72449 25.5737 8.72449 25.5737Z" fill="#283E37"/>
    <path fill-rule="evenodd" clip-rule="evenodd" d="M11.0709 27.4821C11.2441 27.4731 11.392 27.6076 11.4011 27.7779C11.4102 27.9572 11.2768 28.1007 11.1036 28.1097C10.7611 28.1635 9.49077 28.3338 7.88509 28.4144C7.4733 28.4324 7.04196 28.4414 6.59887 28.4414C6.31591 28.4324 6.02865 28.4324 5.74112 28.4144C5.01722 28.3606 4.291 28.271 3.60351 28.1545C2.30097 27.9303 1.15802 27.6255 0.428025 27.3027C0.263504 27.2489 0.174295 27.0696 0.228986 26.9082C0.283677 26.7468 0.461647 26.6572 0.626258 26.7109C1.10162 26.8185 1.7346 26.8634 2.46585 26.8993C3.05086 26.9262 3.68716 26.9351 4.34937 26.9441C4.76475 26.9531 5.18704 26.9531 5.60878 26.971C6.03349 26.9889 6.45614 27.0248 6.86802 27.0606C7.46164 27.1055 8.02881 27.1682 8.55026 27.222C9.81712 27.3565 10.7787 27.4731 11.0709 27.4821Z" fill="#283E37"/>
    <path fill-rule="evenodd" clip-rule="evenodd" d="M14.9612 31.358C15.1327 31.3311 15.2929 31.4566 15.3189 31.627C15.3448 31.7973 15.2267 31.9587 15.0552 31.9856C14.6482 32.0753 12.8285 32.12 10.5733 32.0483C10.0075 32.0304 9.41625 31.9945 8.81322 31.9586C8.4259 31.9317 8.03409 31.9049 7.64355 31.86C6.64772 31.7524 5.6571 31.609 4.73686 31.4566C2.63735 31.1159 0.923282 30.7573 0.387849 30.6228C0.21732 30.5959 0.104532 30.4255 0.136181 30.2551C0.16774 30.0848 0.331903 29.9772 0.502431 30.0041C1.0445 30.0669 2.77202 30.1207 4.86802 30.2373C5.7949 30.2911 6.79055 30.3448 7.78422 30.4344C8.17378 30.4703 8.56173 30.5151 8.94519 30.5689C9.54186 30.6407 10.1254 30.7124 10.6828 30.7931C11.6649 30.9365 12.556 31.071 13.2833 31.1697C14.1404 31.2952 14.7457 31.3759 14.9612 31.358Z" fill="#283E37"/>
    <path fill-rule="evenodd" clip-rule="evenodd" d="M2.82926 33.1104C2.80514 32.9401 2.92501 32.7787 3.09671 32.7518C3.26849 32.7339 3.42754 32.8504 3.45166 33.0208C3.61277 33.6215 3.89008 34.0608 4.21016 34.4105C4.55319 34.787 4.98552 35.0022 5.44393 35.1546C5.7277 35.2532 6.02438 35.3071 6.32527 35.3519C6.63907 35.3967 6.95466 35.4326 7.269 35.4415C8.02589 35.4595 8.7513 35.3698 9.3009 35.1726C9.60941 35.056 9.8644 34.9574 10.0109 34.796C10.1143 34.6615 10.3113 34.6346 10.4506 34.7332C10.5898 34.8408 10.6189 35.0381 10.5154 35.1726C10.1858 35.7374 9.17117 36.3561 7.92995 36.6519C7.48606 36.7595 7.01554 36.8043 6.54385 36.7953C6.33925 36.7953 6.13457 36.7774 5.93373 36.7416C5.40987 36.6519 4.90447 36.4636 4.46335 36.1857C4.14597 35.9884 3.85422 35.7464 3.61672 35.4415C3.16036 34.8588 2.848 34.1056 2.82926 33.1104Z" fill="#283E37"/>
    <path fill-rule="evenodd" clip-rule="evenodd" d="M30.6287 11.388C30.6148 11.2177 30.744 11.0653 30.9168 11.0473C31.0898 11.0384 31.2413 11.1638 31.2552 11.3342C31.3698 11.9169 31.4627 12.6253 31.5188 13.3874C31.552 13.8356 31.5696 14.2929 31.575 14.7411C31.5785 15.037 31.5759 15.315 31.5647 15.5929C31.5526 15.8888 31.5348 16.1757 31.5053 16.4357C31.4108 17.2875 31.2706 17.933 31.2171 18.1481C31.0221 18.8475 30.6684 19.3765 30.1642 19.6813C29.6686 19.9862 29.074 20.1206 28.4388 20.0041C28.2659 19.9861 28.1362 19.8337 28.1494 19.6634C28.1625 19.493 28.3137 19.3585 28.4867 19.3765C28.9233 19.3585 29.2955 19.1882 29.5822 18.9192C29.8318 18.6861 29.9623 18.3454 29.9988 17.933C30.0179 17.7627 30.0237 17.3412 30.0541 16.7764C30.0671 16.5343 30.081 16.2654 30.1086 15.9874C30.1642 15.4136 30.2431 14.786 30.3241 14.1405C30.4506 13.1453 30.6065 12.1591 30.6287 11.388Z" fill="#283E37"/>
    <path fill-rule="evenodd" clip-rule="evenodd" d="M32.1168 26.4615C31.9703 26.3629 31.9266 26.1747 32.0195 26.0222C32.1123 25.8788 32.3066 25.8339 32.4531 25.9236C32.4531 25.9236 32.9994 26.2284 33.799 26.3987C34.2107 26.4884 34.6899 26.5332 35.1979 26.4795C35.4073 26.4526 36.7312 26.2374 38.6551 25.9326C39.6759 25.7712 40.8621 25.5829 42.1401 25.3946C42.8897 25.287 43.6702 25.1794 44.4672 25.0718C45.2346 24.9732 46.0169 24.8745 46.8 24.7849C48.3981 24.6056 49.9968 24.4532 51.4773 24.3097C55.4152 23.9421 58.505 23.6911 58.505 23.6911C58.6771 23.6642 58.8346 23.7898 58.8566 23.9601C58.8786 24.1305 58.7568 24.2918 58.5848 24.3097C58.5848 24.3097 54.7781 24.9732 50.2313 25.6905C49.1436 25.8608 48.0145 26.0401 46.8835 26.1925C46.1341 26.3001 45.3845 26.3987 44.6462 26.4884C42.9755 26.6856 41.3683 26.847 39.9701 26.9815C37.3818 27.2325 35.509 27.3671 35.2552 27.376C34.6486 27.385 34.0857 27.2864 33.6079 27.143C32.7089 26.865 32.1168 26.4615 32.1168 26.4615Z" fill="#283E37"/>
    <path fill-rule="evenodd" clip-rule="evenodd" d="M58.8998 1.57876C58.363 1.52497 57.3893 1.49805 56.0887 1.47116C53.2276 1.41736 48.8167 1.42638 43.9826 1.43535C41.0252 1.43535 37.91 1.42633 34.8939 1.42633C31.6408 1.43529 28.5039 1.4443 25.8055 1.46223C22.3196 1.48912 19.569 1.53397 18.2531 1.61466C17.9976 1.62363 17.7337 1.65049 17.6193 1.66842C17.59 1.73118 17.5381 1.85668 17.5113 1.96427C17.3607 2.54705 17.2851 3.51538 17.2475 4.55541C17.1634 6.88651 17.2765 9.59418 17.2765 9.59418C17.2865 9.76453 17.154 9.91697 16.9809 9.92593C16.8078 9.9349 16.659 9.80034 16.6491 9.62999C16.6491 9.62999 16.3334 5.28166 16.5285 2.82504C16.5783 2.19744 16.6682 1.68637 16.7913 1.37257C16.8924 1.11256 17.0377 0.960144 17.1744 0.879453C17.2397 0.84359 17.466 0.780829 17.8436 0.744966C18.6222 0.664275 20.2424 0.565651 22.4127 0.475994C25.5842 0.350473 29.9353 0.215952 34.5437 0.126294C37.2135 0.0724998 39.9692 0.0276886 42.6314 0.00975708C45.3166 -0.00817443 47.9066 0.00084386 50.2163 0.0187754C53.4812 0.0546384 56.1877 0.126294 57.8184 0.215952C58.6084 0.260781 59.1591 0.305662 59.4184 0.359457C59.7804 0.431183 59.9391 0.619446 59.9881 0.700138C60.0347 0.771864 60.1256 1.02292 60.1549 1.43535C60.2054 2.14364 60.218 3.64089 60.198 5.5237C60.1286 12.0956 59.7107 23.5269 59.7107 23.5269C59.7071 23.6973 59.5634 23.8407 59.39 23.8318C59.2166 23.8318 59.0787 23.6884 59.0823 23.5091C59.0823 23.5091 59.1127 16.2826 59.0769 10.0245C59.0573 6.59064 59.0186 3.44362 58.9308 1.96427C58.923 1.82979 58.9112 1.69532 58.8998 1.57876Z" fill="#283E37"/>
    <path fill-rule="evenodd" clip-rule="evenodd" d="M34.7367 0.766926C34.7357 0.596577 34.8756 0.453125 35.0491 0.453125C35.2225 0.453125 35.3642 0.596577 35.3652 0.766926C35.3652 0.766926 35.5611 4.20978 35.7247 8.61196C35.7622 9.61613 35.7914 10.6741 35.8143 11.75C35.8291 12.4403 35.8438 13.1397 35.8438 13.839C35.8437 15.6321 35.808 17.4163 35.7697 19.075C35.6678 23.4682 35.5171 26.92 35.5171 26.92C35.5181 27.0904 35.3781 27.2339 35.2047 27.2339C35.0313 27.2339 34.8896 27.0994 34.8886 26.92C34.8886 26.92 34.6979 23.4772 34.5449 19.075C34.4873 17.4253 34.4309 15.6411 34.41 13.848C34.4019 13.1487 34.4084 12.4494 34.4152 11.759C34.4256 10.6831 34.4426 9.62514 34.4683 8.62098C34.5808 4.21879 34.7367 0.766926 34.7367 0.766926Z" fill="#283E37"/>
    <path fill-rule="evenodd" clip-rule="evenodd" d="M51.3749 28.8809C51.3982 29.0513 51.2775 29.2037 51.1057 29.2306C50.9338 29.2575 50.7754 29.132 50.7521 28.9617C50.5792 28.2534 50.298 27.8679 49.978 27.7244C49.9023 27.6885 49.825 27.7154 49.7508 27.7333C49.5422 27.7782 49.4081 28.0023 49.3084 28.2713C49.0895 28.7913 49.0318 29.2755 49.0345 29.7237C49.0377 30.2527 49.1312 30.7189 49.3503 31.0596C49.4731 31.2658 49.7422 31.3375 49.9969 31.1493C50.2821 30.943 50.5604 30.5844 50.7637 29.9837C50.8028 29.8134 50.9718 29.7058 51.1407 29.7417C51.3097 29.7865 51.4151 29.9569 51.376 30.1272C51.2289 31.2569 50.739 31.8666 50.2652 32.1625C49.5651 32.5928 48.8037 32.3328 48.3399 31.7859C47.9419 31.2838 47.6331 30.5755 47.6071 29.7506C47.5875 29.123 47.7481 28.4326 48.0963 27.7154C48.5346 26.9264 49.2495 26.4961 49.9149 26.6126C50.1432 26.6574 50.3724 26.7291 50.5733 26.8905C50.9714 27.2223 51.3435 27.8319 51.3749 28.8809Z" fill="#283E37"/>
    <path fill-rule="evenodd" clip-rule="evenodd" d="M45.5906 30.4228C45.5907 30.4228 45.591 30.4228 45.5914 30.4228C45.5968 30.4318 45.6019 30.4318 45.6064 30.4318C45.6162 30.4318 45.6228 30.4229 45.6228 30.4139C45.6228 30.4139 45.622 30.4139 45.6204 30.4139C45.636 30.387 45.6446 30.3153 45.6532 30.2794C45.7584 29.8222 45.902 29.1676 46.1507 28.4683C46.357 27.8855 46.6233 27.2759 46.9711 26.72C47.4604 25.9489 48.082 25.2765 48.8881 24.9358C49.0416 24.8551 49.2317 24.9089 49.3127 25.0613C49.3936 25.2227 49.3347 25.411 49.1813 25.4917C48.5752 25.8772 48.183 26.5137 47.8812 27.2041C47.6505 27.7331 47.4976 28.298 47.3714 28.8269C47.211 29.4994 47.1099 30.118 47.0459 30.5394C46.8355 31.6422 46.0161 31.9829 45.2926 31.8036C44.7245 31.6601 44.1374 31.1401 44.0346 30.2704C43.9446 29.329 44.0537 28.4056 44.3463 27.5897C44.6764 26.6662 45.1969 25.8861 45.8092 25.3661C45.9324 25.2496 46.1316 25.2496 46.2536 25.3751C46.3757 25.4917 46.3747 25.6978 46.2515 25.8144C45.8087 26.3254 45.4935 27.0517 45.3256 27.8587C45.1821 28.549 45.1718 29.3111 45.3389 30.0642C45.3671 30.2077 45.4408 30.3063 45.5231 30.378C45.5396 30.3959 45.5682 30.4139 45.5906 30.4228ZM45.5906 30.4228C45.5855 30.4139 45.6122 30.4049 45.6204 30.4139C45.6163 30.4229 45.6116 30.4228 45.6064 30.4318C45.6018 30.4318 45.5963 30.4228 45.5906 30.4228Z" fill="#283E37"/>
    <path fill-rule="evenodd" clip-rule="evenodd" d="M49.0331 25.2109C47.1763 26.1882 46.5914 29.1379 46.348 30.4021C46.1357 31.5138 44.8592 31.2718 44.6852 30.169C44.3988 28.3489 45.0495 26.5557 46.0288 25.5874C47.0319 25.4619 48.0432 25.3365 49.0331 25.2109Z" fill="#283E37"/>
    <path fill-rule="evenodd" clip-rule="evenodd" d="M32.3255 29.7907C32.1537 29.8176 31.9945 29.701 31.97 29.5217C31.9455 29.3514 32.065 29.1899 32.2367 29.172C32.2367 29.172 33.8596 28.7596 35.9608 28.3203C36.4399 28.2216 36.943 28.1231 37.4582 28.0334C37.789 27.9796 38.1237 27.9168 38.4606 27.872C39.3224 27.7644 40.1864 27.6837 40.9877 27.6209C43.1259 27.4416 44.7983 27.3789 44.7983 27.3789C44.97 27.352 45.1293 27.4685 45.1538 27.6478C45.1783 27.8182 45.0588 27.9796 44.8871 27.9975C44.8871 27.9975 43.2627 28.401 41.1607 28.8313C40.3729 28.9927 39.5219 29.1631 38.6631 29.2976C38.3273 29.3424 37.9896 29.3873 37.6558 29.4231C37.1359 29.4769 36.6262 29.5307 36.1382 29.5665C33.9978 29.7279 32.3255 29.7907 32.3255 29.7907Z" fill="#283E37"/>
    <path fill-rule="evenodd" clip-rule="evenodd" d="M31.9831 31.1067C31.8746 30.9722 31.8964 30.766 32.0317 30.6584C32.167 30.5509 32.3649 30.5777 32.4734 30.7122C32.9241 31.1336 33.4246 31.3398 33.9319 31.4654C34.1873 31.5192 34.4422 31.5371 34.6985 31.5371C34.9549 31.5371 35.2069 31.5012 35.4586 31.4563C35.7686 31.4025 36.0757 31.3398 36.3671 31.2233C36.5689 31.1515 36.7669 31.0708 36.9531 30.9632C37.4459 30.6763 37.8811 30.3177 38.1607 29.8336C38.2265 29.6722 38.4103 29.6004 38.5707 29.6632C38.7311 29.7349 38.808 29.9143 38.7422 30.0757C38.5932 30.6584 38.2872 31.1695 37.8836 31.6267C37.6149 31.9316 37.2944 32.1826 36.9425 32.3977C36.5642 32.6219 36.1445 32.7833 35.7097 32.873C35.4751 32.9178 35.2348 32.9268 34.9957 32.9178C34.6371 32.9089 34.2786 32.855 33.937 32.7295C33.174 32.4516 32.4824 31.9405 31.9831 31.1067Z" fill="#283E37"/>
    <path fill-rule="evenodd" clip-rule="evenodd" d="M50.6213 25.1944C50.5036 25.0689 50.5114 24.8627 50.6387 24.7461C50.766 24.6296 50.965 24.6386 51.0828 24.7641C52.5132 26.1269 53.1098 27.66 53.2301 29.0766C53.3233 30.1794 53.1143 31.2105 52.7764 32.0532C52.4663 32.8243 52.0271 33.434 51.6259 33.8195C51.183 34.223 50.585 34.4919 49.9008 34.5816C49.106 34.6802 48.2012 34.5636 47.3817 34.205C46.1339 33.6581 45.067 32.6001 44.8916 31.058C44.8613 30.8876 44.9753 30.7263 45.1461 30.6904C45.3169 30.6635 45.4801 30.7801 45.5104 30.9505C45.7995 32.1429 46.739 32.8601 47.7677 33.1829C48.3021 33.3443 48.8625 33.3891 49.3769 33.3353C49.8872 33.2815 50.347 33.1112 50.6464 32.7974C50.939 32.5194 51.2266 32.0621 51.4731 31.5063C51.7718 30.8338 52.0025 30.018 52.0166 29.1214C52.036 27.8841 51.6988 26.5214 50.6213 25.1944Z" fill="#283E37"/>
    <path fill-rule="evenodd" clip-rule="evenodd" d="M59.1251 25.4453C59.2973 25.4273 59.4539 25.5528 59.4746 25.7232C59.4952 25.8935 59.3722 26.0549 59.2 26.0729C59.2 26.0729 58.2925 26.3598 57.0874 26.6377C56.8152 26.7094 56.5302 26.7632 56.236 26.817C56.0477 26.8529 55.8571 26.8798 55.6647 26.8977C55.1709 26.9515 54.6778 26.9605 54.2189 26.9694C52.9831 26.9874 52.0334 26.9335 52.0334 26.9335C51.8611 26.9515 51.7046 26.826 51.6839 26.6556C51.6633 26.4853 51.7863 26.3328 51.9585 26.3059C51.9585 26.3059 52.8678 26.0281 54.0729 25.7501C54.5205 25.6515 55.0027 25.5439 55.4938 25.4812C55.6853 25.4543 55.8784 25.4363 56.0692 25.4273C56.3674 25.4094 56.658 25.4005 56.9377 25.3915C58.1762 25.3825 59.1251 25.4453 59.1251 25.4453Z" fill="#283E37"/>
    <path fill-rule="evenodd" clip-rule="evenodd" d="M49.1204 33.9759C41.0165 35.2849 26.6878 37.5801 25.1568 37.8401C21.6111 38.4498 15.4383 38.9071 10.4735 38.3871C7.47821 38.0733 4.45048 37.9657 3.35765 37.4457C2.31718 36.9436 2.94128 36.3249 5.33531 35.8497C6.97676 36.4235 9.06586 35.9394 9.96002 35.2759C10.4554 35.2401 10.9772 35.2041 11.5258 35.1772C11.884 35.1593 13.7384 34.8993 16.3399 34.5228C16.3884 34.989 16.6151 35.518 17.2636 35.509C17.297 35.509 17.3297 35.509 17.3615 35.509C17.4425 36.9077 19.2279 38.2525 21.2818 38.127C23.4757 37.9836 24.7398 35.7152 25.0744 33.42C25.0799 33.3841 25.085 33.3393 25.09 33.3035C25.7329 33.2586 30.1695 32.5504 30.8936 32.5145C31.2042 32.4966 31.4543 32.4069 31.6521 32.2455C32.3217 32.1469 32.9691 32.0482 33.5864 31.9496C34.8393 32.4875 36.2894 32.1827 37.3207 31.4027C38.664 31.2055 39.5416 31.08 39.7199 31.062C40.3162 31.0082 42.8455 31.1069 45.2457 31.2145C45.6903 33.0345 47.5253 33.9669 49.1204 33.9759ZM52.2725 31.3938C53.843 31.4027 55.562 31.4296 56.6258 31.5461C57.7859 31.6716 58.0987 32.4696 54.4731 33.1062C53.9861 33.1869 52.4673 33.4379 50.3591 33.7786C50.6592 33.671 50.9243 33.5097 51.136 33.3035C51.5477 32.909 51.9801 32.2366 52.2725 31.3938Z" fill="#283E37"/>
  </g>
  <defs>
    <clipPath id="clip0_786_4189">
      <rect width="64" height="38.6283" fill="white"/>
    </clipPath>
  </defs>
</svg>