<svg preserveAspectRatio="xMidYMid meet" width="100%" height="100%" overflow="visible" style="display: block;" viewBox="0 0 64.0005 54.2172" fill="none" xmlns="http://www.w3.org/2000/svg">
<g id="vectorly-UNI-call-telephone">
<path id="path152-6" fill-rule="evenodd" clip-rule="evenodd" d="M34.8638 9.88898C34.7992 10.0807 34.5974 10.1714 34.4138 10.1109C34.2292 10.0402 34.1323 9.83846 34.1969 9.65686C34.5288 8.6379 34.6499 7.57849 34.5288 6.44855C34.4229 5.44976 34.1243 4.41062 33.6198 3.32103C33.5159 3.0789 33.6118 2.80662 33.8388 2.68555C34.0658 2.56449 34.3482 2.63503 34.4875 2.85698C37.272 7.01356 40.4842 9.20287 43.869 8.39576C45.1624 8.0931 46.4638 7.33644 47.7764 6.12579C49.2171 4.78398 50.6587 2.90754 52.0762 0.405527C52.284 0.0423303 52.735 -0.0989915 53.1144 0.0725178C53.4927 0.244027 53.6753 0.687934 53.534 1.0814C52.4798 3.9567 51.8886 6.24689 51.7998 7.98216C51.7433 9.09193 51.8795 9.9494 52.3103 10.5245C52.7592 11.1399 53.5119 11.4022 54.552 11.4224C56.2025 11.4426 58.4765 10.8575 61.4204 9.68721C61.6555 9.58632 61.9279 9.65686 62.0873 9.85864C62.2477 10.0604 62.2578 10.343 62.1125 10.5448C60.9947 12.0984 60.4549 13.41 60.4872 14.4794C60.5276 15.8111 61.483 16.719 63.1426 17.2235C63.2727 17.2638 63.3756 17.3646 63.416 17.4958C63.4573 17.6269 63.4301 17.7683 63.3443 17.8692C63.0669 18.2021 62.8611 18.5148 62.7461 18.8377C62.622 19.1908 62.5998 19.5337 62.7047 19.8666C62.7663 20.0583 62.6664 20.25 62.4818 20.3206C62.2961 20.3812 62.0964 20.2804 62.0338 20.0887C61.8946 19.6952 61.8724 19.3017 61.9531 18.8881C62.0197 18.5451 62.164 18.1919 62.3809 17.8388C60.5851 17.2133 59.6105 16.0734 59.5076 14.5298C59.4481 13.642 59.6942 12.5926 60.2885 11.3921C57.9166 12.3101 56.0108 12.7743 54.551 12.7944C52.9651 12.8146 51.8512 12.3203 51.145 11.4124C50.5296 10.6153 50.2209 9.45501 50.2744 7.91142C50.3006 7.16485 50.4136 6.31751 50.6103 5.35908C50.009 6.08547 49.4057 6.71086 48.8034 7.25565C47.2487 8.63782 45.6931 9.45501 44.1757 9.77785C42.3698 10.1511 40.6073 9.83842 38.9376 8.91025C37.6705 8.19395 36.4518 7.12458 35.3087 5.72224C35.338 5.94419 35.3602 6.15609 35.3743 6.36796C35.456 7.61897 35.2764 8.78931 34.8638 9.88898Z" fill="var(--fill-0, #283E37)"/>
<path id="path154-6" fill-rule="evenodd" clip-rule="evenodd" d="M60.3172 20.7294C60.1638 20.6083 60.1376 20.3865 60.2597 20.2352C60.3807 20.0738 60.6027 20.0534 60.756 20.1745C62.4701 21.4457 63.4376 23.6956 63.816 25.9353C64.1075 27.6504 64.0379 29.3554 63.7171 30.5963C63.4608 31.585 63.0018 32.2912 62.4933 32.6241C60.7702 33.7137 57.9271 33.9356 55.2708 33.4412C53.7504 33.1588 52.2976 32.6341 51.1636 31.9784C50.0892 31.3428 49.2952 30.5761 48.9189 29.7488C48.6405 29.1334 48.5385 28.2154 48.7 27.156C48.9371 25.5923 49.7018 23.7057 51.0486 22.2025C52.6235 20.4571 54.9681 19.2061 58.135 19.6298C58.3287 19.65 58.4699 19.8315 58.4498 20.0232C58.4286 20.2148 58.254 20.3562 58.0603 20.3361C55.2385 20.1242 53.2248 21.3246 51.9163 22.9489C50.9911 24.0889 50.4262 25.451 50.18 26.6717C49.9752 27.6806 49.9833 28.5786 50.2536 29.1133C50.5412 29.6985 51.1627 30.1826 51.9385 30.6164C52.9504 31.1813 54.2357 31.6052 55.5734 31.8574C56.8729 32.1096 58.2217 32.2104 59.4274 32.0793C60.3101 31.9885 61.1152 31.7767 61.7447 31.4034C62.0464 31.2319 62.2532 30.788 62.4288 30.2331C62.7678 29.1435 62.8959 27.6303 62.7254 26.0867C62.5014 24.0588 61.7861 21.9703 60.3172 20.7294Z" fill="var(--fill-0, #283E37)"/>
<path id="path156-4" fill-rule="evenodd" clip-rule="evenodd" d="M52.8459 27.4543C52.6754 27.3635 52.6159 27.1414 52.7118 26.98C52.8076 26.8085 53.0235 26.7481 53.194 26.8389C53.194 26.8389 54.0394 27.1617 55.3479 27.5048C55.7868 27.6258 56.2741 27.7368 56.7997 27.8478C57.1831 27.9285 57.5866 27.999 58.0023 28.0898C58.3907 28.1604 58.7892 28.2412 59.1978 28.3119C59.8526 28.4228 60.5215 28.5136 61.2125 28.5337C61.8895 28.5539 62.5665 28.5439 63.2555 28.4127C63.4422 28.3623 63.6399 28.4632 63.6954 28.6549C63.7519 28.8365 63.646 29.0382 63.4583 29.0886C62.3818 29.5426 61.2701 29.7747 60.1633 29.8352C59.3885 29.8756 58.6268 29.8351 57.9075 29.704C57.6058 29.6535 57.3142 29.5829 57.0318 29.5022C56.5808 29.3711 56.1561 29.23 55.7646 29.0585C53.9749 28.3119 52.8459 27.4543 52.8459 27.4543Z" fill="var(--fill-0, #283E37)"/>
<path id="path158-8" fill-rule="evenodd" clip-rule="evenodd" d="M32.5028 20.6633C32.6118 20.7036 32.8045 20.7743 32.975 20.8146C33.8698 21.0164 35.3458 21.1677 36.8369 21.2686C39.0373 21.43 41.2689 21.5006 41.7925 21.5309C42.0942 21.541 42.2798 21.3796 42.4039 21.1677C42.6975 20.6532 42.7449 19.9067 42.8317 19.493C42.8589 19.372 42.9255 19.2408 43.0557 19.1399C43.204 19.0088 43.4723 18.8878 43.8063 18.8172C44.4418 18.6658 45.3327 18.6153 45.7988 18.696C46.2336 18.7767 46.5716 18.9785 46.8056 19.2509C47.0498 19.5434 47.188 19.9066 47.1961 20.3202C47.2021 20.5119 47.0488 20.6836 46.8541 20.6836C46.6594 20.6937 46.4959 20.5423 46.4888 20.3405C46.4788 20.1085 46.3991 19.8966 46.2548 19.7352C46.1186 19.5839 45.9229 19.4829 45.6777 19.4426C45.1682 19.372 44.0484 19.483 43.6287 19.7352C43.547 20.2195 43.4763 21.0266 43.1696 21.5916C42.8952 22.1061 42.4564 22.449 41.7582 22.4389C40.9753 22.4086 36.4051 22.3885 33.7629 22.0757C32.8176 21.9647 32.0982 21.7833 31.7936 21.5916C31.5746 21.4503 31.4687 21.2787 31.4223 21.1273C31.2659 20.6128 31.4576 19.8158 31.4405 19.2105C31.4374 19.1298 31.4324 19.0491 31.4031 18.9986C31.391 18.9684 31.3547 18.9886 31.3133 18.9886C30.593 18.9281 29.9282 18.9382 29.4267 19.0189C29.2895 19.0391 29.1079 19.0593 28.9889 19.0794C29.0434 19.6747 29.345 21.662 29.1503 24.2044C29.0262 25.8287 28.7014 27.6548 28.0052 29.501C26.6715 33.022 25.5274 35.3829 24.5791 36.9971C23.2746 39.2167 22.3232 40.0743 21.7562 40.5788C21.6049 40.7099 21.3134 40.8309 21.4132 40.9015C21.4284 40.9116 21.4314 40.8713 21.4324 40.8511C21.4183 41.5069 21.3739 43.5246 21.3809 45.3002C21.385 46.2183 21.4001 47.0658 21.4475 47.6106C21.4485 47.6207 21.4496 47.6308 21.4506 47.651C21.7078 47.6913 22.0902 47.7519 22.4635 47.8023C25.478 48.1554 32.1275 48.5691 37.3323 48.8011C40.1481 48.9222 42.5391 48.9928 43.6973 48.9726C43.9747 48.9625 44.1604 48.9624 44.231 48.9422C44.8313 48.7405 45.1834 48.8213 46.2952 47.3383C47.0992 46.2588 48.2544 44.4528 50.0572 41.3656C50.1188 41.2546 50.2631 41.1033 50.4739 40.9116C51.0157 40.4273 52.1012 39.4992 52.4301 37.7135C52.7035 36.2304 52.4634 34.1823 51.054 31.3473C50.9652 31.1658 51.0349 30.954 51.2084 30.8733C51.3819 30.7825 51.5948 30.8531 51.6836 31.0246C53.2796 34.0411 53.554 36.2606 53.2978 37.8649C53.0203 39.6001 52.1234 40.6695 51.4747 41.3051C51.2043 41.5775 50.9763 41.739 50.9158 41.8499C49.1533 45.038 48.0183 46.9044 47.2243 48.0141C45.8512 49.9411 45.3821 49.82 44.6235 50.0924C44.3642 50.1832 43.0294 50.2337 41.0964 50.2236C37.6461 50.1934 32.181 50.0118 27.7732 49.7696C24.8848 49.6082 22.4473 49.4164 21.3083 49.2449C20.8816 49.1743 20.594 49.0936 20.4629 49.023C20.2056 48.902 20.0926 48.7305 20.0361 48.6094C19.9161 48.3471 19.8061 47.3281 19.7829 46.0569C19.7466 44.1299 19.8071 41.5775 19.8233 40.8107C19.8323 40.4072 19.9605 40.1145 20.2288 39.8119C20.6283 39.3579 21.6332 38.8434 23.2252 36.19C24.1584 34.6363 25.2944 32.3663 26.6281 28.9765C27.299 27.2715 27.6219 25.5867 27.7631 24.0834C28.0244 21.3191 27.6774 19.2105 27.6915 18.8978C27.7066 18.5346 27.9629 18.121 28.5894 17.9092C29.1897 17.7175 30.251 17.6468 31.4334 17.7779C32.1648 17.8586 32.4746 18.2421 32.5876 18.7768C32.6622 19.1198 32.6178 19.5636 32.5593 20.0075C32.529 20.2396 32.4867 20.4716 32.5028 20.6633ZM28.9616 19.0895C28.885 19.1097 28.8446 19.14 28.8759 19.1803C28.9142 19.2308 28.9435 19.1702 28.9616 19.0895Z" fill="var(--fill-0, #283E37)"/>
<path id="path160-2" fill-rule="evenodd" clip-rule="evenodd" d="M48.2189 20.9985C48.2038 21.049 48.1745 21.1297 48.1543 21.1902C48.0555 21.5232 47.9435 22.0477 47.8133 22.7337C47.6176 23.7628 47.3997 25.135 47.1616 26.7391C46.978 27.9699 46.7913 29.3319 46.5886 30.7746C46.4059 32.066 46.2163 33.4279 46.0226 34.8101C45.7381 36.8279 45.4475 38.8759 45.2114 40.8634C44.815 44.1826 44.5365 47.2698 44.588 49.5297C44.5991 49.7214 44.4497 49.8928 44.255 49.9029C44.0603 49.913 43.8928 49.7618 43.8817 49.5701C43.6729 47.2799 43.7002 44.1322 43.911 40.7424C44.029 38.8255 44.1975 36.8479 44.4195 34.8907C44.5597 33.6599 44.7231 32.4391 44.9027 31.2587C45.0954 29.9876 45.3093 28.777 45.5222 27.6471C45.9852 25.1955 46.4534 23.1676 46.8024 21.8965C47.0557 20.9784 47.2968 20.4235 47.4259 20.2923C47.6035 20.1107 47.8325 19.9998 48.118 19.9796C48.4298 19.9594 48.8293 20.04 49.253 20.2216C50.4667 20.7462 51.9749 21.9771 51.9749 21.9771C52.1303 22.0981 52.1616 22.3201 52.0435 22.4714C51.9255 22.6329 51.7036 22.6631 51.5482 22.542C51.5482 22.542 50.6362 21.9066 49.6787 21.4425C49.2833 21.2508 48.8817 21.0892 48.5407 21.0186C48.451 20.9984 48.3662 20.9885 48.2895 20.9885C48.2683 20.9885 48.2411 20.9985 48.2189 20.9985ZM48.1947 21.0086C48.1856 21.0086 48.1806 21.0186 48.1806 21.0186C48.1806 21.0186 48.1886 21.0086 48.1947 21.0086Z" fill="var(--fill-0, #283E37)"/>
<path id="path162-5" fill-rule="evenodd" clip-rule="evenodd" d="M48.9888 20.857C48.9424 20.6754 49.0584 20.4838 49.2471 20.4333C49.4367 20.3829 49.6284 20.5039 49.6758 20.6956C49.6758 20.6956 49.9755 21.1394 50.3003 21.886C50.3679 22.0474 50.4244 22.2088 50.4779 22.3904C50.5102 22.5014 50.5425 22.6124 50.5576 22.7335C50.5949 23.026 50.5939 23.3187 50.5748 23.6214C50.5435 24.1056 50.4587 24.5395 50.3629 24.9733C50.3699 25.165 50.2176 25.3365 50.0229 25.3365C49.8272 25.3465 49.6637 25.1951 49.6557 25.0034C49.5356 24.61 49.356 24.2367 49.2087 23.8028C49.1169 23.5304 49.016 23.2784 48.9676 23.006C48.9142 22.7134 48.9152 22.4308 48.9141 22.1685C48.9111 21.3816 48.9888 20.857 48.9888 20.857Z" fill="var(--fill-0, #283E37)"/>
<path id="path164-9" fill-rule="evenodd" clip-rule="evenodd" d="M49.334 20.7778C49.334 20.7778 49.9433 23.2396 50.0099 24.9849C49.2724 26.7505 49.1494 28.516 49.5872 29.434C49.8979 30.0898 50.5335 30.6851 51.3689 31.1895C55.25 38.7562 50.8332 40.9959 50.4861 41.6113C45.927 49.642 45.5436 49.1376 44.4268 49.521C44.3885 49.5311 44.3239 49.541 44.2361 49.5511C43.7599 41.2178 47.067 21.4639 47.8146 20.6568C48.086 20.3541 48.6843 20.4852 49.334 20.7778Z" fill="var(--fill-0, #283E37)"/>
<path id="path166-4" fill-rule="evenodd" clip-rule="evenodd" d="M20.6147 41.2524C20.419 41.2423 20.2656 41.0809 20.2717 40.8892C20.2767 40.6874 20.4401 40.5361 20.6349 40.5461C20.6349 40.5461 23.7836 40.4352 27.8049 40.3948C28.725 40.3847 29.6885 40.3948 30.6711 40.4049C31.3037 40.4049 31.9423 40.415 32.5809 40.4352C34.2133 40.4957 35.8426 40.5966 37.3509 40.6975C41.3642 40.9497 44.5018 41.2323 44.5018 41.2323C44.6965 41.2423 44.8499 41.4037 44.8449 41.5954C44.8388 41.7972 44.6764 41.9486 44.4806 41.9385C44.4806 41.9385 41.3319 42.0392 37.3116 42.0695C35.8003 42.0796 34.1679 42.0898 32.5345 42.0494C31.8959 42.0393 31.2573 42.0089 30.6257 41.9787C29.6441 41.9282 28.6816 41.8779 27.7646 41.8072C23.7513 41.5348 20.6147 41.2524 20.6147 41.2524Z" fill="var(--fill-0, #283E37)"/>
<path id="path168-3" fill-rule="evenodd" clip-rule="evenodd" d="M22.0546 16.9437C21.8639 16.9033 21.7448 16.7117 21.7882 16.5301C21.8316 16.3384 22.0213 16.2174 22.2119 16.2578C22.2119 16.2578 22.7477 16.2981 23.5689 16.51C23.9593 16.6109 24.3992 16.7419 24.8754 16.9437C25.2012 17.0849 25.5332 17.2566 25.8671 17.4584C26.0759 17.5794 26.2858 17.7206 26.4835 17.882C26.9496 18.2654 27.3845 18.7295 27.7567 19.2743C28.2592 20.0007 28.6425 20.838 28.8665 21.8267C28.9331 22.0083 28.8393 22.2101 28.6556 22.2807C28.473 22.3412 28.2692 22.2505 28.2026 22.0689C27.9313 21.5543 27.6014 21.1307 27.2583 20.7372C26.8982 20.3135 26.5017 19.9603 26.1072 19.6375C25.857 19.4256 25.6038 19.2339 25.3596 19.0523C25.0963 18.8505 24.8461 18.6488 24.5969 18.4672C24.2509 18.2251 23.9311 17.9931 23.6264 17.8115C22.7154 17.2364 22.0546 16.9437 22.0546 16.9437Z" fill="var(--fill-0, #283E37)"/>
<path id="path170-6" fill-rule="evenodd" clip-rule="evenodd" d="M28.1997 24.6838C28.3722 24.5829 28.5861 24.6536 28.6789 24.8251C28.7707 24.9966 28.7061 25.2084 28.5336 25.2992C28.5336 25.2992 25.4686 27.1656 22.5247 28.4772C21.6168 28.8807 20.7179 29.2237 19.9259 29.4557C19.1329 29.6877 18.4317 29.7888 17.9081 29.7686C17.1232 29.7182 16.4311 29.3145 15.8964 28.5982C15.1892 27.6397 14.7443 26.0862 14.6505 24.3812C14.5698 22.8981 14.7382 21.304 15.1559 19.9218C15.6846 18.1663 16.6026 16.764 17.8708 16.2798C18.0494 16.1991 18.2582 16.29 18.3359 16.4615C18.4136 16.6431 18.3319 16.8549 18.1533 16.9255C17.4521 17.2786 16.9598 18.005 16.6057 18.9029C16.1557 20.053 15.9771 21.4857 15.9963 22.9082C16.0165 24.3408 16.2647 25.7532 16.7207 26.8025C16.8892 27.1959 17.0849 27.5288 17.3169 27.781C17.5187 28.003 17.7417 28.1644 18.0141 28.1845C18.4065 28.2148 18.9321 28.124 19.5354 27.9828C20.2891 27.8113 21.1476 27.5288 22.0274 27.2261C25.0136 26.1668 28.1997 24.6838 28.1997 24.6838Z" fill="var(--fill-0, #283E37)"/>
<path id="path172" fill-rule="evenodd" clip-rule="evenodd" d="M25.5425 21.6271C25.716 21.5464 25.9289 21.6169 26.0177 21.7884C26.1055 21.96 26.0359 22.1719 25.8623 22.2627C25.8623 22.2627 24.6941 23.0699 23.0627 24.0182C22.6975 24.2301 22.3081 24.4419 21.9025 24.6437C21.6442 24.7748 21.3819 24.906 21.1095 25.0271C20.4275 25.3197 19.7213 25.5618 19.0383 25.7838C17.7701 26.1974 16.5978 26.4596 15.7675 26.5605C15.5779 26.6009 15.3882 26.4799 15.3448 26.2983C15.3014 26.1066 15.4215 25.9148 15.6112 25.8744C16.3668 25.6121 17.3807 25.0774 18.5167 24.5124C19.1432 24.1896 19.794 23.8567 20.4517 23.554C20.7151 23.4329 20.9834 23.3221 21.2477 23.2111C21.6644 23.0396 22.07 22.8781 22.4604 22.7368C24.2108 22.0912 25.5425 21.6271 25.5425 21.6271Z" fill="var(--fill-0, #283E37)"/>
<path id="path174" fill-rule="evenodd" clip-rule="evenodd" d="M19.8207 16.2394C19.631 16.2898 19.4403 16.1686 19.3949 15.9769C19.3485 15.7852 19.4656 15.5936 19.6552 15.5533C19.6552 15.5533 22.3308 14.7764 28.9207 14.6553C30.6903 14.6251 32.7414 14.6352 35.0991 14.7462C36.5246 14.8168 38.0632 14.9176 39.7157 15.0689C41.1584 15.2102 42.6879 15.3918 44.3091 15.6138C46.4338 15.8963 48.7119 16.2494 51.1564 16.6731C53.2972 17.0464 55.5591 17.4903 57.9562 17.9746C58.1489 18.0048 58.278 18.1864 58.2457 18.3781C58.2124 18.5799 58.0298 18.701 57.8371 18.6707C54.3686 18.1865 51.1806 17.8132 48.2518 17.5005C45.9606 17.2483 43.8319 17.0464 41.8555 16.8749C40.3463 16.7336 38.9258 16.6227 37.592 16.5117C35.1889 16.3099 33.0662 16.1586 31.1968 16.0577C23.0965 15.6239 19.8207 16.2394 19.8207 16.2394Z" fill="var(--fill-0, #283E37)"/>
<path id="path176" fill-rule="evenodd" clip-rule="evenodd" d="M32.0045 19.8361C31.8098 19.826 31.6605 19.6544 31.6726 19.4627C31.6837 19.271 31.8511 19.1198 32.0459 19.1299C32.0459 19.1299 33.5107 19.0189 35.4034 18.9685C35.8332 18.9584 36.2831 18.9584 36.7422 18.9685C37.0378 18.9786 37.3354 18.9785 37.633 18.9987C38.3947 19.0592 39.1504 19.15 39.8505 19.2509C41.725 19.5031 43.1677 19.7756 43.1677 19.7756C43.3634 19.7857 43.5117 19.9571 43.5006 20.1488C43.4895 20.3506 43.3221 20.4919 43.1273 20.4818C43.1273 20.4818 41.6614 20.5926 39.7708 20.6229C39.0636 20.633 38.3029 20.6431 37.5392 20.6129C37.2416 20.6028 36.9439 20.5726 36.6504 20.5423C36.1933 20.4919 35.7464 20.4415 35.3207 20.3809C33.4462 20.1186 32.0045 19.8361 32.0045 19.8361Z" fill="var(--fill-0, #283E37)"/>
<path id="path178" fill-rule="evenodd" clip-rule="evenodd" d="M43.1466 20.1301C43.0174 20.9473 42.7793 22.0165 41.7745 21.9863C40.6849 21.9358 32.2164 21.8148 31.9733 20.9673C31.8573 20.5638 31.9854 19.9888 32.0247 19.4844L43.1466 20.1301Z" fill="var(--fill-0, #283E37)"/>
<path id="path180" fill-rule="evenodd" clip-rule="evenodd" d="M40.824 26.491C40.9672 26.6222 40.9763 26.8442 40.8441 26.9854C40.711 27.1266 40.488 27.1367 40.3437 27.0055C38.6559 25.5426 36.3223 25.361 34.2511 25.9663C32.1446 26.5716 30.2882 28.0244 29.7707 29.9009C29.123 32.1406 29.6103 34.1282 30.8714 35.47C32.1012 36.7816 34.0504 37.4777 36.4202 37.1648C38.557 36.9025 40.1339 35.5708 40.942 33.8355C41.7672 32.07 41.8227 29.8909 40.8784 27.9235C40.7886 27.752 40.8572 27.5402 41.0297 27.4494C41.2033 27.3586 41.4172 27.4293 41.5069 27.6008C42.7055 29.7497 42.7701 32.2214 41.9488 34.2694C41.0802 36.4385 39.2097 38.1235 36.627 38.5674C33.6942 39.0416 31.2346 38.1941 29.7001 36.5798C28.0869 34.8748 27.4735 32.3021 28.3542 29.4773C29.0958 27.2174 31.3607 25.4618 33.9626 24.8565C36.3607 24.3016 39.007 24.7053 40.824 26.491Z" fill="var(--fill-0, #283E37)"/>
<path id="path182" fill-rule="evenodd" clip-rule="evenodd" d="M37.0117 29.4886C37.058 29.521 37.0971 29.5633 37.1247 29.6181C37.5322 30.2154 37.5668 30.9298 37.3761 31.5495C37.1591 32.2564 36.566 32.7715 35.762 32.9732C34.829 33.1648 34.0303 32.886 33.5342 32.3708C33.0016 31.8158 32.794 30.9595 33.1099 30.0437C33.2062 29.7972 33.3304 29.5584 33.5228 29.3668C33.8804 29.0059 34.3712 28.7246 34.9183 28.6474C35.6421 28.5453 36.4141 28.6896 36.9002 29.2695C36.9652 29.3292 37.0025 29.409 37.0117 29.4886ZM36.4594 29.8196C36.446 29.8126 36.4331 29.7997 36.4209 29.7897C36.0605 29.5333 35.6052 29.5982 35.2068 29.7524C34.8663 29.8844 34.5893 30.1508 34.5268 30.4693C34.4429 30.793 34.5256 31.0717 34.7055 31.2658C34.8959 31.4723 35.1844 31.6042 35.5557 31.5694C35.9149 31.5545 36.2116 31.3926 36.3701 31.1138C36.5645 30.7754 36.6498 30.3523 36.4968 29.9416C36.4764 29.9043 36.4642 29.8619 36.4594 29.8196Z" fill="var(--fill-0, #283E37)"/>
<path id="path184" fill-rule="evenodd" clip-rule="evenodd" d="M38.8879 26.7072C39.013 26.5559 39.236 26.5357 39.3863 26.6568C39.5356 26.7778 39.5558 26.9998 39.4317 27.1512C39.4317 27.1512 39.4085 27.484 39.2158 27.9683C39.1542 28.1196 39.0856 28.2811 38.9686 28.4223C38.8486 28.5535 38.6972 28.6442 38.553 28.735C38.1212 28.9973 37.8084 29.1084 37.8084 29.1084C37.6833 29.2497 37.4603 29.2697 37.311 29.1486C37.1607 29.0276 37.1405 28.8058 37.2656 28.6544C37.2656 28.6544 37.309 28.3215 37.4947 27.8473C37.5562 27.696 37.6137 27.5243 37.7287 27.3831C37.8407 27.2418 37.988 27.1511 38.1292 27.0603C38.5681 26.7879 38.8879 26.7072 38.8879 26.7072Z" fill="var(--fill-0, #283E37)"/>
<path id="path186" fill-rule="evenodd" clip-rule="evenodd" d="M40.5469 29.5437C40.7406 29.5235 40.9131 29.6649 40.9312 29.8667C40.9484 30.0584 40.8061 30.2298 40.6114 30.2499C40.6114 30.2499 40.3754 30.4618 39.9123 30.6635C39.765 30.7342 39.6086 30.7947 39.4341 30.8048C39.2585 30.825 39.0951 30.7746 38.9367 30.7343C38.4534 30.6132 38.175 30.472 38.175 30.472C37.9813 30.4922 37.8088 30.3407 37.7906 30.1491C37.7724 29.9574 37.9167 29.786 38.1104 29.7658C38.1104 29.7658 38.3576 29.564 38.8106 29.3622C38.9599 29.3017 39.1112 29.2208 39.2878 29.2007C39.4603 29.1805 39.6268 29.221 39.7831 29.2614C40.2765 29.3723 40.5469 29.5437 40.5469 29.5437Z" fill="var(--fill-0, #283E37)"/>
<path id="path188" fill-rule="evenodd" clip-rule="evenodd" d="M40.4555 31.9516C40.6492 31.9717 40.7905 32.1433 40.7693 32.335C40.7491 32.5368 40.5756 32.6779 40.3809 32.6578C40.3809 32.6578 40.1337 32.8191 39.6616 32.9301C39.5143 32.9704 39.3589 33.0007 39.1965 32.9805C39.031 32.9604 38.8928 32.8898 38.7546 32.8191C38.3268 32.6073 38.1069 32.4156 38.1069 32.4156C37.9132 32.3954 37.7719 32.2239 37.7931 32.0221C37.8133 31.8304 37.9868 31.6892 38.1815 31.7094C38.1815 31.7094 38.4368 31.5682 38.8988 31.4471C39.0482 31.4068 39.1995 31.3665 39.3659 31.3766C39.5294 31.3967 39.6737 31.4573 39.8099 31.5279C40.2477 31.7398 40.4555 31.9516 40.4555 31.9516Z" fill="var(--fill-0, #283E37)"/>
<path id="path190" fill-rule="evenodd" clip-rule="evenodd" d="M39.0515 34.6521C39.1725 34.8034 39.1463 35.0254 38.9929 35.1465C38.8406 35.2676 38.6176 35.2474 38.4966 35.086C38.4966 35.086 38.2423 35.0658 37.8489 34.8438C37.7318 34.7732 37.6108 34.7026 37.523 34.5916C37.4332 34.4705 37.404 34.3395 37.3676 34.2083C37.2506 33.7846 37.2597 33.5323 37.2597 33.5323C37.1386 33.3709 37.1649 33.1489 37.3182 33.0278C37.4705 32.9068 37.6935 32.937 37.8146 33.0883C37.8146 33.0883 38.0628 33.1389 38.4481 33.3508C38.5682 33.4113 38.6933 33.4717 38.7881 33.5928C38.8799 33.7038 38.9203 33.835 38.9576 33.9662C39.0817 34.4 39.0515 34.6521 39.0515 34.6521Z" fill="var(--fill-0, #283E37)"/>
<path id="path192" fill-rule="evenodd" clip-rule="evenodd" d="M35.4289 34.0252C35.3451 33.8537 35.4198 33.6419 35.5963 33.5612C35.7719 33.4704 35.9837 33.551 36.0675 33.7225C36.0675 33.7225 36.354 33.8738 36.7091 34.2471C36.8231 34.3681 36.9402 34.4892 37.0138 34.6506C37.0895 34.8221 37.1036 34.9936 37.1238 35.1551C37.1833 35.6595 37.1429 35.9724 37.1429 35.9724C37.2277 36.154 37.153 36.3658 36.9765 36.4465C36.8009 36.5272 36.5891 36.4566 36.5053 36.2851C36.5053 36.2851 36.2309 36.1135 35.8798 35.7503C35.7638 35.6293 35.6387 35.5082 35.558 35.3468C35.4793 35.1955 35.4541 35.0138 35.4329 34.8524C35.3683 34.348 35.4289 34.0252 35.4289 34.0252Z" fill="var(--fill-0, #283E37)"/>
<path id="path194" fill-rule="evenodd" clip-rule="evenodd" d="M33.8571 33.8133C33.8914 33.6216 34.076 33.4904 34.2677 33.5307C34.4594 33.561 34.5875 33.7426 34.5532 33.9343C34.5532 33.9343 34.6945 34.2571 34.76 34.7918C34.7812 34.9634 34.7994 35.1551 34.7631 35.3367C34.7267 35.5284 34.6359 35.6898 34.5532 35.8411C34.3081 36.3153 34.0811 36.5777 34.0811 36.5777C34.0468 36.7694 33.8631 36.9004 33.6715 36.86C33.4788 36.8298 33.3506 36.6482 33.3849 36.4565C33.3849 36.4565 33.2639 36.1236 33.1963 35.5989C33.1741 35.4274 33.1448 35.2458 33.1751 35.0541C33.2053 34.8624 33.2881 34.701 33.3678 34.5396C33.6139 34.0655 33.8571 33.8133 33.8571 33.8133Z" fill="var(--fill-0, #283E37)"/>
<path id="path196" fill-rule="evenodd" clip-rule="evenodd" d="M32.6261 33.0455C32.7693 32.9144 32.9933 32.9244 33.1255 33.0656C33.2586 33.2069 33.2496 33.4289 33.1073 33.56C33.1073 33.56 33.0669 33.8626 32.842 34.2964C32.7714 34.4275 32.6947 34.5689 32.5726 34.6798C32.4475 34.7908 32.2982 34.8412 32.1559 34.9017C31.7151 35.0934 31.4215 35.1238 31.4215 35.1238C31.2792 35.265 31.0553 35.255 30.9221 35.1137C30.7899 34.9624 30.798 34.7405 30.9412 34.6093C30.9412 34.6093 31.0008 34.3166 31.2187 33.8928C31.2883 33.7516 31.3549 33.6105 31.4749 33.4995C31.594 33.3785 31.7403 33.3179 31.8805 33.2574C32.3285 33.0657 32.6261 33.0455 32.6261 33.0455Z" fill="var(--fill-0, #283E37)"/>
<path id="path198" fill-rule="evenodd" clip-rule="evenodd" d="M32.315 31.5108C32.5067 31.4805 32.6913 31.6117 32.7266 31.8034C32.762 31.9951 32.6348 32.1767 32.4421 32.2069C32.4421 32.2069 32.2262 32.4491 31.7813 32.6913C31.6401 32.772 31.4887 32.8526 31.3162 32.8727C31.1417 32.903 30.9742 32.8728 30.8118 32.8526C30.3195 32.7719 30.0269 32.6509 30.0269 32.6509C29.8352 32.6912 29.6506 32.56 29.6153 32.3683C29.58 32.1766 29.7071 31.9951 29.8998 31.9547C29.8998 31.9547 30.1288 31.7429 30.5636 31.4907C30.7069 31.4099 30.8511 31.3292 31.0257 31.2889C31.1972 31.2586 31.3667 31.2788 31.5271 31.2989C32.0295 31.3696 32.315 31.5108 32.315 31.5108Z" fill="var(--fill-0, #283E37)"/>
<path id="path200-5" fill-rule="evenodd" clip-rule="evenodd" d="M32.5472 30.0645C32.7187 30.1553 32.7833 30.3771 32.6894 30.5486C32.5966 30.7202 32.3817 30.7807 32.2102 30.6899C32.2102 30.6899 31.9308 30.7505 31.4576 30.6799C31.3123 30.6597 31.159 30.6394 31.0208 30.5587C30.8795 30.478 30.7847 30.357 30.6868 30.246C30.3811 29.8929 30.2621 29.6306 30.2621 29.6306C30.0896 29.5398 30.026 29.328 30.1188 29.1565C30.2116 28.985 30.4265 28.9143 30.598 29.0152C30.598 29.0152 30.8795 28.9748 31.3426 29.0353C31.4919 29.0555 31.6442 29.0656 31.7885 29.1362C31.9298 29.2169 32.0337 29.3279 32.1305 29.4389C32.4453 29.8021 32.5472 30.0645 32.5472 30.0645Z" fill="var(--fill-0, #283E37)"/>
<path id="path202-4" fill-rule="evenodd" clip-rule="evenodd" d="M33.5783 28.745C33.7074 28.8964 33.6933 29.1183 33.547 29.2394C33.4007 29.3706 33.1767 29.3606 33.0476 29.2093C33.0476 29.2093 32.7984 29.1992 32.3959 29.0075C32.2778 28.947 32.1548 28.8863 32.063 28.7854C31.9691 28.6744 31.9358 28.5434 31.8935 28.4122C31.7583 27.9986 31.7583 27.7464 31.7583 27.7464C31.6291 27.6051 31.6433 27.3832 31.7895 27.252C31.9358 27.1208 32.1598 27.1409 32.2889 27.2822C32.2889 27.2822 32.5341 27.3125 32.9276 27.5042C33.0486 27.5547 33.1747 27.6051 33.2736 27.716C33.3694 27.8169 33.4138 27.9481 33.4562 28.0692C33.5995 28.4929 33.5783 28.745 33.5783 28.745Z" fill="var(--fill-0, #283E37)"/>
<path id="path204-2" fill-rule="evenodd" clip-rule="evenodd" d="M34.5553 28.3901C34.5795 28.5818 34.4413 28.7534 34.2476 28.7836C34.0539 28.8038 33.8773 28.6626 33.8531 28.4709C33.8531 28.4709 33.6534 28.3195 33.4324 27.9361C33.3668 27.8251 33.3003 27.7042 33.2861 27.5629C33.271 27.4217 33.3174 27.2905 33.3557 27.1594C33.4778 26.7457 33.617 26.544 33.617 26.544C33.5938 26.3523 33.7321 26.1707 33.9258 26.1505C34.1195 26.1303 34.296 26.2615 34.3192 26.4531C34.3192 26.4531 34.5039 26.6247 34.7238 26.998C34.7914 27.109 34.866 27.2199 34.8872 27.3712C34.9074 27.5023 34.8711 27.6335 34.8348 27.7647C34.7137 28.1985 34.5553 28.3901 34.5553 28.3901Z" fill="var(--fill-0, #283E37)"/>
<path id="path206-9" fill-rule="evenodd" clip-rule="evenodd" d="M36.2261 28.3506C36.1666 28.5423 35.9669 28.6431 35.7812 28.5826C35.5956 28.522 35.4937 28.3202 35.5532 28.1386C35.5532 28.1386 35.4443 27.8562 35.4301 27.3719C35.4251 27.2105 35.4231 27.0491 35.4765 26.8978C35.532 26.7364 35.6349 26.6154 35.7308 26.4842C36.0254 26.1109 36.2635 25.9293 36.2635 25.9293C36.323 25.7376 36.5227 25.6367 36.7084 25.6972C36.894 25.7577 36.9969 25.9595 36.9374 26.1411C36.9374 26.1411 37.0252 26.4236 37.0433 26.9079C37.0494 27.0693 37.0615 27.2207 37.0131 27.3922C36.9646 27.5435 36.8688 27.6747 36.776 27.7957C36.4783 28.1892 36.2261 28.3506 36.2261 28.3506Z" fill="var(--fill-0, #283E37)"/>
<path id="path208-4" fill-rule="evenodd" clip-rule="evenodd" d="M20.6085 48.3893C20.5984 48.1875 20.7477 48.0262 20.9424 48.0161C21.1371 48.006 21.3046 48.1574 21.3147 48.3491C21.3833 48.7123 21.2995 49.2369 21.809 49.5598C21.9856 49.6707 22.2368 49.7211 22.5798 49.7716C22.9551 49.8422 23.4273 49.8826 24.0316 49.8725C24.3352 49.8927 24.6147 49.8927 24.872 49.9129C25.1787 49.923 25.4511 49.943 25.6982 49.9531C26.4236 49.9732 26.8816 49.9531 27.1803 49.8321C27.3033 49.7816 27.4032 49.7614 27.4537 49.6908C27.609 49.4688 27.5838 49.2067 27.6201 49.0049C27.6292 48.8132 27.7957 48.6618 27.9904 48.6719C28.1851 48.682 28.3354 48.8534 28.3264 49.0451C28.3425 49.2368 28.396 49.4588 28.3899 49.6908C28.3788 50.0641 28.2093 50.4374 27.6968 50.7905C27.2983 51.073 26.6113 51.3252 25.4147 51.4463C24.9981 51.4866 24.5148 51.4867 23.9569 51.4766C23.516 51.4363 23.1337 51.3958 22.8068 51.3151C21.9119 51.1032 21.3752 50.8006 21.0564 50.4778C20.6982 50.1045 20.5368 49.7311 20.5197 49.3477C20.5035 48.9946 20.5853 48.6718 20.6085 48.3893Z" fill="var(--fill-0, #283E37)"/>
<path id="path210-9" fill-rule="evenodd" clip-rule="evenodd" d="M20.9621 48.3672C21.7349 48.569 24.5477 48.8111 27.9738 49.023C27.9405 49.6888 28.4631 50.8794 23.9948 50.6675C20.5233 50.5162 21.0065 49.1642 20.9621 48.3672Z" fill="var(--fill-0, #283E37)"/>
<path id="path212-9" fill-rule="evenodd" clip-rule="evenodd" d="M37.4125 49.5009C37.4115 49.2991 37.5699 49.1478 37.7646 49.1478C37.9604 49.1377 38.1188 49.2991 38.1198 49.4908C38.146 49.7027 38.1561 49.9045 38.259 50.0961C38.3165 50.197 38.4446 50.2374 38.6282 50.2979C38.9581 50.419 39.4535 50.4392 40.2212 50.4493C40.7015 50.4593 41.2755 50.4595 41.9706 50.4191C42.6254 50.4393 43.1702 50.4292 43.6252 50.4191C44.3203 50.409 44.7783 50.3888 45.084 50.2678C45.2081 50.2173 45.312 50.197 45.3615 50.1062C45.4341 49.9851 45.4714 49.844 45.4835 49.6825C45.5027 49.4101 45.4957 49.1075 45.5168 48.7645C45.5068 48.5728 45.6561 48.4012 45.8518 48.3911C46.0465 48.381 46.213 48.5324 46.2231 48.7342C46.2977 49.1781 46.4026 49.5716 46.4228 49.9147C46.4571 50.4897 46.2563 50.9437 45.6298 51.3371C45.2586 51.5692 44.6714 51.7709 43.7493 51.9021C43.264 51.9727 42.6779 52.003 41.9727 52.0333C41.2261 51.993 40.6087 51.9524 40.0992 51.8717C39.1387 51.7204 38.5415 51.4984 38.1642 51.2664C37.2662 50.7115 37.3409 50.1264 37.4125 49.5009Z" fill="var(--fill-0, #283E37)"/>
<path id="path214-3" fill-rule="evenodd" clip-rule="evenodd" d="M37.7656 49.4988C41.2836 49.6098 44.0499 49.6402 44.4252 49.5191C44.9105 49.3476 45.2575 49.3475 45.8689 48.7422C45.9506 50.3059 46.5812 51.2141 41.9706 51.2242C37.5204 51.2242 37.7676 50.3261 37.7656 49.4988Z" fill="var(--fill-0, #283E37)"/>
<path id="path216-1" fill-rule="evenodd" clip-rule="evenodd" d="M1.38119 41.6655C0.912062 41.2418 0.61646 40.6767 0.661859 40.0109C0.718357 39.1937 1.28434 38.4271 2.00468 37.8621C1.65763 37.4787 1.46695 36.9843 1.57288 36.4294C1.71715 35.6727 2.27203 35.0674 2.95908 34.6538C2.79463 34.2805 2.76133 33.8467 2.92881 33.3927C3.12856 32.858 3.47663 32.4241 3.87513 32.1012C3.3485 31.4959 2.87232 30.6687 2.65944 29.7103C2.16509 27.5008 2.84406 25.1601 4.47038 23.1323C6.30451 20.8421 9.34728 18.9555 13.1871 18.1484C13.3777 18.108 13.5664 18.2292 13.6088 18.4209C13.6501 18.6126 13.5291 18.8042 13.3384 18.8445C10.3965 19.5104 7.95906 20.8422 6.2359 22.4968C4.09305 24.5549 3.06098 27.1073 3.63402 29.4882C3.78031 30.0935 4.05674 30.6284 4.37757 31.0723C4.51376 31.264 4.65802 31.4254 4.80532 31.5767C4.92537 31.5263 5.04442 31.4958 5.15842 31.4656C5.63865 31.3546 6.05229 31.4051 6.29038 31.5464C6.59607 31.7179 6.75447 31.9902 6.69999 32.3635C6.64249 32.757 6.44676 32.9991 6.19857 33.1302C5.86362 33.3017 5.3037 33.2614 4.71654 32.8679C4.4159 33.0798 4.14552 33.3824 4.00629 33.786C3.95383 33.9272 3.96897 34.0685 4.02446 34.1895C4.04161 34.1795 4.05875 34.1795 4.0759 34.1694C4.84466 33.9576 5.58114 33.9576 5.95846 34.1089C6.43667 34.2905 6.61827 34.6435 6.54664 35.0471C6.46896 35.5011 6.20463 35.7937 5.82731 35.945C5.35011 36.1367 4.61261 36.0662 3.98914 35.7232C3.92457 35.6828 3.86101 35.6423 3.79947 35.602C3.33639 35.834 2.91367 36.1669 2.82792 36.6613C2.78655 36.8933 2.95403 37.0549 3.15883 37.176C3.75407 36.9238 4.314 36.8229 4.65096 36.8733C5.17557 36.954 5.44494 37.2668 5.47823 37.7108C5.50547 38.074 5.36121 38.3565 5.06863 38.5583C4.74781 38.7802 4.0648 38.8609 3.36969 38.6692C3.34245 38.6591 3.31521 38.6489 3.28797 38.6489C3.15177 38.7195 3.02264 38.7903 2.91267 38.871C2.47583 39.2039 2.07631 39.6175 2.04907 40.0917C2.0299 40.4448 2.29019 40.6668 2.59285 40.8282C2.75629 40.7475 2.91973 40.6667 3.08014 40.5961C3.83175 40.2834 4.51376 40.2228 4.86989 40.3439C5.32287 40.4851 5.56197 40.7979 5.57206 41.2519C5.58316 41.7361 5.34507 42.1196 4.88199 42.3516C4.47543 42.5635 3.81461 42.6341 3.12857 42.5029C3.01861 42.4828 2.90763 42.4524 2.79867 42.4221C2.73713 42.4726 2.67558 42.513 2.61606 42.5634C2.0864 42.9569 1.60617 43.4715 1.51638 44.0667C1.49418 44.2079 1.55774 44.3088 1.65863 44.3794C1.71715 44.329 1.77566 44.2685 1.83418 44.218C2.42336 43.6934 3.04181 43.4412 3.46857 43.4513C3.99924 43.4614 4.40985 43.7135 4.59447 44.2986C4.78716 44.9039 4.59042 45.3883 4.12937 45.7414C3.71977 46.0441 2.97824 46.2156 2.2347 46.1349C1.79584 46.7806 1.48309 47.6078 1.63644 48.4149C1.66267 48.5562 1.78373 48.6168 1.91287 48.647C2.0753 48.6975 2.25993 48.7074 2.44657 48.6872C2.74419 47.9407 3.3031 47.4364 3.72481 47.2951C4.23732 47.1236 4.68526 47.2647 4.99095 47.6784C5.40156 48.2332 5.338 48.8184 4.86282 49.343C4.64288 49.5851 4.28777 49.8071 3.86707 49.9887C3.92256 50.4226 4.17578 50.9271 4.75083 51.3811C5.14127 51.6938 5.58618 51.8452 6.02404 51.8855C6.26718 51.9057 6.5093 51.8955 6.73933 51.8652C6.72016 51.27 6.90984 50.7052 7.18829 50.3621C7.58074 49.888 8.11746 49.7265 8.68646 49.9686C9.32306 50.241 9.58335 50.6646 9.657 51.0581C9.72056 51.4011 9.64186 51.7745 9.39065 52.1377C9.28169 52.2991 9.13339 52.4605 8.95179 52.6018C9.26454 52.6926 9.68122 52.6926 10.22 52.5917C10.8566 52.4606 11.1905 52.057 11.3196 51.5828C11.3499 51.4719 11.3711 51.3608 11.3842 51.2398C11.3449 51.2297 11.3055 51.2196 11.2672 51.1994C10.7658 51.0077 10.3572 50.7253 10.108 50.4226C9.89308 50.1704 9.78311 49.888 9.76394 49.6055C9.73771 49.2221 9.87694 48.8085 10.3309 48.4453C10.6033 48.2334 10.8868 48.1526 11.1602 48.1627C11.2793 48.1728 11.4013 48.193 11.5224 48.2435C11.1875 47.9207 11.0442 47.4767 11.1784 47.0025C11.3378 46.4375 11.7423 46.1853 12.2902 46.2054C12.727 46.2155 13.3485 46.488 13.9124 46.9521C13.978 47.0126 14.0426 47.0629 14.1061 47.1235C14.3543 46.9621 14.5632 46.72 14.6741 46.3871C14.775 46.0845 14.7417 45.8019 14.6318 45.5396C14.0254 45.7212 13.408 45.7111 12.9247 45.5497C12.0733 45.2773 11.6021 44.6115 11.817 43.764C11.9371 43.2999 12.2871 43.0274 12.7996 42.9871C13.2506 42.9467 13.8973 43.1384 14.4936 43.5319C14.6963 43.6732 14.8921 43.8347 15.0706 44.0062C15.6154 43.5724 15.8132 43.0678 15.7748 42.5835C15.7718 42.5432 15.7668 42.5029 15.7597 42.4525C15.6174 42.4626 15.4792 42.4525 15.3461 42.4424C13.8902 42.3214 13.0388 41.3024 13.4463 40.3238C13.638 39.8698 14.0113 39.678 14.4714 39.7082C15.0979 39.7486 16.017 40.4045 16.5194 41.3427C17.0823 41.1712 17.6624 40.8282 18.1638 40.233C18.2768 40.1018 18.3676 39.9705 18.4393 39.8596C18.296 39.7889 18.1467 39.678 17.9893 39.5468C17.0904 38.7801 17.4001 38.2051 17.732 38.0134C18.0599 37.8318 18.7772 37.9024 19.207 38.3766C19.3412 38.5178 19.4562 38.7095 19.5157 38.9315C19.8356 38.5582 20.0595 37.9528 20.2502 37.4887C20.4076 37.1052 20.5589 36.8027 20.6901 36.6715C21.0966 36.268 21.5325 36.0863 21.9845 36.0258C22.618 35.9552 23.2889 36.1468 23.9427 36.389C24.1263 36.4495 24.2242 36.6513 24.1596 36.8329C24.095 37.0246 23.8933 37.1153 23.7086 37.0548C23.2496 36.8934 22.7835 36.7521 22.3335 36.7521C21.9441 36.7521 21.5708 36.8732 21.2328 37.2162C21.0714 37.3776 20.9292 37.9428 20.6971 38.4775C20.4368 39.0828 20.0847 39.6478 19.6419 39.8899C19.5662 39.9303 19.4865 39.9606 19.4038 39.9807C19.2968 40.243 19.1283 40.5256 18.8812 40.8282C18.2688 41.5748 17.5505 42.0287 16.8463 42.2608C17.0117 43.1385 16.7756 44.107 15.7436 44.9343C16.016 45.4892 16.1098 46.1349 15.8999 46.7907C15.7113 47.3758 15.3602 47.8299 14.9354 48.1426C15.1059 48.4352 15.23 48.7277 15.2865 49.0102C15.3874 49.5146 15.3027 49.9988 15.001 50.4023C14.4915 51.0985 13.6975 51.4113 12.8864 51.4516C12.7563 52.6522 12.0783 53.7822 10.5216 54.095C8.85495 54.438 7.86827 54.0141 7.32044 53.3785C6.20462 53.6307 4.84668 53.5199 3.74601 52.6422C2.80069 51.8855 2.38301 51.0581 2.268 50.2914C1.19859 50.2712 0.263364 49.7669 0.0686507 48.7075C-0.130098 47.6179 0.199801 46.4981 0.735506 45.58C0.212917 45.1866 -0.094792 44.5912 0.0262734 43.8346C0.156419 43.0174 0.699188 42.2708 1.38119 41.6655ZM13.6441 48.7075C13.4816 48.7378 13.3202 48.7579 13.1628 48.768C12.7431 48.7882 12.3638 48.7175 12.0501 48.5864C12.1792 48.7074 12.3003 48.8588 12.4072 49.0404C12.5676 49.3127 12.7028 49.6458 12.7916 50.0191C13.1992 50.0191 13.6037 49.8981 13.861 49.555C13.9205 49.4743 13.9195 49.3834 13.9013 49.2825C13.867 49.1009 13.7772 48.9193 13.6602 48.7377C13.6552 48.7276 13.6491 48.7176 13.6441 48.7075ZM15.3067 41.4336C15.112 41.1813 14.881 40.9794 14.658 40.8584C14.5904 40.818 14.5238 40.7877 14.4603 40.7675C14.4401 40.7575 14.4118 40.7575 14.3917 40.7575C14.3372 40.9088 14.435 41.0501 14.5783 41.151C14.7629 41.2922 15.0151 41.3932 15.3067 41.4336ZM13.7046 44.5004C13.5482 44.3995 13.3878 44.3189 13.2365 44.2685C13.1628 44.2382 13.067 44.2281 12.9923 44.218C13.0135 44.2685 13.0549 44.3087 13.1053 44.339C13.2617 44.4399 13.4726 44.4903 13.7046 44.5004ZM8.06097 51.3306C8.12756 51.2802 8.15579 51.2296 8.10132 51.2094C8.05995 51.1893 8.05088 51.26 8.06097 51.3306ZM4.22925 37.4887C4.30492 37.4988 4.36141 37.4888 4.34225 37.4485C4.30996 37.388 4.26658 37.4181 4.22925 37.4887ZM5.37835 34.8353C5.37936 34.8353 5.37936 34.8353 5.37936 34.8353H5.37835Z" fill="var(--fill-0, #283E37)"/>
<path id="path218-9" fill-rule="evenodd" clip-rule="evenodd" d="M14.0324 18.7256C14.0375 18.7155 14.0405 18.6953 14.0425 18.6852C14.0395 18.7054 14.0264 18.7155 14.0163 18.7357C13.982 18.7458 13.9628 18.7659 13.983 18.7861C13.988 18.7962 13.9961 18.7862 14.0012 18.7761C14.0022 18.7761 14.0022 18.7861 14.0032 18.7861C14.0718 18.9072 14.1828 19.0283 14.3623 19.1191C14.7265 19.3108 15.1775 19.4923 15.7405 19.6437C15.9352 19.6538 16.0794 19.8253 16.0633 20.0271C16.0472 20.2188 15.8757 20.36 15.6809 20.3398C15.0191 20.4004 14.4612 20.3902 13.9931 20.3195C13.6551 20.259 13.3868 20.1279 13.1587 19.9968C12.6422 19.6739 12.4394 19.1696 12.4475 18.5138C12.5474 17.8177 13.0145 17.3132 13.8317 17.2023C14.1807 17.1619 14.5893 17.172 15.0191 17.2628C15.5407 17.3636 16.0623 17.5552 16.5385 17.7368C16.7302 17.7772 16.8553 17.9588 16.8179 18.1504C16.7796 18.3421 16.594 18.4734 16.4023 18.433C15.8081 18.4229 15.1503 18.4734 14.5792 18.5743C14.438 18.6046 14.3109 18.6449 14.1908 18.6752C14.1464 18.6954 14.0798 18.7054 14.0324 18.7256ZM14.0324 18.7256C14.0254 18.7458 14.0163 18.7559 14.0052 18.7761C14.0042 18.7761 14.0032 18.7761 14.0012 18.7761C13.9961 18.766 14.0052 18.7458 14.0163 18.7357C14.0213 18.7256 14.0264 18.7256 14.0324 18.7256Z" fill="var(--fill-0, #283E37)"/>
<path id="path220-6" fill-rule="evenodd" clip-rule="evenodd" d="M16.4709 18.0898C16.1491 18.6346 15.8958 19.2904 15.7112 19.9967C14.1666 19.8655 13.1487 19.5224 13.2445 18.5943C13.3434 17.656 15.1563 17.8275 16.4709 18.0898Z" fill="var(--fill-0, #283E37)"/>
</g>
</svg>
