<svg xmlns="http://www.w3.org/2000/svg" width="64" height="64" viewBox="0 0 64 64" fill="none">
  <path d="M20.326 50.7734C20.5641 50.8359 21.3772 51.7924 21.6371 52.0114C23.5871 53.6548 26.0174 54.4684 28.5632 54.3152C28.9259 54.2934 30.2145 54.0219 30.4263 54.0827C30.7686 54.3664 30.6055 54.5685 30.3597 54.8328C27.3293 56.2928 21.9906 54.3895 20.4321 51.4218L20.411 51.3811C20.2787 51.1281 20.2868 51.0662 20.326 50.7734Z" fill="#696565"/>
  <path d="M19.7507 34.1904C20.0877 34.163 20.7644 34.1167 21.0541 34.2968L21.0713 34.4025C20.8349 34.7357 20.0646 34.9388 19.6499 35.1137C17.9593 35.8268 17.0971 36.7335 16.4149 38.4177C16.3326 38.7469 16.2992 39.0817 15.8985 39.1435C15.2805 38.7433 16.0215 37.1933 16.3523 36.7098C17.1596 35.5298 18.3244 34.4925 19.7507 34.1904Z" fill="#696565"/>
  <path d="M7.31919 44.4453L7.64769 44.4666C7.70513 44.5058 7.78774 44.5355 7.7589 44.6241C7.20512 46.3229 7.21347 48.1235 9.00288 49.0818C9.27226 49.226 9.77569 49.3163 9.93069 49.6108C9.8849 49.8237 9.8996 49.7596 9.68324 49.9209C6.97586 50.2326 5.88919 46.3137 7.31919 44.4453Z" fill="#696565"/>
  <path d="M33.5361 52.5547C33.6937 52.5898 33.725 52.5852 33.8147 52.7448C34.0981 53.2494 33.1136 53.7 32.7765 53.8737C32.673 53.849 32.5676 53.7868 32.4713 53.7366C32.1802 53.236 33.158 52.7811 33.5361 52.5547Z" fill="#696565"/>
  <path d="M31.9502 5.98642C33.4367 5.76881 35.7421 6.45666 37.0713 7.07528C39.9758 8.41566 41.9333 10.6145 43.0644 13.5694C45.469 19.8515 42.1452 25.7837 39.4863 31.4278C42.1501 31.618 43.5936 32.6401 44.4082 35.1808C47.5481 32.8582 52.2984 34.3719 53.9756 37.7784C54.5363 38.9174 54.5648 39.6007 54.4961 40.8517C55.2421 40.9111 56.0202 41.0294 56.6758 41.379C61.8909 44.1621 60.6386 51.1787 55.2539 52.8966C53.1262 53.5753 51.315 53.4059 49.3125 52.4161C48.1279 55.5507 43.9805 56.6338 41.0879 55.4815C40.1655 55.1141 39.1132 54.5715 38.5596 53.7198C37.0066 55.6438 35.2457 56.8031 32.9697 57.6739C28.179 59.6461 20.9025 57.9165 17.8105 53.6954C17.4544 53.2093 17.1867 52.6818 16.8818 52.1642C15.1091 53.6708 11.0051 53.7766 8.87597 53.2149C2.96588 51.6626 1.91523 45.3109 6.52245 41.5255C8.60433 39.815 10.159 38.9537 12.9072 39.6876C12.3169 33.8242 19.2347 29.4002 24.3262 31.7013C23.9462 31.1018 23.3925 29.9322 23.0644 29.2784C21.8552 26.8681 20.1478 23.3017 19.7939 20.6056C19.3769 17.4269 20.2767 13.3396 22.3076 10.796C24.9446 7.49336 27.9492 6.50368 31.9502 5.98642ZM22.5869 32.129C22.0808 32.0514 21.4518 31.9785 20.9482 32.0831C18.9511 32.3332 16.7059 33.3831 15.4502 35.0001C14.2151 36.5905 13.4902 38.3814 14.1162 40.3829C13.9528 40.552 13.7756 40.7272 13.6309 40.9112L13.1592 40.3419C12.8616 40.2933 12.0417 40.1483 11.7744 40.1602C10.4669 40.2191 8.97979 40.9366 7.93261 41.6681C6.52009 42.655 5.038 44.5459 4.73144 46.2618C4.51147 47.4938 4.87649 48.7695 5.59765 49.7784C6.54061 51.0976 8.57202 52.0962 10.1455 52.3233C12.6311 52.6818 15.0209 52.0667 17.1152 50.7257C18.0405 51.1323 17.6676 51.4569 18.1113 52.1983C19.1725 53.9711 20.9656 55.1319 22.8096 55.9659C25.9342 57.2943 29.4589 57.5972 32.6748 56.38C34.0783 55.8487 35.6407 54.8238 36.7246 53.7677C37.0541 53.4463 38.0956 51.7782 38.6035 52.0636C39.079 52.3314 39.6371 53.0299 40.0586 53.3985C42.3835 55.4307 46.6841 54.927 47.9736 51.92C48.1315 51.5516 48.213 51.201 48.3545 50.8643C48.6224 50.796 48.9101 50.717 49.1787 50.6593C51.6878 52.3032 54.4879 52.2618 56.8213 50.3175C57.8222 49.3432 58.4616 48.3458 58.5264 46.8868C58.5735 45.8164 57.9019 44.1517 57.1269 43.3907C56.7365 43.0075 56.2177 42.6473 55.6328 42.4347C54.8987 42.1682 53.6059 42.4356 52.9521 42.086C52.8871 42.0508 52.8605 41.8368 52.8574 41.7491C52.8457 41.4074 53.1437 40.4928 53.1533 40.2227C53.187 39.2696 52.4446 37.7264 51.7754 37.0782C50.6447 35.9836 49.2613 35.4386 47.7305 35.379C45.7285 35.3012 45.121 36.3998 43.5781 36.7462C43.2487 34.8208 43.02 34.1395 41.3476 32.8643C40.6726 32.3498 39.9305 32.2283 39.1113 32.0831C38.811 32.7427 38.355 33.5168 37.9668 34.1339C36.7616 36.0495 35.6185 38.0886 34.374 39.9718C35.1 39.6668 35.9148 39.3444 36.7041 39.2638C38.0158 39.1298 40.1673 39.1157 41.1728 40.1124L40.9726 40.8849C40.1542 40.8005 39.3463 40.6056 38.542 40.5255C35.5426 40.2266 32.8733 41.6647 30.8857 43.8155C30.7628 43.9486 30.4586 44.2366 30.2803 44.2638C29.9291 43.8798 30.666 42.7213 30.9307 42.3751C29.6065 41.2556 28.5823 41.3109 26.875 41.3419C25.9959 41.3579 25.4882 41.963 24.8838 41.7618L24.7998 41.6749C24.8292 41.4203 24.9803 41.2824 25.1855 41.1222C26.1502 40.3691 27.6202 40.1455 28.8047 40.2804C29.0432 40.3084 29.2802 40.3493 29.5146 40.4015C29.0333 39.7451 28.5507 39.0885 28.1152 38.4005C27.5571 37.5187 24.9407 32.9872 24.5127 32.6593C24.0645 32.3171 23.1343 32.2128 22.5869 32.129ZM31.0234 7.17196C24.6889 7.84656 20.0701 13.682 20.998 20.0138C21.4715 23.8665 23.5486 27.2836 25.2519 30.6905C26.8049 33.7966 28.4131 36.732 30.5234 39.5225C30.7819 39.8645 31.5931 41.1398 31.8838 41.2686C32.0019 41.1824 31.9953 41.1861 32.0674 41.0577C34.8955 36.5945 37.801 32.1488 39.8525 27.2569C40.2377 26.3387 40.7218 25.4617 41.0586 24.5265C42.1614 21.4634 42.9092 18.6516 42.0488 15.4005C41.3537 12.7735 40.1333 10.4254 37.709 8.98446C36.0332 7.97097 34.8437 7.45818 32.8623 7.32724C32.4546 7.30034 31.3522 7.27308 31.0234 7.17196Z" fill="#696565"/>
  <path d="M31.3341 12.1875C32.5527 12.5732 33.1665 12.0282 34.7149 13.1191C36.0742 14.0936 36.9929 15.5664 37.2696 17.2158C37.4997 18.5977 37.176 20.0149 36.3692 21.1602C35.2983 22.6587 34.1384 23.2449 32.3888 23.5371C27.4595 23.7666 24.4687 18.3945 27.544 14.5996C28.4256 13.5004 29.708 12.7957 31.1085 12.6406C31.2751 12.52 31.2588 12.4223 31.3341 12.1875ZM30.8507 13.5127C29.709 13.747 28.8083 14.4641 28.1759 15.4258C27.5323 16.3923 27.3008 17.5762 27.5333 18.7139C27.7928 19.9271 28.4472 20.8087 29.4835 21.4727C30.573 22.1706 31.3466 22.2832 32.629 22.1475C33.7833 21.8651 34.5113 21.3096 35.1651 20.3379C37.0515 17.5344 34.8149 13.3581 31.3819 13.6748C31.2597 13.6857 31.1768 13.4718 30.8507 13.5127Z" fill="#696565"/>
  <path d="M39.952 21.5078C39.9921 21.5267 40.096 21.6044 40.1383 21.6342C40.878 22.8664 35.92 33.4369 34.3262 34.6606C34.1126 34.5261 34.12 34.5732 34.0156 34.3737C34.1795 33.3686 36.1342 30.2732 36.6902 29.1837C37.5642 27.4715 38.282 25.7512 39.0135 23.9649C39.3466 23.1514 39.6014 22.3224 39.952 21.5078Z" fill="#696565"/>
  <path d="M27.9674 9.82907C28.1642 9.80795 28.3206 9.76764 28.4819 9.88265C28.5101 10.025 28.5079 10.071 28.3577 10.1948C27.9578 10.5243 27.387 10.7735 26.9644 11.0618C26.5021 11.3773 25.9138 11.934 25.5334 12.3323C24.4879 13.4271 23.843 14.7892 23.5171 16.2578C23.392 16.8212 23.2277 17.6049 22.9897 18.1164C22.8326 18.1728 22.8133 18.175 22.6541 18.1263C22.609 18.086 22.5198 17.9903 22.5151 17.9317C22.2505 14.6007 24.7802 10.7012 27.9674 9.82907Z" fill="#696565"/>
</svg>