<svg xmlns="http://www.w3.org/2000/svg" width="64" height="64" viewBox="0 0 64 64" fill="none">
  <path d="M31.5017 10.6248C32.2608 11.3162 36.3816 22.5805 36.7419 24.115C38.8692 23.316 42.5006 23.3501 44.7683 23.073C45.6812 22.9614 52.4518 21.9234 50.5769 24.5965C49.2571 26.5241 47.1311 27.7205 45.5241 29.2166C43.6969 30.9177 42.0169 32.4913 40.0818 34.0867C41.1107 35.745 41.4526 37.7715 42.2448 39.5515C42.5571 40.3455 42.6852 40.7624 43.0222 41.5857C43.6049 43.0092 46.8701 49.9022 42.6794 48.6795C41.2885 48.2733 39.0349 46.2323 37.8855 45.3084C37.1668 44.7306 36.2749 44.0849 35.571 43.4685C34.5405 42.5795 33.5562 41.5035 32.446 40.7361L32.0691 40.4793C30.8574 42.2666 22.8799 49.6419 20.8991 50.1492C20.3347 50.0065 20.1705 49.9228 19.8493 49.4451C20.1076 45.379 22.4166 38.6857 24.0466 34.9783C21.8735 33.2801 19.4418 31.8657 17.1384 30.3357C15.7413 29.4766 14.2485 28.5161 13.0759 27.367C10.035 24.3869 17.1563 24.7021 18.6072 24.6814C21.1859 24.6242 23.7661 24.6316 26.3445 24.7049C26.4517 23.8718 26.9339 21.7983 27.1374 20.9734C27.7104 18.6507 29.0019 12.8413 30.1628 10.9344C30.5078 10.7749 30.8378 10.6599 31.2146 10.6092C31.3479 10.5947 31.3676 10.6014 31.5017 10.6248ZM30.9304 12.3748C30.6392 13.4444 30.1263 15.3929 29.8318 16.3875C29.4129 17.8018 27.9976 25.2741 27.1081 25.8728C26.8056 25.9687 26.5144 25.8375 26.239 25.6951C26.1786 25.6637 26.1191 25.6308 26.0603 25.5965C23.0638 25.8043 20.064 25.9621 17.0622 26.0701C16.1414 26.1114 14.3935 26.0921 13.5739 26.1873C13.6125 26.4697 14.8987 27.0855 15.1736 27.2342C15.7929 27.5698 16.4038 27.9207 17.0056 28.2869C17.7239 28.7181 18.5167 29.3062 19.2185 29.7967C21.3351 31.276 23.5957 32.6436 25.3493 34.5437C24.3936 36.747 23.9724 39.1731 23.2448 41.4412C22.4825 43.8177 21.9001 45.7961 21.4958 48.2625C22.5837 47.2028 23.6648 46.2553 24.7722 45.2254L28.5652 41.6287C29.4653 40.7805 30.3503 39.7343 31.279 38.9324C31.5512 38.7179 31.8006 38.5433 32.1628 38.5877C33.1832 38.7133 37.9959 43.1412 39.1345 44.0584C40.3005 44.9976 41.5633 45.9916 42.8718 46.7166C42.0051 43.2439 40.3534 40.1925 39.2966 36.782C38.9057 35.5204 38.3593 34.5887 38.3816 33.199C38.9249 32.597 39.4096 32.1581 40.0671 31.6824C42.1995 30.1395 43.7487 28.1411 46.032 26.7322C46.5627 26.4047 47.9061 24.9581 48.3347 24.4627C46.7308 24.9564 44.2033 24.8358 42.4636 25.0701C40.2525 25.3679 37.954 25.7623 35.7312 25.8836C35.6572 25.772 35.2722 25.2572 35.2585 25.2195C35.1337 24.8748 35.033 24.3846 34.8991 24.0359C34.6582 23.4086 34.4148 22.808 34.1882 22.1756C33.9083 21.3943 33.6867 20.3292 33.4109 19.5847C33.0634 18.6473 32.6124 17.501 32.2595 16.5877C32.0085 15.9378 31.1741 12.5747 30.9304 12.3748Z" fill="#696565"/>
  <path d="M18.546 13.9297C20.0593 14.0547 20.9643 16.0295 21.7732 17.1332C22.474 18.0895 23.1413 18.5507 22.5773 19.6677C22.0939 20.0811 21.8147 19.6424 21.4787 19.28C21.1056 18.8126 20.6185 18.2631 20.3282 17.7367C19.5932 16.4043 18.1574 15.5768 18.546 13.9297Z" fill="#696565"/>
  <path d="M46.7728 34.6491C48.1537 34.5741 49.4021 35.0116 50.7037 35.3977C51.1801 35.539 52.5183 36.1578 52.3059 36.7853C52.1851 36.9221 51.9977 36.9151 51.8075 36.9377C50.0339 37.038 48.4025 36.7089 46.7658 36.0181C45.9218 35.6618 45.9195 34.8475 46.7728 34.6491Z" fill="#696565"/>
  <path d="M43.7778 14C44.0015 14.0579 44.2989 14.1988 44.5176 14.2938C43.3842 16.0194 42.6888 17.9751 40.5174 18.9715C40.277 18.9649 40.104 18.9102 39.983 18.6863C39.9213 18.5722 39.9252 18.3443 39.9772 18.2292C40.5549 16.9496 42.592 14.6484 43.7778 14Z" fill="#696565"/>
  <path d="M32.483 46.8903C32.6301 46.8754 32.7021 46.8851 32.8455 46.8989C33.7629 47.4326 33.7002 52.3103 32.903 52.7223C31.414 52.3079 31.7868 48.6511 31.9637 47.5278C32.0176 47.1858 32.2046 47.0483 32.483 46.8903Z" fill="#696565"/>
  <path d="M17.0248 36.2531C17.3892 36.1849 18.0438 36.1576 18.2746 36.508C18.2939 37.2991 14.5084 38.5619 13.7739 38.7956C13.3878 38.846 12.9296 38.9505 12.5764 38.8074C12.0709 38.2892 12.6824 37.6677 13.1679 37.4244C14.3932 36.8106 15.6673 36.4253 17.0248 36.2531Z" fill="#696565"/>
</svg>