<svg xmlns="http://www.w3.org/2000/svg" width="80" height="80" viewBox="0 0 64 64" fill="none">
  <g clip-path="url(#clip0_981_4790)">
    <path fill-rule="evenodd" clip-rule="evenodd" d="M12.7636 5.76761C13.3698 4.53925 17.7613 6.40199 18.8993 6.60745C21.1972 7.02182 23.3497 7.46783 25.6826 7.6221C28.7718 7.92386 32.2815 8.25111 34.9697 9.94729C36.0422 10.6241 37.214 12.0232 37.2968 13.3262C43.0117 13.3149 48.6469 13.2819 54.3505 13.6826C55.3275 13.7513 59.8026 13.5396 60.3085 14.0264C61.0839 15.5818 60.838 24.6791 60.8476 26.9453C60.854 28.3749 60.9961 30.3879 61.037 31.8467C61.0998 34.1456 61.0755 36.4461 60.9648 38.7432C60.048 39.9582 59.5944 40.0867 58.7353 41.0186C59.5042 43.0029 58.3657 45.6229 56.372 46.3516C55.443 46.686 54.4187 46.6316 53.5302 46.2012C53.4954 46.1846 53.4609 46.1673 53.4267 46.1494C52.1637 47.1779 51.0376 48.2924 49.6806 49.2119C48.7443 49.8464 48.0916 49.7289 47.0156 49.709C46.8865 51.2416 46.1379 52.4097 44.9296 53.3203C42.0664 55.4783 37.8088 53.9601 38.2128 50.0157C38.2242 49.9039 38.2385 49.7915 38.2568 49.6807C36.3242 49.5922 33.9743 49.7375 32.1386 49.5596C30.3571 55.9804 22.7756 54.9572 23.6445 49.2744C22.951 49.2561 21.0445 49.3114 20.5497 48.9219C19.8924 47.7733 20.2321 34.9175 20.3251 32.711C18.9771 32.7728 18.0233 32.7824 16.6777 32.5313C14.1485 32.0592 11.6476 30.595 11.1552 27.8662C11.1394 27.7749 11.2334 27.4265 11.2421 27.2842C9.31713 26.2952 7.7754 25.6394 7.03314 23.3614C6.95111 23.1095 6.82429 22.6329 6.87005 22.3584C6.89231 22.2248 7.11397 21.8025 7.06537 21.7657C6.43464 21.305 5.24965 20.6692 4.68451 20.1787C3.55338 19.1969 1.54496 17.0104 2.31439 15.3848C2.35105 15.1885 2.98218 14.6167 3.1474 14.6358C4.11608 14.7475 5.14811 15.1801 6.11712 15.4346C9.56961 16.3411 13.0331 16.8154 16.5868 17.086C16.9291 17.1121 18.3591 17.392 18.5781 17.2998C18.356 16.9563 18.1339 16.3063 18.1523 15.8867C18.1546 15.8325 18.2983 15.4193 18.2743 15.3985C17.3635 14.6307 16.2292 14.1839 15.7382 12.9795C15.5671 12.5792 15.0969 10.9696 15.6591 10.7559C16.1622 10.9519 16.2741 12.056 16.5195 12.4395C17.747 14.3573 20.3951 14.8978 22.33 15.8555C21.0686 16.4964 20.3061 16.0981 18.9824 15.7149C19.1953 16.2126 19.4226 16.6864 19.6562 17.1748C19.7203 17.325 19.7476 17.4812 19.9208 17.5157C21.7841 17.8861 23.2738 18.3169 24.8974 19.3594C27.3329 17.4585 29.8913 15.1222 32.4638 13.4727C32.8053 13.2538 35.8746 13.3308 36.5331 13.3272C34.0182 8.25213 25.5883 9.31483 20.9111 8.22268C19.5644 7.90817 18.1919 7.70506 16.8759 7.24514C15.8026 6.93016 14.4119 6.33673 13.3544 6.11624C14.5692 8.8963 15.8483 9.53776 18.5868 10.7491C19.4349 11.1241 22.9891 12.0767 23.3242 12.6104C23.2717 12.7009 23.2608 12.7336 23.1337 12.7481C20.6688 13.0492 17.9954 11.9085 15.8935 10.7608C14.5209 10.0112 11.918 7.48118 12.7636 5.76761ZM43.2079 46.6436C38.884 47.1413 37.9205 52.707 41.9824 53.0889C43.2389 52.9001 44.2 52.4905 44.9882 51.4209C45.5619 50.6505 45.799 49.6807 45.6454 48.7324C45.5344 48.08 45.2304 47.485 44.6826 47.0957C44.2509 46.7935 43.7348 46.6355 43.2079 46.6436ZM27.7021 52.6563C31.9495 51.5401 31.7716 45.9082 28.0488 46.4385C23.7991 47.4947 23.7492 53.165 27.7021 52.6563ZM42.3613 48.2266C43.1293 48.1959 43.8166 48.3841 44.1025 49.1856C44.2421 49.5863 44.2122 50.0272 44.0195 50.4053C43.7294 50.9813 43.3179 51.1927 42.7382 51.3809C40.5798 51.685 40.144 48.9885 42.3613 48.2266ZM27.9648 47.8565C28.2058 47.8741 28.4395 47.9496 28.6454 48.0762C30.0401 48.9217 29.3208 50.7912 27.7763 51.1114C25.4522 50.8293 25.8627 48.3023 27.9648 47.8565ZM42.5048 49.169C41.6952 49.5901 41.4889 50.2245 42.5224 50.5098C43.1357 50.2042 43.3996 49.3367 42.6962 49.1895C42.6333 49.1758 42.5692 49.1692 42.5048 49.169ZM27.8339 48.7881C27.1585 49.2701 26.9152 49.8135 27.8486 50.1983C28.2878 49.9172 28.6624 49.1371 28.0878 48.8106L27.8339 48.7881ZM3.33197 15.7998C3.42646 16.8097 4.03798 17.5312 4.67669 18.2422C6.57525 20.3558 9.21227 21.3561 11.9013 22.0166C12.828 22.2441 15.8644 22.7011 16.3984 23.3291C16.4103 23.8142 15.0193 23.779 14.6581 23.7617C12.1484 23.6415 9.86483 22.8904 7.54486 22.0098C8.16534 23.786 8.77643 24.6639 10.5224 25.5254C11.6972 26.1051 13.4648 26.5337 14.7548 26.8594C16.0877 27.1959 16.8714 27.1489 18.1201 27.8477C17.034 28.5995 15.869 28.4031 14.6025 28.1748C13.6583 28.0011 12.7323 27.7372 11.8388 27.3858C12.8573 29.4022 13.6328 30.242 15.7558 30.9551C18.5132 31.8811 20.6676 31.4617 23.3564 30.751C23.5869 30.69 24.0565 30.6853 24.248 30.8848C24.2655 31.6927 21.7668 32.4144 21.1288 32.5811C21.3421 36.6155 21.6145 40.5734 21.5068 44.626C21.4765 45.7647 21.5046 47.237 21.3896 48.3389C22.012 48.2604 23.3241 48.1923 23.9394 48.2725C24.8311 46.8772 25.8287 45.7309 27.5224 45.3379C29.6891 44.8352 31.7022 46.0954 32.1572 48.2852C32.1765 48.3779 32.1903 48.4722 32.2001 48.5664C33.568 48.3144 37.1149 48.3505 38.6503 48.3496C39.068 47.5372 39.5188 46.9007 40.2431 46.3272C42.8591 44.5552 46.1144 45.3878 46.9911 48.5928C47.5317 48.5452 47.888 48.5587 48.4335 48.5801C48.2895 47.7705 48.3346 46.4906 48.3388 45.6504C48.3555 42.2683 48.0682 38.8979 48.1679 35.5166C48.1899 34.7697 48.2059 34.0168 48.2167 33.2696L48.3535 24.4883C45.2069 24.7106 41.8517 24.4426 38.6845 24.4629C38.781 25.1788 38.764 25.9929 38.7538 26.7237C38.7313 28.3571 38.708 29.9937 38.663 31.627C38.6538 31.9592 38.4804 32.3701 38.081 32.4121C37.5025 32.4102 36.7379 31.6062 36.3183 31.2334C34.9782 32.8956 34.8324 32.5526 33.5497 31.0977C33.2006 31.4741 32.6616 32.1289 32.1992 32.3028C31.0328 32.118 31.5043 25.393 31.541 24.3057C30.4523 24.2585 29.3628 24.2209 28.2734 24.1924C28.4576 25.0805 28.6116 25.9684 28.372 26.8653C28.2467 27.3343 28.1226 28.4968 27.6904 28.7041C27.2153 28.4339 27.5638 26.9982 27.54 26.4424C27.2309 19.2242 19.7215 18.7201 14.162 18.2324C12.2622 18.0603 10.2212 17.7301 8.49505 17.3633C7.56217 17.1702 6.64214 16.9192 5.74017 16.6123C5.13334 16.4003 3.89428 15.8799 3.33197 15.7998ZM53.8154 20.5508C52.1112 21.9688 50.8125 23.0939 49.0146 24.4014C49.382 28.3928 49.4344 31.8926 49.4872 35.9092C49.5409 39.9825 49.7484 44.0954 49.4296 48.1729C49.4754 48.1679 49.5216 48.1632 49.5673 48.1582C50.0928 47.6139 50.9946 46.6488 51.4814 46.1573C53.4057 44.2373 55.3881 42.3764 57.4247 40.5762C58.1745 39.907 59.0479 39.0861 59.8105 38.4483C59.6331 37.1044 59.8362 35.3678 59.7812 33.9795C59.7082 32.1607 59.6015 30.3187 59.5605 28.502C59.5208 25.9979 59.5454 23.493 59.6337 20.9903C59.6491 20.4891 59.7286 15.8145 59.6581 15.6866L53.8154 20.5508ZM57.6884 41.9942C57.2588 42.4024 54.4809 44.911 54.3163 45.2442L54.3867 45.335C55.3058 45.3565 55.785 45.4233 56.5449 44.7764C57.0003 44.3883 58.1887 42.508 57.6884 41.9942ZM13.3173 43.1885C14.2051 43.1425 17.2425 42.9937 17.7187 43.3907C19.2063 44.6318 14.6022 44.3357 14.3368 44.334C13.4048 44.3374 12.47 44.3685 11.539 44.3614C11.1003 44.358 9.58014 44.3904 9.84857 43.6533C10.3691 43.1816 12.4935 43.2178 13.3173 43.1885ZM0.780209 43.2285C1.53639 43.2146 3.76113 43.1039 4.26068 43.586C4.3408 43.9984 3.95082 44.0847 3.62982 44.1729C3.36024 44.2079 3.08894 44.2313 2.81732 44.2422C2.06076 44.271 0.501235 44.3955 -0.0352207 43.8985C-0.130303 43.6687 -0.123073 43.7642 -0.0742832 43.5342C0.0637983 43.3638 0.330459 43.3085 0.546811 43.2383C0.624533 43.2335 0.702359 43.2301 0.780209 43.2285ZM8.49603 39.4424C9.43245 39.3207 13.5079 39.0612 14.1884 39.5928C14.2853 39.6686 14.3258 39.7477 14.3593 39.8633C14.1991 40.3999 13.3919 40.4519 12.9169 40.4326C11.6903 40.3829 10.0755 40.5959 8.88568 40.4239C8.34619 40.4213 6.29612 40.5132 6.15033 39.8574C6.45111 39.4245 7.96005 39.4562 8.49603 39.4424ZM58.4062 36.792C58.4587 36.9188 58.529 37.0577 58.4618 37.1983C58.1373 37.8756 56.5938 38.9489 56.0136 39.2744L55.9003 39.2198C55.6404 38.4884 57.6993 36.9938 58.248 36.668L58.4062 36.792ZM58.4023 34.2549C59.5887 35.0018 56.115 36.887 55.622 37.126L55.5019 37.0987C55.4411 37.0069 55.3836 36.9588 55.4316 36.8399C55.7223 36.1182 57.8077 34.623 58.4023 34.2549ZM15.704 35.461C16.2545 35.4448 17.5371 35.4177 17.8925 35.8877C17.8736 36.6948 15.9115 36.5885 15.3124 36.6045C14.2319 36.6177 10.6415 36.7814 9.8388 36.4375C9.65555 36.3589 9.57557 36.2673 9.50482 36.0879C9.59241 35.8001 9.69586 35.7141 9.99994 35.6602C10.7091 35.5344 11.5271 35.5361 12.2441 35.5078C13.3625 35.4211 14.5751 35.4942 15.704 35.461ZM3.72552 35.5645C4.35765 35.5331 6.75897 35.3373 7.08978 35.96C7.04887 36.3763 6.71363 36.4252 6.36615 36.5098C5.6409 36.517 3.20286 36.7853 2.91497 36.1133C2.92218 35.8731 2.8963 35.9677 3.02533 35.7559C3.21373 35.6159 3.48613 35.6017 3.72552 35.5645ZM32.3915 24.378C32.4122 25.7803 32.4202 27.1834 32.416 28.586C32.4149 29.1383 32.43 30.3548 32.3622 30.876C32.7981 30.5189 33.1412 30.2149 33.6699 29.9961C34.1548 30.3289 34.6191 30.7305 35.0722 31.1084C35.5016 30.644 35.896 29.934 36.5605 30.1592C36.9552 30.4035 37.2104 30.5894 37.579 30.8711C37.4308 29.0779 37.5208 26.2393 37.6904 24.4541C36.1964 24.4444 33.8361 24.4879 32.3915 24.378ZM48.5029 14.7481C47.4814 15.6401 46.559 16.6683 45.5702 17.5977C44.6154 18.4952 43.6022 19.3253 42.6562 20.2344C41.6868 21.1659 40.6811 22.3686 39.6533 23.208C41.2506 23.2472 47.2611 23.3796 48.5097 23.878C48.7237 23.6645 48.9553 23.4407 49.162 23.2227C50.9983 21.1644 53.3 19.3052 55.4179 17.5381C56.2913 16.8093 57.7062 15.388 58.5732 14.7949C57.0673 14.9822 55.2125 14.7526 53.6728 14.7617C51.9352 14.7721 50.2426 14.7878 48.5029 14.7481ZM33.2812 23.2451C34.5753 23.179 36.1532 23.1787 37.4609 23.1826L38.2685 23.1905C41.067 19.9611 43.8942 17.6142 46.9618 14.6817C45.5651 14.6495 44.2169 14.6078 42.8183 14.6153L33.2812 23.2451ZM32.6669 14.2764C31.5164 15.3961 30.3469 16.3716 29.0976 17.3809C28.0927 18.1928 26.7596 19.3943 25.6035 19.9668C26.7609 20.817 27.4169 21.9462 28.0595 23.208C29.3339 23.2162 30.6752 23.2389 31.9443 23.1846C32.3838 22.7746 32.8159 22.3555 33.2392 21.9287C35.2838 20.0089 37.3184 18.0726 39.4755 16.2813C40.1245 15.7425 40.9523 14.9748 41.6054 14.4864C39.4262 14.6307 37.0235 14.2924 34.8202 14.3487C34.1176 14.3666 33.3728 14.2744 32.6669 14.2764Z" fill="#696565"/>
  </g>
  <defs>
    <clipPath id="clip0_981_4790">
      <rect width="64" height="64" fill="white"/>
    </clipPath>
  </defs>
</svg>