<svg width="98" height="128" viewBox="0 0 98 128" fill="none" xmlns="http://www.w3.org/2000/svg">
<path d="M49 8C52.866 8 56 11.134 56 15V55C56 58.866 52.866 62 49 62C45.134 62 42 58.866 42 55V15C42 11.134 45.134 8 49 8Z" stroke="#283E37" stroke-width="3"/>
<path d="M35 20C38.866 20 42 23.134 42 27V55C42 58.866 38.866 62 35 62C31.134 62 28 58.866 28 55V27C28 23.134 31.134 20 35 20Z" stroke="#283E37" stroke-width="3"/>
<path d="M63 20C66.866 20 70 23.134 70 27V55C70 58.866 66.866 62 63 62C59.134 62 56 58.866 56 55V27C56 23.134 59.134 20 63 20Z" stroke="#283E37" stroke-width="3"/>
<path d="M21 35C24.866 35 28 38.134 28 42V55C28 58.866 24.866 62 21 62C17.134 62 14 58.866 14 55V42C14 38.134 17.134 35 21 35Z" stroke="#283E37" stroke-width="3"/>
<path d="M77 35C80.866 35 84 38.134 84 42V55C84 58.866 80.866 62 77 62C73.134 62 70 58.866 70 55V42C70 38.134 73.134 35 77 35Z" stroke="#283E37" stroke-width="3"/>
<path d="M14 62V80C14 99.33 29.67 115 49 115C68.33 115 84 99.33 84 80V62" stroke="#283E37" stroke-width="3"/>
<path d="M49 115V120" stroke="#283E37" stroke-width="3"/>
<path d="M35 120H63" stroke="#283E37" stroke-width="3"/>
</svg>
