<svg width="392" height="189" viewBox="0 0 392 189" fill="none" xmlns="http://www.w3.org/2000/svg">
<rect width="392" height="188.805" fill="#E6E3DE"/>
<path d="M196.559 145.633C196.922 145.708 197.689 145.927 197.754 146.331C198.314 149.854 198.786 156.92 197.551 160.209C197.022 160.27 197.131 160.344 196.803 160.108C195.615 157.623 196.095 148.482 196.559 145.633ZM222.659 143.18C224.628 143.513 227.162 150.839 227.628 152.701C227.725 153.09 227.671 154.017 227.64 154.45C224.832 154.172 222.433 145.644 222.659 143.18ZM168.841 142C169.153 142.003 169.375 142.078 169.677 142.156C170.858 143.533 165.433 152.302 164.145 153.64C163.869 153.732 163.672 153.705 163.383 153.699C162.211 152.215 167.658 143.449 168.841 142ZM248.486 137.641C250.706 138.401 255.338 141.699 256.519 143.909C256.832 144.496 256.706 144.834 256.511 145.419C254.719 145.614 248.197 140.035 248.486 137.641ZM145.544 136.614C146.47 138.38 139.758 143.203 138.205 144.109C137.876 143.73 137.513 143.041 137.789 142.567C139.225 140.104 142.905 137.749 145.347 136.523L145.544 136.614ZM160 57.7637C160.789 57.6754 162.665 57.6589 163.138 58.2822C164.448 59.0113 163.242 65.5292 163.995 65.9902C165.814 67.104 165.856 66.4181 165.771 70.125C167.431 70.0923 169.092 70.087 170.753 70.1094C173.981 70.0598 182.176 69.624 184.66 70.9492C184.648 73.5724 184.566 77.0401 184.781 79.6162C184.901 84.437 184.913 89.3006 185.124 94.1104C185.295 98.0086 185.509 101.806 185.44 105.715C185.411 107.392 185.517 109.341 185.272 110.985L187.886 110.907C187.803 107.699 187.245 95.4608 187.927 92.8828C189.014 91.7252 206.415 91.2601 206.978 92.4961C208.237 95.2761 207.734 107.869 207.689 110.836L210.322 110.753C210.09 105.863 210.369 101.262 210.435 96.4219L210.644 70.8369C212.245 70.2292 213.783 70.0353 215.485 69.9541C220.265 69.7257 225.076 69.7063 229.86 69.7178C232.452 69.7239 235.354 69.5844 237.911 69.9971C238.598 70.108 239.588 70.3337 240.087 70.8643C241.61 72.4853 241.105 106.229 240.889 110.717C242.077 110.732 243.334 110.655 244.526 110.601C244.17 108.036 243.33 94.0199 244.587 92.5947C246.524 91.6094 257.836 91.5716 260.558 91.6846C261.319 91.7162 263.145 91.7989 263.634 92.3887C264.979 94.0149 264.33 108.157 264.021 110.869C275.783 115.233 273.118 127.859 261.869 128.303C244.486 128.989 226.986 128.259 209.583 128.367C190.495 128.575 171.405 128.594 152.317 128.423L136.301 128.205C133.286 128.169 130.204 128.188 127.191 128.035C125.581 128.013 123.989 127.145 122.799 126.113C118.987 122.809 119.262 117.616 122.454 114.057C124.354 111.938 126.32 111.654 128.927 111.493C128.887 105.605 128.183 98.4751 128.862 92.7061C129.527 92.5238 130.805 92.283 131.459 92.3037C133.92 92.3813 146.593 91.0559 148.215 92.7061C149.188 94.8699 148.925 108.321 148.613 111.233L151.618 111.202C151.354 109.181 151.393 104.767 151.437 102.734C151.537 99.2897 151.599 95.8436 151.624 92.3975C151.643 86.4532 151.313 80.4939 151.576 74.5488C151.629 73.3522 151.646 72.2344 151.884 71.0557C153.218 70.7529 154.175 70.5589 155.527 70.3848C155.418 67.645 154.643 66.3757 157.793 66.3008C157.737 63.5777 158.046 60.5917 157.95 58.1338C158.625 57.9673 159.31 57.8434 160 57.7637ZM134.358 113.047C132.889 113.03 129.911 112.875 128.518 113.088C125.73 113.378 124.282 114.46 122.779 116.796C119.602 121.732 124.1 126.515 129.18 126.668C135.492 126.858 141.802 126.556 148.111 126.427C157.592 126.305 167.089 126.232 176.57 126.16L229.151 125.785L253.238 125.656C255.939 125.649 258.73 125.799 261.414 125.751C263.713 125.526 266.029 125.07 267.597 123.145C268.446 122.097 268.834 120.75 268.678 119.411C268.349 116.703 265.203 113.787 262.589 113.562C257.999 113.168 252.981 113.328 248.371 113.323L225.826 113.322L179.933 113.189L142.833 113.069C140.008 113.091 137.183 113.084 134.358 113.047ZM194.658 115.953C196.084 115.642 197.567 116.121 198.539 117.209C199.512 118.297 199.824 119.825 199.355 121.207C198.887 122.589 197.711 123.611 196.277 123.884C194.102 124.297 191.999 122.886 191.556 120.717C191.113 118.547 192.495 116.425 194.658 115.953ZM238.496 115.955C240.662 115.541 242.755 116.956 243.179 119.12C243.602 121.285 242.196 123.384 240.033 123.816C237.858 124.251 235.743 122.835 235.317 120.657C234.892 118.48 236.317 116.372 238.496 115.955ZM216.485 115.978C218.623 115.45 220.787 116.743 221.334 118.876C221.881 121.009 220.607 123.184 218.479 123.751C216.324 124.325 214.115 123.031 213.561 120.87C213.006 118.71 214.32 116.512 216.485 115.978ZM151.041 115.988C153.196 115.643 155.225 117.102 155.584 119.255C155.942 121.408 154.495 123.447 152.345 123.818C150.175 124.193 148.115 122.73 147.754 120.559C147.392 118.387 148.867 116.337 151.041 115.988ZM172.46 116.105C173.833 115.683 175.328 116.036 176.366 117.029C177.405 118.022 177.825 119.499 177.465 120.89C177.104 122.281 176.02 123.368 174.63 123.731C172.543 124.277 170.403 123.055 169.812 120.98C169.222 118.906 170.399 116.74 172.46 116.105ZM129.346 115.992C131.511 115.605 133.577 117.056 133.949 119.224C134.322 121.392 132.858 123.448 130.687 123.806C128.538 124.16 126.504 122.713 126.136 120.565C125.767 118.418 127.201 116.375 129.346 115.992ZM259.832 115.95C261.245 115.593 262.741 116.033 263.734 117.098C264.729 118.163 265.066 119.685 264.611 121.069C264.158 122.454 262.986 123.482 261.554 123.752C260.356 123.978 259.119 123.645 258.197 122.847C257.274 122.048 256.768 120.873 256.82 119.654C256.896 117.89 258.121 116.384 259.832 115.95ZM238.919 117.695C235.677 118.41 236.324 121.284 239.301 122.089C242.262 121.018 241.918 117.721 238.919 117.695ZM217.04 117.819C213.625 118.712 215.025 121.896 217.657 121.93C220.344 120.584 220.231 117.659 217.04 117.819ZM173.011 117.68C169.952 118.716 171.13 121.628 173.91 121.929C176.654 120.497 176.143 117.725 173.011 117.68ZM195.909 121.916C198.491 120.111 197.89 117.449 194.501 117.834C193.826 118.177 193.329 118.419 193.08 119.193C192.929 119.673 192.975 120.194 193.207 120.64C193.731 121.65 194.84 121.992 195.909 121.916ZM152.488 121.764C154.959 119.653 153.435 117.467 150.379 117.818C149.723 118.424 149.357 118.785 149.314 119.725C149.292 120.24 149.479 120.742 149.834 121.116C150.555 121.891 151.503 121.979 152.488 121.764ZM260.191 117.68C257.275 118.704 258.291 121.861 261.241 121.834C263.826 120.374 263.321 117.875 260.191 117.68ZM128.888 117.791C126.677 119.773 127.96 122.32 130.849 121.737C133.241 119.822 131.977 117.786 129.239 117.781C129.122 117.781 129.005 117.785 128.888 117.791ZM146.874 93.8438C145.265 93.8583 143.593 93.8452 141.993 93.9727C141.982 96.1681 142.658 100.034 139.676 99.4219C138.606 99.2021 137.038 99.4373 135.92 99.4287C135.44 97.754 135.431 95.7167 135.354 93.9502C134.534 93.9321 133.341 93.8717 132.552 93.9062L130.285 93.9834C130.394 98.8771 130.758 106.69 130.362 111.49C135.864 111.567 141.386 111.396 146.889 111.316C146.78 110.013 146.759 108.933 146.749 107.623C146.749 103.038 146.901 98.3946 146.874 93.8438ZM162.222 72.0254C159.936 72.0282 155.056 72.1484 152.883 71.9297C153.531 79.0221 153.581 86.4471 153.53 93.5791C153.491 99.0506 153.594 105.769 153.155 111.192C163.187 111.189 173.218 111.09 183.248 110.895C183.092 109.347 183.159 107.7 183.147 106.142C183.078 96.7839 182.503 87.4308 182.842 78.0693C182.912 76.1392 182.882 73.7397 183.134 71.8594L162.222 72.0254ZM194.338 93.7119C192.642 93.6855 191.01 93.6497 189.312 93.7256C189.506 99.0896 189.561 105.646 189.412 111.022L205.715 110.758C205.675 108.843 205.66 106.928 205.67 105.014C205.669 101.29 205.639 97.4451 205.826 93.7324C204.137 93.7267 202.673 93.7387 200.98 93.8301C201.06 100.435 201.27 99.4775 194.774 99.4072C194.489 97.7543 194.386 95.4287 194.338 93.7119ZM211.82 71.5625C212.665 84.6089 212.768 97.6929 212.129 110.751L238.878 110.631L238.764 71.7129C232.67 72.1174 225.989 71.8586 219.855 71.8105C218.302 71.7984 213.223 71.7886 211.82 71.5625ZM262.352 93.7041C260.681 93.6502 259.404 93.6489 257.726 93.7119C257.66 94.9016 257.731 98.3361 257.15 99.0625C256.424 99.5303 254.679 99.0599 253.753 99.1543C252.998 99.2314 252.265 99.3507 251.515 99.4316C251.097 97.6907 251.071 95.565 250.994 93.7451C249.314 93.6981 247.654 93.6355 245.973 93.6895C245.934 99.332 246.167 104.831 246.079 110.596C251.476 110.616 256.88 110.51 262.271 110.594C262.238 108.579 262.234 106.563 262.26 104.548C262.321 101.523 262.565 96.606 262.352 93.7041ZM159.228 76.2266C161.658 76.1704 164.517 76.0405 166.899 76.3926C167.038 78.04 166.963 80.3691 166.967 82.0938L167.016 92.123L167.118 101.121C167.14 102.798 167.243 105.699 166.974 107.249C166.628 107.588 166.357 107.548 165.813 107.669C163.644 107.679 159.605 107.793 157.568 107.528C157.385 105.7 157.337 77.3514 157.611 76.6621C158.008 76.3564 158.71 76.3075 159.228 76.2266ZM165.297 77.7324C163.186 77.7082 161.075 77.7043 158.965 77.7217C159.084 81.6103 159.036 85.5186 159.104 89.4131C159.199 94.9289 159.377 100.709 159.128 106.22C161.054 106.252 163.354 106.309 165.266 106.162C165.442 103.276 165.322 99.4369 165.328 96.4648L165.297 77.7324ZM163.191 95.8125C164.831 96.3246 164.97 98.0073 163.164 98.5977C162.364 98.1371 161.819 97.8064 161.912 96.8389C162.202 96.3119 162.666 96.1154 163.191 95.8125ZM138.609 93.9277L137.039 93.9619L137.216 97.543C137.866 97.5963 138.601 97.6736 139.245 97.7002L139.962 97.7383C140.714 97.0046 140.401 94.8922 140.414 93.8359L138.609 93.9277ZM196.016 93.7539C196.093 94.9926 196.152 96.2323 196.189 97.4727C197.442 97.656 197.98 97.7114 199.241 97.6914C199.31 96.415 199.411 95.0328 199.427 93.7637C198.29 93.7495 197.153 93.7468 196.016 93.7539ZM252.527 93.6973C252.572 94.8915 252.62 96.3824 252.904 97.5498C253.51 97.561 255.411 97.6473 255.877 97.4902C255.972 96.2747 256.103 94.9574 256.11 93.7471C254.938 93.7276 253.694 93.6854 252.527 93.6973ZM216.653 92.6289C217.851 92.4071 221.003 91.861 221.968 92.6035C222.363 92.9077 222.333 93.3604 222.408 93.8438L222.523 94.7139L222.532 95.1553C222.393 95.7597 222.326 96.0457 222.089 96.6143C221.415 97.1227 217.382 97.1396 216.731 96.54C216.171 96.0235 216.555 93.4583 216.653 92.6289ZM228.435 92.6289C229.633 92.4071 232.784 91.861 233.749 92.6035C234.144 92.9077 234.115 93.3604 234.189 93.8438L234.305 94.7139L234.313 95.1553C234.174 95.7597 234.108 96.0457 233.87 96.6143C233.196 97.1227 229.163 97.1396 228.513 96.54C227.953 96.0235 228.336 93.4583 228.435 92.6289ZM221.122 94.585C220.66 93.6113 219.106 93.6859 218.171 93.7373C217.845 94.0585 217.665 94.1894 217.535 94.6387C217.811 95.6653 219.539 95.4668 220.395 95.375C220.924 94.9874 220.892 95.1246 221.122 94.585ZM232.907 94.585C232.446 93.6113 230.891 93.6859 229.956 93.7373C229.631 94.0585 229.45 94.1894 229.32 94.6387C229.596 95.6653 231.324 95.4668 232.18 95.375C232.709 94.9874 232.677 95.1246 232.907 94.585ZM172.319 92.667C173.629 92.518 178.327 92.2931 179.202 93.2373C179.2 93.6782 179.253 93.5036 178.935 93.9014C178.446 94.1518 177.699 94.161 177.13 94.207C175.966 94.2814 170.494 94.5642 170.164 93.4287C170.69 92.6427 171.431 92.7545 172.319 92.667ZM173.082 88.9902C174.466 88.8642 178.208 88.794 179.198 89.9072L179.155 90.1172C178.225 90.6538 177.384 90.6127 176.334 90.6416C175.138 90.6922 170.773 90.9379 170.145 90.0098C170.379 88.8833 172.117 89.0478 173.082 88.9902ZM221.575 75.9502C224.168 75.7501 232.055 75.4672 234.45 76.5107C235.542 76.9865 235.604 87.0065 234.702 88.0918C234.043 88.885 231.012 88.7051 229.855 88.7061C227.183 88.719 218.546 88.8342 216.345 88.3994C216.102 87.7093 215.795 86.4177 215.833 85.4941C215.908 83.687 215.421 78.1496 216.273 76.8115C216.803 75.9798 220.465 75.9955 221.575 75.9502ZM233.402 77.5391C230.415 77.6667 227.425 77.723 224.436 77.707C222.188 77.6921 219.599 77.5734 217.395 77.6328C217.708 80.2564 217.696 84.4 217.74 87.127C222.944 87.148 228.115 87.0061 233.334 87.0557C233.308 84.2456 233.177 80.2652 233.402 77.5391ZM175.913 78.2012C177.258 77.569 178.963 79.3635 178.996 80.7559C179.053 83.1786 177.719 85.2567 175.197 85.459C173.945 85.5515 172.708 85.1368 171.766 84.3076C170.23 82.9655 169.778 80.7628 171.215 79.1787H171.22C171.218 79.1802 171.217 79.1821 171.215 79.1836L172.635 79.3193C172.17 80.1295 171.886 80.8346 172.113 81.7949C172.267 82.4472 172.686 83.0064 173.268 83.3389C174.964 84.3299 176.852 83.0972 177.029 81.2607C177.114 80.387 176.976 80.0419 176.734 79.2178C176.363 78.9831 176.084 78.8453 175.833 78.4775L175.913 78.2012ZM252.146 66.0195C252.444 65.9922 252.746 66.0113 253.039 66.0752C254.595 66.4175 255.767 68.5282 256.549 69.7725C257.963 68.3722 259.822 67.2064 261.78 66.8389C264.128 66.4106 265.074 68.4259 264.519 70.46C263.858 72.8794 262.428 74.6908 260.854 76.5889C259.791 77.7404 256.163 81.5563 254.477 81.0908C253.825 80.4961 254.247 79.7376 254.129 79.583C252.048 76.8571 247.643 68.1656 252.146 66.0195ZM174.212 77.7422C173.638 78.3789 173.266 78.7455 172.639 79.3203L172.635 79.3193C172.636 79.318 172.637 79.3168 172.638 79.3154L171.22 79.1787C172.312 78.269 172.88 78.1257 174.212 77.7422ZM252.03 67.0156C251.184 69.1364 252.473 72.6978 253.331 74.6904C253.898 76.0337 254.586 77.323 255.387 78.541C257.637 76.9271 259.374 74.9334 260.927 72.6436C261.458 71.7545 263.027 69.4735 261.947 68.6934C259.839 68.5263 257.151 71.9623 256.009 73.4473C254.999 71.3072 254.689 67.6123 252.03 67.0156ZM163.945 68.0361C161.833 68.0331 159.543 67.9915 157.449 68.0771C157.48 68.7771 157.506 69.4773 157.527 70.1777C159.649 70.1656 161.771 70.1153 163.892 70.0264C163.974 69.2585 163.965 68.7989 163.945 68.0361ZM159.729 59.4902C159.493 59.6257 159.325 59.6532 159.306 59.8848C159.144 61.8044 159.345 64.2585 159.32 66.166L161.662 66.1641L161.981 66.0732C162.165 65.5091 162.108 60.3462 162.124 59.4141L159.729 59.4902ZM136.833 50.7656C138.25 51.2105 139.902 52.3452 141.063 53.2588C142.039 54.0263 145.915 56.703 144.662 58.0713C142.779 57.2659 136.961 53.5932 136.355 51.6816C136.435 51.1121 136.427 51.2636 136.833 50.7656ZM253.531 47.291C254.001 47.2921 254.344 47.2463 254.728 47.5244C255.606 49.2355 247.732 54.802 246.003 55.6416C245.553 55.8303 245.477 55.8729 244.988 55.8457L244.828 55.6572C244.916 53.4706 251.446 48.2966 253.531 47.291ZM230.452 35.8965C230.869 35.8871 230.97 35.8662 231.336 36.0557C231.971 37.7321 227.038 45.7853 225.576 47.166L224.91 47.1221C223.737 45.4681 228.89 37.1652 230.452 35.8965ZM163.242 35.4375C163.862 35.4638 164.419 35.6282 164.809 36.1084C166.895 38.6809 169.392 43.1321 169.616 46.3545C168.931 46.4397 168.518 46.4495 168.052 45.8457C167.253 44.81 166.461 43.5123 165.917 42.3232C164.941 40.1913 163.274 37.8145 163.242 35.4375ZM196.735 34.8828C197.604 34.9981 198.169 34.8885 198.878 34.9756C199.012 36.4884 199.212 41.4168 197.883 42.1885L197.527 42.0186C196.479 40.5488 196.708 36.7122 196.735 34.8828ZM197.852 28.1484C199.194 28.4041 198.905 33.7639 198.877 34.9727C198.168 34.8856 197.603 34.9952 196.734 34.8799C196.764 33.4384 196.611 28.9458 197.852 28.1484Z" fill="#696565"/>
</svg>
