<svg preserveAspectRatio="none" width="100%" height="100%" overflow="visible" style="display: block;" viewBox="0 0 16 16" fill="none" xmlns="http://www.w3.org/2000/svg">
<g id="Frame 105">
<path id="Star" d="M6.14881 0.962229C6.82793 0.0334229 8.21428 0.033424 8.8934 0.96223L10.4783 3.12979C10.6881 3.41675 10.9826 3.63072 11.3204 3.7416L13.8716 4.57909C14.9648 4.93796 15.3932 6.25645 14.7197 7.18935L13.148 9.36648C12.9399 9.6547 12.8274 10.0009 12.8263 10.3564L12.8182 13.0416C12.8147 14.1922 11.6932 15.007 10.5978 14.6548L8.04154 13.8328C7.70312 13.7239 7.3391 13.7239 7.00068 13.8328L4.44442 14.6548C3.34906 15.007 2.22748 14.1922 2.224 13.0416L2.21587 10.3564C2.21479 10.0009 2.1023 9.6547 1.89422 9.36648L0.322501 7.18935C-0.350985 6.25645 0.0774198 4.93796 1.17063 4.57909L3.72186 3.7416C4.05961 3.63072 4.35411 3.41675 4.56393 3.12979L6.14881 0.962229Z" fill="var(--fill-0, #283E37)"/>
</g>
</svg>
